M48
; DRILL file {KiCad (5.1.2)-1} date 7/9/2019 11:09:18 PM
; FORMAT={-:-/ absolute / inch / decimal}
; #@! TF.CreationDate,2019-07-09T23:09:18-04:00
; #@! TF.GenerationSoftware,Kicad,Pcbnew,(5.1.2)-1
FMAT,2
INCH
T1C0.0138
T2C0.0394
T3C0.0400
%
G90
G05
T1
X-0.8122Y-0.4693
X-0.7807Y-0.4693
X-0.6669Y-0.0858
X-0.639Y0.8811
X-0.62Y-0.1047
X-0.5916Y0.1174
X-0.5723Y-0.1736
X-0.4644Y-0.3048
X-0.3831Y-0.4339
X-0.3791Y-0.4693
X-0.2362Y0.0764
X-0.2122Y0.1712
X-0.1949Y0.3244
X-0.1542Y0.0425
X-0.135Y-0.3472
X-0.1242Y-0.3826
X-0.1116Y-0.0615
X-0.1008Y-0.3185
X-0.1004Y-0.2894
X-0.077Y0.1296
X0.0988Y0.4201
X0.1274Y0.1526
T2
X-0.9114Y-0.7563
X-0.8114Y-0.7563
X-0.7114Y-0.7563
X-0.6114Y-0.7563
X-0.5114Y-0.7563
X-0.4114Y-0.7563
X-0.3114Y-0.7563
X-0.2114Y-0.7563
X-0.1114Y-0.7563
X-0.0114Y-0.7563
X0.0886Y-0.7563
X0.1886Y-0.7563
X0.2886Y-0.7563
X0.3886Y-0.7563
X0.4886Y-0.7563
X0.5886Y-0.7563
T3
X-0.3606Y-0.5559
X-0.3606Y-0.6559
X-0.2606Y-0.5559
X-0.2606Y-0.6559
X-0.1606Y-0.5559
X-0.1606Y-0.6559
T0
M30
