G04 #@! TF.GenerationSoftware,KiCad,Pcbnew,(5.1.2)-1*
G04 #@! TF.CreationDate,2019-07-09T23:08:42-04:00*
G04 #@! TF.ProjectId,SPIvSPI_SAO_Black,53504976-5350-4495-9f53-414f5f426c61,0*
G04 #@! TF.SameCoordinates,PX8b5c450PY5b57ca0*
G04 #@! TF.FileFunction,Legend,Top*
G04 #@! TF.FilePolarity,Positive*
%FSLAX46Y46*%
G04 Gerber Fmt 4.6, Leading zero omitted, Abs format (unit mm)*
G04 Created by KiCad (PCBNEW (5.1.2)-1) date 2019-07-09 23:08:42*
%MOMM*%
%LPD*%
G04 APERTURE LIST*
%ADD10C,0.010000*%
G04 APERTURE END LIST*
D10*
G36*
X7784977Y847091D02*
G01*
X7831317Y820454D01*
X7865594Y773244D01*
X7864184Y684454D01*
X7819969Y538742D01*
X7725830Y320766D01*
X7574647Y15183D01*
X7359301Y-393348D01*
X7072674Y-920169D01*
X6765700Y-1476000D01*
X6479770Y-1988643D01*
X6264588Y-2362652D01*
X6110166Y-2608241D01*
X6006517Y-2735624D01*
X5943657Y-2755015D01*
X5911597Y-2676629D01*
X5900352Y-2510680D01*
X5899470Y-2361976D01*
X5939071Y-1759848D01*
X6046969Y-1176573D01*
X6212098Y-630380D01*
X6423392Y-139502D01*
X6669782Y277831D01*
X6940203Y603388D01*
X7223586Y818938D01*
X7508867Y906249D01*
X7784977Y847091D01*
X7784977Y847091D01*
G37*
X7784977Y847091D02*
X7831317Y820454D01*
X7865594Y773244D01*
X7864184Y684454D01*
X7819969Y538742D01*
X7725830Y320766D01*
X7574647Y15183D01*
X7359301Y-393348D01*
X7072674Y-920169D01*
X6765700Y-1476000D01*
X6479770Y-1988643D01*
X6264588Y-2362652D01*
X6110166Y-2608241D01*
X6006517Y-2735624D01*
X5943657Y-2755015D01*
X5911597Y-2676629D01*
X5900352Y-2510680D01*
X5899470Y-2361976D01*
X5939071Y-1759848D01*
X6046969Y-1176573D01*
X6212098Y-630380D01*
X6423392Y-139502D01*
X6669782Y277831D01*
X6940203Y603388D01*
X7223586Y818938D01*
X7508867Y906249D01*
X7784977Y847091D01*
G36*
X8204173Y-262433D02*
G01*
X8196587Y-488454D01*
X8165273Y-801943D01*
X8115118Y-1163640D01*
X8051008Y-1534284D01*
X7977831Y-1874616D01*
X7962529Y-1935621D01*
X7780808Y-2497516D01*
X7558095Y-2957806D01*
X7306668Y-3303213D01*
X7038804Y-3520460D01*
X6766780Y-3596268D01*
X6502875Y-3517360D01*
X6501037Y-3516201D01*
X6474024Y-3458885D01*
X6496942Y-3337581D01*
X6577484Y-3134355D01*
X6723342Y-2831273D01*
X6942211Y-2410402D01*
X7108837Y-2099330D01*
X7353947Y-1642642D01*
X7580943Y-1215480D01*
X7773348Y-849174D01*
X7914684Y-575055D01*
X7980252Y-442459D01*
X8083351Y-255579D01*
X8165225Y-164134D01*
X8183144Y-163138D01*
X8204173Y-262433D01*
X8204173Y-262433D01*
G37*
X8204173Y-262433D02*
X8196587Y-488454D01*
X8165273Y-801943D01*
X8115118Y-1163640D01*
X8051008Y-1534284D01*
X7977831Y-1874616D01*
X7962529Y-1935621D01*
X7780808Y-2497516D01*
X7558095Y-2957806D01*
X7306668Y-3303213D01*
X7038804Y-3520460D01*
X6766780Y-3596268D01*
X6502875Y-3517360D01*
X6501037Y-3516201D01*
X6474024Y-3458885D01*
X6496942Y-3337581D01*
X6577484Y-3134355D01*
X6723342Y-2831273D01*
X6942211Y-2410402D01*
X7108837Y-2099330D01*
X7353947Y-1642642D01*
X7580943Y-1215480D01*
X7773348Y-849174D01*
X7914684Y-575055D01*
X7980252Y-442459D01*
X8083351Y-255579D01*
X8165225Y-164134D01*
X8183144Y-163138D01*
X8204173Y-262433D01*
G36*
X1224299Y-5856551D02*
G01*
X1554218Y-6009685D01*
X1861675Y-6219513D01*
X2028003Y-6381115D01*
X2212598Y-6683995D01*
X2248865Y-6951651D01*
X2156636Y-7168734D01*
X1955745Y-7319895D01*
X1666026Y-7389784D01*
X1307314Y-7363054D01*
X923834Y-7235613D01*
X735630Y-7146321D01*
X625406Y-7061274D01*
X581491Y-6940035D01*
X592215Y-6742167D01*
X645907Y-6427234D01*
X663302Y-6332928D01*
X725724Y-6036593D01*
X787256Y-5872595D01*
X866287Y-5805038D01*
X938468Y-5795859D01*
X1224299Y-5856551D01*
X1224299Y-5856551D01*
G37*
X1224299Y-5856551D02*
X1554218Y-6009685D01*
X1861675Y-6219513D01*
X2028003Y-6381115D01*
X2212598Y-6683995D01*
X2248865Y-6951651D01*
X2156636Y-7168734D01*
X1955745Y-7319895D01*
X1666026Y-7389784D01*
X1307314Y-7363054D01*
X923834Y-7235613D01*
X735630Y-7146321D01*
X625406Y-7061274D01*
X581491Y-6940035D01*
X592215Y-6742167D01*
X645907Y-6427234D01*
X663302Y-6332928D01*
X725724Y-6036593D01*
X787256Y-5872595D01*
X866287Y-5805038D01*
X938468Y-5795859D01*
X1224299Y-5856551D01*
G36*
X848451Y-8184377D02*
G01*
X1279793Y-8477614D01*
X1645856Y-8793772D01*
X1927347Y-9109817D01*
X2104972Y-9402714D01*
X2159440Y-9649431D01*
X2142633Y-9729479D01*
X2045719Y-9829816D01*
X1853156Y-9838124D01*
X1543747Y-9754356D01*
X1469865Y-9727977D01*
X1202877Y-9615951D01*
X885371Y-9463701D01*
X729031Y-9381820D01*
X489749Y-9243101D01*
X364825Y-9128639D01*
X317257Y-8986773D01*
X310000Y-8796794D01*
X322848Y-8497532D01*
X354478Y-8220874D01*
X361618Y-8181745D01*
X413235Y-7923657D01*
X848451Y-8184377D01*
X848451Y-8184377D01*
G37*
X848451Y-8184377D02*
X1279793Y-8477614D01*
X1645856Y-8793772D01*
X1927347Y-9109817D01*
X2104972Y-9402714D01*
X2159440Y-9649431D01*
X2142633Y-9729479D01*
X2045719Y-9829816D01*
X1853156Y-9838124D01*
X1543747Y-9754356D01*
X1469865Y-9727977D01*
X1202877Y-9615951D01*
X885371Y-9463701D01*
X729031Y-9381820D01*
X489749Y-9243101D01*
X364825Y-9128639D01*
X317257Y-8986773D01*
X310000Y-8796794D01*
X322848Y-8497532D01*
X354478Y-8220874D01*
X361618Y-8181745D01*
X413235Y-7923657D01*
X848451Y-8184377D01*
G36*
X6659926Y-7183216D02*
G01*
X6775674Y-7256882D01*
X6824919Y-7303853D01*
X6844405Y-7368787D01*
X6825360Y-7472013D01*
X6759017Y-7633858D01*
X6636603Y-7874650D01*
X6449349Y-8214717D01*
X6188485Y-8674385D01*
X6089175Y-8848059D01*
X5715250Y-9500037D01*
X5415665Y-10018689D01*
X5181696Y-10418251D01*
X5004621Y-10712959D01*
X4875715Y-10917049D01*
X4786256Y-11044755D01*
X4727521Y-11110315D01*
X4692117Y-11128000D01*
X4660404Y-11050638D01*
X4638452Y-10847620D01*
X4630926Y-10562544D01*
X4630954Y-10556500D01*
X4671420Y-9839325D01*
X4779166Y-9175377D01*
X4945177Y-8578526D01*
X5160437Y-8062643D01*
X5415931Y-7641599D01*
X5702642Y-7329264D01*
X6011555Y-7139508D01*
X6333655Y-7086202D01*
X6659926Y-7183216D01*
X6659926Y-7183216D01*
G37*
X6659926Y-7183216D02*
X6775674Y-7256882D01*
X6824919Y-7303853D01*
X6844405Y-7368787D01*
X6825360Y-7472013D01*
X6759017Y-7633858D01*
X6636603Y-7874650D01*
X6449349Y-8214717D01*
X6188485Y-8674385D01*
X6089175Y-8848059D01*
X5715250Y-9500037D01*
X5415665Y-10018689D01*
X5181696Y-10418251D01*
X5004621Y-10712959D01*
X4875715Y-10917049D01*
X4786256Y-11044755D01*
X4727521Y-11110315D01*
X4692117Y-11128000D01*
X4660404Y-11050638D01*
X4638452Y-10847620D01*
X4630926Y-10562544D01*
X4630954Y-10556500D01*
X4671420Y-9839325D01*
X4779166Y-9175377D01*
X4945177Y-8578526D01*
X5160437Y-8062643D01*
X5415931Y-7641599D01*
X5702642Y-7329264D01*
X6011555Y-7139508D01*
X6333655Y-7086202D01*
X6659926Y-7183216D01*
G36*
X7166574Y-8769147D02*
G01*
X7152044Y-8955592D01*
X7112191Y-9252237D01*
X7054776Y-9603208D01*
X7037188Y-9700480D01*
X6863636Y-10489000D01*
X6660418Y-11147876D01*
X6431845Y-11670345D01*
X6182228Y-12049650D01*
X5915879Y-12279029D01*
X5637108Y-12351723D01*
X5390000Y-12283392D01*
X5242314Y-12174456D01*
X5196877Y-12081446D01*
X5241183Y-11987037D01*
X5354218Y-11771418D01*
X5521469Y-11460840D01*
X5728424Y-11081553D01*
X5960569Y-10659807D01*
X6203392Y-10221854D01*
X6442381Y-9793944D01*
X6663021Y-9402327D01*
X6850800Y-9073254D01*
X6991206Y-8832975D01*
X7011245Y-8799667D01*
X7165147Y-8545667D01*
X7166574Y-8769147D01*
X7166574Y-8769147D01*
G37*
X7166574Y-8769147D02*
X7152044Y-8955592D01*
X7112191Y-9252237D01*
X7054776Y-9603208D01*
X7037188Y-9700480D01*
X6863636Y-10489000D01*
X6660418Y-11147876D01*
X6431845Y-11670345D01*
X6182228Y-12049650D01*
X5915879Y-12279029D01*
X5637108Y-12351723D01*
X5390000Y-12283392D01*
X5242314Y-12174456D01*
X5196877Y-12081446D01*
X5241183Y-11987037D01*
X5354218Y-11771418D01*
X5521469Y-11460840D01*
X5728424Y-11081553D01*
X5960569Y-10659807D01*
X6203392Y-10221854D01*
X6442381Y-9793944D01*
X6663021Y-9402327D01*
X6850800Y-9073254D01*
X6991206Y-8832975D01*
X7011245Y-8799667D01*
X7165147Y-8545667D01*
X7166574Y-8769147D01*
G36*
X17251673Y-9336703D02*
G01*
X17716472Y-9427223D01*
X18077876Y-9610779D01*
X18309930Y-9874072D01*
X18313446Y-9880778D01*
X18394164Y-10068113D01*
X18379528Y-10203334D01*
X18279699Y-10356194D01*
X17981160Y-10647182D01*
X17584922Y-10835670D01*
X17066687Y-10932584D01*
X16982483Y-10939504D01*
X16665181Y-10955525D01*
X16483773Y-10944071D01*
X16406413Y-10900842D01*
X16396667Y-10860380D01*
X16422515Y-10729305D01*
X16491557Y-10482667D01*
X16591036Y-10164728D01*
X16637840Y-10023504D01*
X16879013Y-9307667D01*
X17251673Y-9336703D01*
X17251673Y-9336703D01*
G37*
X17251673Y-9336703D02*
X17716472Y-9427223D01*
X18077876Y-9610779D01*
X18309930Y-9874072D01*
X18313446Y-9880778D01*
X18394164Y-10068113D01*
X18379528Y-10203334D01*
X18279699Y-10356194D01*
X17981160Y-10647182D01*
X17584922Y-10835670D01*
X17066687Y-10932584D01*
X16982483Y-10939504D01*
X16665181Y-10955525D01*
X16483773Y-10944071D01*
X16406413Y-10900842D01*
X16396667Y-10860380D01*
X16422515Y-10729305D01*
X16491557Y-10482667D01*
X16591036Y-10164728D01*
X16637840Y-10023504D01*
X16879013Y-9307667D01*
X17251673Y-9336703D01*
G36*
X17409146Y-12092873D02*
G01*
X17686298Y-12224873D01*
X17780496Y-12327403D01*
X17808564Y-12498760D01*
X17681162Y-12678626D01*
X17395024Y-12869184D01*
X16946888Y-13072621D01*
X16348244Y-13286314D01*
X15981157Y-13404275D01*
X15748109Y-13468950D01*
X15622411Y-13480351D01*
X15577378Y-13438494D01*
X15586321Y-13343394D01*
X15599969Y-13286722D01*
X15654221Y-13089226D01*
X15737905Y-12803888D01*
X15803465Y-12588222D01*
X15953767Y-12101667D01*
X16525219Y-12044065D01*
X17013649Y-12030692D01*
X17409146Y-12092873D01*
X17409146Y-12092873D01*
G37*
X17409146Y-12092873D02*
X17686298Y-12224873D01*
X17780496Y-12327403D01*
X17808564Y-12498760D01*
X17681162Y-12678626D01*
X17395024Y-12869184D01*
X16946888Y-13072621D01*
X16348244Y-13286314D01*
X15981157Y-13404275D01*
X15748109Y-13468950D01*
X15622411Y-13480351D01*
X15577378Y-13438494D01*
X15586321Y-13343394D01*
X15599969Y-13286722D01*
X15654221Y-13089226D01*
X15737905Y-12803888D01*
X15803465Y-12588222D01*
X15953767Y-12101667D01*
X16525219Y-12044065D01*
X17013649Y-12030692D01*
X17409146Y-12092873D01*
G36*
X-13337390Y27870649D02*
G01*
X-12874232Y27841297D01*
X-12390678Y27808769D01*
X-11962745Y27778249D01*
X-11795729Y27765545D01*
X-11159125Y27715548D01*
X-10919394Y27280274D01*
X-10313339Y26185528D01*
X-9760087Y25197692D01*
X-9262794Y24322092D01*
X-8824617Y23564050D01*
X-8448710Y22928892D01*
X-8138230Y22421942D01*
X-7896333Y22048523D01*
X-7726174Y21813961D01*
X-7630911Y21723578D01*
X-7625126Y21722667D01*
X-7501576Y21732945D01*
X-7232923Y21761980D01*
X-6842037Y21807078D01*
X-6351785Y21865543D01*
X-5785034Y21934678D01*
X-5164652Y22011788D01*
X-5042776Y22027097D01*
X-2623150Y22331527D01*
X-77075Y22108138D01*
X2469000Y21884750D01*
X4416334Y21113613D01*
X5251742Y20769365D01*
X6047289Y20415724D01*
X6778537Y20064892D01*
X7421048Y19729068D01*
X7950384Y19420455D01*
X8333425Y19157993D01*
X8332568Y19065507D01*
X8186261Y18906656D01*
X7902680Y18686294D01*
X7490004Y18409278D01*
X6956409Y18080463D01*
X6310072Y17704704D01*
X5559170Y17286858D01*
X4711880Y16831780D01*
X3776379Y16344325D01*
X2760844Y15829349D01*
X2553667Y15725878D01*
X1980645Y15440061D01*
X1458226Y15178855D01*
X1005219Y14951714D01*
X640434Y14768093D01*
X382679Y14637447D01*
X250764Y14569229D01*
X237609Y14561698D01*
X278309Y14497903D01*
X415235Y14361970D01*
X533942Y14256515D01*
X1317446Y13485957D01*
X1986303Y12624127D01*
X2515082Y11704233D01*
X2557315Y11614577D01*
X2853341Y10973868D01*
X9157667Y5696030D01*
X9258623Y6660848D01*
X9303989Y7076298D01*
X9348759Y7455137D01*
X9351358Y7475109D01*
X9717117Y7475109D01*
X9779354Y7327261D01*
X9970053Y7148638D01*
X10297851Y6932184D01*
X10771387Y6670845D01*
X11139892Y6484200D01*
X11938904Y6127568D01*
X12692149Y5880660D01*
X13454267Y5731685D01*
X14279901Y5668852D01*
X14915000Y5669553D01*
X15475194Y5692447D01*
X15904510Y5731630D01*
X16241003Y5791791D01*
X16481334Y5862524D01*
X16764708Y5978913D01*
X16917443Y6090185D01*
X16975324Y6222471D01*
X16975455Y6223364D01*
X16976578Y6324326D01*
X16926826Y6377371D01*
X16800817Y6381725D01*
X16573166Y6336615D01*
X16218488Y6241268D01*
X16058000Y6195412D01*
X15665428Y6118335D01*
X15149655Y6072134D01*
X14693023Y6060338D01*
X13610321Y6142675D01*
X12525840Y6392484D01*
X11437706Y6810339D01*
X10374343Y7378343D01*
X10063335Y7551081D01*
X9866087Y7619890D01*
X9774704Y7599237D01*
X9717117Y7475109D01*
X9351358Y7475109D01*
X9387188Y7750386D01*
X9409669Y7895730D01*
X9550603Y8207529D01*
X9837107Y8467398D01*
X10251136Y8667028D01*
X10774641Y8798112D01*
X11216102Y8837043D01*
X12590324Y8837043D01*
X12622964Y8407676D01*
X12682656Y8016429D01*
X12792562Y7575389D01*
X12953662Y7284397D01*
X13180990Y7128071D01*
X13489583Y7091031D01*
X13580008Y7098473D01*
X13813721Y7132281D01*
X13965847Y7168213D01*
X13990045Y7180489D01*
X13986938Y7274033D01*
X13946780Y7494979D01*
X13876806Y7807289D01*
X13810713Y8073595D01*
X13591033Y8926354D01*
X13850850Y9683059D01*
X14028441Y10292359D01*
X14105920Y10803056D01*
X14110667Y10951599D01*
X14110667Y11463433D01*
X13694144Y11287457D01*
X13439559Y11164555D01*
X13301816Y11043271D01*
X13234968Y10878601D01*
X13224299Y10827256D01*
X13161488Y10612268D01*
X13045068Y10307865D01*
X12898711Y9975299D01*
X12878823Y9933404D01*
X12712741Y9546042D01*
X12618413Y9198544D01*
X12590324Y8837043D01*
X11216102Y8837043D01*
X11389576Y8852341D01*
X11489859Y8853333D01*
X12140317Y8853333D01*
X12190189Y9217186D01*
X12251250Y9468641D01*
X12367846Y9805455D01*
X12517071Y10162915D01*
X12549924Y10233523D01*
X12697729Y10552510D01*
X12782421Y10784866D01*
X12810504Y10990429D01*
X12788481Y11229039D01*
X12722854Y11560535D01*
X12703777Y11649240D01*
X12704122Y11653683D01*
X13110895Y11653683D01*
X13147397Y11582583D01*
X13281649Y11568347D01*
X13451559Y11611944D01*
X13518000Y11647333D01*
X13584492Y11709093D01*
X13500401Y11729762D01*
X13454500Y11730704D01*
X13276819Y11734314D01*
X13202617Y11738350D01*
X13122318Y11679763D01*
X13110895Y11653683D01*
X12704122Y11653683D01*
X12711525Y11748786D01*
X13713881Y11748786D01*
X13721957Y11732000D01*
X13792693Y11787993D01*
X13856667Y11859000D01*
X13908185Y11962140D01*
X13876092Y11986000D01*
X13774204Y11918372D01*
X13741382Y11859000D01*
X13713881Y11748786D01*
X12711525Y11748786D01*
X12721558Y11877660D01*
X12833884Y12022195D01*
X12955203Y12152680D01*
X12998176Y12285525D01*
X12962954Y12468686D01*
X12849688Y12750119D01*
X12836273Y12780547D01*
X12728578Y13074185D01*
X12724665Y13251189D01*
X12827607Y13331054D01*
X12924565Y13340667D01*
X13091969Y13263534D01*
X13277807Y13051484D01*
X13458120Y12733543D01*
X13496702Y12647532D01*
X13605435Y12484897D01*
X13786404Y12409759D01*
X13915907Y12393532D01*
X14172670Y12322045D01*
X14354763Y12145738D01*
X14469865Y11848458D01*
X14525658Y11414050D01*
X14533869Y11093801D01*
X14517659Y10667729D01*
X14458965Y10287659D01*
X14342968Y9871707D01*
X14277702Y9678364D01*
X14134946Y9237666D01*
X14069347Y8922728D01*
X14088117Y8705097D01*
X14198468Y8556321D01*
X14407610Y8447947D01*
X14605775Y8384008D01*
X15054126Y8231926D01*
X15538682Y8029967D01*
X16011470Y7801546D01*
X16424515Y7570077D01*
X16729844Y7358974D01*
X16762258Y7331505D01*
X17062669Y7015615D01*
X17259080Y6698474D01*
X17327479Y6423371D01*
X17297266Y6297674D01*
X17213799Y6043698D01*
X17087298Y5690149D01*
X16927984Y5265735D01*
X16777051Y4877419D01*
X16568245Y4337564D01*
X16423880Y3937379D01*
X16339386Y3661902D01*
X16310191Y3496172D01*
X16331722Y3425226D01*
X16333072Y3424424D01*
X16701334Y3189975D01*
X17146475Y2863209D01*
X17629903Y2475664D01*
X18113025Y2058876D01*
X18557248Y1644383D01*
X18755949Y1444494D01*
X19676136Y375482D01*
X20440093Y-757771D01*
X21046938Y-1953102D01*
X21495791Y-3208347D01*
X21785772Y-4521340D01*
X21916002Y-5889918D01*
X21923785Y-6344333D01*
X21840848Y-7731113D01*
X21596896Y-9066539D01*
X21193318Y-10347193D01*
X20631508Y-11569652D01*
X19912857Y-12730496D01*
X19038757Y-13826306D01*
X18754904Y-14132992D01*
X18002194Y-14920340D01*
X18273433Y-15014895D01*
X18621933Y-15177296D01*
X18805698Y-15364831D01*
X18824370Y-15578473D01*
X18677593Y-15819198D01*
X18365008Y-16087980D01*
X17886260Y-16385795D01*
X17742321Y-16463968D01*
X17445347Y-16627760D01*
X17289788Y-16731248D01*
X17263127Y-16784687D01*
X17334084Y-16798439D01*
X17774260Y-16874116D01*
X18217503Y-17071288D01*
X18595427Y-17357932D01*
X18649206Y-17414303D01*
X18962104Y-17760643D01*
X18771637Y-17914874D01*
X18487143Y-18082362D01*
X18087624Y-18211199D01*
X17558030Y-18304520D01*
X16883310Y-18365462D01*
X16523667Y-18383343D01*
X15969467Y-18394177D01*
X15358391Y-18388135D01*
X14767970Y-18366888D01*
X14313026Y-18335661D01*
X13868781Y-18297236D01*
X13549274Y-18279684D01*
X13310945Y-18285186D01*
X13110233Y-18315925D01*
X12903578Y-18374083D01*
X12790834Y-18411913D01*
X12670696Y-18451275D01*
X12549117Y-18483821D01*
X12410164Y-18509983D01*
X12237902Y-18530193D01*
X12016397Y-18544882D01*
X11729715Y-18554481D01*
X11361922Y-18559422D01*
X10897085Y-18560136D01*
X10319268Y-18557055D01*
X9612539Y-18550611D01*
X8760962Y-18541234D01*
X8239573Y-18535154D01*
X4185195Y-18487441D01*
X3084443Y-18795812D01*
X2428291Y-18963224D01*
X1882664Y-19058165D01*
X1404573Y-19079632D01*
X951033Y-19026623D01*
X479055Y-18898135D01*
X20459Y-18724369D01*
X-362641Y-18574167D01*
X-620441Y-18494507D01*
X-778469Y-18478963D01*
X-847374Y-18505930D01*
X-945944Y-18633793D01*
X-960000Y-18688365D01*
X-915976Y-18786390D01*
X-794349Y-18999710D01*
X-610782Y-19302292D01*
X-380940Y-19668097D01*
X-219166Y-19919706D01*
X36994Y-20315223D01*
X263495Y-20665907D01*
X442995Y-20944836D01*
X558153Y-21125085D01*
X589374Y-21175041D01*
X575883Y-21190220D01*
X511648Y-21204031D01*
X389591Y-21216534D01*
X202632Y-21227789D01*
X-56310Y-21237857D01*
X-394315Y-21246796D01*
X-818461Y-21254668D01*
X-1335830Y-21261533D01*
X-1953501Y-21267450D01*
X-2678553Y-21272480D01*
X-3518067Y-21276683D01*
X-4479122Y-21280119D01*
X-5568798Y-21282848D01*
X-6794176Y-21284929D01*
X-8162334Y-21286424D01*
X-9680354Y-21287392D01*
X-11355314Y-21287894D01*
X-12719463Y-21288000D01*
X-14211138Y-21287605D01*
X-15656597Y-21286448D01*
X-17046786Y-21284573D01*
X-18372653Y-21282022D01*
X-19625144Y-21278838D01*
X-20795207Y-21275064D01*
X-21873788Y-21270743D01*
X-22851835Y-21265917D01*
X-23720296Y-21260630D01*
X-24470116Y-21254924D01*
X-25092243Y-21248842D01*
X-25577625Y-21242427D01*
X-25917208Y-21235722D01*
X-26101939Y-21228770D01*
X-26134682Y-21224500D01*
X-26166114Y-21115419D01*
X-26213789Y-20885240D01*
X-26268260Y-20580237D01*
X-26277235Y-20526000D01*
X-26381113Y-19891000D01*
X-25562105Y-15954000D01*
X-25422356Y-15282343D01*
X-25296510Y-14681010D01*
X-25180672Y-14136155D01*
X-25070945Y-13633929D01*
X-24963434Y-13160484D01*
X-24854245Y-12701974D01*
X-24739480Y-12244550D01*
X-24615245Y-11774365D01*
X-24477645Y-11277571D01*
X-24322783Y-10740321D01*
X-24146764Y-10148767D01*
X-23945693Y-9489060D01*
X-23715674Y-8747355D01*
X-23452812Y-7909803D01*
X-23153211Y-6962556D01*
X-22812976Y-5891767D01*
X-22428210Y-4683588D01*
X-22115819Y-3703279D01*
X-21867778Y-2924892D01*
X-21504455Y-3151093D01*
X-21141133Y-3377294D01*
X-21038119Y-4522147D01*
X-20910853Y-5651936D01*
X-20735658Y-6679471D01*
X-20501139Y-7632888D01*
X-20195900Y-8540324D01*
X-19808544Y-9429914D01*
X-19327674Y-10329795D01*
X-18741894Y-11268103D01*
X-18039807Y-12272974D01*
X-17728002Y-12694333D01*
X-17425778Y-13108674D01*
X-17120907Y-13546147D01*
X-16849137Y-13954339D01*
X-16648059Y-14277686D01*
X-16459372Y-14592210D01*
X-16310428Y-14799565D01*
X-16157413Y-14939865D01*
X-15956511Y-15053223D01*
X-15663909Y-15179754D01*
X-15661815Y-15180622D01*
X-15339475Y-15304592D01*
X-14887686Y-15462448D01*
X-14302163Y-15655517D01*
X-13578617Y-15885122D01*
X-12712762Y-16152590D01*
X-11700311Y-16459247D01*
X-10536979Y-16806417D01*
X-9218476Y-17195425D01*
X-7860333Y-17592685D01*
X-7084523Y-17819061D01*
X-6341076Y-18036462D01*
X-5649581Y-18239125D01*
X-5029630Y-18421288D01*
X-4500813Y-18577188D01*
X-4082721Y-18701065D01*
X-3794944Y-18787157D01*
X-3687296Y-18820047D01*
X-3403752Y-18904879D01*
X-3248199Y-18936799D01*
X-3188338Y-18917497D01*
X-3191872Y-18848664D01*
X-3192593Y-18845952D01*
X-3239588Y-18656782D01*
X-3281313Y-18475876D01*
X-3338949Y-18316831D01*
X-3441658Y-18291507D01*
X-3521235Y-18315952D01*
X-3751149Y-18346708D01*
X-3922552Y-18322830D01*
X-4043773Y-18287208D01*
X-4311140Y-18208848D01*
X-4708277Y-18092545D01*
X-5218805Y-17943092D01*
X-5826345Y-17765285D01*
X-6514519Y-17563916D01*
X-6585401Y-17543178D01*
X-2986437Y-17543178D01*
X-2978721Y-17843264D01*
X-2951077Y-18027118D01*
X-2901424Y-18120923D01*
X-2894749Y-18126694D01*
X-2768019Y-18196504D01*
X-2541012Y-18299017D01*
X-2271565Y-18410624D01*
X-2017514Y-18507715D01*
X-1836695Y-18566680D01*
X-1798383Y-18574255D01*
X-1780697Y-18497741D01*
X-1773913Y-18288147D01*
X-1775523Y-18180594D01*
X-1370917Y-18180594D01*
X-1343628Y-18235748D01*
X-1236985Y-18286880D01*
X-1199110Y-18273131D01*
X-1171165Y-18195337D01*
X-1223675Y-18149353D01*
X-1350460Y-18107966D01*
X-1370917Y-18180594D01*
X-1775523Y-18180594D01*
X-1778506Y-17981408D01*
X-1787535Y-17752789D01*
X-1788008Y-17605000D01*
X-1341000Y-17605000D01*
X-621333Y-17966340D01*
X4959Y-18267731D01*
X529628Y-18481311D01*
X993120Y-18611411D01*
X1435883Y-18662357D01*
X1898363Y-18638480D01*
X2421007Y-18544109D01*
X3044262Y-18383571D01*
X3108439Y-18365526D01*
X4162334Y-18067719D01*
X8268667Y-18090359D01*
X9234468Y-18096234D01*
X10048005Y-18100732D01*
X10726343Y-18101494D01*
X11286549Y-18096159D01*
X11745688Y-18082366D01*
X12120826Y-18057756D01*
X12429029Y-18019968D01*
X12687364Y-17966642D01*
X12912895Y-17895418D01*
X12916928Y-17893659D01*
X14467678Y-17893659D01*
X14494911Y-17929205D01*
X14663933Y-17949524D01*
X14967160Y-17959856D01*
X15369824Y-17961262D01*
X15837157Y-17954802D01*
X16334393Y-17941537D01*
X16826764Y-17922527D01*
X17279501Y-17898834D01*
X17657837Y-17871516D01*
X17927005Y-17841636D01*
X18026500Y-17821481D01*
X18228144Y-17742845D01*
X18337512Y-17667597D01*
X18344000Y-17650906D01*
X18274391Y-17574842D01*
X18097038Y-17462588D01*
X17970033Y-17396738D01*
X17709874Y-17295641D01*
X17408849Y-17235799D01*
X17012444Y-17207844D01*
X16848199Y-17203969D01*
X16500183Y-17203817D01*
X16223951Y-17223479D01*
X15964371Y-17274199D01*
X15666312Y-17367221D01*
X15274641Y-17513787D01*
X15214578Y-17537125D01*
X14813638Y-17700155D01*
X14567155Y-17817647D01*
X14467678Y-17893659D01*
X12916928Y-17893659D01*
X13122690Y-17803936D01*
X13333814Y-17689834D01*
X13563332Y-17550753D01*
X13828311Y-17384333D01*
X13957800Y-17303534D01*
X14081096Y-17222694D01*
X14893941Y-17222694D01*
X14895527Y-17224000D01*
X14984268Y-17193577D01*
X15199044Y-17110328D01*
X15509467Y-16986277D01*
X15885153Y-16833454D01*
X15963063Y-16801475D01*
X16721374Y-16480555D01*
X17324652Y-16204550D01*
X17780110Y-15969902D01*
X18094962Y-15773056D01*
X18174924Y-15711056D01*
X18309079Y-15581101D01*
X18316942Y-15499298D01*
X18259334Y-15449016D01*
X18054500Y-15383301D01*
X17755320Y-15366256D01*
X17429136Y-15396264D01*
X17143294Y-15471702D01*
X17132491Y-15476125D01*
X16934475Y-15588395D01*
X16667070Y-15778015D01*
X16384275Y-16006360D01*
X16352044Y-16034376D01*
X16019928Y-16316792D01*
X15650999Y-16617287D01*
X15351111Y-16850917D01*
X15117954Y-17030270D01*
X14955478Y-17162456D01*
X14893941Y-17222694D01*
X14081096Y-17222694D01*
X14338376Y-17054008D01*
X14763003Y-16753070D01*
X15210768Y-16418009D01*
X15660760Y-16066112D01*
X16092066Y-15714670D01*
X16483775Y-15380971D01*
X16814974Y-15082303D01*
X17064751Y-14835956D01*
X17212194Y-14659217D01*
X17243334Y-14587266D01*
X17173012Y-14507459D01*
X16994775Y-14397544D01*
X16883500Y-14343053D01*
X16449871Y-14205877D01*
X16004622Y-14189589D01*
X15536471Y-14299339D01*
X15034136Y-14540283D01*
X14486337Y-14917572D01*
X13881791Y-15436360D01*
X13348951Y-15957515D01*
X12965442Y-16336859D01*
X12637107Y-16636227D01*
X12382340Y-16839787D01*
X12219532Y-16931706D01*
X12216219Y-16932584D01*
X11929839Y-16968206D01*
X11563007Y-16946532D01*
X11098870Y-16864319D01*
X10520575Y-16718326D01*
X9811272Y-16505311D01*
X9538667Y-16417498D01*
X8845097Y-16199704D01*
X8263283Y-16042404D01*
X7748738Y-15940816D01*
X7256971Y-15890157D01*
X6743494Y-15885643D01*
X6163819Y-15922491D01*
X5542215Y-15987827D01*
X5064120Y-16039215D01*
X4596622Y-16081655D01*
X4190420Y-16111029D01*
X3896213Y-16123218D01*
X3874216Y-16123333D01*
X3469695Y-16105131D01*
X3086473Y-16056009D01*
X2763252Y-15984194D01*
X2538732Y-15897914D01*
X2455240Y-15821671D01*
X2452709Y-15643149D01*
X2472801Y-15558889D01*
X2878222Y-15558889D01*
X2889845Y-15609223D01*
X2934667Y-15615333D01*
X3004357Y-15584355D01*
X2991111Y-15558889D01*
X2890632Y-15548756D01*
X2878222Y-15558889D01*
X2472801Y-15558889D01*
X2520733Y-15357877D01*
X2643626Y-15004829D01*
X2805700Y-14622983D01*
X2991268Y-14251313D01*
X3118519Y-14039079D01*
X7506667Y-14039079D01*
X7562708Y-14282031D01*
X7702456Y-14479808D01*
X7883346Y-14580938D01*
X7956433Y-14582984D01*
X8147628Y-14477794D01*
X8346352Y-14233312D01*
X8533595Y-13877484D01*
X8654079Y-13557387D01*
X8742351Y-13305382D01*
X8868484Y-12973356D01*
X9020033Y-12591014D01*
X9184550Y-12188060D01*
X9349586Y-11794199D01*
X9502697Y-11439136D01*
X9631433Y-11152574D01*
X9723348Y-10964218D01*
X9765995Y-10903773D01*
X9766023Y-10903801D01*
X9771444Y-10994642D01*
X9767027Y-11228509D01*
X9753782Y-11579442D01*
X9732719Y-12021480D01*
X9704846Y-12528662D01*
X9698984Y-12628223D01*
X9670730Y-13160138D01*
X9651246Y-13646457D01*
X9641228Y-14057256D01*
X9641372Y-14362610D01*
X9652373Y-14532594D01*
X9654484Y-14542589D01*
X9778639Y-14743026D01*
X9990614Y-14831664D01*
X10238707Y-14792661D01*
X10322450Y-14747278D01*
X10443493Y-14621378D01*
X10614670Y-14384147D01*
X10808895Y-14074953D01*
X10925867Y-13870112D01*
X11356496Y-13089033D01*
X11711452Y-12450803D01*
X11994572Y-11948764D01*
X12209694Y-11576258D01*
X12360654Y-11326627D01*
X12451287Y-11193214D01*
X12483942Y-11166386D01*
X12490054Y-11261116D01*
X12474659Y-11481462D01*
X12441029Y-11785531D01*
X12427354Y-11890676D01*
X12384530Y-12264496D01*
X12340788Y-12739973D01*
X12301912Y-13249564D01*
X12278700Y-13626998D01*
X12257621Y-14081339D01*
X12252902Y-14400577D01*
X12266820Y-14618352D01*
X12301652Y-14768307D01*
X12359678Y-14884084D01*
X12364287Y-14891199D01*
X12561148Y-15069207D01*
X12806260Y-15089806D01*
X13086234Y-14953301D01*
X13185566Y-14872429D01*
X13448470Y-14637524D01*
X13457695Y-14231152D01*
X14280000Y-14231152D01*
X14280000Y-14510937D01*
X14682167Y-14255837D01*
X15003738Y-14079652D01*
X15356405Y-13926314D01*
X15501867Y-13876702D01*
X16022605Y-13767522D01*
X16468438Y-13779256D01*
X16716698Y-13843524D01*
X16880233Y-13885392D01*
X17035535Y-13877112D01*
X17215014Y-13804484D01*
X17451083Y-13653311D01*
X17776152Y-13409394D01*
X17864117Y-13340869D01*
X18295191Y-12946900D01*
X18588546Y-12553183D01*
X18738543Y-12173679D01*
X18739542Y-11822348D01*
X18596968Y-11526918D01*
X18426603Y-11310334D01*
X18691702Y-11121566D01*
X18961141Y-10870372D01*
X19199121Y-10544445D01*
X19371511Y-10200398D01*
X19444182Y-9894844D01*
X19444667Y-9872584D01*
X19363935Y-9488143D01*
X19135465Y-9134387D01*
X18779847Y-8823570D01*
X18317671Y-8567948D01*
X17769526Y-8379776D01*
X17156003Y-8271311D01*
X16717545Y-8249333D01*
X16352285Y-8266481D01*
X16099367Y-8337165D01*
X15925570Y-8490251D01*
X15797671Y-8754600D01*
X15685759Y-9145754D01*
X15605064Y-9447692D01*
X15487121Y-9860788D01*
X15346558Y-10335011D01*
X15198008Y-10820329D01*
X15167995Y-10916333D01*
X14896895Y-11795600D01*
X14671963Y-12557916D01*
X14495567Y-13194450D01*
X14370072Y-13696373D01*
X14297843Y-14054851D01*
X14280000Y-14231152D01*
X13457695Y-14231152D01*
X13479176Y-13284929D01*
X13499406Y-12726375D01*
X13533507Y-12136023D01*
X13577159Y-11575306D01*
X13626042Y-11105658D01*
X13639777Y-11001000D01*
X13739627Y-10277765D01*
X13816347Y-9701631D01*
X13871921Y-9252238D01*
X13908331Y-8909226D01*
X13927562Y-8652235D01*
X13931596Y-8460905D01*
X13922416Y-8314876D01*
X13909605Y-8230888D01*
X13794201Y-7908228D01*
X13610523Y-7712174D01*
X13385397Y-7654483D01*
X13145649Y-7746913D01*
X13034067Y-7847167D01*
X12937701Y-7987314D01*
X12786104Y-8249446D01*
X12596262Y-8602381D01*
X12385158Y-9014940D01*
X12261578Y-9265333D01*
X11971795Y-9852200D01*
X11690703Y-10406013D01*
X11428425Y-10908189D01*
X11195086Y-11340144D01*
X11000809Y-11683294D01*
X10855718Y-11919054D01*
X10769938Y-12028842D01*
X10753937Y-12032825D01*
X10748309Y-11938912D01*
X10759683Y-11707138D01*
X10785879Y-11367888D01*
X10824719Y-10951544D01*
X10847052Y-10734759D01*
X10903482Y-10202107D01*
X10962376Y-9645023D01*
X11017270Y-9124713D01*
X11061703Y-8702382D01*
X11067077Y-8651164D01*
X11109069Y-8070666D01*
X11093819Y-7636739D01*
X11016674Y-7334994D01*
X10872982Y-7151042D01*
X10658090Y-7070493D01*
X10553906Y-7064000D01*
X10362360Y-7145425D01*
X10144839Y-7383022D01*
X9907843Y-7766770D01*
X9657872Y-8286651D01*
X9482955Y-8715000D01*
X9315192Y-9144035D01*
X9102578Y-9677342D01*
X8865987Y-10263135D01*
X8626293Y-10849630D01*
X8476233Y-11212667D01*
X8139020Y-12043522D01*
X7871775Y-12744382D01*
X7676230Y-13310198D01*
X7554117Y-13735923D01*
X7507169Y-14016506D01*
X7506667Y-14039079D01*
X3118519Y-14039079D01*
X3184643Y-13928795D01*
X3259199Y-13824208D01*
X3467013Y-13549854D01*
X3648044Y-13309925D01*
X3766502Y-13151867D01*
X3774519Y-13141051D01*
X3841677Y-12970264D01*
X3897094Y-12679974D01*
X3930732Y-12328437D01*
X3943217Y-11976476D01*
X3925321Y-11726328D01*
X3864686Y-11511435D01*
X3748951Y-11265237D01*
X3724690Y-11218864D01*
X3417939Y-10800679D01*
X3022214Y-10517220D01*
X2561308Y-10376890D01*
X2059015Y-10388096D01*
X1680138Y-10496688D01*
X1353516Y-10627377D01*
X1472769Y-11237522D01*
X1566242Y-12043226D01*
X1519289Y-12769520D01*
X1335204Y-13409445D01*
X1017282Y-13956040D01*
X568816Y-14402347D01*
X-6899Y-14741406D01*
X-227425Y-14829718D01*
X-619346Y-15058270D01*
X-933635Y-15425256D01*
X-1162034Y-15914638D01*
X-1296284Y-16510377D01*
X-1329617Y-16970000D01*
X-1341000Y-17605000D01*
X-1788008Y-17605000D01*
X-1789811Y-17042647D01*
X-1714904Y-16422383D01*
X-1552458Y-15826289D01*
X-1435015Y-15516391D01*
X-1238505Y-15036449D01*
X-1736423Y-14978659D01*
X-2035358Y-14953606D01*
X-2242126Y-14979080D01*
X-2395338Y-15081415D01*
X-2533606Y-15286947D01*
X-2695541Y-15622011D01*
X-2702714Y-15637729D01*
X-2815138Y-15906164D01*
X-2889677Y-16155721D01*
X-2936047Y-16438354D01*
X-2963963Y-16806015D01*
X-2976308Y-17100677D01*
X-2986437Y-17543178D01*
X-6585401Y-17543178D01*
X-7266949Y-17343779D01*
X-8067256Y-17109668D01*
X-8241333Y-17058750D01*
X-9121463Y-16799705D01*
X-10015621Y-16533559D01*
X-10897957Y-16268204D01*
X-11742622Y-16011530D01*
X-12523764Y-15771429D01*
X-13215533Y-15555792D01*
X-13792080Y-15372512D01*
X-14167441Y-15249662D01*
X-15987215Y-14641667D01*
X-16268633Y-14135680D01*
X-16436067Y-13857014D01*
X-16671428Y-13494425D01*
X-16940717Y-13099212D01*
X-17158192Y-12793391D01*
X-17659656Y-12100365D01*
X-18071838Y-11522166D01*
X-18408020Y-11038883D01*
X-18681481Y-10630603D01*
X-18905504Y-10277416D01*
X-19093368Y-9959408D01*
X-19258354Y-9656667D01*
X-19286903Y-9601763D01*
X-19800330Y-8438403D01*
X-20202612Y-7151275D01*
X-20493892Y-5739473D01*
X-20674311Y-4202090D01*
X-20744010Y-2538220D01*
X-20703131Y-746956D01*
X-20694859Y-594058D01*
X-20684655Y-420337D01*
X-15921342Y-420337D01*
X-15920965Y-1460249D01*
X-15919195Y-1518333D01*
X-15881677Y-2282794D01*
X-15815584Y-3022434D01*
X-15715691Y-3762481D01*
X-15576775Y-4528160D01*
X-15393611Y-5344698D01*
X-15160975Y-6237322D01*
X-14873643Y-7231257D01*
X-14526392Y-8351731D01*
X-14462806Y-8551045D01*
X-14293055Y-9087861D01*
X-14135949Y-9596936D01*
X-14001006Y-10046468D01*
X-13897743Y-10404655D01*
X-13835678Y-10639694D01*
X-13829338Y-10667764D01*
X-13739691Y-11085771D01*
X-13370065Y-11100076D01*
X-13086602Y-11135517D01*
X-12662425Y-11222166D01*
X-12116378Y-11354527D01*
X-11467305Y-11527103D01*
X-10734049Y-11734398D01*
X-9935452Y-11970914D01*
X-9090359Y-12231156D01*
X-8217613Y-12509627D01*
X-7336057Y-12800829D01*
X-6464535Y-13099267D01*
X-6209333Y-13188864D01*
X-5698294Y-13369178D01*
X-5325257Y-13499298D01*
X-5068510Y-13585278D01*
X-4906336Y-13633175D01*
X-4817022Y-13649043D01*
X-4778854Y-13638940D01*
X-4770116Y-13608920D01*
X-4770000Y-13590258D01*
X-4742072Y-13446975D01*
X-4721833Y-13386996D01*
X-4784614Y-13324046D01*
X-4992023Y-13220342D01*
X-5325895Y-13081737D01*
X-5768066Y-12914085D01*
X-6300370Y-12723239D01*
X-6904643Y-12515054D01*
X-7562720Y-12295383D01*
X-8256437Y-12070080D01*
X-8967628Y-11844998D01*
X-9678129Y-11625993D01*
X-10369776Y-11418917D01*
X-11024403Y-11229624D01*
X-11371459Y-11133715D01*
X-4809798Y-11133715D01*
X-4803166Y-11159868D01*
X-4740495Y-11329086D01*
X-4628367Y-11603174D01*
X-4482096Y-11947423D01*
X-4316995Y-12327123D01*
X-4148379Y-12707567D01*
X-3991559Y-13054045D01*
X-3861849Y-13331848D01*
X-3774563Y-13506267D01*
X-3751076Y-13544523D01*
X-3640069Y-13612399D01*
X-3409939Y-13713917D01*
X-3102831Y-13831089D01*
X-2973357Y-13876442D01*
X-2587831Y-14011329D01*
X-2343109Y-14109234D01*
X-2218589Y-14184372D01*
X-2193668Y-14250956D01*
X-2247742Y-14323201D01*
X-2282364Y-14353155D01*
X-2338445Y-14416328D01*
X-2308527Y-14463596D01*
X-2167299Y-14506325D01*
X-1889452Y-14555877D01*
X-1799119Y-14570127D01*
X-1361697Y-14626774D01*
X-1024596Y-14632132D01*
X-724173Y-14577223D01*
X-396788Y-14453072D01*
X-153662Y-14338029D01*
X157441Y-14165878D01*
X439098Y-13977737D01*
X610012Y-13833493D01*
X754437Y-13665948D01*
X788673Y-13552450D01*
X729237Y-13434710D01*
X724751Y-13428549D01*
X-28771Y-12319566D01*
X-634886Y-11243282D01*
X-1105048Y-10173777D01*
X-1450713Y-9085130D01*
X-1552524Y-8593666D01*
X-533362Y-8593666D01*
X-478376Y-9074564D01*
X-367368Y-9408257D01*
X-359041Y-9423139D01*
X-244472Y-9575414D01*
X-53945Y-9784837D01*
X177506Y-10017833D01*
X414847Y-10240823D01*
X623047Y-10420231D01*
X767073Y-10522481D01*
X800374Y-10534358D01*
X872992Y-10484468D01*
X989919Y-10381763D01*
X1200874Y-10248756D01*
X1517206Y-10119022D01*
X1875824Y-10012931D01*
X2213638Y-9950851D01*
X2350001Y-9942667D01*
X2647992Y-9968127D01*
X2925195Y-10024617D01*
X3210939Y-10106567D01*
X3179638Y-9878203D01*
X3616646Y-9878203D01*
X3629513Y-10194492D01*
X3693687Y-10420828D01*
X3788706Y-10560040D01*
X4051632Y-10892264D01*
X4219407Y-11251769D01*
X4307389Y-11684603D01*
X4331060Y-12186333D01*
X4318883Y-12637297D01*
X4277692Y-12961245D01*
X4201757Y-13198887D01*
X4183133Y-13237244D01*
X4087263Y-13465078D01*
X4089330Y-13565328D01*
X4178941Y-13528493D01*
X4327026Y-13368812D01*
X4464572Y-13211466D01*
X4558265Y-13173902D01*
X4663325Y-13238575D01*
X4683113Y-13255690D01*
X5083345Y-13514750D01*
X5525051Y-13647895D01*
X5965854Y-13649081D01*
X6363377Y-13512267D01*
X6386550Y-13498550D01*
X6670499Y-13248182D01*
X6957663Y-12853153D01*
X7237500Y-12337576D01*
X7499466Y-11725566D01*
X7733018Y-11041234D01*
X7927611Y-10308693D01*
X8049710Y-9694914D01*
X8135391Y-9117188D01*
X8174724Y-8643348D01*
X8168866Y-8214746D01*
X8118974Y-7772734D01*
X8090987Y-7602084D01*
X8044804Y-7299205D01*
X8042496Y-7093318D01*
X8092902Y-6915745D01*
X8204860Y-6697809D01*
X8208100Y-6692008D01*
X8418226Y-6316052D01*
X8141063Y-6047414D01*
X7932023Y-5844805D01*
X13179334Y-5844805D01*
X13196272Y-6023100D01*
X13265661Y-6157823D01*
X13415361Y-6269537D01*
X13673232Y-6378809D01*
X14067132Y-6506203D01*
X14081088Y-6510443D01*
X14578123Y-6643157D01*
X14946216Y-6695650D01*
X15206086Y-6666915D01*
X15378454Y-6555948D01*
X15451177Y-6443924D01*
X15518043Y-6139773D01*
X15453493Y-5845374D01*
X15277036Y-5613166D01*
X15107012Y-5518859D01*
X15085062Y-5461784D01*
X15094834Y-5307491D01*
X15096032Y-5300295D01*
X16403453Y-5300295D01*
X16417757Y-5937138D01*
X16552494Y-6506369D01*
X16794825Y-6994522D01*
X17131912Y-7388131D01*
X17550915Y-7673729D01*
X18038994Y-7837849D01*
X18583310Y-7867027D01*
X19171025Y-7747795D01*
X19423500Y-7652045D01*
X19686801Y-7488293D01*
X19786762Y-7288628D01*
X19725583Y-7043149D01*
X19600509Y-6854413D01*
X19464568Y-6707962D01*
X19325239Y-6657789D01*
X19107317Y-6680048D01*
X19071343Y-6686635D01*
X18755937Y-6729963D01*
X18407135Y-6756514D01*
X18329158Y-6759007D01*
X17940393Y-6696195D01*
X17638495Y-6505053D01*
X17430690Y-6206689D01*
X17324207Y-5822209D01*
X17326272Y-5372720D01*
X17444113Y-4879330D01*
X17577255Y-4563140D01*
X17770528Y-4235069D01*
X18012666Y-3916068D01*
X18272200Y-3638970D01*
X18517665Y-3436612D01*
X18717593Y-3341830D01*
X18750683Y-3338667D01*
X18951243Y-3416733D01*
X19144612Y-3627334D01*
X19301863Y-3935073D01*
X19344885Y-4065716D01*
X19456479Y-4339696D01*
X19603617Y-4549626D01*
X19755812Y-4660849D01*
X19862665Y-4654297D01*
X19914803Y-4539547D01*
X19943771Y-4307763D01*
X19949240Y-4009697D01*
X19930885Y-3696102D01*
X19888379Y-3417728D01*
X19871062Y-3349341D01*
X19760412Y-3132822D01*
X19547447Y-2853201D01*
X19278868Y-2566733D01*
X19007846Y-2313219D01*
X18809400Y-2161938D01*
X18643633Y-2088545D01*
X18470644Y-2068691D01*
X18462662Y-2068667D01*
X18183409Y-2145343D01*
X17873085Y-2358652D01*
X17550842Y-2683512D01*
X17235834Y-3094843D01*
X16947216Y-3567564D01*
X16704140Y-4076595D01*
X16525760Y-4596854D01*
X16522423Y-4609307D01*
X16403453Y-5300295D01*
X15096032Y-5300295D01*
X15138754Y-5043883D01*
X15219246Y-4658862D01*
X15338737Y-4140331D01*
X15499650Y-3476192D01*
X15587997Y-3119466D01*
X15793970Y-2290342D01*
X15961631Y-1609581D01*
X16094195Y-1061383D01*
X16194873Y-629951D01*
X16266880Y-299483D01*
X16313428Y-54181D01*
X16337732Y121754D01*
X16343005Y244123D01*
X16332460Y328724D01*
X16309310Y391357D01*
X16304098Y401432D01*
X16158056Y516797D01*
X15931062Y554404D01*
X15696517Y506134D01*
X15637928Y475140D01*
X15576852Y403735D01*
X15634436Y309177D01*
X15743761Y216292D01*
X15912828Y26923D01*
X15977536Y-167889D01*
X15928933Y-306845D01*
X15830248Y-311183D01*
X15614978Y-279483D01*
X15338978Y-220713D01*
X15042097Y-153880D01*
X14859592Y-131845D01*
X14742070Y-156340D01*
X14640142Y-229099D01*
X14621378Y-245879D01*
X14491453Y-463630D01*
X14449265Y-758631D01*
X14501068Y-1059695D01*
X14541807Y-1151921D01*
X14653108Y-1273221D01*
X14833554Y-1283848D01*
X14881613Y-1275244D01*
X15051809Y-1253256D01*
X15098441Y-1311564D01*
X15070483Y-1456722D01*
X15032787Y-1606555D01*
X14961102Y-1892307D01*
X14862531Y-2285626D01*
X14744181Y-2758159D01*
X14613156Y-3281554D01*
X14577673Y-3423333D01*
X14143325Y-5159000D01*
X13789770Y-5184964D01*
X13462541Y-5269783D01*
X13260364Y-5468606D01*
X13180836Y-5784026D01*
X13179334Y-5844805D01*
X7932023Y-5844805D01*
X7863899Y-5778777D01*
X7567423Y-6280671D01*
X7274529Y-6081908D01*
X6820675Y-5864307D01*
X6349532Y-5801786D01*
X5875357Y-5883054D01*
X5412403Y-6096820D01*
X4974924Y-6431796D01*
X4577176Y-6876690D01*
X4233412Y-7420213D01*
X3957887Y-8051073D01*
X3764856Y-8757981D01*
X3742173Y-8879713D01*
X3654421Y-9447948D01*
X3616646Y-9878203D01*
X3179638Y-9878203D01*
X3159052Y-9728013D01*
X3068749Y-9358879D01*
X2910805Y-8962585D01*
X2719219Y-8617591D01*
X2622741Y-8490337D01*
X2557376Y-8386860D01*
X2601669Y-8301473D01*
X2758237Y-8197724D01*
X3020038Y-7953137D01*
X3213622Y-7594728D01*
X3326219Y-7168672D01*
X3345060Y-6721145D01*
X3271956Y-6340161D01*
X3111226Y-6024858D01*
X2848994Y-5683804D01*
X2533418Y-5370470D01*
X2212656Y-5138326D01*
X2167802Y-5114185D01*
X1825648Y-4984438D01*
X1384834Y-4878533D01*
X915666Y-4809178D01*
X488453Y-4789080D01*
X393341Y-4793461D01*
X211821Y-4815686D01*
X72982Y-4868002D01*
X-34050Y-4973345D01*
X-120150Y-5154652D01*
X-196193Y-5434857D01*
X-273055Y-5836898D01*
X-361610Y-6383710D01*
X-362073Y-6386667D01*
X-475222Y-7237825D01*
X-532315Y-7977455D01*
X-533362Y-8593666D01*
X-1552524Y-8593666D01*
X-1676475Y-7995333D01*
X-1790266Y-7275667D01*
X-1798466Y-8127318D01*
X-1814367Y-8590946D01*
X-1850692Y-8920363D01*
X-1905550Y-9099286D01*
X-1912500Y-9108916D01*
X-2038665Y-9214793D01*
X-2265080Y-9364610D01*
X-2526333Y-9516710D01*
X-2802817Y-9675646D01*
X-3170539Y-9897727D01*
X-3579679Y-10152416D01*
X-3946809Y-10387312D01*
X-4325802Y-10637447D01*
X-4580829Y-10818419D01*
X-4732659Y-10948963D01*
X-4802059Y-11047817D01*
X-4809798Y-11133715D01*
X-11371459Y-11133715D01*
X-11623846Y-11063968D01*
X-12149939Y-10927803D01*
X-12584519Y-10826982D01*
X-12792574Y-10786104D01*
X-13406815Y-10677402D01*
X-13497750Y-10331201D01*
X-13549186Y-10150626D01*
X-13642787Y-9836971D01*
X-13769887Y-9418678D01*
X-13921818Y-8924190D01*
X-14089911Y-8381950D01*
X-14170895Y-8122333D01*
X-14199201Y-8030103D01*
X-2907747Y-8030103D01*
X-2594024Y-8351385D01*
X-2414477Y-8530835D01*
X-2289514Y-8647450D01*
X-2255150Y-8672667D01*
X-2243270Y-8594809D01*
X-2234415Y-8388465D01*
X-2230162Y-8094472D01*
X-2230000Y-8020484D01*
X-2230000Y-7368301D01*
X-2568873Y-7699202D01*
X-2907747Y-8030103D01*
X-14199201Y-8030103D01*
X-14487964Y-7089244D01*
X-14750783Y-6187106D01*
X-14965415Y-5388648D01*
X-15137929Y-4666594D01*
X-15274391Y-3993671D01*
X-15380866Y-3342606D01*
X-15463421Y-2686124D01*
X-15525118Y-2033812D01*
X-15559510Y-842376D01*
X-15471877Y337028D01*
X-15266632Y1452136D01*
X-15213546Y1656667D01*
X-15092704Y2110709D01*
X-15019083Y2426905D01*
X-14991078Y2629549D01*
X-15007085Y2742936D01*
X-15065497Y2791361D01*
X-15138015Y2799667D01*
X-15235182Y2766511D01*
X-15323854Y2647457D01*
X-15420912Y2413131D01*
X-15502918Y2164667D01*
X-15716815Y1352340D01*
X-15854791Y503932D01*
X-15921342Y-420337D01*
X-20684655Y-420337D01*
X-20658063Y32365D01*
X-20624031Y523369D01*
X-20587990Y912704D01*
X-20545165Y1234115D01*
X-20490784Y1521350D01*
X-20420072Y1808157D01*
X-20328256Y2128284D01*
X-20293392Y2244085D01*
X-19908330Y3433585D01*
X-19502353Y4518682D01*
X-19050781Y5564263D01*
X-19043199Y5580504D01*
X-9243842Y5580504D01*
X-9220365Y5327360D01*
X-9167527Y4946681D01*
X-9088941Y4457364D01*
X-8988223Y3878310D01*
X-8868986Y3228415D01*
X-8734847Y2526579D01*
X-8589419Y1791701D01*
X-8436317Y1042678D01*
X-8279155Y298410D01*
X-8121550Y-422206D01*
X-7967114Y-1100270D01*
X-7819463Y-1716884D01*
X-7813768Y-1739929D01*
X-7632359Y-2460171D01*
X-7445493Y-3178873D01*
X-7258535Y-3877377D01*
X-7076850Y-4537025D01*
X-6905805Y-5139159D01*
X-6750766Y-5665122D01*
X-6617097Y-6096256D01*
X-6510166Y-6413903D01*
X-6435336Y-6599404D01*
X-6404385Y-6640667D01*
X-6323255Y-6590845D01*
X-6137542Y-6454981D01*
X-5874359Y-6253476D01*
X-5560819Y-6006733D01*
X-5541676Y-5991477D01*
X-5337601Y-5826972D01*
X-3410611Y-5826972D01*
X-3405258Y-6131566D01*
X-3396766Y-6279480D01*
X-3357702Y-6650428D01*
X-3293366Y-7002696D01*
X-3217330Y-7262779D01*
X-3213517Y-7271923D01*
X-3070747Y-7606846D01*
X-2509174Y-7045273D01*
X-1947601Y-6483699D01*
X-2226392Y-6166174D01*
X-2564625Y-5674588D01*
X-2767901Y-5110673D01*
X-2814544Y-4862667D01*
X-2855584Y-4585977D01*
X-2399333Y-4585977D01*
X-2371009Y-4897846D01*
X-2296691Y-5208901D01*
X-2192361Y-5479807D01*
X-2074004Y-5671228D01*
X-1957601Y-5743829D01*
X-1930889Y-5738885D01*
X-1851698Y-5634856D01*
X-1784076Y-5422375D01*
X-1762538Y-5299667D01*
X-1700326Y-4873968D01*
X-1684469Y-4779341D01*
X4839667Y-4779341D01*
X5093667Y-4987292D01*
X5260128Y-5120598D01*
X5358492Y-5193731D01*
X5367113Y-5198288D01*
X5413210Y-5132298D01*
X5507848Y-4961557D01*
X5563576Y-4854351D01*
X5687529Y-4641089D01*
X5792801Y-4554752D01*
X5919325Y-4563401D01*
X5925130Y-4565189D01*
X6466217Y-4704147D01*
X6901949Y-4739725D01*
X7263998Y-4668027D01*
X7584038Y-4485153D01*
X7748520Y-4340781D01*
X8108573Y-3894233D01*
X8259633Y-3619567D01*
X9041782Y-3619567D01*
X9052265Y-4135928D01*
X9104073Y-4601309D01*
X9195562Y-4966336D01*
X9231937Y-5051832D01*
X9498743Y-5415629D01*
X9868532Y-5668641D01*
X10309499Y-5802578D01*
X10789837Y-5809148D01*
X11277739Y-5680063D01*
X11409529Y-5619417D01*
X11730644Y-5397439D01*
X12079120Y-5058067D01*
X12420229Y-4641445D01*
X12719247Y-4187720D01*
X12837734Y-3968326D01*
X13000577Y-3654534D01*
X13156379Y-3376493D01*
X13273709Y-3190071D01*
X13281768Y-3179082D01*
X13378655Y-2966373D01*
X13426894Y-2691945D01*
X13423535Y-2420841D01*
X13365623Y-2218106D01*
X13327500Y-2171523D01*
X13108861Y-2066278D01*
X12768113Y-1986881D01*
X12350865Y-1935855D01*
X11902727Y-1915721D01*
X11469309Y-1929001D01*
X11096221Y-1978219D01*
X10891794Y-2036828D01*
X10588133Y-2227789D01*
X10385780Y-2494578D01*
X10301008Y-2796844D01*
X10350090Y-3094238D01*
X10417702Y-3212357D01*
X10486232Y-3289236D01*
X10576498Y-3327769D01*
X10727908Y-3330264D01*
X10979870Y-3299032D01*
X11227936Y-3259840D01*
X11638320Y-3204103D01*
X11900106Y-3201006D01*
X12027944Y-3258206D01*
X12036483Y-3383361D01*
X11940376Y-3584126D01*
X11918220Y-3620620D01*
X11742651Y-3856804D01*
X11508029Y-4115266D01*
X11399241Y-4219485D01*
X11162671Y-4409081D01*
X10954708Y-4499638D01*
X10697670Y-4523933D01*
X10677574Y-4524000D01*
X10303129Y-4460332D01*
X10037981Y-4278156D01*
X9896838Y-3990711D01*
X9877334Y-3803729D01*
X9939258Y-3189558D01*
X10112380Y-2511698D01*
X10377727Y-1814756D01*
X10716322Y-1143342D01*
X11109191Y-542065D01*
X11423530Y-168681D01*
X11744016Y142064D01*
X11991356Y329975D01*
X12142944Y386667D01*
X12317905Y321240D01*
X12550689Y142581D01*
X12689594Y5667D01*
X12895963Y-195587D01*
X13070030Y-333669D01*
X13159913Y-375333D01*
X13290173Y-318209D01*
X13460351Y-183068D01*
X13611922Y-24253D01*
X13686363Y103890D01*
X13687334Y114429D01*
X13609156Y157048D01*
X13392538Y228648D01*
X13064354Y321528D01*
X12651476Y427989D01*
X12285700Y516023D01*
X10884066Y843492D01*
X10682613Y593913D01*
X10283465Y25114D01*
X9900229Y-657372D01*
X9559175Y-1398214D01*
X9286570Y-2142083D01*
X9151366Y-2631409D01*
X9074268Y-3101602D01*
X9041782Y-3619567D01*
X8259633Y-3619567D01*
X8428079Y-3313292D01*
X8697233Y-2630084D01*
X8906227Y-1876738D01*
X9045257Y-1085379D01*
X9104515Y-288135D01*
X9101568Y92020D01*
X9076926Y570057D01*
X9028467Y910340D01*
X8932488Y1144449D01*
X8765287Y1303964D01*
X8503161Y1420464D01*
X8122406Y1525531D01*
X8004150Y1554131D01*
X7645372Y1636476D01*
X7338531Y1700507D01*
X7127865Y1737298D01*
X7069668Y1742697D01*
X6952239Y1682745D01*
X6758528Y1523733D01*
X6522703Y1294951D01*
X6419713Y1185535D01*
X5948426Y577362D01*
X5538430Y-133197D01*
X5223729Y-881411D01*
X5088300Y-1349000D01*
X5012324Y-1811649D01*
X4980504Y-2318675D01*
X4991302Y-2820467D01*
X5043180Y-3267418D01*
X5134601Y-3609917D01*
X5160149Y-3666886D01*
X5237246Y-3837600D01*
X5253107Y-3970357D01*
X5199893Y-4126881D01*
X5071359Y-4366057D01*
X4839667Y-4779341D01*
X-1684469Y-4779341D01*
X-1624751Y-4422985D01*
X-1544055Y-3989869D01*
X-1466478Y-3617770D01*
X-1400259Y-3349838D01*
X-1375296Y-3271877D01*
X-1358722Y-3187386D01*
X-1414891Y-3198786D01*
X-1557168Y-3315146D01*
X-1798915Y-3545536D01*
X-1844309Y-3590221D01*
X-2105497Y-3852125D01*
X-2268406Y-4037638D01*
X-2356221Y-4188352D01*
X-2392124Y-4345861D01*
X-2399301Y-4551758D01*
X-2399333Y-4585977D01*
X-2855584Y-4585977D01*
X-2871056Y-4481667D01*
X-3154151Y-5051814D01*
X-3299116Y-5358233D01*
X-3379916Y-5592906D01*
X-3410611Y-5826972D01*
X-5337601Y-5826972D01*
X-5159472Y-5683383D01*
X-4763479Y-5358708D01*
X-4407003Y-5061422D01*
X-4196117Y-4881558D01*
X-3876495Y-4623815D01*
X-3649467Y-4487621D01*
X-3499875Y-4463901D01*
X-3499077Y-4464107D01*
X-3385097Y-4456338D01*
X-3266373Y-4352165D01*
X-3115503Y-4125013D01*
X-3071691Y-4049637D01*
X-2855138Y-3694813D01*
X-2684807Y-3477333D01*
X-2541906Y-3378187D01*
X-2408123Y-3378210D01*
X-2249612Y-3342085D01*
X-2018018Y-3160186D01*
X-1921558Y-3063584D01*
X-1767076Y-2892829D01*
X733334Y-2892829D01*
X779331Y-3184314D01*
X896329Y-3463179D01*
X1052840Y-3660673D01*
X1099360Y-3691976D01*
X1350738Y-3776007D01*
X1719614Y-3836153D01*
X2166282Y-3872517D01*
X2651037Y-3885203D01*
X3134172Y-3874316D01*
X3575982Y-3839959D01*
X3936763Y-3782238D01*
X4176807Y-3701255D01*
X4204667Y-3683834D01*
X4366316Y-3506297D01*
X4437302Y-3240642D01*
X4442102Y-3187478D01*
X4441950Y-2969587D01*
X4387759Y-2822016D01*
X4256127Y-2736098D01*
X4023648Y-2703167D01*
X3666921Y-2714555D01*
X3263600Y-2751058D01*
X2858984Y-2784091D01*
X2482023Y-2799961D01*
X2187104Y-2797063D01*
X2075032Y-2786142D01*
X1755093Y-2732089D01*
X2313691Y-1617211D01*
X2565656Y-1127277D01*
X2845549Y-603974D01*
X3120271Y-108060D01*
X3356724Y299704D01*
X3369144Y320326D01*
X3567527Y656115D01*
X3728261Y942111D01*
X3833490Y1145608D01*
X3866000Y1230493D01*
X3800997Y1308361D01*
X3624501Y1294566D01*
X3364281Y1193780D01*
X3231724Y1123820D01*
X3012780Y959573D01*
X2764286Y691325D01*
X2468536Y298889D01*
X2323177Y88046D01*
X2069809Y-303582D01*
X1802373Y-745509D01*
X1535707Y-1209910D01*
X1284653Y-1668960D01*
X1064052Y-2094835D01*
X888742Y-2459709D01*
X773565Y-2735758D01*
X733334Y-2892829D01*
X-1767076Y-2892829D01*
X-1624991Y-2735779D01*
X-1437172Y-2475548D01*
X-1336186Y-2242756D01*
X-1300118Y-1997269D01*
X-1298666Y-1922828D01*
X-1319707Y-1665644D01*
X-1385479Y-1569135D01*
X-1499961Y-1629616D01*
X-1552666Y-1687667D01*
X-1747986Y-1802443D01*
X-2018802Y-1815066D01*
X-2310738Y-1732042D01*
X-2562004Y-1566890D01*
X-2799552Y-1392155D01*
X-3051295Y-1273654D01*
X-3100124Y-1260540D01*
X-3430457Y-1162436D01*
X-3642495Y-1017909D01*
X-3787015Y-789922D01*
X-3806349Y-745421D01*
X-3875166Y-491910D01*
X-3860030Y-218577D01*
X-3755770Y126898D01*
X-3708138Y248019D01*
X-3684027Y353990D01*
X-3761906Y375554D01*
X-3889455Y353000D01*
X-4187393Y365817D01*
X-4462771Y504769D01*
X-4659113Y733613D01*
X-4712233Y880999D01*
X-4713578Y1282073D01*
X-4581162Y1717052D01*
X-4332243Y2143248D01*
X-4089208Y2422036D01*
X-3676239Y2824280D01*
X-3965732Y2858077D01*
X-4146083Y2862080D01*
X-4290196Y2803923D01*
X-4450540Y2653997D01*
X-4567231Y2518614D01*
X-4827042Y2250254D01*
X-5130594Y1994783D01*
X-5267817Y1898925D01*
X-5779622Y1634134D01*
X-6242436Y1527276D01*
X-6671516Y1579609D01*
X-7082117Y1792396D01*
X-7404058Y2075392D01*
X-7645153Y2366305D01*
X-7848462Y2688450D01*
X-7993089Y2999425D01*
X-8002636Y3037204D01*
X-7550064Y3037204D01*
X-7499225Y2913301D01*
X-7357963Y2681585D01*
X-7357929Y2681531D01*
X-7032113Y2276921D01*
X-6664934Y2022149D01*
X-6454831Y1951133D01*
X-6138708Y1959752D01*
X-5778479Y2092091D01*
X-5407967Y2321531D01*
X-5060994Y2621458D01*
X-4771385Y2965253D01*
X-4572961Y3326299D01*
X-4527050Y3468193D01*
X-4421555Y3740453D01*
X-4294260Y3883381D01*
X-4174931Y3894972D01*
X-4093337Y3773223D01*
X-4079246Y3516129D01*
X-4081000Y3498218D01*
X-4074657Y3327985D01*
X-3979828Y3268484D01*
X-3908548Y3264329D01*
X-3688218Y3239633D01*
X-3400216Y3178016D01*
X-3102591Y3095621D01*
X-2853390Y3008592D01*
X-2710660Y2933073D01*
X-2707870Y2930404D01*
X-2679862Y2810069D01*
X-2818791Y2673886D01*
X-3123129Y2523123D01*
X-3263221Y2469058D01*
X-3685381Y2234525D01*
X-4024355Y1889401D01*
X-4240551Y1475673D01*
X-4259259Y1412845D01*
X-4317137Y1076400D01*
X-4273883Y866073D01*
X-4126942Y781663D01*
X-3873759Y822969D01*
X-3511781Y989791D01*
X-3038454Y1281928D01*
X-2992000Y1313212D01*
X-2740364Y1460264D01*
X-2513814Y1553890D01*
X-2417843Y1571638D01*
X-2261321Y1523840D01*
X-2165280Y1415928D01*
X-2160709Y1302118D01*
X-2232122Y1246737D01*
X-2428522Y1128511D01*
X-2673852Y908416D01*
X-2929212Y629355D01*
X-3155700Y334233D01*
X-3314417Y65954D01*
X-3325843Y40448D01*
X-3443776Y-318149D01*
X-3438506Y-574297D01*
X-3307404Y-744438D01*
X-3190910Y-803517D01*
X-2987108Y-868366D01*
X-2872382Y-841882D01*
X-2795386Y-695294D01*
X-2751853Y-557517D01*
X-2629982Y-272102D01*
X-2463192Y-31220D01*
X-2284144Y128480D01*
X-2125498Y170354D01*
X-2107799Y165126D01*
X-1995994Y85583D01*
X-2002880Y-43449D01*
X-2131165Y-253568D01*
X-2145351Y-272928D01*
X-2293644Y-527753D01*
X-2394758Y-782093D01*
X-2432937Y-999073D01*
X-2376928Y-1150558D01*
X-2304867Y-1231799D01*
X-2116047Y-1349700D01*
X-1949627Y-1375373D01*
X-1819902Y-1319186D01*
X-1748760Y-1167976D01*
X-1722000Y-1010333D01*
X-1672573Y-779216D01*
X-1582017Y-670838D01*
X-1493595Y-645192D01*
X-1347795Y-667780D01*
X-1220501Y-804745D01*
X-1144094Y-941525D01*
X-1022654Y-1219433D01*
X-932860Y-1490562D01*
X-922628Y-1533324D01*
X-891820Y-1657858D01*
X-855940Y-1701706D01*
X-796775Y-1647747D01*
X-696115Y-1478860D01*
X-535748Y-1177922D01*
X-527053Y-1161412D01*
X-332385Y-806065D01*
X-127993Y-455700D01*
X46319Y-178219D01*
X68056Y-146144D01*
X222271Y114090D01*
X276310Y336902D01*
X226631Y571137D01*
X69692Y865642D01*
X-14878Y997548D01*
X-136678Y1197128D01*
X-317475Y1511608D01*
X-537601Y1905936D01*
X-777391Y2345060D01*
X-919847Y2610438D01*
X-1168354Y3072863D01*
X-1355577Y3407480D01*
X-1497975Y3636916D01*
X-1569396Y3728908D01*
X-1024391Y3728908D01*
X-994543Y3651370D01*
X-889682Y3442621D01*
X-718427Y3118687D01*
X-489396Y2695598D01*
X-211207Y2189381D01*
X107520Y1616064D01*
X214951Y1424110D01*
X389058Y1122426D01*
X534882Y886243D01*
X631845Y748064D01*
X657136Y725610D01*
X732683Y784912D01*
X887658Y942476D01*
X1092023Y1167372D01*
X1146513Y1229573D01*
X1421890Y1522659D01*
X1768847Y1859000D01*
X2124761Y2178593D01*
X2226705Y2264541D01*
X2868324Y2795269D01*
X932995Y3268989D01*
X387089Y3401833D01*
X-101046Y3519127D01*
X-508384Y3615461D01*
X-811903Y3685424D01*
X-988575Y3723608D01*
X-1024391Y3728908D01*
X-1569396Y3728908D01*
X-1612008Y3783793D01*
X-1714134Y3870737D01*
X-1820814Y3920372D01*
X-1887007Y3939864D01*
X-2596025Y4120098D01*
X-3244087Y4271537D01*
X-3810110Y4390017D01*
X-4273014Y4471376D01*
X-4611714Y4511450D01*
X-4779116Y4510982D01*
X-5123531Y4393697D01*
X-5458057Y4164796D01*
X-5740993Y3957083D01*
X-6051644Y3778446D01*
X-6179745Y3721633D01*
X-6397610Y3624492D01*
X-6529736Y3538700D01*
X-6548000Y3509552D01*
X-6619166Y3425067D01*
X-6795833Y3314440D01*
X-7022754Y3204763D01*
X-7244684Y3123128D01*
X-7391294Y3096000D01*
X-7513185Y3086902D01*
X-7550064Y3037204D01*
X-8002636Y3037204D01*
X-8058141Y3256825D01*
X-8046458Y3379106D01*
X-7979864Y3449817D01*
X-7817480Y3541940D01*
X-7543759Y3662162D01*
X-7143154Y3817174D01*
X-6600119Y4013664D01*
X-6441483Y4069630D01*
X-6258352Y4152746D01*
X-6031235Y4281210D01*
X-5794532Y4431481D01*
X-5582645Y4580017D01*
X-5429972Y4703277D01*
X-5370916Y4777720D01*
X-5389788Y4789333D01*
X-5480807Y4808935D01*
X-5712405Y4863895D01*
X-6060899Y4948447D01*
X-6502603Y5056822D01*
X-7013835Y5183255D01*
X-7314020Y5257890D01*
X-7852672Y5390015D01*
X-8334548Y5504304D01*
X-8736066Y5595487D01*
X-9033644Y5658290D01*
X-9203702Y5687442D01*
X-9234342Y5687214D01*
X-9243842Y5580504D01*
X-19043199Y5580504D01*
X-18941783Y5797721D01*
X-18771782Y6165214D01*
X-18636110Y6474058D01*
X-18547435Y6694223D01*
X-18518429Y6795677D01*
X-18519571Y6798461D01*
X-18608199Y6784188D01*
X-18793455Y6708481D01*
X-18904749Y6654339D01*
X-19084708Y6582210D01*
X-19400967Y6476110D01*
X-19825883Y6344448D01*
X-20331811Y6195635D01*
X-20891108Y6038082D01*
X-21262453Y5937040D01*
X-21863856Y5775084D01*
X-22450932Y5615864D01*
X-22990812Y5468380D01*
X-23450624Y5341632D01*
X-23797499Y5244617D01*
X-23926655Y5207652D01*
X-24234526Y5123111D01*
X-24472920Y5066906D01*
X-24601510Y5048235D01*
X-24612552Y5051211D01*
X-24665989Y5135330D01*
X-24782807Y5328915D01*
X-24940923Y5595250D01*
X-24995875Y5688552D01*
X-25350289Y6291436D01*
X-25282839Y6463508D01*
X-23439000Y6463508D01*
X-23142666Y6525944D01*
X-22976375Y6566908D01*
X-22675188Y6646967D01*
X-22266964Y6758477D01*
X-21779564Y6893797D01*
X-21240846Y7045282D01*
X-20983666Y7118235D01*
X-20396369Y7286313D01*
X-19816006Y7454239D01*
X-19278780Y7611402D01*
X-18820891Y7747192D01*
X-18478541Y7851000D01*
X-18401333Y7875090D01*
X-17681666Y8102089D01*
X-17300666Y8667767D01*
X-16930492Y9188113D01*
X-16475848Y9781468D01*
X-15973420Y10402538D01*
X-15459893Y11006029D01*
X-14971952Y11546649D01*
X-14950045Y11569984D01*
X-14297284Y12263873D01*
X-14667191Y12075161D01*
X-15385516Y11692590D01*
X-16210275Y11225860D01*
X-17112925Y10693068D01*
X-18064925Y10112308D01*
X-19037735Y9501677D01*
X-20002814Y8879269D01*
X-20931620Y8263180D01*
X-21795613Y7671507D01*
X-22566251Y7122344D01*
X-23058000Y6755227D01*
X-23439000Y6463508D01*
X-25282839Y6463508D01*
X-24579482Y8257839D01*
X-23808675Y10224241D01*
X-22431150Y12311621D01*
X-21679212Y13451043D01*
X-9971041Y13451043D01*
X-9959510Y13063658D01*
X-9936020Y12562837D01*
X-9900232Y11931039D01*
X-9851814Y11150727D01*
X-9842962Y11012333D01*
X-9807899Y10525831D01*
X-9760637Y9956430D01*
X-9704496Y9336718D01*
X-9642795Y8699283D01*
X-9578854Y8076714D01*
X-9515994Y7501599D01*
X-9457533Y7006524D01*
X-9406792Y6624080D01*
X-9376769Y6436024D01*
X-9354951Y6338836D01*
X-9313950Y6263230D01*
X-9229252Y6198876D01*
X-9076343Y6135445D01*
X-8830708Y6062605D01*
X-8467832Y5970028D01*
X-8002240Y5856822D01*
X-7542215Y5745360D01*
X-7133174Y5645802D01*
X-6806592Y5565844D01*
X-6593946Y5513181D01*
X-6533618Y5497746D01*
X-6458819Y5491450D01*
X-6443386Y5551068D01*
X-6489369Y5710259D01*
X-6493152Y5720489D01*
X-6031579Y5720489D01*
X-6008632Y5647558D01*
X-5946743Y5549742D01*
X-5865763Y5460764D01*
X-5732323Y5379149D01*
X-5520085Y5294946D01*
X-5202714Y5198205D01*
X-4753872Y5078978D01*
X-4592077Y5037949D01*
X-4163245Y4931819D01*
X-3796607Y4844584D01*
X-3521515Y4782954D01*
X-3367319Y4753636D01*
X-3344973Y4752915D01*
X-3357125Y4834004D01*
X-3406070Y4941359D01*
X-3484260Y5021301D01*
X-3645951Y5102071D01*
X-3913771Y5191627D01*
X-4310349Y5297929D01*
X-4661763Y5383051D01*
X-5092457Y5485882D01*
X-5470218Y5578393D01*
X-5761278Y5652142D01*
X-5931863Y5698689D01*
X-5955333Y5706399D01*
X-6031579Y5720489D01*
X-6493152Y5720489D01*
X-6557821Y5895347D01*
X-6772637Y6605199D01*
X-6358158Y6605199D01*
X-6317002Y6424458D01*
X-6274462Y6325203D01*
X-6203947Y6247031D01*
X-6077381Y6177832D01*
X-5866691Y6105495D01*
X-5543802Y6017911D01*
X-5144016Y5918476D01*
X-4631072Y5794015D01*
X-4260917Y5709377D01*
X-4012121Y5663096D01*
X-3863251Y5653705D01*
X-3792874Y5679737D01*
X-3779559Y5739725D01*
X-3800144Y5826500D01*
X-3866946Y6000749D01*
X-3911683Y6076221D01*
X-4013823Y6123616D01*
X-4240885Y6198533D01*
X-4557345Y6291690D01*
X-4927678Y6393806D01*
X-5316361Y6495599D01*
X-5687871Y6587786D01*
X-6006684Y6661085D01*
X-6237277Y6706215D01*
X-6344125Y6713894D01*
X-6346482Y6712407D01*
X-6358158Y6605199D01*
X-6772637Y6605199D01*
X-6796779Y6684973D01*
X-6947868Y7574064D01*
X-6961631Y7780322D01*
X-6550245Y7780322D01*
X-6548000Y7678702D01*
X-6523569Y7446622D01*
X-6462838Y7290752D01*
X-6442166Y7270830D01*
X-6292918Y7204123D01*
X-6034899Y7117631D01*
X-5702777Y7020048D01*
X-5331221Y6920067D01*
X-4954900Y6826380D01*
X-4608483Y6747681D01*
X-4326637Y6692663D01*
X-4144032Y6670019D01*
X-4092666Y6681699D01*
X-4117612Y6773670D01*
X-4178172Y6956631D01*
X-4183280Y6971333D01*
X-4236069Y7087862D01*
X-4321651Y7183286D01*
X-4469674Y7274595D01*
X-4709790Y7378781D01*
X-5071646Y7512832D01*
X-5220447Y7565678D01*
X-5712194Y7740254D01*
X-6065723Y7863656D01*
X-6303610Y7937806D01*
X-6448430Y7964625D01*
X-6522759Y7946037D01*
X-6549172Y7883962D01*
X-6550245Y7780322D01*
X-6961631Y7780322D01*
X-7015267Y8584119D01*
X-7028970Y9126594D01*
X-6621697Y9126594D01*
X-6615924Y8918746D01*
X-6590333Y8476159D01*
X-5574333Y8119234D01*
X-5185516Y7983946D01*
X-4855021Y7871405D01*
X-4615327Y7792497D01*
X-4498910Y7758102D01*
X-4494833Y7757488D01*
X-4452013Y7828024D01*
X-4432722Y8006357D01*
X-4432630Y8027833D01*
X-4452498Y8251424D01*
X-4498503Y8404602D01*
X-4498912Y8405250D01*
X-4597357Y8477324D01*
X-4814475Y8597897D01*
X-5113001Y8749462D01*
X-5455670Y8914511D01*
X-5805215Y9075536D01*
X-6124372Y9215032D01*
X-6375874Y9315489D01*
X-6522456Y9359402D01*
X-6531258Y9360041D01*
X-6597736Y9306161D01*
X-6621697Y9126594D01*
X-7028970Y9126594D01*
X-7041618Y9627238D01*
X-7408642Y9864759D01*
X-7708774Y10083696D01*
X-7993014Y10333738D01*
X-8233451Y10584792D01*
X-8402175Y10806763D01*
X-8471276Y10969555D01*
X-8467124Y11006056D01*
X-8358150Y11126122D01*
X-8194496Y11098560D01*
X-7996207Y10927692D01*
X-7972303Y10899311D01*
X-7758465Y10668640D01*
X-7496427Y10449178D01*
X-7162741Y10226324D01*
X-6733956Y9985475D01*
X-6186623Y9712028D01*
X-5698079Y9483135D01*
X-5244675Y9271859D01*
X-4841446Y9078554D01*
X-4515124Y8916473D01*
X-4292445Y8798862D01*
X-4202834Y8742077D01*
X-4139457Y8612084D01*
X-4069829Y8366525D01*
X-4008745Y8057855D01*
X-4007331Y8049000D01*
X-3883571Y7467245D01*
X-3689173Y6797236D01*
X-3442488Y6094782D01*
X-3161869Y5415693D01*
X-3089745Y5258627D01*
X-2773365Y4584921D01*
X5986151Y2453551D01*
X7405384Y2108288D01*
X8668937Y1801075D01*
X9785639Y1529826D01*
X10764317Y1292455D01*
X11613799Y1086874D01*
X12342913Y910997D01*
X12960487Y762737D01*
X13475350Y640007D01*
X13896328Y540720D01*
X14232251Y462789D01*
X14491945Y404128D01*
X14684240Y362650D01*
X14817962Y336267D01*
X14901940Y322894D01*
X14945001Y320443D01*
X14955975Y326828D01*
X14950278Y334547D01*
X14881550Y392303D01*
X14691885Y550868D01*
X14390415Y802624D01*
X13986270Y1139955D01*
X13488580Y1555242D01*
X12906478Y2040868D01*
X12249093Y2589216D01*
X11630674Y3104998D01*
X12284504Y3104998D01*
X12395196Y3004730D01*
X12450035Y2967525D01*
X12675075Y2880216D01*
X13029648Y2812305D01*
X13474908Y2765223D01*
X13972012Y2740404D01*
X14482114Y2739277D01*
X14966370Y2763276D01*
X15385934Y2813832D01*
X15571167Y2852485D01*
X15785748Y2936847D01*
X15886270Y3039750D01*
X15888667Y3056930D01*
X15873359Y3146694D01*
X15801004Y3173543D01*
X15631957Y3140877D01*
X15464775Y3093283D01*
X15204983Y3047604D01*
X14823041Y3018824D01*
X14365278Y3006892D01*
X13878025Y3011754D01*
X13407614Y3033359D01*
X13000377Y3071655D01*
X12839344Y3096240D01*
X12500166Y3148633D01*
X12317356Y3152259D01*
X12284504Y3104998D01*
X11630674Y3104998D01*
X11525557Y3192669D01*
X10745000Y3843608D01*
X9916553Y4534418D01*
X9049347Y5257479D01*
X8908528Y5374886D01*
X7875105Y6235978D01*
X6963793Y6994072D01*
X6167097Y7655150D01*
X5477522Y8225192D01*
X4887576Y8710181D01*
X4389764Y9116097D01*
X3976592Y9448922D01*
X3640566Y9714636D01*
X3374191Y9919223D01*
X3169974Y10068662D01*
X3020420Y10168935D01*
X2918036Y10226023D01*
X2855326Y10245908D01*
X2824798Y10234571D01*
X2823169Y10231839D01*
X2620890Y9988706D01*
X2327790Y9879894D01*
X2177651Y9871119D01*
X1849446Y9916309D01*
X1423059Y10038084D01*
X942097Y10220460D01*
X450168Y10447451D01*
X122175Y10624602D01*
X-464844Y10964461D01*
X-258386Y10607397D01*
X-9307Y10107546D01*
X179315Y9590494D01*
X289288Y9112285D01*
X310000Y8856303D01*
X293398Y8581076D01*
X226867Y8406462D01*
X89744Y8269037D01*
X-286173Y8078621D01*
X-747292Y8022886D01*
X-1282972Y8096916D01*
X-1882574Y8295794D01*
X-2535457Y8614601D01*
X-3230980Y9048419D01*
X-3958504Y9592333D01*
X-4707388Y10241422D01*
X-5194404Y10711205D01*
X-5582056Y11112508D01*
X-5963992Y11529718D01*
X-6307836Y11925944D01*
X-6581210Y12264295D01*
X-6698494Y12424989D01*
X-6902734Y12742318D01*
X-7116910Y13105991D01*
X-7325659Y13485760D01*
X-7491954Y13809241D01*
X-6869648Y13809241D01*
X-6842710Y13723512D01*
X-6724043Y13530749D01*
X-6531128Y13253328D01*
X-6281447Y12913624D01*
X-5992483Y12534012D01*
X-5681716Y12136869D01*
X-5366629Y11744569D01*
X-5064703Y11379489D01*
X-4793420Y11064003D01*
X-4570261Y10820487D01*
X-4427476Y10683413D01*
X-4219023Y10522401D01*
X-4080184Y10478489D01*
X-3958110Y10551828D01*
X-3844812Y10685085D01*
X-3682123Y11023180D01*
X-3670337Y11421728D01*
X-3808092Y11867096D01*
X-3996880Y12205707D01*
X-4276466Y12607497D01*
X-4535009Y12904741D01*
X-4814235Y13127383D01*
X-5155872Y13305369D01*
X-5601645Y13468645D01*
X-5875243Y13553709D01*
X-6251883Y13663480D01*
X-6565096Y13748267D01*
X-6782015Y13799624D01*
X-6869648Y13809241D01*
X-7491954Y13809241D01*
X-7513616Y13851377D01*
X-7665416Y14172594D01*
X-7765693Y14419163D01*
X-7799085Y14560838D01*
X-7792843Y14579379D01*
X-7700805Y14572458D01*
X-7468249Y14527046D01*
X-7118224Y14448457D01*
X-6673781Y14342005D01*
X-6157971Y14213002D01*
X-5774520Y14114147D01*
X-5224463Y13971934D01*
X-4731504Y13846911D01*
X-4318366Y13744640D01*
X-4007772Y13670686D01*
X-3822445Y13630613D01*
X-3779474Y13625638D01*
X-3827418Y13688799D01*
X-3976888Y13839064D01*
X-4202407Y14051532D01*
X-4389088Y14221432D01*
X-4683303Y14501963D01*
X-4898242Y14739803D01*
X-5011822Y14909426D01*
X-5024000Y14955299D01*
X-4967129Y15087699D01*
X-4826509Y15111570D01*
X-4647128Y15028383D01*
X-4550289Y14939803D01*
X-4414123Y14802715D01*
X-4190737Y14592084D01*
X-3920494Y14345704D01*
X-3818269Y14254432D01*
X-3247538Y13747925D01*
X-3466788Y14327462D01*
X-3692130Y14928582D01*
X-3699118Y14947800D01*
X-3174984Y14947800D01*
X-3174205Y14874167D01*
X-3126950Y14674649D01*
X-3042064Y14383400D01*
X-2972579Y14166167D01*
X-2847651Y13799920D01*
X-2748968Y13559325D01*
X-2653952Y13407893D01*
X-2540025Y13309133D01*
X-2393918Y13230961D01*
X-2190751Y13098877D01*
X-1924459Y12877377D01*
X-1641414Y12606216D01*
X-1537990Y12497205D01*
X-1296898Y12245972D01*
X-1093717Y12053734D01*
X-957774Y11947305D01*
X-922958Y11934870D01*
X-840405Y12021286D01*
X-769834Y12175499D01*
X-742086Y12504464D01*
X-840077Y12890980D01*
X-1046482Y13302009D01*
X-1343978Y13704510D01*
X-1715238Y14065445D01*
X-1793081Y14126898D01*
X-2042948Y14304688D01*
X-2339278Y14497449D01*
X-2642020Y14681387D01*
X-2911120Y14832710D01*
X-3106526Y14927626D01*
X-3174984Y14947800D01*
X-3699118Y14947800D01*
X-3859351Y15388407D01*
X-3973636Y15722698D01*
X-4040170Y15947215D01*
X-4064140Y16077718D01*
X-4057552Y16122986D01*
X-4089591Y16208963D01*
X-4214672Y16301327D01*
X-4317046Y16340203D01*
X-4446202Y16346653D01*
X-4632897Y16314742D01*
X-4907892Y16238534D01*
X-5301947Y16112095D01*
X-5448951Y16063155D01*
X-6338762Y15760253D01*
X-7067111Y15500788D01*
X-7635991Y15283954D01*
X-8047392Y15108947D01*
X-8303305Y14974963D01*
X-8405721Y14881200D01*
X-8408005Y14868332D01*
X-8393037Y14735142D01*
X-8354553Y14475263D01*
X-8298726Y14128715D01*
X-8244651Y13809740D01*
X-8183508Y13430678D01*
X-8140814Y13113675D01*
X-8120965Y12895393D01*
X-8125309Y12814907D01*
X-8243242Y12745304D01*
X-8385938Y12801956D01*
X-8494801Y12958268D01*
X-8542740Y13137197D01*
X-8600801Y13430655D01*
X-8658751Y13785070D01*
X-8676725Y13910768D01*
X-8728436Y14250579D01*
X-8779578Y14525158D01*
X-8821839Y14691986D01*
X-8834899Y14719646D01*
X-8946169Y14741873D01*
X-9108852Y14703501D01*
X-9220188Y14647331D01*
X-9291601Y14556131D01*
X-9337930Y14390461D01*
X-9374015Y14110883D01*
X-9388793Y13959521D01*
X-9409100Y13578375D01*
X-9403418Y13204733D01*
X-9373053Y12917089D01*
X-9371295Y12908242D01*
X-9321917Y12590772D01*
X-9337017Y12406532D01*
X-9420969Y12330442D01*
X-9473076Y12324667D01*
X-9614741Y12385043D01*
X-9715165Y12573773D01*
X-9777366Y12902258D01*
X-9804364Y13381898D01*
X-9806061Y13581988D01*
X-9808163Y13966271D01*
X-9817034Y14200393D01*
X-9835633Y14303483D01*
X-9866919Y14294668D01*
X-9904264Y14216988D01*
X-9937222Y14107963D01*
X-9959561Y13955656D01*
X-9970946Y13742529D01*
X-9971041Y13451043D01*
X-21679212Y13451043D01*
X-21053626Y14399000D01*
X-19833313Y15487864D01*
X-19286344Y15961576D01*
X-18784089Y16368529D01*
X-18542442Y16547758D01*
X-3812722Y16547758D01*
X-3711211Y16426163D01*
X-3545804Y16282866D01*
X-3293072Y16127652D01*
X-2918045Y15967880D01*
X-2514750Y15836772D01*
X-2069410Y15690324D01*
X-1572476Y15496502D01*
X-1118869Y15292823D01*
X-1044666Y15255724D01*
X-626255Y15058902D01*
X-310155Y14946463D01*
X-118546Y14924269D01*
X9521Y14970629D01*
X266977Y15083167D01*
X632086Y15251680D01*
X1083109Y15465961D01*
X1598311Y15715804D01*
X2155952Y15991005D01*
X2195585Y16010740D01*
X2780179Y16304573D01*
X3382644Y16611974D01*
X3984586Y16923116D01*
X4567606Y17228171D01*
X5113309Y17517314D01*
X5603298Y17780716D01*
X6019178Y18008550D01*
X6342551Y18190988D01*
X6555022Y18318204D01*
X6638193Y18380369D01*
X6638021Y18383886D01*
X6550988Y18385415D01*
X6325305Y18377455D01*
X5991309Y18361382D01*
X5579335Y18338571D01*
X5390000Y18327291D01*
X3334762Y18136464D01*
X1212660Y17809024D01*
X-987289Y17343134D01*
X-1976000Y17095577D01*
X-2464914Y16968045D01*
X-2907660Y16853298D01*
X-3273860Y16759150D01*
X-3533135Y16693416D01*
X-3648166Y16665406D01*
X-3789292Y16618480D01*
X-3812722Y16547758D01*
X-18542442Y16547758D01*
X-18350235Y16690317D01*
X-18008465Y16908534D01*
X-17997276Y16914721D01*
X-17381551Y17252715D01*
X-17433091Y18281191D01*
X-17455875Y18670530D01*
X-17486317Y18994036D01*
X-17533073Y19292522D01*
X-17594957Y19563667D01*
X-16293109Y19563667D01*
X-16252664Y19267333D01*
X-16227209Y19063591D01*
X-16189297Y18739099D01*
X-16144405Y18341487D01*
X-16105530Y17987863D01*
X-15998843Y17004726D01*
X-15570255Y17195655D01*
X-15402376Y17271976D01*
X-15099531Y17411273D01*
X-14680226Y17604971D01*
X-14162968Y17844497D01*
X-13566264Y18121275D01*
X-12908622Y18426732D01*
X-12208550Y18752293D01*
X-11844695Y18921652D01*
X-11148260Y19246329D01*
X-10500328Y19549200D01*
X-9916809Y19822766D01*
X-9413616Y20059532D01*
X-9006658Y20252001D01*
X-8711847Y20392677D01*
X-8545093Y20474064D01*
X-8513093Y20491352D01*
X-8546083Y20568186D01*
X-8664433Y20741562D01*
X-8844883Y20978111D01*
X-8902576Y21050139D01*
X-9142541Y21368490D01*
X-9417360Y21766249D01*
X-9680096Y22174557D01*
X-9767520Y22319028D01*
X-10208350Y23063761D01*
X-10981675Y22529452D01*
X-11703841Y22056673D01*
X-12564475Y21538950D01*
X-13542589Y20988330D01*
X-14617196Y20416857D01*
X-15042677Y20198667D01*
X-16293109Y19563667D01*
X-17594957Y19563667D01*
X-17604803Y19606803D01*
X-17710166Y19977695D01*
X-17857819Y20446011D01*
X-17956618Y20749000D01*
X-18146857Y21304305D01*
X-18360228Y21886509D01*
X-18576227Y22442131D01*
X-18774352Y22917687D01*
X-18865422Y23119667D01*
X-19302239Y24051000D01*
X-18760145Y25278688D01*
X-18218052Y26506376D01*
X-17194709Y27183688D01*
X-16826400Y27424402D01*
X-16506957Y27627427D01*
X-16263343Y27776066D01*
X-16122520Y27853622D01*
X-16101012Y27861000D01*
X-16035117Y27821190D01*
X-15910606Y27695804D01*
X-15720140Y27475907D01*
X-15456379Y27152564D01*
X-15111985Y26716839D01*
X-14679619Y26159799D01*
X-14327664Y25702000D01*
X-14036333Y25328566D01*
X-13788239Y25023315D01*
X-13597810Y24802918D01*
X-13479475Y24684049D01*
X-13447663Y24683379D01*
X-13448381Y24686000D01*
X-13500343Y24856860D01*
X-13589082Y25141744D01*
X-13699821Y25493379D01*
X-13765989Y25702000D01*
X-13876001Y26075492D01*
X-13960589Y26415474D01*
X-14008113Y26672324D01*
X-14014232Y26760333D01*
X-14031435Y26989517D01*
X-14083688Y27293920D01*
X-14124566Y27470046D01*
X-14242447Y27925757D01*
X-13337390Y27870649D01*
X-13337390Y27870649D01*
G37*
X-13337390Y27870649D02*
X-12874232Y27841297D01*
X-12390678Y27808769D01*
X-11962745Y27778249D01*
X-11795729Y27765545D01*
X-11159125Y27715548D01*
X-10919394Y27280274D01*
X-10313339Y26185528D01*
X-9760087Y25197692D01*
X-9262794Y24322092D01*
X-8824617Y23564050D01*
X-8448710Y22928892D01*
X-8138230Y22421942D01*
X-7896333Y22048523D01*
X-7726174Y21813961D01*
X-7630911Y21723578D01*
X-7625126Y21722667D01*
X-7501576Y21732945D01*
X-7232923Y21761980D01*
X-6842037Y21807078D01*
X-6351785Y21865543D01*
X-5785034Y21934678D01*
X-5164652Y22011788D01*
X-5042776Y22027097D01*
X-2623150Y22331527D01*
X-77075Y22108138D01*
X2469000Y21884750D01*
X4416334Y21113613D01*
X5251742Y20769365D01*
X6047289Y20415724D01*
X6778537Y20064892D01*
X7421048Y19729068D01*
X7950384Y19420455D01*
X8333425Y19157993D01*
X8332568Y19065507D01*
X8186261Y18906656D01*
X7902680Y18686294D01*
X7490004Y18409278D01*
X6956409Y18080463D01*
X6310072Y17704704D01*
X5559170Y17286858D01*
X4711880Y16831780D01*
X3776379Y16344325D01*
X2760844Y15829349D01*
X2553667Y15725878D01*
X1980645Y15440061D01*
X1458226Y15178855D01*
X1005219Y14951714D01*
X640434Y14768093D01*
X382679Y14637447D01*
X250764Y14569229D01*
X237609Y14561698D01*
X278309Y14497903D01*
X415235Y14361970D01*
X533942Y14256515D01*
X1317446Y13485957D01*
X1986303Y12624127D01*
X2515082Y11704233D01*
X2557315Y11614577D01*
X2853341Y10973868D01*
X9157667Y5696030D01*
X9258623Y6660848D01*
X9303989Y7076298D01*
X9348759Y7455137D01*
X9351358Y7475109D01*
X9717117Y7475109D01*
X9779354Y7327261D01*
X9970053Y7148638D01*
X10297851Y6932184D01*
X10771387Y6670845D01*
X11139892Y6484200D01*
X11938904Y6127568D01*
X12692149Y5880660D01*
X13454267Y5731685D01*
X14279901Y5668852D01*
X14915000Y5669553D01*
X15475194Y5692447D01*
X15904510Y5731630D01*
X16241003Y5791791D01*
X16481334Y5862524D01*
X16764708Y5978913D01*
X16917443Y6090185D01*
X16975324Y6222471D01*
X16975455Y6223364D01*
X16976578Y6324326D01*
X16926826Y6377371D01*
X16800817Y6381725D01*
X16573166Y6336615D01*
X16218488Y6241268D01*
X16058000Y6195412D01*
X15665428Y6118335D01*
X15149655Y6072134D01*
X14693023Y6060338D01*
X13610321Y6142675D01*
X12525840Y6392484D01*
X11437706Y6810339D01*
X10374343Y7378343D01*
X10063335Y7551081D01*
X9866087Y7619890D01*
X9774704Y7599237D01*
X9717117Y7475109D01*
X9351358Y7475109D01*
X9387188Y7750386D01*
X9409669Y7895730D01*
X9550603Y8207529D01*
X9837107Y8467398D01*
X10251136Y8667028D01*
X10774641Y8798112D01*
X11216102Y8837043D01*
X12590324Y8837043D01*
X12622964Y8407676D01*
X12682656Y8016429D01*
X12792562Y7575389D01*
X12953662Y7284397D01*
X13180990Y7128071D01*
X13489583Y7091031D01*
X13580008Y7098473D01*
X13813721Y7132281D01*
X13965847Y7168213D01*
X13990045Y7180489D01*
X13986938Y7274033D01*
X13946780Y7494979D01*
X13876806Y7807289D01*
X13810713Y8073595D01*
X13591033Y8926354D01*
X13850850Y9683059D01*
X14028441Y10292359D01*
X14105920Y10803056D01*
X14110667Y10951599D01*
X14110667Y11463433D01*
X13694144Y11287457D01*
X13439559Y11164555D01*
X13301816Y11043271D01*
X13234968Y10878601D01*
X13224299Y10827256D01*
X13161488Y10612268D01*
X13045068Y10307865D01*
X12898711Y9975299D01*
X12878823Y9933404D01*
X12712741Y9546042D01*
X12618413Y9198544D01*
X12590324Y8837043D01*
X11216102Y8837043D01*
X11389576Y8852341D01*
X11489859Y8853333D01*
X12140317Y8853333D01*
X12190189Y9217186D01*
X12251250Y9468641D01*
X12367846Y9805455D01*
X12517071Y10162915D01*
X12549924Y10233523D01*
X12697729Y10552510D01*
X12782421Y10784866D01*
X12810504Y10990429D01*
X12788481Y11229039D01*
X12722854Y11560535D01*
X12703777Y11649240D01*
X12704122Y11653683D01*
X13110895Y11653683D01*
X13147397Y11582583D01*
X13281649Y11568347D01*
X13451559Y11611944D01*
X13518000Y11647333D01*
X13584492Y11709093D01*
X13500401Y11729762D01*
X13454500Y11730704D01*
X13276819Y11734314D01*
X13202617Y11738350D01*
X13122318Y11679763D01*
X13110895Y11653683D01*
X12704122Y11653683D01*
X12711525Y11748786D01*
X13713881Y11748786D01*
X13721957Y11732000D01*
X13792693Y11787993D01*
X13856667Y11859000D01*
X13908185Y11962140D01*
X13876092Y11986000D01*
X13774204Y11918372D01*
X13741382Y11859000D01*
X13713881Y11748786D01*
X12711525Y11748786D01*
X12721558Y11877660D01*
X12833884Y12022195D01*
X12955203Y12152680D01*
X12998176Y12285525D01*
X12962954Y12468686D01*
X12849688Y12750119D01*
X12836273Y12780547D01*
X12728578Y13074185D01*
X12724665Y13251189D01*
X12827607Y13331054D01*
X12924565Y13340667D01*
X13091969Y13263534D01*
X13277807Y13051484D01*
X13458120Y12733543D01*
X13496702Y12647532D01*
X13605435Y12484897D01*
X13786404Y12409759D01*
X13915907Y12393532D01*
X14172670Y12322045D01*
X14354763Y12145738D01*
X14469865Y11848458D01*
X14525658Y11414050D01*
X14533869Y11093801D01*
X14517659Y10667729D01*
X14458965Y10287659D01*
X14342968Y9871707D01*
X14277702Y9678364D01*
X14134946Y9237666D01*
X14069347Y8922728D01*
X14088117Y8705097D01*
X14198468Y8556321D01*
X14407610Y8447947D01*
X14605775Y8384008D01*
X15054126Y8231926D01*
X15538682Y8029967D01*
X16011470Y7801546D01*
X16424515Y7570077D01*
X16729844Y7358974D01*
X16762258Y7331505D01*
X17062669Y7015615D01*
X17259080Y6698474D01*
X17327479Y6423371D01*
X17297266Y6297674D01*
X17213799Y6043698D01*
X17087298Y5690149D01*
X16927984Y5265735D01*
X16777051Y4877419D01*
X16568245Y4337564D01*
X16423880Y3937379D01*
X16339386Y3661902D01*
X16310191Y3496172D01*
X16331722Y3425226D01*
X16333072Y3424424D01*
X16701334Y3189975D01*
X17146475Y2863209D01*
X17629903Y2475664D01*
X18113025Y2058876D01*
X18557248Y1644383D01*
X18755949Y1444494D01*
X19676136Y375482D01*
X20440093Y-757771D01*
X21046938Y-1953102D01*
X21495791Y-3208347D01*
X21785772Y-4521340D01*
X21916002Y-5889918D01*
X21923785Y-6344333D01*
X21840848Y-7731113D01*
X21596896Y-9066539D01*
X21193318Y-10347193D01*
X20631508Y-11569652D01*
X19912857Y-12730496D01*
X19038757Y-13826306D01*
X18754904Y-14132992D01*
X18002194Y-14920340D01*
X18273433Y-15014895D01*
X18621933Y-15177296D01*
X18805698Y-15364831D01*
X18824370Y-15578473D01*
X18677593Y-15819198D01*
X18365008Y-16087980D01*
X17886260Y-16385795D01*
X17742321Y-16463968D01*
X17445347Y-16627760D01*
X17289788Y-16731248D01*
X17263127Y-16784687D01*
X17334084Y-16798439D01*
X17774260Y-16874116D01*
X18217503Y-17071288D01*
X18595427Y-17357932D01*
X18649206Y-17414303D01*
X18962104Y-17760643D01*
X18771637Y-17914874D01*
X18487143Y-18082362D01*
X18087624Y-18211199D01*
X17558030Y-18304520D01*
X16883310Y-18365462D01*
X16523667Y-18383343D01*
X15969467Y-18394177D01*
X15358391Y-18388135D01*
X14767970Y-18366888D01*
X14313026Y-18335661D01*
X13868781Y-18297236D01*
X13549274Y-18279684D01*
X13310945Y-18285186D01*
X13110233Y-18315925D01*
X12903578Y-18374083D01*
X12790834Y-18411913D01*
X12670696Y-18451275D01*
X12549117Y-18483821D01*
X12410164Y-18509983D01*
X12237902Y-18530193D01*
X12016397Y-18544882D01*
X11729715Y-18554481D01*
X11361922Y-18559422D01*
X10897085Y-18560136D01*
X10319268Y-18557055D01*
X9612539Y-18550611D01*
X8760962Y-18541234D01*
X8239573Y-18535154D01*
X4185195Y-18487441D01*
X3084443Y-18795812D01*
X2428291Y-18963224D01*
X1882664Y-19058165D01*
X1404573Y-19079632D01*
X951033Y-19026623D01*
X479055Y-18898135D01*
X20459Y-18724369D01*
X-362641Y-18574167D01*
X-620441Y-18494507D01*
X-778469Y-18478963D01*
X-847374Y-18505930D01*
X-945944Y-18633793D01*
X-960000Y-18688365D01*
X-915976Y-18786390D01*
X-794349Y-18999710D01*
X-610782Y-19302292D01*
X-380940Y-19668097D01*
X-219166Y-19919706D01*
X36994Y-20315223D01*
X263495Y-20665907D01*
X442995Y-20944836D01*
X558153Y-21125085D01*
X589374Y-21175041D01*
X575883Y-21190220D01*
X511648Y-21204031D01*
X389591Y-21216534D01*
X202632Y-21227789D01*
X-56310Y-21237857D01*
X-394315Y-21246796D01*
X-818461Y-21254668D01*
X-1335830Y-21261533D01*
X-1953501Y-21267450D01*
X-2678553Y-21272480D01*
X-3518067Y-21276683D01*
X-4479122Y-21280119D01*
X-5568798Y-21282848D01*
X-6794176Y-21284929D01*
X-8162334Y-21286424D01*
X-9680354Y-21287392D01*
X-11355314Y-21287894D01*
X-12719463Y-21288000D01*
X-14211138Y-21287605D01*
X-15656597Y-21286448D01*
X-17046786Y-21284573D01*
X-18372653Y-21282022D01*
X-19625144Y-21278838D01*
X-20795207Y-21275064D01*
X-21873788Y-21270743D01*
X-22851835Y-21265917D01*
X-23720296Y-21260630D01*
X-24470116Y-21254924D01*
X-25092243Y-21248842D01*
X-25577625Y-21242427D01*
X-25917208Y-21235722D01*
X-26101939Y-21228770D01*
X-26134682Y-21224500D01*
X-26166114Y-21115419D01*
X-26213789Y-20885240D01*
X-26268260Y-20580237D01*
X-26277235Y-20526000D01*
X-26381113Y-19891000D01*
X-25562105Y-15954000D01*
X-25422356Y-15282343D01*
X-25296510Y-14681010D01*
X-25180672Y-14136155D01*
X-25070945Y-13633929D01*
X-24963434Y-13160484D01*
X-24854245Y-12701974D01*
X-24739480Y-12244550D01*
X-24615245Y-11774365D01*
X-24477645Y-11277571D01*
X-24322783Y-10740321D01*
X-24146764Y-10148767D01*
X-23945693Y-9489060D01*
X-23715674Y-8747355D01*
X-23452812Y-7909803D01*
X-23153211Y-6962556D01*
X-22812976Y-5891767D01*
X-22428210Y-4683588D01*
X-22115819Y-3703279D01*
X-21867778Y-2924892D01*
X-21504455Y-3151093D01*
X-21141133Y-3377294D01*
X-21038119Y-4522147D01*
X-20910853Y-5651936D01*
X-20735658Y-6679471D01*
X-20501139Y-7632888D01*
X-20195900Y-8540324D01*
X-19808544Y-9429914D01*
X-19327674Y-10329795D01*
X-18741894Y-11268103D01*
X-18039807Y-12272974D01*
X-17728002Y-12694333D01*
X-17425778Y-13108674D01*
X-17120907Y-13546147D01*
X-16849137Y-13954339D01*
X-16648059Y-14277686D01*
X-16459372Y-14592210D01*
X-16310428Y-14799565D01*
X-16157413Y-14939865D01*
X-15956511Y-15053223D01*
X-15663909Y-15179754D01*
X-15661815Y-15180622D01*
X-15339475Y-15304592D01*
X-14887686Y-15462448D01*
X-14302163Y-15655517D01*
X-13578617Y-15885122D01*
X-12712762Y-16152590D01*
X-11700311Y-16459247D01*
X-10536979Y-16806417D01*
X-9218476Y-17195425D01*
X-7860333Y-17592685D01*
X-7084523Y-17819061D01*
X-6341076Y-18036462D01*
X-5649581Y-18239125D01*
X-5029630Y-18421288D01*
X-4500813Y-18577188D01*
X-4082721Y-18701065D01*
X-3794944Y-18787157D01*
X-3687296Y-18820047D01*
X-3403752Y-18904879D01*
X-3248199Y-18936799D01*
X-3188338Y-18917497D01*
X-3191872Y-18848664D01*
X-3192593Y-18845952D01*
X-3239588Y-18656782D01*
X-3281313Y-18475876D01*
X-3338949Y-18316831D01*
X-3441658Y-18291507D01*
X-3521235Y-18315952D01*
X-3751149Y-18346708D01*
X-3922552Y-18322830D01*
X-4043773Y-18287208D01*
X-4311140Y-18208848D01*
X-4708277Y-18092545D01*
X-5218805Y-17943092D01*
X-5826345Y-17765285D01*
X-6514519Y-17563916D01*
X-6585401Y-17543178D01*
X-2986437Y-17543178D01*
X-2978721Y-17843264D01*
X-2951077Y-18027118D01*
X-2901424Y-18120923D01*
X-2894749Y-18126694D01*
X-2768019Y-18196504D01*
X-2541012Y-18299017D01*
X-2271565Y-18410624D01*
X-2017514Y-18507715D01*
X-1836695Y-18566680D01*
X-1798383Y-18574255D01*
X-1780697Y-18497741D01*
X-1773913Y-18288147D01*
X-1775523Y-18180594D01*
X-1370917Y-18180594D01*
X-1343628Y-18235748D01*
X-1236985Y-18286880D01*
X-1199110Y-18273131D01*
X-1171165Y-18195337D01*
X-1223675Y-18149353D01*
X-1350460Y-18107966D01*
X-1370917Y-18180594D01*
X-1775523Y-18180594D01*
X-1778506Y-17981408D01*
X-1787535Y-17752789D01*
X-1788008Y-17605000D01*
X-1341000Y-17605000D01*
X-621333Y-17966340D01*
X4959Y-18267731D01*
X529628Y-18481311D01*
X993120Y-18611411D01*
X1435883Y-18662357D01*
X1898363Y-18638480D01*
X2421007Y-18544109D01*
X3044262Y-18383571D01*
X3108439Y-18365526D01*
X4162334Y-18067719D01*
X8268667Y-18090359D01*
X9234468Y-18096234D01*
X10048005Y-18100732D01*
X10726343Y-18101494D01*
X11286549Y-18096159D01*
X11745688Y-18082366D01*
X12120826Y-18057756D01*
X12429029Y-18019968D01*
X12687364Y-17966642D01*
X12912895Y-17895418D01*
X12916928Y-17893659D01*
X14467678Y-17893659D01*
X14494911Y-17929205D01*
X14663933Y-17949524D01*
X14967160Y-17959856D01*
X15369824Y-17961262D01*
X15837157Y-17954802D01*
X16334393Y-17941537D01*
X16826764Y-17922527D01*
X17279501Y-17898834D01*
X17657837Y-17871516D01*
X17927005Y-17841636D01*
X18026500Y-17821481D01*
X18228144Y-17742845D01*
X18337512Y-17667597D01*
X18344000Y-17650906D01*
X18274391Y-17574842D01*
X18097038Y-17462588D01*
X17970033Y-17396738D01*
X17709874Y-17295641D01*
X17408849Y-17235799D01*
X17012444Y-17207844D01*
X16848199Y-17203969D01*
X16500183Y-17203817D01*
X16223951Y-17223479D01*
X15964371Y-17274199D01*
X15666312Y-17367221D01*
X15274641Y-17513787D01*
X15214578Y-17537125D01*
X14813638Y-17700155D01*
X14567155Y-17817647D01*
X14467678Y-17893659D01*
X12916928Y-17893659D01*
X13122690Y-17803936D01*
X13333814Y-17689834D01*
X13563332Y-17550753D01*
X13828311Y-17384333D01*
X13957800Y-17303534D01*
X14081096Y-17222694D01*
X14893941Y-17222694D01*
X14895527Y-17224000D01*
X14984268Y-17193577D01*
X15199044Y-17110328D01*
X15509467Y-16986277D01*
X15885153Y-16833454D01*
X15963063Y-16801475D01*
X16721374Y-16480555D01*
X17324652Y-16204550D01*
X17780110Y-15969902D01*
X18094962Y-15773056D01*
X18174924Y-15711056D01*
X18309079Y-15581101D01*
X18316942Y-15499298D01*
X18259334Y-15449016D01*
X18054500Y-15383301D01*
X17755320Y-15366256D01*
X17429136Y-15396264D01*
X17143294Y-15471702D01*
X17132491Y-15476125D01*
X16934475Y-15588395D01*
X16667070Y-15778015D01*
X16384275Y-16006360D01*
X16352044Y-16034376D01*
X16019928Y-16316792D01*
X15650999Y-16617287D01*
X15351111Y-16850917D01*
X15117954Y-17030270D01*
X14955478Y-17162456D01*
X14893941Y-17222694D01*
X14081096Y-17222694D01*
X14338376Y-17054008D01*
X14763003Y-16753070D01*
X15210768Y-16418009D01*
X15660760Y-16066112D01*
X16092066Y-15714670D01*
X16483775Y-15380971D01*
X16814974Y-15082303D01*
X17064751Y-14835956D01*
X17212194Y-14659217D01*
X17243334Y-14587266D01*
X17173012Y-14507459D01*
X16994775Y-14397544D01*
X16883500Y-14343053D01*
X16449871Y-14205877D01*
X16004622Y-14189589D01*
X15536471Y-14299339D01*
X15034136Y-14540283D01*
X14486337Y-14917572D01*
X13881791Y-15436360D01*
X13348951Y-15957515D01*
X12965442Y-16336859D01*
X12637107Y-16636227D01*
X12382340Y-16839787D01*
X12219532Y-16931706D01*
X12216219Y-16932584D01*
X11929839Y-16968206D01*
X11563007Y-16946532D01*
X11098870Y-16864319D01*
X10520575Y-16718326D01*
X9811272Y-16505311D01*
X9538667Y-16417498D01*
X8845097Y-16199704D01*
X8263283Y-16042404D01*
X7748738Y-15940816D01*
X7256971Y-15890157D01*
X6743494Y-15885643D01*
X6163819Y-15922491D01*
X5542215Y-15987827D01*
X5064120Y-16039215D01*
X4596622Y-16081655D01*
X4190420Y-16111029D01*
X3896213Y-16123218D01*
X3874216Y-16123333D01*
X3469695Y-16105131D01*
X3086473Y-16056009D01*
X2763252Y-15984194D01*
X2538732Y-15897914D01*
X2455240Y-15821671D01*
X2452709Y-15643149D01*
X2472801Y-15558889D01*
X2878222Y-15558889D01*
X2889845Y-15609223D01*
X2934667Y-15615333D01*
X3004357Y-15584355D01*
X2991111Y-15558889D01*
X2890632Y-15548756D01*
X2878222Y-15558889D01*
X2472801Y-15558889D01*
X2520733Y-15357877D01*
X2643626Y-15004829D01*
X2805700Y-14622983D01*
X2991268Y-14251313D01*
X3118519Y-14039079D01*
X7506667Y-14039079D01*
X7562708Y-14282031D01*
X7702456Y-14479808D01*
X7883346Y-14580938D01*
X7956433Y-14582984D01*
X8147628Y-14477794D01*
X8346352Y-14233312D01*
X8533595Y-13877484D01*
X8654079Y-13557387D01*
X8742351Y-13305382D01*
X8868484Y-12973356D01*
X9020033Y-12591014D01*
X9184550Y-12188060D01*
X9349586Y-11794199D01*
X9502697Y-11439136D01*
X9631433Y-11152574D01*
X9723348Y-10964218D01*
X9765995Y-10903773D01*
X9766023Y-10903801D01*
X9771444Y-10994642D01*
X9767027Y-11228509D01*
X9753782Y-11579442D01*
X9732719Y-12021480D01*
X9704846Y-12528662D01*
X9698984Y-12628223D01*
X9670730Y-13160138D01*
X9651246Y-13646457D01*
X9641228Y-14057256D01*
X9641372Y-14362610D01*
X9652373Y-14532594D01*
X9654484Y-14542589D01*
X9778639Y-14743026D01*
X9990614Y-14831664D01*
X10238707Y-14792661D01*
X10322450Y-14747278D01*
X10443493Y-14621378D01*
X10614670Y-14384147D01*
X10808895Y-14074953D01*
X10925867Y-13870112D01*
X11356496Y-13089033D01*
X11711452Y-12450803D01*
X11994572Y-11948764D01*
X12209694Y-11576258D01*
X12360654Y-11326627D01*
X12451287Y-11193214D01*
X12483942Y-11166386D01*
X12490054Y-11261116D01*
X12474659Y-11481462D01*
X12441029Y-11785531D01*
X12427354Y-11890676D01*
X12384530Y-12264496D01*
X12340788Y-12739973D01*
X12301912Y-13249564D01*
X12278700Y-13626998D01*
X12257621Y-14081339D01*
X12252902Y-14400577D01*
X12266820Y-14618352D01*
X12301652Y-14768307D01*
X12359678Y-14884084D01*
X12364287Y-14891199D01*
X12561148Y-15069207D01*
X12806260Y-15089806D01*
X13086234Y-14953301D01*
X13185566Y-14872429D01*
X13448470Y-14637524D01*
X13457695Y-14231152D01*
X14280000Y-14231152D01*
X14280000Y-14510937D01*
X14682167Y-14255837D01*
X15003738Y-14079652D01*
X15356405Y-13926314D01*
X15501867Y-13876702D01*
X16022605Y-13767522D01*
X16468438Y-13779256D01*
X16716698Y-13843524D01*
X16880233Y-13885392D01*
X17035535Y-13877112D01*
X17215014Y-13804484D01*
X17451083Y-13653311D01*
X17776152Y-13409394D01*
X17864117Y-13340869D01*
X18295191Y-12946900D01*
X18588546Y-12553183D01*
X18738543Y-12173679D01*
X18739542Y-11822348D01*
X18596968Y-11526918D01*
X18426603Y-11310334D01*
X18691702Y-11121566D01*
X18961141Y-10870372D01*
X19199121Y-10544445D01*
X19371511Y-10200398D01*
X19444182Y-9894844D01*
X19444667Y-9872584D01*
X19363935Y-9488143D01*
X19135465Y-9134387D01*
X18779847Y-8823570D01*
X18317671Y-8567948D01*
X17769526Y-8379776D01*
X17156003Y-8271311D01*
X16717545Y-8249333D01*
X16352285Y-8266481D01*
X16099367Y-8337165D01*
X15925570Y-8490251D01*
X15797671Y-8754600D01*
X15685759Y-9145754D01*
X15605064Y-9447692D01*
X15487121Y-9860788D01*
X15346558Y-10335011D01*
X15198008Y-10820329D01*
X15167995Y-10916333D01*
X14896895Y-11795600D01*
X14671963Y-12557916D01*
X14495567Y-13194450D01*
X14370072Y-13696373D01*
X14297843Y-14054851D01*
X14280000Y-14231152D01*
X13457695Y-14231152D01*
X13479176Y-13284929D01*
X13499406Y-12726375D01*
X13533507Y-12136023D01*
X13577159Y-11575306D01*
X13626042Y-11105658D01*
X13639777Y-11001000D01*
X13739627Y-10277765D01*
X13816347Y-9701631D01*
X13871921Y-9252238D01*
X13908331Y-8909226D01*
X13927562Y-8652235D01*
X13931596Y-8460905D01*
X13922416Y-8314876D01*
X13909605Y-8230888D01*
X13794201Y-7908228D01*
X13610523Y-7712174D01*
X13385397Y-7654483D01*
X13145649Y-7746913D01*
X13034067Y-7847167D01*
X12937701Y-7987314D01*
X12786104Y-8249446D01*
X12596262Y-8602381D01*
X12385158Y-9014940D01*
X12261578Y-9265333D01*
X11971795Y-9852200D01*
X11690703Y-10406013D01*
X11428425Y-10908189D01*
X11195086Y-11340144D01*
X11000809Y-11683294D01*
X10855718Y-11919054D01*
X10769938Y-12028842D01*
X10753937Y-12032825D01*
X10748309Y-11938912D01*
X10759683Y-11707138D01*
X10785879Y-11367888D01*
X10824719Y-10951544D01*
X10847052Y-10734759D01*
X10903482Y-10202107D01*
X10962376Y-9645023D01*
X11017270Y-9124713D01*
X11061703Y-8702382D01*
X11067077Y-8651164D01*
X11109069Y-8070666D01*
X11093819Y-7636739D01*
X11016674Y-7334994D01*
X10872982Y-7151042D01*
X10658090Y-7070493D01*
X10553906Y-7064000D01*
X10362360Y-7145425D01*
X10144839Y-7383022D01*
X9907843Y-7766770D01*
X9657872Y-8286651D01*
X9482955Y-8715000D01*
X9315192Y-9144035D01*
X9102578Y-9677342D01*
X8865987Y-10263135D01*
X8626293Y-10849630D01*
X8476233Y-11212667D01*
X8139020Y-12043522D01*
X7871775Y-12744382D01*
X7676230Y-13310198D01*
X7554117Y-13735923D01*
X7507169Y-14016506D01*
X7506667Y-14039079D01*
X3118519Y-14039079D01*
X3184643Y-13928795D01*
X3259199Y-13824208D01*
X3467013Y-13549854D01*
X3648044Y-13309925D01*
X3766502Y-13151867D01*
X3774519Y-13141051D01*
X3841677Y-12970264D01*
X3897094Y-12679974D01*
X3930732Y-12328437D01*
X3943217Y-11976476D01*
X3925321Y-11726328D01*
X3864686Y-11511435D01*
X3748951Y-11265237D01*
X3724690Y-11218864D01*
X3417939Y-10800679D01*
X3022214Y-10517220D01*
X2561308Y-10376890D01*
X2059015Y-10388096D01*
X1680138Y-10496688D01*
X1353516Y-10627377D01*
X1472769Y-11237522D01*
X1566242Y-12043226D01*
X1519289Y-12769520D01*
X1335204Y-13409445D01*
X1017282Y-13956040D01*
X568816Y-14402347D01*
X-6899Y-14741406D01*
X-227425Y-14829718D01*
X-619346Y-15058270D01*
X-933635Y-15425256D01*
X-1162034Y-15914638D01*
X-1296284Y-16510377D01*
X-1329617Y-16970000D01*
X-1341000Y-17605000D01*
X-1788008Y-17605000D01*
X-1789811Y-17042647D01*
X-1714904Y-16422383D01*
X-1552458Y-15826289D01*
X-1435015Y-15516391D01*
X-1238505Y-15036449D01*
X-1736423Y-14978659D01*
X-2035358Y-14953606D01*
X-2242126Y-14979080D01*
X-2395338Y-15081415D01*
X-2533606Y-15286947D01*
X-2695541Y-15622011D01*
X-2702714Y-15637729D01*
X-2815138Y-15906164D01*
X-2889677Y-16155721D01*
X-2936047Y-16438354D01*
X-2963963Y-16806015D01*
X-2976308Y-17100677D01*
X-2986437Y-17543178D01*
X-6585401Y-17543178D01*
X-7266949Y-17343779D01*
X-8067256Y-17109668D01*
X-8241333Y-17058750D01*
X-9121463Y-16799705D01*
X-10015621Y-16533559D01*
X-10897957Y-16268204D01*
X-11742622Y-16011530D01*
X-12523764Y-15771429D01*
X-13215533Y-15555792D01*
X-13792080Y-15372512D01*
X-14167441Y-15249662D01*
X-15987215Y-14641667D01*
X-16268633Y-14135680D01*
X-16436067Y-13857014D01*
X-16671428Y-13494425D01*
X-16940717Y-13099212D01*
X-17158192Y-12793391D01*
X-17659656Y-12100365D01*
X-18071838Y-11522166D01*
X-18408020Y-11038883D01*
X-18681481Y-10630603D01*
X-18905504Y-10277416D01*
X-19093368Y-9959408D01*
X-19258354Y-9656667D01*
X-19286903Y-9601763D01*
X-19800330Y-8438403D01*
X-20202612Y-7151275D01*
X-20493892Y-5739473D01*
X-20674311Y-4202090D01*
X-20744010Y-2538220D01*
X-20703131Y-746956D01*
X-20694859Y-594058D01*
X-20684655Y-420337D01*
X-15921342Y-420337D01*
X-15920965Y-1460249D01*
X-15919195Y-1518333D01*
X-15881677Y-2282794D01*
X-15815584Y-3022434D01*
X-15715691Y-3762481D01*
X-15576775Y-4528160D01*
X-15393611Y-5344698D01*
X-15160975Y-6237322D01*
X-14873643Y-7231257D01*
X-14526392Y-8351731D01*
X-14462806Y-8551045D01*
X-14293055Y-9087861D01*
X-14135949Y-9596936D01*
X-14001006Y-10046468D01*
X-13897743Y-10404655D01*
X-13835678Y-10639694D01*
X-13829338Y-10667764D01*
X-13739691Y-11085771D01*
X-13370065Y-11100076D01*
X-13086602Y-11135517D01*
X-12662425Y-11222166D01*
X-12116378Y-11354527D01*
X-11467305Y-11527103D01*
X-10734049Y-11734398D01*
X-9935452Y-11970914D01*
X-9090359Y-12231156D01*
X-8217613Y-12509627D01*
X-7336057Y-12800829D01*
X-6464535Y-13099267D01*
X-6209333Y-13188864D01*
X-5698294Y-13369178D01*
X-5325257Y-13499298D01*
X-5068510Y-13585278D01*
X-4906336Y-13633175D01*
X-4817022Y-13649043D01*
X-4778854Y-13638940D01*
X-4770116Y-13608920D01*
X-4770000Y-13590258D01*
X-4742072Y-13446975D01*
X-4721833Y-13386996D01*
X-4784614Y-13324046D01*
X-4992023Y-13220342D01*
X-5325895Y-13081737D01*
X-5768066Y-12914085D01*
X-6300370Y-12723239D01*
X-6904643Y-12515054D01*
X-7562720Y-12295383D01*
X-8256437Y-12070080D01*
X-8967628Y-11844998D01*
X-9678129Y-11625993D01*
X-10369776Y-11418917D01*
X-11024403Y-11229624D01*
X-11371459Y-11133715D01*
X-4809798Y-11133715D01*
X-4803166Y-11159868D01*
X-4740495Y-11329086D01*
X-4628367Y-11603174D01*
X-4482096Y-11947423D01*
X-4316995Y-12327123D01*
X-4148379Y-12707567D01*
X-3991559Y-13054045D01*
X-3861849Y-13331848D01*
X-3774563Y-13506267D01*
X-3751076Y-13544523D01*
X-3640069Y-13612399D01*
X-3409939Y-13713917D01*
X-3102831Y-13831089D01*
X-2973357Y-13876442D01*
X-2587831Y-14011329D01*
X-2343109Y-14109234D01*
X-2218589Y-14184372D01*
X-2193668Y-14250956D01*
X-2247742Y-14323201D01*
X-2282364Y-14353155D01*
X-2338445Y-14416328D01*
X-2308527Y-14463596D01*
X-2167299Y-14506325D01*
X-1889452Y-14555877D01*
X-1799119Y-14570127D01*
X-1361697Y-14626774D01*
X-1024596Y-14632132D01*
X-724173Y-14577223D01*
X-396788Y-14453072D01*
X-153662Y-14338029D01*
X157441Y-14165878D01*
X439098Y-13977737D01*
X610012Y-13833493D01*
X754437Y-13665948D01*
X788673Y-13552450D01*
X729237Y-13434710D01*
X724751Y-13428549D01*
X-28771Y-12319566D01*
X-634886Y-11243282D01*
X-1105048Y-10173777D01*
X-1450713Y-9085130D01*
X-1552524Y-8593666D01*
X-533362Y-8593666D01*
X-478376Y-9074564D01*
X-367368Y-9408257D01*
X-359041Y-9423139D01*
X-244472Y-9575414D01*
X-53945Y-9784837D01*
X177506Y-10017833D01*
X414847Y-10240823D01*
X623047Y-10420231D01*
X767073Y-10522481D01*
X800374Y-10534358D01*
X872992Y-10484468D01*
X989919Y-10381763D01*
X1200874Y-10248756D01*
X1517206Y-10119022D01*
X1875824Y-10012931D01*
X2213638Y-9950851D01*
X2350001Y-9942667D01*
X2647992Y-9968127D01*
X2925195Y-10024617D01*
X3210939Y-10106567D01*
X3179638Y-9878203D01*
X3616646Y-9878203D01*
X3629513Y-10194492D01*
X3693687Y-10420828D01*
X3788706Y-10560040D01*
X4051632Y-10892264D01*
X4219407Y-11251769D01*
X4307389Y-11684603D01*
X4331060Y-12186333D01*
X4318883Y-12637297D01*
X4277692Y-12961245D01*
X4201757Y-13198887D01*
X4183133Y-13237244D01*
X4087263Y-13465078D01*
X4089330Y-13565328D01*
X4178941Y-13528493D01*
X4327026Y-13368812D01*
X4464572Y-13211466D01*
X4558265Y-13173902D01*
X4663325Y-13238575D01*
X4683113Y-13255690D01*
X5083345Y-13514750D01*
X5525051Y-13647895D01*
X5965854Y-13649081D01*
X6363377Y-13512267D01*
X6386550Y-13498550D01*
X6670499Y-13248182D01*
X6957663Y-12853153D01*
X7237500Y-12337576D01*
X7499466Y-11725566D01*
X7733018Y-11041234D01*
X7927611Y-10308693D01*
X8049710Y-9694914D01*
X8135391Y-9117188D01*
X8174724Y-8643348D01*
X8168866Y-8214746D01*
X8118974Y-7772734D01*
X8090987Y-7602084D01*
X8044804Y-7299205D01*
X8042496Y-7093318D01*
X8092902Y-6915745D01*
X8204860Y-6697809D01*
X8208100Y-6692008D01*
X8418226Y-6316052D01*
X8141063Y-6047414D01*
X7932023Y-5844805D01*
X13179334Y-5844805D01*
X13196272Y-6023100D01*
X13265661Y-6157823D01*
X13415361Y-6269537D01*
X13673232Y-6378809D01*
X14067132Y-6506203D01*
X14081088Y-6510443D01*
X14578123Y-6643157D01*
X14946216Y-6695650D01*
X15206086Y-6666915D01*
X15378454Y-6555948D01*
X15451177Y-6443924D01*
X15518043Y-6139773D01*
X15453493Y-5845374D01*
X15277036Y-5613166D01*
X15107012Y-5518859D01*
X15085062Y-5461784D01*
X15094834Y-5307491D01*
X15096032Y-5300295D01*
X16403453Y-5300295D01*
X16417757Y-5937138D01*
X16552494Y-6506369D01*
X16794825Y-6994522D01*
X17131912Y-7388131D01*
X17550915Y-7673729D01*
X18038994Y-7837849D01*
X18583310Y-7867027D01*
X19171025Y-7747795D01*
X19423500Y-7652045D01*
X19686801Y-7488293D01*
X19786762Y-7288628D01*
X19725583Y-7043149D01*
X19600509Y-6854413D01*
X19464568Y-6707962D01*
X19325239Y-6657789D01*
X19107317Y-6680048D01*
X19071343Y-6686635D01*
X18755937Y-6729963D01*
X18407135Y-6756514D01*
X18329158Y-6759007D01*
X17940393Y-6696195D01*
X17638495Y-6505053D01*
X17430690Y-6206689D01*
X17324207Y-5822209D01*
X17326272Y-5372720D01*
X17444113Y-4879330D01*
X17577255Y-4563140D01*
X17770528Y-4235069D01*
X18012666Y-3916068D01*
X18272200Y-3638970D01*
X18517665Y-3436612D01*
X18717593Y-3341830D01*
X18750683Y-3338667D01*
X18951243Y-3416733D01*
X19144612Y-3627334D01*
X19301863Y-3935073D01*
X19344885Y-4065716D01*
X19456479Y-4339696D01*
X19603617Y-4549626D01*
X19755812Y-4660849D01*
X19862665Y-4654297D01*
X19914803Y-4539547D01*
X19943771Y-4307763D01*
X19949240Y-4009697D01*
X19930885Y-3696102D01*
X19888379Y-3417728D01*
X19871062Y-3349341D01*
X19760412Y-3132822D01*
X19547447Y-2853201D01*
X19278868Y-2566733D01*
X19007846Y-2313219D01*
X18809400Y-2161938D01*
X18643633Y-2088545D01*
X18470644Y-2068691D01*
X18462662Y-2068667D01*
X18183409Y-2145343D01*
X17873085Y-2358652D01*
X17550842Y-2683512D01*
X17235834Y-3094843D01*
X16947216Y-3567564D01*
X16704140Y-4076595D01*
X16525760Y-4596854D01*
X16522423Y-4609307D01*
X16403453Y-5300295D01*
X15096032Y-5300295D01*
X15138754Y-5043883D01*
X15219246Y-4658862D01*
X15338737Y-4140331D01*
X15499650Y-3476192D01*
X15587997Y-3119466D01*
X15793970Y-2290342D01*
X15961631Y-1609581D01*
X16094195Y-1061383D01*
X16194873Y-629951D01*
X16266880Y-299483D01*
X16313428Y-54181D01*
X16337732Y121754D01*
X16343005Y244123D01*
X16332460Y328724D01*
X16309310Y391357D01*
X16304098Y401432D01*
X16158056Y516797D01*
X15931062Y554404D01*
X15696517Y506134D01*
X15637928Y475140D01*
X15576852Y403735D01*
X15634436Y309177D01*
X15743761Y216292D01*
X15912828Y26923D01*
X15977536Y-167889D01*
X15928933Y-306845D01*
X15830248Y-311183D01*
X15614978Y-279483D01*
X15338978Y-220713D01*
X15042097Y-153880D01*
X14859592Y-131845D01*
X14742070Y-156340D01*
X14640142Y-229099D01*
X14621378Y-245879D01*
X14491453Y-463630D01*
X14449265Y-758631D01*
X14501068Y-1059695D01*
X14541807Y-1151921D01*
X14653108Y-1273221D01*
X14833554Y-1283848D01*
X14881613Y-1275244D01*
X15051809Y-1253256D01*
X15098441Y-1311564D01*
X15070483Y-1456722D01*
X15032787Y-1606555D01*
X14961102Y-1892307D01*
X14862531Y-2285626D01*
X14744181Y-2758159D01*
X14613156Y-3281554D01*
X14577673Y-3423333D01*
X14143325Y-5159000D01*
X13789770Y-5184964D01*
X13462541Y-5269783D01*
X13260364Y-5468606D01*
X13180836Y-5784026D01*
X13179334Y-5844805D01*
X7932023Y-5844805D01*
X7863899Y-5778777D01*
X7567423Y-6280671D01*
X7274529Y-6081908D01*
X6820675Y-5864307D01*
X6349532Y-5801786D01*
X5875357Y-5883054D01*
X5412403Y-6096820D01*
X4974924Y-6431796D01*
X4577176Y-6876690D01*
X4233412Y-7420213D01*
X3957887Y-8051073D01*
X3764856Y-8757981D01*
X3742173Y-8879713D01*
X3654421Y-9447948D01*
X3616646Y-9878203D01*
X3179638Y-9878203D01*
X3159052Y-9728013D01*
X3068749Y-9358879D01*
X2910805Y-8962585D01*
X2719219Y-8617591D01*
X2622741Y-8490337D01*
X2557376Y-8386860D01*
X2601669Y-8301473D01*
X2758237Y-8197724D01*
X3020038Y-7953137D01*
X3213622Y-7594728D01*
X3326219Y-7168672D01*
X3345060Y-6721145D01*
X3271956Y-6340161D01*
X3111226Y-6024858D01*
X2848994Y-5683804D01*
X2533418Y-5370470D01*
X2212656Y-5138326D01*
X2167802Y-5114185D01*
X1825648Y-4984438D01*
X1384834Y-4878533D01*
X915666Y-4809178D01*
X488453Y-4789080D01*
X393341Y-4793461D01*
X211821Y-4815686D01*
X72982Y-4868002D01*
X-34050Y-4973345D01*
X-120150Y-5154652D01*
X-196193Y-5434857D01*
X-273055Y-5836898D01*
X-361610Y-6383710D01*
X-362073Y-6386667D01*
X-475222Y-7237825D01*
X-532315Y-7977455D01*
X-533362Y-8593666D01*
X-1552524Y-8593666D01*
X-1676475Y-7995333D01*
X-1790266Y-7275667D01*
X-1798466Y-8127318D01*
X-1814367Y-8590946D01*
X-1850692Y-8920363D01*
X-1905550Y-9099286D01*
X-1912500Y-9108916D01*
X-2038665Y-9214793D01*
X-2265080Y-9364610D01*
X-2526333Y-9516710D01*
X-2802817Y-9675646D01*
X-3170539Y-9897727D01*
X-3579679Y-10152416D01*
X-3946809Y-10387312D01*
X-4325802Y-10637447D01*
X-4580829Y-10818419D01*
X-4732659Y-10948963D01*
X-4802059Y-11047817D01*
X-4809798Y-11133715D01*
X-11371459Y-11133715D01*
X-11623846Y-11063968D01*
X-12149939Y-10927803D01*
X-12584519Y-10826982D01*
X-12792574Y-10786104D01*
X-13406815Y-10677402D01*
X-13497750Y-10331201D01*
X-13549186Y-10150626D01*
X-13642787Y-9836971D01*
X-13769887Y-9418678D01*
X-13921818Y-8924190D01*
X-14089911Y-8381950D01*
X-14170895Y-8122333D01*
X-14199201Y-8030103D01*
X-2907747Y-8030103D01*
X-2594024Y-8351385D01*
X-2414477Y-8530835D01*
X-2289514Y-8647450D01*
X-2255150Y-8672667D01*
X-2243270Y-8594809D01*
X-2234415Y-8388465D01*
X-2230162Y-8094472D01*
X-2230000Y-8020484D01*
X-2230000Y-7368301D01*
X-2568873Y-7699202D01*
X-2907747Y-8030103D01*
X-14199201Y-8030103D01*
X-14487964Y-7089244D01*
X-14750783Y-6187106D01*
X-14965415Y-5388648D01*
X-15137929Y-4666594D01*
X-15274391Y-3993671D01*
X-15380866Y-3342606D01*
X-15463421Y-2686124D01*
X-15525118Y-2033812D01*
X-15559510Y-842376D01*
X-15471877Y337028D01*
X-15266632Y1452136D01*
X-15213546Y1656667D01*
X-15092704Y2110709D01*
X-15019083Y2426905D01*
X-14991078Y2629549D01*
X-15007085Y2742936D01*
X-15065497Y2791361D01*
X-15138015Y2799667D01*
X-15235182Y2766511D01*
X-15323854Y2647457D01*
X-15420912Y2413131D01*
X-15502918Y2164667D01*
X-15716815Y1352340D01*
X-15854791Y503932D01*
X-15921342Y-420337D01*
X-20684655Y-420337D01*
X-20658063Y32365D01*
X-20624031Y523369D01*
X-20587990Y912704D01*
X-20545165Y1234115D01*
X-20490784Y1521350D01*
X-20420072Y1808157D01*
X-20328256Y2128284D01*
X-20293392Y2244085D01*
X-19908330Y3433585D01*
X-19502353Y4518682D01*
X-19050781Y5564263D01*
X-19043199Y5580504D01*
X-9243842Y5580504D01*
X-9220365Y5327360D01*
X-9167527Y4946681D01*
X-9088941Y4457364D01*
X-8988223Y3878310D01*
X-8868986Y3228415D01*
X-8734847Y2526579D01*
X-8589419Y1791701D01*
X-8436317Y1042678D01*
X-8279155Y298410D01*
X-8121550Y-422206D01*
X-7967114Y-1100270D01*
X-7819463Y-1716884D01*
X-7813768Y-1739929D01*
X-7632359Y-2460171D01*
X-7445493Y-3178873D01*
X-7258535Y-3877377D01*
X-7076850Y-4537025D01*
X-6905805Y-5139159D01*
X-6750766Y-5665122D01*
X-6617097Y-6096256D01*
X-6510166Y-6413903D01*
X-6435336Y-6599404D01*
X-6404385Y-6640667D01*
X-6323255Y-6590845D01*
X-6137542Y-6454981D01*
X-5874359Y-6253476D01*
X-5560819Y-6006733D01*
X-5541676Y-5991477D01*
X-5337601Y-5826972D01*
X-3410611Y-5826972D01*
X-3405258Y-6131566D01*
X-3396766Y-6279480D01*
X-3357702Y-6650428D01*
X-3293366Y-7002696D01*
X-3217330Y-7262779D01*
X-3213517Y-7271923D01*
X-3070747Y-7606846D01*
X-2509174Y-7045273D01*
X-1947601Y-6483699D01*
X-2226392Y-6166174D01*
X-2564625Y-5674588D01*
X-2767901Y-5110673D01*
X-2814544Y-4862667D01*
X-2855584Y-4585977D01*
X-2399333Y-4585977D01*
X-2371009Y-4897846D01*
X-2296691Y-5208901D01*
X-2192361Y-5479807D01*
X-2074004Y-5671228D01*
X-1957601Y-5743829D01*
X-1930889Y-5738885D01*
X-1851698Y-5634856D01*
X-1784076Y-5422375D01*
X-1762538Y-5299667D01*
X-1700326Y-4873968D01*
X-1684469Y-4779341D01*
X4839667Y-4779341D01*
X5093667Y-4987292D01*
X5260128Y-5120598D01*
X5358492Y-5193731D01*
X5367113Y-5198288D01*
X5413210Y-5132298D01*
X5507848Y-4961557D01*
X5563576Y-4854351D01*
X5687529Y-4641089D01*
X5792801Y-4554752D01*
X5919325Y-4563401D01*
X5925130Y-4565189D01*
X6466217Y-4704147D01*
X6901949Y-4739725D01*
X7263998Y-4668027D01*
X7584038Y-4485153D01*
X7748520Y-4340781D01*
X8108573Y-3894233D01*
X8259633Y-3619567D01*
X9041782Y-3619567D01*
X9052265Y-4135928D01*
X9104073Y-4601309D01*
X9195562Y-4966336D01*
X9231937Y-5051832D01*
X9498743Y-5415629D01*
X9868532Y-5668641D01*
X10309499Y-5802578D01*
X10789837Y-5809148D01*
X11277739Y-5680063D01*
X11409529Y-5619417D01*
X11730644Y-5397439D01*
X12079120Y-5058067D01*
X12420229Y-4641445D01*
X12719247Y-4187720D01*
X12837734Y-3968326D01*
X13000577Y-3654534D01*
X13156379Y-3376493D01*
X13273709Y-3190071D01*
X13281768Y-3179082D01*
X13378655Y-2966373D01*
X13426894Y-2691945D01*
X13423535Y-2420841D01*
X13365623Y-2218106D01*
X13327500Y-2171523D01*
X13108861Y-2066278D01*
X12768113Y-1986881D01*
X12350865Y-1935855D01*
X11902727Y-1915721D01*
X11469309Y-1929001D01*
X11096221Y-1978219D01*
X10891794Y-2036828D01*
X10588133Y-2227789D01*
X10385780Y-2494578D01*
X10301008Y-2796844D01*
X10350090Y-3094238D01*
X10417702Y-3212357D01*
X10486232Y-3289236D01*
X10576498Y-3327769D01*
X10727908Y-3330264D01*
X10979870Y-3299032D01*
X11227936Y-3259840D01*
X11638320Y-3204103D01*
X11900106Y-3201006D01*
X12027944Y-3258206D01*
X12036483Y-3383361D01*
X11940376Y-3584126D01*
X11918220Y-3620620D01*
X11742651Y-3856804D01*
X11508029Y-4115266D01*
X11399241Y-4219485D01*
X11162671Y-4409081D01*
X10954708Y-4499638D01*
X10697670Y-4523933D01*
X10677574Y-4524000D01*
X10303129Y-4460332D01*
X10037981Y-4278156D01*
X9896838Y-3990711D01*
X9877334Y-3803729D01*
X9939258Y-3189558D01*
X10112380Y-2511698D01*
X10377727Y-1814756D01*
X10716322Y-1143342D01*
X11109191Y-542065D01*
X11423530Y-168681D01*
X11744016Y142064D01*
X11991356Y329975D01*
X12142944Y386667D01*
X12317905Y321240D01*
X12550689Y142581D01*
X12689594Y5667D01*
X12895963Y-195587D01*
X13070030Y-333669D01*
X13159913Y-375333D01*
X13290173Y-318209D01*
X13460351Y-183068D01*
X13611922Y-24253D01*
X13686363Y103890D01*
X13687334Y114429D01*
X13609156Y157048D01*
X13392538Y228648D01*
X13064354Y321528D01*
X12651476Y427989D01*
X12285700Y516023D01*
X10884066Y843492D01*
X10682613Y593913D01*
X10283465Y25114D01*
X9900229Y-657372D01*
X9559175Y-1398214D01*
X9286570Y-2142083D01*
X9151366Y-2631409D01*
X9074268Y-3101602D01*
X9041782Y-3619567D01*
X8259633Y-3619567D01*
X8428079Y-3313292D01*
X8697233Y-2630084D01*
X8906227Y-1876738D01*
X9045257Y-1085379D01*
X9104515Y-288135D01*
X9101568Y92020D01*
X9076926Y570057D01*
X9028467Y910340D01*
X8932488Y1144449D01*
X8765287Y1303964D01*
X8503161Y1420464D01*
X8122406Y1525531D01*
X8004150Y1554131D01*
X7645372Y1636476D01*
X7338531Y1700507D01*
X7127865Y1737298D01*
X7069668Y1742697D01*
X6952239Y1682745D01*
X6758528Y1523733D01*
X6522703Y1294951D01*
X6419713Y1185535D01*
X5948426Y577362D01*
X5538430Y-133197D01*
X5223729Y-881411D01*
X5088300Y-1349000D01*
X5012324Y-1811649D01*
X4980504Y-2318675D01*
X4991302Y-2820467D01*
X5043180Y-3267418D01*
X5134601Y-3609917D01*
X5160149Y-3666886D01*
X5237246Y-3837600D01*
X5253107Y-3970357D01*
X5199893Y-4126881D01*
X5071359Y-4366057D01*
X4839667Y-4779341D01*
X-1684469Y-4779341D01*
X-1624751Y-4422985D01*
X-1544055Y-3989869D01*
X-1466478Y-3617770D01*
X-1400259Y-3349838D01*
X-1375296Y-3271877D01*
X-1358722Y-3187386D01*
X-1414891Y-3198786D01*
X-1557168Y-3315146D01*
X-1798915Y-3545536D01*
X-1844309Y-3590221D01*
X-2105497Y-3852125D01*
X-2268406Y-4037638D01*
X-2356221Y-4188352D01*
X-2392124Y-4345861D01*
X-2399301Y-4551758D01*
X-2399333Y-4585977D01*
X-2855584Y-4585977D01*
X-2871056Y-4481667D01*
X-3154151Y-5051814D01*
X-3299116Y-5358233D01*
X-3379916Y-5592906D01*
X-3410611Y-5826972D01*
X-5337601Y-5826972D01*
X-5159472Y-5683383D01*
X-4763479Y-5358708D01*
X-4407003Y-5061422D01*
X-4196117Y-4881558D01*
X-3876495Y-4623815D01*
X-3649467Y-4487621D01*
X-3499875Y-4463901D01*
X-3499077Y-4464107D01*
X-3385097Y-4456338D01*
X-3266373Y-4352165D01*
X-3115503Y-4125013D01*
X-3071691Y-4049637D01*
X-2855138Y-3694813D01*
X-2684807Y-3477333D01*
X-2541906Y-3378187D01*
X-2408123Y-3378210D01*
X-2249612Y-3342085D01*
X-2018018Y-3160186D01*
X-1921558Y-3063584D01*
X-1767076Y-2892829D01*
X733334Y-2892829D01*
X779331Y-3184314D01*
X896329Y-3463179D01*
X1052840Y-3660673D01*
X1099360Y-3691976D01*
X1350738Y-3776007D01*
X1719614Y-3836153D01*
X2166282Y-3872517D01*
X2651037Y-3885203D01*
X3134172Y-3874316D01*
X3575982Y-3839959D01*
X3936763Y-3782238D01*
X4176807Y-3701255D01*
X4204667Y-3683834D01*
X4366316Y-3506297D01*
X4437302Y-3240642D01*
X4442102Y-3187478D01*
X4441950Y-2969587D01*
X4387759Y-2822016D01*
X4256127Y-2736098D01*
X4023648Y-2703167D01*
X3666921Y-2714555D01*
X3263600Y-2751058D01*
X2858984Y-2784091D01*
X2482023Y-2799961D01*
X2187104Y-2797063D01*
X2075032Y-2786142D01*
X1755093Y-2732089D01*
X2313691Y-1617211D01*
X2565656Y-1127277D01*
X2845549Y-603974D01*
X3120271Y-108060D01*
X3356724Y299704D01*
X3369144Y320326D01*
X3567527Y656115D01*
X3728261Y942111D01*
X3833490Y1145608D01*
X3866000Y1230493D01*
X3800997Y1308361D01*
X3624501Y1294566D01*
X3364281Y1193780D01*
X3231724Y1123820D01*
X3012780Y959573D01*
X2764286Y691325D01*
X2468536Y298889D01*
X2323177Y88046D01*
X2069809Y-303582D01*
X1802373Y-745509D01*
X1535707Y-1209910D01*
X1284653Y-1668960D01*
X1064052Y-2094835D01*
X888742Y-2459709D01*
X773565Y-2735758D01*
X733334Y-2892829D01*
X-1767076Y-2892829D01*
X-1624991Y-2735779D01*
X-1437172Y-2475548D01*
X-1336186Y-2242756D01*
X-1300118Y-1997269D01*
X-1298666Y-1922828D01*
X-1319707Y-1665644D01*
X-1385479Y-1569135D01*
X-1499961Y-1629616D01*
X-1552666Y-1687667D01*
X-1747986Y-1802443D01*
X-2018802Y-1815066D01*
X-2310738Y-1732042D01*
X-2562004Y-1566890D01*
X-2799552Y-1392155D01*
X-3051295Y-1273654D01*
X-3100124Y-1260540D01*
X-3430457Y-1162436D01*
X-3642495Y-1017909D01*
X-3787015Y-789922D01*
X-3806349Y-745421D01*
X-3875166Y-491910D01*
X-3860030Y-218577D01*
X-3755770Y126898D01*
X-3708138Y248019D01*
X-3684027Y353990D01*
X-3761906Y375554D01*
X-3889455Y353000D01*
X-4187393Y365817D01*
X-4462771Y504769D01*
X-4659113Y733613D01*
X-4712233Y880999D01*
X-4713578Y1282073D01*
X-4581162Y1717052D01*
X-4332243Y2143248D01*
X-4089208Y2422036D01*
X-3676239Y2824280D01*
X-3965732Y2858077D01*
X-4146083Y2862080D01*
X-4290196Y2803923D01*
X-4450540Y2653997D01*
X-4567231Y2518614D01*
X-4827042Y2250254D01*
X-5130594Y1994783D01*
X-5267817Y1898925D01*
X-5779622Y1634134D01*
X-6242436Y1527276D01*
X-6671516Y1579609D01*
X-7082117Y1792396D01*
X-7404058Y2075392D01*
X-7645153Y2366305D01*
X-7848462Y2688450D01*
X-7993089Y2999425D01*
X-8002636Y3037204D01*
X-7550064Y3037204D01*
X-7499225Y2913301D01*
X-7357963Y2681585D01*
X-7357929Y2681531D01*
X-7032113Y2276921D01*
X-6664934Y2022149D01*
X-6454831Y1951133D01*
X-6138708Y1959752D01*
X-5778479Y2092091D01*
X-5407967Y2321531D01*
X-5060994Y2621458D01*
X-4771385Y2965253D01*
X-4572961Y3326299D01*
X-4527050Y3468193D01*
X-4421555Y3740453D01*
X-4294260Y3883381D01*
X-4174931Y3894972D01*
X-4093337Y3773223D01*
X-4079246Y3516129D01*
X-4081000Y3498218D01*
X-4074657Y3327985D01*
X-3979828Y3268484D01*
X-3908548Y3264329D01*
X-3688218Y3239633D01*
X-3400216Y3178016D01*
X-3102591Y3095621D01*
X-2853390Y3008592D01*
X-2710660Y2933073D01*
X-2707870Y2930404D01*
X-2679862Y2810069D01*
X-2818791Y2673886D01*
X-3123129Y2523123D01*
X-3263221Y2469058D01*
X-3685381Y2234525D01*
X-4024355Y1889401D01*
X-4240551Y1475673D01*
X-4259259Y1412845D01*
X-4317137Y1076400D01*
X-4273883Y866073D01*
X-4126942Y781663D01*
X-3873759Y822969D01*
X-3511781Y989791D01*
X-3038454Y1281928D01*
X-2992000Y1313212D01*
X-2740364Y1460264D01*
X-2513814Y1553890D01*
X-2417843Y1571638D01*
X-2261321Y1523840D01*
X-2165280Y1415928D01*
X-2160709Y1302118D01*
X-2232122Y1246737D01*
X-2428522Y1128511D01*
X-2673852Y908416D01*
X-2929212Y629355D01*
X-3155700Y334233D01*
X-3314417Y65954D01*
X-3325843Y40448D01*
X-3443776Y-318149D01*
X-3438506Y-574297D01*
X-3307404Y-744438D01*
X-3190910Y-803517D01*
X-2987108Y-868366D01*
X-2872382Y-841882D01*
X-2795386Y-695294D01*
X-2751853Y-557517D01*
X-2629982Y-272102D01*
X-2463192Y-31220D01*
X-2284144Y128480D01*
X-2125498Y170354D01*
X-2107799Y165126D01*
X-1995994Y85583D01*
X-2002880Y-43449D01*
X-2131165Y-253568D01*
X-2145351Y-272928D01*
X-2293644Y-527753D01*
X-2394758Y-782093D01*
X-2432937Y-999073D01*
X-2376928Y-1150558D01*
X-2304867Y-1231799D01*
X-2116047Y-1349700D01*
X-1949627Y-1375373D01*
X-1819902Y-1319186D01*
X-1748760Y-1167976D01*
X-1722000Y-1010333D01*
X-1672573Y-779216D01*
X-1582017Y-670838D01*
X-1493595Y-645192D01*
X-1347795Y-667780D01*
X-1220501Y-804745D01*
X-1144094Y-941525D01*
X-1022654Y-1219433D01*
X-932860Y-1490562D01*
X-922628Y-1533324D01*
X-891820Y-1657858D01*
X-855940Y-1701706D01*
X-796775Y-1647747D01*
X-696115Y-1478860D01*
X-535748Y-1177922D01*
X-527053Y-1161412D01*
X-332385Y-806065D01*
X-127993Y-455700D01*
X46319Y-178219D01*
X68056Y-146144D01*
X222271Y114090D01*
X276310Y336902D01*
X226631Y571137D01*
X69692Y865642D01*
X-14878Y997548D01*
X-136678Y1197128D01*
X-317475Y1511608D01*
X-537601Y1905936D01*
X-777391Y2345060D01*
X-919847Y2610438D01*
X-1168354Y3072863D01*
X-1355577Y3407480D01*
X-1497975Y3636916D01*
X-1569396Y3728908D01*
X-1024391Y3728908D01*
X-994543Y3651370D01*
X-889682Y3442621D01*
X-718427Y3118687D01*
X-489396Y2695598D01*
X-211207Y2189381D01*
X107520Y1616064D01*
X214951Y1424110D01*
X389058Y1122426D01*
X534882Y886243D01*
X631845Y748064D01*
X657136Y725610D01*
X732683Y784912D01*
X887658Y942476D01*
X1092023Y1167372D01*
X1146513Y1229573D01*
X1421890Y1522659D01*
X1768847Y1859000D01*
X2124761Y2178593D01*
X2226705Y2264541D01*
X2868324Y2795269D01*
X932995Y3268989D01*
X387089Y3401833D01*
X-101046Y3519127D01*
X-508384Y3615461D01*
X-811903Y3685424D01*
X-988575Y3723608D01*
X-1024391Y3728908D01*
X-1569396Y3728908D01*
X-1612008Y3783793D01*
X-1714134Y3870737D01*
X-1820814Y3920372D01*
X-1887007Y3939864D01*
X-2596025Y4120098D01*
X-3244087Y4271537D01*
X-3810110Y4390017D01*
X-4273014Y4471376D01*
X-4611714Y4511450D01*
X-4779116Y4510982D01*
X-5123531Y4393697D01*
X-5458057Y4164796D01*
X-5740993Y3957083D01*
X-6051644Y3778446D01*
X-6179745Y3721633D01*
X-6397610Y3624492D01*
X-6529736Y3538700D01*
X-6548000Y3509552D01*
X-6619166Y3425067D01*
X-6795833Y3314440D01*
X-7022754Y3204763D01*
X-7244684Y3123128D01*
X-7391294Y3096000D01*
X-7513185Y3086902D01*
X-7550064Y3037204D01*
X-8002636Y3037204D01*
X-8058141Y3256825D01*
X-8046458Y3379106D01*
X-7979864Y3449817D01*
X-7817480Y3541940D01*
X-7543759Y3662162D01*
X-7143154Y3817174D01*
X-6600119Y4013664D01*
X-6441483Y4069630D01*
X-6258352Y4152746D01*
X-6031235Y4281210D01*
X-5794532Y4431481D01*
X-5582645Y4580017D01*
X-5429972Y4703277D01*
X-5370916Y4777720D01*
X-5389788Y4789333D01*
X-5480807Y4808935D01*
X-5712405Y4863895D01*
X-6060899Y4948447D01*
X-6502603Y5056822D01*
X-7013835Y5183255D01*
X-7314020Y5257890D01*
X-7852672Y5390015D01*
X-8334548Y5504304D01*
X-8736066Y5595487D01*
X-9033644Y5658290D01*
X-9203702Y5687442D01*
X-9234342Y5687214D01*
X-9243842Y5580504D01*
X-19043199Y5580504D01*
X-18941783Y5797721D01*
X-18771782Y6165214D01*
X-18636110Y6474058D01*
X-18547435Y6694223D01*
X-18518429Y6795677D01*
X-18519571Y6798461D01*
X-18608199Y6784188D01*
X-18793455Y6708481D01*
X-18904749Y6654339D01*
X-19084708Y6582210D01*
X-19400967Y6476110D01*
X-19825883Y6344448D01*
X-20331811Y6195635D01*
X-20891108Y6038082D01*
X-21262453Y5937040D01*
X-21863856Y5775084D01*
X-22450932Y5615864D01*
X-22990812Y5468380D01*
X-23450624Y5341632D01*
X-23797499Y5244617D01*
X-23926655Y5207652D01*
X-24234526Y5123111D01*
X-24472920Y5066906D01*
X-24601510Y5048235D01*
X-24612552Y5051211D01*
X-24665989Y5135330D01*
X-24782807Y5328915D01*
X-24940923Y5595250D01*
X-24995875Y5688552D01*
X-25350289Y6291436D01*
X-25282839Y6463508D01*
X-23439000Y6463508D01*
X-23142666Y6525944D01*
X-22976375Y6566908D01*
X-22675188Y6646967D01*
X-22266964Y6758477D01*
X-21779564Y6893797D01*
X-21240846Y7045282D01*
X-20983666Y7118235D01*
X-20396369Y7286313D01*
X-19816006Y7454239D01*
X-19278780Y7611402D01*
X-18820891Y7747192D01*
X-18478541Y7851000D01*
X-18401333Y7875090D01*
X-17681666Y8102089D01*
X-17300666Y8667767D01*
X-16930492Y9188113D01*
X-16475848Y9781468D01*
X-15973420Y10402538D01*
X-15459893Y11006029D01*
X-14971952Y11546649D01*
X-14950045Y11569984D01*
X-14297284Y12263873D01*
X-14667191Y12075161D01*
X-15385516Y11692590D01*
X-16210275Y11225860D01*
X-17112925Y10693068D01*
X-18064925Y10112308D01*
X-19037735Y9501677D01*
X-20002814Y8879269D01*
X-20931620Y8263180D01*
X-21795613Y7671507D01*
X-22566251Y7122344D01*
X-23058000Y6755227D01*
X-23439000Y6463508D01*
X-25282839Y6463508D01*
X-24579482Y8257839D01*
X-23808675Y10224241D01*
X-22431150Y12311621D01*
X-21679212Y13451043D01*
X-9971041Y13451043D01*
X-9959510Y13063658D01*
X-9936020Y12562837D01*
X-9900232Y11931039D01*
X-9851814Y11150727D01*
X-9842962Y11012333D01*
X-9807899Y10525831D01*
X-9760637Y9956430D01*
X-9704496Y9336718D01*
X-9642795Y8699283D01*
X-9578854Y8076714D01*
X-9515994Y7501599D01*
X-9457533Y7006524D01*
X-9406792Y6624080D01*
X-9376769Y6436024D01*
X-9354951Y6338836D01*
X-9313950Y6263230D01*
X-9229252Y6198876D01*
X-9076343Y6135445D01*
X-8830708Y6062605D01*
X-8467832Y5970028D01*
X-8002240Y5856822D01*
X-7542215Y5745360D01*
X-7133174Y5645802D01*
X-6806592Y5565844D01*
X-6593946Y5513181D01*
X-6533618Y5497746D01*
X-6458819Y5491450D01*
X-6443386Y5551068D01*
X-6489369Y5710259D01*
X-6493152Y5720489D01*
X-6031579Y5720489D01*
X-6008632Y5647558D01*
X-5946743Y5549742D01*
X-5865763Y5460764D01*
X-5732323Y5379149D01*
X-5520085Y5294946D01*
X-5202714Y5198205D01*
X-4753872Y5078978D01*
X-4592077Y5037949D01*
X-4163245Y4931819D01*
X-3796607Y4844584D01*
X-3521515Y4782954D01*
X-3367319Y4753636D01*
X-3344973Y4752915D01*
X-3357125Y4834004D01*
X-3406070Y4941359D01*
X-3484260Y5021301D01*
X-3645951Y5102071D01*
X-3913771Y5191627D01*
X-4310349Y5297929D01*
X-4661763Y5383051D01*
X-5092457Y5485882D01*
X-5470218Y5578393D01*
X-5761278Y5652142D01*
X-5931863Y5698689D01*
X-5955333Y5706399D01*
X-6031579Y5720489D01*
X-6493152Y5720489D01*
X-6557821Y5895347D01*
X-6772637Y6605199D01*
X-6358158Y6605199D01*
X-6317002Y6424458D01*
X-6274462Y6325203D01*
X-6203947Y6247031D01*
X-6077381Y6177832D01*
X-5866691Y6105495D01*
X-5543802Y6017911D01*
X-5144016Y5918476D01*
X-4631072Y5794015D01*
X-4260917Y5709377D01*
X-4012121Y5663096D01*
X-3863251Y5653705D01*
X-3792874Y5679737D01*
X-3779559Y5739725D01*
X-3800144Y5826500D01*
X-3866946Y6000749D01*
X-3911683Y6076221D01*
X-4013823Y6123616D01*
X-4240885Y6198533D01*
X-4557345Y6291690D01*
X-4927678Y6393806D01*
X-5316361Y6495599D01*
X-5687871Y6587786D01*
X-6006684Y6661085D01*
X-6237277Y6706215D01*
X-6344125Y6713894D01*
X-6346482Y6712407D01*
X-6358158Y6605199D01*
X-6772637Y6605199D01*
X-6796779Y6684973D01*
X-6947868Y7574064D01*
X-6961631Y7780322D01*
X-6550245Y7780322D01*
X-6548000Y7678702D01*
X-6523569Y7446622D01*
X-6462838Y7290752D01*
X-6442166Y7270830D01*
X-6292918Y7204123D01*
X-6034899Y7117631D01*
X-5702777Y7020048D01*
X-5331221Y6920067D01*
X-4954900Y6826380D01*
X-4608483Y6747681D01*
X-4326637Y6692663D01*
X-4144032Y6670019D01*
X-4092666Y6681699D01*
X-4117612Y6773670D01*
X-4178172Y6956631D01*
X-4183280Y6971333D01*
X-4236069Y7087862D01*
X-4321651Y7183286D01*
X-4469674Y7274595D01*
X-4709790Y7378781D01*
X-5071646Y7512832D01*
X-5220447Y7565678D01*
X-5712194Y7740254D01*
X-6065723Y7863656D01*
X-6303610Y7937806D01*
X-6448430Y7964625D01*
X-6522759Y7946037D01*
X-6549172Y7883962D01*
X-6550245Y7780322D01*
X-6961631Y7780322D01*
X-7015267Y8584119D01*
X-7028970Y9126594D01*
X-6621697Y9126594D01*
X-6615924Y8918746D01*
X-6590333Y8476159D01*
X-5574333Y8119234D01*
X-5185516Y7983946D01*
X-4855021Y7871405D01*
X-4615327Y7792497D01*
X-4498910Y7758102D01*
X-4494833Y7757488D01*
X-4452013Y7828024D01*
X-4432722Y8006357D01*
X-4432630Y8027833D01*
X-4452498Y8251424D01*
X-4498503Y8404602D01*
X-4498912Y8405250D01*
X-4597357Y8477324D01*
X-4814475Y8597897D01*
X-5113001Y8749462D01*
X-5455670Y8914511D01*
X-5805215Y9075536D01*
X-6124372Y9215032D01*
X-6375874Y9315489D01*
X-6522456Y9359402D01*
X-6531258Y9360041D01*
X-6597736Y9306161D01*
X-6621697Y9126594D01*
X-7028970Y9126594D01*
X-7041618Y9627238D01*
X-7408642Y9864759D01*
X-7708774Y10083696D01*
X-7993014Y10333738D01*
X-8233451Y10584792D01*
X-8402175Y10806763D01*
X-8471276Y10969555D01*
X-8467124Y11006056D01*
X-8358150Y11126122D01*
X-8194496Y11098560D01*
X-7996207Y10927692D01*
X-7972303Y10899311D01*
X-7758465Y10668640D01*
X-7496427Y10449178D01*
X-7162741Y10226324D01*
X-6733956Y9985475D01*
X-6186623Y9712028D01*
X-5698079Y9483135D01*
X-5244675Y9271859D01*
X-4841446Y9078554D01*
X-4515124Y8916473D01*
X-4292445Y8798862D01*
X-4202834Y8742077D01*
X-4139457Y8612084D01*
X-4069829Y8366525D01*
X-4008745Y8057855D01*
X-4007331Y8049000D01*
X-3883571Y7467245D01*
X-3689173Y6797236D01*
X-3442488Y6094782D01*
X-3161869Y5415693D01*
X-3089745Y5258627D01*
X-2773365Y4584921D01*
X5986151Y2453551D01*
X7405384Y2108288D01*
X8668937Y1801075D01*
X9785639Y1529826D01*
X10764317Y1292455D01*
X11613799Y1086874D01*
X12342913Y910997D01*
X12960487Y762737D01*
X13475350Y640007D01*
X13896328Y540720D01*
X14232251Y462789D01*
X14491945Y404128D01*
X14684240Y362650D01*
X14817962Y336267D01*
X14901940Y322894D01*
X14945001Y320443D01*
X14955975Y326828D01*
X14950278Y334547D01*
X14881550Y392303D01*
X14691885Y550868D01*
X14390415Y802624D01*
X13986270Y1139955D01*
X13488580Y1555242D01*
X12906478Y2040868D01*
X12249093Y2589216D01*
X11630674Y3104998D01*
X12284504Y3104998D01*
X12395196Y3004730D01*
X12450035Y2967525D01*
X12675075Y2880216D01*
X13029648Y2812305D01*
X13474908Y2765223D01*
X13972012Y2740404D01*
X14482114Y2739277D01*
X14966370Y2763276D01*
X15385934Y2813832D01*
X15571167Y2852485D01*
X15785748Y2936847D01*
X15886270Y3039750D01*
X15888667Y3056930D01*
X15873359Y3146694D01*
X15801004Y3173543D01*
X15631957Y3140877D01*
X15464775Y3093283D01*
X15204983Y3047604D01*
X14823041Y3018824D01*
X14365278Y3006892D01*
X13878025Y3011754D01*
X13407614Y3033359D01*
X13000377Y3071655D01*
X12839344Y3096240D01*
X12500166Y3148633D01*
X12317356Y3152259D01*
X12284504Y3104998D01*
X11630674Y3104998D01*
X11525557Y3192669D01*
X10745000Y3843608D01*
X9916553Y4534418D01*
X9049347Y5257479D01*
X8908528Y5374886D01*
X7875105Y6235978D01*
X6963793Y6994072D01*
X6167097Y7655150D01*
X5477522Y8225192D01*
X4887576Y8710181D01*
X4389764Y9116097D01*
X3976592Y9448922D01*
X3640566Y9714636D01*
X3374191Y9919223D01*
X3169974Y10068662D01*
X3020420Y10168935D01*
X2918036Y10226023D01*
X2855326Y10245908D01*
X2824798Y10234571D01*
X2823169Y10231839D01*
X2620890Y9988706D01*
X2327790Y9879894D01*
X2177651Y9871119D01*
X1849446Y9916309D01*
X1423059Y10038084D01*
X942097Y10220460D01*
X450168Y10447451D01*
X122175Y10624602D01*
X-464844Y10964461D01*
X-258386Y10607397D01*
X-9307Y10107546D01*
X179315Y9590494D01*
X289288Y9112285D01*
X310000Y8856303D01*
X293398Y8581076D01*
X226867Y8406462D01*
X89744Y8269037D01*
X-286173Y8078621D01*
X-747292Y8022886D01*
X-1282972Y8096916D01*
X-1882574Y8295794D01*
X-2535457Y8614601D01*
X-3230980Y9048419D01*
X-3958504Y9592333D01*
X-4707388Y10241422D01*
X-5194404Y10711205D01*
X-5582056Y11112508D01*
X-5963992Y11529718D01*
X-6307836Y11925944D01*
X-6581210Y12264295D01*
X-6698494Y12424989D01*
X-6902734Y12742318D01*
X-7116910Y13105991D01*
X-7325659Y13485760D01*
X-7491954Y13809241D01*
X-6869648Y13809241D01*
X-6842710Y13723512D01*
X-6724043Y13530749D01*
X-6531128Y13253328D01*
X-6281447Y12913624D01*
X-5992483Y12534012D01*
X-5681716Y12136869D01*
X-5366629Y11744569D01*
X-5064703Y11379489D01*
X-4793420Y11064003D01*
X-4570261Y10820487D01*
X-4427476Y10683413D01*
X-4219023Y10522401D01*
X-4080184Y10478489D01*
X-3958110Y10551828D01*
X-3844812Y10685085D01*
X-3682123Y11023180D01*
X-3670337Y11421728D01*
X-3808092Y11867096D01*
X-3996880Y12205707D01*
X-4276466Y12607497D01*
X-4535009Y12904741D01*
X-4814235Y13127383D01*
X-5155872Y13305369D01*
X-5601645Y13468645D01*
X-5875243Y13553709D01*
X-6251883Y13663480D01*
X-6565096Y13748267D01*
X-6782015Y13799624D01*
X-6869648Y13809241D01*
X-7491954Y13809241D01*
X-7513616Y13851377D01*
X-7665416Y14172594D01*
X-7765693Y14419163D01*
X-7799085Y14560838D01*
X-7792843Y14579379D01*
X-7700805Y14572458D01*
X-7468249Y14527046D01*
X-7118224Y14448457D01*
X-6673781Y14342005D01*
X-6157971Y14213002D01*
X-5774520Y14114147D01*
X-5224463Y13971934D01*
X-4731504Y13846911D01*
X-4318366Y13744640D01*
X-4007772Y13670686D01*
X-3822445Y13630613D01*
X-3779474Y13625638D01*
X-3827418Y13688799D01*
X-3976888Y13839064D01*
X-4202407Y14051532D01*
X-4389088Y14221432D01*
X-4683303Y14501963D01*
X-4898242Y14739803D01*
X-5011822Y14909426D01*
X-5024000Y14955299D01*
X-4967129Y15087699D01*
X-4826509Y15111570D01*
X-4647128Y15028383D01*
X-4550289Y14939803D01*
X-4414123Y14802715D01*
X-4190737Y14592084D01*
X-3920494Y14345704D01*
X-3818269Y14254432D01*
X-3247538Y13747925D01*
X-3466788Y14327462D01*
X-3692130Y14928582D01*
X-3699118Y14947800D01*
X-3174984Y14947800D01*
X-3174205Y14874167D01*
X-3126950Y14674649D01*
X-3042064Y14383400D01*
X-2972579Y14166167D01*
X-2847651Y13799920D01*
X-2748968Y13559325D01*
X-2653952Y13407893D01*
X-2540025Y13309133D01*
X-2393918Y13230961D01*
X-2190751Y13098877D01*
X-1924459Y12877377D01*
X-1641414Y12606216D01*
X-1537990Y12497205D01*
X-1296898Y12245972D01*
X-1093717Y12053734D01*
X-957774Y11947305D01*
X-922958Y11934870D01*
X-840405Y12021286D01*
X-769834Y12175499D01*
X-742086Y12504464D01*
X-840077Y12890980D01*
X-1046482Y13302009D01*
X-1343978Y13704510D01*
X-1715238Y14065445D01*
X-1793081Y14126898D01*
X-2042948Y14304688D01*
X-2339278Y14497449D01*
X-2642020Y14681387D01*
X-2911120Y14832710D01*
X-3106526Y14927626D01*
X-3174984Y14947800D01*
X-3699118Y14947800D01*
X-3859351Y15388407D01*
X-3973636Y15722698D01*
X-4040170Y15947215D01*
X-4064140Y16077718D01*
X-4057552Y16122986D01*
X-4089591Y16208963D01*
X-4214672Y16301327D01*
X-4317046Y16340203D01*
X-4446202Y16346653D01*
X-4632897Y16314742D01*
X-4907892Y16238534D01*
X-5301947Y16112095D01*
X-5448951Y16063155D01*
X-6338762Y15760253D01*
X-7067111Y15500788D01*
X-7635991Y15283954D01*
X-8047392Y15108947D01*
X-8303305Y14974963D01*
X-8405721Y14881200D01*
X-8408005Y14868332D01*
X-8393037Y14735142D01*
X-8354553Y14475263D01*
X-8298726Y14128715D01*
X-8244651Y13809740D01*
X-8183508Y13430678D01*
X-8140814Y13113675D01*
X-8120965Y12895393D01*
X-8125309Y12814907D01*
X-8243242Y12745304D01*
X-8385938Y12801956D01*
X-8494801Y12958268D01*
X-8542740Y13137197D01*
X-8600801Y13430655D01*
X-8658751Y13785070D01*
X-8676725Y13910768D01*
X-8728436Y14250579D01*
X-8779578Y14525158D01*
X-8821839Y14691986D01*
X-8834899Y14719646D01*
X-8946169Y14741873D01*
X-9108852Y14703501D01*
X-9220188Y14647331D01*
X-9291601Y14556131D01*
X-9337930Y14390461D01*
X-9374015Y14110883D01*
X-9388793Y13959521D01*
X-9409100Y13578375D01*
X-9403418Y13204733D01*
X-9373053Y12917089D01*
X-9371295Y12908242D01*
X-9321917Y12590772D01*
X-9337017Y12406532D01*
X-9420969Y12330442D01*
X-9473076Y12324667D01*
X-9614741Y12385043D01*
X-9715165Y12573773D01*
X-9777366Y12902258D01*
X-9804364Y13381898D01*
X-9806061Y13581988D01*
X-9808163Y13966271D01*
X-9817034Y14200393D01*
X-9835633Y14303483D01*
X-9866919Y14294668D01*
X-9904264Y14216988D01*
X-9937222Y14107963D01*
X-9959561Y13955656D01*
X-9970946Y13742529D01*
X-9971041Y13451043D01*
X-21679212Y13451043D01*
X-21053626Y14399000D01*
X-19833313Y15487864D01*
X-19286344Y15961576D01*
X-18784089Y16368529D01*
X-18542442Y16547758D01*
X-3812722Y16547758D01*
X-3711211Y16426163D01*
X-3545804Y16282866D01*
X-3293072Y16127652D01*
X-2918045Y15967880D01*
X-2514750Y15836772D01*
X-2069410Y15690324D01*
X-1572476Y15496502D01*
X-1118869Y15292823D01*
X-1044666Y15255724D01*
X-626255Y15058902D01*
X-310155Y14946463D01*
X-118546Y14924269D01*
X9521Y14970629D01*
X266977Y15083167D01*
X632086Y15251680D01*
X1083109Y15465961D01*
X1598311Y15715804D01*
X2155952Y15991005D01*
X2195585Y16010740D01*
X2780179Y16304573D01*
X3382644Y16611974D01*
X3984586Y16923116D01*
X4567606Y17228171D01*
X5113309Y17517314D01*
X5603298Y17780716D01*
X6019178Y18008550D01*
X6342551Y18190988D01*
X6555022Y18318204D01*
X6638193Y18380369D01*
X6638021Y18383886D01*
X6550988Y18385415D01*
X6325305Y18377455D01*
X5991309Y18361382D01*
X5579335Y18338571D01*
X5390000Y18327291D01*
X3334762Y18136464D01*
X1212660Y17809024D01*
X-987289Y17343134D01*
X-1976000Y17095577D01*
X-2464914Y16968045D01*
X-2907660Y16853298D01*
X-3273860Y16759150D01*
X-3533135Y16693416D01*
X-3648166Y16665406D01*
X-3789292Y16618480D01*
X-3812722Y16547758D01*
X-18542442Y16547758D01*
X-18350235Y16690317D01*
X-18008465Y16908534D01*
X-17997276Y16914721D01*
X-17381551Y17252715D01*
X-17433091Y18281191D01*
X-17455875Y18670530D01*
X-17486317Y18994036D01*
X-17533073Y19292522D01*
X-17594957Y19563667D01*
X-16293109Y19563667D01*
X-16252664Y19267333D01*
X-16227209Y19063591D01*
X-16189297Y18739099D01*
X-16144405Y18341487D01*
X-16105530Y17987863D01*
X-15998843Y17004726D01*
X-15570255Y17195655D01*
X-15402376Y17271976D01*
X-15099531Y17411273D01*
X-14680226Y17604971D01*
X-14162968Y17844497D01*
X-13566264Y18121275D01*
X-12908622Y18426732D01*
X-12208550Y18752293D01*
X-11844695Y18921652D01*
X-11148260Y19246329D01*
X-10500328Y19549200D01*
X-9916809Y19822766D01*
X-9413616Y20059532D01*
X-9006658Y20252001D01*
X-8711847Y20392677D01*
X-8545093Y20474064D01*
X-8513093Y20491352D01*
X-8546083Y20568186D01*
X-8664433Y20741562D01*
X-8844883Y20978111D01*
X-8902576Y21050139D01*
X-9142541Y21368490D01*
X-9417360Y21766249D01*
X-9680096Y22174557D01*
X-9767520Y22319028D01*
X-10208350Y23063761D01*
X-10981675Y22529452D01*
X-11703841Y22056673D01*
X-12564475Y21538950D01*
X-13542589Y20988330D01*
X-14617196Y20416857D01*
X-15042677Y20198667D01*
X-16293109Y19563667D01*
X-17594957Y19563667D01*
X-17604803Y19606803D01*
X-17710166Y19977695D01*
X-17857819Y20446011D01*
X-17956618Y20749000D01*
X-18146857Y21304305D01*
X-18360228Y21886509D01*
X-18576227Y22442131D01*
X-18774352Y22917687D01*
X-18865422Y23119667D01*
X-19302239Y24051000D01*
X-18760145Y25278688D01*
X-18218052Y26506376D01*
X-17194709Y27183688D01*
X-16826400Y27424402D01*
X-16506957Y27627427D01*
X-16263343Y27776066D01*
X-16122520Y27853622D01*
X-16101012Y27861000D01*
X-16035117Y27821190D01*
X-15910606Y27695804D01*
X-15720140Y27475907D01*
X-15456379Y27152564D01*
X-15111985Y26716839D01*
X-14679619Y26159799D01*
X-14327664Y25702000D01*
X-14036333Y25328566D01*
X-13788239Y25023315D01*
X-13597810Y24802918D01*
X-13479475Y24684049D01*
X-13447663Y24683379D01*
X-13448381Y24686000D01*
X-13500343Y24856860D01*
X-13589082Y25141744D01*
X-13699821Y25493379D01*
X-13765989Y25702000D01*
X-13876001Y26075492D01*
X-13960589Y26415474D01*
X-14008113Y26672324D01*
X-14014232Y26760333D01*
X-14031435Y26989517D01*
X-14083688Y27293920D01*
X-14124566Y27470046D01*
X-14242447Y27925757D01*
X-13337390Y27870649D01*
M02*
