G04 #@! TF.GenerationSoftware,KiCad,Pcbnew,(5.1.2)-1*
G04 #@! TF.CreationDate,2019-07-09T23:08:42-04:00*
G04 #@! TF.ProjectId,SPIvSPI_SAO_Black,53504976-5350-4495-9f53-414f5f426c61,0*
G04 #@! TF.SameCoordinates,PX8b5c450PY5b57ca0*
G04 #@! TF.FileFunction,Soldermask,Top*
G04 #@! TF.FilePolarity,Negative*
%FSLAX46Y46*%
G04 Gerber Fmt 4.6, Leading zero omitted, Abs format (unit mm)*
G04 Created by KiCad (PCBNEW (5.1.2)-1) date 2019-07-09 23:08:42*
%MOMM*%
%LPD*%
G04 APERTURE LIST*
%ADD10C,0.010000*%
%ADD11C,0.100000*%
G04 APERTURE END LIST*
D10*
G36*
X8654261Y18390583D02*
G01*
X8840890Y18298332D01*
X9122318Y18142276D01*
X9474311Y17935642D01*
X9708500Y17793378D01*
X10214714Y17482405D01*
X10798320Y17124239D01*
X11392247Y16760025D01*
X11929421Y16430909D01*
X12004741Y16384795D01*
X12493926Y16077629D01*
X12835058Y15845761D01*
X13027300Y15689806D01*
X13069816Y15610382D01*
X13063074Y15605026D01*
X12926004Y15553550D01*
X12678461Y15477186D01*
X12375500Y15392863D01*
X12092858Y15311113D01*
X11888541Y15238841D01*
X11804322Y15190941D01*
X11804000Y15189088D01*
X11846838Y15091974D01*
X11954034Y14912292D01*
X11999886Y14841821D01*
X12258021Y14444359D01*
X12421951Y14168544D01*
X12498783Y14000341D01*
X12495622Y13925715D01*
X12467072Y13919053D01*
X12362579Y13963488D01*
X12138089Y14083112D01*
X11817742Y14264247D01*
X11425680Y14493214D01*
X10986045Y14756335D01*
X10938601Y14785088D01*
X10507272Y15051539D01*
X10135131Y15290565D01*
X9843055Y15487986D01*
X9651924Y15629624D01*
X9582617Y15701299D01*
X9583934Y15705057D01*
X9694164Y15739672D01*
X9923254Y15770982D01*
X10209587Y15791522D01*
X10774174Y15817000D01*
X9680420Y17072783D01*
X9344117Y17462663D01*
X9049705Y17811161D01*
X8814168Y18097580D01*
X8654488Y18301219D01*
X8587651Y18401380D01*
X8586666Y18405796D01*
X8654261Y18390583D01*
X8654261Y18390583D01*
G37*
X8654261Y18390583D02*
X8840890Y18298332D01*
X9122318Y18142276D01*
X9474311Y17935642D01*
X9708500Y17793378D01*
X10214714Y17482405D01*
X10798320Y17124239D01*
X11392247Y16760025D01*
X11929421Y16430909D01*
X12004741Y16384795D01*
X12493926Y16077629D01*
X12835058Y15845761D01*
X13027300Y15689806D01*
X13069816Y15610382D01*
X13063074Y15605026D01*
X12926004Y15553550D01*
X12678461Y15477186D01*
X12375500Y15392863D01*
X12092858Y15311113D01*
X11888541Y15238841D01*
X11804322Y15190941D01*
X11804000Y15189088D01*
X11846838Y15091974D01*
X11954034Y14912292D01*
X11999886Y14841821D01*
X12258021Y14444359D01*
X12421951Y14168544D01*
X12498783Y14000341D01*
X12495622Y13925715D01*
X12467072Y13919053D01*
X12362579Y13963488D01*
X12138089Y14083112D01*
X11817742Y14264247D01*
X11425680Y14493214D01*
X10986045Y14756335D01*
X10938601Y14785088D01*
X10507272Y15051539D01*
X10135131Y15290565D01*
X9843055Y15487986D01*
X9651924Y15629624D01*
X9582617Y15701299D01*
X9583934Y15705057D01*
X9694164Y15739672D01*
X9923254Y15770982D01*
X10209587Y15791522D01*
X10774174Y15817000D01*
X9680420Y17072783D01*
X9344117Y17462663D01*
X9049705Y17811161D01*
X8814168Y18097580D01*
X8654488Y18301219D01*
X8587651Y18401380D01*
X8586666Y18405796D01*
X8654261Y18390583D01*
G36*
X18658144Y17181181D02*
G01*
X18662000Y17153114D01*
X18608649Y17073441D01*
X18459737Y16886312D01*
X18231974Y16611030D01*
X17942070Y16266904D01*
X17606733Y15873238D01*
X17242676Y15449339D01*
X16866606Y15014512D01*
X16495235Y14588065D01*
X16145271Y14189302D01*
X15833426Y13837530D01*
X15576408Y13552054D01*
X15390928Y13352182D01*
X15293695Y13257218D01*
X15285742Y13252301D01*
X15244534Y13318582D01*
X15197778Y13516728D01*
X15153337Y13809803D01*
X15137733Y13947635D01*
X15063666Y14667669D01*
X14443405Y14197485D01*
X14169014Y13995827D01*
X13948474Y13845661D01*
X13813384Y13767911D01*
X13787405Y13763040D01*
X13815464Y13844467D01*
X13914130Y14051991D01*
X14072107Y14363500D01*
X14278103Y14756880D01*
X14520825Y15210017D01*
X14614348Y15382283D01*
X14901140Y15899158D01*
X15144454Y16318389D01*
X15336164Y16626955D01*
X15468145Y16811832D01*
X15532272Y16859998D01*
X15534503Y16857060D01*
X15572675Y16727277D01*
X15624346Y16476160D01*
X15680295Y16150177D01*
X15698931Y16028667D01*
X15751265Y15695353D01*
X15798418Y15428270D01*
X15832634Y15270192D01*
X15840493Y15247841D01*
X15915748Y15276529D01*
X16104629Y15392836D01*
X16385676Y15582273D01*
X16737431Y15830353D01*
X17138434Y16122587D01*
X17162716Y16140560D01*
X17650622Y16501727D01*
X18019261Y16773254D01*
X18285339Y16966425D01*
X18465560Y17092521D01*
X18576631Y17162824D01*
X18635257Y17188616D01*
X18658144Y17181181D01*
X18658144Y17181181D01*
G37*
X18658144Y17181181D02*
X18662000Y17153114D01*
X18608649Y17073441D01*
X18459737Y16886312D01*
X18231974Y16611030D01*
X17942070Y16266904D01*
X17606733Y15873238D01*
X17242676Y15449339D01*
X16866606Y15014512D01*
X16495235Y14588065D01*
X16145271Y14189302D01*
X15833426Y13837530D01*
X15576408Y13552054D01*
X15390928Y13352182D01*
X15293695Y13257218D01*
X15285742Y13252301D01*
X15244534Y13318582D01*
X15197778Y13516728D01*
X15153337Y13809803D01*
X15137733Y13947635D01*
X15063666Y14667669D01*
X14443405Y14197485D01*
X14169014Y13995827D01*
X13948474Y13845661D01*
X13813384Y13767911D01*
X13787405Y13763040D01*
X13815464Y13844467D01*
X13914130Y14051991D01*
X14072107Y14363500D01*
X14278103Y14756880D01*
X14520825Y15210017D01*
X14614348Y15382283D01*
X14901140Y15899158D01*
X15144454Y16318389D01*
X15336164Y16626955D01*
X15468145Y16811832D01*
X15532272Y16859998D01*
X15534503Y16857060D01*
X15572675Y16727277D01*
X15624346Y16476160D01*
X15680295Y16150177D01*
X15698931Y16028667D01*
X15751265Y15695353D01*
X15798418Y15428270D01*
X15832634Y15270192D01*
X15840493Y15247841D01*
X15915748Y15276529D01*
X16104629Y15392836D01*
X16385676Y15582273D01*
X16737431Y15830353D01*
X17138434Y16122587D01*
X17162716Y16140560D01*
X17650622Y16501727D01*
X18019261Y16773254D01*
X18285339Y16966425D01*
X18465560Y17092521D01*
X18576631Y17162824D01*
X18635257Y17188616D01*
X18658144Y17181181D01*
G36*
X-2905656Y14827585D02*
G01*
X-2624785Y14680574D01*
X-2307911Y14488942D01*
X-1987938Y14272015D01*
X-1697770Y14049121D01*
X-1567308Y13935168D01*
X-1129787Y13459402D01*
X-849326Y12990314D01*
X-730613Y12536239D01*
X-726667Y12440370D01*
X-754065Y12170138D01*
X-823778Y11944055D01*
X-917088Y11813054D01*
X-962479Y11798729D01*
X-1042273Y11862039D01*
X-1190977Y12023966D01*
X-1360219Y12229326D01*
X-1583964Y12481965D01*
X-1851048Y12738674D01*
X-2124762Y12969132D01*
X-2368398Y13143018D01*
X-2545246Y13230009D01*
X-2577336Y13234667D01*
X-2676771Y13302706D01*
X-2786750Y13466421D01*
X-2787297Y13467500D01*
X-2893415Y13707882D01*
X-3004106Y14006530D01*
X-3106058Y14319836D01*
X-3185960Y14604193D01*
X-3230499Y14815996D01*
X-3227778Y14910445D01*
X-3117622Y14910651D01*
X-2905656Y14827585D01*
X-2905656Y14827585D01*
G37*
X-2905656Y14827585D02*
X-2624785Y14680574D01*
X-2307911Y14488942D01*
X-1987938Y14272015D01*
X-1697770Y14049121D01*
X-1567308Y13935168D01*
X-1129787Y13459402D01*
X-849326Y12990314D01*
X-730613Y12536239D01*
X-726667Y12440370D01*
X-754065Y12170138D01*
X-823778Y11944055D01*
X-917088Y11813054D01*
X-962479Y11798729D01*
X-1042273Y11862039D01*
X-1190977Y12023966D01*
X-1360219Y12229326D01*
X-1583964Y12481965D01*
X-1851048Y12738674D01*
X-2124762Y12969132D01*
X-2368398Y13143018D01*
X-2545246Y13230009D01*
X-2577336Y13234667D01*
X-2676771Y13302706D01*
X-2786750Y13466421D01*
X-2787297Y13467500D01*
X-2893415Y13707882D01*
X-3004106Y14006530D01*
X-3106058Y14319836D01*
X-3185960Y14604193D01*
X-3230499Y14815996D01*
X-3227778Y14910445D01*
X-3117622Y14910651D01*
X-2905656Y14827585D01*
G36*
X-6894567Y13849741D02*
G01*
X-6674942Y13796690D01*
X-6356072Y13710088D01*
X-5969237Y13598129D01*
X-5893633Y13575566D01*
X-5458361Y13442941D01*
X-5149084Y13338346D01*
X-4929202Y13242514D01*
X-4762116Y13136178D01*
X-4611228Y13000072D01*
X-4439938Y12814929D01*
X-4432092Y12806173D01*
X-4104866Y12393915D01*
X-3844298Y11972819D01*
X-3671037Y11581770D01*
X-3605727Y11259656D01*
X-3605650Y11249543D01*
X-3653249Y10979863D01*
X-3773930Y10721102D01*
X-3935464Y10524415D01*
X-4105625Y10440957D01*
X-4115248Y10440667D01*
X-4261603Y10498666D01*
X-4472229Y10650193D01*
X-4681583Y10842834D01*
X-4936727Y11118159D01*
X-5231100Y11458373D01*
X-5547843Y11841373D01*
X-5870099Y12245059D01*
X-6181010Y12647327D01*
X-6463718Y13026077D01*
X-6701367Y13359206D01*
X-6877097Y13624614D01*
X-6974052Y13800197D01*
X-6983668Y13861050D01*
X-6894567Y13849741D01*
X-6894567Y13849741D01*
G37*
X-6894567Y13849741D02*
X-6674942Y13796690D01*
X-6356072Y13710088D01*
X-5969237Y13598129D01*
X-5893633Y13575566D01*
X-5458361Y13442941D01*
X-5149084Y13338346D01*
X-4929202Y13242514D01*
X-4762116Y13136178D01*
X-4611228Y13000072D01*
X-4439938Y12814929D01*
X-4432092Y12806173D01*
X-4104866Y12393915D01*
X-3844298Y11972819D01*
X-3671037Y11581770D01*
X-3605727Y11259656D01*
X-3605650Y11249543D01*
X-3653249Y10979863D01*
X-3773930Y10721102D01*
X-3935464Y10524415D01*
X-4105625Y10440957D01*
X-4115248Y10440667D01*
X-4261603Y10498666D01*
X-4472229Y10650193D01*
X-4681583Y10842834D01*
X-4936727Y11118159D01*
X-5231100Y11458373D01*
X-5547843Y11841373D01*
X-5870099Y12245059D01*
X-6181010Y12647327D01*
X-6463718Y13026077D01*
X-6701367Y13359206D01*
X-6877097Y13624614D01*
X-6974052Y13800197D01*
X-6983668Y13861050D01*
X-6894567Y13849741D01*
G36*
X12209731Y13365157D02*
G01*
X12175470Y13287375D01*
X12054629Y13098609D01*
X11863393Y12822463D01*
X11617946Y12482538D01*
X11439922Y12242467D01*
X10629555Y11160334D01*
X11407277Y11118000D01*
X12185000Y11075667D01*
X9645000Y10037275D01*
X8923181Y9742607D01*
X8342823Y9506927D01*
X7888888Y9324550D01*
X7546339Y9189793D01*
X7300139Y9096970D01*
X7135250Y9040398D01*
X7036637Y9014393D01*
X6989260Y9013270D01*
X6978000Y9029141D01*
X7039224Y9090035D01*
X7210223Y9244153D01*
X7471983Y9474775D01*
X7805491Y9765183D01*
X8191733Y10098657D01*
X8301891Y10193307D01*
X9625783Y11329667D01*
X8036333Y11417081D01*
X8502000Y11639850D01*
X8722205Y11745473D01*
X9063134Y11909346D01*
X9492983Y12116168D01*
X9979952Y12350637D01*
X10492239Y12597450D01*
X10568420Y12634167D01*
X11046327Y12861783D01*
X11471196Y13058934D01*
X11820094Y13215406D01*
X12070087Y13320986D01*
X12198241Y13365459D01*
X12209731Y13365157D01*
X12209731Y13365157D01*
G37*
X12209731Y13365157D02*
X12175470Y13287375D01*
X12054629Y13098609D01*
X11863393Y12822463D01*
X11617946Y12482538D01*
X11439922Y12242467D01*
X10629555Y11160334D01*
X11407277Y11118000D01*
X12185000Y11075667D01*
X9645000Y10037275D01*
X8923181Y9742607D01*
X8342823Y9506927D01*
X7888888Y9324550D01*
X7546339Y9189793D01*
X7300139Y9096970D01*
X7135250Y9040398D01*
X7036637Y9014393D01*
X6989260Y9013270D01*
X6978000Y9029141D01*
X7039224Y9090035D01*
X7210223Y9244153D01*
X7471983Y9474775D01*
X7805491Y9765183D01*
X8191733Y10098657D01*
X8301891Y10193307D01*
X9625783Y11329667D01*
X8036333Y11417081D01*
X8502000Y11639850D01*
X8722205Y11745473D01*
X9063134Y11909346D01*
X9492983Y12116168D01*
X9979952Y12350637D01*
X10492239Y12597450D01*
X10568420Y12634167D01*
X11046327Y12861783D01*
X11471196Y13058934D01*
X11820094Y13215406D01*
X12070087Y13320986D01*
X12198241Y13365459D01*
X12209731Y13365157D01*
G36*
X3783515Y1275796D02*
G01*
X3828367Y1201061D01*
X3801429Y1054275D01*
X3696947Y817256D01*
X3509166Y471818D01*
X3296151Y106959D01*
X3094501Y-241744D01*
X2868874Y-646598D01*
X2633692Y-1079967D01*
X2403379Y-1514216D01*
X2192355Y-1921710D01*
X2015043Y-2274816D01*
X1885866Y-2545897D01*
X1819246Y-2707319D01*
X1813333Y-2734284D01*
X1893111Y-2751125D01*
X2113091Y-2761682D01*
X2444238Y-2765447D01*
X2857518Y-2761911D01*
X3101612Y-2756861D01*
X4389892Y-2725000D01*
X4468442Y-2945943D01*
X4507159Y-3277323D01*
X4396719Y-3575477D01*
X4207699Y-3761095D01*
X4074560Y-3827162D01*
X3890763Y-3872484D01*
X3623773Y-3901141D01*
X3241056Y-3917212D01*
X2917876Y-3922806D01*
X2485924Y-3924726D01*
X2093976Y-3920744D01*
X1785057Y-3911666D01*
X1602194Y-3898293D01*
X1601666Y-3898217D01*
X1183686Y-3793587D01*
X907487Y-3612284D01*
X756162Y-3336722D01*
X712666Y-2973605D01*
X758194Y-2737753D01*
X886011Y-2388184D01*
X1082965Y-1951056D01*
X1335904Y-1452530D01*
X1631677Y-918762D01*
X1957132Y-375911D01*
X2235988Y56248D01*
X2595634Y559996D01*
X2910143Y920897D01*
X3196512Y1153626D01*
X3471736Y1272859D01*
X3672627Y1296667D01*
X3783515Y1275796D01*
X3783515Y1275796D01*
G37*
X3783515Y1275796D02*
X3828367Y1201061D01*
X3801429Y1054275D01*
X3696947Y817256D01*
X3509166Y471818D01*
X3296151Y106959D01*
X3094501Y-241744D01*
X2868874Y-646598D01*
X2633692Y-1079967D01*
X2403379Y-1514216D01*
X2192355Y-1921710D01*
X2015043Y-2274816D01*
X1885866Y-2545897D01*
X1819246Y-2707319D01*
X1813333Y-2734284D01*
X1893111Y-2751125D01*
X2113091Y-2761682D01*
X2444238Y-2765447D01*
X2857518Y-2761911D01*
X3101612Y-2756861D01*
X4389892Y-2725000D01*
X4468442Y-2945943D01*
X4507159Y-3277323D01*
X4396719Y-3575477D01*
X4207699Y-3761095D01*
X4074560Y-3827162D01*
X3890763Y-3872484D01*
X3623773Y-3901141D01*
X3241056Y-3917212D01*
X2917876Y-3922806D01*
X2485924Y-3924726D01*
X2093976Y-3920744D01*
X1785057Y-3911666D01*
X1602194Y-3898293D01*
X1601666Y-3898217D01*
X1183686Y-3793587D01*
X907487Y-3612284D01*
X756162Y-3336722D01*
X712666Y-2973605D01*
X758194Y-2737753D01*
X886011Y-2388184D01*
X1082965Y-1951056D01*
X1335904Y-1452530D01*
X1631677Y-918762D01*
X1957132Y-375911D01*
X2235988Y56248D01*
X2595634Y559996D01*
X2910143Y920897D01*
X3196512Y1153626D01*
X3471736Y1272859D01*
X3672627Y1296667D01*
X3783515Y1275796D01*
G36*
X9019704Y2605620D02*
G01*
X9214508Y2489053D01*
X9417710Y2349310D01*
X9396109Y2270313D01*
X9313926Y2081542D01*
X9188792Y1823413D01*
X9185171Y1816233D01*
X9049609Y1539551D01*
X8981795Y1348725D01*
X8973081Y1178496D01*
X9014816Y963600D01*
X9052628Y816211D01*
X9149849Y301828D01*
X9170712Y-235098D01*
X9115075Y-844209D01*
X9046760Y-1255147D01*
X8831138Y-2215063D01*
X8571552Y-3032707D01*
X8270628Y-3702647D01*
X7930990Y-4219451D01*
X7555266Y-4577688D01*
X7392969Y-4676658D01*
X7073543Y-4771887D01*
X6677766Y-4792834D01*
X6281455Y-4739497D01*
X6086314Y-4676667D01*
X5792733Y-4554001D01*
X5602200Y-4887682D01*
X5470779Y-5087553D01*
X5359700Y-5205581D01*
X5327000Y-5219338D01*
X5212937Y-5166376D01*
X5039745Y-5038292D01*
X5002568Y-5006423D01*
X4762804Y-4795531D01*
X4987050Y-4412885D01*
X5211295Y-4030238D01*
X5057481Y-3631619D01*
X5009507Y-3438708D01*
X6470000Y-3438708D01*
X6544246Y-3499321D01*
X6726130Y-3528791D01*
X6757562Y-3529333D01*
X6990483Y-3490428D01*
X7195099Y-3349811D01*
X7299216Y-3239939D01*
X7568197Y-2832326D01*
X7797518Y-2266251D01*
X7988291Y-1538772D01*
X8037715Y-1291066D01*
X8114344Y-842430D01*
X8144480Y-554352D01*
X8126337Y-424070D01*
X8058134Y-448816D01*
X7938086Y-625827D01*
X7788493Y-904666D01*
X7610106Y-1248890D01*
X7382273Y-1678825D01*
X7138114Y-2132344D01*
X6967903Y-2443875D01*
X6775563Y-2800245D01*
X6617757Y-3106100D01*
X6510554Y-3329335D01*
X6470020Y-3437846D01*
X6470000Y-3438708D01*
X5009507Y-3438708D01*
X4960146Y-3240223D01*
X4914853Y-2741031D01*
X4918486Y-2441016D01*
X5904795Y-2441016D01*
X5933730Y-2628336D01*
X5992744Y-2682666D01*
X6045978Y-2613484D01*
X6162994Y-2425770D01*
X6325800Y-2149270D01*
X6492073Y-1857166D01*
X6888077Y-1146321D01*
X7202908Y-568381D01*
X7442396Y-110980D01*
X7612369Y238250D01*
X7718659Y491676D01*
X7767095Y661666D01*
X7763506Y760586D01*
X7740000Y790192D01*
X7514377Y846804D01*
X7249629Y762252D01*
X6967304Y553460D01*
X6688950Y237356D01*
X6436117Y-169137D01*
X6382789Y-275836D01*
X6251510Y-600473D01*
X6133954Y-982317D01*
X6035313Y-1389330D01*
X5960778Y-1789476D01*
X5915541Y-2150717D01*
X5904795Y-2441016D01*
X4918486Y-2441016D01*
X4921559Y-2187371D01*
X4980221Y-1632570D01*
X5059431Y-1243333D01*
X5340277Y-421452D01*
X5739943Y358238D01*
X6231476Y1046816D01*
X6459474Y1297735D01*
X6875131Y1679133D01*
X7243835Y1918647D01*
X7591820Y2027096D01*
X7945318Y2015298D01*
X8104731Y1976194D01*
X8315766Y1920513D01*
X8443584Y1901077D01*
X8457502Y1904632D01*
X8506271Y1989632D01*
X8603296Y2174865D01*
X8662646Y2291500D01*
X8781356Y2502569D01*
X8877809Y2632029D01*
X8908215Y2651334D01*
X9019704Y2605620D01*
X9019704Y2605620D01*
G37*
X9019704Y2605620D02*
X9214508Y2489053D01*
X9417710Y2349310D01*
X9396109Y2270313D01*
X9313926Y2081542D01*
X9188792Y1823413D01*
X9185171Y1816233D01*
X9049609Y1539551D01*
X8981795Y1348725D01*
X8973081Y1178496D01*
X9014816Y963600D01*
X9052628Y816211D01*
X9149849Y301828D01*
X9170712Y-235098D01*
X9115075Y-844209D01*
X9046760Y-1255147D01*
X8831138Y-2215063D01*
X8571552Y-3032707D01*
X8270628Y-3702647D01*
X7930990Y-4219451D01*
X7555266Y-4577688D01*
X7392969Y-4676658D01*
X7073543Y-4771887D01*
X6677766Y-4792834D01*
X6281455Y-4739497D01*
X6086314Y-4676667D01*
X5792733Y-4554001D01*
X5602200Y-4887682D01*
X5470779Y-5087553D01*
X5359700Y-5205581D01*
X5327000Y-5219338D01*
X5212937Y-5166376D01*
X5039745Y-5038292D01*
X5002568Y-5006423D01*
X4762804Y-4795531D01*
X4987050Y-4412885D01*
X5211295Y-4030238D01*
X5057481Y-3631619D01*
X5009507Y-3438708D01*
X6470000Y-3438708D01*
X6544246Y-3499321D01*
X6726130Y-3528791D01*
X6757562Y-3529333D01*
X6990483Y-3490428D01*
X7195099Y-3349811D01*
X7299216Y-3239939D01*
X7568197Y-2832326D01*
X7797518Y-2266251D01*
X7988291Y-1538772D01*
X8037715Y-1291066D01*
X8114344Y-842430D01*
X8144480Y-554352D01*
X8126337Y-424070D01*
X8058134Y-448816D01*
X7938086Y-625827D01*
X7788493Y-904666D01*
X7610106Y-1248890D01*
X7382273Y-1678825D01*
X7138114Y-2132344D01*
X6967903Y-2443875D01*
X6775563Y-2800245D01*
X6617757Y-3106100D01*
X6510554Y-3329335D01*
X6470020Y-3437846D01*
X6470000Y-3438708D01*
X5009507Y-3438708D01*
X4960146Y-3240223D01*
X4914853Y-2741031D01*
X4918486Y-2441016D01*
X5904795Y-2441016D01*
X5933730Y-2628336D01*
X5992744Y-2682666D01*
X6045978Y-2613484D01*
X6162994Y-2425770D01*
X6325800Y-2149270D01*
X6492073Y-1857166D01*
X6888077Y-1146321D01*
X7202908Y-568381D01*
X7442396Y-110980D01*
X7612369Y238250D01*
X7718659Y491676D01*
X7767095Y661666D01*
X7763506Y760586D01*
X7740000Y790192D01*
X7514377Y846804D01*
X7249629Y762252D01*
X6967304Y553460D01*
X6688950Y237356D01*
X6436117Y-169137D01*
X6382789Y-275836D01*
X6251510Y-600473D01*
X6133954Y-982317D01*
X6035313Y-1389330D01*
X5960778Y-1789476D01*
X5915541Y-2150717D01*
X5904795Y-2441016D01*
X4918486Y-2441016D01*
X4921559Y-2187371D01*
X4980221Y-1632570D01*
X5059431Y-1243333D01*
X5340277Y-421452D01*
X5739943Y358238D01*
X6231476Y1046816D01*
X6459474Y1297735D01*
X6875131Y1679133D01*
X7243835Y1918647D01*
X7591820Y2027096D01*
X7945318Y2015298D01*
X8104731Y1976194D01*
X8315766Y1920513D01*
X8443584Y1901077D01*
X8457502Y1904632D01*
X8506271Y1989632D01*
X8603296Y2174865D01*
X8662646Y2291500D01*
X8781356Y2502569D01*
X8877809Y2632029D01*
X8908215Y2651334D01*
X9019704Y2605620D01*
G36*
X12627801Y1634942D02*
G01*
X12921622Y1448500D01*
X13220354Y1176080D01*
X13452563Y934730D01*
X13586538Y757673D01*
X13648892Y594807D01*
X13666242Y396027D01*
X13666666Y335885D01*
X13612903Y-11298D01*
X13470839Y-256314D01*
X13269311Y-384884D01*
X13037160Y-382732D01*
X12803222Y-235582D01*
X12716701Y-134414D01*
X12517849Y79725D01*
X12295078Y246191D01*
X12278797Y254984D01*
X12033928Y382130D01*
X11458644Y-216421D01*
X10950726Y-838711D01*
X10524725Y-1548477D01*
X10198955Y-2304238D01*
X9991728Y-3064512D01*
X9922133Y-3696832D01*
X9961141Y-4074783D01*
X10106794Y-4329539D01*
X10371601Y-4478660D01*
X10501702Y-4510468D01*
X10863254Y-4494180D01*
X11228041Y-4316993D01*
X11583086Y-3986567D01*
X11745977Y-3776149D01*
X12068954Y-3317666D01*
X11788310Y-3289491D01*
X11547713Y-3291790D01*
X11228096Y-3327733D01*
X11008849Y-3367103D01*
X10726925Y-3421545D01*
X10560974Y-3431150D01*
X10462621Y-3391860D01*
X10395016Y-3315596D01*
X10320789Y-3131151D01*
X10281750Y-2872353D01*
X10280000Y-2809324D01*
X10353100Y-2453428D01*
X10568518Y-2182046D01*
X10920432Y-1997666D01*
X11403018Y-1902778D01*
X12010454Y-1899871D01*
X12335300Y-1930727D01*
X12791051Y-1995567D01*
X13105030Y-2066549D01*
X13304729Y-2154732D01*
X13417639Y-2271172D01*
X13461953Y-2383895D01*
X13485037Y-2648671D01*
X13448401Y-2936520D01*
X13365661Y-3174798D01*
X13296569Y-3266285D01*
X13208415Y-3382467D01*
X13073581Y-3608605D01*
X12917422Y-3901409D01*
X12875255Y-3985547D01*
X12507023Y-4610830D01*
X12082753Y-5125199D01*
X11618773Y-5518528D01*
X11131413Y-5780689D01*
X10637000Y-5901554D01*
X10151862Y-5870996D01*
X9941333Y-5805306D01*
X9549317Y-5563547D01*
X9254029Y-5197684D01*
X9056115Y-4723048D01*
X8956224Y-4154972D01*
X8955002Y-3508786D01*
X9053097Y-2799822D01*
X9251157Y-2043412D01*
X9549827Y-1254887D01*
X9732653Y-862333D01*
X10102680Y-187615D01*
X10502745Y411523D01*
X10916701Y917134D01*
X11328398Y1311269D01*
X11721689Y1575982D01*
X12024590Y1684927D01*
X12342427Y1707948D01*
X12627801Y1634942D01*
X12627801Y1634942D01*
G37*
X12627801Y1634942D02*
X12921622Y1448500D01*
X13220354Y1176080D01*
X13452563Y934730D01*
X13586538Y757673D01*
X13648892Y594807D01*
X13666242Y396027D01*
X13666666Y335885D01*
X13612903Y-11298D01*
X13470839Y-256314D01*
X13269311Y-384884D01*
X13037160Y-382732D01*
X12803222Y-235582D01*
X12716701Y-134414D01*
X12517849Y79725D01*
X12295078Y246191D01*
X12278797Y254984D01*
X12033928Y382130D01*
X11458644Y-216421D01*
X10950726Y-838711D01*
X10524725Y-1548477D01*
X10198955Y-2304238D01*
X9991728Y-3064512D01*
X9922133Y-3696832D01*
X9961141Y-4074783D01*
X10106794Y-4329539D01*
X10371601Y-4478660D01*
X10501702Y-4510468D01*
X10863254Y-4494180D01*
X11228041Y-4316993D01*
X11583086Y-3986567D01*
X11745977Y-3776149D01*
X12068954Y-3317666D01*
X11788310Y-3289491D01*
X11547713Y-3291790D01*
X11228096Y-3327733D01*
X11008849Y-3367103D01*
X10726925Y-3421545D01*
X10560974Y-3431150D01*
X10462621Y-3391860D01*
X10395016Y-3315596D01*
X10320789Y-3131151D01*
X10281750Y-2872353D01*
X10280000Y-2809324D01*
X10353100Y-2453428D01*
X10568518Y-2182046D01*
X10920432Y-1997666D01*
X11403018Y-1902778D01*
X12010454Y-1899871D01*
X12335300Y-1930727D01*
X12791051Y-1995567D01*
X13105030Y-2066549D01*
X13304729Y-2154732D01*
X13417639Y-2271172D01*
X13461953Y-2383895D01*
X13485037Y-2648671D01*
X13448401Y-2936520D01*
X13365661Y-3174798D01*
X13296569Y-3266285D01*
X13208415Y-3382467D01*
X13073581Y-3608605D01*
X12917422Y-3901409D01*
X12875255Y-3985547D01*
X12507023Y-4610830D01*
X12082753Y-5125199D01*
X11618773Y-5518528D01*
X11131413Y-5780689D01*
X10637000Y-5901554D01*
X10151862Y-5870996D01*
X9941333Y-5805306D01*
X9549317Y-5563547D01*
X9254029Y-5197684D01*
X9056115Y-4723048D01*
X8956224Y-4154972D01*
X8955002Y-3508786D01*
X9053097Y-2799822D01*
X9251157Y-2043412D01*
X9549827Y-1254887D01*
X9732653Y-862333D01*
X10102680Y-187615D01*
X10502745Y411523D01*
X10916701Y917134D01*
X11328398Y1311269D01*
X11721689Y1575982D01*
X12024590Y1684927D01*
X12342427Y1707948D01*
X12627801Y1634942D01*
G36*
X16230711Y549326D02*
G01*
X16355876Y351293D01*
X16376000Y187091D01*
X16355965Y51312D01*
X16299138Y-227187D01*
X16210438Y-627008D01*
X16094781Y-1126754D01*
X15957084Y-1705029D01*
X15802266Y-2340436D01*
X15703717Y-2738142D01*
X15031434Y-5434333D01*
X15280383Y-5630969D01*
X15468251Y-5859619D01*
X15539904Y-6124823D01*
X15510209Y-6390068D01*
X15394035Y-6618841D01*
X15206249Y-6774632D01*
X14961719Y-6820926D01*
X14809666Y-6786942D01*
X14695130Y-6750178D01*
X14459936Y-6677927D01*
X14145743Y-6582929D01*
X13984449Y-6534589D01*
X13562874Y-6395309D01*
X13287811Y-6262628D01*
X13138876Y-6114516D01*
X13095685Y-5928941D01*
X13137853Y-5683875D01*
X13151990Y-5634895D01*
X13306172Y-5331047D01*
X13539399Y-5174654D01*
X13836808Y-5167795D01*
X14070930Y-5214619D01*
X14546131Y-3314955D01*
X14681242Y-2773027D01*
X14801417Y-2287547D01*
X14900893Y-1882077D01*
X14973909Y-1580177D01*
X15014705Y-1405406D01*
X15021333Y-1371645D01*
X14947933Y-1340324D01*
X14780923Y-1328000D01*
X14560203Y-1256500D01*
X14412699Y-1071387D01*
X14349924Y-816736D01*
X14383389Y-536622D01*
X14510482Y-292521D01*
X14673772Y-136252D01*
X14929400Y54246D01*
X15233145Y251979D01*
X15540786Y429956D01*
X15808103Y561184D01*
X15990877Y618671D01*
X16004322Y619334D01*
X16230711Y549326D01*
X16230711Y549326D01*
G37*
X16230711Y549326D02*
X16355876Y351293D01*
X16376000Y187091D01*
X16355965Y51312D01*
X16299138Y-227187D01*
X16210438Y-627008D01*
X16094781Y-1126754D01*
X15957084Y-1705029D01*
X15802266Y-2340436D01*
X15703717Y-2738142D01*
X15031434Y-5434333D01*
X15280383Y-5630969D01*
X15468251Y-5859619D01*
X15539904Y-6124823D01*
X15510209Y-6390068D01*
X15394035Y-6618841D01*
X15206249Y-6774632D01*
X14961719Y-6820926D01*
X14809666Y-6786942D01*
X14695130Y-6750178D01*
X14459936Y-6677927D01*
X14145743Y-6582929D01*
X13984449Y-6534589D01*
X13562874Y-6395309D01*
X13287811Y-6262628D01*
X13138876Y-6114516D01*
X13095685Y-5928941D01*
X13137853Y-5683875D01*
X13151990Y-5634895D01*
X13306172Y-5331047D01*
X13539399Y-5174654D01*
X13836808Y-5167795D01*
X14070930Y-5214619D01*
X14546131Y-3314955D01*
X14681242Y-2773027D01*
X14801417Y-2287547D01*
X14900893Y-1882077D01*
X14973909Y-1580177D01*
X15014705Y-1405406D01*
X15021333Y-1371645D01*
X14947933Y-1340324D01*
X14780923Y-1328000D01*
X14560203Y-1256500D01*
X14412699Y-1071387D01*
X14349924Y-816736D01*
X14383389Y-536622D01*
X14510482Y-292521D01*
X14673772Y-136252D01*
X14929400Y54246D01*
X15233145Y251979D01*
X15540786Y429956D01*
X15808103Y561184D01*
X15990877Y618671D01*
X16004322Y619334D01*
X16230711Y549326D01*
G36*
X18683801Y-2077914D02*
G01*
X18964243Y-2249133D01*
X19301822Y-2551042D01*
X19397672Y-2646759D01*
X19645748Y-2921362D01*
X19808622Y-3177017D01*
X19904432Y-3463378D01*
X19951318Y-3830101D01*
X19965546Y-4201265D01*
X19965435Y-4469742D01*
X19940362Y-4610258D01*
X19872588Y-4664032D01*
X19762831Y-4672333D01*
X19665815Y-4665452D01*
X19585976Y-4627284D01*
X19504613Y-4531542D01*
X19403024Y-4351939D01*
X19262505Y-4062187D01*
X19136875Y-3792494D01*
X18995113Y-3588177D01*
X18868524Y-3475307D01*
X18739922Y-3414692D01*
X18612344Y-3438276D01*
X18424328Y-3559212D01*
X18402858Y-3574942D01*
X18084589Y-3879133D01*
X17782643Y-4289214D01*
X17536286Y-4743300D01*
X17384794Y-5179460D01*
X17336356Y-5684650D01*
X17424168Y-6126540D01*
X17642793Y-6481498D01*
X17696873Y-6535499D01*
X17947908Y-6707351D01*
X18238217Y-6771914D01*
X18609856Y-6735033D01*
X18804933Y-6689495D01*
X19083215Y-6624443D01*
X19259784Y-6612214D01*
X19394136Y-6653809D01*
X19472734Y-6700741D01*
X19677403Y-6930600D01*
X19758279Y-7252131D01*
X19748517Y-7431387D01*
X19645712Y-7592703D01*
X19412149Y-7729772D01*
X19085552Y-7835297D01*
X18703646Y-7901982D01*
X18304155Y-7922530D01*
X17924804Y-7889645D01*
X17688333Y-7829845D01*
X17211240Y-7578995D01*
X16833454Y-7205685D01*
X16560124Y-6728191D01*
X16396398Y-6164794D01*
X16347423Y-5533772D01*
X16418348Y-4853404D01*
X16614320Y-4141968D01*
X16634336Y-4087510D01*
X16788201Y-3753401D01*
X17008919Y-3370180D01*
X17266052Y-2982166D01*
X17529158Y-2633682D01*
X17767798Y-2369048D01*
X17880309Y-2273354D01*
X18172332Y-2097530D01*
X18429996Y-2029882D01*
X18683801Y-2077914D01*
X18683801Y-2077914D01*
G37*
X18683801Y-2077914D02*
X18964243Y-2249133D01*
X19301822Y-2551042D01*
X19397672Y-2646759D01*
X19645748Y-2921362D01*
X19808622Y-3177017D01*
X19904432Y-3463378D01*
X19951318Y-3830101D01*
X19965546Y-4201265D01*
X19965435Y-4469742D01*
X19940362Y-4610258D01*
X19872588Y-4664032D01*
X19762831Y-4672333D01*
X19665815Y-4665452D01*
X19585976Y-4627284D01*
X19504613Y-4531542D01*
X19403024Y-4351939D01*
X19262505Y-4062187D01*
X19136875Y-3792494D01*
X18995113Y-3588177D01*
X18868524Y-3475307D01*
X18739922Y-3414692D01*
X18612344Y-3438276D01*
X18424328Y-3559212D01*
X18402858Y-3574942D01*
X18084589Y-3879133D01*
X17782643Y-4289214D01*
X17536286Y-4743300D01*
X17384794Y-5179460D01*
X17336356Y-5684650D01*
X17424168Y-6126540D01*
X17642793Y-6481498D01*
X17696873Y-6535499D01*
X17947908Y-6707351D01*
X18238217Y-6771914D01*
X18609856Y-6735033D01*
X18804933Y-6689495D01*
X19083215Y-6624443D01*
X19259784Y-6612214D01*
X19394136Y-6653809D01*
X19472734Y-6700741D01*
X19677403Y-6930600D01*
X19758279Y-7252131D01*
X19748517Y-7431387D01*
X19645712Y-7592703D01*
X19412149Y-7729772D01*
X19085552Y-7835297D01*
X18703646Y-7901982D01*
X18304155Y-7922530D01*
X17924804Y-7889645D01*
X17688333Y-7829845D01*
X17211240Y-7578995D01*
X16833454Y-7205685D01*
X16560124Y-6728191D01*
X16396398Y-6164794D01*
X16347423Y-5533772D01*
X16418348Y-4853404D01*
X16614320Y-4141968D01*
X16634336Y-4087510D01*
X16788201Y-3753401D01*
X17008919Y-3370180D01*
X17266052Y-2982166D01*
X17529158Y-2633682D01*
X17767798Y-2369048D01*
X17880309Y-2273354D01*
X18172332Y-2097530D01*
X18429996Y-2029882D01*
X18683801Y-2077914D01*
G36*
X655804Y-4799786D02*
G01*
X1048143Y-4828434D01*
X1440303Y-4882759D01*
X1790924Y-4959944D01*
X2025000Y-5041244D01*
X2571004Y-5362107D01*
X2974037Y-5767466D01*
X3230009Y-6251480D01*
X3334832Y-6808311D01*
X3337333Y-6915346D01*
X3290661Y-7441609D01*
X3144404Y-7849444D01*
X2889200Y-8163719D01*
X2857026Y-8191208D01*
X2609278Y-8396385D01*
X2888639Y-8932345D01*
X3051261Y-9277239D01*
X3136711Y-9567382D01*
X3166622Y-9885536D01*
X3168000Y-10001067D01*
X3126494Y-10443138D01*
X2992855Y-10757125D01*
X2753398Y-10965012D01*
X2507982Y-11061278D01*
X2217344Y-11128853D01*
X1992563Y-11132669D01*
X1741380Y-11069575D01*
X1630807Y-11031335D01*
X1183240Y-10827955D01*
X719811Y-10543291D01*
X278817Y-10208115D01*
X-101442Y-9853198D01*
X-382670Y-9509310D01*
X-482444Y-9333421D01*
X-596885Y-8933891D01*
X-604749Y-8826079D01*
X324870Y-8826079D01*
X328376Y-9041205D01*
X353071Y-9130271D01*
X520236Y-9248353D01*
X793077Y-9393602D01*
X1119468Y-9543386D01*
X1447287Y-9675070D01*
X1724411Y-9766022D01*
X1882538Y-9794405D01*
X2069881Y-9781482D01*
X2128752Y-9719620D01*
X2108072Y-9604166D01*
X1921189Y-9221463D01*
X1594624Y-8837383D01*
X1155179Y-8481495D01*
X999240Y-8380918D01*
X416333Y-8025503D01*
X349466Y-8542651D01*
X324870Y-8826079D01*
X-604749Y-8826079D01*
X-635731Y-8401340D01*
X-599079Y-7729114D01*
X-515314Y-7085333D01*
X-501532Y-6996085D01*
X588769Y-6996085D01*
X673489Y-7100419D01*
X865133Y-7195668D01*
X1235793Y-7340788D01*
X1500725Y-7410422D01*
X1702805Y-7410266D01*
X1884910Y-7346018D01*
X1907618Y-7334185D01*
X2115029Y-7141327D01*
X2179689Y-6880435D01*
X2095238Y-6583835D01*
X2065473Y-6531990D01*
X1845550Y-6292593D01*
X1524931Y-6076878D01*
X1171436Y-5925159D01*
X971267Y-5881558D01*
X840295Y-5885645D01*
X764892Y-5964461D01*
X713678Y-6159264D01*
X699662Y-6238666D01*
X649802Y-6527719D01*
X604172Y-6783904D01*
X593528Y-6841580D01*
X588769Y-6996085D01*
X-501532Y-6996085D01*
X-446014Y-6636580D01*
X-373402Y-6159045D01*
X-310574Y-5739013D01*
X-296890Y-5646000D01*
X-239728Y-5323232D01*
X-174893Y-5059136D01*
X-115296Y-4905166D01*
X-108703Y-4896039D01*
X36021Y-4830774D01*
X304644Y-4799627D01*
X655804Y-4799786D01*
X655804Y-4799786D01*
G37*
X655804Y-4799786D02*
X1048143Y-4828434D01*
X1440303Y-4882759D01*
X1790924Y-4959944D01*
X2025000Y-5041244D01*
X2571004Y-5362107D01*
X2974037Y-5767466D01*
X3230009Y-6251480D01*
X3334832Y-6808311D01*
X3337333Y-6915346D01*
X3290661Y-7441609D01*
X3144404Y-7849444D01*
X2889200Y-8163719D01*
X2857026Y-8191208D01*
X2609278Y-8396385D01*
X2888639Y-8932345D01*
X3051261Y-9277239D01*
X3136711Y-9567382D01*
X3166622Y-9885536D01*
X3168000Y-10001067D01*
X3126494Y-10443138D01*
X2992855Y-10757125D01*
X2753398Y-10965012D01*
X2507982Y-11061278D01*
X2217344Y-11128853D01*
X1992563Y-11132669D01*
X1741380Y-11069575D01*
X1630807Y-11031335D01*
X1183240Y-10827955D01*
X719811Y-10543291D01*
X278817Y-10208115D01*
X-101442Y-9853198D01*
X-382670Y-9509310D01*
X-482444Y-9333421D01*
X-596885Y-8933891D01*
X-604749Y-8826079D01*
X324870Y-8826079D01*
X328376Y-9041205D01*
X353071Y-9130271D01*
X520236Y-9248353D01*
X793077Y-9393602D01*
X1119468Y-9543386D01*
X1447287Y-9675070D01*
X1724411Y-9766022D01*
X1882538Y-9794405D01*
X2069881Y-9781482D01*
X2128752Y-9719620D01*
X2108072Y-9604166D01*
X1921189Y-9221463D01*
X1594624Y-8837383D01*
X1155179Y-8481495D01*
X999240Y-8380918D01*
X416333Y-8025503D01*
X349466Y-8542651D01*
X324870Y-8826079D01*
X-604749Y-8826079D01*
X-635731Y-8401340D01*
X-599079Y-7729114D01*
X-515314Y-7085333D01*
X-501532Y-6996085D01*
X588769Y-6996085D01*
X673489Y-7100419D01*
X865133Y-7195668D01*
X1235793Y-7340788D01*
X1500725Y-7410422D01*
X1702805Y-7410266D01*
X1884910Y-7346018D01*
X1907618Y-7334185D01*
X2115029Y-7141327D01*
X2179689Y-6880435D01*
X2095238Y-6583835D01*
X2065473Y-6531990D01*
X1845550Y-6292593D01*
X1524931Y-6076878D01*
X1171436Y-5925159D01*
X971267Y-5881558D01*
X840295Y-5885645D01*
X764892Y-5964461D01*
X713678Y-6159264D01*
X699662Y-6238666D01*
X649802Y-6527719D01*
X604172Y-6783904D01*
X593528Y-6841580D01*
X588769Y-6996085D01*
X-501532Y-6996085D01*
X-446014Y-6636580D01*
X-373402Y-6159045D01*
X-310574Y-5739013D01*
X-296890Y-5646000D01*
X-239728Y-5323232D01*
X-174893Y-5059136D01*
X-115296Y-4905166D01*
X-108703Y-4896039D01*
X36021Y-4830774D01*
X304644Y-4799627D01*
X655804Y-4799786D01*
G36*
X8152164Y-6018653D02*
G01*
X8458971Y-6325459D01*
X8228749Y-6735014D01*
X8095461Y-6996326D01*
X8045380Y-7185656D01*
X8064381Y-7369590D01*
X8080930Y-7431892D01*
X8162410Y-7915336D01*
X8173977Y-8515596D01*
X8122190Y-9198405D01*
X8013605Y-9929496D01*
X7854782Y-10674603D01*
X7652278Y-11399460D01*
X7412651Y-12069798D01*
X7142460Y-12651352D01*
X7051259Y-12812027D01*
X6710769Y-13258529D01*
X6315764Y-13567456D01*
X5885110Y-13729550D01*
X5437671Y-13735551D01*
X5257994Y-13692099D01*
X5030618Y-13588858D01*
X4780810Y-13433305D01*
X4743167Y-13405478D01*
X4466678Y-13194590D01*
X4320552Y-13441961D01*
X4204892Y-13609242D01*
X4117031Y-13688369D01*
X4110844Y-13689333D01*
X4030975Y-13625663D01*
X3892232Y-13461589D01*
X3777190Y-13306177D01*
X3507117Y-12923021D01*
X3715898Y-12607532D01*
X3838801Y-12408372D01*
X3880282Y-12261338D01*
X3858865Y-12145503D01*
X5266604Y-12145503D01*
X5284989Y-12183952D01*
X5318419Y-12212134D01*
X5335950Y-12224680D01*
X5594701Y-12324048D01*
X5862454Y-12286879D01*
X5965108Y-12226140D01*
X6231672Y-11932754D01*
X6472085Y-11493446D01*
X6688128Y-10903050D01*
X6881577Y-10156398D01*
X7054210Y-9248324D01*
X7107915Y-8905666D01*
X7119109Y-8782600D01*
X7090019Y-8777053D01*
X7006418Y-8900935D01*
X6905594Y-9075000D01*
X6481089Y-9822882D01*
X6133127Y-10437091D01*
X5854874Y-10931339D01*
X5639498Y-11319338D01*
X5480166Y-11614799D01*
X5370043Y-11831435D01*
X5302298Y-11982956D01*
X5270096Y-12083075D01*
X5266604Y-12145503D01*
X3858865Y-12145503D01*
X3848299Y-12088364D01*
X3786875Y-11911188D01*
X3706612Y-11582997D01*
X3648671Y-11131775D01*
X3616932Y-10645525D01*
X4643009Y-10645525D01*
X4655747Y-10846550D01*
X4657474Y-10853965D01*
X4690659Y-10950937D01*
X4737495Y-10966080D01*
X4818291Y-10881720D01*
X4953358Y-10680180D01*
X5068572Y-10496179D01*
X5235192Y-10220335D01*
X5460096Y-9837466D01*
X5719467Y-9388647D01*
X5989489Y-8914952D01*
X6132234Y-8661691D01*
X6388730Y-8202100D01*
X6570154Y-7867067D01*
X6685459Y-7634135D01*
X6743598Y-7480848D01*
X6753523Y-7384749D01*
X6724189Y-7323380D01*
X6680748Y-7285858D01*
X6394305Y-7174212D01*
X6068251Y-7203399D01*
X5747395Y-7367464D01*
X5685241Y-7418170D01*
X5404425Y-7735145D01*
X5142882Y-8154407D01*
X4938823Y-8609976D01*
X4872820Y-8821000D01*
X4804209Y-9139540D01*
X4741977Y-9527948D01*
X4691069Y-9939538D01*
X4656432Y-10327626D01*
X4643009Y-10645525D01*
X3616932Y-10645525D01*
X3614122Y-10602487D01*
X3604035Y-10040096D01*
X3619480Y-9489566D01*
X3661528Y-8995861D01*
X3710303Y-8694000D01*
X3914926Y-7996816D01*
X4215190Y-7351797D01*
X4591862Y-6787169D01*
X5025708Y-6331158D01*
X5497495Y-6011990D01*
X5557235Y-5983549D01*
X6035313Y-5842717D01*
X6538387Y-5824288D01*
X7007723Y-5927079D01*
X7199336Y-6016580D01*
X7547672Y-6215787D01*
X7696514Y-5963817D01*
X7845357Y-5711846D01*
X8152164Y-6018653D01*
X8152164Y-6018653D01*
G37*
X8152164Y-6018653D02*
X8458971Y-6325459D01*
X8228749Y-6735014D01*
X8095461Y-6996326D01*
X8045380Y-7185656D01*
X8064381Y-7369590D01*
X8080930Y-7431892D01*
X8162410Y-7915336D01*
X8173977Y-8515596D01*
X8122190Y-9198405D01*
X8013605Y-9929496D01*
X7854782Y-10674603D01*
X7652278Y-11399460D01*
X7412651Y-12069798D01*
X7142460Y-12651352D01*
X7051259Y-12812027D01*
X6710769Y-13258529D01*
X6315764Y-13567456D01*
X5885110Y-13729550D01*
X5437671Y-13735551D01*
X5257994Y-13692099D01*
X5030618Y-13588858D01*
X4780810Y-13433305D01*
X4743167Y-13405478D01*
X4466678Y-13194590D01*
X4320552Y-13441961D01*
X4204892Y-13609242D01*
X4117031Y-13688369D01*
X4110844Y-13689333D01*
X4030975Y-13625663D01*
X3892232Y-13461589D01*
X3777190Y-13306177D01*
X3507117Y-12923021D01*
X3715898Y-12607532D01*
X3838801Y-12408372D01*
X3880282Y-12261338D01*
X3858865Y-12145503D01*
X5266604Y-12145503D01*
X5284989Y-12183952D01*
X5318419Y-12212134D01*
X5335950Y-12224680D01*
X5594701Y-12324048D01*
X5862454Y-12286879D01*
X5965108Y-12226140D01*
X6231672Y-11932754D01*
X6472085Y-11493446D01*
X6688128Y-10903050D01*
X6881577Y-10156398D01*
X7054210Y-9248324D01*
X7107915Y-8905666D01*
X7119109Y-8782600D01*
X7090019Y-8777053D01*
X7006418Y-8900935D01*
X6905594Y-9075000D01*
X6481089Y-9822882D01*
X6133127Y-10437091D01*
X5854874Y-10931339D01*
X5639498Y-11319338D01*
X5480166Y-11614799D01*
X5370043Y-11831435D01*
X5302298Y-11982956D01*
X5270096Y-12083075D01*
X5266604Y-12145503D01*
X3858865Y-12145503D01*
X3848299Y-12088364D01*
X3786875Y-11911188D01*
X3706612Y-11582997D01*
X3648671Y-11131775D01*
X3616932Y-10645525D01*
X4643009Y-10645525D01*
X4655747Y-10846550D01*
X4657474Y-10853965D01*
X4690659Y-10950937D01*
X4737495Y-10966080D01*
X4818291Y-10881720D01*
X4953358Y-10680180D01*
X5068572Y-10496179D01*
X5235192Y-10220335D01*
X5460096Y-9837466D01*
X5719467Y-9388647D01*
X5989489Y-8914952D01*
X6132234Y-8661691D01*
X6388730Y-8202100D01*
X6570154Y-7867067D01*
X6685459Y-7634135D01*
X6743598Y-7480848D01*
X6753523Y-7384749D01*
X6724189Y-7323380D01*
X6680748Y-7285858D01*
X6394305Y-7174212D01*
X6068251Y-7203399D01*
X5747395Y-7367464D01*
X5685241Y-7418170D01*
X5404425Y-7735145D01*
X5142882Y-8154407D01*
X4938823Y-8609976D01*
X4872820Y-8821000D01*
X4804209Y-9139540D01*
X4741977Y-9527948D01*
X4691069Y-9939538D01*
X4656432Y-10327626D01*
X4643009Y-10645525D01*
X3616932Y-10645525D01*
X3614122Y-10602487D01*
X3604035Y-10040096D01*
X3619480Y-9489566D01*
X3661528Y-8995861D01*
X3710303Y-8694000D01*
X3914926Y-7996816D01*
X4215190Y-7351797D01*
X4591862Y-6787169D01*
X5025708Y-6331158D01*
X5497495Y-6011990D01*
X5557235Y-5983549D01*
X6035313Y-5842717D01*
X6538387Y-5824288D01*
X7007723Y-5927079D01*
X7199336Y-6016580D01*
X7547672Y-6215787D01*
X7696514Y-5963817D01*
X7845357Y-5711846D01*
X8152164Y-6018653D01*
G36*
X17033354Y-8235018D02*
G01*
X17471852Y-8302347D01*
X17899351Y-8397112D01*
X18258798Y-8510133D01*
X18323333Y-8536647D01*
X18706258Y-8753556D01*
X19046849Y-9037843D01*
X19313619Y-9354394D01*
X19475080Y-9668096D01*
X19508666Y-9858504D01*
X19451771Y-10113266D01*
X19302894Y-10428909D01*
X19094746Y-10751752D01*
X18860040Y-11028111D01*
X18723794Y-11146562D01*
X18546733Y-11289133D01*
X18463180Y-11382367D01*
X18473812Y-11403333D01*
X18602139Y-11478925D01*
X18712672Y-11669451D01*
X18784718Y-11920537D01*
X18797581Y-12177809D01*
X18789748Y-12233455D01*
X18688024Y-12466174D01*
X18475005Y-12760507D01*
X18181110Y-13085380D01*
X17836757Y-13409723D01*
X17472366Y-13702461D01*
X17136232Y-13922483D01*
X16747106Y-14116294D01*
X16285487Y-14305138D01*
X15798845Y-14473558D01*
X15334647Y-14606100D01*
X14940361Y-14687307D01*
X14731862Y-14705333D01*
X14479297Y-14691532D01*
X14337771Y-14633660D01*
X14250101Y-14507010D01*
X14244413Y-14494731D01*
X14215315Y-14393493D01*
X14209571Y-14252551D01*
X14230965Y-14055885D01*
X14283276Y-13787477D01*
X14370288Y-13431308D01*
X14382734Y-13385691D01*
X15614000Y-13385691D01*
X15663037Y-13430120D01*
X15821231Y-13415901D01*
X16105204Y-13339958D01*
X16426293Y-13235357D01*
X16946162Y-13042459D01*
X17353517Y-12857727D01*
X17630741Y-12690241D01*
X17760219Y-12549079D01*
X17760790Y-12547620D01*
X17742933Y-12392010D01*
X17580503Y-12257861D01*
X17297869Y-12155158D01*
X16919401Y-12093886D01*
X16621883Y-12080983D01*
X15978767Y-12080666D01*
X15796383Y-12708358D01*
X15709684Y-13012747D01*
X15645323Y-13250157D01*
X15614964Y-13377264D01*
X15614000Y-13385691D01*
X14382734Y-13385691D01*
X14495780Y-12971357D01*
X14663536Y-12391607D01*
X14877337Y-11676037D01*
X15024171Y-11191666D01*
X15149012Y-10779777D01*
X16464456Y-10779777D01*
X16470414Y-10910408D01*
X16489361Y-10928996D01*
X16653724Y-10948736D01*
X16920802Y-10932683D01*
X17229759Y-10888911D01*
X17519755Y-10825496D01*
X17688333Y-10769851D01*
X17928757Y-10628465D01*
X18148745Y-10439350D01*
X18284556Y-10258595D01*
X18305594Y-10098742D01*
X18275280Y-9988412D01*
X18103952Y-9741541D01*
X17798647Y-9545833D01*
X17391667Y-9420444D01*
X17289735Y-9403929D01*
X16905844Y-9351310D01*
X16648449Y-10118775D01*
X16522969Y-10520136D01*
X16464456Y-10779777D01*
X15149012Y-10779777D01*
X15185926Y-10657990D01*
X15340673Y-10143705D01*
X15477760Y-9684493D01*
X15586534Y-9316040D01*
X15656069Y-9075000D01*
X15784750Y-8689534D01*
X15928228Y-8439976D01*
X16113325Y-8293328D01*
X16351577Y-8219387D01*
X16640912Y-8204304D01*
X17033354Y-8235018D01*
X17033354Y-8235018D01*
G37*
X17033354Y-8235018D02*
X17471852Y-8302347D01*
X17899351Y-8397112D01*
X18258798Y-8510133D01*
X18323333Y-8536647D01*
X18706258Y-8753556D01*
X19046849Y-9037843D01*
X19313619Y-9354394D01*
X19475080Y-9668096D01*
X19508666Y-9858504D01*
X19451771Y-10113266D01*
X19302894Y-10428909D01*
X19094746Y-10751752D01*
X18860040Y-11028111D01*
X18723794Y-11146562D01*
X18546733Y-11289133D01*
X18463180Y-11382367D01*
X18473812Y-11403333D01*
X18602139Y-11478925D01*
X18712672Y-11669451D01*
X18784718Y-11920537D01*
X18797581Y-12177809D01*
X18789748Y-12233455D01*
X18688024Y-12466174D01*
X18475005Y-12760507D01*
X18181110Y-13085380D01*
X17836757Y-13409723D01*
X17472366Y-13702461D01*
X17136232Y-13922483D01*
X16747106Y-14116294D01*
X16285487Y-14305138D01*
X15798845Y-14473558D01*
X15334647Y-14606100D01*
X14940361Y-14687307D01*
X14731862Y-14705333D01*
X14479297Y-14691532D01*
X14337771Y-14633660D01*
X14250101Y-14507010D01*
X14244413Y-14494731D01*
X14215315Y-14393493D01*
X14209571Y-14252551D01*
X14230965Y-14055885D01*
X14283276Y-13787477D01*
X14370288Y-13431308D01*
X14382734Y-13385691D01*
X15614000Y-13385691D01*
X15663037Y-13430120D01*
X15821231Y-13415901D01*
X16105204Y-13339958D01*
X16426293Y-13235357D01*
X16946162Y-13042459D01*
X17353517Y-12857727D01*
X17630741Y-12690241D01*
X17760219Y-12549079D01*
X17760790Y-12547620D01*
X17742933Y-12392010D01*
X17580503Y-12257861D01*
X17297869Y-12155158D01*
X16919401Y-12093886D01*
X16621883Y-12080983D01*
X15978767Y-12080666D01*
X15796383Y-12708358D01*
X15709684Y-13012747D01*
X15645323Y-13250157D01*
X15614964Y-13377264D01*
X15614000Y-13385691D01*
X14382734Y-13385691D01*
X14495780Y-12971357D01*
X14663536Y-12391607D01*
X14877337Y-11676037D01*
X15024171Y-11191666D01*
X15149012Y-10779777D01*
X16464456Y-10779777D01*
X16470414Y-10910408D01*
X16489361Y-10928996D01*
X16653724Y-10948736D01*
X16920802Y-10932683D01*
X17229759Y-10888911D01*
X17519755Y-10825496D01*
X17688333Y-10769851D01*
X17928757Y-10628465D01*
X18148745Y-10439350D01*
X18284556Y-10258595D01*
X18305594Y-10098742D01*
X18275280Y-9988412D01*
X18103952Y-9741541D01*
X17798647Y-9545833D01*
X17391667Y-9420444D01*
X17289735Y-9403929D01*
X16905844Y-9351310D01*
X16648449Y-10118775D01*
X16522969Y-10520136D01*
X16464456Y-10779777D01*
X15149012Y-10779777D01*
X15185926Y-10657990D01*
X15340673Y-10143705D01*
X15477760Y-9684493D01*
X15586534Y-9316040D01*
X15656069Y-9075000D01*
X15784750Y-8689534D01*
X15928228Y-8439976D01*
X16113325Y-8293328D01*
X16351577Y-8219387D01*
X16640912Y-8204304D01*
X17033354Y-8235018D01*
G36*
X10763156Y-7104308D02*
G01*
X10910945Y-7171677D01*
X11017527Y-7303109D01*
X11084996Y-7514271D01*
X11115448Y-7820830D01*
X11110978Y-8238453D01*
X11073680Y-8782808D01*
X11005650Y-9469563D01*
X10953297Y-9936183D01*
X10878114Y-10599572D01*
X10827300Y-11101937D01*
X10804684Y-11450335D01*
X10814094Y-11651825D01*
X10859359Y-11713464D01*
X10944307Y-11642311D01*
X11072767Y-11445424D01*
X11166967Y-11276333D01*
X12396666Y-11276333D01*
X12439000Y-11318666D01*
X12481333Y-11276333D01*
X12439000Y-11234000D01*
X12396666Y-11276333D01*
X11166967Y-11276333D01*
X11248567Y-11129861D01*
X11423000Y-10802127D01*
X11670727Y-10326604D01*
X11924993Y-9826827D01*
X12158230Y-9357680D01*
X12342875Y-8974048D01*
X12365580Y-8925323D01*
X12594482Y-8447124D01*
X12779799Y-8105632D01*
X12938695Y-7879493D01*
X13088331Y-7747354D01*
X13245871Y-7687859D01*
X13368067Y-7678000D01*
X13591405Y-7718804D01*
X13756053Y-7849164D01*
X13863694Y-8081002D01*
X13916013Y-8426239D01*
X13914696Y-8896797D01*
X13861426Y-9504597D01*
X13757889Y-10261560D01*
X13744979Y-10345000D01*
X13674448Y-10885910D01*
X13611348Y-11539308D01*
X13560340Y-12248370D01*
X13526087Y-12956273D01*
X13522894Y-13052043D01*
X13472604Y-14658420D01*
X13237481Y-14893543D01*
X12980623Y-15077372D01*
X12695192Y-15128666D01*
X12477974Y-15107051D01*
X12352414Y-15009583D01*
X12267743Y-14840790D01*
X12217582Y-14683097D01*
X12190570Y-14484382D01*
X12185666Y-14210434D01*
X12201828Y-13827040D01*
X12225856Y-13464956D01*
X12261264Y-12999055D01*
X12299027Y-12544273D01*
X12334527Y-12153988D01*
X12362116Y-11890166D01*
X12385659Y-11629655D01*
X12387424Y-11452991D01*
X12372495Y-11403333D01*
X12320535Y-11465698D01*
X12202880Y-11655675D01*
X12017087Y-11977588D01*
X11760713Y-12435762D01*
X11431313Y-13034522D01*
X11026442Y-13778190D01*
X10936934Y-13943333D01*
X10761983Y-14238108D01*
X10577036Y-14506841D01*
X10466510Y-14641833D01*
X10226262Y-14815615D01*
X9968703Y-14874296D01*
X9746798Y-14808757D01*
X9704266Y-14773066D01*
X9662784Y-14646084D01*
X9633013Y-14378652D01*
X9615191Y-13999266D01*
X9609551Y-13536421D01*
X9616332Y-13018610D01*
X9635769Y-12474329D01*
X9668097Y-11932072D01*
X9679504Y-11784333D01*
X9705655Y-11446341D01*
X9723590Y-11180510D01*
X9730810Y-11025746D01*
X9729727Y-11002316D01*
X9694436Y-11065786D01*
X9608869Y-11257771D01*
X9484876Y-11549262D01*
X9334309Y-11911249D01*
X9169019Y-12314725D01*
X9000855Y-12730679D01*
X8841670Y-13130102D01*
X8703314Y-13483985D01*
X8597637Y-13763318D01*
X8566134Y-13850621D01*
X8395405Y-14242023D01*
X8208578Y-14507746D01*
X8147012Y-14562034D01*
X7980211Y-14670666D01*
X7858652Y-14676791D01*
X7702512Y-14589294D01*
X7576438Y-14468351D01*
X7502214Y-14294934D01*
X7482822Y-14056330D01*
X7521242Y-13739827D01*
X7620455Y-13332713D01*
X7783440Y-12822274D01*
X8013179Y-12195799D01*
X8312651Y-11440575D01*
X8608278Y-10726000D01*
X8822867Y-10209158D01*
X9042528Y-9671400D01*
X9246426Y-9164301D01*
X9413723Y-8739437D01*
X9468803Y-8595971D01*
X9628908Y-8205602D01*
X9801661Y-7835008D01*
X9960353Y-7539585D01*
X10030079Y-7431805D01*
X10207229Y-7215727D01*
X10364617Y-7112671D01*
X10560525Y-7085377D01*
X10572063Y-7085333D01*
X10763156Y-7104308D01*
X10763156Y-7104308D01*
G37*
X10763156Y-7104308D02*
X10910945Y-7171677D01*
X11017527Y-7303109D01*
X11084996Y-7514271D01*
X11115448Y-7820830D01*
X11110978Y-8238453D01*
X11073680Y-8782808D01*
X11005650Y-9469563D01*
X10953297Y-9936183D01*
X10878114Y-10599572D01*
X10827300Y-11101937D01*
X10804684Y-11450335D01*
X10814094Y-11651825D01*
X10859359Y-11713464D01*
X10944307Y-11642311D01*
X11072767Y-11445424D01*
X11166967Y-11276333D01*
X12396666Y-11276333D01*
X12439000Y-11318666D01*
X12481333Y-11276333D01*
X12439000Y-11234000D01*
X12396666Y-11276333D01*
X11166967Y-11276333D01*
X11248567Y-11129861D01*
X11423000Y-10802127D01*
X11670727Y-10326604D01*
X11924993Y-9826827D01*
X12158230Y-9357680D01*
X12342875Y-8974048D01*
X12365580Y-8925323D01*
X12594482Y-8447124D01*
X12779799Y-8105632D01*
X12938695Y-7879493D01*
X13088331Y-7747354D01*
X13245871Y-7687859D01*
X13368067Y-7678000D01*
X13591405Y-7718804D01*
X13756053Y-7849164D01*
X13863694Y-8081002D01*
X13916013Y-8426239D01*
X13914696Y-8896797D01*
X13861426Y-9504597D01*
X13757889Y-10261560D01*
X13744979Y-10345000D01*
X13674448Y-10885910D01*
X13611348Y-11539308D01*
X13560340Y-12248370D01*
X13526087Y-12956273D01*
X13522894Y-13052043D01*
X13472604Y-14658420D01*
X13237481Y-14893543D01*
X12980623Y-15077372D01*
X12695192Y-15128666D01*
X12477974Y-15107051D01*
X12352414Y-15009583D01*
X12267743Y-14840790D01*
X12217582Y-14683097D01*
X12190570Y-14484382D01*
X12185666Y-14210434D01*
X12201828Y-13827040D01*
X12225856Y-13464956D01*
X12261264Y-12999055D01*
X12299027Y-12544273D01*
X12334527Y-12153988D01*
X12362116Y-11890166D01*
X12385659Y-11629655D01*
X12387424Y-11452991D01*
X12372495Y-11403333D01*
X12320535Y-11465698D01*
X12202880Y-11655675D01*
X12017087Y-11977588D01*
X11760713Y-12435762D01*
X11431313Y-13034522D01*
X11026442Y-13778190D01*
X10936934Y-13943333D01*
X10761983Y-14238108D01*
X10577036Y-14506841D01*
X10466510Y-14641833D01*
X10226262Y-14815615D01*
X9968703Y-14874296D01*
X9746798Y-14808757D01*
X9704266Y-14773066D01*
X9662784Y-14646084D01*
X9633013Y-14378652D01*
X9615191Y-13999266D01*
X9609551Y-13536421D01*
X9616332Y-13018610D01*
X9635769Y-12474329D01*
X9668097Y-11932072D01*
X9679504Y-11784333D01*
X9705655Y-11446341D01*
X9723590Y-11180510D01*
X9730810Y-11025746D01*
X9729727Y-11002316D01*
X9694436Y-11065786D01*
X9608869Y-11257771D01*
X9484876Y-11549262D01*
X9334309Y-11911249D01*
X9169019Y-12314725D01*
X9000855Y-12730679D01*
X8841670Y-13130102D01*
X8703314Y-13483985D01*
X8597637Y-13763318D01*
X8566134Y-13850621D01*
X8395405Y-14242023D01*
X8208578Y-14507746D01*
X8147012Y-14562034D01*
X7980211Y-14670666D01*
X7858652Y-14676791D01*
X7702512Y-14589294D01*
X7576438Y-14468351D01*
X7502214Y-14294934D01*
X7482822Y-14056330D01*
X7521242Y-13739827D01*
X7620455Y-13332713D01*
X7783440Y-12822274D01*
X8013179Y-12195799D01*
X8312651Y-11440575D01*
X8608278Y-10726000D01*
X8822867Y-10209158D01*
X9042528Y-9671400D01*
X9246426Y-9164301D01*
X9413723Y-8739437D01*
X9468803Y-8595971D01*
X9628908Y-8205602D01*
X9801661Y-7835008D01*
X9960353Y-7539585D01*
X10030079Y-7431805D01*
X10207229Y-7215727D01*
X10364617Y-7112671D01*
X10560525Y-7085377D01*
X10572063Y-7085333D01*
X10763156Y-7104308D01*
D11*
G36*
X15060442Y-18315518D02*
G01*
X15126627Y-18322037D01*
X15296466Y-18373557D01*
X15452991Y-18457222D01*
X15488729Y-18486552D01*
X15590186Y-18569814D01*
X15673448Y-18671271D01*
X15702778Y-18707009D01*
X15786443Y-18863534D01*
X15837963Y-19033373D01*
X15855359Y-19210000D01*
X15837963Y-19386627D01*
X15786443Y-19556466D01*
X15702778Y-19712991D01*
X15673448Y-19748729D01*
X15590186Y-19850186D01*
X15488729Y-19933448D01*
X15452991Y-19962778D01*
X15296466Y-20046443D01*
X15126627Y-20097963D01*
X15060443Y-20104481D01*
X14994260Y-20111000D01*
X14905740Y-20111000D01*
X14839557Y-20104481D01*
X14773373Y-20097963D01*
X14603534Y-20046443D01*
X14447009Y-19962778D01*
X14411271Y-19933448D01*
X14309814Y-19850186D01*
X14226552Y-19748729D01*
X14197222Y-19712991D01*
X14113557Y-19556466D01*
X14062037Y-19386627D01*
X14044641Y-19210000D01*
X14062037Y-19033373D01*
X14113557Y-18863534D01*
X14197222Y-18707009D01*
X14226552Y-18671271D01*
X14309814Y-18569814D01*
X14411271Y-18486552D01*
X14447009Y-18457222D01*
X14603534Y-18373557D01*
X14773373Y-18322037D01*
X14839558Y-18315518D01*
X14905740Y-18309000D01*
X14994260Y-18309000D01*
X15060442Y-18315518D01*
X15060442Y-18315518D01*
G37*
G36*
X-22249000Y-20111000D02*
G01*
X-24051000Y-20111000D01*
X-24051000Y-18309000D01*
X-22249000Y-18309000D01*
X-22249000Y-20111000D01*
X-22249000Y-20111000D01*
G37*
G36*
X-20499558Y-18315518D02*
G01*
X-20433373Y-18322037D01*
X-20263534Y-18373557D01*
X-20107009Y-18457222D01*
X-20071271Y-18486552D01*
X-19969814Y-18569814D01*
X-19886552Y-18671271D01*
X-19857222Y-18707009D01*
X-19773557Y-18863534D01*
X-19722037Y-19033373D01*
X-19704641Y-19210000D01*
X-19722037Y-19386627D01*
X-19773557Y-19556466D01*
X-19857222Y-19712991D01*
X-19886552Y-19748729D01*
X-19969814Y-19850186D01*
X-20071271Y-19933448D01*
X-20107009Y-19962778D01*
X-20263534Y-20046443D01*
X-20433373Y-20097963D01*
X-20499557Y-20104481D01*
X-20565740Y-20111000D01*
X-20654260Y-20111000D01*
X-20720443Y-20104481D01*
X-20786627Y-20097963D01*
X-20956466Y-20046443D01*
X-21112991Y-19962778D01*
X-21148729Y-19933448D01*
X-21250186Y-19850186D01*
X-21333448Y-19748729D01*
X-21362778Y-19712991D01*
X-21446443Y-19556466D01*
X-21497963Y-19386627D01*
X-21515359Y-19210000D01*
X-21497963Y-19033373D01*
X-21446443Y-18863534D01*
X-21362778Y-18707009D01*
X-21333448Y-18671271D01*
X-21250186Y-18569814D01*
X-21148729Y-18486552D01*
X-21112991Y-18457222D01*
X-20956466Y-18373557D01*
X-20786627Y-18322037D01*
X-20720442Y-18315518D01*
X-20654260Y-18309000D01*
X-20565740Y-18309000D01*
X-20499558Y-18315518D01*
X-20499558Y-18315518D01*
G37*
G36*
X-17959558Y-18315518D02*
G01*
X-17893373Y-18322037D01*
X-17723534Y-18373557D01*
X-17567009Y-18457222D01*
X-17531271Y-18486552D01*
X-17429814Y-18569814D01*
X-17346552Y-18671271D01*
X-17317222Y-18707009D01*
X-17233557Y-18863534D01*
X-17182037Y-19033373D01*
X-17164641Y-19210000D01*
X-17182037Y-19386627D01*
X-17233557Y-19556466D01*
X-17317222Y-19712991D01*
X-17346552Y-19748729D01*
X-17429814Y-19850186D01*
X-17531271Y-19933448D01*
X-17567009Y-19962778D01*
X-17723534Y-20046443D01*
X-17893373Y-20097963D01*
X-17959557Y-20104481D01*
X-18025740Y-20111000D01*
X-18114260Y-20111000D01*
X-18180443Y-20104481D01*
X-18246627Y-20097963D01*
X-18416466Y-20046443D01*
X-18572991Y-19962778D01*
X-18608729Y-19933448D01*
X-18710186Y-19850186D01*
X-18793448Y-19748729D01*
X-18822778Y-19712991D01*
X-18906443Y-19556466D01*
X-18957963Y-19386627D01*
X-18975359Y-19210000D01*
X-18957963Y-19033373D01*
X-18906443Y-18863534D01*
X-18822778Y-18707009D01*
X-18793448Y-18671271D01*
X-18710186Y-18569814D01*
X-18608729Y-18486552D01*
X-18572991Y-18457222D01*
X-18416466Y-18373557D01*
X-18246627Y-18322037D01*
X-18180442Y-18315518D01*
X-18114260Y-18309000D01*
X-18025740Y-18309000D01*
X-17959558Y-18315518D01*
X-17959558Y-18315518D01*
G37*
G36*
X-15419558Y-18315518D02*
G01*
X-15353373Y-18322037D01*
X-15183534Y-18373557D01*
X-15027009Y-18457222D01*
X-14991271Y-18486552D01*
X-14889814Y-18569814D01*
X-14806552Y-18671271D01*
X-14777222Y-18707009D01*
X-14693557Y-18863534D01*
X-14642037Y-19033373D01*
X-14624641Y-19210000D01*
X-14642037Y-19386627D01*
X-14693557Y-19556466D01*
X-14777222Y-19712991D01*
X-14806552Y-19748729D01*
X-14889814Y-19850186D01*
X-14991271Y-19933448D01*
X-15027009Y-19962778D01*
X-15183534Y-20046443D01*
X-15353373Y-20097963D01*
X-15419557Y-20104481D01*
X-15485740Y-20111000D01*
X-15574260Y-20111000D01*
X-15640443Y-20104481D01*
X-15706627Y-20097963D01*
X-15876466Y-20046443D01*
X-16032991Y-19962778D01*
X-16068729Y-19933448D01*
X-16170186Y-19850186D01*
X-16253448Y-19748729D01*
X-16282778Y-19712991D01*
X-16366443Y-19556466D01*
X-16417963Y-19386627D01*
X-16435359Y-19210000D01*
X-16417963Y-19033373D01*
X-16366443Y-18863534D01*
X-16282778Y-18707009D01*
X-16253448Y-18671271D01*
X-16170186Y-18569814D01*
X-16068729Y-18486552D01*
X-16032991Y-18457222D01*
X-15876466Y-18373557D01*
X-15706627Y-18322037D01*
X-15640442Y-18315518D01*
X-15574260Y-18309000D01*
X-15485740Y-18309000D01*
X-15419558Y-18315518D01*
X-15419558Y-18315518D01*
G37*
G36*
X-12879558Y-18315518D02*
G01*
X-12813373Y-18322037D01*
X-12643534Y-18373557D01*
X-12487009Y-18457222D01*
X-12451271Y-18486552D01*
X-12349814Y-18569814D01*
X-12266552Y-18671271D01*
X-12237222Y-18707009D01*
X-12153557Y-18863534D01*
X-12102037Y-19033373D01*
X-12084641Y-19210000D01*
X-12102037Y-19386627D01*
X-12153557Y-19556466D01*
X-12237222Y-19712991D01*
X-12266552Y-19748729D01*
X-12349814Y-19850186D01*
X-12451271Y-19933448D01*
X-12487009Y-19962778D01*
X-12643534Y-20046443D01*
X-12813373Y-20097963D01*
X-12879557Y-20104481D01*
X-12945740Y-20111000D01*
X-13034260Y-20111000D01*
X-13100443Y-20104481D01*
X-13166627Y-20097963D01*
X-13336466Y-20046443D01*
X-13492991Y-19962778D01*
X-13528729Y-19933448D01*
X-13630186Y-19850186D01*
X-13713448Y-19748729D01*
X-13742778Y-19712991D01*
X-13826443Y-19556466D01*
X-13877963Y-19386627D01*
X-13895359Y-19210000D01*
X-13877963Y-19033373D01*
X-13826443Y-18863534D01*
X-13742778Y-18707009D01*
X-13713448Y-18671271D01*
X-13630186Y-18569814D01*
X-13528729Y-18486552D01*
X-13492991Y-18457222D01*
X-13336466Y-18373557D01*
X-13166627Y-18322037D01*
X-13100442Y-18315518D01*
X-13034260Y-18309000D01*
X-12945740Y-18309000D01*
X-12879558Y-18315518D01*
X-12879558Y-18315518D01*
G37*
G36*
X-10339558Y-18315518D02*
G01*
X-10273373Y-18322037D01*
X-10103534Y-18373557D01*
X-9947009Y-18457222D01*
X-9911271Y-18486552D01*
X-9809814Y-18569814D01*
X-9726552Y-18671271D01*
X-9697222Y-18707009D01*
X-9613557Y-18863534D01*
X-9562037Y-19033373D01*
X-9544641Y-19210000D01*
X-9562037Y-19386627D01*
X-9613557Y-19556466D01*
X-9697222Y-19712991D01*
X-9726552Y-19748729D01*
X-9809814Y-19850186D01*
X-9911271Y-19933448D01*
X-9947009Y-19962778D01*
X-10103534Y-20046443D01*
X-10273373Y-20097963D01*
X-10339557Y-20104481D01*
X-10405740Y-20111000D01*
X-10494260Y-20111000D01*
X-10560443Y-20104481D01*
X-10626627Y-20097963D01*
X-10796466Y-20046443D01*
X-10952991Y-19962778D01*
X-10988729Y-19933448D01*
X-11090186Y-19850186D01*
X-11173448Y-19748729D01*
X-11202778Y-19712991D01*
X-11286443Y-19556466D01*
X-11337963Y-19386627D01*
X-11355359Y-19210000D01*
X-11337963Y-19033373D01*
X-11286443Y-18863534D01*
X-11202778Y-18707009D01*
X-11173448Y-18671271D01*
X-11090186Y-18569814D01*
X-10988729Y-18486552D01*
X-10952991Y-18457222D01*
X-10796466Y-18373557D01*
X-10626627Y-18322037D01*
X-10560442Y-18315518D01*
X-10494260Y-18309000D01*
X-10405740Y-18309000D01*
X-10339558Y-18315518D01*
X-10339558Y-18315518D01*
G37*
G36*
X-7799558Y-18315518D02*
G01*
X-7733373Y-18322037D01*
X-7563534Y-18373557D01*
X-7407009Y-18457222D01*
X-7371271Y-18486552D01*
X-7269814Y-18569814D01*
X-7186552Y-18671271D01*
X-7157222Y-18707009D01*
X-7073557Y-18863534D01*
X-7022037Y-19033373D01*
X-7004641Y-19210000D01*
X-7022037Y-19386627D01*
X-7073557Y-19556466D01*
X-7157222Y-19712991D01*
X-7186552Y-19748729D01*
X-7269814Y-19850186D01*
X-7371271Y-19933448D01*
X-7407009Y-19962778D01*
X-7563534Y-20046443D01*
X-7733373Y-20097963D01*
X-7799557Y-20104481D01*
X-7865740Y-20111000D01*
X-7954260Y-20111000D01*
X-8020443Y-20104481D01*
X-8086627Y-20097963D01*
X-8256466Y-20046443D01*
X-8412991Y-19962778D01*
X-8448729Y-19933448D01*
X-8550186Y-19850186D01*
X-8633448Y-19748729D01*
X-8662778Y-19712991D01*
X-8746443Y-19556466D01*
X-8797963Y-19386627D01*
X-8815359Y-19210000D01*
X-8797963Y-19033373D01*
X-8746443Y-18863534D01*
X-8662778Y-18707009D01*
X-8633448Y-18671271D01*
X-8550186Y-18569814D01*
X-8448729Y-18486552D01*
X-8412991Y-18457222D01*
X-8256466Y-18373557D01*
X-8086627Y-18322037D01*
X-8020442Y-18315518D01*
X-7954260Y-18309000D01*
X-7865740Y-18309000D01*
X-7799558Y-18315518D01*
X-7799558Y-18315518D01*
G37*
G36*
X-2719558Y-18315518D02*
G01*
X-2653373Y-18322037D01*
X-2483534Y-18373557D01*
X-2327009Y-18457222D01*
X-2291271Y-18486552D01*
X-2189814Y-18569814D01*
X-2106552Y-18671271D01*
X-2077222Y-18707009D01*
X-1993557Y-18863534D01*
X-1942037Y-19033373D01*
X-1924641Y-19210000D01*
X-1942037Y-19386627D01*
X-1993557Y-19556466D01*
X-2077222Y-19712991D01*
X-2106552Y-19748729D01*
X-2189814Y-19850186D01*
X-2291271Y-19933448D01*
X-2327009Y-19962778D01*
X-2483534Y-20046443D01*
X-2653373Y-20097963D01*
X-2719557Y-20104481D01*
X-2785740Y-20111000D01*
X-2874260Y-20111000D01*
X-2940443Y-20104481D01*
X-3006627Y-20097963D01*
X-3176466Y-20046443D01*
X-3332991Y-19962778D01*
X-3368729Y-19933448D01*
X-3470186Y-19850186D01*
X-3553448Y-19748729D01*
X-3582778Y-19712991D01*
X-3666443Y-19556466D01*
X-3717963Y-19386627D01*
X-3735359Y-19210000D01*
X-3717963Y-19033373D01*
X-3666443Y-18863534D01*
X-3582778Y-18707009D01*
X-3553448Y-18671271D01*
X-3470186Y-18569814D01*
X-3368729Y-18486552D01*
X-3332991Y-18457222D01*
X-3176466Y-18373557D01*
X-3006627Y-18322037D01*
X-2940442Y-18315518D01*
X-2874260Y-18309000D01*
X-2785740Y-18309000D01*
X-2719558Y-18315518D01*
X-2719558Y-18315518D01*
G37*
G36*
X-179558Y-18315518D02*
G01*
X-113373Y-18322037D01*
X56466Y-18373557D01*
X212991Y-18457222D01*
X248729Y-18486552D01*
X350186Y-18569814D01*
X433448Y-18671271D01*
X462778Y-18707009D01*
X546443Y-18863534D01*
X597963Y-19033373D01*
X615359Y-19210000D01*
X597963Y-19386627D01*
X546443Y-19556466D01*
X462778Y-19712991D01*
X433448Y-19748729D01*
X350186Y-19850186D01*
X248729Y-19933448D01*
X212991Y-19962778D01*
X56466Y-20046443D01*
X-113373Y-20097963D01*
X-179557Y-20104481D01*
X-245740Y-20111000D01*
X-334260Y-20111000D01*
X-400443Y-20104481D01*
X-466627Y-20097963D01*
X-636466Y-20046443D01*
X-792991Y-19962778D01*
X-828729Y-19933448D01*
X-930186Y-19850186D01*
X-1013448Y-19748729D01*
X-1042778Y-19712991D01*
X-1126443Y-19556466D01*
X-1177963Y-19386627D01*
X-1195359Y-19210000D01*
X-1177963Y-19033373D01*
X-1126443Y-18863534D01*
X-1042778Y-18707009D01*
X-1013448Y-18671271D01*
X-930186Y-18569814D01*
X-828729Y-18486552D01*
X-792991Y-18457222D01*
X-636466Y-18373557D01*
X-466627Y-18322037D01*
X-400442Y-18315518D01*
X-334260Y-18309000D01*
X-245740Y-18309000D01*
X-179558Y-18315518D01*
X-179558Y-18315518D01*
G37*
G36*
X2360442Y-18315518D02*
G01*
X2426627Y-18322037D01*
X2596466Y-18373557D01*
X2752991Y-18457222D01*
X2788729Y-18486552D01*
X2890186Y-18569814D01*
X2973448Y-18671271D01*
X3002778Y-18707009D01*
X3086443Y-18863534D01*
X3137963Y-19033373D01*
X3155359Y-19210000D01*
X3137963Y-19386627D01*
X3086443Y-19556466D01*
X3002778Y-19712991D01*
X2973448Y-19748729D01*
X2890186Y-19850186D01*
X2788729Y-19933448D01*
X2752991Y-19962778D01*
X2596466Y-20046443D01*
X2426627Y-20097963D01*
X2360443Y-20104481D01*
X2294260Y-20111000D01*
X2205740Y-20111000D01*
X2139557Y-20104481D01*
X2073373Y-20097963D01*
X1903534Y-20046443D01*
X1747009Y-19962778D01*
X1711271Y-19933448D01*
X1609814Y-19850186D01*
X1526552Y-19748729D01*
X1497222Y-19712991D01*
X1413557Y-19556466D01*
X1362037Y-19386627D01*
X1344641Y-19210000D01*
X1362037Y-19033373D01*
X1413557Y-18863534D01*
X1497222Y-18707009D01*
X1526552Y-18671271D01*
X1609814Y-18569814D01*
X1711271Y-18486552D01*
X1747009Y-18457222D01*
X1903534Y-18373557D01*
X2073373Y-18322037D01*
X2139558Y-18315518D01*
X2205740Y-18309000D01*
X2294260Y-18309000D01*
X2360442Y-18315518D01*
X2360442Y-18315518D01*
G37*
G36*
X4900442Y-18315518D02*
G01*
X4966627Y-18322037D01*
X5136466Y-18373557D01*
X5292991Y-18457222D01*
X5328729Y-18486552D01*
X5430186Y-18569814D01*
X5513448Y-18671271D01*
X5542778Y-18707009D01*
X5626443Y-18863534D01*
X5677963Y-19033373D01*
X5695359Y-19210000D01*
X5677963Y-19386627D01*
X5626443Y-19556466D01*
X5542778Y-19712991D01*
X5513448Y-19748729D01*
X5430186Y-19850186D01*
X5328729Y-19933448D01*
X5292991Y-19962778D01*
X5136466Y-20046443D01*
X4966627Y-20097963D01*
X4900443Y-20104481D01*
X4834260Y-20111000D01*
X4745740Y-20111000D01*
X4679557Y-20104481D01*
X4613373Y-20097963D01*
X4443534Y-20046443D01*
X4287009Y-19962778D01*
X4251271Y-19933448D01*
X4149814Y-19850186D01*
X4066552Y-19748729D01*
X4037222Y-19712991D01*
X3953557Y-19556466D01*
X3902037Y-19386627D01*
X3884641Y-19210000D01*
X3902037Y-19033373D01*
X3953557Y-18863534D01*
X4037222Y-18707009D01*
X4066552Y-18671271D01*
X4149814Y-18569814D01*
X4251271Y-18486552D01*
X4287009Y-18457222D01*
X4443534Y-18373557D01*
X4613373Y-18322037D01*
X4679558Y-18315518D01*
X4745740Y-18309000D01*
X4834260Y-18309000D01*
X4900442Y-18315518D01*
X4900442Y-18315518D01*
G37*
G36*
X7440442Y-18315518D02*
G01*
X7506627Y-18322037D01*
X7676466Y-18373557D01*
X7832991Y-18457222D01*
X7868729Y-18486552D01*
X7970186Y-18569814D01*
X8053448Y-18671271D01*
X8082778Y-18707009D01*
X8166443Y-18863534D01*
X8217963Y-19033373D01*
X8235359Y-19210000D01*
X8217963Y-19386627D01*
X8166443Y-19556466D01*
X8082778Y-19712991D01*
X8053448Y-19748729D01*
X7970186Y-19850186D01*
X7868729Y-19933448D01*
X7832991Y-19962778D01*
X7676466Y-20046443D01*
X7506627Y-20097963D01*
X7440443Y-20104481D01*
X7374260Y-20111000D01*
X7285740Y-20111000D01*
X7219557Y-20104481D01*
X7153373Y-20097963D01*
X6983534Y-20046443D01*
X6827009Y-19962778D01*
X6791271Y-19933448D01*
X6689814Y-19850186D01*
X6606552Y-19748729D01*
X6577222Y-19712991D01*
X6493557Y-19556466D01*
X6442037Y-19386627D01*
X6424641Y-19210000D01*
X6442037Y-19033373D01*
X6493557Y-18863534D01*
X6577222Y-18707009D01*
X6606552Y-18671271D01*
X6689814Y-18569814D01*
X6791271Y-18486552D01*
X6827009Y-18457222D01*
X6983534Y-18373557D01*
X7153373Y-18322037D01*
X7219558Y-18315518D01*
X7285740Y-18309000D01*
X7374260Y-18309000D01*
X7440442Y-18315518D01*
X7440442Y-18315518D01*
G37*
G36*
X9980442Y-18315518D02*
G01*
X10046627Y-18322037D01*
X10216466Y-18373557D01*
X10372991Y-18457222D01*
X10408729Y-18486552D01*
X10510186Y-18569814D01*
X10593448Y-18671271D01*
X10622778Y-18707009D01*
X10706443Y-18863534D01*
X10757963Y-19033373D01*
X10775359Y-19210000D01*
X10757963Y-19386627D01*
X10706443Y-19556466D01*
X10622778Y-19712991D01*
X10593448Y-19748729D01*
X10510186Y-19850186D01*
X10408729Y-19933448D01*
X10372991Y-19962778D01*
X10216466Y-20046443D01*
X10046627Y-20097963D01*
X9980443Y-20104481D01*
X9914260Y-20111000D01*
X9825740Y-20111000D01*
X9759557Y-20104481D01*
X9693373Y-20097963D01*
X9523534Y-20046443D01*
X9367009Y-19962778D01*
X9331271Y-19933448D01*
X9229814Y-19850186D01*
X9146552Y-19748729D01*
X9117222Y-19712991D01*
X9033557Y-19556466D01*
X8982037Y-19386627D01*
X8964641Y-19210000D01*
X8982037Y-19033373D01*
X9033557Y-18863534D01*
X9117222Y-18707009D01*
X9146552Y-18671271D01*
X9229814Y-18569814D01*
X9331271Y-18486552D01*
X9367009Y-18457222D01*
X9523534Y-18373557D01*
X9693373Y-18322037D01*
X9759558Y-18315518D01*
X9825740Y-18309000D01*
X9914260Y-18309000D01*
X9980442Y-18315518D01*
X9980442Y-18315518D01*
G37*
G36*
X12520442Y-18315518D02*
G01*
X12586627Y-18322037D01*
X12756466Y-18373557D01*
X12912991Y-18457222D01*
X12948729Y-18486552D01*
X13050186Y-18569814D01*
X13133448Y-18671271D01*
X13162778Y-18707009D01*
X13246443Y-18863534D01*
X13297963Y-19033373D01*
X13315359Y-19210000D01*
X13297963Y-19386627D01*
X13246443Y-19556466D01*
X13162778Y-19712991D01*
X13133448Y-19748729D01*
X13050186Y-19850186D01*
X12948729Y-19933448D01*
X12912991Y-19962778D01*
X12756466Y-20046443D01*
X12586627Y-20097963D01*
X12520443Y-20104481D01*
X12454260Y-20111000D01*
X12365740Y-20111000D01*
X12299557Y-20104481D01*
X12233373Y-20097963D01*
X12063534Y-20046443D01*
X11907009Y-19962778D01*
X11871271Y-19933448D01*
X11769814Y-19850186D01*
X11686552Y-19748729D01*
X11657222Y-19712991D01*
X11573557Y-19556466D01*
X11522037Y-19386627D01*
X11504641Y-19210000D01*
X11522037Y-19033373D01*
X11573557Y-18863534D01*
X11657222Y-18707009D01*
X11686552Y-18671271D01*
X11769814Y-18569814D01*
X11871271Y-18486552D01*
X11907009Y-18457222D01*
X12063534Y-18373557D01*
X12233373Y-18322037D01*
X12299558Y-18315518D01*
X12365740Y-18309000D01*
X12454260Y-18309000D01*
X12520442Y-18315518D01*
X12520442Y-18315518D01*
G37*
G36*
X-5259558Y-18315518D02*
G01*
X-5193373Y-18322037D01*
X-5023534Y-18373557D01*
X-4867009Y-18457222D01*
X-4831271Y-18486552D01*
X-4729814Y-18569814D01*
X-4646552Y-18671271D01*
X-4617222Y-18707009D01*
X-4533557Y-18863534D01*
X-4482037Y-19033373D01*
X-4464641Y-19210000D01*
X-4482037Y-19386627D01*
X-4533557Y-19556466D01*
X-4617222Y-19712991D01*
X-4646552Y-19748729D01*
X-4729814Y-19850186D01*
X-4831271Y-19933448D01*
X-4867009Y-19962778D01*
X-5023534Y-20046443D01*
X-5193373Y-20097963D01*
X-5259557Y-20104481D01*
X-5325740Y-20111000D01*
X-5414260Y-20111000D01*
X-5480443Y-20104481D01*
X-5546627Y-20097963D01*
X-5716466Y-20046443D01*
X-5872991Y-19962778D01*
X-5908729Y-19933448D01*
X-6010186Y-19850186D01*
X-6093448Y-19748729D01*
X-6122778Y-19712991D01*
X-6206443Y-19556466D01*
X-6257963Y-19386627D01*
X-6275359Y-19210000D01*
X-6257963Y-19033373D01*
X-6206443Y-18863534D01*
X-6122778Y-18707009D01*
X-6093448Y-18671271D01*
X-6010186Y-18569814D01*
X-5908729Y-18486552D01*
X-5872991Y-18457222D01*
X-5716466Y-18373557D01*
X-5546627Y-18322037D01*
X-5480442Y-18315518D01*
X-5414260Y-18309000D01*
X-5325740Y-18309000D01*
X-5259558Y-18315518D01*
X-5259558Y-18315518D01*
G37*
G36*
X-6440706Y-15758633D02*
G01*
X-6268305Y-15810931D01*
X-6109417Y-15895858D01*
X-5970151Y-16010151D01*
X-5855858Y-16149417D01*
X-5770931Y-16308305D01*
X-5718633Y-16480706D01*
X-5700975Y-16660000D01*
X-5718633Y-16839294D01*
X-5770931Y-17011695D01*
X-5855858Y-17170583D01*
X-5970151Y-17309849D01*
X-6109417Y-17424142D01*
X-6268305Y-17509069D01*
X-6440706Y-17561367D01*
X-6575069Y-17574600D01*
X-6664931Y-17574600D01*
X-6799294Y-17561367D01*
X-6971695Y-17509069D01*
X-7130583Y-17424142D01*
X-7269849Y-17309849D01*
X-7384142Y-17170583D01*
X-7469069Y-17011695D01*
X-7521367Y-16839294D01*
X-7539025Y-16660000D01*
X-7521367Y-16480706D01*
X-7469069Y-16308305D01*
X-7384142Y-16149417D01*
X-7269849Y-16010151D01*
X-7130583Y-15895858D01*
X-6971695Y-15810931D01*
X-6799294Y-15758633D01*
X-6664931Y-15745400D01*
X-6575069Y-15745400D01*
X-6440706Y-15758633D01*
X-6440706Y-15758633D01*
G37*
G36*
X-3900706Y-15758633D02*
G01*
X-3728305Y-15810931D01*
X-3569417Y-15895858D01*
X-3430151Y-16010151D01*
X-3315858Y-16149417D01*
X-3230931Y-16308305D01*
X-3178633Y-16480706D01*
X-3160975Y-16660000D01*
X-3178633Y-16839294D01*
X-3230931Y-17011695D01*
X-3315858Y-17170583D01*
X-3430151Y-17309849D01*
X-3569417Y-17424142D01*
X-3728305Y-17509069D01*
X-3900706Y-17561367D01*
X-4035069Y-17574600D01*
X-4124931Y-17574600D01*
X-4259294Y-17561367D01*
X-4431695Y-17509069D01*
X-4590583Y-17424142D01*
X-4729849Y-17309849D01*
X-4844142Y-17170583D01*
X-4929069Y-17011695D01*
X-4981367Y-16839294D01*
X-4999025Y-16660000D01*
X-4981367Y-16480706D01*
X-4929069Y-16308305D01*
X-4844142Y-16149417D01*
X-4729849Y-16010151D01*
X-4590583Y-15895858D01*
X-4431695Y-15810931D01*
X-4259294Y-15758633D01*
X-4124931Y-15745400D01*
X-4035069Y-15745400D01*
X-3900706Y-15758633D01*
X-3900706Y-15758633D01*
G37*
G36*
X-8980706Y-15758633D02*
G01*
X-8808305Y-15810931D01*
X-8649417Y-15895858D01*
X-8510151Y-16010151D01*
X-8395858Y-16149417D01*
X-8310931Y-16308305D01*
X-8258633Y-16480706D01*
X-8240975Y-16660000D01*
X-8258633Y-16839294D01*
X-8310931Y-17011695D01*
X-8395858Y-17170583D01*
X-8510151Y-17309849D01*
X-8649417Y-17424142D01*
X-8808305Y-17509069D01*
X-8980706Y-17561367D01*
X-9115069Y-17574600D01*
X-9204931Y-17574600D01*
X-9339294Y-17561367D01*
X-9511695Y-17509069D01*
X-9670583Y-17424142D01*
X-9809849Y-17309849D01*
X-9924142Y-17170583D01*
X-10009069Y-17011695D01*
X-10061367Y-16839294D01*
X-10079025Y-16660000D01*
X-10061367Y-16480706D01*
X-10009069Y-16308305D01*
X-9924142Y-16149417D01*
X-9809849Y-16010151D01*
X-9670583Y-15895858D01*
X-9511695Y-15810931D01*
X-9339294Y-15758633D01*
X-9204931Y-15745400D01*
X-9115069Y-15745400D01*
X-8980706Y-15758633D01*
X-8980706Y-15758633D01*
G37*
G36*
X-8245400Y-15034600D02*
G01*
X-10074600Y-15034600D01*
X-10074600Y-13205400D01*
X-8245400Y-13205400D01*
X-8245400Y-15034600D01*
X-8245400Y-15034600D01*
G37*
G36*
X-6440706Y-13218633D02*
G01*
X-6268305Y-13270931D01*
X-6109417Y-13355858D01*
X-5970151Y-13470151D01*
X-5855858Y-13609417D01*
X-5770931Y-13768305D01*
X-5718633Y-13940706D01*
X-5700975Y-14120000D01*
X-5718633Y-14299294D01*
X-5770931Y-14471695D01*
X-5855858Y-14630583D01*
X-5970151Y-14769849D01*
X-6109417Y-14884142D01*
X-6268305Y-14969069D01*
X-6440706Y-15021367D01*
X-6575069Y-15034600D01*
X-6664931Y-15034600D01*
X-6799294Y-15021367D01*
X-6971695Y-14969069D01*
X-7130583Y-14884142D01*
X-7269849Y-14769849D01*
X-7384142Y-14630583D01*
X-7469069Y-14471695D01*
X-7521367Y-14299294D01*
X-7539025Y-14120000D01*
X-7521367Y-13940706D01*
X-7469069Y-13768305D01*
X-7384142Y-13609417D01*
X-7269849Y-13470151D01*
X-7130583Y-13355858D01*
X-6971695Y-13270931D01*
X-6799294Y-13218633D01*
X-6664931Y-13205400D01*
X-6575069Y-13205400D01*
X-6440706Y-13218633D01*
X-6440706Y-13218633D01*
G37*
G36*
X-3900706Y-13218633D02*
G01*
X-3728305Y-13270931D01*
X-3569417Y-13355858D01*
X-3430151Y-13470151D01*
X-3315858Y-13609417D01*
X-3230931Y-13768305D01*
X-3178633Y-13940706D01*
X-3160975Y-14120000D01*
X-3178633Y-14299294D01*
X-3230931Y-14471695D01*
X-3315858Y-14630583D01*
X-3430151Y-14769849D01*
X-3569417Y-14884142D01*
X-3728305Y-14969069D01*
X-3900706Y-15021367D01*
X-4035069Y-15034600D01*
X-4124931Y-15034600D01*
X-4259294Y-15021367D01*
X-4431695Y-14969069D01*
X-4590583Y-14884142D01*
X-4729849Y-14769849D01*
X-4844142Y-14630583D01*
X-4929069Y-14471695D01*
X-4981367Y-14299294D01*
X-4999025Y-14120000D01*
X-4981367Y-13940706D01*
X-4929069Y-13768305D01*
X-4844142Y-13609417D01*
X-4729849Y-13470151D01*
X-4590583Y-13355858D01*
X-4431695Y-13270931D01*
X-4259294Y-13218633D01*
X-4124931Y-13205400D01*
X-4035069Y-13205400D01*
X-3900706Y-13218633D01*
X-3900706Y-13218633D01*
G37*
M02*
