G04 #@! TF.GenerationSoftware,KiCad,Pcbnew,(5.1.2)-1*
G04 #@! TF.CreationDate,2019-07-09T23:08:42-04:00*
G04 #@! TF.ProjectId,SPIvSPI_SAO_Black,53504976-5350-4495-9f53-414f5f426c61,0*
G04 #@! TF.SameCoordinates,PX8b5c450PY5b57ca0*
G04 #@! TF.FileFunction,Paste,Bot*
G04 #@! TF.FilePolarity,Positive*
%FSLAX46Y46*%
G04 Gerber Fmt 4.6, Leading zero omitted, Abs format (unit mm)*
G04 Created by KiCad (PCBNEW (5.1.2)-1) date 2019-07-09 23:08:42*
%MOMM*%
%LPD*%
G04 APERTURE LIST*
%ADD10R,2.400000X1.200000*%
%ADD11C,1.200000*%
%ADD12C,0.100000*%
%ADD13R,1.600000X1.600000*%
%ADD14C,0.950000*%
%ADD15C,0.600000*%
G04 APERTURE END LIST*
D10*
X16880000Y-8930000D03*
X16880000Y-14130000D03*
X11020000Y-8700000D03*
X11020000Y-13900000D03*
X5950000Y-7050000D03*
X5950000Y-12250000D03*
X1190000Y-5200000D03*
X1190000Y-10400000D03*
X18370000Y-7960000D03*
X18370000Y-2760000D03*
X15030000Y-5900000D03*
X15030000Y-700000D03*
X11130000Y-5270000D03*
X11130000Y-70000D03*
X7060000Y-4160000D03*
X7060000Y1040000D03*
D11*
X3438504Y-4606402D03*
D12*
G36*
X2105661Y-4453011D02*
G01*
X4360923Y-3632162D01*
X4771347Y-4759793D01*
X2516085Y-5580642D01*
X2105661Y-4453011D01*
X2105661Y-4453011D01*
G37*
D11*
X1660000Y280000D03*
D12*
G36*
X327157Y433391D02*
G01*
X2582419Y1254240D01*
X2992843Y126609D01*
X737581Y-694240D01*
X327157Y433391D01*
X327157Y433391D01*
G37*
D11*
X14100980Y13346651D03*
D12*
G36*
X13610685Y14595495D02*
G01*
X15394232Y12989581D01*
X14591275Y12097807D01*
X12807728Y13703721D01*
X13610685Y14595495D01*
X13610685Y14595495D01*
G37*
D11*
X17580460Y17211005D03*
D12*
G36*
X17090165Y18459849D02*
G01*
X18873712Y16853935D01*
X18070755Y15962161D01*
X16287208Y17568075D01*
X17090165Y18459849D01*
X17090165Y18459849D01*
G37*
D11*
X12826956Y14153044D03*
D12*
G36*
X11554164Y13728780D02*
G01*
X13251220Y15425836D01*
X14099748Y14577308D01*
X12402692Y12880252D01*
X11554164Y13728780D01*
X11554164Y13728780D01*
G37*
D11*
X9150000Y17830000D03*
D12*
G36*
X7877208Y17405736D02*
G01*
X9574264Y19102792D01*
X10422792Y18254264D01*
X8725736Y16557208D01*
X7877208Y17405736D01*
X7877208Y17405736D01*
G37*
D11*
X12379601Y12238059D03*
D12*
G36*
X12342958Y10896919D02*
G01*
X11328674Y13072057D01*
X12416244Y13579199D01*
X13430528Y11404061D01*
X12342958Y10896919D01*
X12342958Y10896919D01*
G37*
D11*
X7666801Y10040445D03*
D12*
G36*
X7630158Y8699305D02*
G01*
X6615874Y10874443D01*
X7703444Y11381585D01*
X8717728Y9206447D01*
X7630158Y8699305D01*
X7630158Y8699305D01*
G37*
D10*
X-1770000Y16150000D03*
X-1770000Y10950000D03*
X-5110000Y14840000D03*
X-5110000Y9640000D03*
D13*
X-13500000Y22410000D03*
X-13500000Y14410000D03*
D12*
G36*
X1170779Y13278856D02*
G01*
X1193834Y13275437D01*
X1216443Y13269773D01*
X1238387Y13261921D01*
X1259457Y13251956D01*
X1279448Y13239974D01*
X1298168Y13226090D01*
X1315438Y13210438D01*
X1331090Y13193168D01*
X1344974Y13174448D01*
X1356956Y13154457D01*
X1366921Y13133387D01*
X1374773Y13111443D01*
X1380437Y13088834D01*
X1383856Y13065779D01*
X1385000Y13042500D01*
X1385000Y12467500D01*
X1383856Y12444221D01*
X1380437Y12421166D01*
X1374773Y12398557D01*
X1366921Y12376613D01*
X1356956Y12355543D01*
X1344974Y12335552D01*
X1331090Y12316832D01*
X1315438Y12299562D01*
X1298168Y12283910D01*
X1279448Y12270026D01*
X1259457Y12258044D01*
X1238387Y12248079D01*
X1216443Y12240227D01*
X1193834Y12234563D01*
X1170779Y12231144D01*
X1147500Y12230000D01*
X672500Y12230000D01*
X649221Y12231144D01*
X626166Y12234563D01*
X603557Y12240227D01*
X581613Y12248079D01*
X560543Y12258044D01*
X540552Y12270026D01*
X521832Y12283910D01*
X504562Y12299562D01*
X488910Y12316832D01*
X475026Y12335552D01*
X463044Y12355543D01*
X453079Y12376613D01*
X445227Y12398557D01*
X439563Y12421166D01*
X436144Y12444221D01*
X435000Y12467500D01*
X435000Y13042500D01*
X436144Y13065779D01*
X439563Y13088834D01*
X445227Y13111443D01*
X453079Y13133387D01*
X463044Y13154457D01*
X475026Y13174448D01*
X488910Y13193168D01*
X504562Y13210438D01*
X521832Y13226090D01*
X540552Y13239974D01*
X560543Y13251956D01*
X581613Y13261921D01*
X603557Y13269773D01*
X626166Y13275437D01*
X649221Y13278856D01*
X672500Y13280000D01*
X1147500Y13280000D01*
X1170779Y13278856D01*
X1170779Y13278856D01*
G37*
D14*
X910000Y12755000D03*
D12*
G36*
X1170779Y11528856D02*
G01*
X1193834Y11525437D01*
X1216443Y11519773D01*
X1238387Y11511921D01*
X1259457Y11501956D01*
X1279448Y11489974D01*
X1298168Y11476090D01*
X1315438Y11460438D01*
X1331090Y11443168D01*
X1344974Y11424448D01*
X1356956Y11404457D01*
X1366921Y11383387D01*
X1374773Y11361443D01*
X1380437Y11338834D01*
X1383856Y11315779D01*
X1385000Y11292500D01*
X1385000Y10717500D01*
X1383856Y10694221D01*
X1380437Y10671166D01*
X1374773Y10648557D01*
X1366921Y10626613D01*
X1356956Y10605543D01*
X1344974Y10585552D01*
X1331090Y10566832D01*
X1315438Y10549562D01*
X1298168Y10533910D01*
X1279448Y10520026D01*
X1259457Y10508044D01*
X1238387Y10498079D01*
X1216443Y10490227D01*
X1193834Y10484563D01*
X1170779Y10481144D01*
X1147500Y10480000D01*
X672500Y10480000D01*
X649221Y10481144D01*
X626166Y10484563D01*
X603557Y10490227D01*
X581613Y10498079D01*
X560543Y10508044D01*
X540552Y10520026D01*
X521832Y10533910D01*
X504562Y10549562D01*
X488910Y10566832D01*
X475026Y10585552D01*
X463044Y10605543D01*
X453079Y10626613D01*
X445227Y10648557D01*
X439563Y10671166D01*
X436144Y10694221D01*
X435000Y10717500D01*
X435000Y11292500D01*
X436144Y11315779D01*
X439563Y11338834D01*
X445227Y11361443D01*
X453079Y11383387D01*
X463044Y11404457D01*
X475026Y11424448D01*
X488910Y11443168D01*
X504562Y11460438D01*
X521832Y11476090D01*
X540552Y11489974D01*
X560543Y11501956D01*
X581613Y11511921D01*
X603557Y11519773D01*
X626166Y11525437D01*
X649221Y11528856D01*
X672500Y11530000D01*
X1147500Y11530000D01*
X1170779Y11528856D01*
X1170779Y11528856D01*
G37*
D14*
X910000Y11005000D03*
D12*
G36*
X-6735297Y-4015722D02*
G01*
X-6720736Y-4017882D01*
X-6706457Y-4021459D01*
X-6692597Y-4026418D01*
X-6679290Y-4032712D01*
X-6666664Y-4040280D01*
X-6654841Y-4049048D01*
X-6643934Y-4058934D01*
X-6634048Y-4069841D01*
X-6625280Y-4081664D01*
X-6617712Y-4094290D01*
X-6611418Y-4107597D01*
X-6606459Y-4121457D01*
X-6602882Y-4135736D01*
X-6600722Y-4150297D01*
X-6600000Y-4165000D01*
X-6600000Y-4465000D01*
X-6600722Y-4479703D01*
X-6602882Y-4494264D01*
X-6606459Y-4508543D01*
X-6611418Y-4522403D01*
X-6617712Y-4535710D01*
X-6625280Y-4548336D01*
X-6634048Y-4560159D01*
X-6643934Y-4571066D01*
X-6654841Y-4580952D01*
X-6666664Y-4589720D01*
X-6679290Y-4597288D01*
X-6692597Y-4603582D01*
X-6706457Y-4608541D01*
X-6720736Y-4612118D01*
X-6735297Y-4614278D01*
X-6750000Y-4615000D01*
X-8400000Y-4615000D01*
X-8414703Y-4614278D01*
X-8429264Y-4612118D01*
X-8443543Y-4608541D01*
X-8457403Y-4603582D01*
X-8470710Y-4597288D01*
X-8483336Y-4589720D01*
X-8495159Y-4580952D01*
X-8506066Y-4571066D01*
X-8515952Y-4560159D01*
X-8524720Y-4548336D01*
X-8532288Y-4535710D01*
X-8538582Y-4522403D01*
X-8543541Y-4508543D01*
X-8547118Y-4494264D01*
X-8549278Y-4479703D01*
X-8550000Y-4465000D01*
X-8550000Y-4165000D01*
X-8549278Y-4150297D01*
X-8547118Y-4135736D01*
X-8543541Y-4121457D01*
X-8538582Y-4107597D01*
X-8532288Y-4094290D01*
X-8524720Y-4081664D01*
X-8515952Y-4069841D01*
X-8506066Y-4058934D01*
X-8495159Y-4049048D01*
X-8483336Y-4040280D01*
X-8470710Y-4032712D01*
X-8457403Y-4026418D01*
X-8443543Y-4021459D01*
X-8429264Y-4017882D01*
X-8414703Y-4015722D01*
X-8400000Y-4015000D01*
X-6750000Y-4015000D01*
X-6735297Y-4015722D01*
X-6735297Y-4015722D01*
G37*
D15*
X-7575000Y-4315000D03*
D12*
G36*
X-6735297Y-2745722D02*
G01*
X-6720736Y-2747882D01*
X-6706457Y-2751459D01*
X-6692597Y-2756418D01*
X-6679290Y-2762712D01*
X-6666664Y-2770280D01*
X-6654841Y-2779048D01*
X-6643934Y-2788934D01*
X-6634048Y-2799841D01*
X-6625280Y-2811664D01*
X-6617712Y-2824290D01*
X-6611418Y-2837597D01*
X-6606459Y-2851457D01*
X-6602882Y-2865736D01*
X-6600722Y-2880297D01*
X-6600000Y-2895000D01*
X-6600000Y-3195000D01*
X-6600722Y-3209703D01*
X-6602882Y-3224264D01*
X-6606459Y-3238543D01*
X-6611418Y-3252403D01*
X-6617712Y-3265710D01*
X-6625280Y-3278336D01*
X-6634048Y-3290159D01*
X-6643934Y-3301066D01*
X-6654841Y-3310952D01*
X-6666664Y-3319720D01*
X-6679290Y-3327288D01*
X-6692597Y-3333582D01*
X-6706457Y-3338541D01*
X-6720736Y-3342118D01*
X-6735297Y-3344278D01*
X-6750000Y-3345000D01*
X-8400000Y-3345000D01*
X-8414703Y-3344278D01*
X-8429264Y-3342118D01*
X-8443543Y-3338541D01*
X-8457403Y-3333582D01*
X-8470710Y-3327288D01*
X-8483336Y-3319720D01*
X-8495159Y-3310952D01*
X-8506066Y-3301066D01*
X-8515952Y-3290159D01*
X-8524720Y-3278336D01*
X-8532288Y-3265710D01*
X-8538582Y-3252403D01*
X-8543541Y-3238543D01*
X-8547118Y-3224264D01*
X-8549278Y-3209703D01*
X-8550000Y-3195000D01*
X-8550000Y-2895000D01*
X-8549278Y-2880297D01*
X-8547118Y-2865736D01*
X-8543541Y-2851457D01*
X-8538582Y-2837597D01*
X-8532288Y-2824290D01*
X-8524720Y-2811664D01*
X-8515952Y-2799841D01*
X-8506066Y-2788934D01*
X-8495159Y-2779048D01*
X-8483336Y-2770280D01*
X-8470710Y-2762712D01*
X-8457403Y-2756418D01*
X-8443543Y-2751459D01*
X-8429264Y-2747882D01*
X-8414703Y-2745722D01*
X-8400000Y-2745000D01*
X-6750000Y-2745000D01*
X-6735297Y-2745722D01*
X-6735297Y-2745722D01*
G37*
D15*
X-7575000Y-3045000D03*
D12*
G36*
X-6735297Y-1475722D02*
G01*
X-6720736Y-1477882D01*
X-6706457Y-1481459D01*
X-6692597Y-1486418D01*
X-6679290Y-1492712D01*
X-6666664Y-1500280D01*
X-6654841Y-1509048D01*
X-6643934Y-1518934D01*
X-6634048Y-1529841D01*
X-6625280Y-1541664D01*
X-6617712Y-1554290D01*
X-6611418Y-1567597D01*
X-6606459Y-1581457D01*
X-6602882Y-1595736D01*
X-6600722Y-1610297D01*
X-6600000Y-1625000D01*
X-6600000Y-1925000D01*
X-6600722Y-1939703D01*
X-6602882Y-1954264D01*
X-6606459Y-1968543D01*
X-6611418Y-1982403D01*
X-6617712Y-1995710D01*
X-6625280Y-2008336D01*
X-6634048Y-2020159D01*
X-6643934Y-2031066D01*
X-6654841Y-2040952D01*
X-6666664Y-2049720D01*
X-6679290Y-2057288D01*
X-6692597Y-2063582D01*
X-6706457Y-2068541D01*
X-6720736Y-2072118D01*
X-6735297Y-2074278D01*
X-6750000Y-2075000D01*
X-8400000Y-2075000D01*
X-8414703Y-2074278D01*
X-8429264Y-2072118D01*
X-8443543Y-2068541D01*
X-8457403Y-2063582D01*
X-8470710Y-2057288D01*
X-8483336Y-2049720D01*
X-8495159Y-2040952D01*
X-8506066Y-2031066D01*
X-8515952Y-2020159D01*
X-8524720Y-2008336D01*
X-8532288Y-1995710D01*
X-8538582Y-1982403D01*
X-8543541Y-1968543D01*
X-8547118Y-1954264D01*
X-8549278Y-1939703D01*
X-8550000Y-1925000D01*
X-8550000Y-1625000D01*
X-8549278Y-1610297D01*
X-8547118Y-1595736D01*
X-8543541Y-1581457D01*
X-8538582Y-1567597D01*
X-8532288Y-1554290D01*
X-8524720Y-1541664D01*
X-8515952Y-1529841D01*
X-8506066Y-1518934D01*
X-8495159Y-1509048D01*
X-8483336Y-1500280D01*
X-8470710Y-1492712D01*
X-8457403Y-1486418D01*
X-8443543Y-1481459D01*
X-8429264Y-1477882D01*
X-8414703Y-1475722D01*
X-8400000Y-1475000D01*
X-6750000Y-1475000D01*
X-6735297Y-1475722D01*
X-6735297Y-1475722D01*
G37*
D15*
X-7575000Y-1775000D03*
D12*
G36*
X-6735297Y-205722D02*
G01*
X-6720736Y-207882D01*
X-6706457Y-211459D01*
X-6692597Y-216418D01*
X-6679290Y-222712D01*
X-6666664Y-230280D01*
X-6654841Y-239048D01*
X-6643934Y-248934D01*
X-6634048Y-259841D01*
X-6625280Y-271664D01*
X-6617712Y-284290D01*
X-6611418Y-297597D01*
X-6606459Y-311457D01*
X-6602882Y-325736D01*
X-6600722Y-340297D01*
X-6600000Y-355000D01*
X-6600000Y-655000D01*
X-6600722Y-669703D01*
X-6602882Y-684264D01*
X-6606459Y-698543D01*
X-6611418Y-712403D01*
X-6617712Y-725710D01*
X-6625280Y-738336D01*
X-6634048Y-750159D01*
X-6643934Y-761066D01*
X-6654841Y-770952D01*
X-6666664Y-779720D01*
X-6679290Y-787288D01*
X-6692597Y-793582D01*
X-6706457Y-798541D01*
X-6720736Y-802118D01*
X-6735297Y-804278D01*
X-6750000Y-805000D01*
X-8400000Y-805000D01*
X-8414703Y-804278D01*
X-8429264Y-802118D01*
X-8443543Y-798541D01*
X-8457403Y-793582D01*
X-8470710Y-787288D01*
X-8483336Y-779720D01*
X-8495159Y-770952D01*
X-8506066Y-761066D01*
X-8515952Y-750159D01*
X-8524720Y-738336D01*
X-8532288Y-725710D01*
X-8538582Y-712403D01*
X-8543541Y-698543D01*
X-8547118Y-684264D01*
X-8549278Y-669703D01*
X-8550000Y-655000D01*
X-8550000Y-355000D01*
X-8549278Y-340297D01*
X-8547118Y-325736D01*
X-8543541Y-311457D01*
X-8538582Y-297597D01*
X-8532288Y-284290D01*
X-8524720Y-271664D01*
X-8515952Y-259841D01*
X-8506066Y-248934D01*
X-8495159Y-239048D01*
X-8483336Y-230280D01*
X-8470710Y-222712D01*
X-8457403Y-216418D01*
X-8443543Y-211459D01*
X-8429264Y-207882D01*
X-8414703Y-205722D01*
X-8400000Y-205000D01*
X-6750000Y-205000D01*
X-6735297Y-205722D01*
X-6735297Y-205722D01*
G37*
D15*
X-7575000Y-505000D03*
D12*
G36*
X-6735297Y1064278D02*
G01*
X-6720736Y1062118D01*
X-6706457Y1058541D01*
X-6692597Y1053582D01*
X-6679290Y1047288D01*
X-6666664Y1039720D01*
X-6654841Y1030952D01*
X-6643934Y1021066D01*
X-6634048Y1010159D01*
X-6625280Y998336D01*
X-6617712Y985710D01*
X-6611418Y972403D01*
X-6606459Y958543D01*
X-6602882Y944264D01*
X-6600722Y929703D01*
X-6600000Y915000D01*
X-6600000Y615000D01*
X-6600722Y600297D01*
X-6602882Y585736D01*
X-6606459Y571457D01*
X-6611418Y557597D01*
X-6617712Y544290D01*
X-6625280Y531664D01*
X-6634048Y519841D01*
X-6643934Y508934D01*
X-6654841Y499048D01*
X-6666664Y490280D01*
X-6679290Y482712D01*
X-6692597Y476418D01*
X-6706457Y471459D01*
X-6720736Y467882D01*
X-6735297Y465722D01*
X-6750000Y465000D01*
X-8400000Y465000D01*
X-8414703Y465722D01*
X-8429264Y467882D01*
X-8443543Y471459D01*
X-8457403Y476418D01*
X-8470710Y482712D01*
X-8483336Y490280D01*
X-8495159Y499048D01*
X-8506066Y508934D01*
X-8515952Y519841D01*
X-8524720Y531664D01*
X-8532288Y544290D01*
X-8538582Y557597D01*
X-8543541Y571457D01*
X-8547118Y585736D01*
X-8549278Y600297D01*
X-8550000Y615000D01*
X-8550000Y915000D01*
X-8549278Y929703D01*
X-8547118Y944264D01*
X-8543541Y958543D01*
X-8538582Y972403D01*
X-8532288Y985710D01*
X-8524720Y998336D01*
X-8515952Y1010159D01*
X-8506066Y1021066D01*
X-8495159Y1030952D01*
X-8483336Y1039720D01*
X-8470710Y1047288D01*
X-8457403Y1053582D01*
X-8443543Y1058541D01*
X-8429264Y1062118D01*
X-8414703Y1064278D01*
X-8400000Y1065000D01*
X-6750000Y1065000D01*
X-6735297Y1064278D01*
X-6735297Y1064278D01*
G37*
D15*
X-7575000Y765000D03*
D12*
G36*
X-6735297Y2334278D02*
G01*
X-6720736Y2332118D01*
X-6706457Y2328541D01*
X-6692597Y2323582D01*
X-6679290Y2317288D01*
X-6666664Y2309720D01*
X-6654841Y2300952D01*
X-6643934Y2291066D01*
X-6634048Y2280159D01*
X-6625280Y2268336D01*
X-6617712Y2255710D01*
X-6611418Y2242403D01*
X-6606459Y2228543D01*
X-6602882Y2214264D01*
X-6600722Y2199703D01*
X-6600000Y2185000D01*
X-6600000Y1885000D01*
X-6600722Y1870297D01*
X-6602882Y1855736D01*
X-6606459Y1841457D01*
X-6611418Y1827597D01*
X-6617712Y1814290D01*
X-6625280Y1801664D01*
X-6634048Y1789841D01*
X-6643934Y1778934D01*
X-6654841Y1769048D01*
X-6666664Y1760280D01*
X-6679290Y1752712D01*
X-6692597Y1746418D01*
X-6706457Y1741459D01*
X-6720736Y1737882D01*
X-6735297Y1735722D01*
X-6750000Y1735000D01*
X-8400000Y1735000D01*
X-8414703Y1735722D01*
X-8429264Y1737882D01*
X-8443543Y1741459D01*
X-8457403Y1746418D01*
X-8470710Y1752712D01*
X-8483336Y1760280D01*
X-8495159Y1769048D01*
X-8506066Y1778934D01*
X-8515952Y1789841D01*
X-8524720Y1801664D01*
X-8532288Y1814290D01*
X-8538582Y1827597D01*
X-8543541Y1841457D01*
X-8547118Y1855736D01*
X-8549278Y1870297D01*
X-8550000Y1885000D01*
X-8550000Y2185000D01*
X-8549278Y2199703D01*
X-8547118Y2214264D01*
X-8543541Y2228543D01*
X-8538582Y2242403D01*
X-8532288Y2255710D01*
X-8524720Y2268336D01*
X-8515952Y2280159D01*
X-8506066Y2291066D01*
X-8495159Y2300952D01*
X-8483336Y2309720D01*
X-8470710Y2317288D01*
X-8457403Y2323582D01*
X-8443543Y2328541D01*
X-8429264Y2332118D01*
X-8414703Y2334278D01*
X-8400000Y2335000D01*
X-6750000Y2335000D01*
X-6735297Y2334278D01*
X-6735297Y2334278D01*
G37*
D15*
X-7575000Y2035000D03*
D12*
G36*
X-6735297Y3604278D02*
G01*
X-6720736Y3602118D01*
X-6706457Y3598541D01*
X-6692597Y3593582D01*
X-6679290Y3587288D01*
X-6666664Y3579720D01*
X-6654841Y3570952D01*
X-6643934Y3561066D01*
X-6634048Y3550159D01*
X-6625280Y3538336D01*
X-6617712Y3525710D01*
X-6611418Y3512403D01*
X-6606459Y3498543D01*
X-6602882Y3484264D01*
X-6600722Y3469703D01*
X-6600000Y3455000D01*
X-6600000Y3155000D01*
X-6600722Y3140297D01*
X-6602882Y3125736D01*
X-6606459Y3111457D01*
X-6611418Y3097597D01*
X-6617712Y3084290D01*
X-6625280Y3071664D01*
X-6634048Y3059841D01*
X-6643934Y3048934D01*
X-6654841Y3039048D01*
X-6666664Y3030280D01*
X-6679290Y3022712D01*
X-6692597Y3016418D01*
X-6706457Y3011459D01*
X-6720736Y3007882D01*
X-6735297Y3005722D01*
X-6750000Y3005000D01*
X-8400000Y3005000D01*
X-8414703Y3005722D01*
X-8429264Y3007882D01*
X-8443543Y3011459D01*
X-8457403Y3016418D01*
X-8470710Y3022712D01*
X-8483336Y3030280D01*
X-8495159Y3039048D01*
X-8506066Y3048934D01*
X-8515952Y3059841D01*
X-8524720Y3071664D01*
X-8532288Y3084290D01*
X-8538582Y3097597D01*
X-8543541Y3111457D01*
X-8547118Y3125736D01*
X-8549278Y3140297D01*
X-8550000Y3155000D01*
X-8550000Y3455000D01*
X-8549278Y3469703D01*
X-8547118Y3484264D01*
X-8543541Y3498543D01*
X-8538582Y3512403D01*
X-8532288Y3525710D01*
X-8524720Y3538336D01*
X-8515952Y3550159D01*
X-8506066Y3561066D01*
X-8495159Y3570952D01*
X-8483336Y3579720D01*
X-8470710Y3587288D01*
X-8457403Y3593582D01*
X-8443543Y3598541D01*
X-8429264Y3602118D01*
X-8414703Y3604278D01*
X-8400000Y3605000D01*
X-6750000Y3605000D01*
X-6735297Y3604278D01*
X-6735297Y3604278D01*
G37*
D15*
X-7575000Y3305000D03*
D12*
G36*
X-6735297Y4874278D02*
G01*
X-6720736Y4872118D01*
X-6706457Y4868541D01*
X-6692597Y4863582D01*
X-6679290Y4857288D01*
X-6666664Y4849720D01*
X-6654841Y4840952D01*
X-6643934Y4831066D01*
X-6634048Y4820159D01*
X-6625280Y4808336D01*
X-6617712Y4795710D01*
X-6611418Y4782403D01*
X-6606459Y4768543D01*
X-6602882Y4754264D01*
X-6600722Y4739703D01*
X-6600000Y4725000D01*
X-6600000Y4425000D01*
X-6600722Y4410297D01*
X-6602882Y4395736D01*
X-6606459Y4381457D01*
X-6611418Y4367597D01*
X-6617712Y4354290D01*
X-6625280Y4341664D01*
X-6634048Y4329841D01*
X-6643934Y4318934D01*
X-6654841Y4309048D01*
X-6666664Y4300280D01*
X-6679290Y4292712D01*
X-6692597Y4286418D01*
X-6706457Y4281459D01*
X-6720736Y4277882D01*
X-6735297Y4275722D01*
X-6750000Y4275000D01*
X-8400000Y4275000D01*
X-8414703Y4275722D01*
X-8429264Y4277882D01*
X-8443543Y4281459D01*
X-8457403Y4286418D01*
X-8470710Y4292712D01*
X-8483336Y4300280D01*
X-8495159Y4309048D01*
X-8506066Y4318934D01*
X-8515952Y4329841D01*
X-8524720Y4341664D01*
X-8532288Y4354290D01*
X-8538582Y4367597D01*
X-8543541Y4381457D01*
X-8547118Y4395736D01*
X-8549278Y4410297D01*
X-8550000Y4425000D01*
X-8550000Y4725000D01*
X-8549278Y4739703D01*
X-8547118Y4754264D01*
X-8543541Y4768543D01*
X-8538582Y4782403D01*
X-8532288Y4795710D01*
X-8524720Y4808336D01*
X-8515952Y4820159D01*
X-8506066Y4831066D01*
X-8495159Y4840952D01*
X-8483336Y4849720D01*
X-8470710Y4857288D01*
X-8457403Y4863582D01*
X-8443543Y4868541D01*
X-8429264Y4872118D01*
X-8414703Y4874278D01*
X-8400000Y4875000D01*
X-6750000Y4875000D01*
X-6735297Y4874278D01*
X-6735297Y4874278D01*
G37*
D15*
X-7575000Y4575000D03*
D12*
G36*
X-11685297Y4874278D02*
G01*
X-11670736Y4872118D01*
X-11656457Y4868541D01*
X-11642597Y4863582D01*
X-11629290Y4857288D01*
X-11616664Y4849720D01*
X-11604841Y4840952D01*
X-11593934Y4831066D01*
X-11584048Y4820159D01*
X-11575280Y4808336D01*
X-11567712Y4795710D01*
X-11561418Y4782403D01*
X-11556459Y4768543D01*
X-11552882Y4754264D01*
X-11550722Y4739703D01*
X-11550000Y4725000D01*
X-11550000Y4425000D01*
X-11550722Y4410297D01*
X-11552882Y4395736D01*
X-11556459Y4381457D01*
X-11561418Y4367597D01*
X-11567712Y4354290D01*
X-11575280Y4341664D01*
X-11584048Y4329841D01*
X-11593934Y4318934D01*
X-11604841Y4309048D01*
X-11616664Y4300280D01*
X-11629290Y4292712D01*
X-11642597Y4286418D01*
X-11656457Y4281459D01*
X-11670736Y4277882D01*
X-11685297Y4275722D01*
X-11700000Y4275000D01*
X-13350000Y4275000D01*
X-13364703Y4275722D01*
X-13379264Y4277882D01*
X-13393543Y4281459D01*
X-13407403Y4286418D01*
X-13420710Y4292712D01*
X-13433336Y4300280D01*
X-13445159Y4309048D01*
X-13456066Y4318934D01*
X-13465952Y4329841D01*
X-13474720Y4341664D01*
X-13482288Y4354290D01*
X-13488582Y4367597D01*
X-13493541Y4381457D01*
X-13497118Y4395736D01*
X-13499278Y4410297D01*
X-13500000Y4425000D01*
X-13500000Y4725000D01*
X-13499278Y4739703D01*
X-13497118Y4754264D01*
X-13493541Y4768543D01*
X-13488582Y4782403D01*
X-13482288Y4795710D01*
X-13474720Y4808336D01*
X-13465952Y4820159D01*
X-13456066Y4831066D01*
X-13445159Y4840952D01*
X-13433336Y4849720D01*
X-13420710Y4857288D01*
X-13407403Y4863582D01*
X-13393543Y4868541D01*
X-13379264Y4872118D01*
X-13364703Y4874278D01*
X-13350000Y4875000D01*
X-11700000Y4875000D01*
X-11685297Y4874278D01*
X-11685297Y4874278D01*
G37*
D15*
X-12525000Y4575000D03*
D12*
G36*
X-11685297Y3604278D02*
G01*
X-11670736Y3602118D01*
X-11656457Y3598541D01*
X-11642597Y3593582D01*
X-11629290Y3587288D01*
X-11616664Y3579720D01*
X-11604841Y3570952D01*
X-11593934Y3561066D01*
X-11584048Y3550159D01*
X-11575280Y3538336D01*
X-11567712Y3525710D01*
X-11561418Y3512403D01*
X-11556459Y3498543D01*
X-11552882Y3484264D01*
X-11550722Y3469703D01*
X-11550000Y3455000D01*
X-11550000Y3155000D01*
X-11550722Y3140297D01*
X-11552882Y3125736D01*
X-11556459Y3111457D01*
X-11561418Y3097597D01*
X-11567712Y3084290D01*
X-11575280Y3071664D01*
X-11584048Y3059841D01*
X-11593934Y3048934D01*
X-11604841Y3039048D01*
X-11616664Y3030280D01*
X-11629290Y3022712D01*
X-11642597Y3016418D01*
X-11656457Y3011459D01*
X-11670736Y3007882D01*
X-11685297Y3005722D01*
X-11700000Y3005000D01*
X-13350000Y3005000D01*
X-13364703Y3005722D01*
X-13379264Y3007882D01*
X-13393543Y3011459D01*
X-13407403Y3016418D01*
X-13420710Y3022712D01*
X-13433336Y3030280D01*
X-13445159Y3039048D01*
X-13456066Y3048934D01*
X-13465952Y3059841D01*
X-13474720Y3071664D01*
X-13482288Y3084290D01*
X-13488582Y3097597D01*
X-13493541Y3111457D01*
X-13497118Y3125736D01*
X-13499278Y3140297D01*
X-13500000Y3155000D01*
X-13500000Y3455000D01*
X-13499278Y3469703D01*
X-13497118Y3484264D01*
X-13493541Y3498543D01*
X-13488582Y3512403D01*
X-13482288Y3525710D01*
X-13474720Y3538336D01*
X-13465952Y3550159D01*
X-13456066Y3561066D01*
X-13445159Y3570952D01*
X-13433336Y3579720D01*
X-13420710Y3587288D01*
X-13407403Y3593582D01*
X-13393543Y3598541D01*
X-13379264Y3602118D01*
X-13364703Y3604278D01*
X-13350000Y3605000D01*
X-11700000Y3605000D01*
X-11685297Y3604278D01*
X-11685297Y3604278D01*
G37*
D15*
X-12525000Y3305000D03*
D12*
G36*
X-11685297Y2334278D02*
G01*
X-11670736Y2332118D01*
X-11656457Y2328541D01*
X-11642597Y2323582D01*
X-11629290Y2317288D01*
X-11616664Y2309720D01*
X-11604841Y2300952D01*
X-11593934Y2291066D01*
X-11584048Y2280159D01*
X-11575280Y2268336D01*
X-11567712Y2255710D01*
X-11561418Y2242403D01*
X-11556459Y2228543D01*
X-11552882Y2214264D01*
X-11550722Y2199703D01*
X-11550000Y2185000D01*
X-11550000Y1885000D01*
X-11550722Y1870297D01*
X-11552882Y1855736D01*
X-11556459Y1841457D01*
X-11561418Y1827597D01*
X-11567712Y1814290D01*
X-11575280Y1801664D01*
X-11584048Y1789841D01*
X-11593934Y1778934D01*
X-11604841Y1769048D01*
X-11616664Y1760280D01*
X-11629290Y1752712D01*
X-11642597Y1746418D01*
X-11656457Y1741459D01*
X-11670736Y1737882D01*
X-11685297Y1735722D01*
X-11700000Y1735000D01*
X-13350000Y1735000D01*
X-13364703Y1735722D01*
X-13379264Y1737882D01*
X-13393543Y1741459D01*
X-13407403Y1746418D01*
X-13420710Y1752712D01*
X-13433336Y1760280D01*
X-13445159Y1769048D01*
X-13456066Y1778934D01*
X-13465952Y1789841D01*
X-13474720Y1801664D01*
X-13482288Y1814290D01*
X-13488582Y1827597D01*
X-13493541Y1841457D01*
X-13497118Y1855736D01*
X-13499278Y1870297D01*
X-13500000Y1885000D01*
X-13500000Y2185000D01*
X-13499278Y2199703D01*
X-13497118Y2214264D01*
X-13493541Y2228543D01*
X-13488582Y2242403D01*
X-13482288Y2255710D01*
X-13474720Y2268336D01*
X-13465952Y2280159D01*
X-13456066Y2291066D01*
X-13445159Y2300952D01*
X-13433336Y2309720D01*
X-13420710Y2317288D01*
X-13407403Y2323582D01*
X-13393543Y2328541D01*
X-13379264Y2332118D01*
X-13364703Y2334278D01*
X-13350000Y2335000D01*
X-11700000Y2335000D01*
X-11685297Y2334278D01*
X-11685297Y2334278D01*
G37*
D15*
X-12525000Y2035000D03*
D12*
G36*
X-11685297Y1064278D02*
G01*
X-11670736Y1062118D01*
X-11656457Y1058541D01*
X-11642597Y1053582D01*
X-11629290Y1047288D01*
X-11616664Y1039720D01*
X-11604841Y1030952D01*
X-11593934Y1021066D01*
X-11584048Y1010159D01*
X-11575280Y998336D01*
X-11567712Y985710D01*
X-11561418Y972403D01*
X-11556459Y958543D01*
X-11552882Y944264D01*
X-11550722Y929703D01*
X-11550000Y915000D01*
X-11550000Y615000D01*
X-11550722Y600297D01*
X-11552882Y585736D01*
X-11556459Y571457D01*
X-11561418Y557597D01*
X-11567712Y544290D01*
X-11575280Y531664D01*
X-11584048Y519841D01*
X-11593934Y508934D01*
X-11604841Y499048D01*
X-11616664Y490280D01*
X-11629290Y482712D01*
X-11642597Y476418D01*
X-11656457Y471459D01*
X-11670736Y467882D01*
X-11685297Y465722D01*
X-11700000Y465000D01*
X-13350000Y465000D01*
X-13364703Y465722D01*
X-13379264Y467882D01*
X-13393543Y471459D01*
X-13407403Y476418D01*
X-13420710Y482712D01*
X-13433336Y490280D01*
X-13445159Y499048D01*
X-13456066Y508934D01*
X-13465952Y519841D01*
X-13474720Y531664D01*
X-13482288Y544290D01*
X-13488582Y557597D01*
X-13493541Y571457D01*
X-13497118Y585736D01*
X-13499278Y600297D01*
X-13500000Y615000D01*
X-13500000Y915000D01*
X-13499278Y929703D01*
X-13497118Y944264D01*
X-13493541Y958543D01*
X-13488582Y972403D01*
X-13482288Y985710D01*
X-13474720Y998336D01*
X-13465952Y1010159D01*
X-13456066Y1021066D01*
X-13445159Y1030952D01*
X-13433336Y1039720D01*
X-13420710Y1047288D01*
X-13407403Y1053582D01*
X-13393543Y1058541D01*
X-13379264Y1062118D01*
X-13364703Y1064278D01*
X-13350000Y1065000D01*
X-11700000Y1065000D01*
X-11685297Y1064278D01*
X-11685297Y1064278D01*
G37*
D15*
X-12525000Y765000D03*
D12*
G36*
X-11685297Y-205722D02*
G01*
X-11670736Y-207882D01*
X-11656457Y-211459D01*
X-11642597Y-216418D01*
X-11629290Y-222712D01*
X-11616664Y-230280D01*
X-11604841Y-239048D01*
X-11593934Y-248934D01*
X-11584048Y-259841D01*
X-11575280Y-271664D01*
X-11567712Y-284290D01*
X-11561418Y-297597D01*
X-11556459Y-311457D01*
X-11552882Y-325736D01*
X-11550722Y-340297D01*
X-11550000Y-355000D01*
X-11550000Y-655000D01*
X-11550722Y-669703D01*
X-11552882Y-684264D01*
X-11556459Y-698543D01*
X-11561418Y-712403D01*
X-11567712Y-725710D01*
X-11575280Y-738336D01*
X-11584048Y-750159D01*
X-11593934Y-761066D01*
X-11604841Y-770952D01*
X-11616664Y-779720D01*
X-11629290Y-787288D01*
X-11642597Y-793582D01*
X-11656457Y-798541D01*
X-11670736Y-802118D01*
X-11685297Y-804278D01*
X-11700000Y-805000D01*
X-13350000Y-805000D01*
X-13364703Y-804278D01*
X-13379264Y-802118D01*
X-13393543Y-798541D01*
X-13407403Y-793582D01*
X-13420710Y-787288D01*
X-13433336Y-779720D01*
X-13445159Y-770952D01*
X-13456066Y-761066D01*
X-13465952Y-750159D01*
X-13474720Y-738336D01*
X-13482288Y-725710D01*
X-13488582Y-712403D01*
X-13493541Y-698543D01*
X-13497118Y-684264D01*
X-13499278Y-669703D01*
X-13500000Y-655000D01*
X-13500000Y-355000D01*
X-13499278Y-340297D01*
X-13497118Y-325736D01*
X-13493541Y-311457D01*
X-13488582Y-297597D01*
X-13482288Y-284290D01*
X-13474720Y-271664D01*
X-13465952Y-259841D01*
X-13456066Y-248934D01*
X-13445159Y-239048D01*
X-13433336Y-230280D01*
X-13420710Y-222712D01*
X-13407403Y-216418D01*
X-13393543Y-211459D01*
X-13379264Y-207882D01*
X-13364703Y-205722D01*
X-13350000Y-205000D01*
X-11700000Y-205000D01*
X-11685297Y-205722D01*
X-11685297Y-205722D01*
G37*
D15*
X-12525000Y-505000D03*
D12*
G36*
X-11685297Y-1475722D02*
G01*
X-11670736Y-1477882D01*
X-11656457Y-1481459D01*
X-11642597Y-1486418D01*
X-11629290Y-1492712D01*
X-11616664Y-1500280D01*
X-11604841Y-1509048D01*
X-11593934Y-1518934D01*
X-11584048Y-1529841D01*
X-11575280Y-1541664D01*
X-11567712Y-1554290D01*
X-11561418Y-1567597D01*
X-11556459Y-1581457D01*
X-11552882Y-1595736D01*
X-11550722Y-1610297D01*
X-11550000Y-1625000D01*
X-11550000Y-1925000D01*
X-11550722Y-1939703D01*
X-11552882Y-1954264D01*
X-11556459Y-1968543D01*
X-11561418Y-1982403D01*
X-11567712Y-1995710D01*
X-11575280Y-2008336D01*
X-11584048Y-2020159D01*
X-11593934Y-2031066D01*
X-11604841Y-2040952D01*
X-11616664Y-2049720D01*
X-11629290Y-2057288D01*
X-11642597Y-2063582D01*
X-11656457Y-2068541D01*
X-11670736Y-2072118D01*
X-11685297Y-2074278D01*
X-11700000Y-2075000D01*
X-13350000Y-2075000D01*
X-13364703Y-2074278D01*
X-13379264Y-2072118D01*
X-13393543Y-2068541D01*
X-13407403Y-2063582D01*
X-13420710Y-2057288D01*
X-13433336Y-2049720D01*
X-13445159Y-2040952D01*
X-13456066Y-2031066D01*
X-13465952Y-2020159D01*
X-13474720Y-2008336D01*
X-13482288Y-1995710D01*
X-13488582Y-1982403D01*
X-13493541Y-1968543D01*
X-13497118Y-1954264D01*
X-13499278Y-1939703D01*
X-13500000Y-1925000D01*
X-13500000Y-1625000D01*
X-13499278Y-1610297D01*
X-13497118Y-1595736D01*
X-13493541Y-1581457D01*
X-13488582Y-1567597D01*
X-13482288Y-1554290D01*
X-13474720Y-1541664D01*
X-13465952Y-1529841D01*
X-13456066Y-1518934D01*
X-13445159Y-1509048D01*
X-13433336Y-1500280D01*
X-13420710Y-1492712D01*
X-13407403Y-1486418D01*
X-13393543Y-1481459D01*
X-13379264Y-1477882D01*
X-13364703Y-1475722D01*
X-13350000Y-1475000D01*
X-11700000Y-1475000D01*
X-11685297Y-1475722D01*
X-11685297Y-1475722D01*
G37*
D15*
X-12525000Y-1775000D03*
D12*
G36*
X-11685297Y-2745722D02*
G01*
X-11670736Y-2747882D01*
X-11656457Y-2751459D01*
X-11642597Y-2756418D01*
X-11629290Y-2762712D01*
X-11616664Y-2770280D01*
X-11604841Y-2779048D01*
X-11593934Y-2788934D01*
X-11584048Y-2799841D01*
X-11575280Y-2811664D01*
X-11567712Y-2824290D01*
X-11561418Y-2837597D01*
X-11556459Y-2851457D01*
X-11552882Y-2865736D01*
X-11550722Y-2880297D01*
X-11550000Y-2895000D01*
X-11550000Y-3195000D01*
X-11550722Y-3209703D01*
X-11552882Y-3224264D01*
X-11556459Y-3238543D01*
X-11561418Y-3252403D01*
X-11567712Y-3265710D01*
X-11575280Y-3278336D01*
X-11584048Y-3290159D01*
X-11593934Y-3301066D01*
X-11604841Y-3310952D01*
X-11616664Y-3319720D01*
X-11629290Y-3327288D01*
X-11642597Y-3333582D01*
X-11656457Y-3338541D01*
X-11670736Y-3342118D01*
X-11685297Y-3344278D01*
X-11700000Y-3345000D01*
X-13350000Y-3345000D01*
X-13364703Y-3344278D01*
X-13379264Y-3342118D01*
X-13393543Y-3338541D01*
X-13407403Y-3333582D01*
X-13420710Y-3327288D01*
X-13433336Y-3319720D01*
X-13445159Y-3310952D01*
X-13456066Y-3301066D01*
X-13465952Y-3290159D01*
X-13474720Y-3278336D01*
X-13482288Y-3265710D01*
X-13488582Y-3252403D01*
X-13493541Y-3238543D01*
X-13497118Y-3224264D01*
X-13499278Y-3209703D01*
X-13500000Y-3195000D01*
X-13500000Y-2895000D01*
X-13499278Y-2880297D01*
X-13497118Y-2865736D01*
X-13493541Y-2851457D01*
X-13488582Y-2837597D01*
X-13482288Y-2824290D01*
X-13474720Y-2811664D01*
X-13465952Y-2799841D01*
X-13456066Y-2788934D01*
X-13445159Y-2779048D01*
X-13433336Y-2770280D01*
X-13420710Y-2762712D01*
X-13407403Y-2756418D01*
X-13393543Y-2751459D01*
X-13379264Y-2747882D01*
X-13364703Y-2745722D01*
X-13350000Y-2745000D01*
X-11700000Y-2745000D01*
X-11685297Y-2745722D01*
X-11685297Y-2745722D01*
G37*
D15*
X-12525000Y-3045000D03*
D12*
G36*
X-11685297Y-4015722D02*
G01*
X-11670736Y-4017882D01*
X-11656457Y-4021459D01*
X-11642597Y-4026418D01*
X-11629290Y-4032712D01*
X-11616664Y-4040280D01*
X-11604841Y-4049048D01*
X-11593934Y-4058934D01*
X-11584048Y-4069841D01*
X-11575280Y-4081664D01*
X-11567712Y-4094290D01*
X-11561418Y-4107597D01*
X-11556459Y-4121457D01*
X-11552882Y-4135736D01*
X-11550722Y-4150297D01*
X-11550000Y-4165000D01*
X-11550000Y-4465000D01*
X-11550722Y-4479703D01*
X-11552882Y-4494264D01*
X-11556459Y-4508543D01*
X-11561418Y-4522403D01*
X-11567712Y-4535710D01*
X-11575280Y-4548336D01*
X-11584048Y-4560159D01*
X-11593934Y-4571066D01*
X-11604841Y-4580952D01*
X-11616664Y-4589720D01*
X-11629290Y-4597288D01*
X-11642597Y-4603582D01*
X-11656457Y-4608541D01*
X-11670736Y-4612118D01*
X-11685297Y-4614278D01*
X-11700000Y-4615000D01*
X-13350000Y-4615000D01*
X-13364703Y-4614278D01*
X-13379264Y-4612118D01*
X-13393543Y-4608541D01*
X-13407403Y-4603582D01*
X-13420710Y-4597288D01*
X-13433336Y-4589720D01*
X-13445159Y-4580952D01*
X-13456066Y-4571066D01*
X-13465952Y-4560159D01*
X-13474720Y-4548336D01*
X-13482288Y-4535710D01*
X-13488582Y-4522403D01*
X-13493541Y-4508543D01*
X-13497118Y-4494264D01*
X-13499278Y-4479703D01*
X-13500000Y-4465000D01*
X-13500000Y-4165000D01*
X-13499278Y-4150297D01*
X-13497118Y-4135736D01*
X-13493541Y-4121457D01*
X-13488582Y-4107597D01*
X-13482288Y-4094290D01*
X-13474720Y-4081664D01*
X-13465952Y-4069841D01*
X-13456066Y-4058934D01*
X-13445159Y-4049048D01*
X-13433336Y-4040280D01*
X-13420710Y-4032712D01*
X-13407403Y-4026418D01*
X-13393543Y-4021459D01*
X-13379264Y-4017882D01*
X-13364703Y-4015722D01*
X-13350000Y-4015000D01*
X-11700000Y-4015000D01*
X-11685297Y-4015722D01*
X-11685297Y-4015722D01*
G37*
D15*
X-12525000Y-4315000D03*
D12*
G36*
X16590779Y-15476144D02*
G01*
X16613834Y-15479563D01*
X16636443Y-15485227D01*
X16658387Y-15493079D01*
X16679457Y-15503044D01*
X16699448Y-15515026D01*
X16718168Y-15528910D01*
X16735438Y-15544562D01*
X16751090Y-15561832D01*
X16764974Y-15580552D01*
X16776956Y-15600543D01*
X16786921Y-15621613D01*
X16794773Y-15643557D01*
X16800437Y-15666166D01*
X16803856Y-15689221D01*
X16805000Y-15712500D01*
X16805000Y-16187500D01*
X16803856Y-16210779D01*
X16800437Y-16233834D01*
X16794773Y-16256443D01*
X16786921Y-16278387D01*
X16776956Y-16299457D01*
X16764974Y-16319448D01*
X16751090Y-16338168D01*
X16735438Y-16355438D01*
X16718168Y-16371090D01*
X16699448Y-16384974D01*
X16679457Y-16396956D01*
X16658387Y-16406921D01*
X16636443Y-16414773D01*
X16613834Y-16420437D01*
X16590779Y-16423856D01*
X16567500Y-16425000D01*
X15992500Y-16425000D01*
X15969221Y-16423856D01*
X15946166Y-16420437D01*
X15923557Y-16414773D01*
X15901613Y-16406921D01*
X15880543Y-16396956D01*
X15860552Y-16384974D01*
X15841832Y-16371090D01*
X15824562Y-16355438D01*
X15808910Y-16338168D01*
X15795026Y-16319448D01*
X15783044Y-16299457D01*
X15773079Y-16278387D01*
X15765227Y-16256443D01*
X15759563Y-16233834D01*
X15756144Y-16210779D01*
X15755000Y-16187500D01*
X15755000Y-15712500D01*
X15756144Y-15689221D01*
X15759563Y-15666166D01*
X15765227Y-15643557D01*
X15773079Y-15621613D01*
X15783044Y-15600543D01*
X15795026Y-15580552D01*
X15808910Y-15561832D01*
X15824562Y-15544562D01*
X15841832Y-15528910D01*
X15860552Y-15515026D01*
X15880543Y-15503044D01*
X15901613Y-15493079D01*
X15923557Y-15485227D01*
X15946166Y-15479563D01*
X15969221Y-15476144D01*
X15992500Y-15475000D01*
X16567500Y-15475000D01*
X16590779Y-15476144D01*
X16590779Y-15476144D01*
G37*
D14*
X16280000Y-15950000D03*
D12*
G36*
X18340779Y-15476144D02*
G01*
X18363834Y-15479563D01*
X18386443Y-15485227D01*
X18408387Y-15493079D01*
X18429457Y-15503044D01*
X18449448Y-15515026D01*
X18468168Y-15528910D01*
X18485438Y-15544562D01*
X18501090Y-15561832D01*
X18514974Y-15580552D01*
X18526956Y-15600543D01*
X18536921Y-15621613D01*
X18544773Y-15643557D01*
X18550437Y-15666166D01*
X18553856Y-15689221D01*
X18555000Y-15712500D01*
X18555000Y-16187500D01*
X18553856Y-16210779D01*
X18550437Y-16233834D01*
X18544773Y-16256443D01*
X18536921Y-16278387D01*
X18526956Y-16299457D01*
X18514974Y-16319448D01*
X18501090Y-16338168D01*
X18485438Y-16355438D01*
X18468168Y-16371090D01*
X18449448Y-16384974D01*
X18429457Y-16396956D01*
X18408387Y-16406921D01*
X18386443Y-16414773D01*
X18363834Y-16420437D01*
X18340779Y-16423856D01*
X18317500Y-16425000D01*
X17742500Y-16425000D01*
X17719221Y-16423856D01*
X17696166Y-16420437D01*
X17673557Y-16414773D01*
X17651613Y-16406921D01*
X17630543Y-16396956D01*
X17610552Y-16384974D01*
X17591832Y-16371090D01*
X17574562Y-16355438D01*
X17558910Y-16338168D01*
X17545026Y-16319448D01*
X17533044Y-16299457D01*
X17523079Y-16278387D01*
X17515227Y-16256443D01*
X17509563Y-16233834D01*
X17506144Y-16210779D01*
X17505000Y-16187500D01*
X17505000Y-15712500D01*
X17506144Y-15689221D01*
X17509563Y-15666166D01*
X17515227Y-15643557D01*
X17523079Y-15621613D01*
X17533044Y-15600543D01*
X17545026Y-15580552D01*
X17558910Y-15561832D01*
X17574562Y-15544562D01*
X17591832Y-15528910D01*
X17610552Y-15515026D01*
X17630543Y-15503044D01*
X17651613Y-15493079D01*
X17673557Y-15485227D01*
X17696166Y-15479563D01*
X17719221Y-15476144D01*
X17742500Y-15475000D01*
X18317500Y-15475000D01*
X18340779Y-15476144D01*
X18340779Y-15476144D01*
G37*
D14*
X18030000Y-15950000D03*
D12*
G36*
X11995779Y-15166144D02*
G01*
X12018834Y-15169563D01*
X12041443Y-15175227D01*
X12063387Y-15183079D01*
X12084457Y-15193044D01*
X12104448Y-15205026D01*
X12123168Y-15218910D01*
X12140438Y-15234562D01*
X12156090Y-15251832D01*
X12169974Y-15270552D01*
X12181956Y-15290543D01*
X12191921Y-15311613D01*
X12199773Y-15333557D01*
X12205437Y-15356166D01*
X12208856Y-15379221D01*
X12210000Y-15402500D01*
X12210000Y-15877500D01*
X12208856Y-15900779D01*
X12205437Y-15923834D01*
X12199773Y-15946443D01*
X12191921Y-15968387D01*
X12181956Y-15989457D01*
X12169974Y-16009448D01*
X12156090Y-16028168D01*
X12140438Y-16045438D01*
X12123168Y-16061090D01*
X12104448Y-16074974D01*
X12084457Y-16086956D01*
X12063387Y-16096921D01*
X12041443Y-16104773D01*
X12018834Y-16110437D01*
X11995779Y-16113856D01*
X11972500Y-16115000D01*
X11397500Y-16115000D01*
X11374221Y-16113856D01*
X11351166Y-16110437D01*
X11328557Y-16104773D01*
X11306613Y-16096921D01*
X11285543Y-16086956D01*
X11265552Y-16074974D01*
X11246832Y-16061090D01*
X11229562Y-16045438D01*
X11213910Y-16028168D01*
X11200026Y-16009448D01*
X11188044Y-15989457D01*
X11178079Y-15968387D01*
X11170227Y-15946443D01*
X11164563Y-15923834D01*
X11161144Y-15900779D01*
X11160000Y-15877500D01*
X11160000Y-15402500D01*
X11161144Y-15379221D01*
X11164563Y-15356166D01*
X11170227Y-15333557D01*
X11178079Y-15311613D01*
X11188044Y-15290543D01*
X11200026Y-15270552D01*
X11213910Y-15251832D01*
X11229562Y-15234562D01*
X11246832Y-15218910D01*
X11265552Y-15205026D01*
X11285543Y-15193044D01*
X11306613Y-15183079D01*
X11328557Y-15175227D01*
X11351166Y-15169563D01*
X11374221Y-15166144D01*
X11397500Y-15165000D01*
X11972500Y-15165000D01*
X11995779Y-15166144D01*
X11995779Y-15166144D01*
G37*
D14*
X11685000Y-15640000D03*
D12*
G36*
X13745779Y-15166144D02*
G01*
X13768834Y-15169563D01*
X13791443Y-15175227D01*
X13813387Y-15183079D01*
X13834457Y-15193044D01*
X13854448Y-15205026D01*
X13873168Y-15218910D01*
X13890438Y-15234562D01*
X13906090Y-15251832D01*
X13919974Y-15270552D01*
X13931956Y-15290543D01*
X13941921Y-15311613D01*
X13949773Y-15333557D01*
X13955437Y-15356166D01*
X13958856Y-15379221D01*
X13960000Y-15402500D01*
X13960000Y-15877500D01*
X13958856Y-15900779D01*
X13955437Y-15923834D01*
X13949773Y-15946443D01*
X13941921Y-15968387D01*
X13931956Y-15989457D01*
X13919974Y-16009448D01*
X13906090Y-16028168D01*
X13890438Y-16045438D01*
X13873168Y-16061090D01*
X13854448Y-16074974D01*
X13834457Y-16086956D01*
X13813387Y-16096921D01*
X13791443Y-16104773D01*
X13768834Y-16110437D01*
X13745779Y-16113856D01*
X13722500Y-16115000D01*
X13147500Y-16115000D01*
X13124221Y-16113856D01*
X13101166Y-16110437D01*
X13078557Y-16104773D01*
X13056613Y-16096921D01*
X13035543Y-16086956D01*
X13015552Y-16074974D01*
X12996832Y-16061090D01*
X12979562Y-16045438D01*
X12963910Y-16028168D01*
X12950026Y-16009448D01*
X12938044Y-15989457D01*
X12928079Y-15968387D01*
X12920227Y-15946443D01*
X12914563Y-15923834D01*
X12911144Y-15900779D01*
X12910000Y-15877500D01*
X12910000Y-15402500D01*
X12911144Y-15379221D01*
X12914563Y-15356166D01*
X12920227Y-15333557D01*
X12928079Y-15311613D01*
X12938044Y-15290543D01*
X12950026Y-15270552D01*
X12963910Y-15251832D01*
X12979562Y-15234562D01*
X12996832Y-15218910D01*
X13015552Y-15205026D01*
X13035543Y-15193044D01*
X13056613Y-15183079D01*
X13078557Y-15175227D01*
X13101166Y-15169563D01*
X13124221Y-15166144D01*
X13147500Y-15165000D01*
X13722500Y-15165000D01*
X13745779Y-15166144D01*
X13745779Y-15166144D01*
G37*
D14*
X13435000Y-15640000D03*
D12*
G36*
X6785779Y-13576144D02*
G01*
X6808834Y-13579563D01*
X6831443Y-13585227D01*
X6853387Y-13593079D01*
X6874457Y-13603044D01*
X6894448Y-13615026D01*
X6913168Y-13628910D01*
X6930438Y-13644562D01*
X6946090Y-13661832D01*
X6959974Y-13680552D01*
X6971956Y-13700543D01*
X6981921Y-13721613D01*
X6989773Y-13743557D01*
X6995437Y-13766166D01*
X6998856Y-13789221D01*
X7000000Y-13812500D01*
X7000000Y-14287500D01*
X6998856Y-14310779D01*
X6995437Y-14333834D01*
X6989773Y-14356443D01*
X6981921Y-14378387D01*
X6971956Y-14399457D01*
X6959974Y-14419448D01*
X6946090Y-14438168D01*
X6930438Y-14455438D01*
X6913168Y-14471090D01*
X6894448Y-14484974D01*
X6874457Y-14496956D01*
X6853387Y-14506921D01*
X6831443Y-14514773D01*
X6808834Y-14520437D01*
X6785779Y-14523856D01*
X6762500Y-14525000D01*
X6187500Y-14525000D01*
X6164221Y-14523856D01*
X6141166Y-14520437D01*
X6118557Y-14514773D01*
X6096613Y-14506921D01*
X6075543Y-14496956D01*
X6055552Y-14484974D01*
X6036832Y-14471090D01*
X6019562Y-14455438D01*
X6003910Y-14438168D01*
X5990026Y-14419448D01*
X5978044Y-14399457D01*
X5968079Y-14378387D01*
X5960227Y-14356443D01*
X5954563Y-14333834D01*
X5951144Y-14310779D01*
X5950000Y-14287500D01*
X5950000Y-13812500D01*
X5951144Y-13789221D01*
X5954563Y-13766166D01*
X5960227Y-13743557D01*
X5968079Y-13721613D01*
X5978044Y-13700543D01*
X5990026Y-13680552D01*
X6003910Y-13661832D01*
X6019562Y-13644562D01*
X6036832Y-13628910D01*
X6055552Y-13615026D01*
X6075543Y-13603044D01*
X6096613Y-13593079D01*
X6118557Y-13585227D01*
X6141166Y-13579563D01*
X6164221Y-13576144D01*
X6187500Y-13575000D01*
X6762500Y-13575000D01*
X6785779Y-13576144D01*
X6785779Y-13576144D01*
G37*
D14*
X6475000Y-14050000D03*
D12*
G36*
X8535779Y-13576144D02*
G01*
X8558834Y-13579563D01*
X8581443Y-13585227D01*
X8603387Y-13593079D01*
X8624457Y-13603044D01*
X8644448Y-13615026D01*
X8663168Y-13628910D01*
X8680438Y-13644562D01*
X8696090Y-13661832D01*
X8709974Y-13680552D01*
X8721956Y-13700543D01*
X8731921Y-13721613D01*
X8739773Y-13743557D01*
X8745437Y-13766166D01*
X8748856Y-13789221D01*
X8750000Y-13812500D01*
X8750000Y-14287500D01*
X8748856Y-14310779D01*
X8745437Y-14333834D01*
X8739773Y-14356443D01*
X8731921Y-14378387D01*
X8721956Y-14399457D01*
X8709974Y-14419448D01*
X8696090Y-14438168D01*
X8680438Y-14455438D01*
X8663168Y-14471090D01*
X8644448Y-14484974D01*
X8624457Y-14496956D01*
X8603387Y-14506921D01*
X8581443Y-14514773D01*
X8558834Y-14520437D01*
X8535779Y-14523856D01*
X8512500Y-14525000D01*
X7937500Y-14525000D01*
X7914221Y-14523856D01*
X7891166Y-14520437D01*
X7868557Y-14514773D01*
X7846613Y-14506921D01*
X7825543Y-14496956D01*
X7805552Y-14484974D01*
X7786832Y-14471090D01*
X7769562Y-14455438D01*
X7753910Y-14438168D01*
X7740026Y-14419448D01*
X7728044Y-14399457D01*
X7718079Y-14378387D01*
X7710227Y-14356443D01*
X7704563Y-14333834D01*
X7701144Y-14310779D01*
X7700000Y-14287500D01*
X7700000Y-13812500D01*
X7701144Y-13789221D01*
X7704563Y-13766166D01*
X7710227Y-13743557D01*
X7718079Y-13721613D01*
X7728044Y-13700543D01*
X7740026Y-13680552D01*
X7753910Y-13661832D01*
X7769562Y-13644562D01*
X7786832Y-13628910D01*
X7805552Y-13615026D01*
X7825543Y-13603044D01*
X7846613Y-13593079D01*
X7868557Y-13585227D01*
X7891166Y-13579563D01*
X7914221Y-13576144D01*
X7937500Y-13575000D01*
X8512500Y-13575000D01*
X8535779Y-13576144D01*
X8535779Y-13576144D01*
G37*
D14*
X8225000Y-14050000D03*
D12*
G36*
X3730779Y-13646144D02*
G01*
X3753834Y-13649563D01*
X3776443Y-13655227D01*
X3798387Y-13663079D01*
X3819457Y-13673044D01*
X3839448Y-13685026D01*
X3858168Y-13698910D01*
X3875438Y-13714562D01*
X3891090Y-13731832D01*
X3904974Y-13750552D01*
X3916956Y-13770543D01*
X3926921Y-13791613D01*
X3934773Y-13813557D01*
X3940437Y-13836166D01*
X3943856Y-13859221D01*
X3945000Y-13882500D01*
X3945000Y-14457500D01*
X3943856Y-14480779D01*
X3940437Y-14503834D01*
X3934773Y-14526443D01*
X3926921Y-14548387D01*
X3916956Y-14569457D01*
X3904974Y-14589448D01*
X3891090Y-14608168D01*
X3875438Y-14625438D01*
X3858168Y-14641090D01*
X3839448Y-14654974D01*
X3819457Y-14666956D01*
X3798387Y-14676921D01*
X3776443Y-14684773D01*
X3753834Y-14690437D01*
X3730779Y-14693856D01*
X3707500Y-14695000D01*
X3232500Y-14695000D01*
X3209221Y-14693856D01*
X3186166Y-14690437D01*
X3163557Y-14684773D01*
X3141613Y-14676921D01*
X3120543Y-14666956D01*
X3100552Y-14654974D01*
X3081832Y-14641090D01*
X3064562Y-14625438D01*
X3048910Y-14608168D01*
X3035026Y-14589448D01*
X3023044Y-14569457D01*
X3013079Y-14548387D01*
X3005227Y-14526443D01*
X2999563Y-14503834D01*
X2996144Y-14480779D01*
X2995000Y-14457500D01*
X2995000Y-13882500D01*
X2996144Y-13859221D01*
X2999563Y-13836166D01*
X3005227Y-13813557D01*
X3013079Y-13791613D01*
X3023044Y-13770543D01*
X3035026Y-13750552D01*
X3048910Y-13731832D01*
X3064562Y-13714562D01*
X3081832Y-13698910D01*
X3100552Y-13685026D01*
X3120543Y-13673044D01*
X3141613Y-13663079D01*
X3163557Y-13655227D01*
X3186166Y-13649563D01*
X3209221Y-13646144D01*
X3232500Y-13645000D01*
X3707500Y-13645000D01*
X3730779Y-13646144D01*
X3730779Y-13646144D01*
G37*
D14*
X3470000Y-14170000D03*
D12*
G36*
X3730779Y-11896144D02*
G01*
X3753834Y-11899563D01*
X3776443Y-11905227D01*
X3798387Y-11913079D01*
X3819457Y-11923044D01*
X3839448Y-11935026D01*
X3858168Y-11948910D01*
X3875438Y-11964562D01*
X3891090Y-11981832D01*
X3904974Y-12000552D01*
X3916956Y-12020543D01*
X3926921Y-12041613D01*
X3934773Y-12063557D01*
X3940437Y-12086166D01*
X3943856Y-12109221D01*
X3945000Y-12132500D01*
X3945000Y-12707500D01*
X3943856Y-12730779D01*
X3940437Y-12753834D01*
X3934773Y-12776443D01*
X3926921Y-12798387D01*
X3916956Y-12819457D01*
X3904974Y-12839448D01*
X3891090Y-12858168D01*
X3875438Y-12875438D01*
X3858168Y-12891090D01*
X3839448Y-12904974D01*
X3819457Y-12916956D01*
X3798387Y-12926921D01*
X3776443Y-12934773D01*
X3753834Y-12940437D01*
X3730779Y-12943856D01*
X3707500Y-12945000D01*
X3232500Y-12945000D01*
X3209221Y-12943856D01*
X3186166Y-12940437D01*
X3163557Y-12934773D01*
X3141613Y-12926921D01*
X3120543Y-12916956D01*
X3100552Y-12904974D01*
X3081832Y-12891090D01*
X3064562Y-12875438D01*
X3048910Y-12858168D01*
X3035026Y-12839448D01*
X3023044Y-12819457D01*
X3013079Y-12798387D01*
X3005227Y-12776443D01*
X2999563Y-12753834D01*
X2996144Y-12730779D01*
X2995000Y-12707500D01*
X2995000Y-12132500D01*
X2996144Y-12109221D01*
X2999563Y-12086166D01*
X3005227Y-12063557D01*
X3013079Y-12041613D01*
X3023044Y-12020543D01*
X3035026Y-12000552D01*
X3048910Y-11981832D01*
X3064562Y-11964562D01*
X3081832Y-11948910D01*
X3100552Y-11935026D01*
X3120543Y-11923044D01*
X3141613Y-11913079D01*
X3163557Y-11905227D01*
X3186166Y-11899563D01*
X3209221Y-11896144D01*
X3232500Y-11895000D01*
X3707500Y-11895000D01*
X3730779Y-11896144D01*
X3730779Y-11896144D01*
G37*
D14*
X3470000Y-12420000D03*
D12*
G36*
X18990779Y1668856D02*
G01*
X19013834Y1665437D01*
X19036443Y1659773D01*
X19058387Y1651921D01*
X19079457Y1641956D01*
X19099448Y1629974D01*
X19118168Y1616090D01*
X19135438Y1600438D01*
X19151090Y1583168D01*
X19164974Y1564448D01*
X19176956Y1544457D01*
X19186921Y1523387D01*
X19194773Y1501443D01*
X19200437Y1478834D01*
X19203856Y1455779D01*
X19205000Y1432500D01*
X19205000Y857500D01*
X19203856Y834221D01*
X19200437Y811166D01*
X19194773Y788557D01*
X19186921Y766613D01*
X19176956Y745543D01*
X19164974Y725552D01*
X19151090Y706832D01*
X19135438Y689562D01*
X19118168Y673910D01*
X19099448Y660026D01*
X19079457Y648044D01*
X19058387Y638079D01*
X19036443Y630227D01*
X19013834Y624563D01*
X18990779Y621144D01*
X18967500Y620000D01*
X18492500Y620000D01*
X18469221Y621144D01*
X18446166Y624563D01*
X18423557Y630227D01*
X18401613Y638079D01*
X18380543Y648044D01*
X18360552Y660026D01*
X18341832Y673910D01*
X18324562Y689562D01*
X18308910Y706832D01*
X18295026Y725552D01*
X18283044Y745543D01*
X18273079Y766613D01*
X18265227Y788557D01*
X18259563Y811166D01*
X18256144Y834221D01*
X18255000Y857500D01*
X18255000Y1432500D01*
X18256144Y1455779D01*
X18259563Y1478834D01*
X18265227Y1501443D01*
X18273079Y1523387D01*
X18283044Y1544457D01*
X18295026Y1564448D01*
X18308910Y1583168D01*
X18324562Y1600438D01*
X18341832Y1616090D01*
X18360552Y1629974D01*
X18380543Y1641956D01*
X18401613Y1651921D01*
X18423557Y1659773D01*
X18446166Y1665437D01*
X18469221Y1668856D01*
X18492500Y1670000D01*
X18967500Y1670000D01*
X18990779Y1668856D01*
X18990779Y1668856D01*
G37*
D14*
X18730000Y1145000D03*
D12*
G36*
X18990779Y-81144D02*
G01*
X19013834Y-84563D01*
X19036443Y-90227D01*
X19058387Y-98079D01*
X19079457Y-108044D01*
X19099448Y-120026D01*
X19118168Y-133910D01*
X19135438Y-149562D01*
X19151090Y-166832D01*
X19164974Y-185552D01*
X19176956Y-205543D01*
X19186921Y-226613D01*
X19194773Y-248557D01*
X19200437Y-271166D01*
X19203856Y-294221D01*
X19205000Y-317500D01*
X19205000Y-892500D01*
X19203856Y-915779D01*
X19200437Y-938834D01*
X19194773Y-961443D01*
X19186921Y-983387D01*
X19176956Y-1004457D01*
X19164974Y-1024448D01*
X19151090Y-1043168D01*
X19135438Y-1060438D01*
X19118168Y-1076090D01*
X19099448Y-1089974D01*
X19079457Y-1101956D01*
X19058387Y-1111921D01*
X19036443Y-1119773D01*
X19013834Y-1125437D01*
X18990779Y-1128856D01*
X18967500Y-1130000D01*
X18492500Y-1130000D01*
X18469221Y-1128856D01*
X18446166Y-1125437D01*
X18423557Y-1119773D01*
X18401613Y-1111921D01*
X18380543Y-1101956D01*
X18360552Y-1089974D01*
X18341832Y-1076090D01*
X18324562Y-1060438D01*
X18308910Y-1043168D01*
X18295026Y-1024448D01*
X18283044Y-1004457D01*
X18273079Y-983387D01*
X18265227Y-961443D01*
X18259563Y-938834D01*
X18256144Y-915779D01*
X18255000Y-892500D01*
X18255000Y-317500D01*
X18256144Y-294221D01*
X18259563Y-271166D01*
X18265227Y-248557D01*
X18273079Y-226613D01*
X18283044Y-205543D01*
X18295026Y-185552D01*
X18308910Y-166832D01*
X18324562Y-149562D01*
X18341832Y-133910D01*
X18360552Y-120026D01*
X18380543Y-108044D01*
X18401613Y-98079D01*
X18423557Y-90227D01*
X18446166Y-84563D01*
X18469221Y-81144D01*
X18492500Y-80000D01*
X18967500Y-80000D01*
X18990779Y-81144D01*
X18990779Y-81144D01*
G37*
D14*
X18730000Y-605000D03*
D12*
G36*
X14545779Y1573856D02*
G01*
X14568834Y1570437D01*
X14591443Y1564773D01*
X14613387Y1556921D01*
X14634457Y1546956D01*
X14654448Y1534974D01*
X14673168Y1521090D01*
X14690438Y1505438D01*
X14706090Y1488168D01*
X14719974Y1469448D01*
X14731956Y1449457D01*
X14741921Y1428387D01*
X14749773Y1406443D01*
X14755437Y1383834D01*
X14758856Y1360779D01*
X14760000Y1337500D01*
X14760000Y862500D01*
X14758856Y839221D01*
X14755437Y816166D01*
X14749773Y793557D01*
X14741921Y771613D01*
X14731956Y750543D01*
X14719974Y730552D01*
X14706090Y711832D01*
X14690438Y694562D01*
X14673168Y678910D01*
X14654448Y665026D01*
X14634457Y653044D01*
X14613387Y643079D01*
X14591443Y635227D01*
X14568834Y629563D01*
X14545779Y626144D01*
X14522500Y625000D01*
X13947500Y625000D01*
X13924221Y626144D01*
X13901166Y629563D01*
X13878557Y635227D01*
X13856613Y643079D01*
X13835543Y653044D01*
X13815552Y665026D01*
X13796832Y678910D01*
X13779562Y694562D01*
X13763910Y711832D01*
X13750026Y730552D01*
X13738044Y750543D01*
X13728079Y771613D01*
X13720227Y793557D01*
X13714563Y816166D01*
X13711144Y839221D01*
X13710000Y862500D01*
X13710000Y1337500D01*
X13711144Y1360779D01*
X13714563Y1383834D01*
X13720227Y1406443D01*
X13728079Y1428387D01*
X13738044Y1449457D01*
X13750026Y1469448D01*
X13763910Y1488168D01*
X13779562Y1505438D01*
X13796832Y1521090D01*
X13815552Y1534974D01*
X13835543Y1546956D01*
X13856613Y1556921D01*
X13878557Y1564773D01*
X13901166Y1570437D01*
X13924221Y1573856D01*
X13947500Y1575000D01*
X14522500Y1575000D01*
X14545779Y1573856D01*
X14545779Y1573856D01*
G37*
D14*
X14235000Y1100000D03*
D12*
G36*
X16295779Y1573856D02*
G01*
X16318834Y1570437D01*
X16341443Y1564773D01*
X16363387Y1556921D01*
X16384457Y1546956D01*
X16404448Y1534974D01*
X16423168Y1521090D01*
X16440438Y1505438D01*
X16456090Y1488168D01*
X16469974Y1469448D01*
X16481956Y1449457D01*
X16491921Y1428387D01*
X16499773Y1406443D01*
X16505437Y1383834D01*
X16508856Y1360779D01*
X16510000Y1337500D01*
X16510000Y862500D01*
X16508856Y839221D01*
X16505437Y816166D01*
X16499773Y793557D01*
X16491921Y771613D01*
X16481956Y750543D01*
X16469974Y730552D01*
X16456090Y711832D01*
X16440438Y694562D01*
X16423168Y678910D01*
X16404448Y665026D01*
X16384457Y653044D01*
X16363387Y643079D01*
X16341443Y635227D01*
X16318834Y629563D01*
X16295779Y626144D01*
X16272500Y625000D01*
X15697500Y625000D01*
X15674221Y626144D01*
X15651166Y629563D01*
X15628557Y635227D01*
X15606613Y643079D01*
X15585543Y653044D01*
X15565552Y665026D01*
X15546832Y678910D01*
X15529562Y694562D01*
X15513910Y711832D01*
X15500026Y730552D01*
X15488044Y750543D01*
X15478079Y771613D01*
X15470227Y793557D01*
X15464563Y816166D01*
X15461144Y839221D01*
X15460000Y862500D01*
X15460000Y1337500D01*
X15461144Y1360779D01*
X15464563Y1383834D01*
X15470227Y1406443D01*
X15478079Y1428387D01*
X15488044Y1449457D01*
X15500026Y1469448D01*
X15513910Y1488168D01*
X15529562Y1505438D01*
X15546832Y1521090D01*
X15565552Y1534974D01*
X15585543Y1546956D01*
X15606613Y1556921D01*
X15628557Y1564773D01*
X15651166Y1570437D01*
X15674221Y1573856D01*
X15697500Y1575000D01*
X16272500Y1575000D01*
X16295779Y1573856D01*
X16295779Y1573856D01*
G37*
D14*
X15985000Y1100000D03*
D12*
G36*
X-5019221Y3753856D02*
G01*
X-4996166Y3750437D01*
X-4973557Y3744773D01*
X-4951613Y3736921D01*
X-4930543Y3726956D01*
X-4910552Y3714974D01*
X-4891832Y3701090D01*
X-4874562Y3685438D01*
X-4858910Y3668168D01*
X-4845026Y3649448D01*
X-4833044Y3629457D01*
X-4823079Y3608387D01*
X-4815227Y3586443D01*
X-4809563Y3563834D01*
X-4806144Y3540779D01*
X-4805000Y3517500D01*
X-4805000Y3042500D01*
X-4806144Y3019221D01*
X-4809563Y2996166D01*
X-4815227Y2973557D01*
X-4823079Y2951613D01*
X-4833044Y2930543D01*
X-4845026Y2910552D01*
X-4858910Y2891832D01*
X-4874562Y2874562D01*
X-4891832Y2858910D01*
X-4910552Y2845026D01*
X-4930543Y2833044D01*
X-4951613Y2823079D01*
X-4973557Y2815227D01*
X-4996166Y2809563D01*
X-5019221Y2806144D01*
X-5042500Y2805000D01*
X-5617500Y2805000D01*
X-5640779Y2806144D01*
X-5663834Y2809563D01*
X-5686443Y2815227D01*
X-5708387Y2823079D01*
X-5729457Y2833044D01*
X-5749448Y2845026D01*
X-5768168Y2858910D01*
X-5785438Y2874562D01*
X-5801090Y2891832D01*
X-5814974Y2910552D01*
X-5826956Y2930543D01*
X-5836921Y2951613D01*
X-5844773Y2973557D01*
X-5850437Y2996166D01*
X-5853856Y3019221D01*
X-5855000Y3042500D01*
X-5855000Y3517500D01*
X-5853856Y3540779D01*
X-5850437Y3563834D01*
X-5844773Y3586443D01*
X-5836921Y3608387D01*
X-5826956Y3629457D01*
X-5814974Y3649448D01*
X-5801090Y3668168D01*
X-5785438Y3685438D01*
X-5768168Y3701090D01*
X-5749448Y3714974D01*
X-5729457Y3726956D01*
X-5708387Y3736921D01*
X-5686443Y3744773D01*
X-5663834Y3750437D01*
X-5640779Y3753856D01*
X-5617500Y3755000D01*
X-5042500Y3755000D01*
X-5019221Y3753856D01*
X-5019221Y3753856D01*
G37*
D14*
X-5330000Y3280000D03*
D12*
G36*
X-3269221Y3753856D02*
G01*
X-3246166Y3750437D01*
X-3223557Y3744773D01*
X-3201613Y3736921D01*
X-3180543Y3726956D01*
X-3160552Y3714974D01*
X-3141832Y3701090D01*
X-3124562Y3685438D01*
X-3108910Y3668168D01*
X-3095026Y3649448D01*
X-3083044Y3629457D01*
X-3073079Y3608387D01*
X-3065227Y3586443D01*
X-3059563Y3563834D01*
X-3056144Y3540779D01*
X-3055000Y3517500D01*
X-3055000Y3042500D01*
X-3056144Y3019221D01*
X-3059563Y2996166D01*
X-3065227Y2973557D01*
X-3073079Y2951613D01*
X-3083044Y2930543D01*
X-3095026Y2910552D01*
X-3108910Y2891832D01*
X-3124562Y2874562D01*
X-3141832Y2858910D01*
X-3160552Y2845026D01*
X-3180543Y2833044D01*
X-3201613Y2823079D01*
X-3223557Y2815227D01*
X-3246166Y2809563D01*
X-3269221Y2806144D01*
X-3292500Y2805000D01*
X-3867500Y2805000D01*
X-3890779Y2806144D01*
X-3913834Y2809563D01*
X-3936443Y2815227D01*
X-3958387Y2823079D01*
X-3979457Y2833044D01*
X-3999448Y2845026D01*
X-4018168Y2858910D01*
X-4035438Y2874562D01*
X-4051090Y2891832D01*
X-4064974Y2910552D01*
X-4076956Y2930543D01*
X-4086921Y2951613D01*
X-4094773Y2973557D01*
X-4100437Y2996166D01*
X-4103856Y3019221D01*
X-4105000Y3042500D01*
X-4105000Y3517500D01*
X-4103856Y3540779D01*
X-4100437Y3563834D01*
X-4094773Y3586443D01*
X-4086921Y3608387D01*
X-4076956Y3629457D01*
X-4064974Y3649448D01*
X-4051090Y3668168D01*
X-4035438Y3685438D01*
X-4018168Y3701090D01*
X-3999448Y3714974D01*
X-3979457Y3726956D01*
X-3958387Y3736921D01*
X-3936443Y3744773D01*
X-3913834Y3750437D01*
X-3890779Y3753856D01*
X-3867500Y3755000D01*
X-3292500Y3755000D01*
X-3269221Y3753856D01*
X-3269221Y3753856D01*
G37*
D14*
X-3580000Y3280000D03*
D12*
G36*
X10510779Y2163856D02*
G01*
X10533834Y2160437D01*
X10556443Y2154773D01*
X10578387Y2146921D01*
X10599457Y2136956D01*
X10619448Y2124974D01*
X10638168Y2111090D01*
X10655438Y2095438D01*
X10671090Y2078168D01*
X10684974Y2059448D01*
X10696956Y2039457D01*
X10706921Y2018387D01*
X10714773Y1996443D01*
X10720437Y1973834D01*
X10723856Y1950779D01*
X10725000Y1927500D01*
X10725000Y1452500D01*
X10723856Y1429221D01*
X10720437Y1406166D01*
X10714773Y1383557D01*
X10706921Y1361613D01*
X10696956Y1340543D01*
X10684974Y1320552D01*
X10671090Y1301832D01*
X10655438Y1284562D01*
X10638168Y1268910D01*
X10619448Y1255026D01*
X10599457Y1243044D01*
X10578387Y1233079D01*
X10556443Y1225227D01*
X10533834Y1219563D01*
X10510779Y1216144D01*
X10487500Y1215000D01*
X9912500Y1215000D01*
X9889221Y1216144D01*
X9866166Y1219563D01*
X9843557Y1225227D01*
X9821613Y1233079D01*
X9800543Y1243044D01*
X9780552Y1255026D01*
X9761832Y1268910D01*
X9744562Y1284562D01*
X9728910Y1301832D01*
X9715026Y1320552D01*
X9703044Y1340543D01*
X9693079Y1361613D01*
X9685227Y1383557D01*
X9679563Y1406166D01*
X9676144Y1429221D01*
X9675000Y1452500D01*
X9675000Y1927500D01*
X9676144Y1950779D01*
X9679563Y1973834D01*
X9685227Y1996443D01*
X9693079Y2018387D01*
X9703044Y2039457D01*
X9715026Y2059448D01*
X9728910Y2078168D01*
X9744562Y2095438D01*
X9761832Y2111090D01*
X9780552Y2124974D01*
X9800543Y2136956D01*
X9821613Y2146921D01*
X9843557Y2154773D01*
X9866166Y2160437D01*
X9889221Y2163856D01*
X9912500Y2165000D01*
X10487500Y2165000D01*
X10510779Y2163856D01*
X10510779Y2163856D01*
G37*
D14*
X10200000Y1690000D03*
D12*
G36*
X12260779Y2163856D02*
G01*
X12283834Y2160437D01*
X12306443Y2154773D01*
X12328387Y2146921D01*
X12349457Y2136956D01*
X12369448Y2124974D01*
X12388168Y2111090D01*
X12405438Y2095438D01*
X12421090Y2078168D01*
X12434974Y2059448D01*
X12446956Y2039457D01*
X12456921Y2018387D01*
X12464773Y1996443D01*
X12470437Y1973834D01*
X12473856Y1950779D01*
X12475000Y1927500D01*
X12475000Y1452500D01*
X12473856Y1429221D01*
X12470437Y1406166D01*
X12464773Y1383557D01*
X12456921Y1361613D01*
X12446956Y1340543D01*
X12434974Y1320552D01*
X12421090Y1301832D01*
X12405438Y1284562D01*
X12388168Y1268910D01*
X12369448Y1255026D01*
X12349457Y1243044D01*
X12328387Y1233079D01*
X12306443Y1225227D01*
X12283834Y1219563D01*
X12260779Y1216144D01*
X12237500Y1215000D01*
X11662500Y1215000D01*
X11639221Y1216144D01*
X11616166Y1219563D01*
X11593557Y1225227D01*
X11571613Y1233079D01*
X11550543Y1243044D01*
X11530552Y1255026D01*
X11511832Y1268910D01*
X11494562Y1284562D01*
X11478910Y1301832D01*
X11465026Y1320552D01*
X11453044Y1340543D01*
X11443079Y1361613D01*
X11435227Y1383557D01*
X11429563Y1406166D01*
X11426144Y1429221D01*
X11425000Y1452500D01*
X11425000Y1927500D01*
X11426144Y1950779D01*
X11429563Y1973834D01*
X11435227Y1996443D01*
X11443079Y2018387D01*
X11453044Y2039457D01*
X11465026Y2059448D01*
X11478910Y2078168D01*
X11494562Y2095438D01*
X11511832Y2111090D01*
X11530552Y2124974D01*
X11550543Y2136956D01*
X11571613Y2146921D01*
X11593557Y2154773D01*
X11616166Y2160437D01*
X11639221Y2163856D01*
X11662500Y2165000D01*
X12237500Y2165000D01*
X12260779Y2163856D01*
X12260779Y2163856D01*
G37*
D14*
X11950000Y1690000D03*
D12*
G36*
X6375779Y3333856D02*
G01*
X6398834Y3330437D01*
X6421443Y3324773D01*
X6443387Y3316921D01*
X6464457Y3306956D01*
X6484448Y3294974D01*
X6503168Y3281090D01*
X6520438Y3265438D01*
X6536090Y3248168D01*
X6549974Y3229448D01*
X6561956Y3209457D01*
X6571921Y3188387D01*
X6579773Y3166443D01*
X6585437Y3143834D01*
X6588856Y3120779D01*
X6590000Y3097500D01*
X6590000Y2622500D01*
X6588856Y2599221D01*
X6585437Y2576166D01*
X6579773Y2553557D01*
X6571921Y2531613D01*
X6561956Y2510543D01*
X6549974Y2490552D01*
X6536090Y2471832D01*
X6520438Y2454562D01*
X6503168Y2438910D01*
X6484448Y2425026D01*
X6464457Y2413044D01*
X6443387Y2403079D01*
X6421443Y2395227D01*
X6398834Y2389563D01*
X6375779Y2386144D01*
X6352500Y2385000D01*
X5777500Y2385000D01*
X5754221Y2386144D01*
X5731166Y2389563D01*
X5708557Y2395227D01*
X5686613Y2403079D01*
X5665543Y2413044D01*
X5645552Y2425026D01*
X5626832Y2438910D01*
X5609562Y2454562D01*
X5593910Y2471832D01*
X5580026Y2490552D01*
X5568044Y2510543D01*
X5558079Y2531613D01*
X5550227Y2553557D01*
X5544563Y2576166D01*
X5541144Y2599221D01*
X5540000Y2622500D01*
X5540000Y3097500D01*
X5541144Y3120779D01*
X5544563Y3143834D01*
X5550227Y3166443D01*
X5558079Y3188387D01*
X5568044Y3209457D01*
X5580026Y3229448D01*
X5593910Y3248168D01*
X5609562Y3265438D01*
X5626832Y3281090D01*
X5645552Y3294974D01*
X5665543Y3306956D01*
X5686613Y3316921D01*
X5708557Y3324773D01*
X5731166Y3330437D01*
X5754221Y3333856D01*
X5777500Y3335000D01*
X6352500Y3335000D01*
X6375779Y3333856D01*
X6375779Y3333856D01*
G37*
D14*
X6065000Y2860000D03*
D12*
G36*
X8125779Y3333856D02*
G01*
X8148834Y3330437D01*
X8171443Y3324773D01*
X8193387Y3316921D01*
X8214457Y3306956D01*
X8234448Y3294974D01*
X8253168Y3281090D01*
X8270438Y3265438D01*
X8286090Y3248168D01*
X8299974Y3229448D01*
X8311956Y3209457D01*
X8321921Y3188387D01*
X8329773Y3166443D01*
X8335437Y3143834D01*
X8338856Y3120779D01*
X8340000Y3097500D01*
X8340000Y2622500D01*
X8338856Y2599221D01*
X8335437Y2576166D01*
X8329773Y2553557D01*
X8321921Y2531613D01*
X8311956Y2510543D01*
X8299974Y2490552D01*
X8286090Y2471832D01*
X8270438Y2454562D01*
X8253168Y2438910D01*
X8234448Y2425026D01*
X8214457Y2413044D01*
X8193387Y2403079D01*
X8171443Y2395227D01*
X8148834Y2389563D01*
X8125779Y2386144D01*
X8102500Y2385000D01*
X7527500Y2385000D01*
X7504221Y2386144D01*
X7481166Y2389563D01*
X7458557Y2395227D01*
X7436613Y2403079D01*
X7415543Y2413044D01*
X7395552Y2425026D01*
X7376832Y2438910D01*
X7359562Y2454562D01*
X7343910Y2471832D01*
X7330026Y2490552D01*
X7318044Y2510543D01*
X7308079Y2531613D01*
X7300227Y2553557D01*
X7294563Y2576166D01*
X7291144Y2599221D01*
X7290000Y2622500D01*
X7290000Y3097500D01*
X7291144Y3120779D01*
X7294563Y3143834D01*
X7300227Y3166443D01*
X7308079Y3188387D01*
X7318044Y3209457D01*
X7330026Y3229448D01*
X7343910Y3248168D01*
X7359562Y3265438D01*
X7376832Y3281090D01*
X7395552Y3294974D01*
X7415543Y3306956D01*
X7436613Y3316921D01*
X7458557Y3324773D01*
X7481166Y3330437D01*
X7504221Y3333856D01*
X7527500Y3335000D01*
X8102500Y3335000D01*
X8125779Y3333856D01*
X8125779Y3333856D01*
G37*
D14*
X7815000Y2860000D03*
D12*
G36*
X2652479Y3514756D02*
G01*
X2675534Y3511337D01*
X2698143Y3505673D01*
X2720087Y3497821D01*
X2741157Y3487856D01*
X2761148Y3475874D01*
X2779868Y3461990D01*
X2797138Y3446338D01*
X2812790Y3429068D01*
X2826674Y3410348D01*
X2838656Y3390357D01*
X2848621Y3369287D01*
X2856473Y3347343D01*
X2862137Y3324734D01*
X2865556Y3301679D01*
X2866700Y3278400D01*
X2866700Y2803400D01*
X2865556Y2780121D01*
X2862137Y2757066D01*
X2856473Y2734457D01*
X2848621Y2712513D01*
X2838656Y2691443D01*
X2826674Y2671452D01*
X2812790Y2652732D01*
X2797138Y2635462D01*
X2779868Y2619810D01*
X2761148Y2605926D01*
X2741157Y2593944D01*
X2720087Y2583979D01*
X2698143Y2576127D01*
X2675534Y2570463D01*
X2652479Y2567044D01*
X2629200Y2565900D01*
X2054200Y2565900D01*
X2030921Y2567044D01*
X2007866Y2570463D01*
X1985257Y2576127D01*
X1963313Y2583979D01*
X1942243Y2593944D01*
X1922252Y2605926D01*
X1903532Y2619810D01*
X1886262Y2635462D01*
X1870610Y2652732D01*
X1856726Y2671452D01*
X1844744Y2691443D01*
X1834779Y2712513D01*
X1826927Y2734457D01*
X1821263Y2757066D01*
X1817844Y2780121D01*
X1816700Y2803400D01*
X1816700Y3278400D01*
X1817844Y3301679D01*
X1821263Y3324734D01*
X1826927Y3347343D01*
X1834779Y3369287D01*
X1844744Y3390357D01*
X1856726Y3410348D01*
X1870610Y3429068D01*
X1886262Y3446338D01*
X1903532Y3461990D01*
X1922252Y3475874D01*
X1942243Y3487856D01*
X1963313Y3497821D01*
X1985257Y3505673D01*
X2007866Y3511337D01*
X2030921Y3514756D01*
X2054200Y3515900D01*
X2629200Y3515900D01*
X2652479Y3514756D01*
X2652479Y3514756D01*
G37*
D14*
X2341700Y3040900D03*
D12*
G36*
X4402479Y3514756D02*
G01*
X4425534Y3511337D01*
X4448143Y3505673D01*
X4470087Y3497821D01*
X4491157Y3487856D01*
X4511148Y3475874D01*
X4529868Y3461990D01*
X4547138Y3446338D01*
X4562790Y3429068D01*
X4576674Y3410348D01*
X4588656Y3390357D01*
X4598621Y3369287D01*
X4606473Y3347343D01*
X4612137Y3324734D01*
X4615556Y3301679D01*
X4616700Y3278400D01*
X4616700Y2803400D01*
X4615556Y2780121D01*
X4612137Y2757066D01*
X4606473Y2734457D01*
X4598621Y2712513D01*
X4588656Y2691443D01*
X4576674Y2671452D01*
X4562790Y2652732D01*
X4547138Y2635462D01*
X4529868Y2619810D01*
X4511148Y2605926D01*
X4491157Y2593944D01*
X4470087Y2583979D01*
X4448143Y2576127D01*
X4425534Y2570463D01*
X4402479Y2567044D01*
X4379200Y2565900D01*
X3804200Y2565900D01*
X3780921Y2567044D01*
X3757866Y2570463D01*
X3735257Y2576127D01*
X3713313Y2583979D01*
X3692243Y2593944D01*
X3672252Y2605926D01*
X3653532Y2619810D01*
X3636262Y2635462D01*
X3620610Y2652732D01*
X3606726Y2671452D01*
X3594744Y2691443D01*
X3584779Y2712513D01*
X3576927Y2734457D01*
X3571263Y2757066D01*
X3567844Y2780121D01*
X3566700Y2803400D01*
X3566700Y3278400D01*
X3567844Y3301679D01*
X3571263Y3324734D01*
X3576927Y3347343D01*
X3584779Y3369287D01*
X3594744Y3390357D01*
X3606726Y3410348D01*
X3620610Y3429068D01*
X3636262Y3446338D01*
X3653532Y3461990D01*
X3672252Y3475874D01*
X3692243Y3487856D01*
X3713313Y3497821D01*
X3735257Y3505673D01*
X3757866Y3511337D01*
X3780921Y3514756D01*
X3804200Y3515900D01*
X4379200Y3515900D01*
X4402479Y3514756D01*
X4402479Y3514756D01*
G37*
D14*
X4091700Y3040900D03*
D12*
G36*
X4620779Y14978856D02*
G01*
X4643834Y14975437D01*
X4666443Y14969773D01*
X4688387Y14961921D01*
X4709457Y14951956D01*
X4729448Y14939974D01*
X4748168Y14926090D01*
X4765438Y14910438D01*
X4781090Y14893168D01*
X4794974Y14874448D01*
X4806956Y14854457D01*
X4816921Y14833387D01*
X4824773Y14811443D01*
X4830437Y14788834D01*
X4833856Y14765779D01*
X4835000Y14742500D01*
X4835000Y14167500D01*
X4833856Y14144221D01*
X4830437Y14121166D01*
X4824773Y14098557D01*
X4816921Y14076613D01*
X4806956Y14055543D01*
X4794974Y14035552D01*
X4781090Y14016832D01*
X4765438Y13999562D01*
X4748168Y13983910D01*
X4729448Y13970026D01*
X4709457Y13958044D01*
X4688387Y13948079D01*
X4666443Y13940227D01*
X4643834Y13934563D01*
X4620779Y13931144D01*
X4597500Y13930000D01*
X4122500Y13930000D01*
X4099221Y13931144D01*
X4076166Y13934563D01*
X4053557Y13940227D01*
X4031613Y13948079D01*
X4010543Y13958044D01*
X3990552Y13970026D01*
X3971832Y13983910D01*
X3954562Y13999562D01*
X3938910Y14016832D01*
X3925026Y14035552D01*
X3913044Y14055543D01*
X3903079Y14076613D01*
X3895227Y14098557D01*
X3889563Y14121166D01*
X3886144Y14144221D01*
X3885000Y14167500D01*
X3885000Y14742500D01*
X3886144Y14765779D01*
X3889563Y14788834D01*
X3895227Y14811443D01*
X3903079Y14833387D01*
X3913044Y14854457D01*
X3925026Y14874448D01*
X3938910Y14893168D01*
X3954562Y14910438D01*
X3971832Y14926090D01*
X3990552Y14939974D01*
X4010543Y14951956D01*
X4031613Y14961921D01*
X4053557Y14969773D01*
X4076166Y14975437D01*
X4099221Y14978856D01*
X4122500Y14980000D01*
X4597500Y14980000D01*
X4620779Y14978856D01*
X4620779Y14978856D01*
G37*
D14*
X4360000Y14455000D03*
D12*
G36*
X4620779Y16728856D02*
G01*
X4643834Y16725437D01*
X4666443Y16719773D01*
X4688387Y16711921D01*
X4709457Y16701956D01*
X4729448Y16689974D01*
X4748168Y16676090D01*
X4765438Y16660438D01*
X4781090Y16643168D01*
X4794974Y16624448D01*
X4806956Y16604457D01*
X4816921Y16583387D01*
X4824773Y16561443D01*
X4830437Y16538834D01*
X4833856Y16515779D01*
X4835000Y16492500D01*
X4835000Y15917500D01*
X4833856Y15894221D01*
X4830437Y15871166D01*
X4824773Y15848557D01*
X4816921Y15826613D01*
X4806956Y15805543D01*
X4794974Y15785552D01*
X4781090Y15766832D01*
X4765438Y15749562D01*
X4748168Y15733910D01*
X4729448Y15720026D01*
X4709457Y15708044D01*
X4688387Y15698079D01*
X4666443Y15690227D01*
X4643834Y15684563D01*
X4620779Y15681144D01*
X4597500Y15680000D01*
X4122500Y15680000D01*
X4099221Y15681144D01*
X4076166Y15684563D01*
X4053557Y15690227D01*
X4031613Y15698079D01*
X4010543Y15708044D01*
X3990552Y15720026D01*
X3971832Y15733910D01*
X3954562Y15749562D01*
X3938910Y15766832D01*
X3925026Y15785552D01*
X3913044Y15805543D01*
X3903079Y15826613D01*
X3895227Y15848557D01*
X3889563Y15871166D01*
X3886144Y15894221D01*
X3885000Y15917500D01*
X3885000Y16492500D01*
X3886144Y16515779D01*
X3889563Y16538834D01*
X3895227Y16561443D01*
X3903079Y16583387D01*
X3913044Y16604457D01*
X3925026Y16624448D01*
X3938910Y16643168D01*
X3954562Y16660438D01*
X3971832Y16676090D01*
X3990552Y16689974D01*
X4010543Y16701956D01*
X4031613Y16711921D01*
X4053557Y16719773D01*
X4076166Y16725437D01*
X4099221Y16728856D01*
X4122500Y16730000D01*
X4597500Y16730000D01*
X4620779Y16728856D01*
X4620779Y16728856D01*
G37*
D14*
X4360000Y16205000D03*
D12*
G36*
X6550779Y14978856D02*
G01*
X6573834Y14975437D01*
X6596443Y14969773D01*
X6618387Y14961921D01*
X6639457Y14951956D01*
X6659448Y14939974D01*
X6678168Y14926090D01*
X6695438Y14910438D01*
X6711090Y14893168D01*
X6724974Y14874448D01*
X6736956Y14854457D01*
X6746921Y14833387D01*
X6754773Y14811443D01*
X6760437Y14788834D01*
X6763856Y14765779D01*
X6765000Y14742500D01*
X6765000Y14167500D01*
X6763856Y14144221D01*
X6760437Y14121166D01*
X6754773Y14098557D01*
X6746921Y14076613D01*
X6736956Y14055543D01*
X6724974Y14035552D01*
X6711090Y14016832D01*
X6695438Y13999562D01*
X6678168Y13983910D01*
X6659448Y13970026D01*
X6639457Y13958044D01*
X6618387Y13948079D01*
X6596443Y13940227D01*
X6573834Y13934563D01*
X6550779Y13931144D01*
X6527500Y13930000D01*
X6052500Y13930000D01*
X6029221Y13931144D01*
X6006166Y13934563D01*
X5983557Y13940227D01*
X5961613Y13948079D01*
X5940543Y13958044D01*
X5920552Y13970026D01*
X5901832Y13983910D01*
X5884562Y13999562D01*
X5868910Y14016832D01*
X5855026Y14035552D01*
X5843044Y14055543D01*
X5833079Y14076613D01*
X5825227Y14098557D01*
X5819563Y14121166D01*
X5816144Y14144221D01*
X5815000Y14167500D01*
X5815000Y14742500D01*
X5816144Y14765779D01*
X5819563Y14788834D01*
X5825227Y14811443D01*
X5833079Y14833387D01*
X5843044Y14854457D01*
X5855026Y14874448D01*
X5868910Y14893168D01*
X5884562Y14910438D01*
X5901832Y14926090D01*
X5920552Y14939974D01*
X5940543Y14951956D01*
X5961613Y14961921D01*
X5983557Y14969773D01*
X6006166Y14975437D01*
X6029221Y14978856D01*
X6052500Y14980000D01*
X6527500Y14980000D01*
X6550779Y14978856D01*
X6550779Y14978856D01*
G37*
D14*
X6290000Y14455000D03*
D12*
G36*
X6550779Y16728856D02*
G01*
X6573834Y16725437D01*
X6596443Y16719773D01*
X6618387Y16711921D01*
X6639457Y16701956D01*
X6659448Y16689974D01*
X6678168Y16676090D01*
X6695438Y16660438D01*
X6711090Y16643168D01*
X6724974Y16624448D01*
X6736956Y16604457D01*
X6746921Y16583387D01*
X6754773Y16561443D01*
X6760437Y16538834D01*
X6763856Y16515779D01*
X6765000Y16492500D01*
X6765000Y15917500D01*
X6763856Y15894221D01*
X6760437Y15871166D01*
X6754773Y15848557D01*
X6746921Y15826613D01*
X6736956Y15805543D01*
X6724974Y15785552D01*
X6711090Y15766832D01*
X6695438Y15749562D01*
X6678168Y15733910D01*
X6659448Y15720026D01*
X6639457Y15708044D01*
X6618387Y15698079D01*
X6596443Y15690227D01*
X6573834Y15684563D01*
X6550779Y15681144D01*
X6527500Y15680000D01*
X6052500Y15680000D01*
X6029221Y15681144D01*
X6006166Y15684563D01*
X5983557Y15690227D01*
X5961613Y15698079D01*
X5940543Y15708044D01*
X5920552Y15720026D01*
X5901832Y15733910D01*
X5884562Y15749562D01*
X5868910Y15766832D01*
X5855026Y15785552D01*
X5843044Y15805543D01*
X5833079Y15826613D01*
X5825227Y15848557D01*
X5819563Y15871166D01*
X5816144Y15894221D01*
X5815000Y15917500D01*
X5815000Y16492500D01*
X5816144Y16515779D01*
X5819563Y16538834D01*
X5825227Y16561443D01*
X5833079Y16583387D01*
X5843044Y16604457D01*
X5855026Y16624448D01*
X5868910Y16643168D01*
X5884562Y16660438D01*
X5901832Y16676090D01*
X5920552Y16689974D01*
X5940543Y16701956D01*
X5961613Y16711921D01*
X5983557Y16719773D01*
X6006166Y16725437D01*
X6029221Y16728856D01*
X6052500Y16730000D01*
X6527500Y16730000D01*
X6550779Y16728856D01*
X6550779Y16728856D01*
G37*
D14*
X6290000Y16205000D03*
D12*
G36*
X-18269221Y-3896144D02*
G01*
X-18246166Y-3899563D01*
X-18223557Y-3905227D01*
X-18201613Y-3913079D01*
X-18180543Y-3923044D01*
X-18160552Y-3935026D01*
X-18141832Y-3948910D01*
X-18124562Y-3964562D01*
X-18108910Y-3981832D01*
X-18095026Y-4000552D01*
X-18083044Y-4020543D01*
X-18073079Y-4041613D01*
X-18065227Y-4063557D01*
X-18059563Y-4086166D01*
X-18056144Y-4109221D01*
X-18055000Y-4132500D01*
X-18055000Y-4707500D01*
X-18056144Y-4730779D01*
X-18059563Y-4753834D01*
X-18065227Y-4776443D01*
X-18073079Y-4798387D01*
X-18083044Y-4819457D01*
X-18095026Y-4839448D01*
X-18108910Y-4858168D01*
X-18124562Y-4875438D01*
X-18141832Y-4891090D01*
X-18160552Y-4904974D01*
X-18180543Y-4916956D01*
X-18201613Y-4926921D01*
X-18223557Y-4934773D01*
X-18246166Y-4940437D01*
X-18269221Y-4943856D01*
X-18292500Y-4945000D01*
X-18767500Y-4945000D01*
X-18790779Y-4943856D01*
X-18813834Y-4940437D01*
X-18836443Y-4934773D01*
X-18858387Y-4926921D01*
X-18879457Y-4916956D01*
X-18899448Y-4904974D01*
X-18918168Y-4891090D01*
X-18935438Y-4875438D01*
X-18951090Y-4858168D01*
X-18964974Y-4839448D01*
X-18976956Y-4819457D01*
X-18986921Y-4798387D01*
X-18994773Y-4776443D01*
X-19000437Y-4753834D01*
X-19003856Y-4730779D01*
X-19005000Y-4707500D01*
X-19005000Y-4132500D01*
X-19003856Y-4109221D01*
X-19000437Y-4086166D01*
X-18994773Y-4063557D01*
X-18986921Y-4041613D01*
X-18976956Y-4020543D01*
X-18964974Y-4000552D01*
X-18951090Y-3981832D01*
X-18935438Y-3964562D01*
X-18918168Y-3948910D01*
X-18899448Y-3935026D01*
X-18879457Y-3923044D01*
X-18858387Y-3913079D01*
X-18836443Y-3905227D01*
X-18813834Y-3899563D01*
X-18790779Y-3896144D01*
X-18767500Y-3895000D01*
X-18292500Y-3895000D01*
X-18269221Y-3896144D01*
X-18269221Y-3896144D01*
G37*
D14*
X-18530000Y-4420000D03*
D12*
G36*
X-18269221Y-5646144D02*
G01*
X-18246166Y-5649563D01*
X-18223557Y-5655227D01*
X-18201613Y-5663079D01*
X-18180543Y-5673044D01*
X-18160552Y-5685026D01*
X-18141832Y-5698910D01*
X-18124562Y-5714562D01*
X-18108910Y-5731832D01*
X-18095026Y-5750552D01*
X-18083044Y-5770543D01*
X-18073079Y-5791613D01*
X-18065227Y-5813557D01*
X-18059563Y-5836166D01*
X-18056144Y-5859221D01*
X-18055000Y-5882500D01*
X-18055000Y-6457500D01*
X-18056144Y-6480779D01*
X-18059563Y-6503834D01*
X-18065227Y-6526443D01*
X-18073079Y-6548387D01*
X-18083044Y-6569457D01*
X-18095026Y-6589448D01*
X-18108910Y-6608168D01*
X-18124562Y-6625438D01*
X-18141832Y-6641090D01*
X-18160552Y-6654974D01*
X-18180543Y-6666956D01*
X-18201613Y-6676921D01*
X-18223557Y-6684773D01*
X-18246166Y-6690437D01*
X-18269221Y-6693856D01*
X-18292500Y-6695000D01*
X-18767500Y-6695000D01*
X-18790779Y-6693856D01*
X-18813834Y-6690437D01*
X-18836443Y-6684773D01*
X-18858387Y-6676921D01*
X-18879457Y-6666956D01*
X-18899448Y-6654974D01*
X-18918168Y-6641090D01*
X-18935438Y-6625438D01*
X-18951090Y-6608168D01*
X-18964974Y-6589448D01*
X-18976956Y-6569457D01*
X-18986921Y-6548387D01*
X-18994773Y-6526443D01*
X-19000437Y-6503834D01*
X-19003856Y-6480779D01*
X-19005000Y-6457500D01*
X-19005000Y-5882500D01*
X-19003856Y-5859221D01*
X-19000437Y-5836166D01*
X-18994773Y-5813557D01*
X-18986921Y-5791613D01*
X-18976956Y-5770543D01*
X-18964974Y-5750552D01*
X-18951090Y-5731832D01*
X-18935438Y-5714562D01*
X-18918168Y-5698910D01*
X-18899448Y-5685026D01*
X-18879457Y-5673044D01*
X-18858387Y-5663079D01*
X-18836443Y-5655227D01*
X-18813834Y-5649563D01*
X-18790779Y-5646144D01*
X-18767500Y-5645000D01*
X-18292500Y-5645000D01*
X-18269221Y-5646144D01*
X-18269221Y-5646144D01*
G37*
D14*
X-18530000Y-6170000D03*
D12*
G36*
X5440779Y12648856D02*
G01*
X5463834Y12645437D01*
X5486443Y12639773D01*
X5508387Y12631921D01*
X5529457Y12621956D01*
X5549448Y12609974D01*
X5568168Y12596090D01*
X5585438Y12580438D01*
X5601090Y12563168D01*
X5614974Y12544448D01*
X5626956Y12524457D01*
X5636921Y12503387D01*
X5644773Y12481443D01*
X5650437Y12458834D01*
X5653856Y12435779D01*
X5655000Y12412500D01*
X5655000Y11837500D01*
X5653856Y11814221D01*
X5650437Y11791166D01*
X5644773Y11768557D01*
X5636921Y11746613D01*
X5626956Y11725543D01*
X5614974Y11705552D01*
X5601090Y11686832D01*
X5585438Y11669562D01*
X5568168Y11653910D01*
X5549448Y11640026D01*
X5529457Y11628044D01*
X5508387Y11618079D01*
X5486443Y11610227D01*
X5463834Y11604563D01*
X5440779Y11601144D01*
X5417500Y11600000D01*
X4942500Y11600000D01*
X4919221Y11601144D01*
X4896166Y11604563D01*
X4873557Y11610227D01*
X4851613Y11618079D01*
X4830543Y11628044D01*
X4810552Y11640026D01*
X4791832Y11653910D01*
X4774562Y11669562D01*
X4758910Y11686832D01*
X4745026Y11705552D01*
X4733044Y11725543D01*
X4723079Y11746613D01*
X4715227Y11768557D01*
X4709563Y11791166D01*
X4706144Y11814221D01*
X4705000Y11837500D01*
X4705000Y12412500D01*
X4706144Y12435779D01*
X4709563Y12458834D01*
X4715227Y12481443D01*
X4723079Y12503387D01*
X4733044Y12524457D01*
X4745026Y12544448D01*
X4758910Y12563168D01*
X4774562Y12580438D01*
X4791832Y12596090D01*
X4810552Y12609974D01*
X4830543Y12621956D01*
X4851613Y12631921D01*
X4873557Y12639773D01*
X4896166Y12645437D01*
X4919221Y12648856D01*
X4942500Y12650000D01*
X5417500Y12650000D01*
X5440779Y12648856D01*
X5440779Y12648856D01*
G37*
D14*
X5180000Y12125000D03*
D12*
G36*
X5440779Y10898856D02*
G01*
X5463834Y10895437D01*
X5486443Y10889773D01*
X5508387Y10881921D01*
X5529457Y10871956D01*
X5549448Y10859974D01*
X5568168Y10846090D01*
X5585438Y10830438D01*
X5601090Y10813168D01*
X5614974Y10794448D01*
X5626956Y10774457D01*
X5636921Y10753387D01*
X5644773Y10731443D01*
X5650437Y10708834D01*
X5653856Y10685779D01*
X5655000Y10662500D01*
X5655000Y10087500D01*
X5653856Y10064221D01*
X5650437Y10041166D01*
X5644773Y10018557D01*
X5636921Y9996613D01*
X5626956Y9975543D01*
X5614974Y9955552D01*
X5601090Y9936832D01*
X5585438Y9919562D01*
X5568168Y9903910D01*
X5549448Y9890026D01*
X5529457Y9878044D01*
X5508387Y9868079D01*
X5486443Y9860227D01*
X5463834Y9854563D01*
X5440779Y9851144D01*
X5417500Y9850000D01*
X4942500Y9850000D01*
X4919221Y9851144D01*
X4896166Y9854563D01*
X4873557Y9860227D01*
X4851613Y9868079D01*
X4830543Y9878044D01*
X4810552Y9890026D01*
X4791832Y9903910D01*
X4774562Y9919562D01*
X4758910Y9936832D01*
X4745026Y9955552D01*
X4733044Y9975543D01*
X4723079Y9996613D01*
X4715227Y10018557D01*
X4709563Y10041166D01*
X4706144Y10064221D01*
X4705000Y10087500D01*
X4705000Y10662500D01*
X4706144Y10685779D01*
X4709563Y10708834D01*
X4715227Y10731443D01*
X4723079Y10753387D01*
X4733044Y10774457D01*
X4745026Y10794448D01*
X4758910Y10813168D01*
X4774562Y10830438D01*
X4791832Y10846090D01*
X4810552Y10859974D01*
X4830543Y10871956D01*
X4851613Y10881921D01*
X4873557Y10889773D01*
X4896166Y10895437D01*
X4919221Y10898856D01*
X4942500Y10900000D01*
X5417500Y10900000D01*
X5440779Y10898856D01*
X5440779Y10898856D01*
G37*
D14*
X5180000Y10375000D03*
D12*
G36*
X-7519221Y11848856D02*
G01*
X-7496166Y11845437D01*
X-7473557Y11839773D01*
X-7451613Y11831921D01*
X-7430543Y11821956D01*
X-7410552Y11809974D01*
X-7391832Y11796090D01*
X-7374562Y11780438D01*
X-7358910Y11763168D01*
X-7345026Y11744448D01*
X-7333044Y11724457D01*
X-7323079Y11703387D01*
X-7315227Y11681443D01*
X-7309563Y11658834D01*
X-7306144Y11635779D01*
X-7305000Y11612500D01*
X-7305000Y11037500D01*
X-7306144Y11014221D01*
X-7309563Y10991166D01*
X-7315227Y10968557D01*
X-7323079Y10946613D01*
X-7333044Y10925543D01*
X-7345026Y10905552D01*
X-7358910Y10886832D01*
X-7374562Y10869562D01*
X-7391832Y10853910D01*
X-7410552Y10840026D01*
X-7430543Y10828044D01*
X-7451613Y10818079D01*
X-7473557Y10810227D01*
X-7496166Y10804563D01*
X-7519221Y10801144D01*
X-7542500Y10800000D01*
X-8017500Y10800000D01*
X-8040779Y10801144D01*
X-8063834Y10804563D01*
X-8086443Y10810227D01*
X-8108387Y10818079D01*
X-8129457Y10828044D01*
X-8149448Y10840026D01*
X-8168168Y10853910D01*
X-8185438Y10869562D01*
X-8201090Y10886832D01*
X-8214974Y10905552D01*
X-8226956Y10925543D01*
X-8236921Y10946613D01*
X-8244773Y10968557D01*
X-8250437Y10991166D01*
X-8253856Y11014221D01*
X-8255000Y11037500D01*
X-8255000Y11612500D01*
X-8253856Y11635779D01*
X-8250437Y11658834D01*
X-8244773Y11681443D01*
X-8236921Y11703387D01*
X-8226956Y11724457D01*
X-8214974Y11744448D01*
X-8201090Y11763168D01*
X-8185438Y11780438D01*
X-8168168Y11796090D01*
X-8149448Y11809974D01*
X-8129457Y11821956D01*
X-8108387Y11831921D01*
X-8086443Y11839773D01*
X-8063834Y11845437D01*
X-8040779Y11848856D01*
X-8017500Y11850000D01*
X-7542500Y11850000D01*
X-7519221Y11848856D01*
X-7519221Y11848856D01*
G37*
D14*
X-7780000Y11325000D03*
D12*
G36*
X-7519221Y10098856D02*
G01*
X-7496166Y10095437D01*
X-7473557Y10089773D01*
X-7451613Y10081921D01*
X-7430543Y10071956D01*
X-7410552Y10059974D01*
X-7391832Y10046090D01*
X-7374562Y10030438D01*
X-7358910Y10013168D01*
X-7345026Y9994448D01*
X-7333044Y9974457D01*
X-7323079Y9953387D01*
X-7315227Y9931443D01*
X-7309563Y9908834D01*
X-7306144Y9885779D01*
X-7305000Y9862500D01*
X-7305000Y9287500D01*
X-7306144Y9264221D01*
X-7309563Y9241166D01*
X-7315227Y9218557D01*
X-7323079Y9196613D01*
X-7333044Y9175543D01*
X-7345026Y9155552D01*
X-7358910Y9136832D01*
X-7374562Y9119562D01*
X-7391832Y9103910D01*
X-7410552Y9090026D01*
X-7430543Y9078044D01*
X-7451613Y9068079D01*
X-7473557Y9060227D01*
X-7496166Y9054563D01*
X-7519221Y9051144D01*
X-7542500Y9050000D01*
X-8017500Y9050000D01*
X-8040779Y9051144D01*
X-8063834Y9054563D01*
X-8086443Y9060227D01*
X-8108387Y9068079D01*
X-8129457Y9078044D01*
X-8149448Y9090026D01*
X-8168168Y9103910D01*
X-8185438Y9119562D01*
X-8201090Y9136832D01*
X-8214974Y9155552D01*
X-8226956Y9175543D01*
X-8236921Y9196613D01*
X-8244773Y9218557D01*
X-8250437Y9241166D01*
X-8253856Y9264221D01*
X-8255000Y9287500D01*
X-8255000Y9862500D01*
X-8253856Y9885779D01*
X-8250437Y9908834D01*
X-8244773Y9931443D01*
X-8236921Y9953387D01*
X-8226956Y9974457D01*
X-8214974Y9994448D01*
X-8201090Y10013168D01*
X-8185438Y10030438D01*
X-8168168Y10046090D01*
X-8149448Y10059974D01*
X-8129457Y10071956D01*
X-8108387Y10081921D01*
X-8086443Y10089773D01*
X-8063834Y10095437D01*
X-8040779Y10098856D01*
X-8017500Y10100000D01*
X-7542500Y10100000D01*
X-7519221Y10098856D01*
X-7519221Y10098856D01*
G37*
D14*
X-7780000Y9575000D03*
D12*
G36*
X-14479221Y-251144D02*
G01*
X-14456166Y-254563D01*
X-14433557Y-260227D01*
X-14411613Y-268079D01*
X-14390543Y-278044D01*
X-14370552Y-290026D01*
X-14351832Y-303910D01*
X-14334562Y-319562D01*
X-14318910Y-336832D01*
X-14305026Y-355552D01*
X-14293044Y-375543D01*
X-14283079Y-396613D01*
X-14275227Y-418557D01*
X-14269563Y-441166D01*
X-14266144Y-464221D01*
X-14265000Y-487500D01*
X-14265000Y-1062500D01*
X-14266144Y-1085779D01*
X-14269563Y-1108834D01*
X-14275227Y-1131443D01*
X-14283079Y-1153387D01*
X-14293044Y-1174457D01*
X-14305026Y-1194448D01*
X-14318910Y-1213168D01*
X-14334562Y-1230438D01*
X-14351832Y-1246090D01*
X-14370552Y-1259974D01*
X-14390543Y-1271956D01*
X-14411613Y-1281921D01*
X-14433557Y-1289773D01*
X-14456166Y-1295437D01*
X-14479221Y-1298856D01*
X-14502500Y-1300000D01*
X-14977500Y-1300000D01*
X-15000779Y-1298856D01*
X-15023834Y-1295437D01*
X-15046443Y-1289773D01*
X-15068387Y-1281921D01*
X-15089457Y-1271956D01*
X-15109448Y-1259974D01*
X-15128168Y-1246090D01*
X-15145438Y-1230438D01*
X-15161090Y-1213168D01*
X-15174974Y-1194448D01*
X-15186956Y-1174457D01*
X-15196921Y-1153387D01*
X-15204773Y-1131443D01*
X-15210437Y-1108834D01*
X-15213856Y-1085779D01*
X-15215000Y-1062500D01*
X-15215000Y-487500D01*
X-15213856Y-464221D01*
X-15210437Y-441166D01*
X-15204773Y-418557D01*
X-15196921Y-396613D01*
X-15186956Y-375543D01*
X-15174974Y-355552D01*
X-15161090Y-336832D01*
X-15145438Y-319562D01*
X-15128168Y-303910D01*
X-15109448Y-290026D01*
X-15089457Y-278044D01*
X-15068387Y-268079D01*
X-15046443Y-260227D01*
X-15023834Y-254563D01*
X-15000779Y-251144D01*
X-14977500Y-250000D01*
X-14502500Y-250000D01*
X-14479221Y-251144D01*
X-14479221Y-251144D01*
G37*
D14*
X-14740000Y-775000D03*
D12*
G36*
X-14479221Y1498856D02*
G01*
X-14456166Y1495437D01*
X-14433557Y1489773D01*
X-14411613Y1481921D01*
X-14390543Y1471956D01*
X-14370552Y1459974D01*
X-14351832Y1446090D01*
X-14334562Y1430438D01*
X-14318910Y1413168D01*
X-14305026Y1394448D01*
X-14293044Y1374457D01*
X-14283079Y1353387D01*
X-14275227Y1331443D01*
X-14269563Y1308834D01*
X-14266144Y1285779D01*
X-14265000Y1262500D01*
X-14265000Y687500D01*
X-14266144Y664221D01*
X-14269563Y641166D01*
X-14275227Y618557D01*
X-14283079Y596613D01*
X-14293044Y575543D01*
X-14305026Y555552D01*
X-14318910Y536832D01*
X-14334562Y519562D01*
X-14351832Y503910D01*
X-14370552Y490026D01*
X-14390543Y478044D01*
X-14411613Y468079D01*
X-14433557Y460227D01*
X-14456166Y454563D01*
X-14479221Y451144D01*
X-14502500Y450000D01*
X-14977500Y450000D01*
X-15000779Y451144D01*
X-15023834Y454563D01*
X-15046443Y460227D01*
X-15068387Y468079D01*
X-15089457Y478044D01*
X-15109448Y490026D01*
X-15128168Y503910D01*
X-15145438Y519562D01*
X-15161090Y536832D01*
X-15174974Y555552D01*
X-15186956Y575543D01*
X-15196921Y596613D01*
X-15204773Y618557D01*
X-15210437Y641166D01*
X-15213856Y664221D01*
X-15215000Y687500D01*
X-15215000Y1262500D01*
X-15213856Y1285779D01*
X-15210437Y1308834D01*
X-15204773Y1331443D01*
X-15196921Y1353387D01*
X-15186956Y1374457D01*
X-15174974Y1394448D01*
X-15161090Y1413168D01*
X-15145438Y1430438D01*
X-15128168Y1446090D01*
X-15109448Y1459974D01*
X-15089457Y1471956D01*
X-15068387Y1481921D01*
X-15046443Y1489773D01*
X-15023834Y1495437D01*
X-15000779Y1498856D01*
X-14977500Y1500000D01*
X-14502500Y1500000D01*
X-14479221Y1498856D01*
X-14479221Y1498856D01*
G37*
D14*
X-14740000Y975000D03*
D12*
G36*
X-16159221Y-251144D02*
G01*
X-16136166Y-254563D01*
X-16113557Y-260227D01*
X-16091613Y-268079D01*
X-16070543Y-278044D01*
X-16050552Y-290026D01*
X-16031832Y-303910D01*
X-16014562Y-319562D01*
X-15998910Y-336832D01*
X-15985026Y-355552D01*
X-15973044Y-375543D01*
X-15963079Y-396613D01*
X-15955227Y-418557D01*
X-15949563Y-441166D01*
X-15946144Y-464221D01*
X-15945000Y-487500D01*
X-15945000Y-1062500D01*
X-15946144Y-1085779D01*
X-15949563Y-1108834D01*
X-15955227Y-1131443D01*
X-15963079Y-1153387D01*
X-15973044Y-1174457D01*
X-15985026Y-1194448D01*
X-15998910Y-1213168D01*
X-16014562Y-1230438D01*
X-16031832Y-1246090D01*
X-16050552Y-1259974D01*
X-16070543Y-1271956D01*
X-16091613Y-1281921D01*
X-16113557Y-1289773D01*
X-16136166Y-1295437D01*
X-16159221Y-1298856D01*
X-16182500Y-1300000D01*
X-16657500Y-1300000D01*
X-16680779Y-1298856D01*
X-16703834Y-1295437D01*
X-16726443Y-1289773D01*
X-16748387Y-1281921D01*
X-16769457Y-1271956D01*
X-16789448Y-1259974D01*
X-16808168Y-1246090D01*
X-16825438Y-1230438D01*
X-16841090Y-1213168D01*
X-16854974Y-1194448D01*
X-16866956Y-1174457D01*
X-16876921Y-1153387D01*
X-16884773Y-1131443D01*
X-16890437Y-1108834D01*
X-16893856Y-1085779D01*
X-16895000Y-1062500D01*
X-16895000Y-487500D01*
X-16893856Y-464221D01*
X-16890437Y-441166D01*
X-16884773Y-418557D01*
X-16876921Y-396613D01*
X-16866956Y-375543D01*
X-16854974Y-355552D01*
X-16841090Y-336832D01*
X-16825438Y-319562D01*
X-16808168Y-303910D01*
X-16789448Y-290026D01*
X-16769457Y-278044D01*
X-16748387Y-268079D01*
X-16726443Y-260227D01*
X-16703834Y-254563D01*
X-16680779Y-251144D01*
X-16657500Y-250000D01*
X-16182500Y-250000D01*
X-16159221Y-251144D01*
X-16159221Y-251144D01*
G37*
D14*
X-16420000Y-775000D03*
D12*
G36*
X-16159221Y1498856D02*
G01*
X-16136166Y1495437D01*
X-16113557Y1489773D01*
X-16091613Y1481921D01*
X-16070543Y1471956D01*
X-16050552Y1459974D01*
X-16031832Y1446090D01*
X-16014562Y1430438D01*
X-15998910Y1413168D01*
X-15985026Y1394448D01*
X-15973044Y1374457D01*
X-15963079Y1353387D01*
X-15955227Y1331443D01*
X-15949563Y1308834D01*
X-15946144Y1285779D01*
X-15945000Y1262500D01*
X-15945000Y687500D01*
X-15946144Y664221D01*
X-15949563Y641166D01*
X-15955227Y618557D01*
X-15963079Y596613D01*
X-15973044Y575543D01*
X-15985026Y555552D01*
X-15998910Y536832D01*
X-16014562Y519562D01*
X-16031832Y503910D01*
X-16050552Y490026D01*
X-16070543Y478044D01*
X-16091613Y468079D01*
X-16113557Y460227D01*
X-16136166Y454563D01*
X-16159221Y451144D01*
X-16182500Y450000D01*
X-16657500Y450000D01*
X-16680779Y451144D01*
X-16703834Y454563D01*
X-16726443Y460227D01*
X-16748387Y468079D01*
X-16769457Y478044D01*
X-16789448Y490026D01*
X-16808168Y503910D01*
X-16825438Y519562D01*
X-16841090Y536832D01*
X-16854974Y555552D01*
X-16866956Y575543D01*
X-16876921Y596613D01*
X-16884773Y618557D01*
X-16890437Y641166D01*
X-16893856Y664221D01*
X-16895000Y687500D01*
X-16895000Y1262500D01*
X-16893856Y1285779D01*
X-16890437Y1308834D01*
X-16884773Y1331443D01*
X-16876921Y1353387D01*
X-16866956Y1374457D01*
X-16854974Y1394448D01*
X-16841090Y1413168D01*
X-16825438Y1430438D01*
X-16808168Y1446090D01*
X-16789448Y1459974D01*
X-16769457Y1471956D01*
X-16748387Y1481921D01*
X-16726443Y1489773D01*
X-16703834Y1495437D01*
X-16680779Y1498856D01*
X-16657500Y1500000D01*
X-16182500Y1500000D01*
X-16159221Y1498856D01*
X-16159221Y1498856D01*
G37*
D14*
X-16420000Y975000D03*
M02*
