G04 #@! TF.GenerationSoftware,KiCad,Pcbnew,(5.1.2)-1*
G04 #@! TF.CreationDate,2019-07-09T23:08:42-04:00*
G04 #@! TF.ProjectId,SPIvSPI_SAO_Black,53504976-5350-4495-9f53-414f5f426c61,0*
G04 #@! TF.SameCoordinates,PX8b5c450PY5b57ca0*
G04 #@! TF.FileFunction,Legend,Bot*
G04 #@! TF.FilePolarity,Positive*
%FSLAX46Y46*%
G04 Gerber Fmt 4.6, Leading zero omitted, Abs format (unit mm)*
G04 Created by KiCad (PCBNEW (5.1.2)-1) date 2019-07-09 23:08:42*
%MOMM*%
%LPD*%
G04 APERTURE LIST*
%ADD10C,0.150000*%
%ADD11C,0.200000*%
%ADD12C,0.250000*%
%ADD13C,0.100000*%
%ADD14C,0.120000*%
G04 APERTURE END LIST*
D10*
X13870000Y8580000D02*
X13870000Y4980000D01*
X-10968096Y-15920000D02*
X-10872858Y-15872380D01*
X-10730000Y-15872380D01*
X-10587143Y-15920000D01*
X-10491905Y-16015238D01*
X-10444286Y-16110476D01*
X-10396667Y-16300952D01*
X-10396667Y-16443809D01*
X-10444286Y-16634285D01*
X-10491905Y-16729523D01*
X-10587143Y-16824761D01*
X-10730000Y-16872380D01*
X-10825239Y-16872380D01*
X-10968096Y-16824761D01*
X-11015715Y-16777142D01*
X-11015715Y-16443809D01*
X-10825239Y-16443809D01*
X-11444286Y-16872380D02*
X-11444286Y-15872380D01*
X-12015715Y-16872380D01*
X-12015715Y-15872380D01*
X-12491905Y-16872380D02*
X-12491905Y-15872380D01*
X-12730000Y-15872380D01*
X-12872858Y-15920000D01*
X-12968096Y-16015238D01*
X-13015715Y-16110476D01*
X-13063334Y-16300952D01*
X-13063334Y-16443809D01*
X-13015715Y-16634285D01*
X-12968096Y-16729523D01*
X-12872858Y-16824761D01*
X-12730000Y-16872380D01*
X-12491905Y-16872380D01*
X-10168096Y-13691428D02*
X-10930000Y-13691428D01*
X-10549048Y-14072380D02*
X-10549048Y-13310476D01*
X-11310953Y-13072380D02*
X-11930000Y-13072380D01*
X-11596667Y-13453333D01*
X-11739524Y-13453333D01*
X-11834762Y-13500952D01*
X-11882381Y-13548571D01*
X-11930000Y-13643809D01*
X-11930000Y-13881904D01*
X-11882381Y-13977142D01*
X-11834762Y-14024761D01*
X-11739524Y-14072380D01*
X-11453810Y-14072380D01*
X-11358572Y-14024761D01*
X-11310953Y-13977142D01*
X-12215715Y-13072380D02*
X-12549048Y-14072380D01*
X-12882381Y-13072380D01*
X-13120477Y-13072380D02*
X-13739524Y-13072380D01*
X-13406191Y-13453333D01*
X-13549048Y-13453333D01*
X-13644286Y-13500952D01*
X-13691905Y-13548571D01*
X-13739524Y-13643809D01*
X-13739524Y-13881904D01*
X-13691905Y-13977142D01*
X-13644286Y-14024761D01*
X-13549048Y-14072380D01*
X-13263334Y-14072380D01*
X-13168096Y-14024761D01*
X-13120477Y-13977142D01*
X-8730000Y-11220000D02*
X-8730000Y-10620000D01*
X-4330000Y-11220000D02*
X-8730000Y-11220000D01*
X-4330000Y-10620000D02*
X-4330000Y-11220000D01*
X-14330000Y-20620000D02*
X-14330000Y-17620000D01*
X-24730000Y-20620000D02*
X-14330000Y-20620000D01*
X-24730000Y-17620000D02*
X-24730000Y-20620000D01*
X-14330000Y-17620000D02*
X-24730000Y-17620000D01*
X-18236007Y3470868D02*
X-18226985Y3320554D01*
X-18193313Y3262232D01*
X-18113645Y3191586D01*
X-17975656Y3154612D01*
X-17871338Y3175959D01*
X-17813017Y3209631D01*
X-17742371Y3289299D01*
X-17643773Y3657271D01*
X-18609699Y3916090D01*
X-18695972Y3594115D01*
X-18674625Y3489797D01*
X-18640953Y3431476D01*
X-18561285Y3360830D01*
X-18469292Y3336181D01*
X-18364975Y3357528D01*
X-18306653Y3391199D01*
X-18236007Y3470868D01*
X-18149734Y3792843D01*
X-17902592Y2691345D02*
X-18546543Y2863891D01*
X-18868518Y2950164D02*
X-18810197Y2983836D01*
X-18776525Y2925515D01*
X-18834846Y2891843D01*
X-18868518Y2950164D01*
X-18776525Y2925515D01*
X-18669790Y2403927D02*
X-18025840Y2231381D01*
X-18577797Y2379277D02*
X-18636118Y2345605D01*
X-18706764Y2265937D01*
X-18743738Y2127948D01*
X-18722391Y2023630D01*
X-18642723Y1952984D01*
X-18136762Y1817412D01*
X-18370932Y943479D02*
X-18876893Y1079051D01*
X-18956561Y1149697D01*
X-18977908Y1254015D01*
X-18928609Y1438001D01*
X-18857963Y1517669D01*
X-18416928Y955804D02*
X-18346282Y1035472D01*
X-18284659Y1265455D01*
X-18306006Y1369772D01*
X-18385674Y1440418D01*
X-18477667Y1465068D01*
X-18581984Y1443721D01*
X-18652630Y1364052D01*
X-18714254Y1134070D01*
X-18784900Y1054402D01*
X-18494179Y483515D02*
X-19138129Y656061D01*
X-18954143Y606762D02*
X-19058461Y585415D01*
X-19116782Y551743D01*
X-19187428Y472075D01*
X-19212078Y380082D01*
X-19273701Y150100D02*
X-18691374Y-252429D01*
X-19396948Y-309865D02*
X-18691374Y-252429D01*
X-18436742Y-222059D01*
X-18378421Y-188388D01*
X-18307775Y-108719D01*
X-19048791Y-1586326D02*
X-20014717Y-1327507D01*
X-19554752Y-1450754D02*
X-19702649Y-2002712D01*
X-19196688Y-2138284D02*
X-20162613Y-1879465D01*
X-19464529Y-2953896D02*
X-19393883Y-2874227D01*
X-19344584Y-2690241D01*
X-19365931Y-2585924D01*
X-19445599Y-2515278D01*
X-19813571Y-2416680D01*
X-19917889Y-2438027D01*
X-19988535Y-2517695D01*
X-20037834Y-2701681D01*
X-20016487Y-2805999D01*
X-19936818Y-2876645D01*
X-19844825Y-2901294D01*
X-19629585Y-2465979D01*
X-19652702Y-3840153D02*
X-20158663Y-3704581D01*
X-20238331Y-3633935D01*
X-20259678Y-3529618D01*
X-20210380Y-3345632D01*
X-20139734Y-3265964D01*
X-19698699Y-3827828D02*
X-19628053Y-3748160D01*
X-19566429Y-3518178D01*
X-19587776Y-3413860D01*
X-19667444Y-3343214D01*
X-19759437Y-3318565D01*
X-19863755Y-3339912D01*
X-19934401Y-3419580D01*
X-19996024Y-3649563D01*
X-20066670Y-3729231D01*
X-20395250Y-4035579D02*
X-19812923Y-4438107D01*
X-20518498Y-4495544D01*
X-20592446Y-4771522D02*
X-20010119Y-5174051D01*
X-20715693Y-5231487D02*
X-20010119Y-5174051D01*
X-19755487Y-5143681D01*
X-19697166Y-5110010D01*
X-19626520Y-5030341D01*
X-20367536Y-6507948D02*
X-21333461Y-6249129D01*
X-21134733Y-6795367D02*
X-20490783Y-6967913D01*
X-21042740Y-6820016D02*
X-21101062Y-6853688D01*
X-21171708Y-6933356D01*
X-21208682Y-7071346D01*
X-21187335Y-7175663D01*
X-21107666Y-7246309D01*
X-20601705Y-7381881D01*
X-20835875Y-8255814D02*
X-21801801Y-7996995D01*
X-20881871Y-8243489D02*
X-20811225Y-8163821D01*
X-20761927Y-7979835D01*
X-20783274Y-7875518D01*
X-20816945Y-7817196D01*
X-20896614Y-7746551D01*
X-21172592Y-7672602D01*
X-21276910Y-7693949D01*
X-21335231Y-7727621D01*
X-21405877Y-7807289D01*
X-21455176Y-7991275D01*
X-21433829Y-8095593D01*
X-21713995Y-8957201D02*
X-21070044Y-9129747D01*
X-21603073Y-8543233D02*
X-21097111Y-8678805D01*
X-21017443Y-8749451D01*
X-20996096Y-8853768D01*
X-21033070Y-8991758D01*
X-21103716Y-9071426D01*
X-21162037Y-9105098D01*
X-21226963Y-9531390D02*
X-21205616Y-9635708D01*
X-21254915Y-9819694D01*
X-21325561Y-9899362D01*
X-21429879Y-9920709D01*
X-21475875Y-9908385D01*
X-21555543Y-9837739D01*
X-21576890Y-9733421D01*
X-21539916Y-9595432D01*
X-21561263Y-9491114D01*
X-21640932Y-9420468D01*
X-21686928Y-9408143D01*
X-21791246Y-9429490D01*
X-21861892Y-9509159D01*
X-21898866Y-9647148D01*
X-21877519Y-9751466D01*
X-22009788Y-10061116D02*
X-22108386Y-10429088D01*
X-22368738Y-10112833D02*
X-21540801Y-10334677D01*
X-21461133Y-10405323D01*
X-21439786Y-10509641D01*
X-21464435Y-10601634D01*
X-21550708Y-10923609D02*
X-22194659Y-10751063D01*
X-22010673Y-10800362D02*
X-22114991Y-10821709D01*
X-22173312Y-10855381D01*
X-22243958Y-10935049D01*
X-22268607Y-11027042D01*
X-21710930Y-11521563D02*
X-22354880Y-11349017D01*
X-22676856Y-11262744D02*
X-22618534Y-11229073D01*
X-22584863Y-11287394D01*
X-22643184Y-11321065D01*
X-22676856Y-11262744D01*
X-22584863Y-11287394D01*
X-21978771Y-12337175D02*
X-21908125Y-12257507D01*
X-21858826Y-12073521D01*
X-21880173Y-11969203D01*
X-21959842Y-11898557D01*
X-22327813Y-11799960D01*
X-22432131Y-11821307D01*
X-22502777Y-11900975D01*
X-22552076Y-12084961D01*
X-22530729Y-12189278D01*
X-22451060Y-12259924D01*
X-22359068Y-12284574D01*
X-22143827Y-11849259D01*
X-22089694Y-12751143D02*
X-22068347Y-12855461D01*
X-22117645Y-13039447D01*
X-22188291Y-13119115D01*
X-22292609Y-13140462D01*
X-22338605Y-13128137D01*
X-22418274Y-13057491D01*
X-22439621Y-12953174D01*
X-22402646Y-12815184D01*
X-22423994Y-12710867D01*
X-22503662Y-12640221D01*
X-22549658Y-12627896D01*
X-22653976Y-12649243D01*
X-22724622Y-12728911D01*
X-22761596Y-12866901D01*
X-22740249Y-12971218D01*
X-17563011Y13874850D02*
X-18410671Y13857728D01*
X-18095435Y14276060D02*
X-17878248Y13456518D01*
X-18107511Y13152275D02*
X-18639934Y13553485D01*
X-18487813Y13438854D02*
X-18592532Y13458139D01*
X-18659220Y13448767D01*
X-18754566Y13401364D01*
X-18811881Y13325304D01*
X-18747356Y12382298D02*
X-18652010Y12429700D01*
X-18537378Y12581821D01*
X-18518093Y12686540D01*
X-18565496Y12781886D01*
X-18869738Y13011149D01*
X-18974456Y13030434D01*
X-19069802Y12983032D01*
X-19184433Y12830910D01*
X-19203719Y12726192D01*
X-19156316Y12630846D01*
X-19080256Y12573530D01*
X-18717617Y12896517D01*
X-19005277Y12040025D02*
X-19024562Y11935307D01*
X-19139193Y11783186D01*
X-19234539Y11735783D01*
X-19339258Y11755069D01*
X-19377288Y11783727D01*
X-19424691Y11879073D01*
X-19405405Y11983791D01*
X-19319432Y12097882D01*
X-19300146Y12202600D01*
X-19347549Y12297946D01*
X-19385579Y12326604D01*
X-19490298Y12345889D01*
X-19585644Y12298487D01*
X-19671617Y12184396D01*
X-19690903Y12079678D01*
X-20396355Y11776517D02*
X-20453670Y11700456D01*
X-20472956Y11595738D01*
X-20463583Y11529050D01*
X-20416181Y11433704D01*
X-20292718Y11281042D01*
X-20102566Y11137753D01*
X-19921787Y11061152D01*
X-19817069Y11041866D01*
X-19750381Y11051239D01*
X-19655035Y11098641D01*
X-19597719Y11174702D01*
X-19578434Y11279420D01*
X-19587806Y11346108D01*
X-19635209Y11441454D01*
X-19758672Y11594116D01*
X-19948823Y11737405D01*
X-20129602Y11814006D01*
X-20234321Y11833292D01*
X-20301009Y11823919D01*
X-20396355Y11776517D01*
X-20588669Y10967428D02*
X-20056245Y10566218D01*
X-20512608Y10910112D02*
X-20579296Y10900739D01*
X-20674642Y10853337D01*
X-20760616Y10739246D01*
X-20779901Y10634528D01*
X-20732498Y10539182D01*
X-20314166Y10223945D01*
X-20858665Y9501370D02*
X-21276998Y9816607D01*
X-21324400Y9911953D01*
X-21305115Y10016671D01*
X-21190484Y10168792D01*
X-21095138Y10216195D01*
X-20896695Y9530028D02*
X-20801349Y9577431D01*
X-20658060Y9767582D01*
X-20638774Y9872300D01*
X-20686177Y9967646D01*
X-20762238Y10024962D01*
X-20866956Y10044248D01*
X-20962302Y9996845D01*
X-21105591Y9806694D01*
X-21200937Y9759291D01*
X-21677667Y9522278D02*
X-21145243Y9121068D01*
X-21601607Y9464962D02*
X-21668295Y9455590D01*
X-21763641Y9408187D01*
X-21849614Y9294096D01*
X-21868900Y9189378D01*
X-21821497Y9094032D01*
X-21403164Y8778795D01*
X-21985694Y8084878D02*
X-21890348Y8132281D01*
X-21775716Y8284402D01*
X-21756431Y8389120D01*
X-21765803Y8455808D01*
X-21813206Y8551154D01*
X-22041388Y8723101D01*
X-22146106Y8742387D01*
X-22212794Y8733015D01*
X-22308140Y8685612D01*
X-22422771Y8533491D01*
X-22442057Y8428772D01*
X-22472877Y7438364D02*
X-22377531Y7485766D01*
X-22262900Y7637887D01*
X-22243614Y7742606D01*
X-22291017Y7837952D01*
X-22595259Y8067215D01*
X-22699978Y8086500D01*
X-22795324Y8039097D01*
X-22909955Y7886976D01*
X-22929241Y7782258D01*
X-22881838Y7686912D01*
X-22805777Y7629596D01*
X-22443138Y7952583D01*
X-18400730Y11524842D02*
X-18467418Y11515469D01*
X-18562764Y11468067D01*
X-18706053Y11277915D01*
X-18725339Y11173197D01*
X-18715967Y11106509D01*
X-18668564Y11011163D01*
X-18592503Y10953847D01*
X-18449755Y10905904D01*
X-17649497Y11018373D01*
X-18022049Y10523979D01*
X-19193237Y10631401D02*
X-19250553Y10555340D01*
X-19269838Y10450622D01*
X-19260466Y10383934D01*
X-19213063Y10288588D01*
X-19089600Y10135926D01*
X-18899449Y9992637D01*
X-18718670Y9916036D01*
X-18613951Y9896750D01*
X-18547263Y9906123D01*
X-18451917Y9953525D01*
X-18394602Y10029586D01*
X-18375316Y10134304D01*
X-18384689Y10200992D01*
X-18432091Y10296338D01*
X-18555554Y10449000D01*
X-18745706Y10592289D01*
X-18926485Y10668890D01*
X-19031203Y10688176D01*
X-19097891Y10678803D01*
X-19193237Y10631401D01*
X-19168364Y9002769D02*
X-18824469Y9459132D01*
X-18996417Y9230950D02*
X-19795052Y9832765D01*
X-19623646Y9822852D01*
X-19490269Y9841597D01*
X-19394923Y9889000D01*
X-19454942Y8622466D02*
X-19569574Y8470345D01*
X-19664920Y8422942D01*
X-19731608Y8413570D01*
X-19903014Y8423483D01*
X-20083793Y8500084D01*
X-20388035Y8729347D01*
X-20435438Y8824693D01*
X-20444810Y8891381D01*
X-20425525Y8996099D01*
X-20310894Y9148221D01*
X-20215548Y9195623D01*
X-20148859Y9204996D01*
X-20044141Y9185710D01*
X-19853990Y9042421D01*
X-19806587Y8947075D01*
X-19797215Y8880387D01*
X-19816500Y8775668D01*
X-19931132Y8623547D01*
X-20026478Y8576145D01*
X-20093166Y8566772D01*
X-20197884Y8586058D01*
D11*
X-4615715Y17237143D02*
X-5472858Y17237143D01*
X-4958572Y17751429D02*
X-4615715Y16208572D01*
X-5358572Y16722858D02*
X-4501429Y16722858D01*
X-5015715Y16208572D02*
X-5358572Y17751429D01*
X-5872858Y16437143D02*
X-5872858Y17637143D01*
X-6158572Y17637143D01*
X-6330000Y17580000D01*
X-6444286Y17465715D01*
X-6501429Y17351429D01*
X-6558572Y17122858D01*
X-6558572Y16951429D01*
X-6501429Y16722858D01*
X-6444286Y16608572D01*
X-6330000Y16494286D01*
X-6158572Y16437143D01*
X-5872858Y16437143D01*
X-7758572Y16551429D02*
X-7701429Y16494286D01*
X-7530000Y16437143D01*
X-7415715Y16437143D01*
X-7244286Y16494286D01*
X-7130000Y16608572D01*
X-7072858Y16722858D01*
X-7015715Y16951429D01*
X-7015715Y17122858D01*
X-7072858Y17351429D01*
X-7130000Y17465715D01*
X-7244286Y17580000D01*
X-7415715Y17637143D01*
X-7530000Y17637143D01*
X-7701429Y17580000D01*
X-7758572Y17522858D01*
X-8215715Y17522858D02*
X-8272858Y17580000D01*
X-8387143Y17637143D01*
X-8672858Y17637143D01*
X-8787143Y17580000D01*
X-8844286Y17522858D01*
X-8901429Y17408572D01*
X-8901429Y17294286D01*
X-8844286Y17122858D01*
X-8158572Y16437143D01*
X-8901429Y16437143D01*
X-9301429Y17637143D02*
X-10101429Y17637143D01*
X-9587143Y16437143D01*
D12*
X1162857Y19215715D02*
X1234285Y19287143D01*
X1377142Y19358572D01*
X1520000Y19358572D01*
X1662857Y19287143D01*
X1734285Y19215715D01*
X1805714Y19072858D01*
X1805714Y18930000D01*
X1734285Y18787143D01*
X1662857Y18715715D01*
X1520000Y18644286D01*
X1377142Y18644286D01*
X1234285Y18715715D01*
X1162857Y18787143D01*
X1162857Y19358572D02*
X1162857Y18787143D01*
X1091428Y18715715D01*
X1020000Y18715715D01*
X877142Y18787143D01*
X805714Y18930000D01*
X805714Y19287143D01*
X948571Y19501429D01*
X1162857Y19644286D01*
X1448571Y19715715D01*
X1734285Y19644286D01*
X1948571Y19501429D01*
X2091428Y19287143D01*
X2162857Y19001429D01*
X2091428Y18715715D01*
X1948571Y18501429D01*
X1734285Y18358572D01*
X1448571Y18287143D01*
X1162857Y18358572D01*
X948571Y18501429D01*
X234285Y18572858D02*
X20000Y18501429D01*
X-337143Y18501429D01*
X-480000Y18572858D01*
X-551429Y18644286D01*
X-622858Y18787143D01*
X-622858Y18930000D01*
X-551429Y19072858D01*
X-480000Y19144286D01*
X-337143Y19215715D01*
X-51429Y19287143D01*
X91428Y19358572D01*
X162857Y19430000D01*
X234285Y19572858D01*
X234285Y19715715D01*
X162857Y19858572D01*
X91428Y19930000D01*
X-51429Y20001429D01*
X-408572Y20001429D01*
X-622858Y19930000D01*
X-1265715Y18501429D02*
X-1265715Y20001429D01*
X-1837143Y20001429D01*
X-1980000Y19930000D01*
X-2051429Y19858572D01*
X-2122858Y19715715D01*
X-2122858Y19501429D01*
X-2051429Y19358572D01*
X-1980000Y19287143D01*
X-1837143Y19215715D01*
X-1265715Y19215715D01*
X-2765715Y18501429D02*
X-2765715Y20001429D01*
X-3337143Y19501429D02*
X-3694286Y18501429D01*
X-4051429Y19501429D01*
X-4551429Y18572858D02*
X-4765715Y18501429D01*
X-5122858Y18501429D01*
X-5265715Y18572858D01*
X-5337143Y18644286D01*
X-5408572Y18787143D01*
X-5408572Y18930000D01*
X-5337143Y19072858D01*
X-5265715Y19144286D01*
X-5122858Y19215715D01*
X-4837143Y19287143D01*
X-4694286Y19358572D01*
X-4622858Y19430000D01*
X-4551429Y19572858D01*
X-4551429Y19715715D01*
X-4622858Y19858572D01*
X-4694286Y19930000D01*
X-4837143Y20001429D01*
X-5194286Y20001429D01*
X-5408572Y19930000D01*
X-6051429Y18501429D02*
X-6051429Y20001429D01*
X-6622858Y20001429D01*
X-6765715Y19930000D01*
X-6837143Y19858572D01*
X-6908572Y19715715D01*
X-6908572Y19501429D01*
X-6837143Y19358572D01*
X-6765715Y19287143D01*
X-6622858Y19215715D01*
X-6051429Y19215715D01*
X-7551429Y18501429D02*
X-7551429Y20001429D01*
D10*
X-16127620Y12808572D02*
X-17127620Y12808572D01*
X-17127620Y12570477D01*
X-17080000Y12427620D01*
X-16984762Y12332381D01*
X-16889524Y12284762D01*
X-16699048Y12237143D01*
X-16556191Y12237143D01*
X-16365715Y12284762D01*
X-16270477Y12332381D01*
X-16175239Y12427620D01*
X-16127620Y12570477D01*
X-16127620Y12808572D01*
X-16175239Y11427620D02*
X-16127620Y11522858D01*
X-16127620Y11713334D01*
X-16175239Y11808572D01*
X-16270477Y11856191D01*
X-16651429Y11856191D01*
X-16746667Y11808572D01*
X-16794286Y11713334D01*
X-16794286Y11522858D01*
X-16746667Y11427620D01*
X-16651429Y11380000D01*
X-16556191Y11380000D01*
X-16460953Y11856191D01*
X-16127620Y10951429D02*
X-17127620Y10951429D01*
X-16746667Y10951429D02*
X-16794286Y10856191D01*
X-16794286Y10665715D01*
X-16746667Y10570477D01*
X-16699048Y10522858D01*
X-16603810Y10475239D01*
X-16318096Y10475239D01*
X-16222858Y10522858D01*
X-16175239Y10570477D01*
X-16127620Y10665715D01*
X-16127620Y10856191D01*
X-16175239Y10951429D01*
X-16794286Y9618096D02*
X-16127620Y9618096D01*
X-16794286Y10046667D02*
X-16270477Y10046667D01*
X-16175239Y9999048D01*
X-16127620Y9903810D01*
X-16127620Y9760953D01*
X-16175239Y9665715D01*
X-16222858Y9618096D01*
X-16794286Y8713334D02*
X-15984762Y8713334D01*
X-15889524Y8760953D01*
X-15841905Y8808572D01*
X-15794286Y8903810D01*
X-15794286Y9046667D01*
X-15841905Y9141905D01*
X-16175239Y8713334D02*
X-16127620Y8808572D01*
X-16127620Y8999048D01*
X-16175239Y9094286D01*
X-16222858Y9141905D01*
X-16318096Y9189524D01*
X-16603810Y9189524D01*
X-16699048Y9141905D01*
X-16746667Y9094286D01*
X-16794286Y8999048D01*
X-16794286Y8808572D01*
X-16746667Y8713334D01*
X-16127620Y7475239D02*
X-16794286Y7475239D01*
X-17127620Y7475239D02*
X-17080000Y7522858D01*
X-17032381Y7475239D01*
X-17080000Y7427620D01*
X-17127620Y7475239D01*
X-17032381Y7475239D01*
X-16175239Y7046667D02*
X-16127620Y6951429D01*
X-16127620Y6760953D01*
X-16175239Y6665715D01*
X-16270477Y6618096D01*
X-16318096Y6618096D01*
X-16413334Y6665715D01*
X-16460953Y6760953D01*
X-16460953Y6903810D01*
X-16508572Y6999048D01*
X-16603810Y7046667D01*
X-16651429Y7046667D01*
X-16746667Y6999048D01*
X-16794286Y6903810D01*
X-16794286Y6760953D01*
X-16746667Y6665715D01*
X-16222858Y4856191D02*
X-16175239Y4903810D01*
X-16127620Y5046667D01*
X-16127620Y5141905D01*
X-16175239Y5284762D01*
X-16270477Y5380000D01*
X-16365715Y5427620D01*
X-16556191Y5475239D01*
X-16699048Y5475239D01*
X-16889524Y5427620D01*
X-16984762Y5380000D01*
X-17080000Y5284762D01*
X-17127620Y5141905D01*
X-17127620Y5046667D01*
X-17080000Y4903810D01*
X-17032381Y4856191D01*
X-17032381Y4475239D02*
X-17080000Y4427620D01*
X-17127620Y4332381D01*
X-17127620Y4094286D01*
X-17080000Y3999048D01*
X-17032381Y3951429D01*
X-16937143Y3903810D01*
X-16841905Y3903810D01*
X-16699048Y3951429D01*
X-16127620Y4522858D01*
X-16127620Y3903810D01*
X-14477620Y12189524D02*
X-15477620Y12189524D01*
X-14477620Y11618096D01*
X-15477620Y11618096D01*
X-14477620Y10999048D02*
X-14525239Y11094286D01*
X-14572858Y11141905D01*
X-14668096Y11189524D01*
X-14953810Y11189524D01*
X-15049048Y11141905D01*
X-15096667Y11094286D01*
X-15144286Y10999048D01*
X-15144286Y10856191D01*
X-15096667Y10760953D01*
X-15049048Y10713334D01*
X-14953810Y10665715D01*
X-14668096Y10665715D01*
X-14572858Y10713334D01*
X-14525239Y10760953D01*
X-14477620Y10856191D01*
X-14477620Y10999048D01*
X-15144286Y10380000D02*
X-15144286Y9999048D01*
X-15477620Y10237143D02*
X-14620477Y10237143D01*
X-14525239Y10189524D01*
X-14477620Y10094286D01*
X-14477620Y9999048D01*
X-14525239Y8951429D02*
X-14477620Y8808572D01*
X-14477620Y8570477D01*
X-14525239Y8475239D01*
X-14572858Y8427620D01*
X-14668096Y8380000D01*
X-14763334Y8380000D01*
X-14858572Y8427620D01*
X-14906191Y8475239D01*
X-14953810Y8570477D01*
X-15001429Y8760953D01*
X-15049048Y8856191D01*
X-15096667Y8903810D01*
X-15191905Y8951429D01*
X-15287143Y8951429D01*
X-15382381Y8903810D01*
X-15430000Y8856191D01*
X-15477620Y8760953D01*
X-15477620Y8522858D01*
X-15430000Y8380000D01*
X-14525239Y7570477D02*
X-14477620Y7665715D01*
X-14477620Y7856191D01*
X-14525239Y7951429D01*
X-14620477Y7999048D01*
X-15001429Y7999048D01*
X-15096667Y7951429D01*
X-15144286Y7856191D01*
X-15144286Y7665715D01*
X-15096667Y7570477D01*
X-15001429Y7522858D01*
X-14906191Y7522858D01*
X-14810953Y7999048D01*
X-14477620Y7094286D02*
X-15144286Y7094286D01*
X-14953810Y7094286D02*
X-15049048Y7046667D01*
X-15096667Y6999048D01*
X-15144286Y6903810D01*
X-15144286Y6808572D01*
X-14477620Y6475239D02*
X-15144286Y6475239D01*
X-15477620Y6475239D02*
X-15430000Y6522858D01*
X-15382381Y6475239D01*
X-15430000Y6427620D01*
X-15477620Y6475239D01*
X-15382381Y6475239D01*
X-14477620Y5570477D02*
X-15001429Y5570477D01*
X-15096667Y5618096D01*
X-15144286Y5713334D01*
X-15144286Y5903810D01*
X-15096667Y5999048D01*
X-14525239Y5570477D02*
X-14477620Y5665715D01*
X-14477620Y5903810D01*
X-14525239Y5999048D01*
X-14620477Y6046667D01*
X-14715715Y6046667D01*
X-14810953Y5999048D01*
X-14858572Y5903810D01*
X-14858572Y5665715D01*
X-14906191Y5570477D01*
X-14477620Y4951429D02*
X-14525239Y5046667D01*
X-14620477Y5094286D01*
X-15477620Y5094286D01*
X-14572858Y4570477D02*
X-14525239Y4522858D01*
X-14477620Y4570477D01*
X-14525239Y4618096D01*
X-14572858Y4570477D01*
X-14477620Y4570477D01*
X-14858572Y4570477D02*
X-15430000Y4618096D01*
X-15477620Y4570477D01*
X-15430000Y4522858D01*
X-14858572Y4570477D01*
X-15477620Y4570477D01*
X-12827620Y10641905D02*
X-13303810Y10975239D01*
X-12827620Y11213334D02*
X-13827620Y11213334D01*
X-13827620Y10832381D01*
X-13780000Y10737143D01*
X-13732381Y10689524D01*
X-13637143Y10641905D01*
X-13494286Y10641905D01*
X-13399048Y10689524D01*
X-13351429Y10737143D01*
X-13303810Y10832381D01*
X-13303810Y11213334D01*
X-13827620Y10356191D02*
X-13827620Y9784762D01*
X-12827620Y10070477D02*
X-13827620Y10070477D01*
X-13351429Y9118096D02*
X-13351429Y9451429D01*
X-12827620Y9451429D02*
X-13827620Y9451429D01*
X-13827620Y8975239D01*
X-12827620Y8594286D02*
X-13827620Y8594286D01*
X-13113334Y8260953D01*
X-13827620Y7927620D01*
X-12827620Y7927620D01*
X-12922858Y7451429D02*
X-12875239Y7403810D01*
X-12827620Y7451429D01*
X-12875239Y7499048D01*
X-12922858Y7451429D01*
X-12827620Y7451429D01*
X-13208572Y7451429D02*
X-13780000Y7499048D01*
X-13827620Y7451429D01*
X-13780000Y7403810D01*
X-13208572Y7451429D01*
X-13827620Y7451429D01*
X-12922858Y6213334D02*
X-12875239Y6165715D01*
X-12827620Y6213334D01*
X-12875239Y6260953D01*
X-12922858Y6213334D01*
X-12827620Y6213334D01*
X-13446667Y6213334D02*
X-13399048Y6165715D01*
X-13351429Y6213334D01*
X-13399048Y6260953D01*
X-13446667Y6213334D01*
X-13351429Y6213334D01*
X-12446667Y5832381D02*
X-12494286Y5784762D01*
X-12637143Y5689524D01*
X-12732381Y5641905D01*
X-12875239Y5594286D01*
X-13113334Y5546667D01*
X-13303810Y5546667D01*
X-13541905Y5594286D01*
X-13684762Y5641905D01*
X-13780000Y5689524D01*
X-13922858Y5784762D01*
X-13970477Y5832381D01*
X20470000Y4980000D02*
X20470000Y10380000D01*
X7470000Y4980000D02*
X20470000Y4980000D01*
X7470000Y8380000D02*
X7470000Y4980000D01*
X11870000Y8780000D02*
X8670000Y8780000D01*
X11870000Y10380000D02*
X11870000Y8780000D01*
X20470000Y10380000D02*
X11870000Y10380000D01*
X19674761Y9927620D02*
X19674761Y9213334D01*
X19722380Y9070477D01*
X19817619Y8975239D01*
X19960476Y8927620D01*
X20055714Y8927620D01*
X19246190Y9832381D02*
X19198571Y9880000D01*
X19103333Y9927620D01*
X18865238Y9927620D01*
X18770000Y9880000D01*
X18722380Y9832381D01*
X18674761Y9737143D01*
X18674761Y9641905D01*
X18722380Y9499048D01*
X19293809Y8927620D01*
X18674761Y8927620D01*
X17484285Y8927620D02*
X17484285Y9927620D01*
X17103333Y9927620D01*
X17008095Y9880000D01*
X16960476Y9832381D01*
X16912857Y9737143D01*
X16912857Y9594286D01*
X16960476Y9499048D01*
X17008095Y9451429D01*
X17103333Y9403810D01*
X17484285Y9403810D01*
X16484285Y8927620D02*
X16484285Y9927620D01*
X16008095Y8927620D02*
X16008095Y9927620D01*
X15436666Y8927620D01*
X15436666Y9927620D01*
X14770000Y9927620D02*
X14579523Y9927620D01*
X14484285Y9880000D01*
X14389047Y9784762D01*
X14341428Y9594286D01*
X14341428Y9260953D01*
X14389047Y9070477D01*
X14484285Y8975239D01*
X14579523Y8927620D01*
X14770000Y8927620D01*
X14865238Y8975239D01*
X14960476Y9070477D01*
X15008095Y9260953D01*
X15008095Y9594286D01*
X14960476Y9784762D01*
X14865238Y9880000D01*
X14770000Y9927620D01*
X13912857Y9927620D02*
X13912857Y9118096D01*
X13865238Y9022858D01*
X13817619Y8975239D01*
X13722380Y8927620D01*
X13531904Y8927620D01*
X13436666Y8975239D01*
X13389047Y9022858D01*
X13341428Y9118096D01*
X13341428Y9927620D01*
X13008095Y9927620D02*
X12436666Y9927620D01*
X12722380Y8927620D02*
X12722380Y9927620D01*
X-13647157Y-5220000D02*
G75*
G03X-13647157Y-5220000I-282843J0D01*
G01*
X-23847157Y-17220000D02*
G75*
G03X-23847157Y-17220000I-282843J0D01*
G01*
X10946190Y6822858D02*
X10898571Y6775239D01*
X10946190Y6727620D01*
X10993809Y6775239D01*
X10946190Y6822858D01*
X10946190Y6727620D01*
X10470000Y6822858D02*
X10422380Y6775239D01*
X10470000Y6727620D01*
X10517619Y6775239D01*
X10470000Y6822858D01*
X10470000Y6727620D01*
X9993809Y6822858D02*
X9946190Y6775239D01*
X9993809Y6727620D01*
X10041428Y6775239D01*
X9993809Y6822858D01*
X9993809Y6727620D01*
X12789047Y5327620D02*
X13360476Y5327620D01*
X13074761Y5327620D02*
X13074761Y6327620D01*
X13170000Y6184762D01*
X13265238Y6089524D01*
X13360476Y6041905D01*
X11931904Y6327620D02*
X12122380Y6327620D01*
X12217619Y6280000D01*
X12265238Y6232381D01*
X12360476Y6089524D01*
X12408095Y5899048D01*
X12408095Y5518096D01*
X12360476Y5422858D01*
X12312857Y5375239D01*
X12217619Y5327620D01*
X12027142Y5327620D01*
X11931904Y5375239D01*
X11884285Y5422858D01*
X11836666Y5518096D01*
X11836666Y5756191D01*
X11884285Y5851429D01*
X11931904Y5899048D01*
X12027142Y5946667D01*
X12217619Y5946667D01*
X12312857Y5899048D01*
X12360476Y5851429D01*
X12408095Y5756191D01*
X11408095Y5422858D02*
X11360476Y5375239D01*
X11408095Y5327620D01*
X11455714Y5375239D01*
X11408095Y5422858D01*
X11408095Y5327620D01*
X11408095Y5946667D02*
X11360476Y5899048D01*
X11408095Y5851429D01*
X11455714Y5899048D01*
X11408095Y5946667D01*
X11408095Y5851429D01*
X10931904Y5327620D02*
X10931904Y6327620D01*
X10550952Y6327620D01*
X10455714Y6280000D01*
X10408095Y6232381D01*
X10360476Y6137143D01*
X10360476Y5994286D01*
X10408095Y5899048D01*
X10455714Y5851429D01*
X10550952Y5803810D01*
X10931904Y5803810D01*
X9408095Y5327620D02*
X9979523Y5327620D01*
X9693809Y5327620D02*
X9693809Y6327620D01*
X9789047Y6184762D01*
X9884285Y6089524D01*
X9979523Y6041905D01*
X8979523Y5422858D02*
X8931904Y5375239D01*
X8979523Y5327620D01*
X9027142Y5375239D01*
X8979523Y5422858D01*
X8979523Y5327620D01*
X8598571Y6327620D02*
X7979523Y6327620D01*
X8312857Y5946667D01*
X8170000Y5946667D01*
X8074761Y5899048D01*
X8027142Y5851429D01*
X7979523Y5756191D01*
X7979523Y5518096D01*
X8027142Y5422858D01*
X8074761Y5375239D01*
X8170000Y5327620D01*
X8455714Y5327620D01*
X8550952Y5375239D01*
X8598571Y5422858D01*
X12789047Y7327620D02*
X13360476Y7327620D01*
X13074761Y7327620D02*
X13074761Y8327620D01*
X13170000Y8184762D01*
X13265238Y8089524D01*
X13360476Y8041905D01*
X12455714Y8327620D02*
X11836666Y8327620D01*
X12170000Y7946667D01*
X12027142Y7946667D01*
X11931904Y7899048D01*
X11884285Y7851429D01*
X11836666Y7756191D01*
X11836666Y7518096D01*
X11884285Y7422858D01*
X11931904Y7375239D01*
X12027142Y7327620D01*
X12312857Y7327620D01*
X12408095Y7375239D01*
X12455714Y7422858D01*
X11408095Y7422858D02*
X11360476Y7375239D01*
X11408095Y7327620D01*
X11455714Y7375239D01*
X11408095Y7422858D01*
X11408095Y7327620D01*
X11408095Y7946667D02*
X11360476Y7899048D01*
X11408095Y7851429D01*
X11455714Y7899048D01*
X11408095Y7946667D01*
X11408095Y7851429D01*
X10931904Y7327620D02*
X10931904Y8327620D01*
X10550952Y8327620D01*
X10455714Y8280000D01*
X10408095Y8232381D01*
X10360476Y8137143D01*
X10360476Y7994286D01*
X10408095Y7899048D01*
X10455714Y7851429D01*
X10550952Y7803810D01*
X10931904Y7803810D01*
X9408095Y7327620D02*
X9979523Y7327620D01*
X9693809Y7327620D02*
X9693809Y8327620D01*
X9789047Y8184762D01*
X9884285Y8089524D01*
X9979523Y8041905D01*
X8979523Y7422858D02*
X8931904Y7375239D01*
X8979523Y7327620D01*
X9027142Y7375239D01*
X8979523Y7422858D01*
X8979523Y7327620D01*
X8312857Y8327620D02*
X8217619Y8327620D01*
X8122380Y8280000D01*
X8074761Y8232381D01*
X8027142Y8137143D01*
X7979523Y7946667D01*
X7979523Y7708572D01*
X8027142Y7518096D01*
X8074761Y7422858D01*
X8122380Y7375239D01*
X8217619Y7327620D01*
X8312857Y7327620D01*
X8408095Y7375239D01*
X8455714Y7422858D01*
X8503333Y7518096D01*
X8550952Y7708572D01*
X8550952Y7946667D01*
X8503333Y8137143D01*
X8455714Y8232381D01*
X8408095Y8280000D01*
X8312857Y8327620D01*
X17346190Y6822858D02*
X17298571Y6775239D01*
X17346190Y6727620D01*
X17393809Y6775239D01*
X17346190Y6822858D01*
X17346190Y6727620D01*
X16870000Y6822858D02*
X16822380Y6775239D01*
X16870000Y6727620D01*
X16917619Y6775239D01*
X16870000Y6822858D01*
X16870000Y6727620D01*
X16393809Y6822858D02*
X16346190Y6775239D01*
X16393809Y6727620D01*
X16441428Y6775239D01*
X16393809Y6822858D01*
X16393809Y6727620D01*
X19189047Y5327620D02*
X19760476Y5327620D01*
X19474761Y5327620D02*
X19474761Y6327620D01*
X19570000Y6184762D01*
X19665238Y6089524D01*
X19760476Y6041905D01*
X18808095Y6232381D02*
X18760476Y6280000D01*
X18665238Y6327620D01*
X18427142Y6327620D01*
X18331904Y6280000D01*
X18284285Y6232381D01*
X18236666Y6137143D01*
X18236666Y6041905D01*
X18284285Y5899048D01*
X18855714Y5327620D01*
X18236666Y5327620D01*
X17808095Y5422858D02*
X17760476Y5375239D01*
X17808095Y5327620D01*
X17855714Y5375239D01*
X17808095Y5422858D01*
X17808095Y5327620D01*
X17808095Y5946667D02*
X17760476Y5899048D01*
X17808095Y5851429D01*
X17855714Y5899048D01*
X17808095Y5946667D01*
X17808095Y5851429D01*
X17331904Y5327620D02*
X17331904Y6327620D01*
X16950952Y6327620D01*
X16855714Y6280000D01*
X16808095Y6232381D01*
X16760476Y6137143D01*
X16760476Y5994286D01*
X16808095Y5899048D01*
X16855714Y5851429D01*
X16950952Y5803810D01*
X17331904Y5803810D01*
X16141428Y6327620D02*
X16046190Y6327620D01*
X15950952Y6280000D01*
X15903333Y6232381D01*
X15855714Y6137143D01*
X15808095Y5946667D01*
X15808095Y5708572D01*
X15855714Y5518096D01*
X15903333Y5422858D01*
X15950952Y5375239D01*
X16046190Y5327620D01*
X16141428Y5327620D01*
X16236666Y5375239D01*
X16284285Y5422858D01*
X16331904Y5518096D01*
X16379523Y5708572D01*
X16379523Y5946667D01*
X16331904Y6137143D01*
X16284285Y6232381D01*
X16236666Y6280000D01*
X16141428Y6327620D01*
X15379523Y5422858D02*
X15331904Y5375239D01*
X15379523Y5327620D01*
X15427142Y5375239D01*
X15379523Y5422858D01*
X15379523Y5327620D01*
X14998571Y6327620D02*
X14331904Y6327620D01*
X14760476Y5327620D01*
X18360476Y8327620D02*
X18836666Y8327620D01*
X18884285Y7851429D01*
X18836666Y7899048D01*
X18741428Y7946667D01*
X18503333Y7946667D01*
X18408095Y7899048D01*
X18360476Y7851429D01*
X18312857Y7756191D01*
X18312857Y7518096D01*
X18360476Y7422858D01*
X18408095Y7375239D01*
X18503333Y7327620D01*
X18741428Y7327620D01*
X18836666Y7375239D01*
X18884285Y7422858D01*
X17884285Y7422858D02*
X17836666Y7375239D01*
X17884285Y7327620D01*
X17931904Y7375239D01*
X17884285Y7422858D01*
X17884285Y7327620D01*
X17884285Y7946667D02*
X17836666Y7899048D01*
X17884285Y7851429D01*
X17931904Y7899048D01*
X17884285Y7946667D01*
X17884285Y7851429D01*
X17408095Y7327620D02*
X17408095Y8327620D01*
X17027142Y8327620D01*
X16931904Y8280000D01*
X16884285Y8232381D01*
X16836666Y8137143D01*
X16836666Y7994286D01*
X16884285Y7899048D01*
X16931904Y7851429D01*
X17027142Y7803810D01*
X17408095Y7803810D01*
X16217619Y8327620D02*
X16122380Y8327620D01*
X16027142Y8280000D01*
X15979523Y8232381D01*
X15931904Y8137143D01*
X15884285Y7946667D01*
X15884285Y7708572D01*
X15931904Y7518096D01*
X15979523Y7422858D01*
X16027142Y7375239D01*
X16122380Y7327620D01*
X16217619Y7327620D01*
X16312857Y7375239D01*
X16360476Y7422858D01*
X16408095Y7518096D01*
X16455714Y7708572D01*
X16455714Y7946667D01*
X16408095Y8137143D01*
X16360476Y8232381D01*
X16312857Y8280000D01*
X16217619Y8327620D01*
X15455714Y7422858D02*
X15408095Y7375239D01*
X15455714Y7327620D01*
X15503333Y7375239D01*
X15455714Y7422858D01*
X15455714Y7327620D01*
X14789047Y8327620D02*
X14693809Y8327620D01*
X14598571Y8280000D01*
X14550952Y8232381D01*
X14503333Y8137143D01*
X14455714Y7946667D01*
X14455714Y7708572D01*
X14503333Y7518096D01*
X14550952Y7422858D01*
X14598571Y7375239D01*
X14693809Y7327620D01*
X14789047Y7327620D01*
X14884285Y7375239D01*
X14931904Y7422858D01*
X14979523Y7518096D01*
X15027142Y7708572D01*
X15027142Y7946667D01*
X14979523Y8137143D01*
X14931904Y8232381D01*
X14884285Y8280000D01*
X14789047Y8327620D01*
X-12520477Y23927620D02*
X-12520477Y24927620D01*
X-12853810Y24213334D01*
X-13187143Y24927620D01*
X-13187143Y23927620D01*
X-13853810Y24927620D02*
X-14044286Y24927620D01*
X-14139524Y24880000D01*
X-14234762Y24784762D01*
X-14282381Y24594286D01*
X-14282381Y24260953D01*
X-14234762Y24070477D01*
X-14139524Y23975239D01*
X-14044286Y23927620D01*
X-13853810Y23927620D01*
X-13758572Y23975239D01*
X-13663334Y24070477D01*
X-13615715Y24260953D01*
X-13615715Y24594286D01*
X-13663334Y24784762D01*
X-13758572Y24880000D01*
X-13853810Y24927620D01*
X-14710953Y23927620D02*
X-14710953Y24927620D01*
X-14949048Y24927620D01*
X-15091905Y24880000D01*
X-15187143Y24784762D01*
X-15234762Y24689524D01*
X-15282381Y24499048D01*
X-15282381Y24356191D01*
X-15234762Y24165715D01*
X-15187143Y24070477D01*
X-15091905Y23975239D01*
X-14949048Y23927620D01*
X-14710953Y23927620D01*
X-15710953Y24451429D02*
X-16044286Y24451429D01*
X-16187143Y23927620D02*
X-15710953Y23927620D01*
X-15710953Y24927620D01*
X-16187143Y24927620D01*
X-10550239Y14927620D02*
X-10502620Y14784762D01*
X-10502620Y14546667D01*
X-10550239Y14451429D01*
X-10597858Y14403810D01*
X-10693096Y14356191D01*
X-10788334Y14356191D01*
X-10883572Y14403810D01*
X-10931191Y14451429D01*
X-10978810Y14546667D01*
X-11026429Y14737143D01*
X-11074048Y14832381D01*
X-11121667Y14880000D01*
X-11216905Y14927620D01*
X-11312143Y14927620D01*
X-11407381Y14880000D01*
X-11455000Y14832381D01*
X-11502620Y14737143D01*
X-11502620Y14499048D01*
X-11455000Y14356191D01*
X-10502620Y13927620D02*
X-11169286Y13927620D01*
X-11502620Y13927620D02*
X-11455000Y13975239D01*
X-11407381Y13927620D01*
X-11455000Y13880000D01*
X-11502620Y13927620D01*
X-11407381Y13927620D01*
X-10502620Y12975239D02*
X-10502620Y13451429D01*
X-11502620Y13451429D01*
X-10502620Y12213334D02*
X-11026429Y12213334D01*
X-11121667Y12260953D01*
X-11169286Y12356191D01*
X-11169286Y12546667D01*
X-11121667Y12641905D01*
X-10550239Y12213334D02*
X-10502620Y12308572D01*
X-10502620Y12546667D01*
X-10550239Y12641905D01*
X-10645477Y12689524D01*
X-10740715Y12689524D01*
X-10835953Y12641905D01*
X-10883572Y12546667D01*
X-10883572Y12308572D01*
X-10931191Y12213334D01*
X-10502620Y11737143D02*
X-11502620Y11737143D01*
X-11121667Y11737143D02*
X-11169286Y11641905D01*
X-11169286Y11451429D01*
X-11121667Y11356191D01*
X-11074048Y11308572D01*
X-10978810Y11260953D01*
X-10693096Y11260953D01*
X-10597858Y11308572D01*
X-10550239Y11356191D01*
X-10502620Y11451429D01*
X-10502620Y11641905D01*
X-10550239Y11737143D01*
X-10550239Y10880000D02*
X-10502620Y10784762D01*
X-10502620Y10594286D01*
X-10550239Y10499048D01*
X-10645477Y10451429D01*
X-10693096Y10451429D01*
X-10788334Y10499048D01*
X-10835953Y10594286D01*
X-10835953Y10737143D01*
X-10883572Y10832381D01*
X-10978810Y10880000D01*
X-11026429Y10880000D01*
X-11121667Y10832381D01*
X-11169286Y10737143D01*
X-11169286Y10594286D01*
X-11121667Y10499048D01*
X-11026429Y9260953D02*
X-11026429Y8927620D01*
X-10502620Y8784762D02*
X-10502620Y9260953D01*
X-11502620Y9260953D01*
X-11502620Y8784762D01*
X-11026429Y8022858D02*
X-11026429Y8356191D01*
X-10502620Y8356191D02*
X-11502620Y8356191D01*
X-11502620Y7880000D01*
X-10502620Y7499048D02*
X-11502620Y7499048D01*
X-10788334Y7165715D01*
X-11502620Y6832381D01*
X-10502620Y6832381D01*
X-11074048Y6213334D02*
X-11121667Y6308572D01*
X-11169286Y6356191D01*
X-11264524Y6403810D01*
X-11312143Y6403810D01*
X-11407381Y6356191D01*
X-11455000Y6308572D01*
X-11502620Y6213334D01*
X-11502620Y6022858D01*
X-11455000Y5927620D01*
X-11407381Y5880000D01*
X-11312143Y5832381D01*
X-11264524Y5832381D01*
X-11169286Y5880000D01*
X-11121667Y5927620D01*
X-11074048Y6022858D01*
X-11074048Y6213334D01*
X-11026429Y6308572D01*
X-10978810Y6356191D01*
X-10883572Y6403810D01*
X-10693096Y6403810D01*
X-10597858Y6356191D01*
X-10550239Y6308572D01*
X-10502620Y6213334D01*
X-10502620Y6022858D01*
X-10550239Y5927620D01*
X-10597858Y5880000D01*
X-10693096Y5832381D01*
X-10883572Y5832381D01*
X-10978810Y5880000D01*
X-11026429Y5927620D01*
X-11074048Y6022858D01*
X-9424048Y14213334D02*
X-9471667Y14308572D01*
X-9519286Y14356191D01*
X-9614524Y14403810D01*
X-9662143Y14403810D01*
X-9757381Y14356191D01*
X-9805000Y14308572D01*
X-9852620Y14213334D01*
X-9852620Y14022858D01*
X-9805000Y13927620D01*
X-9757381Y13880000D01*
X-9662143Y13832381D01*
X-9614524Y13832381D01*
X-9519286Y13880000D01*
X-9471667Y13927620D01*
X-9424048Y14022858D01*
X-9424048Y14213334D01*
X-9376429Y14308572D01*
X-9328810Y14356191D01*
X-9233572Y14403810D01*
X-9043096Y14403810D01*
X-8947858Y14356191D01*
X-8900239Y14308572D01*
X-8852620Y14213334D01*
X-8852620Y14022858D01*
X-8900239Y13927620D01*
X-8947858Y13880000D01*
X-9043096Y13832381D01*
X-9233572Y13832381D01*
X-9328810Y13880000D01*
X-9376429Y13927620D01*
X-9424048Y14022858D01*
X-9852620Y13213334D02*
X-9852620Y13118096D01*
X-9805000Y13022858D01*
X-9757381Y12975239D01*
X-9662143Y12927620D01*
X-9471667Y12880000D01*
X-9233572Y12880000D01*
X-9043096Y12927620D01*
X-8947858Y12975239D01*
X-8900239Y13022858D01*
X-8852620Y13118096D01*
X-8852620Y13213334D01*
X-8900239Y13308572D01*
X-8947858Y13356191D01*
X-9043096Y13403810D01*
X-9233572Y13451429D01*
X-9471667Y13451429D01*
X-9662143Y13403810D01*
X-9757381Y13356191D01*
X-9805000Y13308572D01*
X-9852620Y13213334D01*
X-9852620Y11975239D02*
X-9852620Y12451429D01*
X-9376429Y12499048D01*
X-9424048Y12451429D01*
X-9471667Y12356191D01*
X-9471667Y12118096D01*
X-9424048Y12022858D01*
X-9376429Y11975239D01*
X-9281191Y11927620D01*
X-9043096Y11927620D01*
X-8947858Y11975239D01*
X-8900239Y12022858D01*
X-8852620Y12118096D01*
X-8852620Y12356191D01*
X-8900239Y12451429D01*
X-8947858Y12499048D01*
X-8852620Y10975239D02*
X-8852620Y11546667D01*
X-8852620Y11260953D02*
X-9852620Y11260953D01*
X-9709762Y11356191D01*
X-9614524Y11451429D01*
X-9566905Y11546667D01*
X-8947858Y9213334D02*
X-8900239Y9260953D01*
X-8852620Y9403810D01*
X-8852620Y9499048D01*
X-8900239Y9641905D01*
X-8995477Y9737143D01*
X-9090715Y9784762D01*
X-9281191Y9832381D01*
X-9424048Y9832381D01*
X-9614524Y9784762D01*
X-9709762Y9737143D01*
X-9805000Y9641905D01*
X-9852620Y9499048D01*
X-9852620Y9403810D01*
X-9805000Y9260953D01*
X-9757381Y9213334D01*
X-8852620Y8641905D02*
X-8900239Y8737143D01*
X-8947858Y8784762D01*
X-9043096Y8832381D01*
X-9328810Y8832381D01*
X-9424048Y8784762D01*
X-9471667Y8737143D01*
X-9519286Y8641905D01*
X-9519286Y8499048D01*
X-9471667Y8403810D01*
X-9424048Y8356191D01*
X-9328810Y8308572D01*
X-9043096Y8308572D01*
X-8947858Y8356191D01*
X-8900239Y8403810D01*
X-8852620Y8499048D01*
X-8852620Y8641905D01*
X-8852620Y7880000D02*
X-9519286Y7880000D01*
X-9328810Y7880000D02*
X-9424048Y7832381D01*
X-9471667Y7784762D01*
X-9519286Y7689524D01*
X-9519286Y7594286D01*
X-8900239Y6880000D02*
X-8852620Y6975239D01*
X-8852620Y7165715D01*
X-8900239Y7260953D01*
X-8995477Y7308572D01*
X-9376429Y7308572D01*
X-9471667Y7260953D01*
X-9519286Y7165715D01*
X-9519286Y6975239D01*
X-9471667Y6880000D01*
X-9376429Y6832381D01*
X-9281191Y6832381D01*
X-9185953Y7308572D01*
X-8947858Y6403810D02*
X-8900239Y6356191D01*
X-8852620Y6403810D01*
X-8900239Y6451429D01*
X-8947858Y6403810D01*
X-8852620Y6403810D01*
X-9233572Y6403810D02*
X-9805000Y6451429D01*
X-9852620Y6403810D01*
X-9805000Y6356191D01*
X-9233572Y6403810D01*
X-9852620Y6403810D01*
X-3901429Y-10224761D02*
X-4044286Y-10272380D01*
X-4282381Y-10272380D01*
X-4377620Y-10224761D01*
X-4425239Y-10177142D01*
X-4472858Y-10081904D01*
X-4472858Y-9986666D01*
X-4425239Y-9891428D01*
X-4377620Y-9843809D01*
X-4282381Y-9796190D01*
X-4091905Y-9748571D01*
X-3996667Y-9700952D01*
X-3949048Y-9653333D01*
X-3901429Y-9558095D01*
X-3901429Y-9462857D01*
X-3949048Y-9367619D01*
X-3996667Y-9320000D01*
X-4091905Y-9272380D01*
X-4330000Y-9272380D01*
X-4472858Y-9320000D01*
X-4853810Y-9986666D02*
X-5330000Y-9986666D01*
X-4758572Y-10272380D02*
X-5091905Y-9272380D01*
X-5425239Y-10272380D01*
X-5949048Y-9272380D02*
X-6139524Y-9272380D01*
X-6234762Y-9320000D01*
X-6330000Y-9415238D01*
X-6377620Y-9605714D01*
X-6377620Y-9939047D01*
X-6330000Y-10129523D01*
X-6234762Y-10224761D01*
X-6139524Y-10272380D01*
X-5949048Y-10272380D01*
X-5853810Y-10224761D01*
X-5758572Y-10129523D01*
X-5710953Y-9939047D01*
X-5710953Y-9605714D01*
X-5758572Y-9415238D01*
X-5853810Y-9320000D01*
X-5949048Y-9272380D01*
X-6806191Y-10177142D02*
X-6853810Y-10224761D01*
X-6806191Y-10272380D01*
X-6758572Y-10224761D01*
X-6806191Y-10177142D01*
X-6806191Y-10272380D01*
X-7710953Y-9272380D02*
X-7520477Y-9272380D01*
X-7425239Y-9320000D01*
X-7377620Y-9367619D01*
X-7282381Y-9510476D01*
X-7234762Y-9700952D01*
X-7234762Y-10081904D01*
X-7282381Y-10177142D01*
X-7330000Y-10224761D01*
X-7425239Y-10272380D01*
X-7615715Y-10272380D01*
X-7710953Y-10224761D01*
X-7758572Y-10177142D01*
X-7806191Y-10081904D01*
X-7806191Y-9843809D01*
X-7758572Y-9748571D01*
X-7710953Y-9700952D01*
X-7615715Y-9653333D01*
X-7425239Y-9653333D01*
X-7330000Y-9700952D01*
X-7282381Y-9748571D01*
X-7234762Y-9843809D01*
X-8282381Y-10272380D02*
X-8472858Y-10272380D01*
X-8568096Y-10224761D01*
X-8615715Y-10177142D01*
X-8710953Y-10034285D01*
X-8758572Y-9843809D01*
X-8758572Y-9462857D01*
X-8710953Y-9367619D01*
X-8663334Y-9320000D01*
X-8568096Y-9272380D01*
X-8377620Y-9272380D01*
X-8282381Y-9320000D01*
X-8234762Y-9367619D01*
X-8187143Y-9462857D01*
X-8187143Y-9700952D01*
X-8234762Y-9796190D01*
X-8282381Y-9843809D01*
X-8377620Y-9891428D01*
X-8568096Y-9891428D01*
X-8663334Y-9843809D01*
X-8710953Y-9796190D01*
X-8758572Y-9700952D01*
X-17306191Y-9047380D02*
X-16830000Y-9047380D01*
X-16830000Y-8047380D01*
X-17544286Y-8047380D02*
X-18163334Y-8047380D01*
X-17830000Y-8428333D01*
X-17972858Y-8428333D01*
X-18068096Y-8475952D01*
X-18115715Y-8523571D01*
X-18163334Y-8618809D01*
X-18163334Y-8856904D01*
X-18115715Y-8952142D01*
X-18068096Y-8999761D01*
X-17972858Y-9047380D01*
X-17687143Y-9047380D01*
X-17591905Y-8999761D01*
X-17544286Y-8952142D01*
X-18496667Y-8047380D02*
X-19115715Y-8047380D01*
X-18782381Y-8428333D01*
X-18925239Y-8428333D01*
X-19020477Y-8475952D01*
X-19068096Y-8523571D01*
X-19115715Y-8618809D01*
X-19115715Y-8856904D01*
X-19068096Y-8952142D01*
X-19020477Y-8999761D01*
X-18925239Y-9047380D01*
X-18639524Y-9047380D01*
X-18544286Y-8999761D01*
X-18496667Y-8952142D01*
X-19401429Y-8047380D02*
X-19972858Y-8047380D01*
X-19687143Y-9047380D02*
X-19687143Y-8047380D01*
X-17091905Y-10697380D02*
X-17091905Y-9697380D01*
X-17091905Y-10173571D02*
X-17663334Y-10173571D01*
X-17663334Y-10697380D02*
X-17663334Y-9697380D01*
X-18568096Y-10030714D02*
X-18568096Y-10697380D01*
X-18330000Y-9649761D02*
X-18091905Y-10364047D01*
X-18710953Y-10364047D01*
X-18996667Y-9697380D02*
X-19663334Y-10697380D01*
X-19663334Y-9697380D02*
X-18996667Y-10697380D01*
D13*
G36*
X-15930000Y-9020000D02*
G01*
X-15730000Y-10020000D01*
X-15930000Y-11020000D01*
X-16530000Y-12020000D01*
X-15330000Y-12420000D01*
X-16930000Y-13020000D01*
X-17730000Y-13420000D01*
X-18130000Y-11020000D01*
X-17330000Y-11620000D01*
X-16930000Y-11020000D01*
X-16330000Y-10020000D01*
X-16330000Y-9020000D01*
X-16530000Y-8620000D01*
X-16330000Y-8620000D01*
X-15930000Y-9020000D01*
G37*
X-15930000Y-9020000D02*
X-15730000Y-10020000D01*
X-15930000Y-11020000D01*
X-16530000Y-12020000D01*
X-15330000Y-12420000D01*
X-16930000Y-13020000D01*
X-17730000Y-13420000D01*
X-18130000Y-11020000D01*
X-17330000Y-11620000D01*
X-16930000Y-11020000D01*
X-16330000Y-10020000D01*
X-16330000Y-9020000D01*
X-16530000Y-8620000D01*
X-16330000Y-8620000D01*
X-15930000Y-9020000D01*
D10*
X-15887143Y-16686666D02*
X-15934762Y-16734285D01*
X-15982381Y-16877142D01*
X-15982381Y-16972380D01*
X-15934762Y-17115238D01*
X-15839524Y-17210476D01*
X-15744286Y-17258095D01*
X-15553810Y-17305714D01*
X-15410953Y-17305714D01*
X-15220477Y-17258095D01*
X-15125239Y-17210476D01*
X-15030000Y-17115238D01*
X-14982381Y-16972380D01*
X-14982381Y-16877142D01*
X-15030000Y-16734285D01*
X-15077620Y-16686666D01*
X-15077620Y-16305714D02*
X-15030000Y-16258095D01*
X-14982381Y-16162857D01*
X-14982381Y-15924761D01*
X-15030000Y-15829523D01*
X-15077620Y-15781904D01*
X-15172858Y-15734285D01*
X-15268096Y-15734285D01*
X-15410953Y-15781904D01*
X-15982381Y-16353333D01*
X-15982381Y-15734285D01*
X-15982381Y-15305714D02*
X-14982381Y-15305714D01*
X-14982381Y-15067619D01*
X-15030000Y-14924761D01*
X-15125239Y-14829523D01*
X-15220477Y-14781904D01*
X-15410953Y-14734285D01*
X-15553810Y-14734285D01*
X-15744286Y-14781904D01*
X-15839524Y-14829523D01*
X-15934762Y-14924761D01*
X-15982381Y-15067619D01*
X-15982381Y-15305714D01*
X-18487143Y-16786666D02*
X-18534762Y-16834285D01*
X-18582381Y-16977142D01*
X-18582381Y-17072380D01*
X-18534762Y-17215238D01*
X-18439524Y-17310476D01*
X-18344286Y-17358095D01*
X-18153810Y-17405714D01*
X-18010953Y-17405714D01*
X-17820477Y-17358095D01*
X-17725239Y-17310476D01*
X-17630000Y-17215238D01*
X-17582381Y-17072380D01*
X-17582381Y-16977142D01*
X-17630000Y-16834285D01*
X-17677620Y-16786666D01*
X-17677620Y-16405714D02*
X-17630000Y-16358095D01*
X-17582381Y-16262857D01*
X-17582381Y-16024761D01*
X-17630000Y-15929523D01*
X-17677620Y-15881904D01*
X-17772858Y-15834285D01*
X-17868096Y-15834285D01*
X-18010953Y-15881904D01*
X-18582381Y-16453333D01*
X-18582381Y-15834285D01*
X-18487143Y-14834285D02*
X-18534762Y-14881904D01*
X-18582381Y-15024761D01*
X-18582381Y-15120000D01*
X-18534762Y-15262857D01*
X-18439524Y-15358095D01*
X-18344286Y-15405714D01*
X-18153810Y-15453333D01*
X-18010953Y-15453333D01*
X-17820477Y-15405714D01*
X-17725239Y-15358095D01*
X-17630000Y-15262857D01*
X-17582381Y-15120000D01*
X-17582381Y-15024761D01*
X-17630000Y-14881904D01*
X-17677620Y-14834285D01*
X-18582381Y-14405714D02*
X-17582381Y-14405714D01*
X-18582381Y-13834285D02*
X-18010953Y-14262857D01*
X-17582381Y-13834285D02*
X-18153810Y-14405714D01*
X-23001429Y-17581904D02*
X-23001429Y-16820000D01*
X-23382381Y-17200952D02*
X-22620477Y-17200952D01*
X-22382381Y-16439047D02*
X-22382381Y-15820000D01*
X-22763334Y-16153333D01*
X-22763334Y-16010476D01*
X-22810953Y-15915238D01*
X-22858572Y-15867619D01*
X-22953810Y-15820000D01*
X-23191905Y-15820000D01*
X-23287143Y-15867619D01*
X-23334762Y-15915238D01*
X-23382381Y-16010476D01*
X-23382381Y-16296190D01*
X-23334762Y-16391428D01*
X-23287143Y-16439047D01*
X-22382381Y-15534285D02*
X-23382381Y-15200952D01*
X-22382381Y-14867619D01*
X-22382381Y-14629523D02*
X-22382381Y-14010476D01*
X-22763334Y-14343809D01*
X-22763334Y-14200952D01*
X-22810953Y-14105714D01*
X-22858572Y-14058095D01*
X-22953810Y-14010476D01*
X-23191905Y-14010476D01*
X-23287143Y-14058095D01*
X-23334762Y-14105714D01*
X-23382381Y-14200952D01*
X-23382381Y-14486666D01*
X-23334762Y-14581904D01*
X-23287143Y-14629523D01*
X-20230000Y-16781904D02*
X-20182381Y-16877142D01*
X-20182381Y-17020000D01*
X-20230000Y-17162857D01*
X-20325239Y-17258095D01*
X-20420477Y-17305714D01*
X-20610953Y-17353333D01*
X-20753810Y-17353333D01*
X-20944286Y-17305714D01*
X-21039524Y-17258095D01*
X-21134762Y-17162857D01*
X-21182381Y-17020000D01*
X-21182381Y-16924761D01*
X-21134762Y-16781904D01*
X-21087143Y-16734285D01*
X-20753810Y-16734285D01*
X-20753810Y-16924761D01*
X-21182381Y-16305714D02*
X-20182381Y-16305714D01*
X-21182381Y-15734285D01*
X-20182381Y-15734285D01*
X-21182381Y-15258095D02*
X-20182381Y-15258095D01*
X-20182381Y-15020000D01*
X-20230000Y-14877142D01*
X-20325239Y-14781904D01*
X-20420477Y-14734285D01*
X-20610953Y-14686666D01*
X-20753810Y-14686666D01*
X-20944286Y-14734285D01*
X-21039524Y-14781904D01*
X-21134762Y-14877142D01*
X-21182381Y-15020000D01*
X-21182381Y-15258095D01*
X15080000Y-13130000D02*
X15380000Y-13430000D01*
X15080000Y-13430000D02*
X15080000Y-13130000D01*
X15380000Y-13430000D02*
X15080000Y-13430000D01*
X9220000Y-12900000D02*
X9520000Y-13200000D01*
X9220000Y-13200000D02*
X9220000Y-12900000D01*
X9520000Y-13200000D02*
X9220000Y-13200000D01*
X4150000Y-11250000D02*
X4450000Y-11550000D01*
X4150000Y-11550000D02*
X4150000Y-11250000D01*
X4450000Y-11550000D02*
X4150000Y-11550000D01*
X-610000Y-9400000D02*
X-310000Y-9700000D01*
X-610000Y-9700000D02*
X-610000Y-9400000D01*
X-310000Y-9700000D02*
X-610000Y-9700000D01*
X20170000Y-3760000D02*
X19870000Y-3460000D01*
X20170000Y-3460000D02*
X20170000Y-3760000D01*
X19870000Y-3460000D02*
X20170000Y-3460000D01*
X16830000Y-1700000D02*
X16530000Y-1400000D01*
X16830000Y-1400000D02*
X16830000Y-1700000D01*
X16530000Y-1400000D02*
X16830000Y-1400000D01*
X12930000Y-1070000D02*
X12630000Y-770000D01*
X12930000Y-770000D02*
X12930000Y-1070000D01*
X12630000Y-770000D02*
X12930000Y-770000D01*
X8860000Y40000D02*
X8560000Y340000D01*
X8860000Y340000D02*
X8860000Y40000D01*
X8560000Y340000D02*
X8860000Y340000D01*
X3693466Y-44057D02*
X3308953Y135245D01*
X3590860Y237851D02*
X3693466Y-44057D01*
X3308953Y135245D02*
X3590860Y237851D01*
X18248990Y15263425D02*
X18226785Y15687107D01*
X18449729Y15486368D02*
X18248990Y15263425D01*
X18226785Y15687107D02*
X18449729Y15486368D01*
X11129899Y18395685D02*
X10705635Y18395685D01*
X10917767Y18607817D02*
X11129899Y18395685D01*
X10705635Y18395685D02*
X10917767Y18607817D01*
X7812396Y12094417D02*
X7667289Y11695739D01*
X7540503Y11967631D02*
X7812396Y12094417D01*
X7667289Y11695739D02*
X7540503Y11967631D01*
X-3570000Y11950000D02*
X-3270000Y11650000D01*
X-3570000Y11650000D02*
X-3570000Y11950000D01*
X-3270000Y11650000D02*
X-3570000Y11650000D01*
X-6910000Y10640000D02*
X-6610000Y10340000D01*
X-6910000Y10340000D02*
X-6910000Y10640000D01*
X-6610000Y10340000D02*
X-6910000Y10340000D01*
D14*
X-14760000Y-10465000D02*
X-14760000Y-13005000D01*
X-14760000Y-10465000D02*
X-12220000Y-10465000D01*
X-14510000Y-10715000D02*
X-14510000Y-15520000D01*
X1270000Y-10715000D02*
X-14510000Y-10715000D01*
X1270000Y-15570000D02*
X1270000Y-10715000D01*
X400000Y11708733D02*
X400000Y12051267D01*
X1420000Y11708733D02*
X1420000Y12051267D01*
X-10050000Y-4930000D02*
X-13500000Y-4930000D01*
X-10050000Y-4930000D02*
X-8100000Y-4930000D01*
X-10050000Y5190000D02*
X-12000000Y5190000D01*
X-10050000Y5190000D02*
X-8100000Y5190000D01*
X17326267Y-16460000D02*
X16983733Y-16460000D01*
X17326267Y-15440000D02*
X16983733Y-15440000D01*
X12731267Y-16150000D02*
X12388733Y-16150000D01*
X12731267Y-15130000D02*
X12388733Y-15130000D01*
X7521267Y-14560000D02*
X7178733Y-14560000D01*
X7521267Y-13540000D02*
X7178733Y-13540000D01*
X3980000Y-13123733D02*
X3980000Y-13466267D01*
X2960000Y-13123733D02*
X2960000Y-13466267D01*
X18220000Y98733D02*
X18220000Y441267D01*
X19240000Y98733D02*
X19240000Y441267D01*
X15281267Y590000D02*
X14938733Y590000D01*
X15281267Y1610000D02*
X14938733Y1610000D01*
X-4283733Y2770000D02*
X-4626267Y2770000D01*
X-4283733Y3790000D02*
X-4626267Y3790000D01*
X11246267Y1180000D02*
X10903733Y1180000D01*
X11246267Y2200000D02*
X10903733Y2200000D01*
X7111267Y2350000D02*
X6768733Y2350000D01*
X7111267Y3370000D02*
X6768733Y3370000D01*
X3387967Y2530900D02*
X3045433Y2530900D01*
X3387967Y3550900D02*
X3045433Y3550900D01*
X4870000Y15501267D02*
X4870000Y15158733D01*
X3850000Y15501267D02*
X3850000Y15158733D01*
X6800000Y15501267D02*
X6800000Y15158733D01*
X5780000Y15501267D02*
X5780000Y15158733D01*
X-19040000Y-5466267D02*
X-19040000Y-5123733D01*
X-18020000Y-5466267D02*
X-18020000Y-5123733D01*
X4670000Y11078733D02*
X4670000Y11421267D01*
X5690000Y11078733D02*
X5690000Y11421267D01*
X-8290000Y10278733D02*
X-8290000Y10621267D01*
X-7270000Y10278733D02*
X-7270000Y10621267D01*
X-24480000Y-17880000D02*
X-24480000Y-19210000D01*
X-23150000Y-17880000D02*
X-24480000Y-17880000D01*
X-21880000Y-17880000D02*
X-21880000Y-20540000D01*
X-21880000Y-20540000D02*
X16280000Y-20540000D01*
X-21880000Y-17880000D02*
X16280000Y-17880000D01*
X16280000Y-17880000D02*
X16280000Y-20540000D01*
X-14230000Y271267D02*
X-14230000Y-71267D01*
X-15250000Y271267D02*
X-15250000Y-71267D01*
X-15910000Y271267D02*
X-15910000Y-71267D01*
X-16930000Y271267D02*
X-16930000Y-71267D01*
D10*
X19722380Y-11005714D02*
X18722380Y-11005714D01*
X18722380Y-11243809D01*
X18770000Y-11386666D01*
X18865238Y-11481904D01*
X18960476Y-11529523D01*
X19150952Y-11577142D01*
X19293809Y-11577142D01*
X19484285Y-11529523D01*
X19579523Y-11481904D01*
X19674761Y-11386666D01*
X19722380Y-11243809D01*
X19722380Y-11005714D01*
X19722380Y-12529523D02*
X19722380Y-11958095D01*
X19722380Y-12243809D02*
X18722380Y-12243809D01*
X18865238Y-12148571D01*
X18960476Y-12053333D01*
X19008095Y-11958095D01*
X19055714Y-13386666D02*
X19722380Y-13386666D01*
X18674761Y-13148571D02*
X19389047Y-12910476D01*
X19389047Y-13529523D01*
X11684285Y-17672380D02*
X11684285Y-16672380D01*
X11446190Y-16672380D01*
X11303333Y-16720000D01*
X11208095Y-16815238D01*
X11160476Y-16910476D01*
X11112857Y-17100952D01*
X11112857Y-17243809D01*
X11160476Y-17434285D01*
X11208095Y-17529523D01*
X11303333Y-17624761D01*
X11446190Y-17672380D01*
X11684285Y-17672380D01*
X10160476Y-17672380D02*
X10731904Y-17672380D01*
X10446190Y-17672380D02*
X10446190Y-16672380D01*
X10541428Y-16815238D01*
X10636666Y-16910476D01*
X10731904Y-16958095D01*
X9827142Y-16672380D02*
X9208095Y-16672380D01*
X9541428Y-17053333D01*
X9398571Y-17053333D01*
X9303333Y-17100952D01*
X9255714Y-17148571D01*
X9208095Y-17243809D01*
X9208095Y-17481904D01*
X9255714Y-17577142D01*
X9303333Y-17624761D01*
X9398571Y-17672380D01*
X9684285Y-17672380D01*
X9779523Y-17624761D01*
X9827142Y-17577142D01*
X7084285Y-15872380D02*
X7084285Y-14872380D01*
X6846190Y-14872380D01*
X6703333Y-14920000D01*
X6608095Y-15015238D01*
X6560476Y-15110476D01*
X6512857Y-15300952D01*
X6512857Y-15443809D01*
X6560476Y-15634285D01*
X6608095Y-15729523D01*
X6703333Y-15824761D01*
X6846190Y-15872380D01*
X7084285Y-15872380D01*
X5560476Y-15872380D02*
X6131904Y-15872380D01*
X5846190Y-15872380D02*
X5846190Y-14872380D01*
X5941428Y-15015238D01*
X6036666Y-15110476D01*
X6131904Y-15158095D01*
X5179523Y-14967619D02*
X5131904Y-14920000D01*
X5036666Y-14872380D01*
X4798571Y-14872380D01*
X4703333Y-14920000D01*
X4655714Y-14967619D01*
X4608095Y-15062857D01*
X4608095Y-15158095D01*
X4655714Y-15300952D01*
X5227142Y-15872380D01*
X4608095Y-15872380D01*
X2522380Y-11605714D02*
X1522380Y-11605714D01*
X1522380Y-11843809D01*
X1570000Y-11986666D01*
X1665238Y-12081904D01*
X1760476Y-12129523D01*
X1950952Y-12177142D01*
X2093809Y-12177142D01*
X2284285Y-12129523D01*
X2379523Y-12081904D01*
X2474761Y-11986666D01*
X2522380Y-11843809D01*
X2522380Y-11605714D01*
X2522380Y-13129523D02*
X2522380Y-12558095D01*
X2522380Y-12843809D02*
X1522380Y-12843809D01*
X1665238Y-12748571D01*
X1760476Y-12653333D01*
X1808095Y-12558095D01*
X2522380Y-14081904D02*
X2522380Y-13510476D01*
X2522380Y-13796190D02*
X1522380Y-13796190D01*
X1665238Y-13700952D01*
X1760476Y-13605714D01*
X1808095Y-13510476D01*
X21122380Y-4605714D02*
X20122380Y-4605714D01*
X20122380Y-4843809D01*
X20170000Y-4986666D01*
X20265238Y-5081904D01*
X20360476Y-5129523D01*
X20550952Y-5177142D01*
X20693809Y-5177142D01*
X20884285Y-5129523D01*
X20979523Y-5081904D01*
X21074761Y-4986666D01*
X21122380Y-4843809D01*
X21122380Y-4605714D01*
X21122380Y-6129523D02*
X21122380Y-5558095D01*
X21122380Y-5843809D02*
X20122380Y-5843809D01*
X20265238Y-5748571D01*
X20360476Y-5653333D01*
X20408095Y-5558095D01*
X20122380Y-6748571D02*
X20122380Y-6843809D01*
X20170000Y-6939047D01*
X20217619Y-6986666D01*
X20312857Y-7034285D01*
X20503333Y-7081904D01*
X20741428Y-7081904D01*
X20931904Y-7034285D01*
X21027142Y-6986666D01*
X21074761Y-6939047D01*
X21122380Y-6843809D01*
X21122380Y-6748571D01*
X21074761Y-6653333D01*
X21027142Y-6605714D01*
X20931904Y-6558095D01*
X20741428Y-6510476D01*
X20503333Y-6510476D01*
X20312857Y-6558095D01*
X20217619Y-6605714D01*
X20170000Y-6653333D01*
X20122380Y-6748571D01*
X17608095Y1927620D02*
X17608095Y2927620D01*
X17370000Y2927620D01*
X17227142Y2880000D01*
X17131904Y2784762D01*
X17084285Y2689524D01*
X17036666Y2499048D01*
X17036666Y2356191D01*
X17084285Y2165715D01*
X17131904Y2070477D01*
X17227142Y1975239D01*
X17370000Y1927620D01*
X17608095Y1927620D01*
X16560476Y1927620D02*
X16370000Y1927620D01*
X16274761Y1975239D01*
X16227142Y2022858D01*
X16131904Y2165715D01*
X16084285Y2356191D01*
X16084285Y2737143D01*
X16131904Y2832381D01*
X16179523Y2880000D01*
X16274761Y2927620D01*
X16465238Y2927620D01*
X16560476Y2880000D01*
X16608095Y2832381D01*
X16655714Y2737143D01*
X16655714Y2499048D01*
X16608095Y2403810D01*
X16560476Y2356191D01*
X16465238Y2308572D01*
X16274761Y2308572D01*
X16179523Y2356191D01*
X16131904Y2403810D01*
X16084285Y2499048D01*
X12808095Y2527620D02*
X12808095Y3527620D01*
X12570000Y3527620D01*
X12427142Y3480000D01*
X12331904Y3384762D01*
X12284285Y3289524D01*
X12236666Y3099048D01*
X12236666Y2956191D01*
X12284285Y2765715D01*
X12331904Y2670477D01*
X12427142Y2575239D01*
X12570000Y2527620D01*
X12808095Y2527620D01*
X11665238Y3099048D02*
X11760476Y3146667D01*
X11808095Y3194286D01*
X11855714Y3289524D01*
X11855714Y3337143D01*
X11808095Y3432381D01*
X11760476Y3480000D01*
X11665238Y3527620D01*
X11474761Y3527620D01*
X11379523Y3480000D01*
X11331904Y3432381D01*
X11284285Y3337143D01*
X11284285Y3289524D01*
X11331904Y3194286D01*
X11379523Y3146667D01*
X11474761Y3099048D01*
X11665238Y3099048D01*
X11760476Y3051429D01*
X11808095Y3003810D01*
X11855714Y2908572D01*
X11855714Y2718096D01*
X11808095Y2622858D01*
X11760476Y2575239D01*
X11665238Y2527620D01*
X11474761Y2527620D01*
X11379523Y2575239D01*
X11331904Y2622858D01*
X11284285Y2718096D01*
X11284285Y2908572D01*
X11331904Y3003810D01*
X11379523Y3051429D01*
X11474761Y3099048D01*
X8808095Y3727620D02*
X8808095Y4727620D01*
X8570000Y4727620D01*
X8427142Y4680000D01*
X8331904Y4584762D01*
X8284285Y4489524D01*
X8236666Y4299048D01*
X8236666Y4156191D01*
X8284285Y3965715D01*
X8331904Y3870477D01*
X8427142Y3775239D01*
X8570000Y3727620D01*
X8808095Y3727620D01*
X7903333Y4727620D02*
X7236666Y4727620D01*
X7665238Y3727620D01*
X1518306Y1407345D02*
X1176285Y2347038D01*
X952549Y2265604D01*
X834594Y2171997D01*
X777673Y2049929D01*
X765499Y1944148D01*
X785898Y1748872D01*
X834758Y1614630D01*
X944652Y1451928D01*
X1021973Y1378720D01*
X1144041Y1321799D01*
X1294569Y1325912D01*
X1518306Y1407345D01*
X-166133Y1858437D02*
X12856Y1923584D01*
X118638Y1911410D01*
X179672Y1882949D01*
X318026Y1781281D01*
X427920Y1618579D01*
X558213Y1260600D01*
X546040Y1154819D01*
X517579Y1093785D01*
X444371Y1016465D01*
X265382Y951318D01*
X159601Y963492D01*
X98567Y991953D01*
X21246Y1065160D01*
X-60187Y1288897D01*
X-48013Y1394678D01*
X-19553Y1455712D01*
X53655Y1533033D01*
X232644Y1598179D01*
X338426Y1586005D01*
X399460Y1557545D01*
X476780Y1484337D01*
X19115809Y13549934D02*
X19784940Y14293079D01*
X19608001Y14452395D01*
X19469974Y14512598D01*
X19335471Y14505549D01*
X19236357Y14466636D01*
X19073515Y14356948D01*
X18977925Y14250785D01*
X18885860Y14077370D01*
X18857521Y13974731D01*
X18864570Y13840229D01*
X18938870Y13709251D01*
X19115809Y13549934D01*
X18687917Y15280843D02*
X19041795Y14962209D01*
X18758549Y14576467D01*
X18755025Y14643719D01*
X18716112Y14742833D01*
X18539173Y14902150D01*
X18436534Y14930489D01*
X18369283Y14926964D01*
X18270168Y14888052D01*
X18110852Y14711113D01*
X18082513Y14608474D01*
X18086037Y14541223D01*
X18124949Y14442108D01*
X18301889Y14282791D01*
X18404528Y14254452D01*
X18471779Y14257977D01*
X8789712Y19021980D02*
X8082606Y19729087D01*
X7914247Y19560728D01*
X7846903Y19426041D01*
X7846903Y19291354D01*
X7880575Y19190339D01*
X7981590Y19021980D01*
X8082606Y18920965D01*
X8250964Y18819949D01*
X8351980Y18786278D01*
X8486667Y18786278D01*
X8621354Y18853621D01*
X8789712Y19021980D01*
X7308155Y18483232D02*
X7779560Y18011827D01*
X7207140Y18920965D02*
X7880575Y18584247D01*
X7442842Y18146514D01*
X6227352Y7319875D02*
X7133659Y7742493D01*
X7033036Y7958280D01*
X6929504Y8067628D01*
X6802940Y8113694D01*
X6696500Y8116602D01*
X6503746Y8079261D01*
X6374273Y8018887D01*
X6221768Y7895231D01*
X6155577Y7811824D01*
X6109512Y7685259D01*
X6126728Y7535662D01*
X6227352Y7319875D01*
X6751291Y8562486D02*
X6489670Y9123533D01*
X6285282Y8660433D01*
X6224908Y8789906D01*
X6141501Y8856096D01*
X6078219Y8879129D01*
X5971780Y8882037D01*
X5755992Y8781414D01*
X5689802Y8698007D01*
X5666769Y8634725D01*
X5663861Y8528285D01*
X5784609Y8269340D01*
X5868016Y8203150D01*
X5931298Y8180117D01*
X-881905Y8947620D02*
X-881905Y9947620D01*
X-1120000Y9947620D01*
X-1262858Y9900000D01*
X-1358096Y9804762D01*
X-1405715Y9709524D01*
X-1453334Y9519048D01*
X-1453334Y9376191D01*
X-1405715Y9185715D01*
X-1358096Y9090477D01*
X-1262858Y8995239D01*
X-1120000Y8947620D01*
X-881905Y8947620D01*
X-1834286Y9852381D02*
X-1881905Y9900000D01*
X-1977143Y9947620D01*
X-2215239Y9947620D01*
X-2310477Y9900000D01*
X-2358096Y9852381D01*
X-2405715Y9757143D01*
X-2405715Y9661905D01*
X-2358096Y9519048D01*
X-1786667Y8947620D01*
X-2405715Y8947620D01*
X-4221905Y7637620D02*
X-4221905Y8637620D01*
X-4460000Y8637620D01*
X-4602858Y8590000D01*
X-4698096Y8494762D01*
X-4745715Y8399524D01*
X-4793334Y8209048D01*
X-4793334Y8066191D01*
X-4745715Y7875715D01*
X-4698096Y7780477D01*
X-4602858Y7685239D01*
X-4460000Y7637620D01*
X-4221905Y7637620D01*
X-5745715Y7637620D02*
X-5174286Y7637620D01*
X-5460000Y7637620D02*
X-5460000Y8637620D01*
X-5364762Y8494762D01*
X-5269524Y8399524D01*
X-5174286Y8351905D01*
X-13596667Y-8872380D02*
X-13596667Y-9586666D01*
X-13549048Y-9729523D01*
X-13453810Y-9824761D01*
X-13310953Y-9872380D01*
X-13215715Y-9872380D01*
X-14596667Y-9872380D02*
X-14025239Y-9872380D01*
X-14310953Y-9872380D02*
X-14310953Y-8872380D01*
X-14215715Y-9015238D01*
X-14120477Y-9110476D01*
X-14025239Y-9158095D01*
X-12196667Y25175239D02*
X-12339524Y25127620D01*
X-12577620Y25127620D01*
X-12672858Y25175239D01*
X-12720477Y25222858D01*
X-12768096Y25318096D01*
X-12768096Y25413334D01*
X-12720477Y25508572D01*
X-12672858Y25556191D01*
X-12577620Y25603810D01*
X-12387143Y25651429D01*
X-12291905Y25699048D01*
X-12244286Y25746667D01*
X-12196667Y25841905D01*
X-12196667Y25937143D01*
X-12244286Y26032381D01*
X-12291905Y26080000D01*
X-12387143Y26127620D01*
X-12625239Y26127620D01*
X-12768096Y26080000D01*
X-13101429Y26127620D02*
X-13339524Y25127620D01*
X-13530000Y25841905D01*
X-13720477Y25127620D01*
X-13958572Y26127620D01*
X-14863334Y25127620D02*
X-14291905Y25127620D01*
X-14577620Y25127620D02*
X-14577620Y26127620D01*
X-14482381Y25984762D01*
X-14387143Y25889524D01*
X-14291905Y25841905D01*
X2792380Y12046667D02*
X2316190Y12380000D01*
X2792380Y12618096D02*
X1792380Y12618096D01*
X1792380Y12237143D01*
X1840000Y12141905D01*
X1887619Y12094286D01*
X1982857Y12046667D01*
X2125714Y12046667D01*
X2220952Y12094286D01*
X2268571Y12141905D01*
X2316190Y12237143D01*
X2316190Y12618096D01*
X1887619Y11665715D02*
X1840000Y11618096D01*
X1792380Y11522858D01*
X1792380Y11284762D01*
X1840000Y11189524D01*
X1887619Y11141905D01*
X1982857Y11094286D01*
X2078095Y11094286D01*
X2220952Y11141905D01*
X2792380Y11713334D01*
X2792380Y11094286D01*
X-9288096Y-5222380D02*
X-9288096Y-6031904D01*
X-9335715Y-6127142D01*
X-9383334Y-6174761D01*
X-9478572Y-6222380D01*
X-9669048Y-6222380D01*
X-9764286Y-6174761D01*
X-9811905Y-6127142D01*
X-9859524Y-6031904D01*
X-9859524Y-5222380D01*
X-10859524Y-6222380D02*
X-10288096Y-6222380D01*
X-10573810Y-6222380D02*
X-10573810Y-5222380D01*
X-10478572Y-5365238D01*
X-10383334Y-5460476D01*
X-10288096Y-5508095D01*
X18512857Y-17872380D02*
X18846190Y-17396190D01*
X19084285Y-17872380D02*
X19084285Y-16872380D01*
X18703333Y-16872380D01*
X18608095Y-16920000D01*
X18560476Y-16967619D01*
X18512857Y-17062857D01*
X18512857Y-17205714D01*
X18560476Y-17300952D01*
X18608095Y-17348571D01*
X18703333Y-17396190D01*
X19084285Y-17396190D01*
X17560476Y-17872380D02*
X18131904Y-17872380D01*
X17846190Y-17872380D02*
X17846190Y-16872380D01*
X17941428Y-17015238D01*
X18036666Y-17110476D01*
X18131904Y-17158095D01*
X16703333Y-16872380D02*
X16893809Y-16872380D01*
X16989047Y-16920000D01*
X17036666Y-16967619D01*
X17131904Y-17110476D01*
X17179523Y-17300952D01*
X17179523Y-17681904D01*
X17131904Y-17777142D01*
X17084285Y-17824761D01*
X16989047Y-17872380D01*
X16798571Y-17872380D01*
X16703333Y-17824761D01*
X16655714Y-17777142D01*
X16608095Y-17681904D01*
X16608095Y-17443809D01*
X16655714Y-17348571D01*
X16703333Y-17300952D01*
X16798571Y-17253333D01*
X16989047Y-17253333D01*
X17084285Y-17300952D01*
X17131904Y-17348571D01*
X17179523Y-17443809D01*
X14112857Y-17672380D02*
X14446190Y-17196190D01*
X14684285Y-17672380D02*
X14684285Y-16672380D01*
X14303333Y-16672380D01*
X14208095Y-16720000D01*
X14160476Y-16767619D01*
X14112857Y-16862857D01*
X14112857Y-17005714D01*
X14160476Y-17100952D01*
X14208095Y-17148571D01*
X14303333Y-17196190D01*
X14684285Y-17196190D01*
X13160476Y-17672380D02*
X13731904Y-17672380D01*
X13446190Y-17672380D02*
X13446190Y-16672380D01*
X13541428Y-16815238D01*
X13636666Y-16910476D01*
X13731904Y-16958095D01*
X12255714Y-16672380D02*
X12731904Y-16672380D01*
X12779523Y-17148571D01*
X12731904Y-17100952D01*
X12636666Y-17053333D01*
X12398571Y-17053333D01*
X12303333Y-17100952D01*
X12255714Y-17148571D01*
X12208095Y-17243809D01*
X12208095Y-17481904D01*
X12255714Y-17577142D01*
X12303333Y-17624761D01*
X12398571Y-17672380D01*
X12636666Y-17672380D01*
X12731904Y-17624761D01*
X12779523Y-17577142D01*
X7512857Y-17472380D02*
X7846190Y-16996190D01*
X8084285Y-17472380D02*
X8084285Y-16472380D01*
X7703333Y-16472380D01*
X7608095Y-16520000D01*
X7560476Y-16567619D01*
X7512857Y-16662857D01*
X7512857Y-16805714D01*
X7560476Y-16900952D01*
X7608095Y-16948571D01*
X7703333Y-16996190D01*
X8084285Y-16996190D01*
X6560476Y-17472380D02*
X7131904Y-17472380D01*
X6846190Y-17472380D02*
X6846190Y-16472380D01*
X6941428Y-16615238D01*
X7036666Y-16710476D01*
X7131904Y-16758095D01*
X5703333Y-16805714D02*
X5703333Y-17472380D01*
X5941428Y-16424761D02*
X6179523Y-17139047D01*
X5560476Y-17139047D01*
X3922380Y-15777142D02*
X3446190Y-15443809D01*
X3922380Y-15205714D02*
X2922380Y-15205714D01*
X2922380Y-15586666D01*
X2970000Y-15681904D01*
X3017619Y-15729523D01*
X3112857Y-15777142D01*
X3255714Y-15777142D01*
X3350952Y-15729523D01*
X3398571Y-15681904D01*
X3446190Y-15586666D01*
X3446190Y-15205714D01*
X3922380Y-16729523D02*
X3922380Y-16158095D01*
X3922380Y-16443809D02*
X2922380Y-16443809D01*
X3065238Y-16348571D01*
X3160476Y-16253333D01*
X3208095Y-16158095D01*
X2922380Y-17062857D02*
X2922380Y-17681904D01*
X3303333Y-17348571D01*
X3303333Y-17491428D01*
X3350952Y-17586666D01*
X3398571Y-17634285D01*
X3493809Y-17681904D01*
X3731904Y-17681904D01*
X3827142Y-17634285D01*
X3874761Y-17586666D01*
X3922380Y-17491428D01*
X3922380Y-17205714D01*
X3874761Y-17110476D01*
X3827142Y-17062857D01*
X20722380Y622858D02*
X20246190Y956191D01*
X20722380Y1194286D02*
X19722380Y1194286D01*
X19722380Y813334D01*
X19770000Y718096D01*
X19817619Y670477D01*
X19912857Y622858D01*
X20055714Y622858D01*
X20150952Y670477D01*
X20198571Y718096D01*
X20246190Y813334D01*
X20246190Y1194286D01*
X20722380Y-329523D02*
X20722380Y241905D01*
X20722380Y-43809D02*
X19722380Y-43809D01*
X19865238Y51429D01*
X19960476Y146667D01*
X20008095Y241905D01*
X19817619Y-710476D02*
X19770000Y-758095D01*
X19722380Y-853333D01*
X19722380Y-1091428D01*
X19770000Y-1186666D01*
X19817619Y-1234285D01*
X19912857Y-1281904D01*
X20008095Y-1281904D01*
X20150952Y-1234285D01*
X20722380Y-662857D01*
X20722380Y-1281904D01*
X14912857Y1927620D02*
X15246190Y2403810D01*
X15484285Y1927620D02*
X15484285Y2927620D01*
X15103333Y2927620D01*
X15008095Y2880000D01*
X14960476Y2832381D01*
X14912857Y2737143D01*
X14912857Y2594286D01*
X14960476Y2499048D01*
X15008095Y2451429D01*
X15103333Y2403810D01*
X15484285Y2403810D01*
X13960476Y1927620D02*
X14531904Y1927620D01*
X14246190Y1927620D02*
X14246190Y2927620D01*
X14341428Y2784762D01*
X14436666Y2689524D01*
X14531904Y2641905D01*
X13008095Y1927620D02*
X13579523Y1927620D01*
X13293809Y1927620D02*
X13293809Y2927620D01*
X13389047Y2784762D01*
X13484285Y2689524D01*
X13579523Y2641905D01*
X-3812143Y4257620D02*
X-3478810Y4733810D01*
X-3240715Y4257620D02*
X-3240715Y5257620D01*
X-3621667Y5257620D01*
X-3716905Y5210000D01*
X-3764524Y5162381D01*
X-3812143Y5067143D01*
X-3812143Y4924286D01*
X-3764524Y4829048D01*
X-3716905Y4781429D01*
X-3621667Y4733810D01*
X-3240715Y4733810D01*
X-4764524Y4257620D02*
X-4193096Y4257620D01*
X-4478810Y4257620D02*
X-4478810Y5257620D01*
X-4383572Y5114762D01*
X-4288334Y5019524D01*
X-4193096Y4971905D01*
X-5383572Y5257620D02*
X-5478810Y5257620D01*
X-5574048Y5210000D01*
X-5621667Y5162381D01*
X-5669286Y5067143D01*
X-5716905Y4876667D01*
X-5716905Y4638572D01*
X-5669286Y4448096D01*
X-5621667Y4352858D01*
X-5574048Y4305239D01*
X-5478810Y4257620D01*
X-5383572Y4257620D01*
X-5288334Y4305239D01*
X-5240715Y4352858D01*
X-5193096Y4448096D01*
X-5145477Y4638572D01*
X-5145477Y4876667D01*
X-5193096Y5067143D01*
X-5240715Y5162381D01*
X-5288334Y5210000D01*
X-5383572Y5257620D01*
X10036666Y2527620D02*
X10370000Y3003810D01*
X10608095Y2527620D02*
X10608095Y3527620D01*
X10227142Y3527620D01*
X10131904Y3480000D01*
X10084285Y3432381D01*
X10036666Y3337143D01*
X10036666Y3194286D01*
X10084285Y3099048D01*
X10131904Y3051429D01*
X10227142Y3003810D01*
X10608095Y3003810D01*
X9560476Y2527620D02*
X9370000Y2527620D01*
X9274761Y2575239D01*
X9227142Y2622858D01*
X9131904Y2765715D01*
X9084285Y2956191D01*
X9084285Y3337143D01*
X9131904Y3432381D01*
X9179523Y3480000D01*
X9274761Y3527620D01*
X9465238Y3527620D01*
X9560476Y3480000D01*
X9608095Y3432381D01*
X9655714Y3337143D01*
X9655714Y3099048D01*
X9608095Y3003810D01*
X9560476Y2956191D01*
X9465238Y2908572D01*
X9274761Y2908572D01*
X9179523Y2956191D01*
X9131904Y3003810D01*
X9084285Y3099048D01*
X6236666Y3727620D02*
X6570000Y4203810D01*
X6808095Y3727620D02*
X6808095Y4727620D01*
X6427142Y4727620D01*
X6331904Y4680000D01*
X6284285Y4632381D01*
X6236666Y4537143D01*
X6236666Y4394286D01*
X6284285Y4299048D01*
X6331904Y4251429D01*
X6427142Y4203810D01*
X6808095Y4203810D01*
X5665238Y4299048D02*
X5760476Y4346667D01*
X5808095Y4394286D01*
X5855714Y4489524D01*
X5855714Y4537143D01*
X5808095Y4632381D01*
X5760476Y4680000D01*
X5665238Y4727620D01*
X5474761Y4727620D01*
X5379523Y4680000D01*
X5331904Y4632381D01*
X5284285Y4537143D01*
X5284285Y4489524D01*
X5331904Y4394286D01*
X5379523Y4346667D01*
X5474761Y4299048D01*
X5665238Y4299048D01*
X5760476Y4251429D01*
X5808095Y4203810D01*
X5855714Y4108572D01*
X5855714Y3918096D01*
X5808095Y3822858D01*
X5760476Y3775239D01*
X5665238Y3727620D01*
X5474761Y3727620D01*
X5379523Y3775239D01*
X5331904Y3822858D01*
X5284285Y3918096D01*
X5284285Y4108572D01*
X5331904Y4203810D01*
X5379523Y4251429D01*
X5474761Y4299048D01*
X3383366Y4018520D02*
X3716700Y4494710D01*
X3954795Y4018520D02*
X3954795Y5018520D01*
X3573842Y5018520D01*
X3478604Y4970900D01*
X3430985Y4923281D01*
X3383366Y4828043D01*
X3383366Y4685186D01*
X3430985Y4589948D01*
X3478604Y4542329D01*
X3573842Y4494710D01*
X3954795Y4494710D01*
X3050033Y5018520D02*
X2383366Y5018520D01*
X2811938Y4018520D01*
X4922380Y18546667D02*
X4446190Y18880000D01*
X4922380Y19118096D02*
X3922380Y19118096D01*
X3922380Y18737143D01*
X3970000Y18641905D01*
X4017619Y18594286D01*
X4112857Y18546667D01*
X4255714Y18546667D01*
X4350952Y18594286D01*
X4398571Y18641905D01*
X4446190Y18737143D01*
X4446190Y19118096D01*
X3922380Y17689524D02*
X3922380Y17880000D01*
X3970000Y17975239D01*
X4017619Y18022858D01*
X4160476Y18118096D01*
X4350952Y18165715D01*
X4731904Y18165715D01*
X4827142Y18118096D01*
X4874761Y18070477D01*
X4922380Y17975239D01*
X4922380Y17784762D01*
X4874761Y17689524D01*
X4827142Y17641905D01*
X4731904Y17594286D01*
X4493809Y17594286D01*
X4398571Y17641905D01*
X4350952Y17689524D01*
X4303333Y17784762D01*
X4303333Y17975239D01*
X4350952Y18070477D01*
X4398571Y18118096D01*
X4493809Y18165715D01*
X6722380Y18746667D02*
X6246190Y19080000D01*
X6722380Y19318096D02*
X5722380Y19318096D01*
X5722380Y18937143D01*
X5770000Y18841905D01*
X5817619Y18794286D01*
X5912857Y18746667D01*
X6055714Y18746667D01*
X6150952Y18794286D01*
X6198571Y18841905D01*
X6246190Y18937143D01*
X6246190Y19318096D01*
X5722380Y17841905D02*
X5722380Y18318096D01*
X6198571Y18365715D01*
X6150952Y18318096D01*
X6103333Y18222858D01*
X6103333Y17984762D01*
X6150952Y17889524D01*
X6198571Y17841905D01*
X6293809Y17794286D01*
X6531904Y17794286D01*
X6627142Y17841905D01*
X6674761Y17889524D01*
X6722380Y17984762D01*
X6722380Y18222858D01*
X6674761Y18318096D01*
X6627142Y18365715D01*
X-16677620Y-5053333D02*
X-17153810Y-4720000D01*
X-16677620Y-4481904D02*
X-17677620Y-4481904D01*
X-17677620Y-4862857D01*
X-17630000Y-4958095D01*
X-17582381Y-5005714D01*
X-17487143Y-5053333D01*
X-17344286Y-5053333D01*
X-17249048Y-5005714D01*
X-17201429Y-4958095D01*
X-17153810Y-4862857D01*
X-17153810Y-4481904D01*
X-17344286Y-5910476D02*
X-16677620Y-5910476D01*
X-17725239Y-5672380D02*
X-17010953Y-5434285D01*
X-17010953Y-6053333D01*
X5122380Y8546667D02*
X4646190Y8880000D01*
X5122380Y9118096D02*
X4122380Y9118096D01*
X4122380Y8737143D01*
X4170000Y8641905D01*
X4217619Y8594286D01*
X4312857Y8546667D01*
X4455714Y8546667D01*
X4550952Y8594286D01*
X4598571Y8641905D01*
X4646190Y8737143D01*
X4646190Y9118096D01*
X4122380Y8213334D02*
X4122380Y7594286D01*
X4503333Y7927620D01*
X4503333Y7784762D01*
X4550952Y7689524D01*
X4598571Y7641905D01*
X4693809Y7594286D01*
X4931904Y7594286D01*
X5027142Y7641905D01*
X5074761Y7689524D01*
X5122380Y7784762D01*
X5122380Y8070477D01*
X5074761Y8165715D01*
X5027142Y8213334D01*
X-7277620Y13346667D02*
X-7753810Y13680000D01*
X-7277620Y13918096D02*
X-8277620Y13918096D01*
X-8277620Y13537143D01*
X-8230000Y13441905D01*
X-8182381Y13394286D01*
X-8087143Y13346667D01*
X-7944286Y13346667D01*
X-7849048Y13394286D01*
X-7801429Y13441905D01*
X-7753810Y13537143D01*
X-7753810Y13918096D01*
X-7277620Y12394286D02*
X-7277620Y12965715D01*
X-7277620Y12680000D02*
X-8277620Y12680000D01*
X-8134762Y12775239D01*
X-8039524Y12870477D01*
X-7991905Y12965715D01*
X17803333Y-18872380D02*
X17803333Y-19586666D01*
X17850952Y-19729523D01*
X17946190Y-19824761D01*
X18089047Y-19872380D01*
X18184285Y-19872380D01*
X17374761Y-18967619D02*
X17327142Y-18920000D01*
X17231904Y-18872380D01*
X16993809Y-18872380D01*
X16898571Y-18920000D01*
X16850952Y-18967619D01*
X16803333Y-19062857D01*
X16803333Y-19158095D01*
X16850952Y-19300952D01*
X17422380Y-19872380D01*
X16803333Y-19872380D01*
X-14372858Y-2453333D02*
X-14325239Y-2405714D01*
X-14277620Y-2262857D01*
X-14277620Y-2167619D01*
X-14325239Y-2024761D01*
X-14420477Y-1929523D01*
X-14515715Y-1881904D01*
X-14706191Y-1834285D01*
X-14849048Y-1834285D01*
X-15039524Y-1881904D01*
X-15134762Y-1929523D01*
X-15230000Y-2024761D01*
X-15277620Y-2167619D01*
X-15277620Y-2262857D01*
X-15230000Y-2405714D01*
X-15182381Y-2453333D01*
X-15182381Y-2834285D02*
X-15230000Y-2881904D01*
X-15277620Y-2977142D01*
X-15277620Y-3215238D01*
X-15230000Y-3310476D01*
X-15182381Y-3358095D01*
X-15087143Y-3405714D01*
X-14991905Y-3405714D01*
X-14849048Y-3358095D01*
X-14277620Y-2786666D01*
X-14277620Y-3405714D01*
X-15972858Y-2453333D02*
X-15925239Y-2405714D01*
X-15877620Y-2262857D01*
X-15877620Y-2167619D01*
X-15925239Y-2024761D01*
X-16020477Y-1929523D01*
X-16115715Y-1881904D01*
X-16306191Y-1834285D01*
X-16449048Y-1834285D01*
X-16639524Y-1881904D01*
X-16734762Y-1929523D01*
X-16830000Y-2024761D01*
X-16877620Y-2167619D01*
X-16877620Y-2262857D01*
X-16830000Y-2405714D01*
X-16782381Y-2453333D01*
X-15877620Y-3405714D02*
X-15877620Y-2834285D01*
X-15877620Y-3120000D02*
X-16877620Y-3120000D01*
X-16734762Y-3024761D01*
X-16639524Y-2929523D01*
X-16591905Y-2834285D01*
M02*
