M48
; DRILL file {KiCad (5.1.2)-1} date 7/9/2019 11:14:23 PM
; FORMAT={-:-/ absolute / inch / decimal}
; #@! TF.CreationDate,2019-07-09T23:14:23-04:00
; #@! TF.GenerationSoftware,Kicad,Pcbnew,(5.1.2)-1
FMAT,2
INCH
T1C0.0138
T2C0.0394
T3C0.0400
%
G90
G05
T1
X-0.7356Y-0.3098
X-0.1569Y-0.4122
X-0.1332Y-0.4378
X-0.1332Y-0.3866
X-0.1091Y-0.361
X-0.0197Y-0.3327
X0.0138Y-0.3661
X0.0557Y-0.5146
X0.0564Y-0.5625
X0.0794Y-0.5402
X0.103Y-0.5146
X0.103Y-0.5638
X0.1817Y-0.0657
X0.2605Y0.2493
X0.3471Y0.1547
X0.4311Y0.6634
X0.5085Y-0.2154
X0.54Y0.1587
X0.5709Y0.0807
X0.6214Y0.1031
X0.6214Y-0.2154
X0.6384Y0.0563
T2
X-0.7493Y-0.676
X-0.6493Y-0.676
X-0.5493Y-0.676
X-0.4493Y-0.676
X-0.3493Y-0.676
X-0.2493Y-0.676
X-0.1493Y-0.676
X-0.0493Y-0.676
X0.0507Y-0.676
X0.1507Y-0.676
X0.2507Y-0.676
X0.3507Y-0.676
X0.4507Y-0.676
X0.5507Y-0.676
X0.6507Y-0.676
X0.7507Y-0.676
T3
X0.2526Y-0.4752
X0.2526Y-0.5752
X0.3526Y-0.4752
X0.3526Y-0.5752
X0.4526Y-0.4752
X0.4526Y-0.5752
T0
M30
