G04 #@! TF.GenerationSoftware,KiCad,Pcbnew,(5.1.2)-1*
G04 #@! TF.CreationDate,2019-07-09T23:17:51-04:00*
G04 #@! TF.ProjectId,SPIvSPI_SAO_White,53504976-5350-4495-9f53-414f5f576869,0*
G04 #@! TF.SameCoordinates,PX90f5600PY584f6c0*
G04 #@! TF.FileFunction,Soldermask,Top*
G04 #@! TF.FilePolarity,Negative*
%FSLAX46Y46*%
G04 Gerber Fmt 4.6, Leading zero omitted, Abs format (unit mm)*
G04 Created by KiCad (PCBNEW (5.1.2)-1) date 2019-07-09 23:17:51*
%MOMM*%
%LPD*%
G04 APERTURE LIST*
%ADD10C,0.100000*%
%ADD11C,0.010000*%
G04 APERTURE END LIST*
D10*
G36*
X7920000Y9980000D02*
G01*
X7990000Y9710000D01*
X7980000Y9450000D01*
X6500000Y9200000D01*
X6300000Y9850000D01*
X7750000Y10100000D01*
X7920000Y9980000D01*
G37*
X7920000Y9980000D02*
X7990000Y9710000D01*
X7980000Y9450000D01*
X6500000Y9200000D01*
X6300000Y9850000D01*
X7750000Y10100000D01*
X7920000Y9980000D01*
D11*
G36*
X4115094Y17306295D02*
G01*
X4110309Y17209881D01*
X4056232Y16991230D01*
X3962756Y16686762D01*
X3884450Y16456967D01*
X3748867Y16086156D01*
X3643654Y15843534D01*
X3548284Y15695788D01*
X3442229Y15609606D01*
X3332613Y15561407D01*
X3159539Y15458827D01*
X2913173Y15262145D01*
X2632481Y15004033D01*
X2461875Y14831248D01*
X2208674Y14568482D01*
X2000024Y14359059D01*
X1862117Y14228848D01*
X1821388Y14198667D01*
X1755308Y14263335D01*
X1694146Y14362434D01*
X1604695Y14701111D01*
X1650784Y15098451D01*
X1821520Y15528080D01*
X2106012Y15963623D01*
X2493369Y16378702D01*
X2546226Y16425865D01*
X2795901Y16622375D01*
X3095083Y16825682D01*
X3408913Y17016222D01*
X3702530Y17174433D01*
X3941074Y17280752D01*
X4089686Y17315615D01*
X4115094Y17306295D01*
X4115094Y17306295D01*
G37*
X4115094Y17306295D02*
X4110309Y17209881D01*
X4056232Y16991230D01*
X3962756Y16686762D01*
X3884450Y16456967D01*
X3748867Y16086156D01*
X3643654Y15843534D01*
X3548284Y15695788D01*
X3442229Y15609606D01*
X3332613Y15561407D01*
X3159539Y15458827D01*
X2913173Y15262145D01*
X2632481Y15004033D01*
X2461875Y14831248D01*
X2208674Y14568482D01*
X2000024Y14359059D01*
X1862117Y14228848D01*
X1821388Y14198667D01*
X1755308Y14263335D01*
X1694146Y14362434D01*
X1604695Y14701111D01*
X1650784Y15098451D01*
X1821520Y15528080D01*
X2106012Y15963623D01*
X2493369Y16378702D01*
X2546226Y16425865D01*
X2795901Y16622375D01*
X3095083Y16825682D01*
X3408913Y17016222D01*
X3702530Y17174433D01*
X3941074Y17280752D01*
X4089686Y17315615D01*
X4115094Y17306295D01*
G36*
X7790763Y16142497D02*
G01*
X7699966Y15973658D01*
X7523600Y15725015D01*
X7279268Y15416011D01*
X6984574Y15066090D01*
X6657120Y14694693D01*
X6314510Y14321265D01*
X5974347Y13965247D01*
X5654234Y13646084D01*
X5371774Y13383217D01*
X5144570Y13196089D01*
X4990226Y13104145D01*
X4958965Y13098000D01*
X4825867Y13159678D01*
X4670071Y13309318D01*
X4660645Y13321085D01*
X4504314Y13650199D01*
X4494952Y14034564D01*
X4630858Y14448375D01*
X4748405Y14651720D01*
X5041833Y15037956D01*
X5370422Y15343191D01*
X5770562Y15591517D01*
X6278645Y15807024D01*
X6705813Y15947555D01*
X7090765Y16059433D01*
X7423160Y16146783D01*
X7665847Y16200441D01*
X7778389Y16212090D01*
X7790763Y16142497D01*
X7790763Y16142497D01*
G37*
X7790763Y16142497D02*
X7699966Y15973658D01*
X7523600Y15725015D01*
X7279268Y15416011D01*
X6984574Y15066090D01*
X6657120Y14694693D01*
X6314510Y14321265D01*
X5974347Y13965247D01*
X5654234Y13646084D01*
X5371774Y13383217D01*
X5144570Y13196089D01*
X4990226Y13104145D01*
X4958965Y13098000D01*
X4825867Y13159678D01*
X4670071Y13309318D01*
X4660645Y13321085D01*
X4504314Y13650199D01*
X4494952Y14034564D01*
X4630858Y14448375D01*
X4748405Y14651720D01*
X5041833Y15037956D01*
X5370422Y15343191D01*
X5770562Y15591517D01*
X6278645Y15807024D01*
X6705813Y15947555D01*
X7090765Y16059433D01*
X7423160Y16146783D01*
X7665847Y16200441D01*
X7778389Y16212090D01*
X7790763Y16142497D01*
G36*
X-10439422Y716558D02*
G01*
X-10406950Y501538D01*
X-10374475Y227623D01*
X-10316083Y-323754D01*
X-12249958Y-1115701D01*
X-12789049Y-1336396D01*
X-13278892Y-1536798D01*
X-13696807Y-1707639D01*
X-14020115Y-1839650D01*
X-14226135Y-1923564D01*
X-14289666Y-1949216D01*
X-14346598Y-1925569D01*
X-14380214Y-1785212D01*
X-14394397Y-1506366D01*
X-14395500Y-1355618D01*
X-14395500Y-720452D01*
X-12444440Y60826D01*
X-11907710Y274069D01*
X-11425035Y462617D01*
X-11017919Y618332D01*
X-10707865Y733076D01*
X-10516377Y798714D01*
X-10463124Y810552D01*
X-10439422Y716558D01*
X-10439422Y716558D01*
G37*
X-10439422Y716558D02*
X-10406950Y501538D01*
X-10374475Y227623D01*
X-10316083Y-323754D01*
X-12249958Y-1115701D01*
X-12789049Y-1336396D01*
X-13278892Y-1536798D01*
X-13696807Y-1707639D01*
X-14020115Y-1839650D01*
X-14226135Y-1923564D01*
X-14289666Y-1949216D01*
X-14346598Y-1925569D01*
X-14380214Y-1785212D01*
X-14394397Y-1506366D01*
X-14395500Y-1355618D01*
X-14395500Y-720452D01*
X-12444440Y60826D01*
X-11907710Y274069D01*
X-11425035Y462617D01*
X-11017919Y618332D01*
X-10707865Y733076D01*
X-10516377Y798714D01*
X-10463124Y810552D01*
X-10439422Y716558D01*
G36*
X-16149668Y5312061D02*
G01*
X-16103715Y5077929D01*
X-16063632Y4680553D01*
X-16043049Y4377333D01*
X-16016764Y3985338D01*
X-15989687Y3663579D01*
X-15964961Y3444713D01*
X-15945728Y3361398D01*
X-15945305Y3361333D01*
X-15861551Y3407965D01*
X-15694583Y3525294D01*
X-15615213Y3584807D01*
X-15431245Y3713394D01*
X-15310790Y3775702D01*
X-15290681Y3775307D01*
X-15268369Y3681160D01*
X-15238013Y3462033D01*
X-15205513Y3161703D01*
X-15199631Y3099603D01*
X-15140123Y2456872D01*
X-15520624Y2350338D01*
X-15901125Y2243805D01*
X-15863630Y1892402D01*
X-15819239Y1490349D01*
X-15780442Y1229215D01*
X-15734626Y1081570D01*
X-15669176Y1019981D01*
X-15571478Y1017017D01*
X-15470103Y1036627D01*
X-15257837Y1080041D01*
X-15119930Y1105494D01*
X-15118001Y1105779D01*
X-15071315Y1036444D01*
X-15022365Y851756D01*
X-14979123Y605385D01*
X-14949561Y351001D01*
X-14941651Y142276D01*
X-14959420Y38167D01*
X-15063862Y-9424D01*
X-15225997Y-26630D01*
X-15426534Y-39836D01*
X-15555111Y-95980D01*
X-15623834Y-223954D01*
X-15644808Y-452652D01*
X-15630140Y-810965D01*
X-15619336Y-965385D01*
X-15561129Y-1761000D01*
X-15962219Y-1955373D01*
X-16192957Y-2058179D01*
X-16354091Y-2113130D01*
X-16398446Y-2114609D01*
X-16422140Y-2020508D01*
X-16456787Y-1796830D01*
X-16496731Y-1482516D01*
X-16518897Y-1285236D01*
X-16557700Y-934443D01*
X-16591314Y-649547D01*
X-16614871Y-470927D01*
X-16621688Y-432899D01*
X-16701267Y-430840D01*
X-16887065Y-487711D01*
X-17047431Y-552165D01*
X-17455695Y-729533D01*
X-17409127Y-1118266D01*
X-17371811Y-1436636D01*
X-17329126Y-1810453D01*
X-17308578Y-1994065D01*
X-17254597Y-2481131D01*
X-17544237Y-2602150D01*
X-17806150Y-2701332D01*
X-18043869Y-2775831D01*
X-18053395Y-2778264D01*
X-18197891Y-2798491D01*
X-18271469Y-2735675D01*
X-18313508Y-2549954D01*
X-18319554Y-2508846D01*
X-18355982Y-2233506D01*
X-18397444Y-1889130D01*
X-18418940Y-1697500D01*
X-18451244Y-1436408D01*
X-18480792Y-1259714D01*
X-18497261Y-1210667D01*
X-18578978Y-1248382D01*
X-18761737Y-1345338D01*
X-18918911Y-1432036D01*
X-19143813Y-1549708D01*
X-19300501Y-1616636D01*
X-19344525Y-1622536D01*
X-19381140Y-1515952D01*
X-19421619Y-1300437D01*
X-19459334Y-1030546D01*
X-19487659Y-760830D01*
X-19499968Y-545844D01*
X-19489634Y-440142D01*
X-19488331Y-438633D01*
X-19382509Y-380899D01*
X-19173806Y-291742D01*
X-19031461Y-236807D01*
X-18629756Y-87347D01*
X-18683383Y515160D01*
X-18711922Y813469D01*
X-18736949Y1035833D01*
X-18753423Y1137896D01*
X-18754335Y1139691D01*
X-18836005Y1125664D01*
X-19025764Y1065632D01*
X-19169886Y1014123D01*
X-19455548Y932866D01*
X-19626075Y961789D01*
X-19708084Y1118443D01*
X-19728203Y1382250D01*
X-19729576Y1403284D01*
X-17684376Y1403284D01*
X-17664001Y1246266D01*
X-17630703Y954973D01*
X-17614133Y634344D01*
X-17613765Y595784D01*
X-17612833Y243234D01*
X-17189500Y422088D01*
X-16766166Y600941D01*
X-16766166Y1219137D01*
X-16774144Y1518259D01*
X-16795206Y1737899D01*
X-16825042Y1836087D01*
X-16829666Y1837752D01*
X-16939924Y1811472D01*
X-17152021Y1743839D01*
X-17303236Y1691185D01*
X-17542675Y1598990D01*
X-17657789Y1517738D01*
X-17684376Y1403284D01*
X-19729576Y1403284D01*
X-19747183Y1672814D01*
X-19780970Y1904183D01*
X-19803284Y2050684D01*
X-19770973Y2133333D01*
X-19647652Y2179346D01*
X-19396938Y2215939D01*
X-19357636Y2220855D01*
X-19076572Y2267362D01*
X-18930074Y2327169D01*
X-18883385Y2415614D01*
X-18882833Y2430403D01*
X-18897544Y2572457D01*
X-18936449Y2834711D01*
X-18991711Y3171092D01*
X-19055492Y3535523D01*
X-19119952Y3881931D01*
X-19177253Y4164239D01*
X-19179725Y4175550D01*
X-19177632Y4289609D01*
X-19090522Y4382635D01*
X-18885473Y4483282D01*
X-18775781Y4527158D01*
X-18503297Y4633479D01*
X-18280409Y4721064D01*
X-18192674Y4755966D01*
X-18127070Y4763079D01*
X-18080930Y4703454D01*
X-18047380Y4549602D01*
X-18019549Y4274035D01*
X-17998948Y3981025D01*
X-17971038Y3589372D01*
X-17941127Y3232123D01*
X-17913900Y2962952D01*
X-17902584Y2877059D01*
X-17860120Y2604450D01*
X-17418977Y2778314D01*
X-17174833Y2876432D01*
X-17006501Y2947668D01*
X-16958642Y2971335D01*
X-16958446Y3058134D01*
X-16974483Y3273123D01*
X-17003558Y3576278D01*
X-17017230Y3705080D01*
X-17073232Y4213415D01*
X-17109780Y4579411D01*
X-17121786Y4829452D01*
X-17104164Y4989923D01*
X-17051828Y5087207D01*
X-16959691Y5147689D01*
X-16822666Y5197752D01*
X-16722930Y5231599D01*
X-16465094Y5317292D01*
X-16267084Y5374125D01*
X-16202094Y5386772D01*
X-16149668Y5312061D01*
X-16149668Y5312061D01*
G37*
X-16149668Y5312061D02*
X-16103715Y5077929D01*
X-16063632Y4680553D01*
X-16043049Y4377333D01*
X-16016764Y3985338D01*
X-15989687Y3663579D01*
X-15964961Y3444713D01*
X-15945728Y3361398D01*
X-15945305Y3361333D01*
X-15861551Y3407965D01*
X-15694583Y3525294D01*
X-15615213Y3584807D01*
X-15431245Y3713394D01*
X-15310790Y3775702D01*
X-15290681Y3775307D01*
X-15268369Y3681160D01*
X-15238013Y3462033D01*
X-15205513Y3161703D01*
X-15199631Y3099603D01*
X-15140123Y2456872D01*
X-15520624Y2350338D01*
X-15901125Y2243805D01*
X-15863630Y1892402D01*
X-15819239Y1490349D01*
X-15780442Y1229215D01*
X-15734626Y1081570D01*
X-15669176Y1019981D01*
X-15571478Y1017017D01*
X-15470103Y1036627D01*
X-15257837Y1080041D01*
X-15119930Y1105494D01*
X-15118001Y1105779D01*
X-15071315Y1036444D01*
X-15022365Y851756D01*
X-14979123Y605385D01*
X-14949561Y351001D01*
X-14941651Y142276D01*
X-14959420Y38167D01*
X-15063862Y-9424D01*
X-15225997Y-26630D01*
X-15426534Y-39836D01*
X-15555111Y-95980D01*
X-15623834Y-223954D01*
X-15644808Y-452652D01*
X-15630140Y-810965D01*
X-15619336Y-965385D01*
X-15561129Y-1761000D01*
X-15962219Y-1955373D01*
X-16192957Y-2058179D01*
X-16354091Y-2113130D01*
X-16398446Y-2114609D01*
X-16422140Y-2020508D01*
X-16456787Y-1796830D01*
X-16496731Y-1482516D01*
X-16518897Y-1285236D01*
X-16557700Y-934443D01*
X-16591314Y-649547D01*
X-16614871Y-470927D01*
X-16621688Y-432899D01*
X-16701267Y-430840D01*
X-16887065Y-487711D01*
X-17047431Y-552165D01*
X-17455695Y-729533D01*
X-17409127Y-1118266D01*
X-17371811Y-1436636D01*
X-17329126Y-1810453D01*
X-17308578Y-1994065D01*
X-17254597Y-2481131D01*
X-17544237Y-2602150D01*
X-17806150Y-2701332D01*
X-18043869Y-2775831D01*
X-18053395Y-2778264D01*
X-18197891Y-2798491D01*
X-18271469Y-2735675D01*
X-18313508Y-2549954D01*
X-18319554Y-2508846D01*
X-18355982Y-2233506D01*
X-18397444Y-1889130D01*
X-18418940Y-1697500D01*
X-18451244Y-1436408D01*
X-18480792Y-1259714D01*
X-18497261Y-1210667D01*
X-18578978Y-1248382D01*
X-18761737Y-1345338D01*
X-18918911Y-1432036D01*
X-19143813Y-1549708D01*
X-19300501Y-1616636D01*
X-19344525Y-1622536D01*
X-19381140Y-1515952D01*
X-19421619Y-1300437D01*
X-19459334Y-1030546D01*
X-19487659Y-760830D01*
X-19499968Y-545844D01*
X-19489634Y-440142D01*
X-19488331Y-438633D01*
X-19382509Y-380899D01*
X-19173806Y-291742D01*
X-19031461Y-236807D01*
X-18629756Y-87347D01*
X-18683383Y515160D01*
X-18711922Y813469D01*
X-18736949Y1035833D01*
X-18753423Y1137896D01*
X-18754335Y1139691D01*
X-18836005Y1125664D01*
X-19025764Y1065632D01*
X-19169886Y1014123D01*
X-19455548Y932866D01*
X-19626075Y961789D01*
X-19708084Y1118443D01*
X-19728203Y1382250D01*
X-19729576Y1403284D01*
X-17684376Y1403284D01*
X-17664001Y1246266D01*
X-17630703Y954973D01*
X-17614133Y634344D01*
X-17613765Y595784D01*
X-17612833Y243234D01*
X-17189500Y422088D01*
X-16766166Y600941D01*
X-16766166Y1219137D01*
X-16774144Y1518259D01*
X-16795206Y1737899D01*
X-16825042Y1836087D01*
X-16829666Y1837752D01*
X-16939924Y1811472D01*
X-17152021Y1743839D01*
X-17303236Y1691185D01*
X-17542675Y1598990D01*
X-17657789Y1517738D01*
X-17684376Y1403284D01*
X-19729576Y1403284D01*
X-19747183Y1672814D01*
X-19780970Y1904183D01*
X-19803284Y2050684D01*
X-19770973Y2133333D01*
X-19647652Y2179346D01*
X-19396938Y2215939D01*
X-19357636Y2220855D01*
X-19076572Y2267362D01*
X-18930074Y2327169D01*
X-18883385Y2415614D01*
X-18882833Y2430403D01*
X-18897544Y2572457D01*
X-18936449Y2834711D01*
X-18991711Y3171092D01*
X-19055492Y3535523D01*
X-19119952Y3881931D01*
X-19177253Y4164239D01*
X-19179725Y4175550D01*
X-19177632Y4289609D01*
X-19090522Y4382635D01*
X-18885473Y4483282D01*
X-18775781Y4527158D01*
X-18503297Y4633479D01*
X-18280409Y4721064D01*
X-18192674Y4755966D01*
X-18127070Y4763079D01*
X-18080930Y4703454D01*
X-18047380Y4549602D01*
X-18019549Y4274035D01*
X-17998948Y3981025D01*
X-17971038Y3589372D01*
X-17941127Y3232123D01*
X-17913900Y2962952D01*
X-17902584Y2877059D01*
X-17860120Y2604450D01*
X-17418977Y2778314D01*
X-17174833Y2876432D01*
X-17006501Y2947668D01*
X-16958642Y2971335D01*
X-16958446Y3058134D01*
X-16974483Y3273123D01*
X-17003558Y3576278D01*
X-17017230Y3705080D01*
X-17073232Y4213415D01*
X-17109780Y4579411D01*
X-17121786Y4829452D01*
X-17104164Y4989923D01*
X-17051828Y5087207D01*
X-16959691Y5147689D01*
X-16822666Y5197752D01*
X-16722930Y5231599D01*
X-16465094Y5317292D01*
X-16267084Y5374125D01*
X-16202094Y5386772D01*
X-16149668Y5312061D01*
G36*
X-8484410Y-3971358D02*
G01*
X-8329424Y-4025032D01*
X-8115150Y-4094302D01*
X-7922639Y-4100950D01*
X-7670400Y-4045146D01*
X-7605780Y-4026555D01*
X-7341336Y-3965296D01*
X-7130385Y-3944880D01*
X-7061921Y-3954421D01*
X-6959790Y-4062239D01*
X-6968142Y-4219371D01*
X-7069518Y-4364206D01*
X-7196029Y-4427684D01*
X-7292881Y-4460269D01*
X-7300953Y-4508827D01*
X-7202719Y-4594780D01*
X-6980658Y-4739552D01*
X-6899695Y-4789955D01*
X-6415696Y-5114998D01*
X-5956480Y-5467954D01*
X-5615107Y-5771776D01*
X-5527601Y-5934041D01*
X-5523410Y-6024804D01*
X-5611877Y-6162333D01*
X-5789432Y-6167399D01*
X-6042448Y-6042159D01*
X-6212187Y-5915772D01*
X-6441684Y-5748020D01*
X-6639454Y-5638199D01*
X-6727836Y-5613333D01*
X-6865888Y-5643235D01*
X-7119095Y-5723734D01*
X-7446006Y-5841024D01*
X-7670419Y-5927306D01*
X-8466439Y-6241278D01*
X-8065469Y-6598382D01*
X-7784301Y-6820779D01*
X-7579810Y-6914414D01*
X-7488884Y-6913967D01*
X-7288419Y-6940373D01*
X-7199824Y-7009140D01*
X-7142096Y-7128081D01*
X-7191964Y-7238472D01*
X-7366034Y-7353800D01*
X-7680910Y-7487552D01*
X-7876166Y-7558471D01*
X-8489572Y-7786024D01*
X-8967813Y-7988600D01*
X-9303357Y-8162349D01*
X-9488673Y-8303420D01*
X-9520770Y-8399299D01*
X-9395228Y-8704739D01*
X-9331178Y-8891966D01*
X-9322211Y-8997890D01*
X-9361919Y-9059422D01*
X-9401333Y-9087179D01*
X-9540075Y-9154515D01*
X-9647877Y-9127537D01*
X-9770495Y-8984211D01*
X-9843888Y-8874048D01*
X-9980879Y-8689592D01*
X-10091825Y-8585898D01*
X-10115442Y-8577715D01*
X-10209508Y-8615925D01*
X-10412283Y-8717353D01*
X-10685491Y-8861136D01*
X-10990857Y-9026414D01*
X-11290105Y-9192326D01*
X-11544958Y-9338009D01*
X-11717141Y-9442604D01*
X-11764111Y-9476281D01*
X-11737418Y-9552257D01*
X-11624846Y-9694548D01*
X-11608282Y-9712447D01*
X-11483451Y-9898471D01*
X-11445716Y-10067090D01*
X-11446535Y-10071947D01*
X-11538960Y-10215684D01*
X-11709489Y-10243490D01*
X-11913541Y-10156147D01*
X-12021525Y-10061854D01*
X-12181974Y-9916669D01*
X-12305503Y-9847719D01*
X-12314758Y-9846819D01*
X-12416416Y-9891555D01*
X-12628002Y-10013556D01*
X-12919533Y-10194697D01*
X-13261030Y-10416853D01*
X-13294833Y-10439333D01*
X-13634351Y-10662965D01*
X-13921006Y-10846878D01*
X-14126700Y-10973398D01*
X-14223338Y-11024853D01*
X-14226166Y-11025163D01*
X-14334043Y-10991495D01*
X-14374333Y-10975927D01*
X-14463192Y-10865884D01*
X-14480166Y-10771412D01*
X-14415140Y-10648234D01*
X-14215666Y-10463094D01*
X-13875155Y-10210348D01*
X-13631086Y-10044282D01*
X-13309687Y-9822083D01*
X-13055258Y-9630304D01*
X-12892699Y-9488899D01*
X-12846910Y-9417823D01*
X-12847920Y-9416667D01*
X-12963552Y-9346573D01*
X-13168173Y-9250439D01*
X-13227427Y-9225473D01*
X-13541021Y-9096571D01*
X-14789886Y-9904778D01*
X-15271246Y-10211627D01*
X-15631482Y-10429390D01*
X-15887558Y-10566988D01*
X-16056438Y-10633345D01*
X-16155086Y-10637381D01*
X-16169625Y-10630432D01*
X-16282229Y-10501464D01*
X-16300500Y-10430106D01*
X-16233604Y-10344148D01*
X-16049189Y-10184986D01*
X-15771667Y-9971774D01*
X-15425448Y-9723665D01*
X-15225526Y-9586647D01*
X-14150551Y-8860960D01*
X-14529432Y-8763118D01*
X-12879429Y-8763118D01*
X-12849008Y-8829914D01*
X-12748385Y-8900319D01*
X-12642067Y-8962875D01*
X-12442888Y-9079874D01*
X-12316622Y-9151704D01*
X-12297562Y-9161352D01*
X-12219373Y-9125037D01*
X-12024612Y-9020353D01*
X-11743273Y-8863742D01*
X-11429729Y-8685623D01*
X-11096350Y-8490438D01*
X-10825074Y-8323673D01*
X-10645166Y-8203862D01*
X-10585500Y-8150880D01*
X-10652504Y-8082849D01*
X-10822116Y-7969251D01*
X-10924394Y-7909378D01*
X-11263289Y-7718909D01*
X-12003894Y-8161219D01*
X-12401880Y-8398982D01*
X-12670624Y-8566193D01*
X-12824887Y-8681391D01*
X-12879429Y-8763118D01*
X-14529432Y-8763118D01*
X-14717526Y-8714545D01*
X-15030569Y-8638291D01*
X-15297219Y-8581428D01*
X-15453833Y-8556973D01*
X-15592183Y-8596341D01*
X-15832625Y-8709659D01*
X-16137702Y-8874966D01*
X-16469953Y-9070300D01*
X-16791922Y-9273699D01*
X-17066149Y-9463199D01*
X-17244714Y-9606981D01*
X-17444274Y-9725889D01*
X-17641292Y-9745482D01*
X-17784061Y-9670811D01*
X-17824500Y-9550333D01*
X-17761866Y-9417521D01*
X-17567775Y-9229977D01*
X-17232942Y-8979124D01*
X-17128068Y-8906815D01*
X-16813294Y-8690616D01*
X-16621223Y-8548221D01*
X-16534234Y-8458655D01*
X-16534708Y-8400938D01*
X-16605024Y-8354093D01*
X-16647263Y-8334383D01*
X-16810191Y-8205843D01*
X-16828482Y-8113752D01*
X-14776500Y-8113752D01*
X-14702712Y-8164990D01*
X-14514355Y-8241914D01*
X-14260940Y-8328356D01*
X-13991977Y-8408147D01*
X-13756974Y-8465119D01*
X-13648924Y-8481991D01*
X-13534883Y-8444046D01*
X-13312025Y-8333544D01*
X-13014635Y-8168463D01*
X-12739515Y-8005167D01*
X-12418426Y-7805020D01*
X-12158952Y-7635250D01*
X-11990523Y-7515644D01*
X-11940924Y-7468238D01*
X-12014841Y-7420102D01*
X-12015830Y-7419710D01*
X-10743963Y-7419710D01*
X-10389565Y-7652938D01*
X-10186444Y-7787310D01*
X-10056254Y-7874775D01*
X-10031057Y-7892749D01*
X-9957459Y-7863555D01*
X-9762581Y-7779625D01*
X-9479699Y-7655407D01*
X-9269057Y-7561977D01*
X-8932796Y-7417064D01*
X-8647839Y-7303034D01*
X-8453833Y-7235306D01*
X-8398278Y-7223310D01*
X-8313568Y-7178676D01*
X-8366094Y-7055795D01*
X-8549260Y-6865781D01*
X-8672454Y-6761409D01*
X-8992273Y-6502558D01*
X-10743963Y-7419710D01*
X-12015830Y-7419710D01*
X-12208802Y-7343230D01*
X-12463992Y-7259542D01*
X-12987817Y-7100940D01*
X-13882159Y-7573530D01*
X-14229233Y-7762262D01*
X-14513512Y-7926997D01*
X-14705699Y-8050038D01*
X-14776499Y-8113689D01*
X-14776500Y-8113752D01*
X-16828482Y-8113752D01*
X-16833419Y-8088901D01*
X-16791112Y-8010137D01*
X-16679464Y-7965067D01*
X-16462264Y-7945179D01*
X-16207190Y-7941667D01*
X-15948103Y-7937386D01*
X-15739621Y-7915215D01*
X-15540165Y-7861162D01*
X-15308157Y-7761233D01*
X-15002021Y-7601437D01*
X-14699344Y-7434208D01*
X-14320949Y-7219730D01*
X-14076524Y-7070016D01*
X-13949534Y-6972231D01*
X-13923444Y-6913538D01*
X-13981717Y-6881102D01*
X-13985599Y-6880162D01*
X-14152595Y-6777704D01*
X-14163958Y-6750531D01*
X-12363158Y-6750531D01*
X-11876496Y-6934139D01*
X-11612608Y-7032380D01*
X-11416998Y-7102752D01*
X-11340760Y-7127540D01*
X-11251085Y-7094308D01*
X-11042475Y-6996548D01*
X-10745559Y-6849132D01*
X-10390965Y-6666937D01*
X-10372678Y-6657394D01*
X-9453669Y-6177454D01*
X-10333205Y-5746810D01*
X-11348182Y-6248670D01*
X-12363158Y-6750531D01*
X-14163958Y-6750531D01*
X-14221688Y-6612484D01*
X-14166208Y-6451094D01*
X-14160029Y-6444663D01*
X-14017563Y-6408624D01*
X-13732894Y-6432220D01*
X-13580589Y-6458700D01*
X-13083166Y-6554754D01*
X-12109500Y-6039218D01*
X-11715942Y-5829835D01*
X-11457835Y-5687276D01*
X-11320751Y-5599567D01*
X-11290259Y-5554731D01*
X-11351930Y-5540793D01*
X-11491335Y-5545777D01*
X-11516833Y-5547340D01*
X-11751309Y-5554019D01*
X-11862658Y-5520958D01*
X-11890928Y-5441132D01*
X-9654166Y-5441132D01*
X-9588117Y-5508080D01*
X-9419743Y-5626351D01*
X-9297438Y-5702772D01*
X-8940710Y-5917300D01*
X-8195409Y-5595983D01*
X-7865134Y-5457142D01*
X-7590982Y-5348477D01*
X-7411532Y-5284949D01*
X-7366804Y-5274667D01*
X-7285610Y-5221025D01*
X-7283500Y-5205590D01*
X-7352010Y-5124265D01*
X-7520397Y-5007856D01*
X-7732944Y-4888099D01*
X-7933934Y-4796729D01*
X-8057028Y-4765006D01*
X-8180343Y-4794923D01*
X-8405559Y-4874924D01*
X-8692124Y-4987843D01*
X-8999489Y-5116513D01*
X-9287103Y-5243767D01*
X-9514417Y-5352440D01*
X-9640880Y-5425365D01*
X-9654166Y-5441132D01*
X-11890928Y-5441132D01*
X-11896121Y-5426471D01*
X-11897833Y-5364715D01*
X-11823242Y-5186228D01*
X-11609940Y-5081252D01*
X-11273640Y-5053816D01*
X-10867928Y-5100738D01*
X-10646701Y-5136830D01*
X-10467935Y-5143446D01*
X-10285965Y-5111003D01*
X-10055128Y-5029916D01*
X-9729758Y-4890600D01*
X-9607086Y-4836107D01*
X-9251611Y-4675339D01*
X-9025190Y-4561029D01*
X-8901527Y-4472260D01*
X-8854325Y-4388110D01*
X-8857289Y-4287659D01*
X-8865101Y-4245827D01*
X-8857730Y-4036351D01*
X-8730032Y-3944531D01*
X-8484410Y-3971358D01*
X-8484410Y-3971358D01*
G37*
X-8484410Y-3971358D02*
X-8329424Y-4025032D01*
X-8115150Y-4094302D01*
X-7922639Y-4100950D01*
X-7670400Y-4045146D01*
X-7605780Y-4026555D01*
X-7341336Y-3965296D01*
X-7130385Y-3944880D01*
X-7061921Y-3954421D01*
X-6959790Y-4062239D01*
X-6968142Y-4219371D01*
X-7069518Y-4364206D01*
X-7196029Y-4427684D01*
X-7292881Y-4460269D01*
X-7300953Y-4508827D01*
X-7202719Y-4594780D01*
X-6980658Y-4739552D01*
X-6899695Y-4789955D01*
X-6415696Y-5114998D01*
X-5956480Y-5467954D01*
X-5615107Y-5771776D01*
X-5527601Y-5934041D01*
X-5523410Y-6024804D01*
X-5611877Y-6162333D01*
X-5789432Y-6167399D01*
X-6042448Y-6042159D01*
X-6212187Y-5915772D01*
X-6441684Y-5748020D01*
X-6639454Y-5638199D01*
X-6727836Y-5613333D01*
X-6865888Y-5643235D01*
X-7119095Y-5723734D01*
X-7446006Y-5841024D01*
X-7670419Y-5927306D01*
X-8466439Y-6241278D01*
X-8065469Y-6598382D01*
X-7784301Y-6820779D01*
X-7579810Y-6914414D01*
X-7488884Y-6913967D01*
X-7288419Y-6940373D01*
X-7199824Y-7009140D01*
X-7142096Y-7128081D01*
X-7191964Y-7238472D01*
X-7366034Y-7353800D01*
X-7680910Y-7487552D01*
X-7876166Y-7558471D01*
X-8489572Y-7786024D01*
X-8967813Y-7988600D01*
X-9303357Y-8162349D01*
X-9488673Y-8303420D01*
X-9520770Y-8399299D01*
X-9395228Y-8704739D01*
X-9331178Y-8891966D01*
X-9322211Y-8997890D01*
X-9361919Y-9059422D01*
X-9401333Y-9087179D01*
X-9540075Y-9154515D01*
X-9647877Y-9127537D01*
X-9770495Y-8984211D01*
X-9843888Y-8874048D01*
X-9980879Y-8689592D01*
X-10091825Y-8585898D01*
X-10115442Y-8577715D01*
X-10209508Y-8615925D01*
X-10412283Y-8717353D01*
X-10685491Y-8861136D01*
X-10990857Y-9026414D01*
X-11290105Y-9192326D01*
X-11544958Y-9338009D01*
X-11717141Y-9442604D01*
X-11764111Y-9476281D01*
X-11737418Y-9552257D01*
X-11624846Y-9694548D01*
X-11608282Y-9712447D01*
X-11483451Y-9898471D01*
X-11445716Y-10067090D01*
X-11446535Y-10071947D01*
X-11538960Y-10215684D01*
X-11709489Y-10243490D01*
X-11913541Y-10156147D01*
X-12021525Y-10061854D01*
X-12181974Y-9916669D01*
X-12305503Y-9847719D01*
X-12314758Y-9846819D01*
X-12416416Y-9891555D01*
X-12628002Y-10013556D01*
X-12919533Y-10194697D01*
X-13261030Y-10416853D01*
X-13294833Y-10439333D01*
X-13634351Y-10662965D01*
X-13921006Y-10846878D01*
X-14126700Y-10973398D01*
X-14223338Y-11024853D01*
X-14226166Y-11025163D01*
X-14334043Y-10991495D01*
X-14374333Y-10975927D01*
X-14463192Y-10865884D01*
X-14480166Y-10771412D01*
X-14415140Y-10648234D01*
X-14215666Y-10463094D01*
X-13875155Y-10210348D01*
X-13631086Y-10044282D01*
X-13309687Y-9822083D01*
X-13055258Y-9630304D01*
X-12892699Y-9488899D01*
X-12846910Y-9417823D01*
X-12847920Y-9416667D01*
X-12963552Y-9346573D01*
X-13168173Y-9250439D01*
X-13227427Y-9225473D01*
X-13541021Y-9096571D01*
X-14789886Y-9904778D01*
X-15271246Y-10211627D01*
X-15631482Y-10429390D01*
X-15887558Y-10566988D01*
X-16056438Y-10633345D01*
X-16155086Y-10637381D01*
X-16169625Y-10630432D01*
X-16282229Y-10501464D01*
X-16300500Y-10430106D01*
X-16233604Y-10344148D01*
X-16049189Y-10184986D01*
X-15771667Y-9971774D01*
X-15425448Y-9723665D01*
X-15225526Y-9586647D01*
X-14150551Y-8860960D01*
X-14529432Y-8763118D01*
X-12879429Y-8763118D01*
X-12849008Y-8829914D01*
X-12748385Y-8900319D01*
X-12642067Y-8962875D01*
X-12442888Y-9079874D01*
X-12316622Y-9151704D01*
X-12297562Y-9161352D01*
X-12219373Y-9125037D01*
X-12024612Y-9020353D01*
X-11743273Y-8863742D01*
X-11429729Y-8685623D01*
X-11096350Y-8490438D01*
X-10825074Y-8323673D01*
X-10645166Y-8203862D01*
X-10585500Y-8150880D01*
X-10652504Y-8082849D01*
X-10822116Y-7969251D01*
X-10924394Y-7909378D01*
X-11263289Y-7718909D01*
X-12003894Y-8161219D01*
X-12401880Y-8398982D01*
X-12670624Y-8566193D01*
X-12824887Y-8681391D01*
X-12879429Y-8763118D01*
X-14529432Y-8763118D01*
X-14717526Y-8714545D01*
X-15030569Y-8638291D01*
X-15297219Y-8581428D01*
X-15453833Y-8556973D01*
X-15592183Y-8596341D01*
X-15832625Y-8709659D01*
X-16137702Y-8874966D01*
X-16469953Y-9070300D01*
X-16791922Y-9273699D01*
X-17066149Y-9463199D01*
X-17244714Y-9606981D01*
X-17444274Y-9725889D01*
X-17641292Y-9745482D01*
X-17784061Y-9670811D01*
X-17824500Y-9550333D01*
X-17761866Y-9417521D01*
X-17567775Y-9229977D01*
X-17232942Y-8979124D01*
X-17128068Y-8906815D01*
X-16813294Y-8690616D01*
X-16621223Y-8548221D01*
X-16534234Y-8458655D01*
X-16534708Y-8400938D01*
X-16605024Y-8354093D01*
X-16647263Y-8334383D01*
X-16810191Y-8205843D01*
X-16828482Y-8113752D01*
X-14776500Y-8113752D01*
X-14702712Y-8164990D01*
X-14514355Y-8241914D01*
X-14260940Y-8328356D01*
X-13991977Y-8408147D01*
X-13756974Y-8465119D01*
X-13648924Y-8481991D01*
X-13534883Y-8444046D01*
X-13312025Y-8333544D01*
X-13014635Y-8168463D01*
X-12739515Y-8005167D01*
X-12418426Y-7805020D01*
X-12158952Y-7635250D01*
X-11990523Y-7515644D01*
X-11940924Y-7468238D01*
X-12014841Y-7420102D01*
X-12015830Y-7419710D01*
X-10743963Y-7419710D01*
X-10389565Y-7652938D01*
X-10186444Y-7787310D01*
X-10056254Y-7874775D01*
X-10031057Y-7892749D01*
X-9957459Y-7863555D01*
X-9762581Y-7779625D01*
X-9479699Y-7655407D01*
X-9269057Y-7561977D01*
X-8932796Y-7417064D01*
X-8647839Y-7303034D01*
X-8453833Y-7235306D01*
X-8398278Y-7223310D01*
X-8313568Y-7178676D01*
X-8366094Y-7055795D01*
X-8549260Y-6865781D01*
X-8672454Y-6761409D01*
X-8992273Y-6502558D01*
X-10743963Y-7419710D01*
X-12015830Y-7419710D01*
X-12208802Y-7343230D01*
X-12463992Y-7259542D01*
X-12987817Y-7100940D01*
X-13882159Y-7573530D01*
X-14229233Y-7762262D01*
X-14513512Y-7926997D01*
X-14705699Y-8050038D01*
X-14776499Y-8113689D01*
X-14776500Y-8113752D01*
X-16828482Y-8113752D01*
X-16833419Y-8088901D01*
X-16791112Y-8010137D01*
X-16679464Y-7965067D01*
X-16462264Y-7945179D01*
X-16207190Y-7941667D01*
X-15948103Y-7937386D01*
X-15739621Y-7915215D01*
X-15540165Y-7861162D01*
X-15308157Y-7761233D01*
X-15002021Y-7601437D01*
X-14699344Y-7434208D01*
X-14320949Y-7219730D01*
X-14076524Y-7070016D01*
X-13949534Y-6972231D01*
X-13923444Y-6913538D01*
X-13981717Y-6881102D01*
X-13985599Y-6880162D01*
X-14152595Y-6777704D01*
X-14163958Y-6750531D01*
X-12363158Y-6750531D01*
X-11876496Y-6934139D01*
X-11612608Y-7032380D01*
X-11416998Y-7102752D01*
X-11340760Y-7127540D01*
X-11251085Y-7094308D01*
X-11042475Y-6996548D01*
X-10745559Y-6849132D01*
X-10390965Y-6666937D01*
X-10372678Y-6657394D01*
X-9453669Y-6177454D01*
X-10333205Y-5746810D01*
X-11348182Y-6248670D01*
X-12363158Y-6750531D01*
X-14163958Y-6750531D01*
X-14221688Y-6612484D01*
X-14166208Y-6451094D01*
X-14160029Y-6444663D01*
X-14017563Y-6408624D01*
X-13732894Y-6432220D01*
X-13580589Y-6458700D01*
X-13083166Y-6554754D01*
X-12109500Y-6039218D01*
X-11715942Y-5829835D01*
X-11457835Y-5687276D01*
X-11320751Y-5599567D01*
X-11290259Y-5554731D01*
X-11351930Y-5540793D01*
X-11491335Y-5545777D01*
X-11516833Y-5547340D01*
X-11751309Y-5554019D01*
X-11862658Y-5520958D01*
X-11890928Y-5441132D01*
X-9654166Y-5441132D01*
X-9588117Y-5508080D01*
X-9419743Y-5626351D01*
X-9297438Y-5702772D01*
X-8940710Y-5917300D01*
X-8195409Y-5595983D01*
X-7865134Y-5457142D01*
X-7590982Y-5348477D01*
X-7411532Y-5284949D01*
X-7366804Y-5274667D01*
X-7285610Y-5221025D01*
X-7283500Y-5205590D01*
X-7352010Y-5124265D01*
X-7520397Y-5007856D01*
X-7732944Y-4888099D01*
X-7933934Y-4796729D01*
X-8057028Y-4765006D01*
X-8180343Y-4794923D01*
X-8405559Y-4874924D01*
X-8692124Y-4987843D01*
X-8999489Y-5116513D01*
X-9287103Y-5243767D01*
X-9514417Y-5352440D01*
X-9640880Y-5425365D01*
X-9654166Y-5441132D01*
X-11890928Y-5441132D01*
X-11896121Y-5426471D01*
X-11897833Y-5364715D01*
X-11823242Y-5186228D01*
X-11609940Y-5081252D01*
X-11273640Y-5053816D01*
X-10867928Y-5100738D01*
X-10646701Y-5136830D01*
X-10467935Y-5143446D01*
X-10285965Y-5111003D01*
X-10055128Y-5029916D01*
X-9729758Y-4890600D01*
X-9607086Y-4836107D01*
X-9251611Y-4675339D01*
X-9025190Y-4561029D01*
X-8901527Y-4472260D01*
X-8854325Y-4388110D01*
X-8857289Y-4287659D01*
X-8865101Y-4245827D01*
X-8857730Y-4036351D01*
X-8730032Y-3944531D01*
X-8484410Y-3971358D01*
D10*
G36*
X19179443Y-16275519D02*
G01*
X19245627Y-16282037D01*
X19415466Y-16333557D01*
X19571991Y-16417222D01*
X19607729Y-16446552D01*
X19709186Y-16529814D01*
X19792448Y-16631271D01*
X19821778Y-16667009D01*
X19905443Y-16823534D01*
X19956963Y-16993373D01*
X19974359Y-17170000D01*
X19956963Y-17346627D01*
X19905443Y-17516466D01*
X19821778Y-17672991D01*
X19792448Y-17708729D01*
X19709186Y-17810186D01*
X19607729Y-17893448D01*
X19571991Y-17922778D01*
X19415466Y-18006443D01*
X19245627Y-18057963D01*
X19179443Y-18064481D01*
X19113260Y-18071000D01*
X19024740Y-18071000D01*
X18958557Y-18064481D01*
X18892373Y-18057963D01*
X18722534Y-18006443D01*
X18566009Y-17922778D01*
X18530271Y-17893448D01*
X18428814Y-17810186D01*
X18345552Y-17708729D01*
X18316222Y-17672991D01*
X18232557Y-17516466D01*
X18181037Y-17346627D01*
X18163641Y-17170000D01*
X18181037Y-16993373D01*
X18232557Y-16823534D01*
X18316222Y-16667009D01*
X18345552Y-16631271D01*
X18428814Y-16529814D01*
X18530271Y-16446552D01*
X18566009Y-16417222D01*
X18722534Y-16333557D01*
X18892373Y-16282037D01*
X18958557Y-16275519D01*
X19024740Y-16269000D01*
X19113260Y-16269000D01*
X19179443Y-16275519D01*
X19179443Y-16275519D01*
G37*
G36*
X-18130000Y-18071000D02*
G01*
X-19932000Y-18071000D01*
X-19932000Y-16269000D01*
X-18130000Y-16269000D01*
X-18130000Y-18071000D01*
X-18130000Y-18071000D01*
G37*
G36*
X-16380557Y-16275519D02*
G01*
X-16314373Y-16282037D01*
X-16144534Y-16333557D01*
X-15988009Y-16417222D01*
X-15952271Y-16446552D01*
X-15850814Y-16529814D01*
X-15767552Y-16631271D01*
X-15738222Y-16667009D01*
X-15654557Y-16823534D01*
X-15603037Y-16993373D01*
X-15585641Y-17170000D01*
X-15603037Y-17346627D01*
X-15654557Y-17516466D01*
X-15738222Y-17672991D01*
X-15767552Y-17708729D01*
X-15850814Y-17810186D01*
X-15952271Y-17893448D01*
X-15988009Y-17922778D01*
X-16144534Y-18006443D01*
X-16314373Y-18057963D01*
X-16380557Y-18064481D01*
X-16446740Y-18071000D01*
X-16535260Y-18071000D01*
X-16601443Y-18064481D01*
X-16667627Y-18057963D01*
X-16837466Y-18006443D01*
X-16993991Y-17922778D01*
X-17029729Y-17893448D01*
X-17131186Y-17810186D01*
X-17214448Y-17708729D01*
X-17243778Y-17672991D01*
X-17327443Y-17516466D01*
X-17378963Y-17346627D01*
X-17396359Y-17170000D01*
X-17378963Y-16993373D01*
X-17327443Y-16823534D01*
X-17243778Y-16667009D01*
X-17214448Y-16631271D01*
X-17131186Y-16529814D01*
X-17029729Y-16446552D01*
X-16993991Y-16417222D01*
X-16837466Y-16333557D01*
X-16667627Y-16282037D01*
X-16601443Y-16275519D01*
X-16535260Y-16269000D01*
X-16446740Y-16269000D01*
X-16380557Y-16275519D01*
X-16380557Y-16275519D01*
G37*
G36*
X-13840557Y-16275519D02*
G01*
X-13774373Y-16282037D01*
X-13604534Y-16333557D01*
X-13448009Y-16417222D01*
X-13412271Y-16446552D01*
X-13310814Y-16529814D01*
X-13227552Y-16631271D01*
X-13198222Y-16667009D01*
X-13114557Y-16823534D01*
X-13063037Y-16993373D01*
X-13045641Y-17170000D01*
X-13063037Y-17346627D01*
X-13114557Y-17516466D01*
X-13198222Y-17672991D01*
X-13227552Y-17708729D01*
X-13310814Y-17810186D01*
X-13412271Y-17893448D01*
X-13448009Y-17922778D01*
X-13604534Y-18006443D01*
X-13774373Y-18057963D01*
X-13840557Y-18064481D01*
X-13906740Y-18071000D01*
X-13995260Y-18071000D01*
X-14061443Y-18064481D01*
X-14127627Y-18057963D01*
X-14297466Y-18006443D01*
X-14453991Y-17922778D01*
X-14489729Y-17893448D01*
X-14591186Y-17810186D01*
X-14674448Y-17708729D01*
X-14703778Y-17672991D01*
X-14787443Y-17516466D01*
X-14838963Y-17346627D01*
X-14856359Y-17170000D01*
X-14838963Y-16993373D01*
X-14787443Y-16823534D01*
X-14703778Y-16667009D01*
X-14674448Y-16631271D01*
X-14591186Y-16529814D01*
X-14489729Y-16446552D01*
X-14453991Y-16417222D01*
X-14297466Y-16333557D01*
X-14127627Y-16282037D01*
X-14061443Y-16275519D01*
X-13995260Y-16269000D01*
X-13906740Y-16269000D01*
X-13840557Y-16275519D01*
X-13840557Y-16275519D01*
G37*
G36*
X-11300557Y-16275519D02*
G01*
X-11234373Y-16282037D01*
X-11064534Y-16333557D01*
X-10908009Y-16417222D01*
X-10872271Y-16446552D01*
X-10770814Y-16529814D01*
X-10687552Y-16631271D01*
X-10658222Y-16667009D01*
X-10574557Y-16823534D01*
X-10523037Y-16993373D01*
X-10505641Y-17170000D01*
X-10523037Y-17346627D01*
X-10574557Y-17516466D01*
X-10658222Y-17672991D01*
X-10687552Y-17708729D01*
X-10770814Y-17810186D01*
X-10872271Y-17893448D01*
X-10908009Y-17922778D01*
X-11064534Y-18006443D01*
X-11234373Y-18057963D01*
X-11300557Y-18064481D01*
X-11366740Y-18071000D01*
X-11455260Y-18071000D01*
X-11521443Y-18064481D01*
X-11587627Y-18057963D01*
X-11757466Y-18006443D01*
X-11913991Y-17922778D01*
X-11949729Y-17893448D01*
X-12051186Y-17810186D01*
X-12134448Y-17708729D01*
X-12163778Y-17672991D01*
X-12247443Y-17516466D01*
X-12298963Y-17346627D01*
X-12316359Y-17170000D01*
X-12298963Y-16993373D01*
X-12247443Y-16823534D01*
X-12163778Y-16667009D01*
X-12134448Y-16631271D01*
X-12051186Y-16529814D01*
X-11949729Y-16446552D01*
X-11913991Y-16417222D01*
X-11757466Y-16333557D01*
X-11587627Y-16282037D01*
X-11521443Y-16275519D01*
X-11455260Y-16269000D01*
X-11366740Y-16269000D01*
X-11300557Y-16275519D01*
X-11300557Y-16275519D01*
G37*
G36*
X-8760557Y-16275519D02*
G01*
X-8694373Y-16282037D01*
X-8524534Y-16333557D01*
X-8368009Y-16417222D01*
X-8332271Y-16446552D01*
X-8230814Y-16529814D01*
X-8147552Y-16631271D01*
X-8118222Y-16667009D01*
X-8034557Y-16823534D01*
X-7983037Y-16993373D01*
X-7965641Y-17170000D01*
X-7983037Y-17346627D01*
X-8034557Y-17516466D01*
X-8118222Y-17672991D01*
X-8147552Y-17708729D01*
X-8230814Y-17810186D01*
X-8332271Y-17893448D01*
X-8368009Y-17922778D01*
X-8524534Y-18006443D01*
X-8694373Y-18057963D01*
X-8760557Y-18064481D01*
X-8826740Y-18071000D01*
X-8915260Y-18071000D01*
X-8981443Y-18064481D01*
X-9047627Y-18057963D01*
X-9217466Y-18006443D01*
X-9373991Y-17922778D01*
X-9409729Y-17893448D01*
X-9511186Y-17810186D01*
X-9594448Y-17708729D01*
X-9623778Y-17672991D01*
X-9707443Y-17516466D01*
X-9758963Y-17346627D01*
X-9776359Y-17170000D01*
X-9758963Y-16993373D01*
X-9707443Y-16823534D01*
X-9623778Y-16667009D01*
X-9594448Y-16631271D01*
X-9511186Y-16529814D01*
X-9409729Y-16446552D01*
X-9373991Y-16417222D01*
X-9217466Y-16333557D01*
X-9047627Y-16282037D01*
X-8981443Y-16275519D01*
X-8915260Y-16269000D01*
X-8826740Y-16269000D01*
X-8760557Y-16275519D01*
X-8760557Y-16275519D01*
G37*
G36*
X-6220557Y-16275519D02*
G01*
X-6154373Y-16282037D01*
X-5984534Y-16333557D01*
X-5828009Y-16417222D01*
X-5792271Y-16446552D01*
X-5690814Y-16529814D01*
X-5607552Y-16631271D01*
X-5578222Y-16667009D01*
X-5494557Y-16823534D01*
X-5443037Y-16993373D01*
X-5425641Y-17170000D01*
X-5443037Y-17346627D01*
X-5494557Y-17516466D01*
X-5578222Y-17672991D01*
X-5607552Y-17708729D01*
X-5690814Y-17810186D01*
X-5792271Y-17893448D01*
X-5828009Y-17922778D01*
X-5984534Y-18006443D01*
X-6154373Y-18057963D01*
X-6220557Y-18064481D01*
X-6286740Y-18071000D01*
X-6375260Y-18071000D01*
X-6441443Y-18064481D01*
X-6507627Y-18057963D01*
X-6677466Y-18006443D01*
X-6833991Y-17922778D01*
X-6869729Y-17893448D01*
X-6971186Y-17810186D01*
X-7054448Y-17708729D01*
X-7083778Y-17672991D01*
X-7167443Y-17516466D01*
X-7218963Y-17346627D01*
X-7236359Y-17170000D01*
X-7218963Y-16993373D01*
X-7167443Y-16823534D01*
X-7083778Y-16667009D01*
X-7054448Y-16631271D01*
X-6971186Y-16529814D01*
X-6869729Y-16446552D01*
X-6833991Y-16417222D01*
X-6677466Y-16333557D01*
X-6507627Y-16282037D01*
X-6441443Y-16275519D01*
X-6375260Y-16269000D01*
X-6286740Y-16269000D01*
X-6220557Y-16275519D01*
X-6220557Y-16275519D01*
G37*
G36*
X-3680557Y-16275519D02*
G01*
X-3614373Y-16282037D01*
X-3444534Y-16333557D01*
X-3288009Y-16417222D01*
X-3252271Y-16446552D01*
X-3150814Y-16529814D01*
X-3067552Y-16631271D01*
X-3038222Y-16667009D01*
X-2954557Y-16823534D01*
X-2903037Y-16993373D01*
X-2885641Y-17170000D01*
X-2903037Y-17346627D01*
X-2954557Y-17516466D01*
X-3038222Y-17672991D01*
X-3067552Y-17708729D01*
X-3150814Y-17810186D01*
X-3252271Y-17893448D01*
X-3288009Y-17922778D01*
X-3444534Y-18006443D01*
X-3614373Y-18057963D01*
X-3680557Y-18064481D01*
X-3746740Y-18071000D01*
X-3835260Y-18071000D01*
X-3901443Y-18064481D01*
X-3967627Y-18057963D01*
X-4137466Y-18006443D01*
X-4293991Y-17922778D01*
X-4329729Y-17893448D01*
X-4431186Y-17810186D01*
X-4514448Y-17708729D01*
X-4543778Y-17672991D01*
X-4627443Y-17516466D01*
X-4678963Y-17346627D01*
X-4696359Y-17170000D01*
X-4678963Y-16993373D01*
X-4627443Y-16823534D01*
X-4543778Y-16667009D01*
X-4514448Y-16631271D01*
X-4431186Y-16529814D01*
X-4329729Y-16446552D01*
X-4293991Y-16417222D01*
X-4137466Y-16333557D01*
X-3967627Y-16282037D01*
X-3901443Y-16275519D01*
X-3835260Y-16269000D01*
X-3746740Y-16269000D01*
X-3680557Y-16275519D01*
X-3680557Y-16275519D01*
G37*
G36*
X1399443Y-16275519D02*
G01*
X1465627Y-16282037D01*
X1635466Y-16333557D01*
X1791991Y-16417222D01*
X1827729Y-16446552D01*
X1929186Y-16529814D01*
X2012448Y-16631271D01*
X2041778Y-16667009D01*
X2125443Y-16823534D01*
X2176963Y-16993373D01*
X2194359Y-17170000D01*
X2176963Y-17346627D01*
X2125443Y-17516466D01*
X2041778Y-17672991D01*
X2012448Y-17708729D01*
X1929186Y-17810186D01*
X1827729Y-17893448D01*
X1791991Y-17922778D01*
X1635466Y-18006443D01*
X1465627Y-18057963D01*
X1399443Y-18064481D01*
X1333260Y-18071000D01*
X1244740Y-18071000D01*
X1178557Y-18064481D01*
X1112373Y-18057963D01*
X942534Y-18006443D01*
X786009Y-17922778D01*
X750271Y-17893448D01*
X648814Y-17810186D01*
X565552Y-17708729D01*
X536222Y-17672991D01*
X452557Y-17516466D01*
X401037Y-17346627D01*
X383641Y-17170000D01*
X401037Y-16993373D01*
X452557Y-16823534D01*
X536222Y-16667009D01*
X565552Y-16631271D01*
X648814Y-16529814D01*
X750271Y-16446552D01*
X786009Y-16417222D01*
X942534Y-16333557D01*
X1112373Y-16282037D01*
X1178557Y-16275519D01*
X1244740Y-16269000D01*
X1333260Y-16269000D01*
X1399443Y-16275519D01*
X1399443Y-16275519D01*
G37*
G36*
X3939443Y-16275519D02*
G01*
X4005627Y-16282037D01*
X4175466Y-16333557D01*
X4331991Y-16417222D01*
X4367729Y-16446552D01*
X4469186Y-16529814D01*
X4552448Y-16631271D01*
X4581778Y-16667009D01*
X4665443Y-16823534D01*
X4716963Y-16993373D01*
X4734359Y-17170000D01*
X4716963Y-17346627D01*
X4665443Y-17516466D01*
X4581778Y-17672991D01*
X4552448Y-17708729D01*
X4469186Y-17810186D01*
X4367729Y-17893448D01*
X4331991Y-17922778D01*
X4175466Y-18006443D01*
X4005627Y-18057963D01*
X3939443Y-18064481D01*
X3873260Y-18071000D01*
X3784740Y-18071000D01*
X3718557Y-18064481D01*
X3652373Y-18057963D01*
X3482534Y-18006443D01*
X3326009Y-17922778D01*
X3290271Y-17893448D01*
X3188814Y-17810186D01*
X3105552Y-17708729D01*
X3076222Y-17672991D01*
X2992557Y-17516466D01*
X2941037Y-17346627D01*
X2923641Y-17170000D01*
X2941037Y-16993373D01*
X2992557Y-16823534D01*
X3076222Y-16667009D01*
X3105552Y-16631271D01*
X3188814Y-16529814D01*
X3290271Y-16446552D01*
X3326009Y-16417222D01*
X3482534Y-16333557D01*
X3652373Y-16282037D01*
X3718557Y-16275519D01*
X3784740Y-16269000D01*
X3873260Y-16269000D01*
X3939443Y-16275519D01*
X3939443Y-16275519D01*
G37*
G36*
X6479443Y-16275519D02*
G01*
X6545627Y-16282037D01*
X6715466Y-16333557D01*
X6871991Y-16417222D01*
X6907729Y-16446552D01*
X7009186Y-16529814D01*
X7092448Y-16631271D01*
X7121778Y-16667009D01*
X7205443Y-16823534D01*
X7256963Y-16993373D01*
X7274359Y-17170000D01*
X7256963Y-17346627D01*
X7205443Y-17516466D01*
X7121778Y-17672991D01*
X7092448Y-17708729D01*
X7009186Y-17810186D01*
X6907729Y-17893448D01*
X6871991Y-17922778D01*
X6715466Y-18006443D01*
X6545627Y-18057963D01*
X6479443Y-18064481D01*
X6413260Y-18071000D01*
X6324740Y-18071000D01*
X6258557Y-18064481D01*
X6192373Y-18057963D01*
X6022534Y-18006443D01*
X5866009Y-17922778D01*
X5830271Y-17893448D01*
X5728814Y-17810186D01*
X5645552Y-17708729D01*
X5616222Y-17672991D01*
X5532557Y-17516466D01*
X5481037Y-17346627D01*
X5463641Y-17170000D01*
X5481037Y-16993373D01*
X5532557Y-16823534D01*
X5616222Y-16667009D01*
X5645552Y-16631271D01*
X5728814Y-16529814D01*
X5830271Y-16446552D01*
X5866009Y-16417222D01*
X6022534Y-16333557D01*
X6192373Y-16282037D01*
X6258557Y-16275519D01*
X6324740Y-16269000D01*
X6413260Y-16269000D01*
X6479443Y-16275519D01*
X6479443Y-16275519D01*
G37*
G36*
X9019443Y-16275519D02*
G01*
X9085627Y-16282037D01*
X9255466Y-16333557D01*
X9411991Y-16417222D01*
X9447729Y-16446552D01*
X9549186Y-16529814D01*
X9632448Y-16631271D01*
X9661778Y-16667009D01*
X9745443Y-16823534D01*
X9796963Y-16993373D01*
X9814359Y-17170000D01*
X9796963Y-17346627D01*
X9745443Y-17516466D01*
X9661778Y-17672991D01*
X9632448Y-17708729D01*
X9549186Y-17810186D01*
X9447729Y-17893448D01*
X9411991Y-17922778D01*
X9255466Y-18006443D01*
X9085627Y-18057963D01*
X9019443Y-18064481D01*
X8953260Y-18071000D01*
X8864740Y-18071000D01*
X8798557Y-18064481D01*
X8732373Y-18057963D01*
X8562534Y-18006443D01*
X8406009Y-17922778D01*
X8370271Y-17893448D01*
X8268814Y-17810186D01*
X8185552Y-17708729D01*
X8156222Y-17672991D01*
X8072557Y-17516466D01*
X8021037Y-17346627D01*
X8003641Y-17170000D01*
X8021037Y-16993373D01*
X8072557Y-16823534D01*
X8156222Y-16667009D01*
X8185552Y-16631271D01*
X8268814Y-16529814D01*
X8370271Y-16446552D01*
X8406009Y-16417222D01*
X8562534Y-16333557D01*
X8732373Y-16282037D01*
X8798557Y-16275519D01*
X8864740Y-16269000D01*
X8953260Y-16269000D01*
X9019443Y-16275519D01*
X9019443Y-16275519D01*
G37*
G36*
X11559443Y-16275519D02*
G01*
X11625627Y-16282037D01*
X11795466Y-16333557D01*
X11951991Y-16417222D01*
X11987729Y-16446552D01*
X12089186Y-16529814D01*
X12172448Y-16631271D01*
X12201778Y-16667009D01*
X12285443Y-16823534D01*
X12336963Y-16993373D01*
X12354359Y-17170000D01*
X12336963Y-17346627D01*
X12285443Y-17516466D01*
X12201778Y-17672991D01*
X12172448Y-17708729D01*
X12089186Y-17810186D01*
X11987729Y-17893448D01*
X11951991Y-17922778D01*
X11795466Y-18006443D01*
X11625627Y-18057963D01*
X11559443Y-18064481D01*
X11493260Y-18071000D01*
X11404740Y-18071000D01*
X11338557Y-18064481D01*
X11272373Y-18057963D01*
X11102534Y-18006443D01*
X10946009Y-17922778D01*
X10910271Y-17893448D01*
X10808814Y-17810186D01*
X10725552Y-17708729D01*
X10696222Y-17672991D01*
X10612557Y-17516466D01*
X10561037Y-17346627D01*
X10543641Y-17170000D01*
X10561037Y-16993373D01*
X10612557Y-16823534D01*
X10696222Y-16667009D01*
X10725552Y-16631271D01*
X10808814Y-16529814D01*
X10910271Y-16446552D01*
X10946009Y-16417222D01*
X11102534Y-16333557D01*
X11272373Y-16282037D01*
X11338557Y-16275519D01*
X11404740Y-16269000D01*
X11493260Y-16269000D01*
X11559443Y-16275519D01*
X11559443Y-16275519D01*
G37*
G36*
X14099443Y-16275519D02*
G01*
X14165627Y-16282037D01*
X14335466Y-16333557D01*
X14491991Y-16417222D01*
X14527729Y-16446552D01*
X14629186Y-16529814D01*
X14712448Y-16631271D01*
X14741778Y-16667009D01*
X14825443Y-16823534D01*
X14876963Y-16993373D01*
X14894359Y-17170000D01*
X14876963Y-17346627D01*
X14825443Y-17516466D01*
X14741778Y-17672991D01*
X14712448Y-17708729D01*
X14629186Y-17810186D01*
X14527729Y-17893448D01*
X14491991Y-17922778D01*
X14335466Y-18006443D01*
X14165627Y-18057963D01*
X14099443Y-18064481D01*
X14033260Y-18071000D01*
X13944740Y-18071000D01*
X13878557Y-18064481D01*
X13812373Y-18057963D01*
X13642534Y-18006443D01*
X13486009Y-17922778D01*
X13450271Y-17893448D01*
X13348814Y-17810186D01*
X13265552Y-17708729D01*
X13236222Y-17672991D01*
X13152557Y-17516466D01*
X13101037Y-17346627D01*
X13083641Y-17170000D01*
X13101037Y-16993373D01*
X13152557Y-16823534D01*
X13236222Y-16667009D01*
X13265552Y-16631271D01*
X13348814Y-16529814D01*
X13450271Y-16446552D01*
X13486009Y-16417222D01*
X13642534Y-16333557D01*
X13812373Y-16282037D01*
X13878557Y-16275519D01*
X13944740Y-16269000D01*
X14033260Y-16269000D01*
X14099443Y-16275519D01*
X14099443Y-16275519D01*
G37*
G36*
X16639443Y-16275519D02*
G01*
X16705627Y-16282037D01*
X16875466Y-16333557D01*
X17031991Y-16417222D01*
X17067729Y-16446552D01*
X17169186Y-16529814D01*
X17252448Y-16631271D01*
X17281778Y-16667009D01*
X17365443Y-16823534D01*
X17416963Y-16993373D01*
X17434359Y-17170000D01*
X17416963Y-17346627D01*
X17365443Y-17516466D01*
X17281778Y-17672991D01*
X17252448Y-17708729D01*
X17169186Y-17810186D01*
X17067729Y-17893448D01*
X17031991Y-17922778D01*
X16875466Y-18006443D01*
X16705627Y-18057963D01*
X16639443Y-18064481D01*
X16573260Y-18071000D01*
X16484740Y-18071000D01*
X16418557Y-18064481D01*
X16352373Y-18057963D01*
X16182534Y-18006443D01*
X16026009Y-17922778D01*
X15990271Y-17893448D01*
X15888814Y-17810186D01*
X15805552Y-17708729D01*
X15776222Y-17672991D01*
X15692557Y-17516466D01*
X15641037Y-17346627D01*
X15623641Y-17170000D01*
X15641037Y-16993373D01*
X15692557Y-16823534D01*
X15776222Y-16667009D01*
X15805552Y-16631271D01*
X15888814Y-16529814D01*
X15990271Y-16446552D01*
X16026009Y-16417222D01*
X16182534Y-16333557D01*
X16352373Y-16282037D01*
X16418557Y-16275519D01*
X16484740Y-16269000D01*
X16573260Y-16269000D01*
X16639443Y-16275519D01*
X16639443Y-16275519D01*
G37*
G36*
X-1140557Y-16275519D02*
G01*
X-1074373Y-16282037D01*
X-904534Y-16333557D01*
X-748009Y-16417222D01*
X-712271Y-16446552D01*
X-610814Y-16529814D01*
X-527552Y-16631271D01*
X-498222Y-16667009D01*
X-414557Y-16823534D01*
X-363037Y-16993373D01*
X-345641Y-17170000D01*
X-363037Y-17346627D01*
X-414557Y-17516466D01*
X-498222Y-17672991D01*
X-527552Y-17708729D01*
X-610814Y-17810186D01*
X-712271Y-17893448D01*
X-748009Y-17922778D01*
X-904534Y-18006443D01*
X-1074373Y-18057963D01*
X-1140557Y-18064481D01*
X-1206740Y-18071000D01*
X-1295260Y-18071000D01*
X-1361443Y-18064481D01*
X-1427627Y-18057963D01*
X-1597466Y-18006443D01*
X-1753991Y-17922778D01*
X-1789729Y-17893448D01*
X-1891186Y-17810186D01*
X-1974448Y-17708729D01*
X-2003778Y-17672991D01*
X-2087443Y-17516466D01*
X-2138963Y-17346627D01*
X-2156359Y-17170000D01*
X-2138963Y-16993373D01*
X-2087443Y-16823534D01*
X-2003778Y-16667009D01*
X-1974448Y-16631271D01*
X-1891186Y-16529814D01*
X-1789729Y-16446552D01*
X-1753991Y-16417222D01*
X-1597466Y-16333557D01*
X-1427627Y-16282037D01*
X-1361443Y-16275519D01*
X-1295260Y-16269000D01*
X-1206740Y-16269000D01*
X-1140557Y-16275519D01*
X-1140557Y-16275519D01*
G37*
G36*
X9135294Y-13708633D02*
G01*
X9307695Y-13760931D01*
X9466583Y-13845858D01*
X9605849Y-13960151D01*
X9720142Y-14099417D01*
X9805069Y-14258305D01*
X9857367Y-14430706D01*
X9875025Y-14610000D01*
X9857367Y-14789294D01*
X9805069Y-14961695D01*
X9720142Y-15120583D01*
X9605849Y-15259849D01*
X9466583Y-15374142D01*
X9307695Y-15459069D01*
X9135294Y-15511367D01*
X9000931Y-15524600D01*
X8911069Y-15524600D01*
X8776706Y-15511367D01*
X8604305Y-15459069D01*
X8445417Y-15374142D01*
X8306151Y-15259849D01*
X8191858Y-15120583D01*
X8106931Y-14961695D01*
X8054633Y-14789294D01*
X8036975Y-14610000D01*
X8054633Y-14430706D01*
X8106931Y-14258305D01*
X8191858Y-14099417D01*
X8306151Y-13960151D01*
X8445417Y-13845858D01*
X8604305Y-13760931D01*
X8776706Y-13708633D01*
X8911069Y-13695400D01*
X9000931Y-13695400D01*
X9135294Y-13708633D01*
X9135294Y-13708633D01*
G37*
G36*
X11675294Y-13708633D02*
G01*
X11847695Y-13760931D01*
X12006583Y-13845858D01*
X12145849Y-13960151D01*
X12260142Y-14099417D01*
X12345069Y-14258305D01*
X12397367Y-14430706D01*
X12415025Y-14610000D01*
X12397367Y-14789294D01*
X12345069Y-14961695D01*
X12260142Y-15120583D01*
X12145849Y-15259849D01*
X12006583Y-15374142D01*
X11847695Y-15459069D01*
X11675294Y-15511367D01*
X11540931Y-15524600D01*
X11451069Y-15524600D01*
X11316706Y-15511367D01*
X11144305Y-15459069D01*
X10985417Y-15374142D01*
X10846151Y-15259849D01*
X10731858Y-15120583D01*
X10646931Y-14961695D01*
X10594633Y-14789294D01*
X10576975Y-14610000D01*
X10594633Y-14430706D01*
X10646931Y-14258305D01*
X10731858Y-14099417D01*
X10846151Y-13960151D01*
X10985417Y-13845858D01*
X11144305Y-13760931D01*
X11316706Y-13708633D01*
X11451069Y-13695400D01*
X11540931Y-13695400D01*
X11675294Y-13708633D01*
X11675294Y-13708633D01*
G37*
G36*
X6595294Y-13708633D02*
G01*
X6767695Y-13760931D01*
X6926583Y-13845858D01*
X7065849Y-13960151D01*
X7180142Y-14099417D01*
X7265069Y-14258305D01*
X7317367Y-14430706D01*
X7335025Y-14610000D01*
X7317367Y-14789294D01*
X7265069Y-14961695D01*
X7180142Y-15120583D01*
X7065849Y-15259849D01*
X6926583Y-15374142D01*
X6767695Y-15459069D01*
X6595294Y-15511367D01*
X6460931Y-15524600D01*
X6371069Y-15524600D01*
X6236706Y-15511367D01*
X6064305Y-15459069D01*
X5905417Y-15374142D01*
X5766151Y-15259849D01*
X5651858Y-15120583D01*
X5566931Y-14961695D01*
X5514633Y-14789294D01*
X5496975Y-14610000D01*
X5514633Y-14430706D01*
X5566931Y-14258305D01*
X5651858Y-14099417D01*
X5766151Y-13960151D01*
X5905417Y-13845858D01*
X6064305Y-13760931D01*
X6236706Y-13708633D01*
X6371069Y-13695400D01*
X6460931Y-13695400D01*
X6595294Y-13708633D01*
X6595294Y-13708633D01*
G37*
G36*
X7330600Y-12984600D02*
G01*
X5501400Y-12984600D01*
X5501400Y-11155400D01*
X7330600Y-11155400D01*
X7330600Y-12984600D01*
X7330600Y-12984600D01*
G37*
G36*
X9135294Y-11168633D02*
G01*
X9307695Y-11220931D01*
X9466583Y-11305858D01*
X9605849Y-11420151D01*
X9720142Y-11559417D01*
X9805069Y-11718305D01*
X9857367Y-11890706D01*
X9875025Y-12070000D01*
X9857367Y-12249294D01*
X9805069Y-12421695D01*
X9720142Y-12580583D01*
X9605849Y-12719849D01*
X9466583Y-12834142D01*
X9307695Y-12919069D01*
X9135294Y-12971367D01*
X9000931Y-12984600D01*
X8911069Y-12984600D01*
X8776706Y-12971367D01*
X8604305Y-12919069D01*
X8445417Y-12834142D01*
X8306151Y-12719849D01*
X8191858Y-12580583D01*
X8106931Y-12421695D01*
X8054633Y-12249294D01*
X8036975Y-12070000D01*
X8054633Y-11890706D01*
X8106931Y-11718305D01*
X8191858Y-11559417D01*
X8306151Y-11420151D01*
X8445417Y-11305858D01*
X8604305Y-11220931D01*
X8776706Y-11168633D01*
X8911069Y-11155400D01*
X9000931Y-11155400D01*
X9135294Y-11168633D01*
X9135294Y-11168633D01*
G37*
G36*
X11675294Y-11168633D02*
G01*
X11847695Y-11220931D01*
X12006583Y-11305858D01*
X12145849Y-11420151D01*
X12260142Y-11559417D01*
X12345069Y-11718305D01*
X12397367Y-11890706D01*
X12415025Y-12070000D01*
X12397367Y-12249294D01*
X12345069Y-12421695D01*
X12260142Y-12580583D01*
X12145849Y-12719849D01*
X12006583Y-12834142D01*
X11847695Y-12919069D01*
X11675294Y-12971367D01*
X11540931Y-12984600D01*
X11451069Y-12984600D01*
X11316706Y-12971367D01*
X11144305Y-12919069D01*
X10985417Y-12834142D01*
X10846151Y-12719849D01*
X10731858Y-12580583D01*
X10646931Y-12421695D01*
X10594633Y-12249294D01*
X10576975Y-12070000D01*
X10594633Y-11890706D01*
X10646931Y-11718305D01*
X10731858Y-11559417D01*
X10846151Y-11420151D01*
X10985417Y-11305858D01*
X11144305Y-11220931D01*
X11316706Y-11168633D01*
X11451069Y-11155400D01*
X11540931Y-11155400D01*
X11675294Y-11168633D01*
X11675294Y-11168633D01*
G37*
M02*
