G04 #@! TF.GenerationSoftware,KiCad,Pcbnew,(5.1.2)-1*
G04 #@! TF.CreationDate,2019-07-09T23:17:51-04:00*
G04 #@! TF.ProjectId,SPIvSPI_SAO_White,53504976-5350-4495-9f53-414f5f576869,0*
G04 #@! TF.SameCoordinates,PX90f5600PY584f6c0*
G04 #@! TF.FileFunction,Copper,L1,Top*
G04 #@! TF.FilePolarity,Positive*
%FSLAX46Y46*%
G04 Gerber Fmt 4.6, Leading zero omitted, Abs format (unit mm)*
G04 Created by KiCad (PCBNEW (5.1.2)-1) date 2019-07-09 23:17:51*
%MOMM*%
%LPD*%
G04 APERTURE LIST*
%ADD10O,1.727200X1.727200*%
%ADD11R,1.727200X1.727200*%
%ADD12O,1.700000X1.700000*%
%ADD13R,1.700000X1.700000*%
%ADD14C,0.650000*%
%ADD15C,1.016000*%
%ADD16C,0.177800*%
%ADD17C,0.203200*%
G04 APERTURE END LIST*
D10*
X11496000Y-14610000D03*
X11496000Y-12070000D03*
X8956000Y-14610000D03*
X8956000Y-12070000D03*
X6416000Y-14610000D03*
D11*
X6416000Y-12070000D03*
D12*
X19069000Y-17170000D03*
X16529000Y-17170000D03*
X13989000Y-17170000D03*
X11449000Y-17170000D03*
X8909000Y-17170000D03*
X6369000Y-17170000D03*
X3829000Y-17170000D03*
X1289000Y-17170000D03*
X-1251000Y-17170000D03*
X-3791000Y-17170000D03*
X-6331000Y-17170000D03*
X-8871000Y-17170000D03*
X-11411000Y-17170000D03*
X-13951000Y-17170000D03*
X-16491000Y-17170000D03*
D13*
X-19031000Y-17170000D03*
D14*
X4616000Y-1670000D03*
X10950000Y16850000D03*
X350000Y-9300000D03*
X-500000Y-8450000D03*
X8816000Y3930000D03*
X16216000Y1430000D03*
X12916000Y-5470000D03*
X15782300Y2619681D03*
X13716002Y4030000D03*
X2616000Y-13070000D03*
X15783690Y-5470000D03*
X-2770006Y-9170000D03*
X6616000Y6333489D03*
X14500000Y2050000D03*
X-3384006Y-11120000D03*
X2616000Y-14320000D03*
X-3984000Y-10470000D03*
X1416000Y-13069986D03*
X1433273Y-14286388D03*
X-3384000Y-9820000D03*
X2016000Y-13720004D03*
X-18684004Y-7870000D03*
D15*
X6416000Y-12070000D02*
X3120000Y-12070000D01*
X3120000Y-12070000D02*
X350000Y-9300000D01*
X350000Y-9300000D02*
X-500000Y-8450000D01*
D16*
X15756381Y1430000D02*
X16216000Y1430000D01*
X12020000Y1430000D02*
X15756381Y1430000D01*
X8816000Y3930000D02*
X9520000Y3930000D01*
X9520000Y3930000D02*
X12020000Y1430000D01*
X13716002Y3383998D02*
X13716002Y4030000D01*
X15782300Y2619681D02*
X14480319Y2619681D01*
X14480319Y2619681D02*
X13716002Y3383998D01*
X12916000Y-5470000D02*
X15783690Y-5470000D01*
X-2310387Y-9170000D02*
X-2770006Y-9170000D01*
X-980000Y-9170000D02*
X-2310387Y-9170000D01*
X2616000Y-13070000D02*
X2616000Y-12766000D01*
X2616000Y-12766000D02*
X-980000Y-9170000D01*
X12950000Y2050000D02*
X14500000Y2050000D01*
X11900000Y2050000D02*
X12950000Y2050000D01*
X6616000Y6333489D02*
X7616511Y6333489D01*
X7616511Y6333489D02*
X11900000Y2050000D01*
X-3384006Y-11120000D02*
X-530000Y-11120000D01*
X-530000Y-11120000D02*
X800000Y-12450000D01*
X800000Y-12450000D02*
X800000Y-14500000D01*
X800000Y-14500000D02*
X1200000Y-14900000D01*
X2291001Y-14644999D02*
X2616000Y-14320000D01*
X1200000Y-14900000D02*
X2036000Y-14900000D01*
X2036000Y-14900000D02*
X2291001Y-14644999D01*
X1416000Y-12570000D02*
X1416000Y-13069986D01*
X-3984000Y-10470000D02*
X-684000Y-10470000D01*
X-684000Y-10470000D02*
X1416000Y-12570000D01*
X1416000Y-14269115D02*
X1433273Y-14286388D01*
X1416000Y-13069986D02*
X1416000Y-14269115D01*
X2016000Y-12670000D02*
X2016000Y-13720004D01*
X-3384000Y-9820000D02*
X-834000Y-9820000D01*
X-834000Y-9820000D02*
X2016000Y-12670000D01*
X-18684004Y-12469996D02*
X-18684004Y-7870000D01*
X-16084000Y-15070000D02*
X-18684004Y-12469996D01*
X-10984000Y-15070000D02*
X-16084000Y-15070000D01*
X-8871000Y-17170000D02*
X-8884000Y-17170000D01*
X-8884000Y-17170000D02*
X-10984000Y-15070000D01*
D17*
G36*
X13581756Y27234272D02*
G01*
X13887109Y27162424D01*
X14083092Y27092071D01*
X14122714Y27075056D01*
X14184162Y27046849D01*
X14243305Y27018035D01*
X14302465Y26987612D01*
X14361679Y26955586D01*
X14368229Y26951873D01*
X14686085Y26727929D01*
X15094724Y26418958D01*
X15119528Y26405172D01*
X15232555Y26361700D01*
X15241004Y26358166D01*
X15252735Y26351372D01*
X15257905Y26349061D01*
X15329634Y26317609D01*
X15342686Y26313349D01*
X15355092Y26307457D01*
X15360433Y26305575D01*
X15435238Y26279811D01*
X15448830Y26276572D01*
X15461896Y26271644D01*
X15467374Y26270210D01*
X15476388Y26267918D01*
X15509528Y26255172D01*
X15530780Y26249547D01*
X15648776Y26231669D01*
X15668806Y26228378D01*
X15671772Y26228185D01*
X15860780Y26199547D01*
X15889428Y26199291D01*
X16339428Y26259291D01*
X16352179Y26261831D01*
X16445578Y26286738D01*
X16689766Y26042550D01*
X16863336Y25820380D01*
X16889911Y25782845D01*
X16934784Y25717876D01*
X16974012Y25659670D01*
X17012896Y25600636D01*
X17055839Y25533864D01*
X17093319Y25474189D01*
X17129412Y25415455D01*
X17169248Y25349155D01*
X17208166Y25282838D01*
X17242920Y25222289D01*
X17277650Y25160499D01*
X17311704Y25098620D01*
X17347023Y25033064D01*
X17380324Y24969923D01*
X17412795Y24907070D01*
X17448249Y24836948D01*
X17481105Y24770531D01*
X17513108Y24704461D01*
X17544314Y24638680D01*
X17577563Y24567068D01*
X17608708Y24498512D01*
X17639573Y24429106D01*
X17669633Y24360050D01*
X17698724Y24291794D01*
X17728375Y24220717D01*
X17757996Y24148128D01*
X17787480Y24074236D01*
X17814698Y24004491D01*
X17841319Y23934794D01*
X17868169Y23862929D01*
X17893905Y23792493D01*
X17920077Y23719223D01*
X17945062Y23647633D01*
X17970431Y23573198D01*
X17994978Y23499399D01*
X18018659Y23426414D01*
X18042051Y23352473D01*
X18065265Y23277125D01*
X18087485Y23202997D01*
X18109198Y23128455D01*
X18131732Y23048647D01*
X18152519Y22972498D01*
X18172704Y22895838D01*
X18192640Y22816921D01*
X18210777Y22741471D01*
X18211320Y22739044D01*
X18175363Y22673227D01*
X18175326Y22673140D01*
X18174378Y22671413D01*
X18137870Y22603772D01*
X18137838Y22603696D01*
X18136902Y22601970D01*
X18100017Y22532799D01*
X18099982Y22532713D01*
X18099108Y22531084D01*
X18064554Y22465531D01*
X18064519Y22465445D01*
X18063711Y22463922D01*
X18029315Y22397954D01*
X18029284Y22397876D01*
X18028500Y22396383D01*
X17994268Y22330025D01*
X17994236Y22329945D01*
X17993479Y22328487D01*
X17959418Y22261764D01*
X17959388Y22261688D01*
X17958664Y22260280D01*
X17924245Y22192167D01*
X17924214Y22192088D01*
X17923491Y22190667D01*
X17888205Y22120114D01*
X17888176Y22120039D01*
X17887485Y22118667D01*
X17853967Y22050976D01*
X17853938Y22050899D01*
X17853276Y22049573D01*
X17818386Y21978424D01*
X17818357Y21978347D01*
X17817708Y21977034D01*
X17784063Y21907756D01*
X17784037Y21907687D01*
X17783413Y21906412D01*
X17748429Y21833697D01*
X17748402Y21833623D01*
X17747752Y21832283D01*
X17710452Y21753981D01*
X17710426Y21753908D01*
X17709816Y21752639D01*
X17675816Y21680586D01*
X17675793Y21680521D01*
X17675223Y21679325D01*
X17641959Y21608200D01*
X17641935Y21608131D01*
X17641407Y21607014D01*
X17609369Y21537932D01*
X17609343Y21537857D01*
X17608804Y21536706D01*
X17596108Y21509090D01*
X17564650Y21444473D01*
X17560709Y21435245D01*
X17554082Y21417328D01*
X17540918Y21388448D01*
X17540895Y21388381D01*
X17540420Y21387350D01*
X17509089Y21318070D01*
X17509070Y21318015D01*
X17508609Y21317006D01*
X17477512Y21247713D01*
X17477491Y21247651D01*
X17477039Y21246655D01*
X17446184Y21177372D01*
X17446163Y21177309D01*
X17445718Y21176321D01*
X17412247Y21100587D01*
X17412227Y21100525D01*
X17411772Y21099508D01*
X17380490Y21028167D01*
X17380471Y21028108D01*
X17380058Y21027178D01*
X17349044Y20955933D01*
X17349025Y20955873D01*
X17348606Y20954923D01*
X17316942Y20881642D01*
X17316923Y20881584D01*
X17316498Y20880611D01*
X17282378Y20801042D01*
X17282359Y20800982D01*
X17281935Y20800005D01*
X17249083Y20722801D01*
X17249064Y20722742D01*
X17248679Y20721847D01*
X17218868Y20651290D01*
X17218852Y20651239D01*
X17218479Y20650367D01*
X17188078Y20577915D01*
X17188063Y20577865D01*
X17187707Y20577029D01*
X17157624Y20504855D01*
X17157606Y20504796D01*
X17157247Y20503946D01*
X17126620Y20429965D01*
X17126603Y20429909D01*
X17126231Y20429022D01*
X17091660Y20344912D01*
X17091645Y20344861D01*
X17091274Y20343971D01*
X17060559Y20268707D01*
X17060542Y20268650D01*
X17060200Y20267823D01*
X17029873Y20193007D01*
X17029857Y20192952D01*
X17029510Y20192108D01*
X16996273Y20109547D01*
X16996257Y20109491D01*
X16995918Y20108661D01*
X16966427Y20034906D01*
X16966412Y20034855D01*
X16966106Y20034100D01*
X16937019Y19960902D01*
X16937005Y19960854D01*
X16936700Y19960097D01*
X16908027Y19887489D01*
X16908014Y19887442D01*
X16907715Y19886697D01*
X16879463Y19814713D01*
X16879448Y19814661D01*
X16879150Y19813912D01*
X16848257Y19734707D01*
X16848243Y19734658D01*
X16847933Y19733874D01*
X16817575Y19655529D01*
X16817560Y19655477D01*
X16817261Y19654715D01*
X16787445Y19577279D01*
X16787431Y19577230D01*
X16787140Y19576484D01*
X16757878Y19500006D01*
X16757863Y19499953D01*
X16757580Y19499223D01*
X16728880Y19423747D01*
X16728869Y19423707D01*
X16728593Y19422992D01*
X16700463Y19348569D01*
X16700450Y19348520D01*
X16700183Y19347825D01*
X16672632Y19274500D01*
X16672620Y19274454D01*
X16672348Y19273742D01*
X16642721Y19194411D01*
X16642709Y19194368D01*
X16642429Y19193628D01*
X16614178Y19117501D01*
X16614167Y19117459D01*
X16613896Y19116740D01*
X16585715Y19040336D01*
X16585702Y19040286D01*
X16585439Y19039584D01*
X16557390Y18963074D01*
X16557378Y18963027D01*
X16557109Y18962305D01*
X16528066Y18882585D01*
X16528053Y18882536D01*
X16527780Y18881797D01*
X16499659Y18804109D01*
X16499648Y18804064D01*
X16499388Y18803358D01*
X16476878Y18740788D01*
X16442469Y18659680D01*
X16435676Y18636052D01*
X16432141Y18613956D01*
X16432010Y18613570D01*
X16429991Y18604895D01*
X16426686Y18596631D01*
X16425144Y18591181D01*
X16403105Y18511148D01*
X16400616Y18496730D01*
X16396369Y18482725D01*
X16395301Y18477164D01*
X16379211Y18390087D01*
X16377881Y18374479D01*
X16374719Y18359140D01*
X16374161Y18353504D01*
X16365687Y18261289D01*
X16365790Y18244461D01*
X16364001Y18227730D01*
X16363990Y18222067D01*
X16364161Y18189085D01*
X16355676Y18136052D01*
X16355147Y18107701D01*
X16405147Y17697701D01*
X16409484Y17678262D01*
X16421016Y17654321D01*
X16611016Y17364321D01*
X16622135Y17350239D01*
X16962135Y16990239D01*
X16973411Y16979968D01*
X17751684Y16371318D01*
X18637481Y15614908D01*
X19423959Y14848341D01*
X20240742Y14001675D01*
X20702821Y13460705D01*
X20721992Y13437149D01*
X20775125Y13371322D01*
X20819370Y13316055D01*
X20867472Y13255494D01*
X20915604Y13194392D01*
X20959801Y13137834D01*
X21007462Y13076356D01*
X21051110Y13019603D01*
X21098296Y12957753D01*
X21144887Y12896169D01*
X21188042Y12838667D01*
X21230882Y12781140D01*
X21277757Y12717674D01*
X21322774Y12656217D01*
X21365799Y12596994D01*
X21410265Y12535285D01*
X21452008Y12476886D01*
X21493466Y12418431D01*
X21535069Y12359305D01*
X21576067Y12300576D01*
X21623361Y12232247D01*
X21664131Y12172840D01*
X21707644Y12108910D01*
X21730747Y12074686D01*
X22248272Y11188753D01*
X22250880Y11184528D01*
X22650886Y10570726D01*
X22683509Y10511632D01*
X22718688Y10447340D01*
X22756489Y10377655D01*
X22793226Y10309335D01*
X22828449Y10243262D01*
X22864853Y10174382D01*
X22899083Y10109055D01*
X22933710Y10042414D01*
X22975394Y9961443D01*
X23008938Y9895666D01*
X23044976Y9824391D01*
X23078148Y9758208D01*
X23113210Y9687650D01*
X23146761Y9619542D01*
X23180046Y9551392D01*
X23214481Y9480269D01*
X23246838Y9412860D01*
X23278991Y9345311D01*
X23316529Y9265722D01*
X23350233Y9193583D01*
X23386571Y9115082D01*
X23417964Y9046643D01*
X23451128Y8973711D01*
X23482169Y8904849D01*
X23513791Y8834099D01*
X23544575Y8764630D01*
X23575044Y8695288D01*
X23608480Y8618512D01*
X23638086Y8549928D01*
X23668744Y8478301D01*
X23700488Y8403481D01*
X23707157Y8387623D01*
X23726880Y8323074D01*
X23023733Y8604333D01*
X23020484Y8605569D01*
X22050484Y8955569D01*
X22046433Y8956935D01*
X21186519Y9226908D01*
X20746805Y9366817D01*
X20727325Y9370967D01*
X20708004Y9371285D01*
X20328004Y9341285D01*
X20303113Y9336130D01*
X19923113Y9206130D01*
X19904991Y9197867D01*
X19884158Y9181842D01*
X19564158Y8861842D01*
X19548137Y8841017D01*
X19368137Y8531017D01*
X19359873Y8512896D01*
X19356461Y8500360D01*
X19266461Y8060360D01*
X19264401Y8040550D01*
X19264958Y8029364D01*
X19304958Y7649364D01*
X19311093Y7623735D01*
X19331167Y7571201D01*
X19332403Y7563805D01*
X19333915Y7558348D01*
X19356270Y7479798D01*
X19360897Y7468042D01*
X19363922Y7455773D01*
X19365845Y7450446D01*
X19392934Y7377012D01*
X19394885Y7372985D01*
X19396111Y7368683D01*
X19398224Y7363428D01*
X19399136Y7361206D01*
X19430851Y7283554D01*
X19464081Y7201339D01*
X19497016Y7118971D01*
X19525278Y7047577D01*
X19558601Y6962522D01*
X19587277Y6888556D01*
X19615763Y6814361D01*
X19643055Y6742584D01*
X19682478Y6637687D01*
X19710186Y6563081D01*
X19737790Y6488018D01*
X19770988Y6396741D01*
X19804933Y6302250D01*
X19832549Y6224491D01*
X19859199Y6148678D01*
X19887260Y6068009D01*
X19916764Y5982257D01*
X19942731Y5905954D01*
X19968506Y5829432D01*
X19994075Y5752747D01*
X20026681Y5653789D01*
X20052505Y5574473D01*
X20077444Y5497052D01*
X20102198Y5419405D01*
X20135912Y5312316D01*
X20167728Y5209812D01*
X20191819Y5131238D01*
X20215644Y5052693D01*
X20239119Y4974475D01*
X20269896Y4870637D01*
X20293132Y4791256D01*
X20316073Y4712023D01*
X20338934Y4632197D01*
X20361428Y4552787D01*
X20383821Y4472864D01*
X20408858Y4382440D01*
X20430851Y4302072D01*
X20452661Y4221467D01*
X20474319Y4140524D01*
X20495724Y4059615D01*
X20516902Y3978660D01*
X20538101Y3896689D01*
X20558228Y3817986D01*
X20578982Y3735901D01*
X20598838Y3656472D01*
X20625440Y3548634D01*
X20648071Y3455576D01*
X20670448Y3362343D01*
X20690048Y3279647D01*
X20711987Y3185899D01*
X20733625Y3092189D01*
X20759814Y2977056D01*
X20780959Y2882667D01*
X20799637Y2798218D01*
X20818040Y2713974D01*
X20838056Y2621157D01*
X20857708Y2528788D01*
X20894464Y2352587D01*
X20912975Y2262080D01*
X20930368Y2175915D01*
X20947390Y2090507D01*
X20965450Y1998675D01*
X20985881Y1893242D01*
X21008574Y1774138D01*
X21025456Y1684129D01*
X21043538Y1586325D01*
X21059443Y1499073D01*
X21076224Y1405734D01*
X21092780Y1312309D01*
X21108238Y1223854D01*
X21122859Y1139054D01*
X21151509Y969543D01*
X21169952Y858002D01*
X21184429Y769038D01*
X21198702Y680087D01*
X21212966Y589898D01*
X21226979Y500021D01*
X21240829Y409889D01*
X21254526Y319448D01*
X21267973Y229327D01*
X21280968Y140968D01*
X21294190Y49722D01*
X21307175Y-41249D01*
X21322067Y-147306D01*
X21336301Y-250463D01*
X21350337Y-353974D01*
X21362689Y-446583D01*
X21374723Y-538235D01*
X21374723Y-538237D01*
X21386790Y-631638D01*
X21398156Y-720990D01*
X21409918Y-814959D01*
X21421728Y-910871D01*
X21434068Y-1012857D01*
X21446709Y-1119280D01*
X21458623Y-1221466D01*
X21471157Y-1331048D01*
X21483115Y-1437668D01*
X21500338Y-1594987D01*
X21513050Y-1714106D01*
X21522740Y-1806735D01*
X21532909Y-1905704D01*
X21542245Y-1998238D01*
X21552079Y-2097549D01*
X21562099Y-2200720D01*
X21570692Y-2290895D01*
X21579825Y-2388519D01*
X21588141Y-2479088D01*
X21596410Y-2570834D01*
X21604497Y-2662212D01*
X21612500Y-2754350D01*
X21620815Y-2851991D01*
X21628554Y-2944693D01*
X21636083Y-3036642D01*
X21636084Y-3036662D01*
X21643571Y-3129892D01*
X21650831Y-3222151D01*
X21658036Y-3315601D01*
X21665057Y-3408504D01*
X21672005Y-3502384D01*
X21678813Y-3596318D01*
X21685431Y-3689611D01*
X21691964Y-3783719D01*
X21698793Y-3884349D01*
X21698795Y-3884387D01*
X21705108Y-3979554D01*
X21711214Y-4073722D01*
X21717232Y-4168738D01*
X21723164Y-4264534D01*
X21728923Y-4359820D01*
X21734541Y-4454993D01*
X21734541Y-4455000D01*
X21740242Y-4554051D01*
X21745989Y-4656541D01*
X21751627Y-4759882D01*
X21757252Y-4865893D01*
X21762225Y-4962294D01*
X21762225Y-4962299D01*
X21767122Y-5059767D01*
X21772022Y-5160129D01*
X21776931Y-5263621D01*
X21776933Y-5263668D01*
X21781897Y-5371712D01*
X21786239Y-5469072D01*
X21790482Y-5567197D01*
X21794739Y-5668780D01*
X21799655Y-5790386D01*
X21804670Y-5919611D01*
X21809072Y-6037892D01*
X21814265Y-6184070D01*
X21818199Y-6300176D01*
X21823038Y-6450282D01*
X21826620Y-6567386D01*
X21826620Y-6567405D01*
X21829469Y-6664617D01*
X21832397Y-6768802D01*
X21835025Y-6866435D01*
X21835025Y-6866448D01*
X21837730Y-6971568D01*
X21840206Y-7072522D01*
X21840206Y-7072550D01*
X21842659Y-7177653D01*
X21844993Y-7283009D01*
X21847077Y-7382217D01*
X21849035Y-7480720D01*
X21851088Y-7590156D01*
X21853198Y-7710666D01*
X21855828Y-7875233D01*
X21857764Y-8009809D01*
X21857764Y-8009821D01*
X21859394Y-8134901D01*
X21859395Y-8134907D01*
X21860583Y-8234985D01*
X21861783Y-8346203D01*
X21861783Y-8346217D01*
X21862828Y-8454229D01*
X21863734Y-8559402D01*
X21864529Y-8663968D01*
X21865219Y-8769144D01*
X21865219Y-8769173D01*
X21865821Y-8878126D01*
X21866324Y-8990853D01*
X21866324Y-8990863D01*
X21866710Y-9104292D01*
X21867015Y-9241894D01*
X21867143Y-9373232D01*
X21867105Y-9515699D01*
X21867105Y-9515713D01*
X21866969Y-9616002D01*
X21866743Y-9715771D01*
X21866429Y-9816096D01*
X21866429Y-9816108D01*
X21866026Y-9916997D01*
X21865536Y-10017386D01*
X21864958Y-10118322D01*
X21864958Y-10118326D01*
X21864290Y-10219459D01*
X21864290Y-10219485D01*
X21863538Y-10320843D01*
X21862699Y-10422400D01*
X21861772Y-10524152D01*
X21861772Y-10524162D01*
X21860759Y-10626095D01*
X21860758Y-10626133D01*
X21859659Y-10728315D01*
X21858475Y-10830696D01*
X21857205Y-10933289D01*
X21855847Y-11036409D01*
X21854413Y-11139063D01*
X21854412Y-11139099D01*
X21852892Y-11242299D01*
X21851285Y-11345724D01*
X21849596Y-11449337D01*
X21849596Y-11449350D01*
X21847824Y-11553163D01*
X21847823Y-11553189D01*
X21845969Y-11657227D01*
X21844027Y-11761676D01*
X21842013Y-11865954D01*
X21839914Y-11970609D01*
X21839914Y-11970621D01*
X21837733Y-12075485D01*
X21837732Y-12075503D01*
X21835470Y-12180565D01*
X21835469Y-12180596D01*
X21833120Y-12286187D01*
X21830705Y-12391408D01*
X21828204Y-12497043D01*
X21828201Y-12497133D01*
X21825619Y-12603064D01*
X21822950Y-12709489D01*
X21822951Y-12709498D01*
X21820218Y-12815577D01*
X21817404Y-12922050D01*
X21817401Y-12922131D01*
X21814502Y-13028925D01*
X21811530Y-13135913D01*
X21808479Y-13243121D01*
X21805352Y-13350510D01*
X21805351Y-13350543D01*
X21802147Y-13458174D01*
X21798868Y-13565941D01*
X21798865Y-13566027D01*
X21795502Y-13674348D01*
X21795502Y-13674353D01*
X21792078Y-13782345D01*
X21792078Y-13782356D01*
X21788562Y-13891097D01*
X21784993Y-13999477D01*
X21784990Y-13999550D01*
X21781325Y-14108718D01*
X21781325Y-14108725D01*
X21777605Y-14217578D01*
X21777604Y-14217613D01*
X21773803Y-14326922D01*
X21773801Y-14326966D01*
X21770195Y-14428923D01*
X21770196Y-14428931D01*
X21766542Y-14530599D01*
X21766542Y-14530610D01*
X21762533Y-14640491D01*
X21762530Y-14640570D01*
X21758445Y-14750713D01*
X21758443Y-14750763D01*
X21754278Y-14861396D01*
X21750364Y-14963860D01*
X21745758Y-15082622D01*
X21741390Y-15193640D01*
X21741389Y-15193667D01*
X21736950Y-15304873D01*
X21736946Y-15304949D01*
X21732427Y-15416661D01*
X21727854Y-15528146D01*
X21727853Y-15528157D01*
X21723874Y-15624008D01*
X21723871Y-15624076D01*
X21719829Y-15720348D01*
X21715756Y-15816356D01*
X21715753Y-15816423D01*
X21711622Y-15912811D01*
X21711621Y-15912824D01*
X21707437Y-16009388D01*
X21702840Y-16114382D01*
X21702840Y-16114389D01*
X21697486Y-16235243D01*
X21697480Y-16235350D01*
X21692766Y-16340572D01*
X21688357Y-16438033D01*
X21688357Y-16438040D01*
X21683914Y-16535297D01*
X21679417Y-16632817D01*
X21679413Y-16632892D01*
X21673720Y-16755125D01*
X21673719Y-16755148D01*
X21668715Y-16861477D01*
X21668715Y-16861483D01*
X21663673Y-16967639D01*
X21658959Y-17065940D01*
X21658957Y-17065979D01*
X21654203Y-17164358D01*
X21654197Y-17164464D01*
X21648584Y-17279592D01*
X21643318Y-17386635D01*
X21643315Y-17386689D01*
X21637983Y-17494148D01*
X21637983Y-17494155D01*
X21632197Y-17609692D01*
X21632195Y-17609733D01*
X21626758Y-17717405D01*
X21626758Y-17717410D01*
X21620416Y-17841927D01*
X21615292Y-17941709D01*
X21609695Y-18049897D01*
X21609690Y-18049989D01*
X21604033Y-18158481D01*
X21598766Y-18258788D01*
X21593457Y-18359203D01*
X21593453Y-18359264D01*
X21592476Y-18377618D01*
X-20657187Y-18379317D01*
X-20703150Y-17951585D01*
X-20878475Y-16320000D01*
X-20238320Y-16320000D01*
X-20238320Y-18020000D01*
X-20231454Y-18089710D01*
X-20211121Y-18156740D01*
X-20178101Y-18218516D01*
X-20133663Y-18272663D01*
X-20079516Y-18317101D01*
X-20017740Y-18350121D01*
X-19950710Y-18370454D01*
X-19881000Y-18377320D01*
X-18181000Y-18377320D01*
X-18111290Y-18370454D01*
X-18044260Y-18350121D01*
X-17982484Y-18317101D01*
X-17928337Y-18272663D01*
X-17883899Y-18218516D01*
X-17850879Y-18156740D01*
X-17830546Y-18089710D01*
X-17823680Y-18020000D01*
X-17823680Y-17507609D01*
X-17648371Y-17507609D01*
X-17560268Y-17726914D01*
X-17431074Y-17924817D01*
X-17265753Y-18093713D01*
X-17070659Y-18227111D01*
X-16853289Y-18319885D01*
X-16828608Y-18327365D01*
X-16643400Y-18276252D01*
X-16643400Y-17322400D01*
X-16338600Y-17322400D01*
X-16338600Y-18276252D01*
X-16153392Y-18327365D01*
X-16128711Y-18319885D01*
X-15911341Y-18227111D01*
X-15716247Y-18093713D01*
X-15550926Y-17924817D01*
X-15421732Y-17726914D01*
X-15333629Y-17507609D01*
X-15383964Y-17322400D01*
X-16338600Y-17322400D01*
X-16643400Y-17322400D01*
X-17598036Y-17322400D01*
X-17648371Y-17507609D01*
X-17823680Y-17507609D01*
X-17823680Y-17170000D01*
X-15162433Y-17170000D01*
X-15139156Y-17406339D01*
X-15070218Y-17633595D01*
X-14958270Y-17843036D01*
X-14807612Y-18026612D01*
X-14624036Y-18177270D01*
X-14414595Y-18289218D01*
X-14187339Y-18358156D01*
X-14010224Y-18375600D01*
X-13891776Y-18375600D01*
X-13714661Y-18358156D01*
X-13487405Y-18289218D01*
X-13277964Y-18177270D01*
X-13094388Y-18026612D01*
X-12943730Y-17843036D01*
X-12831782Y-17633595D01*
X-12762844Y-17406339D01*
X-12739567Y-17170000D01*
X-12622433Y-17170000D01*
X-12599156Y-17406339D01*
X-12530218Y-17633595D01*
X-12418270Y-17843036D01*
X-12267612Y-18026612D01*
X-12084036Y-18177270D01*
X-11874595Y-18289218D01*
X-11647339Y-18358156D01*
X-11470224Y-18375600D01*
X-11351776Y-18375600D01*
X-11174661Y-18358156D01*
X-10947405Y-18289218D01*
X-10737964Y-18177270D01*
X-10554388Y-18026612D01*
X-10403730Y-17843036D01*
X-10291782Y-17633595D01*
X-10222844Y-17406339D01*
X-10199567Y-17170000D01*
X-10222844Y-16933661D01*
X-10291782Y-16706405D01*
X-10403730Y-16496964D01*
X-10554388Y-16313388D01*
X-10737964Y-16162730D01*
X-10947405Y-16050782D01*
X-11174661Y-15981844D01*
X-11351776Y-15964400D01*
X-11470224Y-15964400D01*
X-11647339Y-15981844D01*
X-11874595Y-16050782D01*
X-12084036Y-16162730D01*
X-12267612Y-16313388D01*
X-12418270Y-16496964D01*
X-12530218Y-16706405D01*
X-12599156Y-16933661D01*
X-12622433Y-17170000D01*
X-12739567Y-17170000D01*
X-12762844Y-16933661D01*
X-12831782Y-16706405D01*
X-12943730Y-16496964D01*
X-13094388Y-16313388D01*
X-13277964Y-16162730D01*
X-13487405Y-16050782D01*
X-13714661Y-15981844D01*
X-13891776Y-15964400D01*
X-14010224Y-15964400D01*
X-14187339Y-15981844D01*
X-14414595Y-16050782D01*
X-14624036Y-16162730D01*
X-14807612Y-16313388D01*
X-14958270Y-16496964D01*
X-15070218Y-16706405D01*
X-15139156Y-16933661D01*
X-15162433Y-17170000D01*
X-17823680Y-17170000D01*
X-17823680Y-16832391D01*
X-17648371Y-16832391D01*
X-17598036Y-17017600D01*
X-16643400Y-17017600D01*
X-16643400Y-16063748D01*
X-16338600Y-16063748D01*
X-16338600Y-17017600D01*
X-15383964Y-17017600D01*
X-15333629Y-16832391D01*
X-15421732Y-16613086D01*
X-15550926Y-16415183D01*
X-15716247Y-16246287D01*
X-15911341Y-16112889D01*
X-16128711Y-16020115D01*
X-16153392Y-16012635D01*
X-16338600Y-16063748D01*
X-16643400Y-16063748D01*
X-16828608Y-16012635D01*
X-16853289Y-16020115D01*
X-17070659Y-16112889D01*
X-17265753Y-16246287D01*
X-17431074Y-16415183D01*
X-17560268Y-16613086D01*
X-17648371Y-16832391D01*
X-17823680Y-16832391D01*
X-17823680Y-16320000D01*
X-17830546Y-16250290D01*
X-17850879Y-16183260D01*
X-17883899Y-16121484D01*
X-17928337Y-16067337D01*
X-17982484Y-16022899D01*
X-18044260Y-15989879D01*
X-18111290Y-15969546D01*
X-18181000Y-15962680D01*
X-19881000Y-15962680D01*
X-19950710Y-15969546D01*
X-20017740Y-15989879D01*
X-20079516Y-16022899D01*
X-20133663Y-16067337D01*
X-20178101Y-16121484D01*
X-20211121Y-16183260D01*
X-20231454Y-16250290D01*
X-20238320Y-16320000D01*
X-20878475Y-16320000D01*
X-21467182Y-10841482D01*
X-21793691Y-7802967D01*
X-19364604Y-7802967D01*
X-19364604Y-7937033D01*
X-19338449Y-8068524D01*
X-19287144Y-8192385D01*
X-19212660Y-8303857D01*
X-19128503Y-8388014D01*
X-19128504Y-12448176D01*
X-19130653Y-12469996D01*
X-19128504Y-12491816D01*
X-19128504Y-12491825D01*
X-19122072Y-12557132D01*
X-19097099Y-12639456D01*
X-19096655Y-12640921D01*
X-19055380Y-12718141D01*
X-19022168Y-12758610D01*
X-18999833Y-12785825D01*
X-18982874Y-12799743D01*
X-16413742Y-15368876D01*
X-16399829Y-15385829D01*
X-16382876Y-15399742D01*
X-16382873Y-15399745D01*
X-16332146Y-15441376D01*
X-16254926Y-15482651D01*
X-16171137Y-15508068D01*
X-16105830Y-15514500D01*
X-16105820Y-15514500D01*
X-16084000Y-15516649D01*
X-16062180Y-15514500D01*
X-11168117Y-15514500D01*
X-9985340Y-16697278D01*
X-9990218Y-16706405D01*
X-10059156Y-16933661D01*
X-10082433Y-17170000D01*
X-10059156Y-17406339D01*
X-9990218Y-17633595D01*
X-9878270Y-17843036D01*
X-9727612Y-18026612D01*
X-9544036Y-18177270D01*
X-9334595Y-18289218D01*
X-9107339Y-18358156D01*
X-8930224Y-18375600D01*
X-8811776Y-18375600D01*
X-8634661Y-18358156D01*
X-8407405Y-18289218D01*
X-8197964Y-18177270D01*
X-8014388Y-18026612D01*
X-7863730Y-17843036D01*
X-7751782Y-17633595D01*
X-7682844Y-17406339D01*
X-7659567Y-17170000D01*
X-7542433Y-17170000D01*
X-7519156Y-17406339D01*
X-7450218Y-17633595D01*
X-7338270Y-17843036D01*
X-7187612Y-18026612D01*
X-7004036Y-18177270D01*
X-6794595Y-18289218D01*
X-6567339Y-18358156D01*
X-6390224Y-18375600D01*
X-6271776Y-18375600D01*
X-6094661Y-18358156D01*
X-5867405Y-18289218D01*
X-5657964Y-18177270D01*
X-5474388Y-18026612D01*
X-5323730Y-17843036D01*
X-5211782Y-17633595D01*
X-5142844Y-17406339D01*
X-5119567Y-17170000D01*
X-5002433Y-17170000D01*
X-4979156Y-17406339D01*
X-4910218Y-17633595D01*
X-4798270Y-17843036D01*
X-4647612Y-18026612D01*
X-4464036Y-18177270D01*
X-4254595Y-18289218D01*
X-4027339Y-18358156D01*
X-3850224Y-18375600D01*
X-3731776Y-18375600D01*
X-3554661Y-18358156D01*
X-3327405Y-18289218D01*
X-3117964Y-18177270D01*
X-2934388Y-18026612D01*
X-2783730Y-17843036D01*
X-2671782Y-17633595D01*
X-2602844Y-17406339D01*
X-2579567Y-17170000D01*
X-2462433Y-17170000D01*
X-2439156Y-17406339D01*
X-2370218Y-17633595D01*
X-2258270Y-17843036D01*
X-2107612Y-18026612D01*
X-1924036Y-18177270D01*
X-1714595Y-18289218D01*
X-1487339Y-18358156D01*
X-1310224Y-18375600D01*
X-1191776Y-18375600D01*
X-1014661Y-18358156D01*
X-787405Y-18289218D01*
X-577964Y-18177270D01*
X-394388Y-18026612D01*
X-243730Y-17843036D01*
X-131782Y-17633595D01*
X-62844Y-17406339D01*
X-39567Y-17170000D01*
X77567Y-17170000D01*
X100844Y-17406339D01*
X169782Y-17633595D01*
X281730Y-17843036D01*
X432388Y-18026612D01*
X615964Y-18177270D01*
X825405Y-18289218D01*
X1052661Y-18358156D01*
X1229776Y-18375600D01*
X1348224Y-18375600D01*
X1525339Y-18358156D01*
X1752595Y-18289218D01*
X1962036Y-18177270D01*
X2145612Y-18026612D01*
X2296270Y-17843036D01*
X2408218Y-17633595D01*
X2477156Y-17406339D01*
X2500433Y-17170000D01*
X2617567Y-17170000D01*
X2640844Y-17406339D01*
X2709782Y-17633595D01*
X2821730Y-17843036D01*
X2972388Y-18026612D01*
X3155964Y-18177270D01*
X3365405Y-18289218D01*
X3592661Y-18358156D01*
X3769776Y-18375600D01*
X3888224Y-18375600D01*
X4065339Y-18358156D01*
X4292595Y-18289218D01*
X4502036Y-18177270D01*
X4685612Y-18026612D01*
X4836270Y-17843036D01*
X4948218Y-17633595D01*
X5017156Y-17406339D01*
X5040433Y-17170000D01*
X5157567Y-17170000D01*
X5180844Y-17406339D01*
X5249782Y-17633595D01*
X5361730Y-17843036D01*
X5512388Y-18026612D01*
X5695964Y-18177270D01*
X5905405Y-18289218D01*
X6132661Y-18358156D01*
X6309776Y-18375600D01*
X6428224Y-18375600D01*
X6605339Y-18358156D01*
X6832595Y-18289218D01*
X7042036Y-18177270D01*
X7225612Y-18026612D01*
X7376270Y-17843036D01*
X7488218Y-17633595D01*
X7557156Y-17406339D01*
X7580433Y-17170000D01*
X7697567Y-17170000D01*
X7720844Y-17406339D01*
X7789782Y-17633595D01*
X7901730Y-17843036D01*
X8052388Y-18026612D01*
X8235964Y-18177270D01*
X8445405Y-18289218D01*
X8672661Y-18358156D01*
X8849776Y-18375600D01*
X8968224Y-18375600D01*
X9145339Y-18358156D01*
X9372595Y-18289218D01*
X9582036Y-18177270D01*
X9765612Y-18026612D01*
X9916270Y-17843036D01*
X10028218Y-17633595D01*
X10097156Y-17406339D01*
X10120433Y-17170000D01*
X10237567Y-17170000D01*
X10260844Y-17406339D01*
X10329782Y-17633595D01*
X10441730Y-17843036D01*
X10592388Y-18026612D01*
X10775964Y-18177270D01*
X10985405Y-18289218D01*
X11212661Y-18358156D01*
X11389776Y-18375600D01*
X11508224Y-18375600D01*
X11685339Y-18358156D01*
X11912595Y-18289218D01*
X12122036Y-18177270D01*
X12305612Y-18026612D01*
X12456270Y-17843036D01*
X12568218Y-17633595D01*
X12637156Y-17406339D01*
X12660433Y-17170000D01*
X12777567Y-17170000D01*
X12800844Y-17406339D01*
X12869782Y-17633595D01*
X12981730Y-17843036D01*
X13132388Y-18026612D01*
X13315964Y-18177270D01*
X13525405Y-18289218D01*
X13752661Y-18358156D01*
X13929776Y-18375600D01*
X14048224Y-18375600D01*
X14225339Y-18358156D01*
X14452595Y-18289218D01*
X14662036Y-18177270D01*
X14845612Y-18026612D01*
X14996270Y-17843036D01*
X15108218Y-17633595D01*
X15177156Y-17406339D01*
X15200433Y-17170000D01*
X15317567Y-17170000D01*
X15340844Y-17406339D01*
X15409782Y-17633595D01*
X15521730Y-17843036D01*
X15672388Y-18026612D01*
X15855964Y-18177270D01*
X16065405Y-18289218D01*
X16292661Y-18358156D01*
X16469776Y-18375600D01*
X16588224Y-18375600D01*
X16765339Y-18358156D01*
X16992595Y-18289218D01*
X17202036Y-18177270D01*
X17385612Y-18026612D01*
X17536270Y-17843036D01*
X17648218Y-17633595D01*
X17717156Y-17406339D01*
X17740433Y-17170000D01*
X17857567Y-17170000D01*
X17880844Y-17406339D01*
X17949782Y-17633595D01*
X18061730Y-17843036D01*
X18212388Y-18026612D01*
X18395964Y-18177270D01*
X18605405Y-18289218D01*
X18832661Y-18358156D01*
X19009776Y-18375600D01*
X19128224Y-18375600D01*
X19305339Y-18358156D01*
X19532595Y-18289218D01*
X19742036Y-18177270D01*
X19925612Y-18026612D01*
X20076270Y-17843036D01*
X20188218Y-17633595D01*
X20257156Y-17406339D01*
X20280433Y-17170000D01*
X20257156Y-16933661D01*
X20188218Y-16706405D01*
X20076270Y-16496964D01*
X19925612Y-16313388D01*
X19742036Y-16162730D01*
X19532595Y-16050782D01*
X19305339Y-15981844D01*
X19128224Y-15964400D01*
X19009776Y-15964400D01*
X18832661Y-15981844D01*
X18605405Y-16050782D01*
X18395964Y-16162730D01*
X18212388Y-16313388D01*
X18061730Y-16496964D01*
X17949782Y-16706405D01*
X17880844Y-16933661D01*
X17857567Y-17170000D01*
X17740433Y-17170000D01*
X17717156Y-16933661D01*
X17648218Y-16706405D01*
X17536270Y-16496964D01*
X17385612Y-16313388D01*
X17202036Y-16162730D01*
X16992595Y-16050782D01*
X16765339Y-15981844D01*
X16588224Y-15964400D01*
X16469776Y-15964400D01*
X16292661Y-15981844D01*
X16065405Y-16050782D01*
X15855964Y-16162730D01*
X15672388Y-16313388D01*
X15521730Y-16496964D01*
X15409782Y-16706405D01*
X15340844Y-16933661D01*
X15317567Y-17170000D01*
X15200433Y-17170000D01*
X15177156Y-16933661D01*
X15108218Y-16706405D01*
X14996270Y-16496964D01*
X14845612Y-16313388D01*
X14662036Y-16162730D01*
X14452595Y-16050782D01*
X14225339Y-15981844D01*
X14048224Y-15964400D01*
X13929776Y-15964400D01*
X13752661Y-15981844D01*
X13525405Y-16050782D01*
X13315964Y-16162730D01*
X13132388Y-16313388D01*
X12981730Y-16496964D01*
X12869782Y-16706405D01*
X12800844Y-16933661D01*
X12777567Y-17170000D01*
X12660433Y-17170000D01*
X12637156Y-16933661D01*
X12568218Y-16706405D01*
X12456270Y-16496964D01*
X12305612Y-16313388D01*
X12122036Y-16162730D01*
X11912595Y-16050782D01*
X11685339Y-15981844D01*
X11508224Y-15964400D01*
X11389776Y-15964400D01*
X11212661Y-15981844D01*
X10985405Y-16050782D01*
X10775964Y-16162730D01*
X10592388Y-16313388D01*
X10441730Y-16496964D01*
X10329782Y-16706405D01*
X10260844Y-16933661D01*
X10237567Y-17170000D01*
X10120433Y-17170000D01*
X10097156Y-16933661D01*
X10028218Y-16706405D01*
X9916270Y-16496964D01*
X9765612Y-16313388D01*
X9582036Y-16162730D01*
X9372595Y-16050782D01*
X9145339Y-15981844D01*
X8968224Y-15964400D01*
X8849776Y-15964400D01*
X8672661Y-15981844D01*
X8445405Y-16050782D01*
X8235964Y-16162730D01*
X8052388Y-16313388D01*
X7901730Y-16496964D01*
X7789782Y-16706405D01*
X7720844Y-16933661D01*
X7697567Y-17170000D01*
X7580433Y-17170000D01*
X7557156Y-16933661D01*
X7488218Y-16706405D01*
X7376270Y-16496964D01*
X7225612Y-16313388D01*
X7042036Y-16162730D01*
X6832595Y-16050782D01*
X6605339Y-15981844D01*
X6428224Y-15964400D01*
X6309776Y-15964400D01*
X6132661Y-15981844D01*
X5905405Y-16050782D01*
X5695964Y-16162730D01*
X5512388Y-16313388D01*
X5361730Y-16496964D01*
X5249782Y-16706405D01*
X5180844Y-16933661D01*
X5157567Y-17170000D01*
X5040433Y-17170000D01*
X5017156Y-16933661D01*
X4948218Y-16706405D01*
X4836270Y-16496964D01*
X4685612Y-16313388D01*
X4502036Y-16162730D01*
X4292595Y-16050782D01*
X4065339Y-15981844D01*
X3888224Y-15964400D01*
X3769776Y-15964400D01*
X3592661Y-15981844D01*
X3365405Y-16050782D01*
X3155964Y-16162730D01*
X2972388Y-16313388D01*
X2821730Y-16496964D01*
X2709782Y-16706405D01*
X2640844Y-16933661D01*
X2617567Y-17170000D01*
X2500433Y-17170000D01*
X2477156Y-16933661D01*
X2408218Y-16706405D01*
X2296270Y-16496964D01*
X2145612Y-16313388D01*
X1962036Y-16162730D01*
X1752595Y-16050782D01*
X1525339Y-15981844D01*
X1348224Y-15964400D01*
X1229776Y-15964400D01*
X1052661Y-15981844D01*
X825405Y-16050782D01*
X615964Y-16162730D01*
X432388Y-16313388D01*
X281730Y-16496964D01*
X169782Y-16706405D01*
X100844Y-16933661D01*
X77567Y-17170000D01*
X-39567Y-17170000D01*
X-62844Y-16933661D01*
X-131782Y-16706405D01*
X-243730Y-16496964D01*
X-394388Y-16313388D01*
X-577964Y-16162730D01*
X-787405Y-16050782D01*
X-1014661Y-15981844D01*
X-1191776Y-15964400D01*
X-1310224Y-15964400D01*
X-1487339Y-15981844D01*
X-1714595Y-16050782D01*
X-1924036Y-16162730D01*
X-2107612Y-16313388D01*
X-2258270Y-16496964D01*
X-2370218Y-16706405D01*
X-2439156Y-16933661D01*
X-2462433Y-17170000D01*
X-2579567Y-17170000D01*
X-2602844Y-16933661D01*
X-2671782Y-16706405D01*
X-2783730Y-16496964D01*
X-2934388Y-16313388D01*
X-3117964Y-16162730D01*
X-3327405Y-16050782D01*
X-3554661Y-15981844D01*
X-3731776Y-15964400D01*
X-3850224Y-15964400D01*
X-4027339Y-15981844D01*
X-4254595Y-16050782D01*
X-4464036Y-16162730D01*
X-4647612Y-16313388D01*
X-4798270Y-16496964D01*
X-4910218Y-16706405D01*
X-4979156Y-16933661D01*
X-5002433Y-17170000D01*
X-5119567Y-17170000D01*
X-5142844Y-16933661D01*
X-5211782Y-16706405D01*
X-5323730Y-16496964D01*
X-5474388Y-16313388D01*
X-5657964Y-16162730D01*
X-5867405Y-16050782D01*
X-6094661Y-15981844D01*
X-6271776Y-15964400D01*
X-6390224Y-15964400D01*
X-6567339Y-15981844D01*
X-6794595Y-16050782D01*
X-7004036Y-16162730D01*
X-7187612Y-16313388D01*
X-7338270Y-16496964D01*
X-7450218Y-16706405D01*
X-7519156Y-16933661D01*
X-7542433Y-17170000D01*
X-7659567Y-17170000D01*
X-7682844Y-16933661D01*
X-7751782Y-16706405D01*
X-7863730Y-16496964D01*
X-8014388Y-16313388D01*
X-8197964Y-16162730D01*
X-8407405Y-16050782D01*
X-8634661Y-15981844D01*
X-8811776Y-15964400D01*
X-8930224Y-15964400D01*
X-9107339Y-15981844D01*
X-9334595Y-16050782D01*
X-9360665Y-16064717D01*
X-10654256Y-14771127D01*
X-10668171Y-14754171D01*
X-10735855Y-14698624D01*
X-10813074Y-14657349D01*
X-10896863Y-14631932D01*
X-10962170Y-14625500D01*
X-10962180Y-14625500D01*
X-10984000Y-14623351D01*
X-11005820Y-14625500D01*
X-15899882Y-14625500D01*
X-18239504Y-12285879D01*
X-18239504Y-9520000D01*
X-17991600Y-9520000D01*
X-17991600Y-9650000D01*
X-17987992Y-9676835D01*
X-17980874Y-9695437D01*
X-17930874Y-9795437D01*
X-17920263Y-9812292D01*
X-17906568Y-9826754D01*
X-17890315Y-9838266D01*
X-17872129Y-9846386D01*
X-17752129Y-9886386D01*
X-17725340Y-9891460D01*
X-17535340Y-9901460D01*
X-17518894Y-9900991D01*
X-17499405Y-9896884D01*
X-17309405Y-9836884D01*
X-17297861Y-9832449D01*
X-17280635Y-9822452D01*
X-17030635Y-9642452D01*
X-17030450Y-9642319D01*
X-16564444Y-9305208D01*
X-16038704Y-8997700D01*
X-16037727Y-8997121D01*
X-15648317Y-8763475D01*
X-15400121Y-8687107D01*
X-15388831Y-8682885D01*
X-15379904Y-8677829D01*
X-15039576Y-8739706D01*
X-14663508Y-8818878D01*
X-14436728Y-8879044D01*
X-15316358Y-9465464D01*
X-15318264Y-9466766D01*
X-16218264Y-10096766D01*
X-16231842Y-10108158D01*
X-16321842Y-10198158D01*
X-16337176Y-10217818D01*
X-16345681Y-10235828D01*
X-16395681Y-10375828D01*
X-16399195Y-10388024D01*
X-16401576Y-10407798D01*
X-16400054Y-10427657D01*
X-16370054Y-10597657D01*
X-16366247Y-10612543D01*
X-16358049Y-10630695D01*
X-16346467Y-10646898D01*
X-16331947Y-10660531D01*
X-16201947Y-10760531D01*
X-16185437Y-10770874D01*
X-16166835Y-10777992D01*
X-16147202Y-10781344D01*
X-16127293Y-10780802D01*
X-16107871Y-10776386D01*
X-15807871Y-10676386D01*
X-15789095Y-10667927D01*
X-15409095Y-10447927D01*
X-15405994Y-10446058D01*
X-13469036Y-9230518D01*
X-13329616Y-9283631D01*
X-13037748Y-9419836D01*
X-13010425Y-9436230D01*
X-13300468Y-9668263D01*
X-14117299Y-10226099D01*
X-14126296Y-10233011D01*
X-14486296Y-10543011D01*
X-14504536Y-10563642D01*
X-14544536Y-10623642D01*
X-14555843Y-10646286D01*
X-14560579Y-10665632D01*
X-14570579Y-10735632D01*
X-14571301Y-10742208D01*
X-14581301Y-10872208D01*
X-14580065Y-10897592D01*
X-14574711Y-10916776D01*
X-14565716Y-10934547D01*
X-14495716Y-11044547D01*
X-14483652Y-11059985D01*
X-14468584Y-11073009D01*
X-14451264Y-11082843D01*
X-14361264Y-11122843D01*
X-14339821Y-11129648D01*
X-14320000Y-11131600D01*
X-14200000Y-11131600D01*
X-14174749Y-11128412D01*
X-14156035Y-11121595D01*
X-13906035Y-11001595D01*
X-13891462Y-10993042D01*
X-13284016Y-10564842D01*
X-13021301Y-10402967D01*
X-4664600Y-10402967D01*
X-4664600Y-10537033D01*
X-4638445Y-10668524D01*
X-4587140Y-10792385D01*
X-4512656Y-10903857D01*
X-4417857Y-10998656D01*
X-4306385Y-11073140D01*
X-4182524Y-11124445D01*
X-4064606Y-11147900D01*
X-4064606Y-11187033D01*
X-4038451Y-11318524D01*
X-3987146Y-11442385D01*
X-3912662Y-11553857D01*
X-3817863Y-11648656D01*
X-3706391Y-11723140D01*
X-3582530Y-11774445D01*
X-3451039Y-11800600D01*
X-3316973Y-11800600D01*
X-3185482Y-11774445D01*
X-3061621Y-11723140D01*
X-2950149Y-11648656D01*
X-2865993Y-11564500D01*
X-714117Y-11564500D01*
X355500Y-12634118D01*
X355501Y-14478170D01*
X353351Y-14500000D01*
X361933Y-14587137D01*
X387349Y-14670925D01*
X428624Y-14748145D01*
X470255Y-14798872D01*
X470259Y-14798876D01*
X484172Y-14815829D01*
X501125Y-14829742D01*
X870258Y-15198876D01*
X884171Y-15215829D01*
X901124Y-15229742D01*
X901126Y-15229744D01*
X918094Y-15243669D01*
X951855Y-15271376D01*
X1029074Y-15312651D01*
X1112863Y-15338068D01*
X1178170Y-15344500D01*
X1178179Y-15344500D01*
X1199999Y-15346649D01*
X1221819Y-15344500D01*
X2014180Y-15344500D01*
X2036000Y-15346649D01*
X2057820Y-15344500D01*
X2057830Y-15344500D01*
X2123137Y-15338068D01*
X2206926Y-15312651D01*
X2284145Y-15271376D01*
X2351829Y-15215829D01*
X2365747Y-15198870D01*
X2564017Y-15000600D01*
X2683033Y-15000600D01*
X2814524Y-14974445D01*
X2874133Y-14949754D01*
X5245088Y-14949754D01*
X5333869Y-15171659D01*
X5464236Y-15371980D01*
X5631179Y-15543019D01*
X5828282Y-15678202D01*
X6047971Y-15772335D01*
X6076247Y-15780904D01*
X6263600Y-15729979D01*
X6263600Y-14762400D01*
X6568400Y-14762400D01*
X6568400Y-15729979D01*
X6755753Y-15780904D01*
X6784029Y-15772335D01*
X7003718Y-15678202D01*
X7200821Y-15543019D01*
X7367764Y-15371980D01*
X7498131Y-15171659D01*
X7586912Y-14949754D01*
X7536745Y-14762400D01*
X6568400Y-14762400D01*
X6263600Y-14762400D01*
X5295255Y-14762400D01*
X5245088Y-14949754D01*
X2874133Y-14949754D01*
X2938385Y-14923140D01*
X3049857Y-14848656D01*
X3144656Y-14753857D01*
X3219140Y-14642385D01*
X3232554Y-14610000D01*
X7730901Y-14610000D01*
X7754441Y-14849005D01*
X7824156Y-15078825D01*
X7937367Y-15290629D01*
X8089724Y-15476276D01*
X8275371Y-15628633D01*
X8487175Y-15741844D01*
X8716995Y-15811559D01*
X8896107Y-15829200D01*
X9015893Y-15829200D01*
X9195005Y-15811559D01*
X9424825Y-15741844D01*
X9636629Y-15628633D01*
X9822276Y-15476276D01*
X9974633Y-15290629D01*
X10087844Y-15078825D01*
X10157559Y-14849005D01*
X10181099Y-14610000D01*
X10270901Y-14610000D01*
X10294441Y-14849005D01*
X10364156Y-15078825D01*
X10477367Y-15290629D01*
X10629724Y-15476276D01*
X10815371Y-15628633D01*
X11027175Y-15741844D01*
X11256995Y-15811559D01*
X11436107Y-15829200D01*
X11555893Y-15829200D01*
X11735005Y-15811559D01*
X11964825Y-15741844D01*
X12176629Y-15628633D01*
X12362276Y-15476276D01*
X12514633Y-15290629D01*
X12627844Y-15078825D01*
X12697559Y-14849005D01*
X12721099Y-14610000D01*
X12697559Y-14370995D01*
X12627844Y-14141175D01*
X12514633Y-13929371D01*
X12362276Y-13743724D01*
X12176629Y-13591367D01*
X11964825Y-13478156D01*
X11735005Y-13408441D01*
X11555893Y-13390800D01*
X11436107Y-13390800D01*
X11256995Y-13408441D01*
X11027175Y-13478156D01*
X10815371Y-13591367D01*
X10629724Y-13743724D01*
X10477367Y-13929371D01*
X10364156Y-14141175D01*
X10294441Y-14370995D01*
X10270901Y-14610000D01*
X10181099Y-14610000D01*
X10157559Y-14370995D01*
X10087844Y-14141175D01*
X9974633Y-13929371D01*
X9822276Y-13743724D01*
X9636629Y-13591367D01*
X9424825Y-13478156D01*
X9195005Y-13408441D01*
X9015893Y-13390800D01*
X8896107Y-13390800D01*
X8716995Y-13408441D01*
X8487175Y-13478156D01*
X8275371Y-13591367D01*
X8089724Y-13743724D01*
X7937367Y-13929371D01*
X7824156Y-14141175D01*
X7754441Y-14370995D01*
X7730901Y-14610000D01*
X3232554Y-14610000D01*
X3270445Y-14518524D01*
X3296600Y-14387033D01*
X3296600Y-14270246D01*
X5245088Y-14270246D01*
X5295255Y-14457600D01*
X6263600Y-14457600D01*
X6263600Y-13490021D01*
X6568400Y-13490021D01*
X6568400Y-14457600D01*
X7536745Y-14457600D01*
X7586912Y-14270246D01*
X7498131Y-14048341D01*
X7367764Y-13848020D01*
X7200821Y-13676981D01*
X7003718Y-13541798D01*
X6784029Y-13447665D01*
X6755753Y-13439096D01*
X6568400Y-13490021D01*
X6263600Y-13490021D01*
X6076247Y-13439096D01*
X6047971Y-13447665D01*
X5828282Y-13541798D01*
X5631179Y-13676981D01*
X5464236Y-13848020D01*
X5333869Y-14048341D01*
X5245088Y-14270246D01*
X3296600Y-14270246D01*
X3296600Y-14252967D01*
X3270445Y-14121476D01*
X3219140Y-13997615D01*
X3144656Y-13886143D01*
X3049857Y-13791344D01*
X2938385Y-13716860D01*
X2885610Y-13695000D01*
X2938385Y-13673140D01*
X3049857Y-13598656D01*
X3144656Y-13503857D01*
X3219140Y-13392385D01*
X3270445Y-13268524D01*
X3296600Y-13137033D01*
X3296600Y-13002967D01*
X3282802Y-12933600D01*
X5195080Y-12933600D01*
X5201946Y-13003310D01*
X5222279Y-13070340D01*
X5255299Y-13132116D01*
X5299737Y-13186263D01*
X5353884Y-13230701D01*
X5415660Y-13263721D01*
X5482690Y-13284054D01*
X5552400Y-13290920D01*
X7279600Y-13290920D01*
X7349310Y-13284054D01*
X7416340Y-13263721D01*
X7478116Y-13230701D01*
X7532263Y-13186263D01*
X7576701Y-13132116D01*
X7609721Y-13070340D01*
X7630054Y-13003310D01*
X7636920Y-12933600D01*
X7636920Y-12070000D01*
X7730901Y-12070000D01*
X7754441Y-12309005D01*
X7824156Y-12538825D01*
X7937367Y-12750629D01*
X8089724Y-12936276D01*
X8275371Y-13088633D01*
X8487175Y-13201844D01*
X8716995Y-13271559D01*
X8896107Y-13289200D01*
X9015893Y-13289200D01*
X9195005Y-13271559D01*
X9424825Y-13201844D01*
X9636629Y-13088633D01*
X9822276Y-12936276D01*
X9974633Y-12750629D01*
X10087844Y-12538825D01*
X10157559Y-12309005D01*
X10181099Y-12070000D01*
X10270901Y-12070000D01*
X10294441Y-12309005D01*
X10364156Y-12538825D01*
X10477367Y-12750629D01*
X10629724Y-12936276D01*
X10815371Y-13088633D01*
X11027175Y-13201844D01*
X11256995Y-13271559D01*
X11436107Y-13289200D01*
X11555893Y-13289200D01*
X11735005Y-13271559D01*
X11964825Y-13201844D01*
X12176629Y-13088633D01*
X12362276Y-12936276D01*
X12514633Y-12750629D01*
X12627844Y-12538825D01*
X12697559Y-12309005D01*
X12721099Y-12070000D01*
X12697559Y-11830995D01*
X12627844Y-11601175D01*
X12514633Y-11389371D01*
X12362276Y-11203724D01*
X12176629Y-11051367D01*
X11964825Y-10938156D01*
X11735005Y-10868441D01*
X11555893Y-10850800D01*
X11436107Y-10850800D01*
X11256995Y-10868441D01*
X11027175Y-10938156D01*
X10815371Y-11051367D01*
X10629724Y-11203724D01*
X10477367Y-11389371D01*
X10364156Y-11601175D01*
X10294441Y-11830995D01*
X10270901Y-12070000D01*
X10181099Y-12070000D01*
X10157559Y-11830995D01*
X10087844Y-11601175D01*
X9974633Y-11389371D01*
X9822276Y-11203724D01*
X9636629Y-11051367D01*
X9424825Y-10938156D01*
X9195005Y-10868441D01*
X9015893Y-10850800D01*
X8896107Y-10850800D01*
X8716995Y-10868441D01*
X8487175Y-10938156D01*
X8275371Y-11051367D01*
X8089724Y-11203724D01*
X7937367Y-11389371D01*
X7824156Y-11601175D01*
X7754441Y-11830995D01*
X7730901Y-12070000D01*
X7636920Y-12070000D01*
X7636920Y-11206400D01*
X7630054Y-11136690D01*
X7609721Y-11069660D01*
X7576701Y-11007884D01*
X7532263Y-10953737D01*
X7478116Y-10909299D01*
X7416340Y-10876279D01*
X7349310Y-10855946D01*
X7279600Y-10849080D01*
X5552400Y-10849080D01*
X5482690Y-10855946D01*
X5415660Y-10876279D01*
X5353884Y-10909299D01*
X5299737Y-10953737D01*
X5255299Y-11007884D01*
X5222279Y-11069660D01*
X5201946Y-11136690D01*
X5195080Y-11206400D01*
X3477715Y-11206400D01*
X990662Y-8719349D01*
X990653Y-8719338D01*
X80661Y-7809348D01*
X-17889Y-7728469D01*
X-167916Y-7648279D01*
X-234986Y-7627933D01*
X8599595Y-7627933D01*
X8643118Y-8015948D01*
X8761178Y-8388120D01*
X8949278Y-8730273D01*
X9200254Y-9029374D01*
X9504545Y-9274031D01*
X9850562Y-9454924D01*
X10225125Y-9565164D01*
X10613967Y-9600551D01*
X11002276Y-9559738D01*
X11375264Y-9444279D01*
X11718721Y-9258573D01*
X12019567Y-9009691D01*
X12266342Y-8707115D01*
X12449647Y-8362369D01*
X12562499Y-7988585D01*
X12600600Y-7600000D01*
X12599820Y-7544140D01*
X12550884Y-7156770D01*
X12427639Y-6786283D01*
X12234780Y-6446790D01*
X11979653Y-6151222D01*
X11671975Y-5910838D01*
X11323466Y-5734793D01*
X10947401Y-5629794D01*
X10558103Y-5599839D01*
X10170401Y-5646069D01*
X9799062Y-5766725D01*
X9458230Y-5957209D01*
X9160889Y-6210266D01*
X8918362Y-6516259D01*
X8739889Y-6863530D01*
X8632267Y-7238853D01*
X8599595Y-7627933D01*
X-234986Y-7627933D01*
X-330706Y-7598896D01*
X-500000Y-7582222D01*
X-669294Y-7598896D01*
X-832084Y-7648279D01*
X-982111Y-7728469D01*
X-1113611Y-7836389D01*
X-1221531Y-7967889D01*
X-1301721Y-8117916D01*
X-1351104Y-8280706D01*
X-1367778Y-8450000D01*
X-1351104Y-8619294D01*
X-1318886Y-8725500D01*
X-2251993Y-8725500D01*
X-2336149Y-8641344D01*
X-2447621Y-8566860D01*
X-2571482Y-8515555D01*
X-2702973Y-8489400D01*
X-2837039Y-8489400D01*
X-2968530Y-8515555D01*
X-3092391Y-8566860D01*
X-3203863Y-8641344D01*
X-3298662Y-8736143D01*
X-3373146Y-8847615D01*
X-3424451Y-8971476D01*
X-3450606Y-9102967D01*
X-3450606Y-9139400D01*
X-3451033Y-9139400D01*
X-3582524Y-9165555D01*
X-3706385Y-9216860D01*
X-3817857Y-9291344D01*
X-3912656Y-9386143D01*
X-3987140Y-9497615D01*
X-4038445Y-9621476D01*
X-4064600Y-9752967D01*
X-4064600Y-9792099D01*
X-4182524Y-9815555D01*
X-4306385Y-9866860D01*
X-4417857Y-9941344D01*
X-4512656Y-10036143D01*
X-4587140Y-10147615D01*
X-4638445Y-10271476D01*
X-4664600Y-10402967D01*
X-13021301Y-10402967D01*
X-12316118Y-9968461D01*
X-12299740Y-9966641D01*
X-12240902Y-10001944D01*
X-12028344Y-10195178D01*
X-12018264Y-10203234D01*
X-11918264Y-10273234D01*
X-11900723Y-10283082D01*
X-11740723Y-10353082D01*
X-11719821Y-10359648D01*
X-11700000Y-10361600D01*
X-11570000Y-10361600D01*
X-11548024Y-10359195D01*
X-11529094Y-10353001D01*
X-11511736Y-10343234D01*
X-11411736Y-10273234D01*
X-11396004Y-10259622D01*
X-11383843Y-10243848D01*
X-11333843Y-10163848D01*
X-11327025Y-10150966D01*
X-11320819Y-10132040D01*
X-11300819Y-10042040D01*
X-11298420Y-10017997D01*
X-11300762Y-9998219D01*
X-11306918Y-9979277D01*
X-11376918Y-9819277D01*
X-11390110Y-9797229D01*
X-11598446Y-9532074D01*
X-11605684Y-9508551D01*
X-11603400Y-9503984D01*
X-10175767Y-8727041D01*
X-10102254Y-8713675D01*
X-10047795Y-8775395D01*
X-9933029Y-8918853D01*
X-9836157Y-9073848D01*
X-9828051Y-9085043D01*
X-9728051Y-9205043D01*
X-9716649Y-9216684D01*
X-9700408Y-9228214D01*
X-9630408Y-9268214D01*
X-9611567Y-9276572D01*
X-9592120Y-9280874D01*
X-9572208Y-9281301D01*
X-9442208Y-9271301D01*
X-9423165Y-9267992D01*
X-9404563Y-9260874D01*
X-9324563Y-9220874D01*
X-9313554Y-9214477D01*
X-9298158Y-9201842D01*
X-9228158Y-9131842D01*
X-9220980Y-9123862D01*
X-9210039Y-9107219D01*
X-9202556Y-9088761D01*
X-9198817Y-9069198D01*
X-9188817Y-8959198D01*
X-9188741Y-8941683D01*
X-9192309Y-8922088D01*
X-9232309Y-8782088D01*
X-9235471Y-8772761D01*
X-9364040Y-8446395D01*
X-9375172Y-8410217D01*
X-9293960Y-8309897D01*
X-8886647Y-8092032D01*
X-8115075Y-7775489D01*
X-7647981Y-7624814D01*
X-7567912Y-7647691D01*
X-7549281Y-7651175D01*
X-7529364Y-7651042D01*
X-7339364Y-7631042D01*
X-7312788Y-7624540D01*
X-7295059Y-7615464D01*
X-7155059Y-7525464D01*
X-7139779Y-7513427D01*
X-7126803Y-7498317D01*
X-7117025Y-7480966D01*
X-7110819Y-7462040D01*
X-7090819Y-7372040D01*
X-7088412Y-7348450D01*
X-7089040Y-7342940D01*
X-7036766Y-7268264D01*
X-7027025Y-7250966D01*
X-7020819Y-7232040D01*
X-7000819Y-7142040D01*
X-6998433Y-7122593D01*
X-6999879Y-7102729D01*
X-7005172Y-7083528D01*
X-7055172Y-6953528D01*
X-7061951Y-6939305D01*
X-7073533Y-6923102D01*
X-7088053Y-6909469D01*
X-7218053Y-6809469D01*
X-7237541Y-6797697D01*
X-7256364Y-6791188D01*
X-7276095Y-6788475D01*
X-7536095Y-6778475D01*
X-7547712Y-6778981D01*
X-7745360Y-6673980D01*
X-8130342Y-6385243D01*
X-8188888Y-6317691D01*
X-6999305Y-5817311D01*
X-6663299Y-5744661D01*
X-6482697Y-5818239D01*
X-6094657Y-6138372D01*
X-6078963Y-6149024D01*
X-5878963Y-6259024D01*
X-5862028Y-6266420D01*
X-5842602Y-6270815D01*
X-5682602Y-6290815D01*
X-5666554Y-6291542D01*
X-5646810Y-6288918D01*
X-5627958Y-6282493D01*
X-5517958Y-6232493D01*
X-5497241Y-6219899D01*
X-5482860Y-6206120D01*
X-5422860Y-6136120D01*
X-5412166Y-6121066D01*
X-5403891Y-6102950D01*
X-5399310Y-6083567D01*
X-5398598Y-6063662D01*
X-5408598Y-5903662D01*
X-5413432Y-5878422D01*
X-5421448Y-5860189D01*
X-5511448Y-5700189D01*
X-5519656Y-5687811D01*
X-5533332Y-5673332D01*
X-5763332Y-5473332D01*
X-5768160Y-5469387D01*
X-5854743Y-5402967D01*
X12235400Y-5402967D01*
X12235400Y-5537033D01*
X12261555Y-5668524D01*
X12312860Y-5792385D01*
X12387344Y-5903857D01*
X12482143Y-5998656D01*
X12593615Y-6073140D01*
X12717476Y-6124445D01*
X12848967Y-6150600D01*
X12983033Y-6150600D01*
X13114524Y-6124445D01*
X13238385Y-6073140D01*
X13349857Y-5998656D01*
X13434013Y-5914500D01*
X15265677Y-5914500D01*
X15349833Y-5998656D01*
X15461305Y-6073140D01*
X15585166Y-6124445D01*
X15716657Y-6150600D01*
X15850723Y-6150600D01*
X15982214Y-6124445D01*
X16106075Y-6073140D01*
X16217547Y-5998656D01*
X16312346Y-5903857D01*
X16386830Y-5792385D01*
X16438135Y-5668524D01*
X16464290Y-5537033D01*
X16464290Y-5402967D01*
X16438135Y-5271476D01*
X16386830Y-5147615D01*
X16312346Y-5036143D01*
X16217547Y-4941344D01*
X16106075Y-4866860D01*
X15982214Y-4815555D01*
X15850723Y-4789400D01*
X15716657Y-4789400D01*
X15585166Y-4815555D01*
X15461305Y-4866860D01*
X15349833Y-4941344D01*
X15265677Y-5025500D01*
X13434013Y-5025500D01*
X13349857Y-4941344D01*
X13238385Y-4866860D01*
X13114524Y-4815555D01*
X12983033Y-4789400D01*
X12848967Y-4789400D01*
X12717476Y-4815555D01*
X12593615Y-4866860D01*
X12482143Y-4941344D01*
X12387344Y-5036143D01*
X12312860Y-5147615D01*
X12261555Y-5271476D01*
X12235400Y-5402967D01*
X-5854743Y-5402967D01*
X-6103601Y-5212062D01*
X-6098625Y-5186758D01*
X-6099254Y-5166851D01*
X-6103755Y-5147449D01*
X-6111955Y-5129298D01*
X-6123538Y-5113096D01*
X-6263538Y-4953096D01*
X-6271382Y-4945072D01*
X-6287318Y-4933125D01*
X-6305279Y-4924517D01*
X-6525279Y-4844517D01*
X-6552006Y-4838715D01*
X-6571919Y-4839102D01*
X-6591375Y-4843366D01*
X-6592794Y-4843827D01*
X-7048380Y-4528936D01*
X-6904499Y-4435101D01*
X-6888083Y-4421767D01*
X-6875464Y-4406358D01*
X-6775464Y-4256358D01*
X-6764013Y-4233302D01*
X-6759360Y-4213935D01*
X-6758575Y-4194034D01*
X-6768575Y-4024034D01*
X-6771082Y-4006810D01*
X-6777507Y-3987958D01*
X-6827507Y-3877958D01*
X-6843246Y-3853432D01*
X-6857708Y-3839737D01*
X-6874563Y-3829126D01*
X-6974563Y-3779126D01*
X-6997080Y-3771019D01*
X-7016831Y-3768449D01*
X-7036703Y-3769782D01*
X-7516703Y-3849782D01*
X-7527458Y-3852181D01*
X-7953137Y-3971670D01*
X-7967563Y-3962977D01*
X-7977131Y-3957887D01*
X-7995925Y-3951294D01*
X-8405925Y-3851294D01*
X-8424364Y-3848556D01*
X-8603576Y-3838600D01*
X-8742761Y-3828658D01*
X-8769717Y-3830332D01*
X-8788782Y-3836093D01*
X-8806358Y-3845464D01*
X-8896358Y-3905464D01*
X-8911767Y-3918083D01*
X-8924418Y-3933466D01*
X-8933825Y-3951021D01*
X-8939627Y-3970075D01*
X-8959627Y-4070075D01*
X-8961553Y-4086907D01*
X-8960205Y-4106778D01*
X-8955006Y-4126005D01*
X-8946157Y-4143848D01*
X-8897746Y-4221305D01*
X-8851600Y-4305907D01*
X-8851600Y-4306961D01*
X-8876179Y-4340757D01*
X-9149587Y-4456430D01*
X-9150300Y-4456734D01*
X-10454568Y-5020307D01*
X-10742486Y-4969921D01*
X-10745288Y-4969471D01*
X-11155288Y-4909471D01*
X-11179787Y-4908872D01*
X-11489787Y-4938872D01*
X-11504642Y-4941434D01*
X-11664642Y-4981434D01*
X-11682576Y-4987751D01*
X-11812576Y-5047751D01*
X-11836488Y-5063176D01*
X-11850198Y-5077624D01*
X-11920198Y-5167624D01*
X-11927176Y-5177818D01*
X-11935681Y-5195828D01*
X-11985681Y-5335828D01*
X-11989668Y-5350283D01*
X-11991600Y-5370106D01*
X-11989627Y-5389925D01*
X-11969627Y-5489925D01*
X-11963907Y-5508782D01*
X-11954536Y-5526358D01*
X-11914536Y-5586358D01*
X-11900647Y-5603017D01*
X-11885045Y-5615397D01*
X-11867327Y-5624495D01*
X-11848175Y-5629961D01*
X-11738175Y-5649961D01*
X-11716751Y-5651354D01*
X-12957081Y-6299967D01*
X-12957478Y-6300176D01*
X-13130483Y-6391621D01*
X-13781357Y-6270125D01*
X-13800000Y-6268400D01*
X-13950000Y-6268400D01*
X-13970931Y-6270579D01*
X-14160931Y-6310579D01*
X-14173714Y-6314157D01*
X-14191765Y-6322576D01*
X-14207826Y-6334354D01*
X-14221280Y-6349040D01*
X-14281280Y-6429040D01*
X-14293866Y-6451119D01*
X-14299648Y-6470179D01*
X-14301600Y-6490000D01*
X-14301600Y-6640000D01*
X-14298918Y-6663190D01*
X-14292493Y-6682042D01*
X-14242493Y-6792042D01*
X-14237424Y-6801765D01*
X-14225646Y-6817826D01*
X-14210960Y-6831280D01*
X-14108149Y-6908388D01*
X-14357478Y-7040176D01*
X-14359044Y-7041021D01*
X-15629044Y-7741021D01*
X-15634183Y-7744054D01*
X-15664711Y-7763300D01*
X-15720282Y-7777707D01*
X-16454589Y-7738544D01*
X-16465636Y-7738556D01*
X-16645636Y-7748556D01*
X-16666835Y-7752008D01*
X-16685437Y-7759126D01*
X-16845437Y-7839126D01*
X-16862292Y-7849737D01*
X-16876754Y-7863432D01*
X-16888266Y-7879685D01*
X-16896386Y-7897871D01*
X-16916386Y-7957871D01*
X-16919181Y-7967960D01*
X-16939181Y-8057960D01*
X-16941150Y-8070443D01*
X-16941070Y-8090360D01*
X-16937107Y-8109879D01*
X-16897107Y-8239879D01*
X-16886982Y-8262504D01*
X-16875068Y-8278464D01*
X-16860269Y-8291794D01*
X-16695542Y-8413172D01*
X-17014183Y-8614054D01*
X-17019616Y-8617729D01*
X-17709616Y-9117729D01*
X-17721842Y-9128158D01*
X-17951842Y-9358158D01*
X-17968998Y-9380991D01*
X-17976849Y-9399296D01*
X-17980979Y-9418780D01*
X-17990979Y-9508780D01*
X-17991600Y-9520000D01*
X-18239504Y-9520000D01*
X-18239504Y-8388013D01*
X-18155348Y-8303857D01*
X-18080864Y-8192385D01*
X-18029559Y-8068524D01*
X-18003404Y-7937033D01*
X-18003404Y-7802967D01*
X-18029559Y-7671476D01*
X-18080864Y-7547615D01*
X-18155348Y-7436143D01*
X-18250147Y-7341344D01*
X-18361619Y-7266860D01*
X-18485480Y-7215555D01*
X-18616971Y-7189400D01*
X-18751037Y-7189400D01*
X-18882528Y-7215555D01*
X-19006389Y-7266860D01*
X-19117861Y-7341344D01*
X-19212660Y-7436143D01*
X-19287144Y-7547615D01*
X-19338449Y-7671476D01*
X-19364604Y-7802967D01*
X-21793691Y-7802967D01*
X-22850459Y2031358D01*
X-19951232Y2031358D01*
X-19881232Y1211358D01*
X-19877691Y1192088D01*
X-19837691Y1052088D01*
X-19836386Y1047871D01*
X-19786386Y897871D01*
X-19781865Y886602D01*
X-19771634Y869514D01*
X-19758265Y854751D01*
X-19742273Y842879D01*
X-19642273Y782879D01*
X-19633301Y778089D01*
X-19614539Y771408D01*
X-19594833Y768515D01*
X-19384833Y758515D01*
X-19366781Y759264D01*
X-19347382Y763778D01*
X-18878412Y922751D01*
X-18791600Y44985D01*
X-18791600Y39525D01*
X-18805091Y31430D01*
X-19557304Y-265496D01*
X-19569341Y-271186D01*
X-19585720Y-282518D01*
X-19599573Y-296828D01*
X-19610368Y-313566D01*
X-19617691Y-332088D01*
X-19657691Y-472088D01*
X-19660272Y-483625D01*
X-19661540Y-503501D01*
X-19651540Y-793501D01*
X-19650930Y-801646D01*
X-19590930Y-1321646D01*
X-19588899Y-1333270D01*
X-19508899Y-1673270D01*
X-19503866Y-1688881D01*
X-19494477Y-1706446D01*
X-19481842Y-1721842D01*
X-19421842Y-1781842D01*
X-19406623Y-1794359D01*
X-19389077Y-1803785D01*
X-19370030Y-1809606D01*
X-19350213Y-1811600D01*
X-19330387Y-1809689D01*
X-19311316Y-1803947D01*
X-19141316Y-1733947D01*
X-19132541Y-1729834D01*
X-18624812Y-1461600D01*
X-18612793Y-1461600D01*
X-18607707Y-1471772D01*
X-18590614Y-1574328D01*
X-18480897Y-2501934D01*
X-18478348Y-2515498D01*
X-18408348Y-2785498D01*
X-18403907Y-2798782D01*
X-18394536Y-2816358D01*
X-18334536Y-2906358D01*
X-18323652Y-2919985D01*
X-18308584Y-2933009D01*
X-18291264Y-2942843D01*
X-18201264Y-2982843D01*
X-18190655Y-2986865D01*
X-18171168Y-2990984D01*
X-18151252Y-2991223D01*
X-18131673Y-2987571D01*
X-17821673Y-2897571D01*
X-17812977Y-2894614D01*
X-17122977Y-2624614D01*
X-17107876Y-2617210D01*
X-17091864Y-2605366D01*
X-17078470Y-2590625D01*
X-17068209Y-2573554D01*
X-17061476Y-2554810D01*
X-17058529Y-2535112D01*
X-17059481Y-2515218D01*
X-17159124Y-1837648D01*
X-17248883Y-920108D01*
X-17249717Y-913694D01*
X-17260137Y-849613D01*
X-16865464Y-627161D01*
X-16748033Y-607030D01*
X-16710876Y-912113D01*
X-16600897Y-1841934D01*
X-16600123Y-1847263D01*
X-16550123Y-2137263D01*
X-16547001Y-2150223D01*
X-16539241Y-2168566D01*
X-16528051Y-2185043D01*
X-16478051Y-2245043D01*
X-16460960Y-2261280D01*
X-16443932Y-2271611D01*
X-16425215Y-2278421D01*
X-16405530Y-2281449D01*
X-16385632Y-2280579D01*
X-16245632Y-2260579D01*
X-16235752Y-2258664D01*
X-16216969Y-2252038D01*
X-15446969Y-1892038D01*
X-15428596Y-1880945D01*
X-15413984Y-1867410D01*
X-15402294Y-1851285D01*
X-15393974Y-1833189D01*
X-15389344Y-1813817D01*
X-15388582Y-1793915D01*
X-15448477Y-795668D01*
X-15449822Y-741830D01*
X-14581584Y-741830D01*
X-14561584Y-1851830D01*
X-14560802Y-1862707D01*
X-14556386Y-1882129D01*
X-14496386Y-2062129D01*
X-14483535Y-2087832D01*
X-14470647Y-2103017D01*
X-14455045Y-2115397D01*
X-14437327Y-2124495D01*
X-14418175Y-2129961D01*
X-14308175Y-2149961D01*
X-14290445Y-2151599D01*
X-14270616Y-2149734D01*
X-14251531Y-2144036D01*
X-10291531Y-524036D01*
X-10273554Y-514477D01*
X-10258158Y-501842D01*
X-10245523Y-486446D01*
X-10236134Y-468881D01*
X-10230352Y-449821D01*
X-10228400Y-430000D01*
X-10228400Y680000D01*
X-10229529Y695103D01*
X-10234406Y714414D01*
X-10324406Y964414D01*
X-10334299Y984570D01*
X-10346592Y1000241D01*
X-10361705Y1013212D01*
X-10379060Y1022986D01*
X-10397987Y1029187D01*
X-10417760Y1031575D01*
X-10437620Y1030061D01*
X-10456802Y1024700D01*
X-14496802Y-545300D01*
X-14516358Y-555464D01*
X-14531767Y-568083D01*
X-14544418Y-583466D01*
X-14553825Y-601021D01*
X-14559627Y-620075D01*
X-14579627Y-720075D01*
X-14581584Y-741830D01*
X-15449822Y-741830D01*
X-15458242Y-405059D01*
X-15443099Y-283915D01*
X-15397063Y-232124D01*
X-15332269Y-199727D01*
X-14972004Y-171285D01*
X-14947770Y-166353D01*
X-14929592Y-158214D01*
X-14859592Y-118214D01*
X-14849514Y-111634D01*
X-14834751Y-98265D01*
X-14822879Y-82273D01*
X-14792879Y-32273D01*
X-14783580Y-12028D01*
X-14779185Y7398D01*
X-14759185Y167398D01*
X-14758658Y187239D01*
X-14788658Y607239D01*
X-14790967Y622695D01*
X-14900967Y1102695D01*
X-14907392Y1121790D01*
X-14917325Y1139054D01*
X-14967325Y1209054D01*
X-14982174Y1225646D01*
X-14998235Y1237424D01*
X-15016286Y1245843D01*
X-15035632Y1250579D01*
X-15105632Y1260579D01*
X-15119629Y1261599D01*
X-15139457Y1259719D01*
X-15533515Y1182830D01*
X-15567079Y1187025D01*
X-15592513Y1208825D01*
X-15620187Y1291849D01*
X-15708400Y2095564D01*
X-15708400Y2115625D01*
X-15706672Y2116777D01*
X-15031715Y2312417D01*
X-15010991Y2321002D01*
X-14994570Y2332273D01*
X-14980664Y2346531D01*
X-14969806Y2363228D01*
X-14962414Y2381723D01*
X-14958773Y2401304D01*
X-14959021Y2421220D01*
X-14998961Y2780680D01*
X-15098904Y3780110D01*
X-15103647Y3802230D01*
X-15111786Y3820408D01*
X-15151786Y3890408D01*
X-15165088Y3908635D01*
X-15179917Y3921931D01*
X-15197056Y3932078D01*
X-15215845Y3938687D01*
X-15235561Y3941503D01*
X-15255449Y3940419D01*
X-15385449Y3920419D01*
X-15411559Y3912711D01*
X-15428847Y3902822D01*
X-15808847Y3632822D01*
X-15809509Y3632339D01*
X-15810003Y3633573D01*
X-15918746Y4948374D01*
X-15919185Y4952602D01*
X-15959185Y5272602D01*
X-15961434Y5284642D01*
X-15991434Y5404642D01*
X-15998579Y5424326D01*
X-16008983Y5441309D01*
X-16022501Y5455937D01*
X-16112501Y5535937D01*
X-16133232Y5550196D01*
X-16151727Y5557587D01*
X-16171308Y5561228D01*
X-16191224Y5560978D01*
X-16210708Y5556848D01*
X-17030708Y5296848D01*
X-17041790Y5292608D01*
X-17059054Y5282675D01*
X-17129054Y5232675D01*
X-17145249Y5218265D01*
X-17157121Y5202273D01*
X-17217121Y5102273D01*
X-17226386Y5082129D01*
X-17256386Y4992129D01*
X-17260218Y4976699D01*
X-17261550Y4956827D01*
X-17251550Y4636827D01*
X-17251276Y4631898D01*
X-17231276Y4381898D01*
X-17231027Y4379224D01*
X-17151216Y3630994D01*
X-17112320Y3086458D01*
X-17112713Y3084494D01*
X-17398063Y2972083D01*
X-17738815Y2980602D01*
X-17739947Y2983432D01*
X-17868722Y4598077D01*
X-17870655Y4611288D01*
X-17900655Y4751288D01*
X-17905667Y4767733D01*
X-17945667Y4867733D01*
X-17959671Y4892208D01*
X-17973351Y4906684D01*
X-17989592Y4918214D01*
X-18059592Y4958214D01*
X-18087080Y4968981D01*
X-18106831Y4971551D01*
X-18126703Y4970218D01*
X-18246703Y4950218D01*
X-18268079Y4944194D01*
X-19208079Y4564194D01*
X-19221765Y4557424D01*
X-19237826Y4545646D01*
X-19251280Y4530960D01*
X-19341280Y4410960D01*
X-19353600Y4389517D01*
X-19359511Y4370498D01*
X-19361598Y4350690D01*
X-19359780Y4330856D01*
X-19030959Y2617001D01*
X-19023340Y2502717D01*
X-19050052Y2453745D01*
X-19097549Y2437913D01*
X-19216423Y2410480D01*
X-19619865Y2371120D01*
X-19634642Y2368566D01*
X-19754642Y2338566D01*
X-19776772Y2330194D01*
X-19793469Y2319336D01*
X-19893469Y2239336D01*
X-19904048Y2229566D01*
X-19916197Y2213783D01*
X-19925033Y2195933D01*
X-19930218Y2176703D01*
X-19950218Y2056703D01*
X-19951232Y2031358D01*
X-22850459Y2031358D01*
X-22995243Y3378722D01*
X-23316533Y6368664D01*
X-23205030Y6400522D01*
X5935400Y6400522D01*
X5935400Y6266456D01*
X5961555Y6134965D01*
X6012860Y6011104D01*
X6087344Y5899632D01*
X6182143Y5804833D01*
X6293615Y5730349D01*
X6417476Y5679044D01*
X6548967Y5652889D01*
X6683033Y5652889D01*
X6814524Y5679044D01*
X6938385Y5730349D01*
X7049857Y5804833D01*
X7134013Y5888989D01*
X7432394Y5888989D01*
X8717118Y4604265D01*
X8617476Y4584445D01*
X8493615Y4533140D01*
X8382143Y4458656D01*
X8287344Y4363857D01*
X8212860Y4252385D01*
X8161555Y4128524D01*
X8135400Y3997033D01*
X8135400Y3862967D01*
X8161555Y3731476D01*
X8212860Y3607615D01*
X8287344Y3496143D01*
X8382143Y3401344D01*
X8493615Y3326860D01*
X8617476Y3275555D01*
X8748967Y3249400D01*
X8883033Y3249400D01*
X9014524Y3275555D01*
X9138385Y3326860D01*
X9249857Y3401344D01*
X9334013Y3485500D01*
X9335883Y3485500D01*
X11690258Y1131124D01*
X11704171Y1114171D01*
X11721124Y1100258D01*
X11721127Y1100255D01*
X11771854Y1058624D01*
X11822459Y1031575D01*
X11849074Y1017349D01*
X11932863Y991932D01*
X11998170Y985500D01*
X11998180Y985500D01*
X12020000Y983351D01*
X12041820Y985500D01*
X15697987Y985500D01*
X15782143Y901344D01*
X15893615Y826860D01*
X16017476Y775555D01*
X16148967Y749400D01*
X16283033Y749400D01*
X16414524Y775555D01*
X16538385Y826860D01*
X16649857Y901344D01*
X16744656Y996143D01*
X16819140Y1107615D01*
X16870445Y1231476D01*
X16896600Y1362967D01*
X16896600Y1497033D01*
X16870445Y1628524D01*
X16819140Y1752385D01*
X16744656Y1863857D01*
X16649857Y1958656D01*
X16538385Y2033140D01*
X16414524Y2084445D01*
X16283033Y2110600D01*
X16235732Y2110600D01*
X16310956Y2185824D01*
X16385440Y2297296D01*
X16436745Y2421157D01*
X16462900Y2552648D01*
X16462900Y2686714D01*
X16436745Y2818205D01*
X16385440Y2942066D01*
X16310956Y3053538D01*
X16216157Y3148337D01*
X16104685Y3222821D01*
X15980824Y3274126D01*
X15849333Y3300281D01*
X15715267Y3300281D01*
X15583776Y3274126D01*
X15459915Y3222821D01*
X15348443Y3148337D01*
X15264287Y3064181D01*
X14664437Y3064181D01*
X14188566Y3540051D01*
X14244658Y3596143D01*
X14319142Y3707615D01*
X14370447Y3831476D01*
X14396602Y3962967D01*
X14396602Y4097033D01*
X14370447Y4228524D01*
X14319142Y4352385D01*
X14244658Y4463857D01*
X14149859Y4558656D01*
X14038387Y4633140D01*
X13914526Y4684445D01*
X13783035Y4710600D01*
X13648969Y4710600D01*
X13517478Y4684445D01*
X13393617Y4633140D01*
X13282145Y4558656D01*
X13187346Y4463857D01*
X13112862Y4352385D01*
X13061557Y4228524D01*
X13035402Y4097033D01*
X13035402Y3962967D01*
X13061557Y3831476D01*
X13112862Y3707615D01*
X13187346Y3596143D01*
X13271502Y3511987D01*
X13271502Y3405818D01*
X13269353Y3383998D01*
X13271502Y3362178D01*
X13271502Y3362169D01*
X13277934Y3296862D01*
X13293879Y3244299D01*
X13303351Y3213073D01*
X13344626Y3135853D01*
X13365487Y3110434D01*
X13400173Y3068169D01*
X13417131Y3054252D01*
X13976882Y2494500D01*
X12084117Y2494500D01*
X7946258Y6632359D01*
X7932340Y6649318D01*
X7864656Y6704865D01*
X7787437Y6746140D01*
X7703648Y6771557D01*
X7638341Y6777989D01*
X7638331Y6777989D01*
X7616511Y6780138D01*
X7594691Y6777989D01*
X7134013Y6777989D01*
X7049857Y6862145D01*
X6938385Y6936629D01*
X6814524Y6987934D01*
X6683033Y7014089D01*
X6548967Y7014089D01*
X6417476Y6987934D01*
X6293615Y6936629D01*
X6182143Y6862145D01*
X6087344Y6767346D01*
X6012860Y6655874D01*
X5961555Y6532013D01*
X5935400Y6400522D01*
X-23205030Y6400522D01*
X-6884839Y11063433D01*
X-6850462Y10542062D01*
X-6849839Y10523265D01*
X-6849835Y10523232D01*
X-6849634Y10518070D01*
X-6848358Y10490330D01*
X-6847016Y10481054D01*
X-6847069Y10471692D01*
X-6846510Y10466057D01*
X-6843725Y10439879D01*
X-6835380Y10313316D01*
X-6831219Y10290487D01*
X-6661219Y9730487D01*
X-6653593Y9712088D01*
X-6639178Y9691656D01*
X-6339178Y9361656D01*
X-6324400Y9348303D01*
X-6306241Y9337597D01*
X-5956241Y9177597D01*
X-5937403Y9171132D01*
X-5927141Y9169253D01*
X-5467141Y9109253D01*
X-5438255Y9109627D01*
X-4928255Y9189627D01*
X-4908976Y9194628D01*
X-4898563Y9199126D01*
X-4638563Y9329126D01*
X-4621502Y9339897D01*
X-981502Y12179897D01*
X-967075Y12193629D01*
X-955605Y12209911D01*
X-947532Y12228119D01*
X-943166Y12247551D01*
X-942674Y12267462D01*
X-948039Y12293378D01*
X-1028039Y12523378D01*
X-1036395Y12541457D01*
X-1048117Y12557560D01*
X-1062755Y12571066D01*
X-1079747Y12581456D01*
X-1093035Y12586766D01*
X-1329979Y12662588D01*
X-1493784Y12769417D01*
X-1497144Y12800068D01*
X-1497010Y12847254D01*
X-1496142Y12868083D01*
X-1491405Y12919342D01*
X-1481341Y12981824D01*
X-1467396Y13046130D01*
X-1450453Y13110424D01*
X-1430607Y13175793D01*
X-1408441Y13241264D01*
X-1399318Y13266523D01*
X-1374322Y13331929D01*
X-1347935Y13396357D01*
X-1320923Y13458494D01*
X-1292653Y13520226D01*
X-1262209Y13583618D01*
X-1230839Y13646148D01*
X-1198780Y13707570D01*
X-1166199Y13767769D01*
X-1134488Y13824413D01*
X4358496Y13824413D01*
X4358610Y13813476D01*
X4361831Y13793821D01*
X4441831Y13493821D01*
X4447004Y13479082D01*
X4557004Y13229082D01*
X4565523Y13213554D01*
X4578158Y13198158D01*
X4748158Y13028158D01*
X4757708Y13019737D01*
X4774563Y13009126D01*
X4894563Y12949126D01*
X4913062Y12942036D01*
X4932692Y12938663D01*
X4952602Y12939185D01*
X5032602Y12949185D01*
X5058782Y12956093D01*
X5076358Y12965464D01*
X5286358Y13105464D01*
X5295289Y13112155D01*
X5605289Y13372155D01*
X5614452Y13380866D01*
X5873178Y13659494D01*
X6201842Y13988158D01*
X6203615Y13989976D01*
X6983615Y14809976D01*
X6989185Y14816342D01*
X7399185Y15326342D01*
X7399659Y15326937D01*
X7779659Y15806937D01*
X7786287Y15816362D01*
X8016287Y16186362D01*
X8027658Y16211972D01*
X8031249Y16231563D01*
X8030950Y16251477D01*
X8026771Y16270951D01*
X8018873Y16289235D01*
X8007560Y16305628D01*
X7993266Y16319498D01*
X7976541Y16330313D01*
X7958028Y16337658D01*
X7938437Y16341249D01*
X7818437Y16351249D01*
X7793297Y16350218D01*
X7433297Y16290218D01*
X7425875Y16288694D01*
X6975875Y16178694D01*
X6975833Y16178684D01*
X6485833Y16058684D01*
X6474713Y16055275D01*
X5934713Y15855275D01*
X5923638Y15850405D01*
X5533638Y15650405D01*
X5521199Y15642856D01*
X5211199Y15422856D01*
X5195949Y15409563D01*
X4885949Y15079563D01*
X4883222Y15076541D01*
X4623222Y14776541D01*
X4615099Y14765807D01*
X4605843Y14748172D01*
X4455843Y14378172D01*
X4452058Y14367018D01*
X4372058Y14077018D01*
X4368496Y14054413D01*
X4358496Y13824413D01*
X-1134488Y13824413D01*
X-1131902Y13829032D01*
X-1097405Y13888722D01*
X-1061323Y13949311D01*
X-1025325Y14008066D01*
X-987911Y14067519D01*
X-948946Y14127835D01*
X-910509Y14185881D01*
X-870682Y14244615D01*
X-829564Y14303851D01*
X-789134Y14360829D01*
X-747529Y14418218D01*
X-706780Y14473286D01*
X-664987Y14528671D01*
X-622151Y14584343D01*
X-578240Y14640330D01*
X-535614Y14693688D01*
X-491959Y14747359D01*
X-447379Y14801216D01*
X-401796Y14855323D01*
X-373473Y14888378D01*
X1428746Y14888378D01*
X1429057Y14868464D01*
X1469057Y14518464D01*
X1475909Y14491667D01*
X1585909Y14221667D01*
X1599293Y14198283D01*
X1729293Y14028283D01*
X1750086Y14007946D01*
X1767245Y13997834D01*
X1786048Y13991264D01*
X1805770Y13988488D01*
X1825656Y13989613D01*
X1844939Y13994597D01*
X1862880Y14003246D01*
X1878789Y14015229D01*
X2378789Y14475229D01*
X2385937Y14482501D01*
X2624643Y14751045D01*
X2857386Y14993486D01*
X3152822Y15212681D01*
X3434171Y15348504D01*
X3440772Y15351996D01*
X3700772Y15501996D01*
X3710062Y15508054D01*
X3724895Y15521346D01*
X3834895Y15641346D01*
X3844498Y15653584D01*
X3853880Y15671153D01*
X3973780Y15960911D01*
X4153720Y16390768D01*
X4157923Y16402915D01*
X4287923Y16872915D01*
X4290382Y16884315D01*
X4390382Y17524315D01*
X4391600Y17540000D01*
X4391600Y17550000D01*
X4389399Y17571035D01*
X4383385Y17590022D01*
X4373783Y17607472D01*
X4360961Y17622713D01*
X4345412Y17635159D01*
X4327733Y17644333D01*
X4308605Y17649882D01*
X4288761Y17651592D01*
X4268965Y17649399D01*
X4249978Y17643385D01*
X3899978Y17493385D01*
X3893855Y17490516D01*
X3383855Y17230516D01*
X3377974Y17227269D01*
X2857974Y16917269D01*
X2847451Y16910063D01*
X2527451Y16660063D01*
X2520125Y16653757D01*
X2140125Y16293757D01*
X2132155Y16285289D01*
X1872155Y15975289D01*
X1863112Y15962659D01*
X1663112Y15632659D01*
X1657044Y15621010D01*
X1507044Y15281010D01*
X1500268Y15259392D01*
X1430268Y14899392D01*
X1428746Y14888378D01*
X-373473Y14888378D01*
X-357803Y14906666D01*
X-313047Y14958053D01*
X-262065Y15015586D01*
X-215493Y15067253D01*
X-168021Y15119076D01*
X-119682Y15171002D01*
X-67685Y15225943D01*
X-17606Y15277995D01*
X30372Y15327097D01*
X79181Y15376298D01*
X131683Y15428411D01*
X181989Y15477572D01*
X233057Y15526733D01*
X284068Y15575107D01*
X334309Y15622061D01*
X384424Y15668227D01*
X435228Y15714365D01*
X487448Y15761108D01*
X539517Y15807049D01*
X591390Y15852163D01*
X644772Y15897933D01*
X698141Y15943038D01*
X700745Y15945716D01*
X703778Y15947892D01*
X708010Y15951656D01*
X762594Y16000897D01*
X770473Y16009542D01*
X779464Y16017020D01*
X783416Y16021076D01*
X832994Y16072688D01*
X840436Y16082128D01*
X849090Y16090468D01*
X852735Y16094802D01*
X899833Y16151611D01*
X906822Y16161950D01*
X915128Y16171258D01*
X918437Y16175854D01*
X961323Y16236328D01*
X967618Y16247346D01*
X975317Y16257428D01*
X978265Y16262264D01*
X1016662Y16326253D01*
X1022164Y16337858D01*
X1029141Y16348624D01*
X1031708Y16353672D01*
X1065344Y16420998D01*
X1070011Y16433190D01*
X1076233Y16444666D01*
X1078397Y16449899D01*
X1107313Y16521234D01*
X1111133Y16534160D01*
X1116586Y16546485D01*
X1118324Y16551875D01*
X1142392Y16628372D01*
X1145324Y16642330D01*
X1149976Y16655807D01*
X1151255Y16661324D01*
X1170042Y16745075D01*
X1171890Y16760034D01*
X1175533Y16774653D01*
X1176321Y16780261D01*
X1188171Y16869159D01*
X1188727Y16885130D01*
X1191139Y16900923D01*
X1191405Y16906580D01*
X1195249Y17002919D01*
X1194292Y17019440D01*
X1195220Y17035956D01*
X1194945Y17041613D01*
X1189571Y17138242D01*
X1187127Y17154060D01*
X1186541Y17170053D01*
X1185744Y17175659D01*
X1172191Y17266363D01*
X1168615Y17280602D01*
X1166816Y17295168D01*
X1165539Y17300686D01*
X1146138Y17381881D01*
X1141713Y17394704D01*
X1138973Y17407978D01*
X1137255Y17413374D01*
X1112396Y17489601D01*
X1107191Y17501479D01*
X1103588Y17513946D01*
X1101456Y17519193D01*
X1072079Y17590043D01*
X1066079Y17601270D01*
X1061620Y17613191D01*
X1059093Y17618259D01*
X1024340Y17686735D01*
X1017626Y17697270D01*
X1012380Y17708607D01*
X1009478Y17713470D01*
X971400Y17776268D01*
X964143Y17785958D01*
X958270Y17796534D01*
X955019Y17801171D01*
X913239Y17859869D01*
X905274Y17869017D01*
X898625Y17879155D01*
X895041Y17883540D01*
X848361Y17939844D01*
X839770Y17948357D01*
X832417Y17957950D01*
X828522Y17962061D01*
X778987Y18013589D01*
X769812Y18021434D01*
X761786Y18030450D01*
X757600Y18034264D01*
X703032Y18083272D01*
X693383Y18090367D01*
X684793Y18098706D01*
X680339Y18102205D01*
X623855Y18145942D01*
X613927Y18152182D01*
X604950Y18159727D01*
X600258Y18162898D01*
X539783Y18203147D01*
X529478Y18208637D01*
X520024Y18215494D01*
X515117Y18218322D01*
X451148Y18254594D01*
X447165Y18256363D01*
X443555Y18258792D01*
X438552Y18261445D01*
X396152Y18283544D01*
X396153Y18283544D01*
X248058Y18360735D01*
X248053Y18360737D01*
X142559Y18415730D01*
X142554Y18415732D01*
X37313Y18470600D01*
X37312Y18470600D01*
X-46699Y18514406D01*
X-130550Y18558129D01*
X-255855Y18623477D01*
X-255958Y18623531D01*
X-339358Y18667031D01*
X-339361Y18667032D01*
X-422557Y18710428D01*
X-422558Y18710429D01*
X-515905Y18759124D01*
X-609001Y18807693D01*
X-609002Y18807694D01*
X-691513Y18850744D01*
X-691514Y18850745D01*
X-794289Y18904373D01*
X-794322Y18904391D01*
X-917255Y18968545D01*
X-917256Y18968545D01*
X-998842Y19011127D01*
X-998880Y19011147D01*
X-1080241Y19053615D01*
X-1080274Y19053633D01*
X-1161335Y19095948D01*
X-1161416Y19095991D01*
X-1242308Y19138222D01*
X-1242309Y19138222D01*
X-1343039Y19190816D01*
X-1343040Y19190816D01*
X-1483257Y19264036D01*
X-1483301Y19264059D01*
X-1582991Y19316122D01*
X-1582992Y19316123D01*
X-1662342Y19357567D01*
X-1662377Y19357585D01*
X-1741439Y19398883D01*
X-1741473Y19398901D01*
X-1839794Y19450263D01*
X-1839896Y19450317D01*
X-1918253Y19491255D01*
X-1918287Y19491273D01*
X-1996325Y19532049D01*
X-1996355Y19532065D01*
X-2112791Y19592910D01*
X-2112835Y19592933D01*
X-2209343Y19643370D01*
X-2209348Y19643372D01*
X-2305216Y19693481D01*
X-2305251Y19693500D01*
X-2381612Y19733417D01*
X-2381613Y19733418D01*
X-2462279Y19775588D01*
X-2462314Y19775607D01*
X-2533205Y19812672D01*
X-2636507Y19866689D01*
X-2636537Y19866705D01*
X-2720570Y19910650D01*
X-2720571Y19910651D01*
X-2794830Y19949488D01*
X-2868685Y19988120D01*
X-2969521Y20040869D01*
X-2969566Y20040893D01*
X-3051548Y20083784D01*
X-3159879Y20140468D01*
X-3159978Y20140521D01*
X-3231750Y20178080D01*
X-3231751Y20178081D01*
X-3303067Y20215405D01*
X-3303069Y20215406D01*
X-3391511Y20261698D01*
X-3391577Y20261733D01*
X-3479330Y20307672D01*
X-3479372Y20307694D01*
X-3583805Y20362371D01*
X-3652816Y20398507D01*
X-3721347Y20434397D01*
X-3789391Y20470036D01*
X-3789393Y20470037D01*
X-3856949Y20505423D01*
X-3940701Y20549299D01*
X-3940702Y20549299D01*
X-4007119Y20584098D01*
X-4007123Y20584099D01*
X-4122010Y20644304D01*
X-4122073Y20644337D01*
X-4203260Y20686888D01*
X-4203259Y20686888D01*
X-4283552Y20728977D01*
X-4394584Y20787189D01*
X-4503866Y20844499D01*
X-4503870Y20844501D01*
X-4596112Y20892882D01*
X-4596150Y20892902D01*
X-4687192Y20940665D01*
X-4687198Y20940667D01*
X-4776816Y20987694D01*
X-4776850Y20987712D01*
X-4879846Y21041770D01*
X-4980907Y21094826D01*
X-4980909Y21094827D01*
X-5051960Y21132136D01*
X-5051961Y21132136D01*
X-5156658Y21187126D01*
X-5156657Y21187126D01*
X-5232012Y21226715D01*
X-5232014Y21226716D01*
X-5312749Y21269140D01*
X-5312779Y21269156D01*
X-5379036Y21303984D01*
X-5379037Y21303984D01*
X-5469961Y21351790D01*
X-5469964Y21351791D01*
X-5546242Y21391908D01*
X-5633301Y21437710D01*
X-5633307Y21437713D01*
X-5718168Y21482373D01*
X-5718167Y21482373D01*
X-5789178Y21519758D01*
X-5789180Y21519759D01*
X-5858571Y21556305D01*
X-5858575Y21556307D01*
X-5926308Y21591992D01*
X-5997702Y21629621D01*
X-5997736Y21629639D01*
X-6077834Y21671875D01*
X-6077836Y21671876D01*
X-6160216Y21715339D01*
X-6160223Y21715342D01*
X-6239467Y21757178D01*
X-6315550Y21797372D01*
X-6315551Y21797372D01*
X-6388236Y21835801D01*
X-6388271Y21835820D01*
X-6457953Y21872690D01*
X-6457957Y21872692D01*
X-6524170Y21907759D01*
X-6524174Y21907761D01*
X-6598151Y21946983D01*
X-6598197Y21947008D01*
X-6663870Y21981873D01*
X-6663957Y21981920D01*
X-6731769Y22017979D01*
X-6757196Y22031529D01*
X-6747265Y22033513D01*
X-6747266Y22033513D01*
X-6655931Y22051603D01*
X-6564743Y22069504D01*
X-6473926Y22087175D01*
X-6382837Y22104739D01*
X-6292668Y22121967D01*
X-6292655Y22121969D01*
X-6201558Y22139212D01*
X-6201557Y22139212D01*
X-6111913Y22156019D01*
X-6021924Y22172731D01*
X-5931843Y22189297D01*
X-5842131Y22205631D01*
X-5752841Y22221727D01*
X-5663926Y22237592D01*
X-5574976Y22253300D01*
X-5486573Y22268747D01*
X-5397396Y22284165D01*
X-5309316Y22299225D01*
X-5221391Y22314095D01*
X-5133253Y22328835D01*
X-5045527Y22343338D01*
X-4958468Y22357564D01*
X-4870721Y22371737D01*
X-4783640Y22385630D01*
X-4696924Y22399299D01*
X-4610507Y22412753D01*
X-4523719Y22426094D01*
X-4437121Y22439236D01*
X-4342866Y22453343D01*
X-4248372Y22467280D01*
X-4153859Y22481011D01*
X-4059899Y22494453D01*
X-3966452Y22507614D01*
X-3872654Y22520614D01*
X-3779342Y22533339D01*
X-3686485Y22545790D01*
X-3593288Y22558073D01*
X-3500912Y22570041D01*
X-3408601Y22581787D01*
X-3316453Y22593299D01*
X-3215902Y22605618D01*
X-3124537Y22616587D01*
X-3032829Y22627381D01*
X-2933773Y22638798D01*
X-2842349Y22649107D01*
X-2743407Y22660018D01*
X-2652955Y22669765D01*
X-2562792Y22679265D01*
X-2472715Y22688537D01*
X-2374271Y22698422D01*
X-2276835Y22707943D01*
X-2179296Y22717215D01*
X-2081932Y22726205D01*
X-1984945Y22734898D01*
X-1887982Y22743326D01*
X-1791530Y22751444D01*
X-1695332Y22759275D01*
X-1599016Y22766849D01*
X-1503676Y22774080D01*
X-1407783Y22781086D01*
X-1312706Y22787765D01*
X-1217431Y22794188D01*
X-1122593Y22800313D01*
X-1027885Y22806157D01*
X-933776Y22811696D01*
X-839586Y22816968D01*
X-745682Y22821951D01*
X-644206Y22827030D01*
X-58280Y22849943D01*
X-41085Y22850472D01*
X66085Y22853405D01*
X165798Y22855794D01*
X237895Y22857284D01*
X2142341Y22831548D01*
X2217450Y22827838D01*
X2311604Y22822834D01*
X2405206Y22817517D01*
X2506335Y22811390D01*
X2601781Y22805240D01*
X2619072Y22804060D01*
X4143923Y22654425D01*
X4200257Y22647062D01*
X4290254Y22634952D01*
X4377919Y22622813D01*
X4464339Y22610518D01*
X4557401Y22596909D01*
X4643060Y22584045D01*
X4728751Y22570849D01*
X4814261Y22557354D01*
X4855708Y22550646D01*
X6264040Y22277602D01*
X6343580Y22259420D01*
X6426762Y22240065D01*
X6508034Y22220834D01*
X6587313Y22201768D01*
X6643062Y22188147D01*
X7887743Y21842403D01*
X8136604Y21767404D01*
X8208865Y21744244D01*
X8292863Y21716980D01*
X8378383Y21688858D01*
X8458200Y21662280D01*
X8458304Y21662256D01*
X8460909Y21661389D01*
X8478114Y21655794D01*
X8484902Y21654300D01*
X8491356Y21651737D01*
X8496809Y21650208D01*
X8575591Y21628718D01*
X8589079Y21626423D01*
X8602162Y21622423D01*
X8607721Y21621342D01*
X8691961Y21605577D01*
X8706884Y21604272D01*
X8721536Y21601164D01*
X8727169Y21600574D01*
X8820799Y21591435D01*
X8837248Y21591442D01*
X8853587Y21589571D01*
X8859250Y21589518D01*
X8959080Y21589284D01*
X8975428Y21590848D01*
X8991847Y21590533D01*
X8997489Y21591016D01*
X9090697Y21599661D01*
X9105711Y21602552D01*
X9120955Y21603621D01*
X9126532Y21604605D01*
X9213247Y21620537D01*
X9227045Y21624496D01*
X9241221Y21626706D01*
X9246695Y21628157D01*
X9327694Y21650253D01*
X9340238Y21655032D01*
X9353296Y21658154D01*
X9358637Y21660039D01*
X9389371Y21671131D01*
X9457735Y21679080D01*
X9477198Y21683308D01*
X9501966Y21695204D01*
X10001966Y22025204D01*
X10020275Y22040676D01*
X10720275Y22790676D01*
X10725925Y22797274D01*
X10930748Y23058258D01*
X10973108Y23107671D01*
X10973168Y23107756D01*
X10974653Y23109485D01*
X11024493Y23168320D01*
X11024549Y23168402D01*
X11026007Y23170118D01*
X11073064Y23226325D01*
X11073118Y23226405D01*
X11074551Y23228111D01*
X11122204Y23285697D01*
X11122262Y23285783D01*
X11123793Y23287630D01*
X11177449Y23353291D01*
X11177503Y23353372D01*
X11179111Y23355338D01*
X11229925Y23418353D01*
X11229981Y23418438D01*
X11231469Y23420280D01*
X11278466Y23479293D01*
X11278517Y23479372D01*
X11279950Y23481167D01*
X11326390Y23540191D01*
X11326445Y23540277D01*
X11327863Y23542075D01*
X11372706Y23599765D01*
X11372763Y23599856D01*
X11374179Y23601673D01*
X11421562Y23663385D01*
X11421614Y23663468D01*
X11423086Y23665382D01*
X11470871Y23728422D01*
X11470925Y23728510D01*
X11472368Y23730410D01*
X11516524Y23789411D01*
X11516576Y23789497D01*
X11517950Y23791328D01*
X11561547Y23850303D01*
X11561596Y23850385D01*
X11562980Y23852253D01*
X11606990Y23912537D01*
X11607039Y23912621D01*
X11608454Y23914555D01*
X11653796Y23977471D01*
X11653845Y23977555D01*
X11655294Y23979563D01*
X11699996Y24042428D01*
X11700047Y24042517D01*
X11701435Y24044465D01*
X11743638Y24104595D01*
X11743688Y24104684D01*
X11745083Y24106668D01*
X11788532Y24169401D01*
X11788581Y24169488D01*
X11789945Y24171454D01*
X11830949Y24231441D01*
X11830999Y24231532D01*
X11832335Y24233482D01*
X11872752Y24293389D01*
X11872802Y24293482D01*
X11874156Y24295485D01*
X11915741Y24357958D01*
X11915787Y24358044D01*
X11917172Y24360122D01*
X11958983Y24423814D01*
X11959030Y24423905D01*
X11960458Y24426077D01*
X12002445Y24490975D01*
X12002493Y24491067D01*
X12003923Y24493276D01*
X12046887Y24560678D01*
X12046931Y24560765D01*
X12048429Y24563115D01*
X12092277Y24632993D01*
X12092326Y24633091D01*
X12093803Y24635445D01*
X12135225Y24702513D01*
X12135269Y24702602D01*
X12136674Y24704876D01*
X12175760Y24769140D01*
X12175806Y24769236D01*
X12177179Y24771492D01*
X12214786Y24834278D01*
X12214830Y24834370D01*
X12216190Y24836640D01*
X12254651Y24901850D01*
X12254696Y24901946D01*
X12256060Y24904258D01*
X12293045Y24967964D01*
X12293085Y24968052D01*
X12294475Y24970445D01*
X12332960Y25037825D01*
X12333005Y25037926D01*
X12334423Y25040410D01*
X12372118Y25107543D01*
X12372161Y25107640D01*
X12373571Y25110153D01*
X12410476Y25177029D01*
X12410517Y25177125D01*
X12411916Y25179662D01*
X12448031Y25246267D01*
X12448071Y25246361D01*
X12449469Y25248943D01*
X12484792Y25315268D01*
X12484831Y25315364D01*
X12486225Y25317983D01*
X12521415Y25385281D01*
X12521455Y25385379D01*
X12522864Y25388080D01*
X12557874Y25456318D01*
X12557913Y25456416D01*
X12559346Y25459216D01*
X12593495Y25527113D01*
X12593530Y25527205D01*
X12594952Y25530039D01*
X12628858Y25598827D01*
X12628894Y25598922D01*
X12630336Y25601856D01*
X12663947Y25671499D01*
X12663983Y25671598D01*
X12665426Y25674598D01*
X12698117Y25743827D01*
X12698148Y25743915D01*
X12699632Y25747071D01*
X12733076Y25819545D01*
X12733106Y25819632D01*
X12734591Y25822866D01*
X12765929Y25892414D01*
X12765960Y25892506D01*
X12767441Y25895812D01*
X12799398Y25968505D01*
X12799428Y25968596D01*
X12800945Y25972071D01*
X12831840Y26044218D01*
X12831867Y26044304D01*
X12833381Y26047866D01*
X12863705Y26120635D01*
X12863728Y26120710D01*
X12865272Y26124448D01*
X12879107Y26158622D01*
X12897078Y26194973D01*
X12901257Y26204663D01*
X13131257Y26824663D01*
X13137011Y26849080D01*
X13147896Y26949764D01*
X13168925Y27030482D01*
X13169039Y27031202D01*
X13169288Y27031886D01*
X13170658Y27037381D01*
X13191074Y27121786D01*
X13191208Y27122738D01*
X13191519Y27123646D01*
X13192786Y27129165D01*
X13202695Y27173761D01*
X13310183Y27219827D01*
X13557573Y27236888D01*
X13581756Y27234272D01*
X13581756Y27234272D01*
G37*
X13581756Y27234272D02*
X13887109Y27162424D01*
X14083092Y27092071D01*
X14122714Y27075056D01*
X14184162Y27046849D01*
X14243305Y27018035D01*
X14302465Y26987612D01*
X14361679Y26955586D01*
X14368229Y26951873D01*
X14686085Y26727929D01*
X15094724Y26418958D01*
X15119528Y26405172D01*
X15232555Y26361700D01*
X15241004Y26358166D01*
X15252735Y26351372D01*
X15257905Y26349061D01*
X15329634Y26317609D01*
X15342686Y26313349D01*
X15355092Y26307457D01*
X15360433Y26305575D01*
X15435238Y26279811D01*
X15448830Y26276572D01*
X15461896Y26271644D01*
X15467374Y26270210D01*
X15476388Y26267918D01*
X15509528Y26255172D01*
X15530780Y26249547D01*
X15648776Y26231669D01*
X15668806Y26228378D01*
X15671772Y26228185D01*
X15860780Y26199547D01*
X15889428Y26199291D01*
X16339428Y26259291D01*
X16352179Y26261831D01*
X16445578Y26286738D01*
X16689766Y26042550D01*
X16863336Y25820380D01*
X16889911Y25782845D01*
X16934784Y25717876D01*
X16974012Y25659670D01*
X17012896Y25600636D01*
X17055839Y25533864D01*
X17093319Y25474189D01*
X17129412Y25415455D01*
X17169248Y25349155D01*
X17208166Y25282838D01*
X17242920Y25222289D01*
X17277650Y25160499D01*
X17311704Y25098620D01*
X17347023Y25033064D01*
X17380324Y24969923D01*
X17412795Y24907070D01*
X17448249Y24836948D01*
X17481105Y24770531D01*
X17513108Y24704461D01*
X17544314Y24638680D01*
X17577563Y24567068D01*
X17608708Y24498512D01*
X17639573Y24429106D01*
X17669633Y24360050D01*
X17698724Y24291794D01*
X17728375Y24220717D01*
X17757996Y24148128D01*
X17787480Y24074236D01*
X17814698Y24004491D01*
X17841319Y23934794D01*
X17868169Y23862929D01*
X17893905Y23792493D01*
X17920077Y23719223D01*
X17945062Y23647633D01*
X17970431Y23573198D01*
X17994978Y23499399D01*
X18018659Y23426414D01*
X18042051Y23352473D01*
X18065265Y23277125D01*
X18087485Y23202997D01*
X18109198Y23128455D01*
X18131732Y23048647D01*
X18152519Y22972498D01*
X18172704Y22895838D01*
X18192640Y22816921D01*
X18210777Y22741471D01*
X18211320Y22739044D01*
X18175363Y22673227D01*
X18175326Y22673140D01*
X18174378Y22671413D01*
X18137870Y22603772D01*
X18137838Y22603696D01*
X18136902Y22601970D01*
X18100017Y22532799D01*
X18099982Y22532713D01*
X18099108Y22531084D01*
X18064554Y22465531D01*
X18064519Y22465445D01*
X18063711Y22463922D01*
X18029315Y22397954D01*
X18029284Y22397876D01*
X18028500Y22396383D01*
X17994268Y22330025D01*
X17994236Y22329945D01*
X17993479Y22328487D01*
X17959418Y22261764D01*
X17959388Y22261688D01*
X17958664Y22260280D01*
X17924245Y22192167D01*
X17924214Y22192088D01*
X17923491Y22190667D01*
X17888205Y22120114D01*
X17888176Y22120039D01*
X17887485Y22118667D01*
X17853967Y22050976D01*
X17853938Y22050899D01*
X17853276Y22049573D01*
X17818386Y21978424D01*
X17818357Y21978347D01*
X17817708Y21977034D01*
X17784063Y21907756D01*
X17784037Y21907687D01*
X17783413Y21906412D01*
X17748429Y21833697D01*
X17748402Y21833623D01*
X17747752Y21832283D01*
X17710452Y21753981D01*
X17710426Y21753908D01*
X17709816Y21752639D01*
X17675816Y21680586D01*
X17675793Y21680521D01*
X17675223Y21679325D01*
X17641959Y21608200D01*
X17641935Y21608131D01*
X17641407Y21607014D01*
X17609369Y21537932D01*
X17609343Y21537857D01*
X17608804Y21536706D01*
X17596108Y21509090D01*
X17564650Y21444473D01*
X17560709Y21435245D01*
X17554082Y21417328D01*
X17540918Y21388448D01*
X17540895Y21388381D01*
X17540420Y21387350D01*
X17509089Y21318070D01*
X17509070Y21318015D01*
X17508609Y21317006D01*
X17477512Y21247713D01*
X17477491Y21247651D01*
X17477039Y21246655D01*
X17446184Y21177372D01*
X17446163Y21177309D01*
X17445718Y21176321D01*
X17412247Y21100587D01*
X17412227Y21100525D01*
X17411772Y21099508D01*
X17380490Y21028167D01*
X17380471Y21028108D01*
X17380058Y21027178D01*
X17349044Y20955933D01*
X17349025Y20955873D01*
X17348606Y20954923D01*
X17316942Y20881642D01*
X17316923Y20881584D01*
X17316498Y20880611D01*
X17282378Y20801042D01*
X17282359Y20800982D01*
X17281935Y20800005D01*
X17249083Y20722801D01*
X17249064Y20722742D01*
X17248679Y20721847D01*
X17218868Y20651290D01*
X17218852Y20651239D01*
X17218479Y20650367D01*
X17188078Y20577915D01*
X17188063Y20577865D01*
X17187707Y20577029D01*
X17157624Y20504855D01*
X17157606Y20504796D01*
X17157247Y20503946D01*
X17126620Y20429965D01*
X17126603Y20429909D01*
X17126231Y20429022D01*
X17091660Y20344912D01*
X17091645Y20344861D01*
X17091274Y20343971D01*
X17060559Y20268707D01*
X17060542Y20268650D01*
X17060200Y20267823D01*
X17029873Y20193007D01*
X17029857Y20192952D01*
X17029510Y20192108D01*
X16996273Y20109547D01*
X16996257Y20109491D01*
X16995918Y20108661D01*
X16966427Y20034906D01*
X16966412Y20034855D01*
X16966106Y20034100D01*
X16937019Y19960902D01*
X16937005Y19960854D01*
X16936700Y19960097D01*
X16908027Y19887489D01*
X16908014Y19887442D01*
X16907715Y19886697D01*
X16879463Y19814713D01*
X16879448Y19814661D01*
X16879150Y19813912D01*
X16848257Y19734707D01*
X16848243Y19734658D01*
X16847933Y19733874D01*
X16817575Y19655529D01*
X16817560Y19655477D01*
X16817261Y19654715D01*
X16787445Y19577279D01*
X16787431Y19577230D01*
X16787140Y19576484D01*
X16757878Y19500006D01*
X16757863Y19499953D01*
X16757580Y19499223D01*
X16728880Y19423747D01*
X16728869Y19423707D01*
X16728593Y19422992D01*
X16700463Y19348569D01*
X16700450Y19348520D01*
X16700183Y19347825D01*
X16672632Y19274500D01*
X16672620Y19274454D01*
X16672348Y19273742D01*
X16642721Y19194411D01*
X16642709Y19194368D01*
X16642429Y19193628D01*
X16614178Y19117501D01*
X16614167Y19117459D01*
X16613896Y19116740D01*
X16585715Y19040336D01*
X16585702Y19040286D01*
X16585439Y19039584D01*
X16557390Y18963074D01*
X16557378Y18963027D01*
X16557109Y18962305D01*
X16528066Y18882585D01*
X16528053Y18882536D01*
X16527780Y18881797D01*
X16499659Y18804109D01*
X16499648Y18804064D01*
X16499388Y18803358D01*
X16476878Y18740788D01*
X16442469Y18659680D01*
X16435676Y18636052D01*
X16432141Y18613956D01*
X16432010Y18613570D01*
X16429991Y18604895D01*
X16426686Y18596631D01*
X16425144Y18591181D01*
X16403105Y18511148D01*
X16400616Y18496730D01*
X16396369Y18482725D01*
X16395301Y18477164D01*
X16379211Y18390087D01*
X16377881Y18374479D01*
X16374719Y18359140D01*
X16374161Y18353504D01*
X16365687Y18261289D01*
X16365790Y18244461D01*
X16364001Y18227730D01*
X16363990Y18222067D01*
X16364161Y18189085D01*
X16355676Y18136052D01*
X16355147Y18107701D01*
X16405147Y17697701D01*
X16409484Y17678262D01*
X16421016Y17654321D01*
X16611016Y17364321D01*
X16622135Y17350239D01*
X16962135Y16990239D01*
X16973411Y16979968D01*
X17751684Y16371318D01*
X18637481Y15614908D01*
X19423959Y14848341D01*
X20240742Y14001675D01*
X20702821Y13460705D01*
X20721992Y13437149D01*
X20775125Y13371322D01*
X20819370Y13316055D01*
X20867472Y13255494D01*
X20915604Y13194392D01*
X20959801Y13137834D01*
X21007462Y13076356D01*
X21051110Y13019603D01*
X21098296Y12957753D01*
X21144887Y12896169D01*
X21188042Y12838667D01*
X21230882Y12781140D01*
X21277757Y12717674D01*
X21322774Y12656217D01*
X21365799Y12596994D01*
X21410265Y12535285D01*
X21452008Y12476886D01*
X21493466Y12418431D01*
X21535069Y12359305D01*
X21576067Y12300576D01*
X21623361Y12232247D01*
X21664131Y12172840D01*
X21707644Y12108910D01*
X21730747Y12074686D01*
X22248272Y11188753D01*
X22250880Y11184528D01*
X22650886Y10570726D01*
X22683509Y10511632D01*
X22718688Y10447340D01*
X22756489Y10377655D01*
X22793226Y10309335D01*
X22828449Y10243262D01*
X22864853Y10174382D01*
X22899083Y10109055D01*
X22933710Y10042414D01*
X22975394Y9961443D01*
X23008938Y9895666D01*
X23044976Y9824391D01*
X23078148Y9758208D01*
X23113210Y9687650D01*
X23146761Y9619542D01*
X23180046Y9551392D01*
X23214481Y9480269D01*
X23246838Y9412860D01*
X23278991Y9345311D01*
X23316529Y9265722D01*
X23350233Y9193583D01*
X23386571Y9115082D01*
X23417964Y9046643D01*
X23451128Y8973711D01*
X23482169Y8904849D01*
X23513791Y8834099D01*
X23544575Y8764630D01*
X23575044Y8695288D01*
X23608480Y8618512D01*
X23638086Y8549928D01*
X23668744Y8478301D01*
X23700488Y8403481D01*
X23707157Y8387623D01*
X23726880Y8323074D01*
X23023733Y8604333D01*
X23020484Y8605569D01*
X22050484Y8955569D01*
X22046433Y8956935D01*
X21186519Y9226908D01*
X20746805Y9366817D01*
X20727325Y9370967D01*
X20708004Y9371285D01*
X20328004Y9341285D01*
X20303113Y9336130D01*
X19923113Y9206130D01*
X19904991Y9197867D01*
X19884158Y9181842D01*
X19564158Y8861842D01*
X19548137Y8841017D01*
X19368137Y8531017D01*
X19359873Y8512896D01*
X19356461Y8500360D01*
X19266461Y8060360D01*
X19264401Y8040550D01*
X19264958Y8029364D01*
X19304958Y7649364D01*
X19311093Y7623735D01*
X19331167Y7571201D01*
X19332403Y7563805D01*
X19333915Y7558348D01*
X19356270Y7479798D01*
X19360897Y7468042D01*
X19363922Y7455773D01*
X19365845Y7450446D01*
X19392934Y7377012D01*
X19394885Y7372985D01*
X19396111Y7368683D01*
X19398224Y7363428D01*
X19399136Y7361206D01*
X19430851Y7283554D01*
X19464081Y7201339D01*
X19497016Y7118971D01*
X19525278Y7047577D01*
X19558601Y6962522D01*
X19587277Y6888556D01*
X19615763Y6814361D01*
X19643055Y6742584D01*
X19682478Y6637687D01*
X19710186Y6563081D01*
X19737790Y6488018D01*
X19770988Y6396741D01*
X19804933Y6302250D01*
X19832549Y6224491D01*
X19859199Y6148678D01*
X19887260Y6068009D01*
X19916764Y5982257D01*
X19942731Y5905954D01*
X19968506Y5829432D01*
X19994075Y5752747D01*
X20026681Y5653789D01*
X20052505Y5574473D01*
X20077444Y5497052D01*
X20102198Y5419405D01*
X20135912Y5312316D01*
X20167728Y5209812D01*
X20191819Y5131238D01*
X20215644Y5052693D01*
X20239119Y4974475D01*
X20269896Y4870637D01*
X20293132Y4791256D01*
X20316073Y4712023D01*
X20338934Y4632197D01*
X20361428Y4552787D01*
X20383821Y4472864D01*
X20408858Y4382440D01*
X20430851Y4302072D01*
X20452661Y4221467D01*
X20474319Y4140524D01*
X20495724Y4059615D01*
X20516902Y3978660D01*
X20538101Y3896689D01*
X20558228Y3817986D01*
X20578982Y3735901D01*
X20598838Y3656472D01*
X20625440Y3548634D01*
X20648071Y3455576D01*
X20670448Y3362343D01*
X20690048Y3279647D01*
X20711987Y3185899D01*
X20733625Y3092189D01*
X20759814Y2977056D01*
X20780959Y2882667D01*
X20799637Y2798218D01*
X20818040Y2713974D01*
X20838056Y2621157D01*
X20857708Y2528788D01*
X20894464Y2352587D01*
X20912975Y2262080D01*
X20930368Y2175915D01*
X20947390Y2090507D01*
X20965450Y1998675D01*
X20985881Y1893242D01*
X21008574Y1774138D01*
X21025456Y1684129D01*
X21043538Y1586325D01*
X21059443Y1499073D01*
X21076224Y1405734D01*
X21092780Y1312309D01*
X21108238Y1223854D01*
X21122859Y1139054D01*
X21151509Y969543D01*
X21169952Y858002D01*
X21184429Y769038D01*
X21198702Y680087D01*
X21212966Y589898D01*
X21226979Y500021D01*
X21240829Y409889D01*
X21254526Y319448D01*
X21267973Y229327D01*
X21280968Y140968D01*
X21294190Y49722D01*
X21307175Y-41249D01*
X21322067Y-147306D01*
X21336301Y-250463D01*
X21350337Y-353974D01*
X21362689Y-446583D01*
X21374723Y-538235D01*
X21374723Y-538237D01*
X21386790Y-631638D01*
X21398156Y-720990D01*
X21409918Y-814959D01*
X21421728Y-910871D01*
X21434068Y-1012857D01*
X21446709Y-1119280D01*
X21458623Y-1221466D01*
X21471157Y-1331048D01*
X21483115Y-1437668D01*
X21500338Y-1594987D01*
X21513050Y-1714106D01*
X21522740Y-1806735D01*
X21532909Y-1905704D01*
X21542245Y-1998238D01*
X21552079Y-2097549D01*
X21562099Y-2200720D01*
X21570692Y-2290895D01*
X21579825Y-2388519D01*
X21588141Y-2479088D01*
X21596410Y-2570834D01*
X21604497Y-2662212D01*
X21612500Y-2754350D01*
X21620815Y-2851991D01*
X21628554Y-2944693D01*
X21636083Y-3036642D01*
X21636084Y-3036662D01*
X21643571Y-3129892D01*
X21650831Y-3222151D01*
X21658036Y-3315601D01*
X21665057Y-3408504D01*
X21672005Y-3502384D01*
X21678813Y-3596318D01*
X21685431Y-3689611D01*
X21691964Y-3783719D01*
X21698793Y-3884349D01*
X21698795Y-3884387D01*
X21705108Y-3979554D01*
X21711214Y-4073722D01*
X21717232Y-4168738D01*
X21723164Y-4264534D01*
X21728923Y-4359820D01*
X21734541Y-4454993D01*
X21734541Y-4455000D01*
X21740242Y-4554051D01*
X21745989Y-4656541D01*
X21751627Y-4759882D01*
X21757252Y-4865893D01*
X21762225Y-4962294D01*
X21762225Y-4962299D01*
X21767122Y-5059767D01*
X21772022Y-5160129D01*
X21776931Y-5263621D01*
X21776933Y-5263668D01*
X21781897Y-5371712D01*
X21786239Y-5469072D01*
X21790482Y-5567197D01*
X21794739Y-5668780D01*
X21799655Y-5790386D01*
X21804670Y-5919611D01*
X21809072Y-6037892D01*
X21814265Y-6184070D01*
X21818199Y-6300176D01*
X21823038Y-6450282D01*
X21826620Y-6567386D01*
X21826620Y-6567405D01*
X21829469Y-6664617D01*
X21832397Y-6768802D01*
X21835025Y-6866435D01*
X21835025Y-6866448D01*
X21837730Y-6971568D01*
X21840206Y-7072522D01*
X21840206Y-7072550D01*
X21842659Y-7177653D01*
X21844993Y-7283009D01*
X21847077Y-7382217D01*
X21849035Y-7480720D01*
X21851088Y-7590156D01*
X21853198Y-7710666D01*
X21855828Y-7875233D01*
X21857764Y-8009809D01*
X21857764Y-8009821D01*
X21859394Y-8134901D01*
X21859395Y-8134907D01*
X21860583Y-8234985D01*
X21861783Y-8346203D01*
X21861783Y-8346217D01*
X21862828Y-8454229D01*
X21863734Y-8559402D01*
X21864529Y-8663968D01*
X21865219Y-8769144D01*
X21865219Y-8769173D01*
X21865821Y-8878126D01*
X21866324Y-8990853D01*
X21866324Y-8990863D01*
X21866710Y-9104292D01*
X21867015Y-9241894D01*
X21867143Y-9373232D01*
X21867105Y-9515699D01*
X21867105Y-9515713D01*
X21866969Y-9616002D01*
X21866743Y-9715771D01*
X21866429Y-9816096D01*
X21866429Y-9816108D01*
X21866026Y-9916997D01*
X21865536Y-10017386D01*
X21864958Y-10118322D01*
X21864958Y-10118326D01*
X21864290Y-10219459D01*
X21864290Y-10219485D01*
X21863538Y-10320843D01*
X21862699Y-10422400D01*
X21861772Y-10524152D01*
X21861772Y-10524162D01*
X21860759Y-10626095D01*
X21860758Y-10626133D01*
X21859659Y-10728315D01*
X21858475Y-10830696D01*
X21857205Y-10933289D01*
X21855847Y-11036409D01*
X21854413Y-11139063D01*
X21854412Y-11139099D01*
X21852892Y-11242299D01*
X21851285Y-11345724D01*
X21849596Y-11449337D01*
X21849596Y-11449350D01*
X21847824Y-11553163D01*
X21847823Y-11553189D01*
X21845969Y-11657227D01*
X21844027Y-11761676D01*
X21842013Y-11865954D01*
X21839914Y-11970609D01*
X21839914Y-11970621D01*
X21837733Y-12075485D01*
X21837732Y-12075503D01*
X21835470Y-12180565D01*
X21835469Y-12180596D01*
X21833120Y-12286187D01*
X21830705Y-12391408D01*
X21828204Y-12497043D01*
X21828201Y-12497133D01*
X21825619Y-12603064D01*
X21822950Y-12709489D01*
X21822951Y-12709498D01*
X21820218Y-12815577D01*
X21817404Y-12922050D01*
X21817401Y-12922131D01*
X21814502Y-13028925D01*
X21811530Y-13135913D01*
X21808479Y-13243121D01*
X21805352Y-13350510D01*
X21805351Y-13350543D01*
X21802147Y-13458174D01*
X21798868Y-13565941D01*
X21798865Y-13566027D01*
X21795502Y-13674348D01*
X21795502Y-13674353D01*
X21792078Y-13782345D01*
X21792078Y-13782356D01*
X21788562Y-13891097D01*
X21784993Y-13999477D01*
X21784990Y-13999550D01*
X21781325Y-14108718D01*
X21781325Y-14108725D01*
X21777605Y-14217578D01*
X21777604Y-14217613D01*
X21773803Y-14326922D01*
X21773801Y-14326966D01*
X21770195Y-14428923D01*
X21770196Y-14428931D01*
X21766542Y-14530599D01*
X21766542Y-14530610D01*
X21762533Y-14640491D01*
X21762530Y-14640570D01*
X21758445Y-14750713D01*
X21758443Y-14750763D01*
X21754278Y-14861396D01*
X21750364Y-14963860D01*
X21745758Y-15082622D01*
X21741390Y-15193640D01*
X21741389Y-15193667D01*
X21736950Y-15304873D01*
X21736946Y-15304949D01*
X21732427Y-15416661D01*
X21727854Y-15528146D01*
X21727853Y-15528157D01*
X21723874Y-15624008D01*
X21723871Y-15624076D01*
X21719829Y-15720348D01*
X21715756Y-15816356D01*
X21715753Y-15816423D01*
X21711622Y-15912811D01*
X21711621Y-15912824D01*
X21707437Y-16009388D01*
X21702840Y-16114382D01*
X21702840Y-16114389D01*
X21697486Y-16235243D01*
X21697480Y-16235350D01*
X21692766Y-16340572D01*
X21688357Y-16438033D01*
X21688357Y-16438040D01*
X21683914Y-16535297D01*
X21679417Y-16632817D01*
X21679413Y-16632892D01*
X21673720Y-16755125D01*
X21673719Y-16755148D01*
X21668715Y-16861477D01*
X21668715Y-16861483D01*
X21663673Y-16967639D01*
X21658959Y-17065940D01*
X21658957Y-17065979D01*
X21654203Y-17164358D01*
X21654197Y-17164464D01*
X21648584Y-17279592D01*
X21643318Y-17386635D01*
X21643315Y-17386689D01*
X21637983Y-17494148D01*
X21637983Y-17494155D01*
X21632197Y-17609692D01*
X21632195Y-17609733D01*
X21626758Y-17717405D01*
X21626758Y-17717410D01*
X21620416Y-17841927D01*
X21615292Y-17941709D01*
X21609695Y-18049897D01*
X21609690Y-18049989D01*
X21604033Y-18158481D01*
X21598766Y-18258788D01*
X21593457Y-18359203D01*
X21593453Y-18359264D01*
X21592476Y-18377618D01*
X-20657187Y-18379317D01*
X-20703150Y-17951585D01*
X-20878475Y-16320000D01*
X-20238320Y-16320000D01*
X-20238320Y-18020000D01*
X-20231454Y-18089710D01*
X-20211121Y-18156740D01*
X-20178101Y-18218516D01*
X-20133663Y-18272663D01*
X-20079516Y-18317101D01*
X-20017740Y-18350121D01*
X-19950710Y-18370454D01*
X-19881000Y-18377320D01*
X-18181000Y-18377320D01*
X-18111290Y-18370454D01*
X-18044260Y-18350121D01*
X-17982484Y-18317101D01*
X-17928337Y-18272663D01*
X-17883899Y-18218516D01*
X-17850879Y-18156740D01*
X-17830546Y-18089710D01*
X-17823680Y-18020000D01*
X-17823680Y-17507609D01*
X-17648371Y-17507609D01*
X-17560268Y-17726914D01*
X-17431074Y-17924817D01*
X-17265753Y-18093713D01*
X-17070659Y-18227111D01*
X-16853289Y-18319885D01*
X-16828608Y-18327365D01*
X-16643400Y-18276252D01*
X-16643400Y-17322400D01*
X-16338600Y-17322400D01*
X-16338600Y-18276252D01*
X-16153392Y-18327365D01*
X-16128711Y-18319885D01*
X-15911341Y-18227111D01*
X-15716247Y-18093713D01*
X-15550926Y-17924817D01*
X-15421732Y-17726914D01*
X-15333629Y-17507609D01*
X-15383964Y-17322400D01*
X-16338600Y-17322400D01*
X-16643400Y-17322400D01*
X-17598036Y-17322400D01*
X-17648371Y-17507609D01*
X-17823680Y-17507609D01*
X-17823680Y-17170000D01*
X-15162433Y-17170000D01*
X-15139156Y-17406339D01*
X-15070218Y-17633595D01*
X-14958270Y-17843036D01*
X-14807612Y-18026612D01*
X-14624036Y-18177270D01*
X-14414595Y-18289218D01*
X-14187339Y-18358156D01*
X-14010224Y-18375600D01*
X-13891776Y-18375600D01*
X-13714661Y-18358156D01*
X-13487405Y-18289218D01*
X-13277964Y-18177270D01*
X-13094388Y-18026612D01*
X-12943730Y-17843036D01*
X-12831782Y-17633595D01*
X-12762844Y-17406339D01*
X-12739567Y-17170000D01*
X-12622433Y-17170000D01*
X-12599156Y-17406339D01*
X-12530218Y-17633595D01*
X-12418270Y-17843036D01*
X-12267612Y-18026612D01*
X-12084036Y-18177270D01*
X-11874595Y-18289218D01*
X-11647339Y-18358156D01*
X-11470224Y-18375600D01*
X-11351776Y-18375600D01*
X-11174661Y-18358156D01*
X-10947405Y-18289218D01*
X-10737964Y-18177270D01*
X-10554388Y-18026612D01*
X-10403730Y-17843036D01*
X-10291782Y-17633595D01*
X-10222844Y-17406339D01*
X-10199567Y-17170000D01*
X-10222844Y-16933661D01*
X-10291782Y-16706405D01*
X-10403730Y-16496964D01*
X-10554388Y-16313388D01*
X-10737964Y-16162730D01*
X-10947405Y-16050782D01*
X-11174661Y-15981844D01*
X-11351776Y-15964400D01*
X-11470224Y-15964400D01*
X-11647339Y-15981844D01*
X-11874595Y-16050782D01*
X-12084036Y-16162730D01*
X-12267612Y-16313388D01*
X-12418270Y-16496964D01*
X-12530218Y-16706405D01*
X-12599156Y-16933661D01*
X-12622433Y-17170000D01*
X-12739567Y-17170000D01*
X-12762844Y-16933661D01*
X-12831782Y-16706405D01*
X-12943730Y-16496964D01*
X-13094388Y-16313388D01*
X-13277964Y-16162730D01*
X-13487405Y-16050782D01*
X-13714661Y-15981844D01*
X-13891776Y-15964400D01*
X-14010224Y-15964400D01*
X-14187339Y-15981844D01*
X-14414595Y-16050782D01*
X-14624036Y-16162730D01*
X-14807612Y-16313388D01*
X-14958270Y-16496964D01*
X-15070218Y-16706405D01*
X-15139156Y-16933661D01*
X-15162433Y-17170000D01*
X-17823680Y-17170000D01*
X-17823680Y-16832391D01*
X-17648371Y-16832391D01*
X-17598036Y-17017600D01*
X-16643400Y-17017600D01*
X-16643400Y-16063748D01*
X-16338600Y-16063748D01*
X-16338600Y-17017600D01*
X-15383964Y-17017600D01*
X-15333629Y-16832391D01*
X-15421732Y-16613086D01*
X-15550926Y-16415183D01*
X-15716247Y-16246287D01*
X-15911341Y-16112889D01*
X-16128711Y-16020115D01*
X-16153392Y-16012635D01*
X-16338600Y-16063748D01*
X-16643400Y-16063748D01*
X-16828608Y-16012635D01*
X-16853289Y-16020115D01*
X-17070659Y-16112889D01*
X-17265753Y-16246287D01*
X-17431074Y-16415183D01*
X-17560268Y-16613086D01*
X-17648371Y-16832391D01*
X-17823680Y-16832391D01*
X-17823680Y-16320000D01*
X-17830546Y-16250290D01*
X-17850879Y-16183260D01*
X-17883899Y-16121484D01*
X-17928337Y-16067337D01*
X-17982484Y-16022899D01*
X-18044260Y-15989879D01*
X-18111290Y-15969546D01*
X-18181000Y-15962680D01*
X-19881000Y-15962680D01*
X-19950710Y-15969546D01*
X-20017740Y-15989879D01*
X-20079516Y-16022899D01*
X-20133663Y-16067337D01*
X-20178101Y-16121484D01*
X-20211121Y-16183260D01*
X-20231454Y-16250290D01*
X-20238320Y-16320000D01*
X-20878475Y-16320000D01*
X-21467182Y-10841482D01*
X-21793691Y-7802967D01*
X-19364604Y-7802967D01*
X-19364604Y-7937033D01*
X-19338449Y-8068524D01*
X-19287144Y-8192385D01*
X-19212660Y-8303857D01*
X-19128503Y-8388014D01*
X-19128504Y-12448176D01*
X-19130653Y-12469996D01*
X-19128504Y-12491816D01*
X-19128504Y-12491825D01*
X-19122072Y-12557132D01*
X-19097099Y-12639456D01*
X-19096655Y-12640921D01*
X-19055380Y-12718141D01*
X-19022168Y-12758610D01*
X-18999833Y-12785825D01*
X-18982874Y-12799743D01*
X-16413742Y-15368876D01*
X-16399829Y-15385829D01*
X-16382876Y-15399742D01*
X-16382873Y-15399745D01*
X-16332146Y-15441376D01*
X-16254926Y-15482651D01*
X-16171137Y-15508068D01*
X-16105830Y-15514500D01*
X-16105820Y-15514500D01*
X-16084000Y-15516649D01*
X-16062180Y-15514500D01*
X-11168117Y-15514500D01*
X-9985340Y-16697278D01*
X-9990218Y-16706405D01*
X-10059156Y-16933661D01*
X-10082433Y-17170000D01*
X-10059156Y-17406339D01*
X-9990218Y-17633595D01*
X-9878270Y-17843036D01*
X-9727612Y-18026612D01*
X-9544036Y-18177270D01*
X-9334595Y-18289218D01*
X-9107339Y-18358156D01*
X-8930224Y-18375600D01*
X-8811776Y-18375600D01*
X-8634661Y-18358156D01*
X-8407405Y-18289218D01*
X-8197964Y-18177270D01*
X-8014388Y-18026612D01*
X-7863730Y-17843036D01*
X-7751782Y-17633595D01*
X-7682844Y-17406339D01*
X-7659567Y-17170000D01*
X-7542433Y-17170000D01*
X-7519156Y-17406339D01*
X-7450218Y-17633595D01*
X-7338270Y-17843036D01*
X-7187612Y-18026612D01*
X-7004036Y-18177270D01*
X-6794595Y-18289218D01*
X-6567339Y-18358156D01*
X-6390224Y-18375600D01*
X-6271776Y-18375600D01*
X-6094661Y-18358156D01*
X-5867405Y-18289218D01*
X-5657964Y-18177270D01*
X-5474388Y-18026612D01*
X-5323730Y-17843036D01*
X-5211782Y-17633595D01*
X-5142844Y-17406339D01*
X-5119567Y-17170000D01*
X-5002433Y-17170000D01*
X-4979156Y-17406339D01*
X-4910218Y-17633595D01*
X-4798270Y-17843036D01*
X-4647612Y-18026612D01*
X-4464036Y-18177270D01*
X-4254595Y-18289218D01*
X-4027339Y-18358156D01*
X-3850224Y-18375600D01*
X-3731776Y-18375600D01*
X-3554661Y-18358156D01*
X-3327405Y-18289218D01*
X-3117964Y-18177270D01*
X-2934388Y-18026612D01*
X-2783730Y-17843036D01*
X-2671782Y-17633595D01*
X-2602844Y-17406339D01*
X-2579567Y-17170000D01*
X-2462433Y-17170000D01*
X-2439156Y-17406339D01*
X-2370218Y-17633595D01*
X-2258270Y-17843036D01*
X-2107612Y-18026612D01*
X-1924036Y-18177270D01*
X-1714595Y-18289218D01*
X-1487339Y-18358156D01*
X-1310224Y-18375600D01*
X-1191776Y-18375600D01*
X-1014661Y-18358156D01*
X-787405Y-18289218D01*
X-577964Y-18177270D01*
X-394388Y-18026612D01*
X-243730Y-17843036D01*
X-131782Y-17633595D01*
X-62844Y-17406339D01*
X-39567Y-17170000D01*
X77567Y-17170000D01*
X100844Y-17406339D01*
X169782Y-17633595D01*
X281730Y-17843036D01*
X432388Y-18026612D01*
X615964Y-18177270D01*
X825405Y-18289218D01*
X1052661Y-18358156D01*
X1229776Y-18375600D01*
X1348224Y-18375600D01*
X1525339Y-18358156D01*
X1752595Y-18289218D01*
X1962036Y-18177270D01*
X2145612Y-18026612D01*
X2296270Y-17843036D01*
X2408218Y-17633595D01*
X2477156Y-17406339D01*
X2500433Y-17170000D01*
X2617567Y-17170000D01*
X2640844Y-17406339D01*
X2709782Y-17633595D01*
X2821730Y-17843036D01*
X2972388Y-18026612D01*
X3155964Y-18177270D01*
X3365405Y-18289218D01*
X3592661Y-18358156D01*
X3769776Y-18375600D01*
X3888224Y-18375600D01*
X4065339Y-18358156D01*
X4292595Y-18289218D01*
X4502036Y-18177270D01*
X4685612Y-18026612D01*
X4836270Y-17843036D01*
X4948218Y-17633595D01*
X5017156Y-17406339D01*
X5040433Y-17170000D01*
X5157567Y-17170000D01*
X5180844Y-17406339D01*
X5249782Y-17633595D01*
X5361730Y-17843036D01*
X5512388Y-18026612D01*
X5695964Y-18177270D01*
X5905405Y-18289218D01*
X6132661Y-18358156D01*
X6309776Y-18375600D01*
X6428224Y-18375600D01*
X6605339Y-18358156D01*
X6832595Y-18289218D01*
X7042036Y-18177270D01*
X7225612Y-18026612D01*
X7376270Y-17843036D01*
X7488218Y-17633595D01*
X7557156Y-17406339D01*
X7580433Y-17170000D01*
X7697567Y-17170000D01*
X7720844Y-17406339D01*
X7789782Y-17633595D01*
X7901730Y-17843036D01*
X8052388Y-18026612D01*
X8235964Y-18177270D01*
X8445405Y-18289218D01*
X8672661Y-18358156D01*
X8849776Y-18375600D01*
X8968224Y-18375600D01*
X9145339Y-18358156D01*
X9372595Y-18289218D01*
X9582036Y-18177270D01*
X9765612Y-18026612D01*
X9916270Y-17843036D01*
X10028218Y-17633595D01*
X10097156Y-17406339D01*
X10120433Y-17170000D01*
X10237567Y-17170000D01*
X10260844Y-17406339D01*
X10329782Y-17633595D01*
X10441730Y-17843036D01*
X10592388Y-18026612D01*
X10775964Y-18177270D01*
X10985405Y-18289218D01*
X11212661Y-18358156D01*
X11389776Y-18375600D01*
X11508224Y-18375600D01*
X11685339Y-18358156D01*
X11912595Y-18289218D01*
X12122036Y-18177270D01*
X12305612Y-18026612D01*
X12456270Y-17843036D01*
X12568218Y-17633595D01*
X12637156Y-17406339D01*
X12660433Y-17170000D01*
X12777567Y-17170000D01*
X12800844Y-17406339D01*
X12869782Y-17633595D01*
X12981730Y-17843036D01*
X13132388Y-18026612D01*
X13315964Y-18177270D01*
X13525405Y-18289218D01*
X13752661Y-18358156D01*
X13929776Y-18375600D01*
X14048224Y-18375600D01*
X14225339Y-18358156D01*
X14452595Y-18289218D01*
X14662036Y-18177270D01*
X14845612Y-18026612D01*
X14996270Y-17843036D01*
X15108218Y-17633595D01*
X15177156Y-17406339D01*
X15200433Y-17170000D01*
X15317567Y-17170000D01*
X15340844Y-17406339D01*
X15409782Y-17633595D01*
X15521730Y-17843036D01*
X15672388Y-18026612D01*
X15855964Y-18177270D01*
X16065405Y-18289218D01*
X16292661Y-18358156D01*
X16469776Y-18375600D01*
X16588224Y-18375600D01*
X16765339Y-18358156D01*
X16992595Y-18289218D01*
X17202036Y-18177270D01*
X17385612Y-18026612D01*
X17536270Y-17843036D01*
X17648218Y-17633595D01*
X17717156Y-17406339D01*
X17740433Y-17170000D01*
X17857567Y-17170000D01*
X17880844Y-17406339D01*
X17949782Y-17633595D01*
X18061730Y-17843036D01*
X18212388Y-18026612D01*
X18395964Y-18177270D01*
X18605405Y-18289218D01*
X18832661Y-18358156D01*
X19009776Y-18375600D01*
X19128224Y-18375600D01*
X19305339Y-18358156D01*
X19532595Y-18289218D01*
X19742036Y-18177270D01*
X19925612Y-18026612D01*
X20076270Y-17843036D01*
X20188218Y-17633595D01*
X20257156Y-17406339D01*
X20280433Y-17170000D01*
X20257156Y-16933661D01*
X20188218Y-16706405D01*
X20076270Y-16496964D01*
X19925612Y-16313388D01*
X19742036Y-16162730D01*
X19532595Y-16050782D01*
X19305339Y-15981844D01*
X19128224Y-15964400D01*
X19009776Y-15964400D01*
X18832661Y-15981844D01*
X18605405Y-16050782D01*
X18395964Y-16162730D01*
X18212388Y-16313388D01*
X18061730Y-16496964D01*
X17949782Y-16706405D01*
X17880844Y-16933661D01*
X17857567Y-17170000D01*
X17740433Y-17170000D01*
X17717156Y-16933661D01*
X17648218Y-16706405D01*
X17536270Y-16496964D01*
X17385612Y-16313388D01*
X17202036Y-16162730D01*
X16992595Y-16050782D01*
X16765339Y-15981844D01*
X16588224Y-15964400D01*
X16469776Y-15964400D01*
X16292661Y-15981844D01*
X16065405Y-16050782D01*
X15855964Y-16162730D01*
X15672388Y-16313388D01*
X15521730Y-16496964D01*
X15409782Y-16706405D01*
X15340844Y-16933661D01*
X15317567Y-17170000D01*
X15200433Y-17170000D01*
X15177156Y-16933661D01*
X15108218Y-16706405D01*
X14996270Y-16496964D01*
X14845612Y-16313388D01*
X14662036Y-16162730D01*
X14452595Y-16050782D01*
X14225339Y-15981844D01*
X14048224Y-15964400D01*
X13929776Y-15964400D01*
X13752661Y-15981844D01*
X13525405Y-16050782D01*
X13315964Y-16162730D01*
X13132388Y-16313388D01*
X12981730Y-16496964D01*
X12869782Y-16706405D01*
X12800844Y-16933661D01*
X12777567Y-17170000D01*
X12660433Y-17170000D01*
X12637156Y-16933661D01*
X12568218Y-16706405D01*
X12456270Y-16496964D01*
X12305612Y-16313388D01*
X12122036Y-16162730D01*
X11912595Y-16050782D01*
X11685339Y-15981844D01*
X11508224Y-15964400D01*
X11389776Y-15964400D01*
X11212661Y-15981844D01*
X10985405Y-16050782D01*
X10775964Y-16162730D01*
X10592388Y-16313388D01*
X10441730Y-16496964D01*
X10329782Y-16706405D01*
X10260844Y-16933661D01*
X10237567Y-17170000D01*
X10120433Y-17170000D01*
X10097156Y-16933661D01*
X10028218Y-16706405D01*
X9916270Y-16496964D01*
X9765612Y-16313388D01*
X9582036Y-16162730D01*
X9372595Y-16050782D01*
X9145339Y-15981844D01*
X8968224Y-15964400D01*
X8849776Y-15964400D01*
X8672661Y-15981844D01*
X8445405Y-16050782D01*
X8235964Y-16162730D01*
X8052388Y-16313388D01*
X7901730Y-16496964D01*
X7789782Y-16706405D01*
X7720844Y-16933661D01*
X7697567Y-17170000D01*
X7580433Y-17170000D01*
X7557156Y-16933661D01*
X7488218Y-16706405D01*
X7376270Y-16496964D01*
X7225612Y-16313388D01*
X7042036Y-16162730D01*
X6832595Y-16050782D01*
X6605339Y-15981844D01*
X6428224Y-15964400D01*
X6309776Y-15964400D01*
X6132661Y-15981844D01*
X5905405Y-16050782D01*
X5695964Y-16162730D01*
X5512388Y-16313388D01*
X5361730Y-16496964D01*
X5249782Y-16706405D01*
X5180844Y-16933661D01*
X5157567Y-17170000D01*
X5040433Y-17170000D01*
X5017156Y-16933661D01*
X4948218Y-16706405D01*
X4836270Y-16496964D01*
X4685612Y-16313388D01*
X4502036Y-16162730D01*
X4292595Y-16050782D01*
X4065339Y-15981844D01*
X3888224Y-15964400D01*
X3769776Y-15964400D01*
X3592661Y-15981844D01*
X3365405Y-16050782D01*
X3155964Y-16162730D01*
X2972388Y-16313388D01*
X2821730Y-16496964D01*
X2709782Y-16706405D01*
X2640844Y-16933661D01*
X2617567Y-17170000D01*
X2500433Y-17170000D01*
X2477156Y-16933661D01*
X2408218Y-16706405D01*
X2296270Y-16496964D01*
X2145612Y-16313388D01*
X1962036Y-16162730D01*
X1752595Y-16050782D01*
X1525339Y-15981844D01*
X1348224Y-15964400D01*
X1229776Y-15964400D01*
X1052661Y-15981844D01*
X825405Y-16050782D01*
X615964Y-16162730D01*
X432388Y-16313388D01*
X281730Y-16496964D01*
X169782Y-16706405D01*
X100844Y-16933661D01*
X77567Y-17170000D01*
X-39567Y-17170000D01*
X-62844Y-16933661D01*
X-131782Y-16706405D01*
X-243730Y-16496964D01*
X-394388Y-16313388D01*
X-577964Y-16162730D01*
X-787405Y-16050782D01*
X-1014661Y-15981844D01*
X-1191776Y-15964400D01*
X-1310224Y-15964400D01*
X-1487339Y-15981844D01*
X-1714595Y-16050782D01*
X-1924036Y-16162730D01*
X-2107612Y-16313388D01*
X-2258270Y-16496964D01*
X-2370218Y-16706405D01*
X-2439156Y-16933661D01*
X-2462433Y-17170000D01*
X-2579567Y-17170000D01*
X-2602844Y-16933661D01*
X-2671782Y-16706405D01*
X-2783730Y-16496964D01*
X-2934388Y-16313388D01*
X-3117964Y-16162730D01*
X-3327405Y-16050782D01*
X-3554661Y-15981844D01*
X-3731776Y-15964400D01*
X-3850224Y-15964400D01*
X-4027339Y-15981844D01*
X-4254595Y-16050782D01*
X-4464036Y-16162730D01*
X-4647612Y-16313388D01*
X-4798270Y-16496964D01*
X-4910218Y-16706405D01*
X-4979156Y-16933661D01*
X-5002433Y-17170000D01*
X-5119567Y-17170000D01*
X-5142844Y-16933661D01*
X-5211782Y-16706405D01*
X-5323730Y-16496964D01*
X-5474388Y-16313388D01*
X-5657964Y-16162730D01*
X-5867405Y-16050782D01*
X-6094661Y-15981844D01*
X-6271776Y-15964400D01*
X-6390224Y-15964400D01*
X-6567339Y-15981844D01*
X-6794595Y-16050782D01*
X-7004036Y-16162730D01*
X-7187612Y-16313388D01*
X-7338270Y-16496964D01*
X-7450218Y-16706405D01*
X-7519156Y-16933661D01*
X-7542433Y-17170000D01*
X-7659567Y-17170000D01*
X-7682844Y-16933661D01*
X-7751782Y-16706405D01*
X-7863730Y-16496964D01*
X-8014388Y-16313388D01*
X-8197964Y-16162730D01*
X-8407405Y-16050782D01*
X-8634661Y-15981844D01*
X-8811776Y-15964400D01*
X-8930224Y-15964400D01*
X-9107339Y-15981844D01*
X-9334595Y-16050782D01*
X-9360665Y-16064717D01*
X-10654256Y-14771127D01*
X-10668171Y-14754171D01*
X-10735855Y-14698624D01*
X-10813074Y-14657349D01*
X-10896863Y-14631932D01*
X-10962170Y-14625500D01*
X-10962180Y-14625500D01*
X-10984000Y-14623351D01*
X-11005820Y-14625500D01*
X-15899882Y-14625500D01*
X-18239504Y-12285879D01*
X-18239504Y-9520000D01*
X-17991600Y-9520000D01*
X-17991600Y-9650000D01*
X-17987992Y-9676835D01*
X-17980874Y-9695437D01*
X-17930874Y-9795437D01*
X-17920263Y-9812292D01*
X-17906568Y-9826754D01*
X-17890315Y-9838266D01*
X-17872129Y-9846386D01*
X-17752129Y-9886386D01*
X-17725340Y-9891460D01*
X-17535340Y-9901460D01*
X-17518894Y-9900991D01*
X-17499405Y-9896884D01*
X-17309405Y-9836884D01*
X-17297861Y-9832449D01*
X-17280635Y-9822452D01*
X-17030635Y-9642452D01*
X-17030450Y-9642319D01*
X-16564444Y-9305208D01*
X-16038704Y-8997700D01*
X-16037727Y-8997121D01*
X-15648317Y-8763475D01*
X-15400121Y-8687107D01*
X-15388831Y-8682885D01*
X-15379904Y-8677829D01*
X-15039576Y-8739706D01*
X-14663508Y-8818878D01*
X-14436728Y-8879044D01*
X-15316358Y-9465464D01*
X-15318264Y-9466766D01*
X-16218264Y-10096766D01*
X-16231842Y-10108158D01*
X-16321842Y-10198158D01*
X-16337176Y-10217818D01*
X-16345681Y-10235828D01*
X-16395681Y-10375828D01*
X-16399195Y-10388024D01*
X-16401576Y-10407798D01*
X-16400054Y-10427657D01*
X-16370054Y-10597657D01*
X-16366247Y-10612543D01*
X-16358049Y-10630695D01*
X-16346467Y-10646898D01*
X-16331947Y-10660531D01*
X-16201947Y-10760531D01*
X-16185437Y-10770874D01*
X-16166835Y-10777992D01*
X-16147202Y-10781344D01*
X-16127293Y-10780802D01*
X-16107871Y-10776386D01*
X-15807871Y-10676386D01*
X-15789095Y-10667927D01*
X-15409095Y-10447927D01*
X-15405994Y-10446058D01*
X-13469036Y-9230518D01*
X-13329616Y-9283631D01*
X-13037748Y-9419836D01*
X-13010425Y-9436230D01*
X-13300468Y-9668263D01*
X-14117299Y-10226099D01*
X-14126296Y-10233011D01*
X-14486296Y-10543011D01*
X-14504536Y-10563642D01*
X-14544536Y-10623642D01*
X-14555843Y-10646286D01*
X-14560579Y-10665632D01*
X-14570579Y-10735632D01*
X-14571301Y-10742208D01*
X-14581301Y-10872208D01*
X-14580065Y-10897592D01*
X-14574711Y-10916776D01*
X-14565716Y-10934547D01*
X-14495716Y-11044547D01*
X-14483652Y-11059985D01*
X-14468584Y-11073009D01*
X-14451264Y-11082843D01*
X-14361264Y-11122843D01*
X-14339821Y-11129648D01*
X-14320000Y-11131600D01*
X-14200000Y-11131600D01*
X-14174749Y-11128412D01*
X-14156035Y-11121595D01*
X-13906035Y-11001595D01*
X-13891462Y-10993042D01*
X-13284016Y-10564842D01*
X-13021301Y-10402967D01*
X-4664600Y-10402967D01*
X-4664600Y-10537033D01*
X-4638445Y-10668524D01*
X-4587140Y-10792385D01*
X-4512656Y-10903857D01*
X-4417857Y-10998656D01*
X-4306385Y-11073140D01*
X-4182524Y-11124445D01*
X-4064606Y-11147900D01*
X-4064606Y-11187033D01*
X-4038451Y-11318524D01*
X-3987146Y-11442385D01*
X-3912662Y-11553857D01*
X-3817863Y-11648656D01*
X-3706391Y-11723140D01*
X-3582530Y-11774445D01*
X-3451039Y-11800600D01*
X-3316973Y-11800600D01*
X-3185482Y-11774445D01*
X-3061621Y-11723140D01*
X-2950149Y-11648656D01*
X-2865993Y-11564500D01*
X-714117Y-11564500D01*
X355500Y-12634118D01*
X355501Y-14478170D01*
X353351Y-14500000D01*
X361933Y-14587137D01*
X387349Y-14670925D01*
X428624Y-14748145D01*
X470255Y-14798872D01*
X470259Y-14798876D01*
X484172Y-14815829D01*
X501125Y-14829742D01*
X870258Y-15198876D01*
X884171Y-15215829D01*
X901124Y-15229742D01*
X901126Y-15229744D01*
X918094Y-15243669D01*
X951855Y-15271376D01*
X1029074Y-15312651D01*
X1112863Y-15338068D01*
X1178170Y-15344500D01*
X1178179Y-15344500D01*
X1199999Y-15346649D01*
X1221819Y-15344500D01*
X2014180Y-15344500D01*
X2036000Y-15346649D01*
X2057820Y-15344500D01*
X2057830Y-15344500D01*
X2123137Y-15338068D01*
X2206926Y-15312651D01*
X2284145Y-15271376D01*
X2351829Y-15215829D01*
X2365747Y-15198870D01*
X2564017Y-15000600D01*
X2683033Y-15000600D01*
X2814524Y-14974445D01*
X2874133Y-14949754D01*
X5245088Y-14949754D01*
X5333869Y-15171659D01*
X5464236Y-15371980D01*
X5631179Y-15543019D01*
X5828282Y-15678202D01*
X6047971Y-15772335D01*
X6076247Y-15780904D01*
X6263600Y-15729979D01*
X6263600Y-14762400D01*
X6568400Y-14762400D01*
X6568400Y-15729979D01*
X6755753Y-15780904D01*
X6784029Y-15772335D01*
X7003718Y-15678202D01*
X7200821Y-15543019D01*
X7367764Y-15371980D01*
X7498131Y-15171659D01*
X7586912Y-14949754D01*
X7536745Y-14762400D01*
X6568400Y-14762400D01*
X6263600Y-14762400D01*
X5295255Y-14762400D01*
X5245088Y-14949754D01*
X2874133Y-14949754D01*
X2938385Y-14923140D01*
X3049857Y-14848656D01*
X3144656Y-14753857D01*
X3219140Y-14642385D01*
X3232554Y-14610000D01*
X7730901Y-14610000D01*
X7754441Y-14849005D01*
X7824156Y-15078825D01*
X7937367Y-15290629D01*
X8089724Y-15476276D01*
X8275371Y-15628633D01*
X8487175Y-15741844D01*
X8716995Y-15811559D01*
X8896107Y-15829200D01*
X9015893Y-15829200D01*
X9195005Y-15811559D01*
X9424825Y-15741844D01*
X9636629Y-15628633D01*
X9822276Y-15476276D01*
X9974633Y-15290629D01*
X10087844Y-15078825D01*
X10157559Y-14849005D01*
X10181099Y-14610000D01*
X10270901Y-14610000D01*
X10294441Y-14849005D01*
X10364156Y-15078825D01*
X10477367Y-15290629D01*
X10629724Y-15476276D01*
X10815371Y-15628633D01*
X11027175Y-15741844D01*
X11256995Y-15811559D01*
X11436107Y-15829200D01*
X11555893Y-15829200D01*
X11735005Y-15811559D01*
X11964825Y-15741844D01*
X12176629Y-15628633D01*
X12362276Y-15476276D01*
X12514633Y-15290629D01*
X12627844Y-15078825D01*
X12697559Y-14849005D01*
X12721099Y-14610000D01*
X12697559Y-14370995D01*
X12627844Y-14141175D01*
X12514633Y-13929371D01*
X12362276Y-13743724D01*
X12176629Y-13591367D01*
X11964825Y-13478156D01*
X11735005Y-13408441D01*
X11555893Y-13390800D01*
X11436107Y-13390800D01*
X11256995Y-13408441D01*
X11027175Y-13478156D01*
X10815371Y-13591367D01*
X10629724Y-13743724D01*
X10477367Y-13929371D01*
X10364156Y-14141175D01*
X10294441Y-14370995D01*
X10270901Y-14610000D01*
X10181099Y-14610000D01*
X10157559Y-14370995D01*
X10087844Y-14141175D01*
X9974633Y-13929371D01*
X9822276Y-13743724D01*
X9636629Y-13591367D01*
X9424825Y-13478156D01*
X9195005Y-13408441D01*
X9015893Y-13390800D01*
X8896107Y-13390800D01*
X8716995Y-13408441D01*
X8487175Y-13478156D01*
X8275371Y-13591367D01*
X8089724Y-13743724D01*
X7937367Y-13929371D01*
X7824156Y-14141175D01*
X7754441Y-14370995D01*
X7730901Y-14610000D01*
X3232554Y-14610000D01*
X3270445Y-14518524D01*
X3296600Y-14387033D01*
X3296600Y-14270246D01*
X5245088Y-14270246D01*
X5295255Y-14457600D01*
X6263600Y-14457600D01*
X6263600Y-13490021D01*
X6568400Y-13490021D01*
X6568400Y-14457600D01*
X7536745Y-14457600D01*
X7586912Y-14270246D01*
X7498131Y-14048341D01*
X7367764Y-13848020D01*
X7200821Y-13676981D01*
X7003718Y-13541798D01*
X6784029Y-13447665D01*
X6755753Y-13439096D01*
X6568400Y-13490021D01*
X6263600Y-13490021D01*
X6076247Y-13439096D01*
X6047971Y-13447665D01*
X5828282Y-13541798D01*
X5631179Y-13676981D01*
X5464236Y-13848020D01*
X5333869Y-14048341D01*
X5245088Y-14270246D01*
X3296600Y-14270246D01*
X3296600Y-14252967D01*
X3270445Y-14121476D01*
X3219140Y-13997615D01*
X3144656Y-13886143D01*
X3049857Y-13791344D01*
X2938385Y-13716860D01*
X2885610Y-13695000D01*
X2938385Y-13673140D01*
X3049857Y-13598656D01*
X3144656Y-13503857D01*
X3219140Y-13392385D01*
X3270445Y-13268524D01*
X3296600Y-13137033D01*
X3296600Y-13002967D01*
X3282802Y-12933600D01*
X5195080Y-12933600D01*
X5201946Y-13003310D01*
X5222279Y-13070340D01*
X5255299Y-13132116D01*
X5299737Y-13186263D01*
X5353884Y-13230701D01*
X5415660Y-13263721D01*
X5482690Y-13284054D01*
X5552400Y-13290920D01*
X7279600Y-13290920D01*
X7349310Y-13284054D01*
X7416340Y-13263721D01*
X7478116Y-13230701D01*
X7532263Y-13186263D01*
X7576701Y-13132116D01*
X7609721Y-13070340D01*
X7630054Y-13003310D01*
X7636920Y-12933600D01*
X7636920Y-12070000D01*
X7730901Y-12070000D01*
X7754441Y-12309005D01*
X7824156Y-12538825D01*
X7937367Y-12750629D01*
X8089724Y-12936276D01*
X8275371Y-13088633D01*
X8487175Y-13201844D01*
X8716995Y-13271559D01*
X8896107Y-13289200D01*
X9015893Y-13289200D01*
X9195005Y-13271559D01*
X9424825Y-13201844D01*
X9636629Y-13088633D01*
X9822276Y-12936276D01*
X9974633Y-12750629D01*
X10087844Y-12538825D01*
X10157559Y-12309005D01*
X10181099Y-12070000D01*
X10270901Y-12070000D01*
X10294441Y-12309005D01*
X10364156Y-12538825D01*
X10477367Y-12750629D01*
X10629724Y-12936276D01*
X10815371Y-13088633D01*
X11027175Y-13201844D01*
X11256995Y-13271559D01*
X11436107Y-13289200D01*
X11555893Y-13289200D01*
X11735005Y-13271559D01*
X11964825Y-13201844D01*
X12176629Y-13088633D01*
X12362276Y-12936276D01*
X12514633Y-12750629D01*
X12627844Y-12538825D01*
X12697559Y-12309005D01*
X12721099Y-12070000D01*
X12697559Y-11830995D01*
X12627844Y-11601175D01*
X12514633Y-11389371D01*
X12362276Y-11203724D01*
X12176629Y-11051367D01*
X11964825Y-10938156D01*
X11735005Y-10868441D01*
X11555893Y-10850800D01*
X11436107Y-10850800D01*
X11256995Y-10868441D01*
X11027175Y-10938156D01*
X10815371Y-11051367D01*
X10629724Y-11203724D01*
X10477367Y-11389371D01*
X10364156Y-11601175D01*
X10294441Y-11830995D01*
X10270901Y-12070000D01*
X10181099Y-12070000D01*
X10157559Y-11830995D01*
X10087844Y-11601175D01*
X9974633Y-11389371D01*
X9822276Y-11203724D01*
X9636629Y-11051367D01*
X9424825Y-10938156D01*
X9195005Y-10868441D01*
X9015893Y-10850800D01*
X8896107Y-10850800D01*
X8716995Y-10868441D01*
X8487175Y-10938156D01*
X8275371Y-11051367D01*
X8089724Y-11203724D01*
X7937367Y-11389371D01*
X7824156Y-11601175D01*
X7754441Y-11830995D01*
X7730901Y-12070000D01*
X7636920Y-12070000D01*
X7636920Y-11206400D01*
X7630054Y-11136690D01*
X7609721Y-11069660D01*
X7576701Y-11007884D01*
X7532263Y-10953737D01*
X7478116Y-10909299D01*
X7416340Y-10876279D01*
X7349310Y-10855946D01*
X7279600Y-10849080D01*
X5552400Y-10849080D01*
X5482690Y-10855946D01*
X5415660Y-10876279D01*
X5353884Y-10909299D01*
X5299737Y-10953737D01*
X5255299Y-11007884D01*
X5222279Y-11069660D01*
X5201946Y-11136690D01*
X5195080Y-11206400D01*
X3477715Y-11206400D01*
X990662Y-8719349D01*
X990653Y-8719338D01*
X80661Y-7809348D01*
X-17889Y-7728469D01*
X-167916Y-7648279D01*
X-234986Y-7627933D01*
X8599595Y-7627933D01*
X8643118Y-8015948D01*
X8761178Y-8388120D01*
X8949278Y-8730273D01*
X9200254Y-9029374D01*
X9504545Y-9274031D01*
X9850562Y-9454924D01*
X10225125Y-9565164D01*
X10613967Y-9600551D01*
X11002276Y-9559738D01*
X11375264Y-9444279D01*
X11718721Y-9258573D01*
X12019567Y-9009691D01*
X12266342Y-8707115D01*
X12449647Y-8362369D01*
X12562499Y-7988585D01*
X12600600Y-7600000D01*
X12599820Y-7544140D01*
X12550884Y-7156770D01*
X12427639Y-6786283D01*
X12234780Y-6446790D01*
X11979653Y-6151222D01*
X11671975Y-5910838D01*
X11323466Y-5734793D01*
X10947401Y-5629794D01*
X10558103Y-5599839D01*
X10170401Y-5646069D01*
X9799062Y-5766725D01*
X9458230Y-5957209D01*
X9160889Y-6210266D01*
X8918362Y-6516259D01*
X8739889Y-6863530D01*
X8632267Y-7238853D01*
X8599595Y-7627933D01*
X-234986Y-7627933D01*
X-330706Y-7598896D01*
X-500000Y-7582222D01*
X-669294Y-7598896D01*
X-832084Y-7648279D01*
X-982111Y-7728469D01*
X-1113611Y-7836389D01*
X-1221531Y-7967889D01*
X-1301721Y-8117916D01*
X-1351104Y-8280706D01*
X-1367778Y-8450000D01*
X-1351104Y-8619294D01*
X-1318886Y-8725500D01*
X-2251993Y-8725500D01*
X-2336149Y-8641344D01*
X-2447621Y-8566860D01*
X-2571482Y-8515555D01*
X-2702973Y-8489400D01*
X-2837039Y-8489400D01*
X-2968530Y-8515555D01*
X-3092391Y-8566860D01*
X-3203863Y-8641344D01*
X-3298662Y-8736143D01*
X-3373146Y-8847615D01*
X-3424451Y-8971476D01*
X-3450606Y-9102967D01*
X-3450606Y-9139400D01*
X-3451033Y-9139400D01*
X-3582524Y-9165555D01*
X-3706385Y-9216860D01*
X-3817857Y-9291344D01*
X-3912656Y-9386143D01*
X-3987140Y-9497615D01*
X-4038445Y-9621476D01*
X-4064600Y-9752967D01*
X-4064600Y-9792099D01*
X-4182524Y-9815555D01*
X-4306385Y-9866860D01*
X-4417857Y-9941344D01*
X-4512656Y-10036143D01*
X-4587140Y-10147615D01*
X-4638445Y-10271476D01*
X-4664600Y-10402967D01*
X-13021301Y-10402967D01*
X-12316118Y-9968461D01*
X-12299740Y-9966641D01*
X-12240902Y-10001944D01*
X-12028344Y-10195178D01*
X-12018264Y-10203234D01*
X-11918264Y-10273234D01*
X-11900723Y-10283082D01*
X-11740723Y-10353082D01*
X-11719821Y-10359648D01*
X-11700000Y-10361600D01*
X-11570000Y-10361600D01*
X-11548024Y-10359195D01*
X-11529094Y-10353001D01*
X-11511736Y-10343234D01*
X-11411736Y-10273234D01*
X-11396004Y-10259622D01*
X-11383843Y-10243848D01*
X-11333843Y-10163848D01*
X-11327025Y-10150966D01*
X-11320819Y-10132040D01*
X-11300819Y-10042040D01*
X-11298420Y-10017997D01*
X-11300762Y-9998219D01*
X-11306918Y-9979277D01*
X-11376918Y-9819277D01*
X-11390110Y-9797229D01*
X-11598446Y-9532074D01*
X-11605684Y-9508551D01*
X-11603400Y-9503984D01*
X-10175767Y-8727041D01*
X-10102254Y-8713675D01*
X-10047795Y-8775395D01*
X-9933029Y-8918853D01*
X-9836157Y-9073848D01*
X-9828051Y-9085043D01*
X-9728051Y-9205043D01*
X-9716649Y-9216684D01*
X-9700408Y-9228214D01*
X-9630408Y-9268214D01*
X-9611567Y-9276572D01*
X-9592120Y-9280874D01*
X-9572208Y-9281301D01*
X-9442208Y-9271301D01*
X-9423165Y-9267992D01*
X-9404563Y-9260874D01*
X-9324563Y-9220874D01*
X-9313554Y-9214477D01*
X-9298158Y-9201842D01*
X-9228158Y-9131842D01*
X-9220980Y-9123862D01*
X-9210039Y-9107219D01*
X-9202556Y-9088761D01*
X-9198817Y-9069198D01*
X-9188817Y-8959198D01*
X-9188741Y-8941683D01*
X-9192309Y-8922088D01*
X-9232309Y-8782088D01*
X-9235471Y-8772761D01*
X-9364040Y-8446395D01*
X-9375172Y-8410217D01*
X-9293960Y-8309897D01*
X-8886647Y-8092032D01*
X-8115075Y-7775489D01*
X-7647981Y-7624814D01*
X-7567912Y-7647691D01*
X-7549281Y-7651175D01*
X-7529364Y-7651042D01*
X-7339364Y-7631042D01*
X-7312788Y-7624540D01*
X-7295059Y-7615464D01*
X-7155059Y-7525464D01*
X-7139779Y-7513427D01*
X-7126803Y-7498317D01*
X-7117025Y-7480966D01*
X-7110819Y-7462040D01*
X-7090819Y-7372040D01*
X-7088412Y-7348450D01*
X-7089040Y-7342940D01*
X-7036766Y-7268264D01*
X-7027025Y-7250966D01*
X-7020819Y-7232040D01*
X-7000819Y-7142040D01*
X-6998433Y-7122593D01*
X-6999879Y-7102729D01*
X-7005172Y-7083528D01*
X-7055172Y-6953528D01*
X-7061951Y-6939305D01*
X-7073533Y-6923102D01*
X-7088053Y-6909469D01*
X-7218053Y-6809469D01*
X-7237541Y-6797697D01*
X-7256364Y-6791188D01*
X-7276095Y-6788475D01*
X-7536095Y-6778475D01*
X-7547712Y-6778981D01*
X-7745360Y-6673980D01*
X-8130342Y-6385243D01*
X-8188888Y-6317691D01*
X-6999305Y-5817311D01*
X-6663299Y-5744661D01*
X-6482697Y-5818239D01*
X-6094657Y-6138372D01*
X-6078963Y-6149024D01*
X-5878963Y-6259024D01*
X-5862028Y-6266420D01*
X-5842602Y-6270815D01*
X-5682602Y-6290815D01*
X-5666554Y-6291542D01*
X-5646810Y-6288918D01*
X-5627958Y-6282493D01*
X-5517958Y-6232493D01*
X-5497241Y-6219899D01*
X-5482860Y-6206120D01*
X-5422860Y-6136120D01*
X-5412166Y-6121066D01*
X-5403891Y-6102950D01*
X-5399310Y-6083567D01*
X-5398598Y-6063662D01*
X-5408598Y-5903662D01*
X-5413432Y-5878422D01*
X-5421448Y-5860189D01*
X-5511448Y-5700189D01*
X-5519656Y-5687811D01*
X-5533332Y-5673332D01*
X-5763332Y-5473332D01*
X-5768160Y-5469387D01*
X-5854743Y-5402967D01*
X12235400Y-5402967D01*
X12235400Y-5537033D01*
X12261555Y-5668524D01*
X12312860Y-5792385D01*
X12387344Y-5903857D01*
X12482143Y-5998656D01*
X12593615Y-6073140D01*
X12717476Y-6124445D01*
X12848967Y-6150600D01*
X12983033Y-6150600D01*
X13114524Y-6124445D01*
X13238385Y-6073140D01*
X13349857Y-5998656D01*
X13434013Y-5914500D01*
X15265677Y-5914500D01*
X15349833Y-5998656D01*
X15461305Y-6073140D01*
X15585166Y-6124445D01*
X15716657Y-6150600D01*
X15850723Y-6150600D01*
X15982214Y-6124445D01*
X16106075Y-6073140D01*
X16217547Y-5998656D01*
X16312346Y-5903857D01*
X16386830Y-5792385D01*
X16438135Y-5668524D01*
X16464290Y-5537033D01*
X16464290Y-5402967D01*
X16438135Y-5271476D01*
X16386830Y-5147615D01*
X16312346Y-5036143D01*
X16217547Y-4941344D01*
X16106075Y-4866860D01*
X15982214Y-4815555D01*
X15850723Y-4789400D01*
X15716657Y-4789400D01*
X15585166Y-4815555D01*
X15461305Y-4866860D01*
X15349833Y-4941344D01*
X15265677Y-5025500D01*
X13434013Y-5025500D01*
X13349857Y-4941344D01*
X13238385Y-4866860D01*
X13114524Y-4815555D01*
X12983033Y-4789400D01*
X12848967Y-4789400D01*
X12717476Y-4815555D01*
X12593615Y-4866860D01*
X12482143Y-4941344D01*
X12387344Y-5036143D01*
X12312860Y-5147615D01*
X12261555Y-5271476D01*
X12235400Y-5402967D01*
X-5854743Y-5402967D01*
X-6103601Y-5212062D01*
X-6098625Y-5186758D01*
X-6099254Y-5166851D01*
X-6103755Y-5147449D01*
X-6111955Y-5129298D01*
X-6123538Y-5113096D01*
X-6263538Y-4953096D01*
X-6271382Y-4945072D01*
X-6287318Y-4933125D01*
X-6305279Y-4924517D01*
X-6525279Y-4844517D01*
X-6552006Y-4838715D01*
X-6571919Y-4839102D01*
X-6591375Y-4843366D01*
X-6592794Y-4843827D01*
X-7048380Y-4528936D01*
X-6904499Y-4435101D01*
X-6888083Y-4421767D01*
X-6875464Y-4406358D01*
X-6775464Y-4256358D01*
X-6764013Y-4233302D01*
X-6759360Y-4213935D01*
X-6758575Y-4194034D01*
X-6768575Y-4024034D01*
X-6771082Y-4006810D01*
X-6777507Y-3987958D01*
X-6827507Y-3877958D01*
X-6843246Y-3853432D01*
X-6857708Y-3839737D01*
X-6874563Y-3829126D01*
X-6974563Y-3779126D01*
X-6997080Y-3771019D01*
X-7016831Y-3768449D01*
X-7036703Y-3769782D01*
X-7516703Y-3849782D01*
X-7527458Y-3852181D01*
X-7953137Y-3971670D01*
X-7967563Y-3962977D01*
X-7977131Y-3957887D01*
X-7995925Y-3951294D01*
X-8405925Y-3851294D01*
X-8424364Y-3848556D01*
X-8603576Y-3838600D01*
X-8742761Y-3828658D01*
X-8769717Y-3830332D01*
X-8788782Y-3836093D01*
X-8806358Y-3845464D01*
X-8896358Y-3905464D01*
X-8911767Y-3918083D01*
X-8924418Y-3933466D01*
X-8933825Y-3951021D01*
X-8939627Y-3970075D01*
X-8959627Y-4070075D01*
X-8961553Y-4086907D01*
X-8960205Y-4106778D01*
X-8955006Y-4126005D01*
X-8946157Y-4143848D01*
X-8897746Y-4221305D01*
X-8851600Y-4305907D01*
X-8851600Y-4306961D01*
X-8876179Y-4340757D01*
X-9149587Y-4456430D01*
X-9150300Y-4456734D01*
X-10454568Y-5020307D01*
X-10742486Y-4969921D01*
X-10745288Y-4969471D01*
X-11155288Y-4909471D01*
X-11179787Y-4908872D01*
X-11489787Y-4938872D01*
X-11504642Y-4941434D01*
X-11664642Y-4981434D01*
X-11682576Y-4987751D01*
X-11812576Y-5047751D01*
X-11836488Y-5063176D01*
X-11850198Y-5077624D01*
X-11920198Y-5167624D01*
X-11927176Y-5177818D01*
X-11935681Y-5195828D01*
X-11985681Y-5335828D01*
X-11989668Y-5350283D01*
X-11991600Y-5370106D01*
X-11989627Y-5389925D01*
X-11969627Y-5489925D01*
X-11963907Y-5508782D01*
X-11954536Y-5526358D01*
X-11914536Y-5586358D01*
X-11900647Y-5603017D01*
X-11885045Y-5615397D01*
X-11867327Y-5624495D01*
X-11848175Y-5629961D01*
X-11738175Y-5649961D01*
X-11716751Y-5651354D01*
X-12957081Y-6299967D01*
X-12957478Y-6300176D01*
X-13130483Y-6391621D01*
X-13781357Y-6270125D01*
X-13800000Y-6268400D01*
X-13950000Y-6268400D01*
X-13970931Y-6270579D01*
X-14160931Y-6310579D01*
X-14173714Y-6314157D01*
X-14191765Y-6322576D01*
X-14207826Y-6334354D01*
X-14221280Y-6349040D01*
X-14281280Y-6429040D01*
X-14293866Y-6451119D01*
X-14299648Y-6470179D01*
X-14301600Y-6490000D01*
X-14301600Y-6640000D01*
X-14298918Y-6663190D01*
X-14292493Y-6682042D01*
X-14242493Y-6792042D01*
X-14237424Y-6801765D01*
X-14225646Y-6817826D01*
X-14210960Y-6831280D01*
X-14108149Y-6908388D01*
X-14357478Y-7040176D01*
X-14359044Y-7041021D01*
X-15629044Y-7741021D01*
X-15634183Y-7744054D01*
X-15664711Y-7763300D01*
X-15720282Y-7777707D01*
X-16454589Y-7738544D01*
X-16465636Y-7738556D01*
X-16645636Y-7748556D01*
X-16666835Y-7752008D01*
X-16685437Y-7759126D01*
X-16845437Y-7839126D01*
X-16862292Y-7849737D01*
X-16876754Y-7863432D01*
X-16888266Y-7879685D01*
X-16896386Y-7897871D01*
X-16916386Y-7957871D01*
X-16919181Y-7967960D01*
X-16939181Y-8057960D01*
X-16941150Y-8070443D01*
X-16941070Y-8090360D01*
X-16937107Y-8109879D01*
X-16897107Y-8239879D01*
X-16886982Y-8262504D01*
X-16875068Y-8278464D01*
X-16860269Y-8291794D01*
X-16695542Y-8413172D01*
X-17014183Y-8614054D01*
X-17019616Y-8617729D01*
X-17709616Y-9117729D01*
X-17721842Y-9128158D01*
X-17951842Y-9358158D01*
X-17968998Y-9380991D01*
X-17976849Y-9399296D01*
X-17980979Y-9418780D01*
X-17990979Y-9508780D01*
X-17991600Y-9520000D01*
X-18239504Y-9520000D01*
X-18239504Y-8388013D01*
X-18155348Y-8303857D01*
X-18080864Y-8192385D01*
X-18029559Y-8068524D01*
X-18003404Y-7937033D01*
X-18003404Y-7802967D01*
X-18029559Y-7671476D01*
X-18080864Y-7547615D01*
X-18155348Y-7436143D01*
X-18250147Y-7341344D01*
X-18361619Y-7266860D01*
X-18485480Y-7215555D01*
X-18616971Y-7189400D01*
X-18751037Y-7189400D01*
X-18882528Y-7215555D01*
X-19006389Y-7266860D01*
X-19117861Y-7341344D01*
X-19212660Y-7436143D01*
X-19287144Y-7547615D01*
X-19338449Y-7671476D01*
X-19364604Y-7802967D01*
X-21793691Y-7802967D01*
X-22850459Y2031358D01*
X-19951232Y2031358D01*
X-19881232Y1211358D01*
X-19877691Y1192088D01*
X-19837691Y1052088D01*
X-19836386Y1047871D01*
X-19786386Y897871D01*
X-19781865Y886602D01*
X-19771634Y869514D01*
X-19758265Y854751D01*
X-19742273Y842879D01*
X-19642273Y782879D01*
X-19633301Y778089D01*
X-19614539Y771408D01*
X-19594833Y768515D01*
X-19384833Y758515D01*
X-19366781Y759264D01*
X-19347382Y763778D01*
X-18878412Y922751D01*
X-18791600Y44985D01*
X-18791600Y39525D01*
X-18805091Y31430D01*
X-19557304Y-265496D01*
X-19569341Y-271186D01*
X-19585720Y-282518D01*
X-19599573Y-296828D01*
X-19610368Y-313566D01*
X-19617691Y-332088D01*
X-19657691Y-472088D01*
X-19660272Y-483625D01*
X-19661540Y-503501D01*
X-19651540Y-793501D01*
X-19650930Y-801646D01*
X-19590930Y-1321646D01*
X-19588899Y-1333270D01*
X-19508899Y-1673270D01*
X-19503866Y-1688881D01*
X-19494477Y-1706446D01*
X-19481842Y-1721842D01*
X-19421842Y-1781842D01*
X-19406623Y-1794359D01*
X-19389077Y-1803785D01*
X-19370030Y-1809606D01*
X-19350213Y-1811600D01*
X-19330387Y-1809689D01*
X-19311316Y-1803947D01*
X-19141316Y-1733947D01*
X-19132541Y-1729834D01*
X-18624812Y-1461600D01*
X-18612793Y-1461600D01*
X-18607707Y-1471772D01*
X-18590614Y-1574328D01*
X-18480897Y-2501934D01*
X-18478348Y-2515498D01*
X-18408348Y-2785498D01*
X-18403907Y-2798782D01*
X-18394536Y-2816358D01*
X-18334536Y-2906358D01*
X-18323652Y-2919985D01*
X-18308584Y-2933009D01*
X-18291264Y-2942843D01*
X-18201264Y-2982843D01*
X-18190655Y-2986865D01*
X-18171168Y-2990984D01*
X-18151252Y-2991223D01*
X-18131673Y-2987571D01*
X-17821673Y-2897571D01*
X-17812977Y-2894614D01*
X-17122977Y-2624614D01*
X-17107876Y-2617210D01*
X-17091864Y-2605366D01*
X-17078470Y-2590625D01*
X-17068209Y-2573554D01*
X-17061476Y-2554810D01*
X-17058529Y-2535112D01*
X-17059481Y-2515218D01*
X-17159124Y-1837648D01*
X-17248883Y-920108D01*
X-17249717Y-913694D01*
X-17260137Y-849613D01*
X-16865464Y-627161D01*
X-16748033Y-607030D01*
X-16710876Y-912113D01*
X-16600897Y-1841934D01*
X-16600123Y-1847263D01*
X-16550123Y-2137263D01*
X-16547001Y-2150223D01*
X-16539241Y-2168566D01*
X-16528051Y-2185043D01*
X-16478051Y-2245043D01*
X-16460960Y-2261280D01*
X-16443932Y-2271611D01*
X-16425215Y-2278421D01*
X-16405530Y-2281449D01*
X-16385632Y-2280579D01*
X-16245632Y-2260579D01*
X-16235752Y-2258664D01*
X-16216969Y-2252038D01*
X-15446969Y-1892038D01*
X-15428596Y-1880945D01*
X-15413984Y-1867410D01*
X-15402294Y-1851285D01*
X-15393974Y-1833189D01*
X-15389344Y-1813817D01*
X-15388582Y-1793915D01*
X-15448477Y-795668D01*
X-15449822Y-741830D01*
X-14581584Y-741830D01*
X-14561584Y-1851830D01*
X-14560802Y-1862707D01*
X-14556386Y-1882129D01*
X-14496386Y-2062129D01*
X-14483535Y-2087832D01*
X-14470647Y-2103017D01*
X-14455045Y-2115397D01*
X-14437327Y-2124495D01*
X-14418175Y-2129961D01*
X-14308175Y-2149961D01*
X-14290445Y-2151599D01*
X-14270616Y-2149734D01*
X-14251531Y-2144036D01*
X-10291531Y-524036D01*
X-10273554Y-514477D01*
X-10258158Y-501842D01*
X-10245523Y-486446D01*
X-10236134Y-468881D01*
X-10230352Y-449821D01*
X-10228400Y-430000D01*
X-10228400Y680000D01*
X-10229529Y695103D01*
X-10234406Y714414D01*
X-10324406Y964414D01*
X-10334299Y984570D01*
X-10346592Y1000241D01*
X-10361705Y1013212D01*
X-10379060Y1022986D01*
X-10397987Y1029187D01*
X-10417760Y1031575D01*
X-10437620Y1030061D01*
X-10456802Y1024700D01*
X-14496802Y-545300D01*
X-14516358Y-555464D01*
X-14531767Y-568083D01*
X-14544418Y-583466D01*
X-14553825Y-601021D01*
X-14559627Y-620075D01*
X-14579627Y-720075D01*
X-14581584Y-741830D01*
X-15449822Y-741830D01*
X-15458242Y-405059D01*
X-15443099Y-283915D01*
X-15397063Y-232124D01*
X-15332269Y-199727D01*
X-14972004Y-171285D01*
X-14947770Y-166353D01*
X-14929592Y-158214D01*
X-14859592Y-118214D01*
X-14849514Y-111634D01*
X-14834751Y-98265D01*
X-14822879Y-82273D01*
X-14792879Y-32273D01*
X-14783580Y-12028D01*
X-14779185Y7398D01*
X-14759185Y167398D01*
X-14758658Y187239D01*
X-14788658Y607239D01*
X-14790967Y622695D01*
X-14900967Y1102695D01*
X-14907392Y1121790D01*
X-14917325Y1139054D01*
X-14967325Y1209054D01*
X-14982174Y1225646D01*
X-14998235Y1237424D01*
X-15016286Y1245843D01*
X-15035632Y1250579D01*
X-15105632Y1260579D01*
X-15119629Y1261599D01*
X-15139457Y1259719D01*
X-15533515Y1182830D01*
X-15567079Y1187025D01*
X-15592513Y1208825D01*
X-15620187Y1291849D01*
X-15708400Y2095564D01*
X-15708400Y2115625D01*
X-15706672Y2116777D01*
X-15031715Y2312417D01*
X-15010991Y2321002D01*
X-14994570Y2332273D01*
X-14980664Y2346531D01*
X-14969806Y2363228D01*
X-14962414Y2381723D01*
X-14958773Y2401304D01*
X-14959021Y2421220D01*
X-14998961Y2780680D01*
X-15098904Y3780110D01*
X-15103647Y3802230D01*
X-15111786Y3820408D01*
X-15151786Y3890408D01*
X-15165088Y3908635D01*
X-15179917Y3921931D01*
X-15197056Y3932078D01*
X-15215845Y3938687D01*
X-15235561Y3941503D01*
X-15255449Y3940419D01*
X-15385449Y3920419D01*
X-15411559Y3912711D01*
X-15428847Y3902822D01*
X-15808847Y3632822D01*
X-15809509Y3632339D01*
X-15810003Y3633573D01*
X-15918746Y4948374D01*
X-15919185Y4952602D01*
X-15959185Y5272602D01*
X-15961434Y5284642D01*
X-15991434Y5404642D01*
X-15998579Y5424326D01*
X-16008983Y5441309D01*
X-16022501Y5455937D01*
X-16112501Y5535937D01*
X-16133232Y5550196D01*
X-16151727Y5557587D01*
X-16171308Y5561228D01*
X-16191224Y5560978D01*
X-16210708Y5556848D01*
X-17030708Y5296848D01*
X-17041790Y5292608D01*
X-17059054Y5282675D01*
X-17129054Y5232675D01*
X-17145249Y5218265D01*
X-17157121Y5202273D01*
X-17217121Y5102273D01*
X-17226386Y5082129D01*
X-17256386Y4992129D01*
X-17260218Y4976699D01*
X-17261550Y4956827D01*
X-17251550Y4636827D01*
X-17251276Y4631898D01*
X-17231276Y4381898D01*
X-17231027Y4379224D01*
X-17151216Y3630994D01*
X-17112320Y3086458D01*
X-17112713Y3084494D01*
X-17398063Y2972083D01*
X-17738815Y2980602D01*
X-17739947Y2983432D01*
X-17868722Y4598077D01*
X-17870655Y4611288D01*
X-17900655Y4751288D01*
X-17905667Y4767733D01*
X-17945667Y4867733D01*
X-17959671Y4892208D01*
X-17973351Y4906684D01*
X-17989592Y4918214D01*
X-18059592Y4958214D01*
X-18087080Y4968981D01*
X-18106831Y4971551D01*
X-18126703Y4970218D01*
X-18246703Y4950218D01*
X-18268079Y4944194D01*
X-19208079Y4564194D01*
X-19221765Y4557424D01*
X-19237826Y4545646D01*
X-19251280Y4530960D01*
X-19341280Y4410960D01*
X-19353600Y4389517D01*
X-19359511Y4370498D01*
X-19361598Y4350690D01*
X-19359780Y4330856D01*
X-19030959Y2617001D01*
X-19023340Y2502717D01*
X-19050052Y2453745D01*
X-19097549Y2437913D01*
X-19216423Y2410480D01*
X-19619865Y2371120D01*
X-19634642Y2368566D01*
X-19754642Y2338566D01*
X-19776772Y2330194D01*
X-19793469Y2319336D01*
X-19893469Y2239336D01*
X-19904048Y2229566D01*
X-19916197Y2213783D01*
X-19925033Y2195933D01*
X-19930218Y2176703D01*
X-19950218Y2056703D01*
X-19951232Y2031358D01*
X-22850459Y2031358D01*
X-22995243Y3378722D01*
X-23316533Y6368664D01*
X-23205030Y6400522D01*
X5935400Y6400522D01*
X5935400Y6266456D01*
X5961555Y6134965D01*
X6012860Y6011104D01*
X6087344Y5899632D01*
X6182143Y5804833D01*
X6293615Y5730349D01*
X6417476Y5679044D01*
X6548967Y5652889D01*
X6683033Y5652889D01*
X6814524Y5679044D01*
X6938385Y5730349D01*
X7049857Y5804833D01*
X7134013Y5888989D01*
X7432394Y5888989D01*
X8717118Y4604265D01*
X8617476Y4584445D01*
X8493615Y4533140D01*
X8382143Y4458656D01*
X8287344Y4363857D01*
X8212860Y4252385D01*
X8161555Y4128524D01*
X8135400Y3997033D01*
X8135400Y3862967D01*
X8161555Y3731476D01*
X8212860Y3607615D01*
X8287344Y3496143D01*
X8382143Y3401344D01*
X8493615Y3326860D01*
X8617476Y3275555D01*
X8748967Y3249400D01*
X8883033Y3249400D01*
X9014524Y3275555D01*
X9138385Y3326860D01*
X9249857Y3401344D01*
X9334013Y3485500D01*
X9335883Y3485500D01*
X11690258Y1131124D01*
X11704171Y1114171D01*
X11721124Y1100258D01*
X11721127Y1100255D01*
X11771854Y1058624D01*
X11822459Y1031575D01*
X11849074Y1017349D01*
X11932863Y991932D01*
X11998170Y985500D01*
X11998180Y985500D01*
X12020000Y983351D01*
X12041820Y985500D01*
X15697987Y985500D01*
X15782143Y901344D01*
X15893615Y826860D01*
X16017476Y775555D01*
X16148967Y749400D01*
X16283033Y749400D01*
X16414524Y775555D01*
X16538385Y826860D01*
X16649857Y901344D01*
X16744656Y996143D01*
X16819140Y1107615D01*
X16870445Y1231476D01*
X16896600Y1362967D01*
X16896600Y1497033D01*
X16870445Y1628524D01*
X16819140Y1752385D01*
X16744656Y1863857D01*
X16649857Y1958656D01*
X16538385Y2033140D01*
X16414524Y2084445D01*
X16283033Y2110600D01*
X16235732Y2110600D01*
X16310956Y2185824D01*
X16385440Y2297296D01*
X16436745Y2421157D01*
X16462900Y2552648D01*
X16462900Y2686714D01*
X16436745Y2818205D01*
X16385440Y2942066D01*
X16310956Y3053538D01*
X16216157Y3148337D01*
X16104685Y3222821D01*
X15980824Y3274126D01*
X15849333Y3300281D01*
X15715267Y3300281D01*
X15583776Y3274126D01*
X15459915Y3222821D01*
X15348443Y3148337D01*
X15264287Y3064181D01*
X14664437Y3064181D01*
X14188566Y3540051D01*
X14244658Y3596143D01*
X14319142Y3707615D01*
X14370447Y3831476D01*
X14396602Y3962967D01*
X14396602Y4097033D01*
X14370447Y4228524D01*
X14319142Y4352385D01*
X14244658Y4463857D01*
X14149859Y4558656D01*
X14038387Y4633140D01*
X13914526Y4684445D01*
X13783035Y4710600D01*
X13648969Y4710600D01*
X13517478Y4684445D01*
X13393617Y4633140D01*
X13282145Y4558656D01*
X13187346Y4463857D01*
X13112862Y4352385D01*
X13061557Y4228524D01*
X13035402Y4097033D01*
X13035402Y3962967D01*
X13061557Y3831476D01*
X13112862Y3707615D01*
X13187346Y3596143D01*
X13271502Y3511987D01*
X13271502Y3405818D01*
X13269353Y3383998D01*
X13271502Y3362178D01*
X13271502Y3362169D01*
X13277934Y3296862D01*
X13293879Y3244299D01*
X13303351Y3213073D01*
X13344626Y3135853D01*
X13365487Y3110434D01*
X13400173Y3068169D01*
X13417131Y3054252D01*
X13976882Y2494500D01*
X12084117Y2494500D01*
X7946258Y6632359D01*
X7932340Y6649318D01*
X7864656Y6704865D01*
X7787437Y6746140D01*
X7703648Y6771557D01*
X7638341Y6777989D01*
X7638331Y6777989D01*
X7616511Y6780138D01*
X7594691Y6777989D01*
X7134013Y6777989D01*
X7049857Y6862145D01*
X6938385Y6936629D01*
X6814524Y6987934D01*
X6683033Y7014089D01*
X6548967Y7014089D01*
X6417476Y6987934D01*
X6293615Y6936629D01*
X6182143Y6862145D01*
X6087344Y6767346D01*
X6012860Y6655874D01*
X5961555Y6532013D01*
X5935400Y6400522D01*
X-23205030Y6400522D01*
X-6884839Y11063433D01*
X-6850462Y10542062D01*
X-6849839Y10523265D01*
X-6849835Y10523232D01*
X-6849634Y10518070D01*
X-6848358Y10490330D01*
X-6847016Y10481054D01*
X-6847069Y10471692D01*
X-6846510Y10466057D01*
X-6843725Y10439879D01*
X-6835380Y10313316D01*
X-6831219Y10290487D01*
X-6661219Y9730487D01*
X-6653593Y9712088D01*
X-6639178Y9691656D01*
X-6339178Y9361656D01*
X-6324400Y9348303D01*
X-6306241Y9337597D01*
X-5956241Y9177597D01*
X-5937403Y9171132D01*
X-5927141Y9169253D01*
X-5467141Y9109253D01*
X-5438255Y9109627D01*
X-4928255Y9189627D01*
X-4908976Y9194628D01*
X-4898563Y9199126D01*
X-4638563Y9329126D01*
X-4621502Y9339897D01*
X-981502Y12179897D01*
X-967075Y12193629D01*
X-955605Y12209911D01*
X-947532Y12228119D01*
X-943166Y12247551D01*
X-942674Y12267462D01*
X-948039Y12293378D01*
X-1028039Y12523378D01*
X-1036395Y12541457D01*
X-1048117Y12557560D01*
X-1062755Y12571066D01*
X-1079747Y12581456D01*
X-1093035Y12586766D01*
X-1329979Y12662588D01*
X-1493784Y12769417D01*
X-1497144Y12800068D01*
X-1497010Y12847254D01*
X-1496142Y12868083D01*
X-1491405Y12919342D01*
X-1481341Y12981824D01*
X-1467396Y13046130D01*
X-1450453Y13110424D01*
X-1430607Y13175793D01*
X-1408441Y13241264D01*
X-1399318Y13266523D01*
X-1374322Y13331929D01*
X-1347935Y13396357D01*
X-1320923Y13458494D01*
X-1292653Y13520226D01*
X-1262209Y13583618D01*
X-1230839Y13646148D01*
X-1198780Y13707570D01*
X-1166199Y13767769D01*
X-1134488Y13824413D01*
X4358496Y13824413D01*
X4358610Y13813476D01*
X4361831Y13793821D01*
X4441831Y13493821D01*
X4447004Y13479082D01*
X4557004Y13229082D01*
X4565523Y13213554D01*
X4578158Y13198158D01*
X4748158Y13028158D01*
X4757708Y13019737D01*
X4774563Y13009126D01*
X4894563Y12949126D01*
X4913062Y12942036D01*
X4932692Y12938663D01*
X4952602Y12939185D01*
X5032602Y12949185D01*
X5058782Y12956093D01*
X5076358Y12965464D01*
X5286358Y13105464D01*
X5295289Y13112155D01*
X5605289Y13372155D01*
X5614452Y13380866D01*
X5873178Y13659494D01*
X6201842Y13988158D01*
X6203615Y13989976D01*
X6983615Y14809976D01*
X6989185Y14816342D01*
X7399185Y15326342D01*
X7399659Y15326937D01*
X7779659Y15806937D01*
X7786287Y15816362D01*
X8016287Y16186362D01*
X8027658Y16211972D01*
X8031249Y16231563D01*
X8030950Y16251477D01*
X8026771Y16270951D01*
X8018873Y16289235D01*
X8007560Y16305628D01*
X7993266Y16319498D01*
X7976541Y16330313D01*
X7958028Y16337658D01*
X7938437Y16341249D01*
X7818437Y16351249D01*
X7793297Y16350218D01*
X7433297Y16290218D01*
X7425875Y16288694D01*
X6975875Y16178694D01*
X6975833Y16178684D01*
X6485833Y16058684D01*
X6474713Y16055275D01*
X5934713Y15855275D01*
X5923638Y15850405D01*
X5533638Y15650405D01*
X5521199Y15642856D01*
X5211199Y15422856D01*
X5195949Y15409563D01*
X4885949Y15079563D01*
X4883222Y15076541D01*
X4623222Y14776541D01*
X4615099Y14765807D01*
X4605843Y14748172D01*
X4455843Y14378172D01*
X4452058Y14367018D01*
X4372058Y14077018D01*
X4368496Y14054413D01*
X4358496Y13824413D01*
X-1134488Y13824413D01*
X-1131902Y13829032D01*
X-1097405Y13888722D01*
X-1061323Y13949311D01*
X-1025325Y14008066D01*
X-987911Y14067519D01*
X-948946Y14127835D01*
X-910509Y14185881D01*
X-870682Y14244615D01*
X-829564Y14303851D01*
X-789134Y14360829D01*
X-747529Y14418218D01*
X-706780Y14473286D01*
X-664987Y14528671D01*
X-622151Y14584343D01*
X-578240Y14640330D01*
X-535614Y14693688D01*
X-491959Y14747359D01*
X-447379Y14801216D01*
X-401796Y14855323D01*
X-373473Y14888378D01*
X1428746Y14888378D01*
X1429057Y14868464D01*
X1469057Y14518464D01*
X1475909Y14491667D01*
X1585909Y14221667D01*
X1599293Y14198283D01*
X1729293Y14028283D01*
X1750086Y14007946D01*
X1767245Y13997834D01*
X1786048Y13991264D01*
X1805770Y13988488D01*
X1825656Y13989613D01*
X1844939Y13994597D01*
X1862880Y14003246D01*
X1878789Y14015229D01*
X2378789Y14475229D01*
X2385937Y14482501D01*
X2624643Y14751045D01*
X2857386Y14993486D01*
X3152822Y15212681D01*
X3434171Y15348504D01*
X3440772Y15351996D01*
X3700772Y15501996D01*
X3710062Y15508054D01*
X3724895Y15521346D01*
X3834895Y15641346D01*
X3844498Y15653584D01*
X3853880Y15671153D01*
X3973780Y15960911D01*
X4153720Y16390768D01*
X4157923Y16402915D01*
X4287923Y16872915D01*
X4290382Y16884315D01*
X4390382Y17524315D01*
X4391600Y17540000D01*
X4391600Y17550000D01*
X4389399Y17571035D01*
X4383385Y17590022D01*
X4373783Y17607472D01*
X4360961Y17622713D01*
X4345412Y17635159D01*
X4327733Y17644333D01*
X4308605Y17649882D01*
X4288761Y17651592D01*
X4268965Y17649399D01*
X4249978Y17643385D01*
X3899978Y17493385D01*
X3893855Y17490516D01*
X3383855Y17230516D01*
X3377974Y17227269D01*
X2857974Y16917269D01*
X2847451Y16910063D01*
X2527451Y16660063D01*
X2520125Y16653757D01*
X2140125Y16293757D01*
X2132155Y16285289D01*
X1872155Y15975289D01*
X1863112Y15962659D01*
X1663112Y15632659D01*
X1657044Y15621010D01*
X1507044Y15281010D01*
X1500268Y15259392D01*
X1430268Y14899392D01*
X1428746Y14888378D01*
X-373473Y14888378D01*
X-357803Y14906666D01*
X-313047Y14958053D01*
X-262065Y15015586D01*
X-215493Y15067253D01*
X-168021Y15119076D01*
X-119682Y15171002D01*
X-67685Y15225943D01*
X-17606Y15277995D01*
X30372Y15327097D01*
X79181Y15376298D01*
X131683Y15428411D01*
X181989Y15477572D01*
X233057Y15526733D01*
X284068Y15575107D01*
X334309Y15622061D01*
X384424Y15668227D01*
X435228Y15714365D01*
X487448Y15761108D01*
X539517Y15807049D01*
X591390Y15852163D01*
X644772Y15897933D01*
X698141Y15943038D01*
X700745Y15945716D01*
X703778Y15947892D01*
X708010Y15951656D01*
X762594Y16000897D01*
X770473Y16009542D01*
X779464Y16017020D01*
X783416Y16021076D01*
X832994Y16072688D01*
X840436Y16082128D01*
X849090Y16090468D01*
X852735Y16094802D01*
X899833Y16151611D01*
X906822Y16161950D01*
X915128Y16171258D01*
X918437Y16175854D01*
X961323Y16236328D01*
X967618Y16247346D01*
X975317Y16257428D01*
X978265Y16262264D01*
X1016662Y16326253D01*
X1022164Y16337858D01*
X1029141Y16348624D01*
X1031708Y16353672D01*
X1065344Y16420998D01*
X1070011Y16433190D01*
X1076233Y16444666D01*
X1078397Y16449899D01*
X1107313Y16521234D01*
X1111133Y16534160D01*
X1116586Y16546485D01*
X1118324Y16551875D01*
X1142392Y16628372D01*
X1145324Y16642330D01*
X1149976Y16655807D01*
X1151255Y16661324D01*
X1170042Y16745075D01*
X1171890Y16760034D01*
X1175533Y16774653D01*
X1176321Y16780261D01*
X1188171Y16869159D01*
X1188727Y16885130D01*
X1191139Y16900923D01*
X1191405Y16906580D01*
X1195249Y17002919D01*
X1194292Y17019440D01*
X1195220Y17035956D01*
X1194945Y17041613D01*
X1189571Y17138242D01*
X1187127Y17154060D01*
X1186541Y17170053D01*
X1185744Y17175659D01*
X1172191Y17266363D01*
X1168615Y17280602D01*
X1166816Y17295168D01*
X1165539Y17300686D01*
X1146138Y17381881D01*
X1141713Y17394704D01*
X1138973Y17407978D01*
X1137255Y17413374D01*
X1112396Y17489601D01*
X1107191Y17501479D01*
X1103588Y17513946D01*
X1101456Y17519193D01*
X1072079Y17590043D01*
X1066079Y17601270D01*
X1061620Y17613191D01*
X1059093Y17618259D01*
X1024340Y17686735D01*
X1017626Y17697270D01*
X1012380Y17708607D01*
X1009478Y17713470D01*
X971400Y17776268D01*
X964143Y17785958D01*
X958270Y17796534D01*
X955019Y17801171D01*
X913239Y17859869D01*
X905274Y17869017D01*
X898625Y17879155D01*
X895041Y17883540D01*
X848361Y17939844D01*
X839770Y17948357D01*
X832417Y17957950D01*
X828522Y17962061D01*
X778987Y18013589D01*
X769812Y18021434D01*
X761786Y18030450D01*
X757600Y18034264D01*
X703032Y18083272D01*
X693383Y18090367D01*
X684793Y18098706D01*
X680339Y18102205D01*
X623855Y18145942D01*
X613927Y18152182D01*
X604950Y18159727D01*
X600258Y18162898D01*
X539783Y18203147D01*
X529478Y18208637D01*
X520024Y18215494D01*
X515117Y18218322D01*
X451148Y18254594D01*
X447165Y18256363D01*
X443555Y18258792D01*
X438552Y18261445D01*
X396152Y18283544D01*
X396153Y18283544D01*
X248058Y18360735D01*
X248053Y18360737D01*
X142559Y18415730D01*
X142554Y18415732D01*
X37313Y18470600D01*
X37312Y18470600D01*
X-46699Y18514406D01*
X-130550Y18558129D01*
X-255855Y18623477D01*
X-255958Y18623531D01*
X-339358Y18667031D01*
X-339361Y18667032D01*
X-422557Y18710428D01*
X-422558Y18710429D01*
X-515905Y18759124D01*
X-609001Y18807693D01*
X-609002Y18807694D01*
X-691513Y18850744D01*
X-691514Y18850745D01*
X-794289Y18904373D01*
X-794322Y18904391D01*
X-917255Y18968545D01*
X-917256Y18968545D01*
X-998842Y19011127D01*
X-998880Y19011147D01*
X-1080241Y19053615D01*
X-1080274Y19053633D01*
X-1161335Y19095948D01*
X-1161416Y19095991D01*
X-1242308Y19138222D01*
X-1242309Y19138222D01*
X-1343039Y19190816D01*
X-1343040Y19190816D01*
X-1483257Y19264036D01*
X-1483301Y19264059D01*
X-1582991Y19316122D01*
X-1582992Y19316123D01*
X-1662342Y19357567D01*
X-1662377Y19357585D01*
X-1741439Y19398883D01*
X-1741473Y19398901D01*
X-1839794Y19450263D01*
X-1839896Y19450317D01*
X-1918253Y19491255D01*
X-1918287Y19491273D01*
X-1996325Y19532049D01*
X-1996355Y19532065D01*
X-2112791Y19592910D01*
X-2112835Y19592933D01*
X-2209343Y19643370D01*
X-2209348Y19643372D01*
X-2305216Y19693481D01*
X-2305251Y19693500D01*
X-2381612Y19733417D01*
X-2381613Y19733418D01*
X-2462279Y19775588D01*
X-2462314Y19775607D01*
X-2533205Y19812672D01*
X-2636507Y19866689D01*
X-2636537Y19866705D01*
X-2720570Y19910650D01*
X-2720571Y19910651D01*
X-2794830Y19949488D01*
X-2868685Y19988120D01*
X-2969521Y20040869D01*
X-2969566Y20040893D01*
X-3051548Y20083784D01*
X-3159879Y20140468D01*
X-3159978Y20140521D01*
X-3231750Y20178080D01*
X-3231751Y20178081D01*
X-3303067Y20215405D01*
X-3303069Y20215406D01*
X-3391511Y20261698D01*
X-3391577Y20261733D01*
X-3479330Y20307672D01*
X-3479372Y20307694D01*
X-3583805Y20362371D01*
X-3652816Y20398507D01*
X-3721347Y20434397D01*
X-3789391Y20470036D01*
X-3789393Y20470037D01*
X-3856949Y20505423D01*
X-3940701Y20549299D01*
X-3940702Y20549299D01*
X-4007119Y20584098D01*
X-4007123Y20584099D01*
X-4122010Y20644304D01*
X-4122073Y20644337D01*
X-4203260Y20686888D01*
X-4203259Y20686888D01*
X-4283552Y20728977D01*
X-4394584Y20787189D01*
X-4503866Y20844499D01*
X-4503870Y20844501D01*
X-4596112Y20892882D01*
X-4596150Y20892902D01*
X-4687192Y20940665D01*
X-4687198Y20940667D01*
X-4776816Y20987694D01*
X-4776850Y20987712D01*
X-4879846Y21041770D01*
X-4980907Y21094826D01*
X-4980909Y21094827D01*
X-5051960Y21132136D01*
X-5051961Y21132136D01*
X-5156658Y21187126D01*
X-5156657Y21187126D01*
X-5232012Y21226715D01*
X-5232014Y21226716D01*
X-5312749Y21269140D01*
X-5312779Y21269156D01*
X-5379036Y21303984D01*
X-5379037Y21303984D01*
X-5469961Y21351790D01*
X-5469964Y21351791D01*
X-5546242Y21391908D01*
X-5633301Y21437710D01*
X-5633307Y21437713D01*
X-5718168Y21482373D01*
X-5718167Y21482373D01*
X-5789178Y21519758D01*
X-5789180Y21519759D01*
X-5858571Y21556305D01*
X-5858575Y21556307D01*
X-5926308Y21591992D01*
X-5997702Y21629621D01*
X-5997736Y21629639D01*
X-6077834Y21671875D01*
X-6077836Y21671876D01*
X-6160216Y21715339D01*
X-6160223Y21715342D01*
X-6239467Y21757178D01*
X-6315550Y21797372D01*
X-6315551Y21797372D01*
X-6388236Y21835801D01*
X-6388271Y21835820D01*
X-6457953Y21872690D01*
X-6457957Y21872692D01*
X-6524170Y21907759D01*
X-6524174Y21907761D01*
X-6598151Y21946983D01*
X-6598197Y21947008D01*
X-6663870Y21981873D01*
X-6663957Y21981920D01*
X-6731769Y22017979D01*
X-6757196Y22031529D01*
X-6747265Y22033513D01*
X-6747266Y22033513D01*
X-6655931Y22051603D01*
X-6564743Y22069504D01*
X-6473926Y22087175D01*
X-6382837Y22104739D01*
X-6292668Y22121967D01*
X-6292655Y22121969D01*
X-6201558Y22139212D01*
X-6201557Y22139212D01*
X-6111913Y22156019D01*
X-6021924Y22172731D01*
X-5931843Y22189297D01*
X-5842131Y22205631D01*
X-5752841Y22221727D01*
X-5663926Y22237592D01*
X-5574976Y22253300D01*
X-5486573Y22268747D01*
X-5397396Y22284165D01*
X-5309316Y22299225D01*
X-5221391Y22314095D01*
X-5133253Y22328835D01*
X-5045527Y22343338D01*
X-4958468Y22357564D01*
X-4870721Y22371737D01*
X-4783640Y22385630D01*
X-4696924Y22399299D01*
X-4610507Y22412753D01*
X-4523719Y22426094D01*
X-4437121Y22439236D01*
X-4342866Y22453343D01*
X-4248372Y22467280D01*
X-4153859Y22481011D01*
X-4059899Y22494453D01*
X-3966452Y22507614D01*
X-3872654Y22520614D01*
X-3779342Y22533339D01*
X-3686485Y22545790D01*
X-3593288Y22558073D01*
X-3500912Y22570041D01*
X-3408601Y22581787D01*
X-3316453Y22593299D01*
X-3215902Y22605618D01*
X-3124537Y22616587D01*
X-3032829Y22627381D01*
X-2933773Y22638798D01*
X-2842349Y22649107D01*
X-2743407Y22660018D01*
X-2652955Y22669765D01*
X-2562792Y22679265D01*
X-2472715Y22688537D01*
X-2374271Y22698422D01*
X-2276835Y22707943D01*
X-2179296Y22717215D01*
X-2081932Y22726205D01*
X-1984945Y22734898D01*
X-1887982Y22743326D01*
X-1791530Y22751444D01*
X-1695332Y22759275D01*
X-1599016Y22766849D01*
X-1503676Y22774080D01*
X-1407783Y22781086D01*
X-1312706Y22787765D01*
X-1217431Y22794188D01*
X-1122593Y22800313D01*
X-1027885Y22806157D01*
X-933776Y22811696D01*
X-839586Y22816968D01*
X-745682Y22821951D01*
X-644206Y22827030D01*
X-58280Y22849943D01*
X-41085Y22850472D01*
X66085Y22853405D01*
X165798Y22855794D01*
X237895Y22857284D01*
X2142341Y22831548D01*
X2217450Y22827838D01*
X2311604Y22822834D01*
X2405206Y22817517D01*
X2506335Y22811390D01*
X2601781Y22805240D01*
X2619072Y22804060D01*
X4143923Y22654425D01*
X4200257Y22647062D01*
X4290254Y22634952D01*
X4377919Y22622813D01*
X4464339Y22610518D01*
X4557401Y22596909D01*
X4643060Y22584045D01*
X4728751Y22570849D01*
X4814261Y22557354D01*
X4855708Y22550646D01*
X6264040Y22277602D01*
X6343580Y22259420D01*
X6426762Y22240065D01*
X6508034Y22220834D01*
X6587313Y22201768D01*
X6643062Y22188147D01*
X7887743Y21842403D01*
X8136604Y21767404D01*
X8208865Y21744244D01*
X8292863Y21716980D01*
X8378383Y21688858D01*
X8458200Y21662280D01*
X8458304Y21662256D01*
X8460909Y21661389D01*
X8478114Y21655794D01*
X8484902Y21654300D01*
X8491356Y21651737D01*
X8496809Y21650208D01*
X8575591Y21628718D01*
X8589079Y21626423D01*
X8602162Y21622423D01*
X8607721Y21621342D01*
X8691961Y21605577D01*
X8706884Y21604272D01*
X8721536Y21601164D01*
X8727169Y21600574D01*
X8820799Y21591435D01*
X8837248Y21591442D01*
X8853587Y21589571D01*
X8859250Y21589518D01*
X8959080Y21589284D01*
X8975428Y21590848D01*
X8991847Y21590533D01*
X8997489Y21591016D01*
X9090697Y21599661D01*
X9105711Y21602552D01*
X9120955Y21603621D01*
X9126532Y21604605D01*
X9213247Y21620537D01*
X9227045Y21624496D01*
X9241221Y21626706D01*
X9246695Y21628157D01*
X9327694Y21650253D01*
X9340238Y21655032D01*
X9353296Y21658154D01*
X9358637Y21660039D01*
X9389371Y21671131D01*
X9457735Y21679080D01*
X9477198Y21683308D01*
X9501966Y21695204D01*
X10001966Y22025204D01*
X10020275Y22040676D01*
X10720275Y22790676D01*
X10725925Y22797274D01*
X10930748Y23058258D01*
X10973108Y23107671D01*
X10973168Y23107756D01*
X10974653Y23109485D01*
X11024493Y23168320D01*
X11024549Y23168402D01*
X11026007Y23170118D01*
X11073064Y23226325D01*
X11073118Y23226405D01*
X11074551Y23228111D01*
X11122204Y23285697D01*
X11122262Y23285783D01*
X11123793Y23287630D01*
X11177449Y23353291D01*
X11177503Y23353372D01*
X11179111Y23355338D01*
X11229925Y23418353D01*
X11229981Y23418438D01*
X11231469Y23420280D01*
X11278466Y23479293D01*
X11278517Y23479372D01*
X11279950Y23481167D01*
X11326390Y23540191D01*
X11326445Y23540277D01*
X11327863Y23542075D01*
X11372706Y23599765D01*
X11372763Y23599856D01*
X11374179Y23601673D01*
X11421562Y23663385D01*
X11421614Y23663468D01*
X11423086Y23665382D01*
X11470871Y23728422D01*
X11470925Y23728510D01*
X11472368Y23730410D01*
X11516524Y23789411D01*
X11516576Y23789497D01*
X11517950Y23791328D01*
X11561547Y23850303D01*
X11561596Y23850385D01*
X11562980Y23852253D01*
X11606990Y23912537D01*
X11607039Y23912621D01*
X11608454Y23914555D01*
X11653796Y23977471D01*
X11653845Y23977555D01*
X11655294Y23979563D01*
X11699996Y24042428D01*
X11700047Y24042517D01*
X11701435Y24044465D01*
X11743638Y24104595D01*
X11743688Y24104684D01*
X11745083Y24106668D01*
X11788532Y24169401D01*
X11788581Y24169488D01*
X11789945Y24171454D01*
X11830949Y24231441D01*
X11830999Y24231532D01*
X11832335Y24233482D01*
X11872752Y24293389D01*
X11872802Y24293482D01*
X11874156Y24295485D01*
X11915741Y24357958D01*
X11915787Y24358044D01*
X11917172Y24360122D01*
X11958983Y24423814D01*
X11959030Y24423905D01*
X11960458Y24426077D01*
X12002445Y24490975D01*
X12002493Y24491067D01*
X12003923Y24493276D01*
X12046887Y24560678D01*
X12046931Y24560765D01*
X12048429Y24563115D01*
X12092277Y24632993D01*
X12092326Y24633091D01*
X12093803Y24635445D01*
X12135225Y24702513D01*
X12135269Y24702602D01*
X12136674Y24704876D01*
X12175760Y24769140D01*
X12175806Y24769236D01*
X12177179Y24771492D01*
X12214786Y24834278D01*
X12214830Y24834370D01*
X12216190Y24836640D01*
X12254651Y24901850D01*
X12254696Y24901946D01*
X12256060Y24904258D01*
X12293045Y24967964D01*
X12293085Y24968052D01*
X12294475Y24970445D01*
X12332960Y25037825D01*
X12333005Y25037926D01*
X12334423Y25040410D01*
X12372118Y25107543D01*
X12372161Y25107640D01*
X12373571Y25110153D01*
X12410476Y25177029D01*
X12410517Y25177125D01*
X12411916Y25179662D01*
X12448031Y25246267D01*
X12448071Y25246361D01*
X12449469Y25248943D01*
X12484792Y25315268D01*
X12484831Y25315364D01*
X12486225Y25317983D01*
X12521415Y25385281D01*
X12521455Y25385379D01*
X12522864Y25388080D01*
X12557874Y25456318D01*
X12557913Y25456416D01*
X12559346Y25459216D01*
X12593495Y25527113D01*
X12593530Y25527205D01*
X12594952Y25530039D01*
X12628858Y25598827D01*
X12628894Y25598922D01*
X12630336Y25601856D01*
X12663947Y25671499D01*
X12663983Y25671598D01*
X12665426Y25674598D01*
X12698117Y25743827D01*
X12698148Y25743915D01*
X12699632Y25747071D01*
X12733076Y25819545D01*
X12733106Y25819632D01*
X12734591Y25822866D01*
X12765929Y25892414D01*
X12765960Y25892506D01*
X12767441Y25895812D01*
X12799398Y25968505D01*
X12799428Y25968596D01*
X12800945Y25972071D01*
X12831840Y26044218D01*
X12831867Y26044304D01*
X12833381Y26047866D01*
X12863705Y26120635D01*
X12863728Y26120710D01*
X12865272Y26124448D01*
X12879107Y26158622D01*
X12897078Y26194973D01*
X12901257Y26204663D01*
X13131257Y26824663D01*
X13137011Y26849080D01*
X13147896Y26949764D01*
X13168925Y27030482D01*
X13169039Y27031202D01*
X13169288Y27031886D01*
X13170658Y27037381D01*
X13191074Y27121786D01*
X13191208Y27122738D01*
X13191519Y27123646D01*
X13192786Y27129165D01*
X13202695Y27173761D01*
X13310183Y27219827D01*
X13557573Y27236888D01*
X13581756Y27234272D01*
G36*
X-16901600Y1246894D02*
G01*
X-16901600Y747112D01*
X-17448400Y513811D01*
X-17448400Y650000D01*
X-17448456Y653385D01*
X-17458456Y953385D01*
X-17459291Y963428D01*
X-17515924Y1388178D01*
X-17503701Y1420774D01*
X-17447364Y1470852D01*
X-16926594Y1655124D01*
X-16901600Y1246894D01*
X-16901600Y1246894D01*
G37*
X-16901600Y1246894D02*
X-16901600Y747112D01*
X-17448400Y513811D01*
X-17448400Y650000D01*
X-17448456Y653385D01*
X-17458456Y953385D01*
X-17459291Y963428D01*
X-17515924Y1388178D01*
X-17503701Y1420774D01*
X-17447364Y1470852D01*
X-16926594Y1655124D01*
X-16901600Y1246894D01*
G36*
X-10961782Y-8007458D02*
G01*
X-10759959Y-8134532D01*
X-10774639Y-8144318D01*
X-11411628Y-8532483D01*
X-12106333Y-8929458D01*
X-12287473Y-9011794D01*
X-12657661Y-8798655D01*
X-12707518Y-8748798D01*
X-12464924Y-8575516D01*
X-11227241Y-7859980D01*
X-10961782Y-8007458D01*
X-10961782Y-8007458D01*
G37*
X-10961782Y-8007458D02*
X-10759959Y-8134532D01*
X-10774639Y-8144318D01*
X-11411628Y-8532483D01*
X-12106333Y-8929458D01*
X-12287473Y-9011794D01*
X-12657661Y-8798655D01*
X-12707518Y-8748798D01*
X-12464924Y-8575516D01*
X-11227241Y-7859980D01*
X-10961782Y-8007458D01*
G36*
X-12169337Y-7470791D02*
G01*
X-12702403Y-7812908D01*
X-13569859Y-8301475D01*
X-13576358Y-8305464D01*
X-13601027Y-8321910D01*
X-14487626Y-8081476D01*
X-14202287Y-7929700D01*
X-14201747Y-7929410D01*
X-12942131Y-7249617D01*
X-12872736Y-7212878D01*
X-12169337Y-7470791D01*
X-12169337Y-7470791D01*
G37*
X-12169337Y-7470791D02*
X-12702403Y-7812908D01*
X-13569859Y-8301475D01*
X-13576358Y-8305464D01*
X-13601027Y-8321910D01*
X-14487626Y-8081476D01*
X-14202287Y-7929700D01*
X-14201747Y-7929410D01*
X-12942131Y-7249617D01*
X-12872736Y-7212878D01*
X-12169337Y-7470791D01*
G36*
X-8435845Y-7075976D02*
G01*
X-9099544Y-7356412D01*
X-9101896Y-7357440D01*
X-9998494Y-7763269D01*
X-10431980Y-7461142D01*
X-8931135Y-6664396D01*
X-8435845Y-7075976D01*
X-8435845Y-7075976D01*
G37*
X-8435845Y-7075976D02*
X-9099544Y-7356412D01*
X-9101896Y-7357440D01*
X-9998494Y-7763269D01*
X-10431980Y-7461142D01*
X-8931135Y-6664396D01*
X-8435845Y-7075976D01*
G36*
X-10274368Y-5920579D02*
G01*
X-10256763Y-5921548D01*
X-10237014Y-5918966D01*
X-10233523Y-5917784D01*
X-9729948Y-6155101D01*
X-11327067Y-6989959D01*
X-11329449Y-6991245D01*
X-11339205Y-6996681D01*
X-11974509Y-6741178D01*
X-10313072Y-5915050D01*
X-10274368Y-5920579D01*
X-10274368Y-5920579D01*
G37*
X-10274368Y-5920579D02*
X-10256763Y-5921548D01*
X-10237014Y-5918966D01*
X-10233523Y-5917784D01*
X-9729948Y-6155101D01*
X-11327067Y-6989959D01*
X-11329449Y-6991245D01*
X-11339205Y-6996681D01*
X-11974509Y-6741178D01*
X-10313072Y-5915050D01*
X-10274368Y-5920579D01*
G36*
X-7811301Y-4942870D02*
G01*
X-7594060Y-5046767D01*
X-7475198Y-5140606D01*
X-8899207Y-5736270D01*
X-8905437Y-5739126D01*
X-8946987Y-5759901D01*
X-9370766Y-5477382D01*
X-8361527Y-5034070D01*
X-8088667Y-4930572D01*
X-7924364Y-4921444D01*
X-7908642Y-4919330D01*
X-7889674Y-4913254D01*
X-7886528Y-4911894D01*
X-7811301Y-4942870D01*
X-7811301Y-4942870D01*
G37*
X-7811301Y-4942870D02*
X-7594060Y-5046767D01*
X-7475198Y-5140606D01*
X-8899207Y-5736270D01*
X-8905437Y-5739126D01*
X-8946987Y-5759901D01*
X-9370766Y-5477382D01*
X-8361527Y-5034070D01*
X-8088667Y-4930572D01*
X-7924364Y-4921444D01*
X-7908642Y-4919330D01*
X-7889674Y-4913254D01*
X-7886528Y-4911894D01*
X-7811301Y-4942870D01*
M02*
