G04 #@! TF.GenerationSoftware,KiCad,Pcbnew,(5.1.2)-1*
G04 #@! TF.CreationDate,2019-07-09T23:17:51-04:00*
G04 #@! TF.ProjectId,SPIvSPI_SAO_White,53504976-5350-4495-9f53-414f5f576869,0*
G04 #@! TF.SameCoordinates,PX90f5600PY584f6c0*
G04 #@! TF.FileFunction,Legend,Bot*
G04 #@! TF.FilePolarity,Positive*
%FSLAX46Y46*%
G04 Gerber Fmt 4.6, Leading zero omitted, Abs format (unit mm)*
G04 Created by KiCad (PCBNEW (5.1.2)-1) date 2019-07-09 23:17:51*
%MOMM*%
%LPD*%
G04 APERTURE LIST*
%ADD10C,0.120000*%
%ADD11C,0.150000*%
%ADD12C,0.160000*%
%ADD13C,0.300000*%
%ADD14C,0.100000*%
%ADD15C,0.200000*%
G04 APERTURE END LIST*
D10*
X6400000Y-9200000D02*
X6400000Y-8600000D01*
X11400000Y-9200000D02*
X6400000Y-9200000D01*
X11400000Y-8600000D02*
X11400000Y-9200000D01*
D11*
X4892301Y-13385194D02*
X4993316Y-13418866D01*
X5094331Y-13519881D01*
X5161675Y-13654568D01*
X5161675Y-13789255D01*
X5128003Y-13890270D01*
X5026988Y-14058629D01*
X4925973Y-14159644D01*
X4757614Y-14260660D01*
X4656599Y-14294331D01*
X4521912Y-14294331D01*
X4387225Y-14226988D01*
X4319881Y-14159644D01*
X4252538Y-14024957D01*
X4252538Y-13957614D01*
X4488240Y-13721912D01*
X4622927Y-13856599D01*
X3882148Y-13721912D02*
X4589255Y-13014805D01*
X3478087Y-13317851D01*
X4185194Y-12610744D01*
X3141370Y-12981133D02*
X3848477Y-12274026D01*
X3680118Y-12105668D01*
X3545431Y-12038324D01*
X3410744Y-12038324D01*
X3309729Y-12071996D01*
X3141370Y-12173011D01*
X3040355Y-12274026D01*
X2939339Y-12442385D01*
X2905668Y-12543400D01*
X2905668Y-12678087D01*
X2973011Y-12812774D01*
X3141370Y-12981133D01*
X5195347Y-11896362D02*
X4656599Y-11357614D01*
X4656599Y-11896362D02*
X5195347Y-11357614D01*
X4824957Y-10650507D02*
X4387225Y-10212774D01*
X4353553Y-10717851D01*
X4252538Y-10616835D01*
X4151522Y-10583164D01*
X4084179Y-10583164D01*
X3983164Y-10616835D01*
X3814805Y-10785194D01*
X3781133Y-10886209D01*
X3781133Y-10953553D01*
X3814805Y-11054568D01*
X4016835Y-11256599D01*
X4117851Y-11290270D01*
X4185194Y-11290270D01*
X4185194Y-10010744D02*
X3242385Y-10482148D01*
X3713790Y-9539339D01*
X3545431Y-9370981D02*
X3107698Y-8933248D01*
X3074026Y-9438324D01*
X2973011Y-9337309D01*
X2871996Y-9303637D01*
X2804652Y-9303637D01*
X2703637Y-9337309D01*
X2535278Y-9505668D01*
X2501607Y-9606683D01*
X2501607Y-9674026D01*
X2535278Y-9775042D01*
X2737309Y-9977072D01*
X2838324Y-10010744D01*
X2905668Y-10010744D01*
D10*
X5882843Y-5200000D02*
G75*
G03X5882843Y-5200000I-282843J0D01*
G01*
X-6200000Y-1600000D02*
X-6200000Y-1200000D01*
X-4800000Y-1600000D02*
X-6200000Y-1600000D01*
X-4800000Y-7000000D02*
X-4800000Y-1600000D01*
X3000000Y-7200000D02*
X-4800000Y-7000000D01*
X3000000Y-5400000D02*
X3000000Y-7200000D01*
X4000000Y-5400000D02*
X3000000Y-5400000D01*
X4000000Y-1800000D02*
X4000000Y-5400000D01*
X1200000Y-1800000D02*
X4000000Y-1800000D01*
X1200000Y5800000D02*
X1200000Y-1800000D01*
X1800000Y5800000D02*
X1200000Y5800000D01*
X1800000Y8000000D02*
X1800000Y5800000D01*
X-6200000Y5800000D02*
X-6200000Y-1200000D01*
X-7800000Y5800000D02*
X-6200000Y5800000D01*
X-7800000Y8000000D02*
X-7800000Y5800000D01*
X1800000Y8000000D02*
X-7800000Y8000000D01*
D11*
X3507142Y-3202380D02*
X3507142Y-2202380D01*
X3126190Y-2202380D01*
X3030952Y-2250000D01*
X2983333Y-2297619D01*
X2935714Y-2392857D01*
X2935714Y-2535714D01*
X2983333Y-2630952D01*
X3030952Y-2678571D01*
X3126190Y-2726190D01*
X3507142Y-2726190D01*
X2507142Y-3202380D02*
X2507142Y-2535714D01*
X2507142Y-2726190D02*
X2459523Y-2630952D01*
X2411904Y-2583333D01*
X2316666Y-2535714D01*
X2221428Y-2535714D01*
X1745238Y-3202380D02*
X1840476Y-3154761D01*
X1888095Y-3107142D01*
X1935714Y-3011904D01*
X1935714Y-2726190D01*
X1888095Y-2630952D01*
X1840476Y-2583333D01*
X1745238Y-2535714D01*
X1602380Y-2535714D01*
X1507142Y-2583333D01*
X1459523Y-2630952D01*
X1411904Y-2726190D01*
X1411904Y-3011904D01*
X1459523Y-3107142D01*
X1507142Y-3154761D01*
X1602380Y-3202380D01*
X1745238Y-3202380D01*
X554761Y-2535714D02*
X554761Y-3345238D01*
X602380Y-3440476D01*
X650000Y-3488095D01*
X745238Y-3535714D01*
X888095Y-3535714D01*
X983333Y-3488095D01*
X554761Y-3154761D02*
X650000Y-3202380D01*
X840476Y-3202380D01*
X935714Y-3154761D01*
X983333Y-3107142D01*
X1030952Y-3011904D01*
X1030952Y-2726190D01*
X983333Y-2630952D01*
X935714Y-2583333D01*
X840476Y-2535714D01*
X650000Y-2535714D01*
X554761Y-2583333D01*
X-683334Y-3202380D02*
X-683334Y-2535714D01*
X-683334Y-2202380D02*
X-635715Y-2250000D01*
X-683334Y-2297619D01*
X-730953Y-2250000D01*
X-683334Y-2202380D01*
X-683334Y-2297619D01*
X-1111905Y-3154761D02*
X-1207143Y-3202380D01*
X-1397620Y-3202380D01*
X-1492858Y-3154761D01*
X-1540477Y-3059523D01*
X-1540477Y-3011904D01*
X-1492858Y-2916666D01*
X-1397620Y-2869047D01*
X-1254762Y-2869047D01*
X-1159524Y-2821428D01*
X-1111905Y-2726190D01*
X-1111905Y-2678571D01*
X-1159524Y-2583333D01*
X-1254762Y-2535714D01*
X-1397620Y-2535714D01*
X-1492858Y-2583333D01*
X-3302381Y-3107142D02*
X-3254762Y-3154761D01*
X-3111905Y-3202380D01*
X-3016667Y-3202380D01*
X-2873810Y-3154761D01*
X-2778572Y-3059523D01*
X-2730953Y-2964285D01*
X-2683334Y-2773809D01*
X-2683334Y-2630952D01*
X-2730953Y-2440476D01*
X-2778572Y-2345238D01*
X-2873810Y-2250000D01*
X-3016667Y-2202380D01*
X-3111905Y-2202380D01*
X-3254762Y-2250000D01*
X-3302381Y-2297619D01*
X-3683334Y-2297619D02*
X-3730953Y-2250000D01*
X-3826191Y-2202380D01*
X-4064286Y-2202380D01*
X-4159524Y-2250000D01*
X-4207143Y-2297619D01*
X-4254762Y-2392857D01*
X-4254762Y-2488095D01*
X-4207143Y-2630952D01*
X-3635715Y-3202380D01*
X-4254762Y-3202380D01*
X3459523Y-4852380D02*
X3459523Y-3852380D01*
X2888095Y-4852380D01*
X2888095Y-3852380D01*
X2269047Y-4852380D02*
X2364285Y-4804761D01*
X2411904Y-4757142D01*
X2459523Y-4661904D01*
X2459523Y-4376190D01*
X2411904Y-4280952D01*
X2364285Y-4233333D01*
X2269047Y-4185714D01*
X2126190Y-4185714D01*
X2030952Y-4233333D01*
X1983333Y-4280952D01*
X1935714Y-4376190D01*
X1935714Y-4661904D01*
X1983333Y-4757142D01*
X2030952Y-4804761D01*
X2126190Y-4852380D01*
X2269047Y-4852380D01*
X1650000Y-4185714D02*
X1269047Y-4185714D01*
X1507142Y-3852380D02*
X1507142Y-4709523D01*
X1459523Y-4804761D01*
X1364285Y-4852380D01*
X1269047Y-4852380D01*
X221428Y-4804761D02*
X78571Y-4852380D01*
X-159524Y-4852380D01*
X-254762Y-4804761D01*
X-302381Y-4757142D01*
X-350000Y-4661904D01*
X-350000Y-4566666D01*
X-302381Y-4471428D01*
X-254762Y-4423809D01*
X-159524Y-4376190D01*
X30952Y-4328571D01*
X126190Y-4280952D01*
X173809Y-4233333D01*
X221428Y-4138095D01*
X221428Y-4042857D01*
X173809Y-3947619D01*
X126190Y-3900000D01*
X30952Y-3852380D01*
X-207143Y-3852380D01*
X-350000Y-3900000D01*
X-1159524Y-4804761D02*
X-1064286Y-4852380D01*
X-873810Y-4852380D01*
X-778572Y-4804761D01*
X-730953Y-4709523D01*
X-730953Y-4328571D01*
X-778572Y-4233333D01*
X-873810Y-4185714D01*
X-1064286Y-4185714D01*
X-1159524Y-4233333D01*
X-1207143Y-4328571D01*
X-1207143Y-4423809D01*
X-730953Y-4519047D01*
X-1635715Y-4852380D02*
X-1635715Y-4185714D01*
X-1635715Y-4376190D02*
X-1683334Y-4280952D01*
X-1730953Y-4233333D01*
X-1826191Y-4185714D01*
X-1921429Y-4185714D01*
X-2254762Y-4852380D02*
X-2254762Y-4185714D01*
X-2254762Y-3852380D02*
X-2207143Y-3900000D01*
X-2254762Y-3947619D01*
X-2302381Y-3900000D01*
X-2254762Y-3852380D01*
X-2254762Y-3947619D01*
X-3159524Y-4852380D02*
X-3159524Y-4328571D01*
X-3111905Y-4233333D01*
X-3016667Y-4185714D01*
X-2826191Y-4185714D01*
X-2730953Y-4233333D01*
X-3159524Y-4804761D02*
X-3064286Y-4852380D01*
X-2826191Y-4852380D01*
X-2730953Y-4804761D01*
X-2683334Y-4709523D01*
X-2683334Y-4614285D01*
X-2730953Y-4519047D01*
X-2826191Y-4471428D01*
X-3064286Y-4471428D01*
X-3159524Y-4423809D01*
X-3778572Y-4852380D02*
X-3683334Y-4804761D01*
X-3635715Y-4709523D01*
X-3635715Y-3852380D01*
X-4159524Y-4757142D02*
X-4207143Y-4804761D01*
X-4159524Y-4852380D01*
X-4111905Y-4804761D01*
X-4159524Y-4757142D01*
X-4159524Y-4852380D01*
X-4159524Y-4471428D02*
X-4111905Y-3900000D01*
X-4159524Y-3852380D01*
X-4207143Y-3900000D01*
X-4159524Y-4471428D01*
X-4159524Y-3852380D01*
X1150000Y-6502380D02*
X1483333Y-6026190D01*
X1721428Y-6502380D02*
X1721428Y-5502380D01*
X1340476Y-5502380D01*
X1245238Y-5550000D01*
X1197619Y-5597619D01*
X1150000Y-5692857D01*
X1150000Y-5835714D01*
X1197619Y-5930952D01*
X1245238Y-5978571D01*
X1340476Y-6026190D01*
X1721428Y-6026190D01*
X864285Y-5502380D02*
X292857Y-5502380D01*
X578571Y-6502380D02*
X578571Y-5502380D01*
X-373810Y-5978571D02*
X-40477Y-5978571D01*
X-40477Y-6502380D02*
X-40477Y-5502380D01*
X-516667Y-5502380D01*
X-897620Y-6502380D02*
X-897620Y-5502380D01*
X-1230953Y-6216666D01*
X-1564286Y-5502380D01*
X-1564286Y-6502380D01*
X-2040477Y-6407142D02*
X-2088096Y-6454761D01*
X-2040477Y-6502380D01*
X-1992858Y-6454761D01*
X-2040477Y-6407142D01*
X-2040477Y-6502380D01*
X-2040477Y-6121428D02*
X-1992858Y-5550000D01*
X-2040477Y-5502380D01*
X-2088096Y-5550000D01*
X-2040477Y-6121428D01*
X-2040477Y-5502380D01*
X-3278572Y-6407142D02*
X-3326191Y-6454761D01*
X-3278572Y-6502380D01*
X-3230953Y-6454761D01*
X-3278572Y-6407142D01*
X-3278572Y-6502380D01*
X-3278572Y-5883333D02*
X-3326191Y-5930952D01*
X-3278572Y-5978571D01*
X-3230953Y-5930952D01*
X-3278572Y-5883333D01*
X-3278572Y-5978571D01*
X-3659524Y-6883333D02*
X-3707143Y-6835714D01*
X-3802381Y-6692857D01*
X-3850000Y-6597619D01*
X-3897620Y-6454761D01*
X-3945239Y-6216666D01*
X-3945239Y-6026190D01*
X-3897620Y-5788095D01*
X-3850000Y-5645238D01*
X-3802381Y-5550000D01*
X-3707143Y-5407142D01*
X-3659524Y-5359523D01*
D10*
X-7100000Y-1800000D02*
X-6900000Y-1800000D01*
X-6900000Y-1600000D02*
X-7100000Y-1800000D01*
X-6900000Y-1800000D02*
X-6900000Y-1600000D01*
X-7500000Y-1200000D02*
X-6900000Y-1800000D01*
D12*
X20497619Y180953D02*
X19764285Y-342857D01*
X19764285Y180953D02*
X20497619Y-342857D01*
X20497619Y-723809D02*
X19764285Y-723809D01*
X19973809Y-723809D02*
X19869047Y-771428D01*
X19816666Y-819047D01*
X19764285Y-914285D01*
X19764285Y-1009523D01*
X20445238Y-1723809D02*
X20497619Y-1628571D01*
X20497619Y-1438095D01*
X20445238Y-1342857D01*
X20340476Y-1295238D01*
X19921428Y-1295238D01*
X19816666Y-1342857D01*
X19764285Y-1438095D01*
X19764285Y-1628571D01*
X19816666Y-1723809D01*
X19921428Y-1771428D01*
X20026190Y-1771428D01*
X20130952Y-1295238D01*
X20445238Y-2152380D02*
X20497619Y-2247619D01*
X20497619Y-2438095D01*
X20445238Y-2533333D01*
X20340476Y-2580952D01*
X20288095Y-2580952D01*
X20183333Y-2533333D01*
X20130952Y-2438095D01*
X20130952Y-2295238D01*
X20078571Y-2200000D01*
X19973809Y-2152380D01*
X19921428Y-2152380D01*
X19816666Y-2200000D01*
X19764285Y-2295238D01*
X19764285Y-2438095D01*
X19816666Y-2533333D01*
X19397619Y-3200000D02*
X19397619Y-3295238D01*
X19450000Y-3390476D01*
X19502380Y-3438095D01*
X19607142Y-3485714D01*
X19816666Y-3533333D01*
X20078571Y-3533333D01*
X20288095Y-3485714D01*
X20392857Y-3438095D01*
X20445238Y-3390476D01*
X20497619Y-3295238D01*
X20497619Y-3200000D01*
X20445238Y-3104761D01*
X20392857Y-3057142D01*
X20288095Y-3009523D01*
X20078571Y-2961904D01*
X19816666Y-2961904D01*
X19607142Y-3009523D01*
X19502380Y-3057142D01*
X19450000Y-3104761D01*
X19397619Y-3200000D01*
X19764285Y-3961904D02*
X20497619Y-3961904D01*
X19869047Y-3961904D02*
X19816666Y-4009523D01*
X19764285Y-4104761D01*
X19764285Y-4247619D01*
X19816666Y-4342857D01*
X19921428Y-4390476D01*
X20497619Y-4390476D01*
X20497619Y-5295238D02*
X19921428Y-5295238D01*
X19816666Y-5247619D01*
X19764285Y-5152380D01*
X19764285Y-4961904D01*
X19816666Y-4866666D01*
X20445238Y-5295238D02*
X20497619Y-5200000D01*
X20497619Y-4961904D01*
X20445238Y-4866666D01*
X20340476Y-4819047D01*
X20235714Y-4819047D01*
X20130952Y-4866666D01*
X20078571Y-4961904D01*
X20078571Y-5200000D01*
X20026190Y-5295238D01*
X19764285Y-5771428D02*
X20497619Y-5771428D01*
X19869047Y-5771428D02*
X19816666Y-5819047D01*
X19764285Y-5914285D01*
X19764285Y-6057142D01*
X19816666Y-6152380D01*
X19921428Y-6200000D01*
X20497619Y-6200000D01*
X20445238Y-7104761D02*
X20497619Y-7009523D01*
X20497619Y-6819047D01*
X20445238Y-6723809D01*
X20392857Y-6676190D01*
X20288095Y-6628571D01*
X19973809Y-6628571D01*
X19869047Y-6676190D01*
X19816666Y-6723809D01*
X19764285Y-6819047D01*
X19764285Y-7009523D01*
X19816666Y-7104761D01*
X20445238Y-7914285D02*
X20497619Y-7819047D01*
X20497619Y-7628571D01*
X20445238Y-7533333D01*
X20340476Y-7485714D01*
X19921428Y-7485714D01*
X19816666Y-7533333D01*
X19764285Y-7628571D01*
X19764285Y-7819047D01*
X19816666Y-7914285D01*
X19921428Y-7961904D01*
X20026190Y-7961904D01*
X20130952Y-7485714D01*
X19502380Y-9104761D02*
X19450000Y-9152380D01*
X19397619Y-9247619D01*
X19397619Y-9485714D01*
X19450000Y-9580952D01*
X19502380Y-9628571D01*
X19607142Y-9676190D01*
X19711904Y-9676190D01*
X19869047Y-9628571D01*
X20497619Y-9057142D01*
X20497619Y-9676190D01*
X19397619Y-10295238D02*
X19397619Y-10390476D01*
X19450000Y-10485714D01*
X19502380Y-10533333D01*
X19607142Y-10580952D01*
X19816666Y-10628571D01*
X20078571Y-10628571D01*
X20288095Y-10580952D01*
X20392857Y-10533333D01*
X20445238Y-10485714D01*
X20497619Y-10390476D01*
X20497619Y-10295238D01*
X20445238Y-10200000D01*
X20392857Y-10152380D01*
X20288095Y-10104761D01*
X20078571Y-10057142D01*
X19816666Y-10057142D01*
X19607142Y-10104761D01*
X19502380Y-10152380D01*
X19450000Y-10200000D01*
X19397619Y-10295238D01*
X20497619Y-11580952D02*
X20497619Y-11009523D01*
X20497619Y-11295238D02*
X19397619Y-11295238D01*
X19554761Y-11200000D01*
X19659523Y-11104761D01*
X19711904Y-11009523D01*
X20497619Y-12057142D02*
X20497619Y-12247619D01*
X20445238Y-12342857D01*
X20392857Y-12390476D01*
X20235714Y-12485714D01*
X20026190Y-12533333D01*
X19607142Y-12533333D01*
X19502380Y-12485714D01*
X19450000Y-12438095D01*
X19397619Y-12342857D01*
X19397619Y-12152380D01*
X19450000Y-12057142D01*
X19502380Y-12009523D01*
X19607142Y-11961904D01*
X19869047Y-11961904D01*
X19973809Y-12009523D01*
X20026190Y-12057142D01*
X20078571Y-12152380D01*
X20078571Y-12342857D01*
X20026190Y-12438095D01*
X19973809Y-12485714D01*
X19869047Y-12533333D01*
D11*
X9179761Y16547620D02*
X9227380Y16404762D01*
X9227380Y16166667D01*
X9179761Y16071429D01*
X9132142Y16023810D01*
X9036904Y15976191D01*
X8941666Y15976191D01*
X8846428Y16023810D01*
X8798809Y16071429D01*
X8751190Y16166667D01*
X8703571Y16357143D01*
X8655952Y16452381D01*
X8608333Y16500000D01*
X8513095Y16547620D01*
X8417857Y16547620D01*
X8322619Y16500000D01*
X8275000Y16452381D01*
X8227380Y16357143D01*
X8227380Y16119048D01*
X8275000Y15976191D01*
X9227380Y15547620D02*
X8560714Y15547620D01*
X8227380Y15547620D02*
X8275000Y15595239D01*
X8322619Y15547620D01*
X8275000Y15500000D01*
X8227380Y15547620D01*
X8322619Y15547620D01*
X9227380Y14595239D02*
X9227380Y15071429D01*
X8227380Y15071429D01*
X9227380Y13833334D02*
X8703571Y13833334D01*
X8608333Y13880953D01*
X8560714Y13976191D01*
X8560714Y14166667D01*
X8608333Y14261905D01*
X9179761Y13833334D02*
X9227380Y13928572D01*
X9227380Y14166667D01*
X9179761Y14261905D01*
X9084523Y14309524D01*
X8989285Y14309524D01*
X8894047Y14261905D01*
X8846428Y14166667D01*
X8846428Y13928572D01*
X8798809Y13833334D01*
X9227380Y13357143D02*
X8227380Y13357143D01*
X8608333Y13357143D02*
X8560714Y13261905D01*
X8560714Y13071429D01*
X8608333Y12976191D01*
X8655952Y12928572D01*
X8751190Y12880953D01*
X9036904Y12880953D01*
X9132142Y12928572D01*
X9179761Y12976191D01*
X9227380Y13071429D01*
X9227380Y13261905D01*
X9179761Y13357143D01*
X9179761Y12500000D02*
X9227380Y12404762D01*
X9227380Y12214286D01*
X9179761Y12119048D01*
X9084523Y12071429D01*
X9036904Y12071429D01*
X8941666Y12119048D01*
X8894047Y12214286D01*
X8894047Y12357143D01*
X8846428Y12452381D01*
X8751190Y12500000D01*
X8703571Y12500000D01*
X8608333Y12452381D01*
X8560714Y12357143D01*
X8560714Y12214286D01*
X8608333Y12119048D01*
X8703571Y10880953D02*
X8703571Y10547620D01*
X9227380Y10404762D02*
X9227380Y10880953D01*
X8227380Y10880953D01*
X8227380Y10404762D01*
X8703571Y9642858D02*
X8703571Y9976191D01*
X9227380Y9976191D02*
X8227380Y9976191D01*
X8227380Y9500000D01*
X9227380Y9119048D02*
X8227380Y9119048D01*
X8941666Y8785715D01*
X8227380Y8452381D01*
X9227380Y8452381D01*
X8655952Y7833334D02*
X8608333Y7928572D01*
X8560714Y7976191D01*
X8465476Y8023810D01*
X8417857Y8023810D01*
X8322619Y7976191D01*
X8275000Y7928572D01*
X8227380Y7833334D01*
X8227380Y7642858D01*
X8275000Y7547620D01*
X8322619Y7500000D01*
X8417857Y7452381D01*
X8465476Y7452381D01*
X8560714Y7500000D01*
X8608333Y7547620D01*
X8655952Y7642858D01*
X8655952Y7833334D01*
X8703571Y7928572D01*
X8751190Y7976191D01*
X8846428Y8023810D01*
X9036904Y8023810D01*
X9132142Y7976191D01*
X9179761Y7928572D01*
X9227380Y7833334D01*
X9227380Y7642858D01*
X9179761Y7547620D01*
X9132142Y7500000D01*
X9036904Y7452381D01*
X8846428Y7452381D01*
X8751190Y7500000D01*
X8703571Y7547620D01*
X8655952Y7642858D01*
X10305952Y15833334D02*
X10258333Y15928572D01*
X10210714Y15976191D01*
X10115476Y16023810D01*
X10067857Y16023810D01*
X9972619Y15976191D01*
X9925000Y15928572D01*
X9877380Y15833334D01*
X9877380Y15642858D01*
X9925000Y15547620D01*
X9972619Y15500000D01*
X10067857Y15452381D01*
X10115476Y15452381D01*
X10210714Y15500000D01*
X10258333Y15547620D01*
X10305952Y15642858D01*
X10305952Y15833334D01*
X10353571Y15928572D01*
X10401190Y15976191D01*
X10496428Y16023810D01*
X10686904Y16023810D01*
X10782142Y15976191D01*
X10829761Y15928572D01*
X10877380Y15833334D01*
X10877380Y15642858D01*
X10829761Y15547620D01*
X10782142Y15500000D01*
X10686904Y15452381D01*
X10496428Y15452381D01*
X10401190Y15500000D01*
X10353571Y15547620D01*
X10305952Y15642858D01*
X9877380Y14833334D02*
X9877380Y14738096D01*
X9925000Y14642858D01*
X9972619Y14595239D01*
X10067857Y14547620D01*
X10258333Y14500000D01*
X10496428Y14500000D01*
X10686904Y14547620D01*
X10782142Y14595239D01*
X10829761Y14642858D01*
X10877380Y14738096D01*
X10877380Y14833334D01*
X10829761Y14928572D01*
X10782142Y14976191D01*
X10686904Y15023810D01*
X10496428Y15071429D01*
X10258333Y15071429D01*
X10067857Y15023810D01*
X9972619Y14976191D01*
X9925000Y14928572D01*
X9877380Y14833334D01*
X9877380Y13595239D02*
X9877380Y14071429D01*
X10353571Y14119048D01*
X10305952Y14071429D01*
X10258333Y13976191D01*
X10258333Y13738096D01*
X10305952Y13642858D01*
X10353571Y13595239D01*
X10448809Y13547620D01*
X10686904Y13547620D01*
X10782142Y13595239D01*
X10829761Y13642858D01*
X10877380Y13738096D01*
X10877380Y13976191D01*
X10829761Y14071429D01*
X10782142Y14119048D01*
X10877380Y12595239D02*
X10877380Y13166667D01*
X10877380Y12880953D02*
X9877380Y12880953D01*
X10020238Y12976191D01*
X10115476Y13071429D01*
X10163095Y13166667D01*
X10782142Y10833334D02*
X10829761Y10880953D01*
X10877380Y11023810D01*
X10877380Y11119048D01*
X10829761Y11261905D01*
X10734523Y11357143D01*
X10639285Y11404762D01*
X10448809Y11452381D01*
X10305952Y11452381D01*
X10115476Y11404762D01*
X10020238Y11357143D01*
X9925000Y11261905D01*
X9877380Y11119048D01*
X9877380Y11023810D01*
X9925000Y10880953D01*
X9972619Y10833334D01*
X10877380Y10261905D02*
X10829761Y10357143D01*
X10782142Y10404762D01*
X10686904Y10452381D01*
X10401190Y10452381D01*
X10305952Y10404762D01*
X10258333Y10357143D01*
X10210714Y10261905D01*
X10210714Y10119048D01*
X10258333Y10023810D01*
X10305952Y9976191D01*
X10401190Y9928572D01*
X10686904Y9928572D01*
X10782142Y9976191D01*
X10829761Y10023810D01*
X10877380Y10119048D01*
X10877380Y10261905D01*
X10877380Y9500000D02*
X10210714Y9500000D01*
X10401190Y9500000D02*
X10305952Y9452381D01*
X10258333Y9404762D01*
X10210714Y9309524D01*
X10210714Y9214286D01*
X10829761Y8500000D02*
X10877380Y8595239D01*
X10877380Y8785715D01*
X10829761Y8880953D01*
X10734523Y8928572D01*
X10353571Y8928572D01*
X10258333Y8880953D01*
X10210714Y8785715D01*
X10210714Y8595239D01*
X10258333Y8500000D01*
X10353571Y8452381D01*
X10448809Y8452381D01*
X10544047Y8928572D01*
X10782142Y8023810D02*
X10829761Y7976191D01*
X10877380Y8023810D01*
X10829761Y8071429D01*
X10782142Y8023810D01*
X10877380Y8023810D01*
X10496428Y8023810D02*
X9925000Y8071429D01*
X9877380Y8023810D01*
X9925000Y7976191D01*
X10496428Y8023810D01*
X9877380Y8023810D01*
D13*
X15414285Y392858D02*
X15414285Y-678571D01*
X14642857Y-35714D02*
X16957142Y392858D01*
X16185714Y-535714D02*
X16185714Y535715D01*
X16957142Y-107142D02*
X14642857Y-535714D01*
X16614285Y-1178571D02*
X14814285Y-1178571D01*
X14814285Y-1535714D01*
X14900000Y-1750000D01*
X15071428Y-1892857D01*
X15242857Y-1964285D01*
X15585714Y-2035714D01*
X15842857Y-2035714D01*
X16185714Y-1964285D01*
X16357142Y-1892857D01*
X16528571Y-1750000D01*
X16614285Y-1535714D01*
X16614285Y-1178571D01*
X16442857Y-3535714D02*
X16528571Y-3464285D01*
X16614285Y-3250000D01*
X16614285Y-3107142D01*
X16528571Y-2892857D01*
X16357142Y-2750000D01*
X16185714Y-2678571D01*
X15842857Y-2607142D01*
X15585714Y-2607142D01*
X15242857Y-2678571D01*
X15071428Y-2750000D01*
X14900000Y-2892857D01*
X14814285Y-3107142D01*
X14814285Y-3250000D01*
X14900000Y-3464285D01*
X14985714Y-3535714D01*
X14985714Y-4107142D02*
X14900000Y-4178571D01*
X14814285Y-4321428D01*
X14814285Y-4678571D01*
X14900000Y-4821428D01*
X14985714Y-4892857D01*
X15157142Y-4964285D01*
X15328571Y-4964285D01*
X15585714Y-4892857D01*
X16614285Y-4035714D01*
X16614285Y-4964285D01*
X14814285Y-5464285D02*
X14814285Y-6464285D01*
X16614285Y-5821428D01*
X17757142Y12892858D02*
X17671428Y12964286D01*
X17585714Y13107143D01*
X17585714Y13250000D01*
X17671428Y13392858D01*
X17757142Y13464286D01*
X17928571Y13535715D01*
X18100000Y13535715D01*
X18271428Y13464286D01*
X18357142Y13392858D01*
X18442857Y13250000D01*
X18442857Y13107143D01*
X18357142Y12964286D01*
X18271428Y12892858D01*
X17585714Y12892858D02*
X18271428Y12892858D01*
X18357142Y12821429D01*
X18357142Y12750000D01*
X18271428Y12607143D01*
X18100000Y12535715D01*
X17671428Y12535715D01*
X17414285Y12678572D01*
X17242857Y12892858D01*
X17157142Y13178572D01*
X17242857Y13464286D01*
X17414285Y13678572D01*
X17671428Y13821429D01*
X18014285Y13892858D01*
X18357142Y13821429D01*
X18614285Y13678572D01*
X18785714Y13464286D01*
X18871428Y13178572D01*
X18785714Y12892858D01*
X18614285Y12678572D01*
X18528571Y11964286D02*
X18614285Y11750000D01*
X18614285Y11392858D01*
X18528571Y11250000D01*
X18442857Y11178572D01*
X18271428Y11107143D01*
X18100000Y11107143D01*
X17928571Y11178572D01*
X17842857Y11250000D01*
X17757142Y11392858D01*
X17671428Y11678572D01*
X17585714Y11821429D01*
X17500000Y11892858D01*
X17328571Y11964286D01*
X17157142Y11964286D01*
X16985714Y11892858D01*
X16900000Y11821429D01*
X16814285Y11678572D01*
X16814285Y11321429D01*
X16900000Y11107143D01*
X18614285Y10464286D02*
X16814285Y10464286D01*
X16814285Y9892858D01*
X16900000Y9750000D01*
X16985714Y9678572D01*
X17157142Y9607143D01*
X17414285Y9607143D01*
X17585714Y9678572D01*
X17671428Y9750000D01*
X17757142Y9892858D01*
X17757142Y10464286D01*
X18614285Y8964286D02*
X16814285Y8964286D01*
X17414285Y8392858D02*
X18614285Y8035715D01*
X17414285Y7678572D01*
X18528571Y7178572D02*
X18614285Y6964286D01*
X18614285Y6607143D01*
X18528571Y6464286D01*
X18442857Y6392858D01*
X18271428Y6321429D01*
X18100000Y6321429D01*
X17928571Y6392858D01*
X17842857Y6464286D01*
X17757142Y6607143D01*
X17671428Y6892858D01*
X17585714Y7035715D01*
X17500000Y7107143D01*
X17328571Y7178572D01*
X17157142Y7178572D01*
X16985714Y7107143D01*
X16900000Y7035715D01*
X16814285Y6892858D01*
X16814285Y6535715D01*
X16900000Y6321429D01*
X18614285Y5678572D02*
X16814285Y5678572D01*
X16814285Y5107143D01*
X16900000Y4964286D01*
X16985714Y4892858D01*
X17157142Y4821429D01*
X17414285Y4821429D01*
X17585714Y4892858D01*
X17671428Y4964286D01*
X17757142Y5107143D01*
X17757142Y5678572D01*
X18614285Y4178572D02*
X16814285Y4178572D01*
D10*
X-10100000Y-18650000D02*
X-20500000Y-18650000D01*
X-20500000Y-15700000D02*
X-20500000Y-18650000D01*
X-10100000Y-15700000D02*
X-20500000Y-15700000D01*
X-10100000Y-18650000D02*
X-10100000Y-15700000D01*
D14*
G36*
X-19900000Y-11550000D02*
G01*
X-19750000Y-11250000D01*
X-19550000Y-11850000D01*
X-19250000Y-12300000D01*
X-19050000Y-12450000D01*
X-18750000Y-12100000D01*
X-18800000Y-13450000D01*
X-20050000Y-13300000D01*
X-19750000Y-13050000D01*
X-19950000Y-12550000D01*
X-20050000Y-12000000D01*
X-20100000Y-11550000D01*
X-20150000Y-11200000D01*
X-19900000Y-11550000D01*
G37*
X-19900000Y-11550000D02*
X-19750000Y-11250000D01*
X-19550000Y-11850000D01*
X-19250000Y-12300000D01*
X-19050000Y-12450000D01*
X-18750000Y-12100000D01*
X-18800000Y-13450000D01*
X-20050000Y-13300000D01*
X-19750000Y-13050000D01*
X-19950000Y-12550000D01*
X-20050000Y-12000000D01*
X-20100000Y-11550000D01*
X-20150000Y-11200000D01*
X-19900000Y-11550000D01*
D11*
X-20172620Y-8376190D02*
X-20172620Y-7900000D01*
X-21172620Y-7900000D01*
X-21172620Y-8614285D02*
X-21172620Y-9233333D01*
X-20791667Y-8900000D01*
X-20791667Y-9042857D01*
X-20744048Y-9138095D01*
X-20696429Y-9185714D01*
X-20601191Y-9233333D01*
X-20363096Y-9233333D01*
X-20267858Y-9185714D01*
X-20220239Y-9138095D01*
X-20172620Y-9042857D01*
X-20172620Y-8757142D01*
X-20220239Y-8661904D01*
X-20267858Y-8614285D01*
X-21172620Y-9566666D02*
X-21172620Y-10185714D01*
X-20791667Y-9852380D01*
X-20791667Y-9995238D01*
X-20744048Y-10090476D01*
X-20696429Y-10138095D01*
X-20601191Y-10185714D01*
X-20363096Y-10185714D01*
X-20267858Y-10138095D01*
X-20220239Y-10090476D01*
X-20172620Y-9995238D01*
X-20172620Y-9709523D01*
X-20220239Y-9614285D01*
X-20267858Y-9566666D01*
X-21172620Y-10471428D02*
X-21172620Y-11042857D01*
X-20172620Y-10757142D02*
X-21172620Y-10757142D01*
X-18522620Y-8161904D02*
X-19522620Y-8161904D01*
X-19046429Y-8161904D02*
X-19046429Y-8733333D01*
X-18522620Y-8733333D02*
X-19522620Y-8733333D01*
X-19189286Y-9638095D02*
X-18522620Y-9638095D01*
X-19570239Y-9400000D02*
X-18855953Y-9161904D01*
X-18855953Y-9780952D01*
X-19522620Y-10066666D02*
X-18522620Y-10733333D01*
X-19522620Y-10733333D02*
X-18522620Y-10066666D01*
D10*
X-10000000Y-15500000D02*
X-10300000Y-15500000D01*
X-10300000Y-15200000D02*
X-10000000Y-15500000D01*
X-10300000Y-15500000D02*
X-10300000Y-15200000D01*
X-9700000Y-14900000D02*
X-10300000Y-15500000D01*
X-14150000Y-15300000D02*
X-13950000Y-15500000D01*
X-13750000Y-15300000D02*
X-14150000Y-15300000D01*
X-13950000Y-15500000D02*
X-13750000Y-15300000D01*
X-13950000Y-14900000D02*
X-13950000Y-15500000D01*
X-12250000Y-15000000D02*
X-13950000Y-14900000D01*
D12*
X18121428Y2357143D02*
X18173809Y2214286D01*
X18226190Y2166667D01*
X18330952Y2119048D01*
X18488095Y2119048D01*
X18592857Y2166667D01*
X18645238Y2214286D01*
X18697619Y2309524D01*
X18697619Y2690477D01*
X17597619Y2690477D01*
X17597619Y2357143D01*
X17650000Y2261905D01*
X17702380Y2214286D01*
X17807142Y2166667D01*
X17911904Y2166667D01*
X18016666Y2214286D01*
X18069047Y2261905D01*
X18121428Y2357143D01*
X18121428Y2690477D01*
X18697619Y1690477D02*
X17964285Y1690477D01*
X17597619Y1690477D02*
X17650000Y1738096D01*
X17702380Y1690477D01*
X17650000Y1642858D01*
X17597619Y1690477D01*
X17702380Y1690477D01*
X17964285Y1214286D02*
X18697619Y1214286D01*
X18069047Y1214286D02*
X18016666Y1166667D01*
X17964285Y1071429D01*
X17964285Y928572D01*
X18016666Y833334D01*
X18121428Y785715D01*
X18697619Y785715D01*
X18697619Y-119047D02*
X18121428Y-119047D01*
X18016666Y-71428D01*
X17964285Y23810D01*
X17964285Y214286D01*
X18016666Y309524D01*
X18645238Y-119047D02*
X18697619Y-23809D01*
X18697619Y214286D01*
X18645238Y309524D01*
X18540476Y357143D01*
X18435714Y357143D01*
X18330952Y309524D01*
X18278571Y214286D01*
X18278571Y-23809D01*
X18226190Y-119047D01*
X18697619Y-595238D02*
X17964285Y-595238D01*
X18173809Y-595238D02*
X18069047Y-642857D01*
X18016666Y-690476D01*
X17964285Y-785714D01*
X17964285Y-880952D01*
X17964285Y-1119047D02*
X18697619Y-1357142D01*
X17964285Y-1595238D02*
X18697619Y-1357142D01*
X18959523Y-1261904D01*
X19011904Y-1214285D01*
X19064285Y-1119047D01*
X18697619Y-2738095D02*
X17597619Y-2738095D01*
X18121428Y-2738095D02*
X18121428Y-3309523D01*
X18697619Y-3309523D02*
X17597619Y-3309523D01*
X18645238Y-4166666D02*
X18697619Y-4071428D01*
X18697619Y-3880952D01*
X18645238Y-3785714D01*
X18540476Y-3738095D01*
X18121428Y-3738095D01*
X18016666Y-3785714D01*
X17964285Y-3880952D01*
X17964285Y-4071428D01*
X18016666Y-4166666D01*
X18121428Y-4214285D01*
X18226190Y-4214285D01*
X18330952Y-3738095D01*
X18697619Y-5071428D02*
X18121428Y-5071428D01*
X18016666Y-5023809D01*
X17964285Y-4928571D01*
X17964285Y-4738095D01*
X18016666Y-4642857D01*
X18645238Y-5071428D02*
X18697619Y-4976190D01*
X18697619Y-4738095D01*
X18645238Y-4642857D01*
X18540476Y-4595238D01*
X18435714Y-4595238D01*
X18330952Y-4642857D01*
X18278571Y-4738095D01*
X18278571Y-4976190D01*
X18226190Y-5071428D01*
X17964285Y-5452380D02*
X18697619Y-5690476D01*
X17964285Y-5928571D01*
X17964285Y-6214285D02*
X18697619Y-6452380D01*
X17964285Y-6690476D02*
X18697619Y-6452380D01*
X18959523Y-6357142D01*
X19011904Y-6309523D01*
X19064285Y-6214285D01*
X18697619Y-7833333D02*
X17597619Y-7833333D01*
X17964285Y-8309523D02*
X18697619Y-8309523D01*
X18069047Y-8309523D02*
X18016666Y-8357142D01*
X17964285Y-8452380D01*
X17964285Y-8595238D01*
X18016666Y-8690476D01*
X18121428Y-8738095D01*
X18697619Y-8738095D01*
X18697619Y-9642857D02*
X17597619Y-9642857D01*
X18645238Y-9642857D02*
X18697619Y-9547619D01*
X18697619Y-9357142D01*
X18645238Y-9261904D01*
X18592857Y-9214285D01*
X18488095Y-9166666D01*
X18173809Y-9166666D01*
X18069047Y-9214285D01*
X18016666Y-9261904D01*
X17964285Y-9357142D01*
X17964285Y-9547619D01*
X18016666Y-9642857D01*
X17964285Y-10547619D02*
X18697619Y-10547619D01*
X17964285Y-10119047D02*
X18540476Y-10119047D01*
X18645238Y-10166666D01*
X18697619Y-10261904D01*
X18697619Y-10404761D01*
X18645238Y-10500000D01*
X18592857Y-10547619D01*
X18645238Y-10976190D02*
X18697619Y-11071428D01*
X18697619Y-11261904D01*
X18645238Y-11357142D01*
X18540476Y-11404761D01*
X18488095Y-11404761D01*
X18383333Y-11357142D01*
X18330952Y-11261904D01*
X18330952Y-11119047D01*
X18278571Y-11023809D01*
X18173809Y-10976190D01*
X18121428Y-10976190D01*
X18016666Y-11023809D01*
X17964285Y-11119047D01*
X17964285Y-11261904D01*
X18016666Y-11357142D01*
X17964285Y-11690476D02*
X17964285Y-12071428D01*
X17597619Y-11833333D02*
X18540476Y-11833333D01*
X18645238Y-11880952D01*
X18697619Y-11976190D01*
X18697619Y-12071428D01*
X18697619Y-12404761D02*
X17964285Y-12404761D01*
X18173809Y-12404761D02*
X18069047Y-12452380D01*
X18016666Y-12500000D01*
X17964285Y-12595238D01*
X17964285Y-12690476D01*
X18697619Y-13023809D02*
X17964285Y-13023809D01*
X17597619Y-13023809D02*
X17650000Y-12976190D01*
X17702380Y-13023809D01*
X17650000Y-13071428D01*
X17597619Y-13023809D01*
X17702380Y-13023809D01*
X18645238Y-13880952D02*
X18697619Y-13785714D01*
X18697619Y-13595238D01*
X18645238Y-13500000D01*
X18540476Y-13452380D01*
X18121428Y-13452380D01*
X18016666Y-13500000D01*
X17964285Y-13595238D01*
X17964285Y-13785714D01*
X18016666Y-13880952D01*
X18121428Y-13928571D01*
X18226190Y-13928571D01*
X18330952Y-13452380D01*
X18645238Y-14309523D02*
X18697619Y-14404761D01*
X18697619Y-14595238D01*
X18645238Y-14690476D01*
X18540476Y-14738095D01*
X18488095Y-14738095D01*
X18383333Y-14690476D01*
X18330952Y-14595238D01*
X18330952Y-14452380D01*
X18278571Y-14357142D01*
X18173809Y-14309523D01*
X18121428Y-14309523D01*
X18016666Y-14357142D01*
X17964285Y-14452380D01*
X17964285Y-14595238D01*
X18016666Y-14690476D01*
D15*
X945238Y7402381D02*
X945238Y6616667D01*
X997619Y6459524D01*
X1102380Y6354762D01*
X1259523Y6302381D01*
X1364285Y6302381D01*
X473809Y7297620D02*
X421428Y7350000D01*
X316666Y7402381D01*
X54761Y7402381D01*
X-50000Y7350000D01*
X-102381Y7297620D01*
X-154762Y7192858D01*
X-154762Y7088096D01*
X-102381Y6930953D01*
X526190Y6302381D01*
X-154762Y6302381D01*
X-1464286Y6302381D02*
X-1464286Y7402381D01*
X-1883334Y7402381D01*
X-1988096Y7350000D01*
X-2040477Y7297620D01*
X-2092858Y7192858D01*
X-2092858Y7035715D01*
X-2040477Y6930953D01*
X-1988096Y6878572D01*
X-1883334Y6826191D01*
X-1464286Y6826191D01*
X-2564286Y6302381D02*
X-2564286Y7402381D01*
X-3088096Y6302381D02*
X-3088096Y7402381D01*
X-3716667Y6302381D01*
X-3716667Y7402381D01*
X-4450000Y7402381D02*
X-4659524Y7402381D01*
X-4764286Y7350000D01*
X-4869048Y7245239D01*
X-4921429Y7035715D01*
X-4921429Y6669048D01*
X-4869048Y6459524D01*
X-4764286Y6354762D01*
X-4659524Y6302381D01*
X-4450000Y6302381D01*
X-4345239Y6354762D01*
X-4240477Y6459524D01*
X-4188096Y6669048D01*
X-4188096Y7035715D01*
X-4240477Y7245239D01*
X-4345239Y7350000D01*
X-4450000Y7402381D01*
X-5392858Y7402381D02*
X-5392858Y6511905D01*
X-5445239Y6407143D01*
X-5497620Y6354762D01*
X-5602381Y6302381D01*
X-5811905Y6302381D01*
X-5916667Y6354762D01*
X-5969048Y6407143D01*
X-6021429Y6511905D01*
X-6021429Y7402381D01*
X-6388096Y7402381D02*
X-7016667Y7402381D01*
X-6702381Y6302381D02*
X-6702381Y7402381D01*
D11*
X-1792858Y676191D02*
X-1745239Y628572D01*
X-1697620Y676191D01*
X-1745239Y723810D01*
X-1792858Y676191D01*
X-1697620Y676191D01*
X-1792858Y200000D02*
X-1745239Y152381D01*
X-1697620Y200000D01*
X-1745239Y247620D01*
X-1792858Y200000D01*
X-1697620Y200000D01*
X-1792858Y-276190D02*
X-1745239Y-323809D01*
X-1697620Y-276190D01*
X-1745239Y-228571D01*
X-1792858Y-276190D01*
X-1697620Y-276190D01*
X-1742858Y4326191D02*
X-1695239Y4278572D01*
X-1647620Y4326191D01*
X-1695239Y4373810D01*
X-1742858Y4326191D01*
X-1647620Y4326191D01*
X-1742858Y3850000D02*
X-1695239Y3802381D01*
X-1647620Y3850000D01*
X-1695239Y3897620D01*
X-1742858Y3850000D01*
X-1647620Y3850000D01*
X-1742858Y3373810D02*
X-1695239Y3326191D01*
X-1647620Y3373810D01*
X-1695239Y3421429D01*
X-1742858Y3373810D01*
X-1647620Y3373810D01*
X50000Y-1102380D02*
X621428Y-1102380D01*
X335714Y-1102380D02*
X335714Y-102380D01*
X430952Y-245238D01*
X526190Y-340476D01*
X621428Y-388095D01*
X-807143Y-102380D02*
X-616667Y-102380D01*
X-521429Y-150000D01*
X-473810Y-197619D01*
X-378572Y-340476D01*
X-330953Y-530952D01*
X-330953Y-911904D01*
X-378572Y-1007142D01*
X-426191Y-1054761D01*
X-521429Y-1102380D01*
X-711905Y-1102380D01*
X-807143Y-1054761D01*
X-854762Y-1007142D01*
X-902381Y-911904D01*
X-902381Y-673809D01*
X-854762Y-578571D01*
X-807143Y-530952D01*
X-711905Y-483333D01*
X-521429Y-483333D01*
X-426191Y-530952D01*
X-378572Y-578571D01*
X-330953Y-673809D01*
X-1330953Y-721428D02*
X-2092858Y-721428D01*
X-2569048Y-1102380D02*
X-2569048Y-102380D01*
X-2950000Y-102380D01*
X-3045239Y-150000D01*
X-3092858Y-197619D01*
X-3140477Y-292857D01*
X-3140477Y-435714D01*
X-3092858Y-530952D01*
X-3045239Y-578571D01*
X-2950000Y-626190D01*
X-2569048Y-626190D01*
X-4092858Y-1102380D02*
X-3521429Y-1102380D01*
X-3807143Y-1102380D02*
X-3807143Y-102380D01*
X-3711905Y-245238D01*
X-3616667Y-340476D01*
X-3521429Y-388095D01*
X-4521429Y-1007142D02*
X-4569048Y-1054761D01*
X-4521429Y-1102380D01*
X-4473810Y-1054761D01*
X-4521429Y-1007142D01*
X-4521429Y-1102380D01*
X-4902381Y-102380D02*
X-5521429Y-102380D01*
X-5188096Y-483333D01*
X-5330953Y-483333D01*
X-5426191Y-530952D01*
X-5473810Y-578571D01*
X-5521429Y-673809D01*
X-5521429Y-911904D01*
X-5473810Y-1007142D01*
X-5426191Y-1054761D01*
X-5330953Y-1102380D01*
X-5045239Y-1102380D01*
X-4950000Y-1054761D01*
X-4902381Y-1007142D01*
X50000Y847620D02*
X621428Y847620D01*
X335714Y847620D02*
X335714Y1847620D01*
X430952Y1704762D01*
X526190Y1609524D01*
X621428Y1561905D01*
X-283334Y1847620D02*
X-902381Y1847620D01*
X-569048Y1466667D01*
X-711905Y1466667D01*
X-807143Y1419048D01*
X-854762Y1371429D01*
X-902381Y1276191D01*
X-902381Y1038096D01*
X-854762Y942858D01*
X-807143Y895239D01*
X-711905Y847620D01*
X-426191Y847620D01*
X-330953Y895239D01*
X-283334Y942858D01*
X-1330953Y1228572D02*
X-2092858Y1228572D01*
X-2569048Y847620D02*
X-2569048Y1847620D01*
X-2950000Y1847620D01*
X-3045239Y1800000D01*
X-3092858Y1752381D01*
X-3140477Y1657143D01*
X-3140477Y1514286D01*
X-3092858Y1419048D01*
X-3045239Y1371429D01*
X-2950000Y1323810D01*
X-2569048Y1323810D01*
X-4092858Y847620D02*
X-3521429Y847620D01*
X-3807143Y847620D02*
X-3807143Y1847620D01*
X-3711905Y1704762D01*
X-3616667Y1609524D01*
X-3521429Y1561905D01*
X-4521429Y942858D02*
X-4569048Y895239D01*
X-4521429Y847620D01*
X-4473810Y895239D01*
X-4521429Y942858D01*
X-4521429Y847620D01*
X-5188096Y1847620D02*
X-5283334Y1847620D01*
X-5378572Y1800000D01*
X-5426191Y1752381D01*
X-5473810Y1657143D01*
X-5521429Y1466667D01*
X-5521429Y1228572D01*
X-5473810Y1038096D01*
X-5426191Y942858D01*
X-5378572Y895239D01*
X-5283334Y847620D01*
X-5188096Y847620D01*
X-5092858Y895239D01*
X-5045239Y942858D01*
X-4997620Y1038096D01*
X-4950000Y1228572D01*
X-4950000Y1466667D01*
X-4997620Y1657143D01*
X-5045239Y1752381D01*
X-5092858Y1800000D01*
X-5188096Y1847620D01*
X100000Y2397620D02*
X671428Y2397620D01*
X385714Y2397620D02*
X385714Y3397620D01*
X480952Y3254762D01*
X576190Y3159524D01*
X671428Y3111905D01*
X-280953Y3302381D02*
X-328572Y3350000D01*
X-423810Y3397620D01*
X-661905Y3397620D01*
X-757143Y3350000D01*
X-804762Y3302381D01*
X-852381Y3207143D01*
X-852381Y3111905D01*
X-804762Y2969048D01*
X-233334Y2397620D01*
X-852381Y2397620D01*
X-1280953Y2778572D02*
X-2042858Y2778572D01*
X-2519048Y2397620D02*
X-2519048Y3397620D01*
X-2900000Y3397620D01*
X-2995239Y3350000D01*
X-3042858Y3302381D01*
X-3090477Y3207143D01*
X-3090477Y3064286D01*
X-3042858Y2969048D01*
X-2995239Y2921429D01*
X-2900000Y2873810D01*
X-2519048Y2873810D01*
X-3709524Y3397620D02*
X-3804762Y3397620D01*
X-3900000Y3350000D01*
X-3947620Y3302381D01*
X-3995239Y3207143D01*
X-4042858Y3016667D01*
X-4042858Y2778572D01*
X-3995239Y2588096D01*
X-3947620Y2492858D01*
X-3900000Y2445239D01*
X-3804762Y2397620D01*
X-3709524Y2397620D01*
X-3614286Y2445239D01*
X-3566667Y2492858D01*
X-3519048Y2588096D01*
X-3471429Y2778572D01*
X-3471429Y3016667D01*
X-3519048Y3207143D01*
X-3566667Y3302381D01*
X-3614286Y3350000D01*
X-3709524Y3397620D01*
X-4471429Y2492858D02*
X-4519048Y2445239D01*
X-4471429Y2397620D01*
X-4423810Y2445239D01*
X-4471429Y2492858D01*
X-4471429Y2397620D01*
X-4852381Y3397620D02*
X-5519048Y3397620D01*
X-5090477Y2397620D01*
X-778572Y5597620D02*
X-302381Y5597620D01*
X-254762Y5121429D01*
X-302381Y5169048D01*
X-397620Y5216667D01*
X-635715Y5216667D01*
X-730953Y5169048D01*
X-778572Y5121429D01*
X-826191Y5026191D01*
X-826191Y4788096D01*
X-778572Y4692858D01*
X-730953Y4645239D01*
X-635715Y4597620D01*
X-397620Y4597620D01*
X-302381Y4645239D01*
X-254762Y4692858D01*
X-1254762Y4978572D02*
X-2016667Y4978572D01*
X-2492858Y4597620D02*
X-2492858Y5597620D01*
X-2873810Y5597620D01*
X-2969048Y5550000D01*
X-3016667Y5502381D01*
X-3064286Y5407143D01*
X-3064286Y5264286D01*
X-3016667Y5169048D01*
X-2969048Y5121429D01*
X-2873810Y5073810D01*
X-2492858Y5073810D01*
X-3683334Y5597620D02*
X-3778572Y5597620D01*
X-3873810Y5550000D01*
X-3921429Y5502381D01*
X-3969048Y5407143D01*
X-4016667Y5216667D01*
X-4016667Y4978572D01*
X-3969048Y4788096D01*
X-3921429Y4692858D01*
X-3873810Y4645239D01*
X-3778572Y4597620D01*
X-3683334Y4597620D01*
X-3588096Y4645239D01*
X-3540477Y4692858D01*
X-3492858Y4788096D01*
X-3445239Y4978572D01*
X-3445239Y5216667D01*
X-3492858Y5407143D01*
X-3540477Y5502381D01*
X-3588096Y5550000D01*
X-3683334Y5597620D01*
X-4445239Y4692858D02*
X-4492858Y4645239D01*
X-4445239Y4597620D01*
X-4397620Y4645239D01*
X-4445239Y4692858D01*
X-4445239Y4597620D01*
X-5111905Y5597620D02*
X-5207143Y5597620D01*
X-5302381Y5550000D01*
X-5350000Y5502381D01*
X-5397620Y5407143D01*
X-5445239Y5216667D01*
X-5445239Y4978572D01*
X-5397620Y4788096D01*
X-5350000Y4692858D01*
X-5302381Y4645239D01*
X-5207143Y4597620D01*
X-5111905Y4597620D01*
X-5016667Y4645239D01*
X-4969048Y4692858D01*
X-4921429Y4788096D01*
X-4873810Y4978572D01*
X-4873810Y5216667D01*
X-4921429Y5407143D01*
X-4969048Y5502381D01*
X-5016667Y5550000D01*
X-5111905Y5597620D01*
X-7826058Y-13581133D02*
X-7758714Y-13581133D01*
X-7624027Y-13513790D01*
X-7556684Y-13446446D01*
X-7489340Y-13311759D01*
X-7489340Y-13177072D01*
X-7523012Y-13076057D01*
X-7624027Y-12907698D01*
X-7725043Y-12806683D01*
X-7893401Y-12705668D01*
X-7994417Y-12671996D01*
X-8129104Y-12671996D01*
X-8263791Y-12739339D01*
X-8331134Y-12806683D01*
X-8398478Y-12941370D01*
X-8398478Y-13008713D01*
X-8667852Y-13278087D02*
X-8735195Y-13278087D01*
X-8836210Y-13311759D01*
X-9004569Y-13480118D01*
X-9038241Y-13581133D01*
X-9038241Y-13648477D01*
X-9004569Y-13749492D01*
X-8937226Y-13816835D01*
X-8802539Y-13884179D01*
X-7994417Y-13884179D01*
X-8432149Y-14321912D01*
X-8735195Y-14624957D02*
X-9442302Y-13917851D01*
X-9610661Y-14086209D01*
X-9678004Y-14220896D01*
X-9678004Y-14355583D01*
X-9644332Y-14456599D01*
X-9543317Y-14624957D01*
X-9442302Y-14725973D01*
X-9273943Y-14826988D01*
X-9172928Y-14860660D01*
X-9038241Y-14860660D01*
X-8903554Y-14793316D01*
X-8735195Y-14624957D01*
X-9772504Y-13227580D02*
X-9705161Y-13227580D01*
X-9570474Y-13160236D01*
X-9503130Y-13092893D01*
X-9435787Y-12958206D01*
X-9435787Y-12823519D01*
X-9469459Y-12722503D01*
X-9570474Y-12554145D01*
X-9671489Y-12453129D01*
X-9839848Y-12352114D01*
X-9940863Y-12318442D01*
X-10075550Y-12318442D01*
X-10210237Y-12385786D01*
X-10277581Y-12453129D01*
X-10344924Y-12587816D01*
X-10344924Y-12655160D01*
X-10614298Y-12924534D02*
X-10681642Y-12924534D01*
X-10782657Y-12958206D01*
X-10951016Y-13126564D01*
X-10984688Y-13227580D01*
X-10984688Y-13294923D01*
X-10951016Y-13395938D01*
X-10883672Y-13463282D01*
X-10748985Y-13530625D01*
X-9940863Y-13530625D01*
X-10378596Y-13968358D01*
X-11153046Y-14608122D02*
X-11085703Y-14608122D01*
X-10951016Y-14540778D01*
X-10883672Y-14473435D01*
X-10816329Y-14338748D01*
X-10816329Y-14204061D01*
X-10850000Y-14103045D01*
X-10951016Y-13934687D01*
X-11052031Y-13833671D01*
X-11220390Y-13732656D01*
X-11321405Y-13698984D01*
X-11456092Y-13698984D01*
X-11590779Y-13766328D01*
X-11658123Y-13833671D01*
X-11725466Y-13968358D01*
X-11725466Y-14035702D01*
X-11388749Y-14978511D02*
X-12095855Y-14271404D01*
X-11792810Y-15382572D02*
X-11893825Y-14675465D01*
X-12499916Y-14675465D02*
X-11691794Y-14675465D01*
X-15414806Y-13507698D02*
X-15381134Y-13406683D01*
X-15280119Y-13305668D01*
X-15145432Y-13238324D01*
X-15010745Y-13238324D01*
X-14909730Y-13271996D01*
X-14741371Y-13373011D01*
X-14640356Y-13474026D01*
X-14539340Y-13642385D01*
X-14505669Y-13743400D01*
X-14505669Y-13878087D01*
X-14573012Y-14012774D01*
X-14640356Y-14080118D01*
X-14775043Y-14147461D01*
X-14842386Y-14147461D01*
X-15078088Y-13911759D01*
X-14943401Y-13777072D01*
X-15078088Y-14517851D02*
X-15785195Y-13810744D01*
X-15482149Y-14921912D01*
X-16189256Y-14214805D01*
X-15818867Y-15258629D02*
X-16525974Y-14551522D01*
X-16694332Y-14719881D01*
X-16761676Y-14854568D01*
X-16761676Y-14989255D01*
X-16728004Y-15090270D01*
X-16626989Y-15258629D01*
X-16525974Y-15359644D01*
X-16357615Y-15460660D01*
X-16256600Y-15494331D01*
X-16121913Y-15494331D01*
X-15987226Y-15426988D01*
X-15818867Y-15258629D01*
X-16703638Y-12804652D02*
X-17242386Y-13343400D01*
X-16703638Y-13343400D02*
X-17242386Y-12804652D01*
X-17949493Y-13175042D02*
X-18387226Y-13612774D01*
X-17882149Y-13646446D01*
X-17983165Y-13747461D01*
X-18016836Y-13848477D01*
X-18016836Y-13915820D01*
X-17983165Y-14016835D01*
X-17814806Y-14185194D01*
X-17713791Y-14218866D01*
X-17646447Y-14218866D01*
X-17545432Y-14185194D01*
X-17343401Y-13983164D01*
X-17309730Y-13882148D01*
X-17309730Y-13814805D01*
X-18589256Y-13814805D02*
X-18117852Y-14757614D01*
X-19060661Y-14286209D01*
X-19229019Y-14454568D02*
X-19666752Y-14892301D01*
X-19161676Y-14925973D01*
X-19262691Y-15026988D01*
X-19296363Y-15128003D01*
X-19296363Y-15195347D01*
X-19262691Y-15296362D01*
X-19094332Y-15464721D01*
X-18993317Y-15498392D01*
X-18925974Y-15498392D01*
X-18824958Y-15464721D01*
X-18622928Y-15262690D01*
X-18589256Y-15161675D01*
X-18589256Y-15094331D01*
X-19784000Y5930000D02*
X-19484000Y6230000D01*
X-19784000Y6030000D02*
X-19584000Y6230000D01*
D12*
X-19784000Y6230000D02*
X-19184000Y6230000D01*
X-19784000Y5730000D02*
X-19784000Y6230000D01*
D11*
X-19384000Y2730000D02*
X-19084000Y3030000D01*
X-19384000Y2830000D02*
X-19184000Y3030000D01*
D12*
X-19384000Y3030000D02*
X-18784000Y3030000D01*
X-19384000Y2530000D02*
X-19384000Y3030000D01*
D11*
X-19384000Y-470000D02*
X-19084000Y-170000D01*
X-19384000Y-370000D02*
X-19184000Y-170000D01*
D12*
X-19384000Y-170000D02*
X-18784000Y-170000D01*
X-19384000Y-670000D02*
X-19384000Y-170000D01*
D11*
X-8384000Y-7470000D02*
X-8684000Y-7170000D01*
X-8484000Y-7470000D02*
X-8684000Y-7270000D01*
D12*
X-8684000Y-7470000D02*
X-8684000Y-6870000D01*
X-8184000Y-7470000D02*
X-8684000Y-7470000D01*
D11*
X-10334000Y1730000D02*
X-10034000Y1430000D01*
X-10234000Y1730000D02*
X-10034000Y1530000D01*
D12*
X-10034000Y1730000D02*
X-10034000Y1130000D01*
X-10534000Y1730000D02*
X-10034000Y1730000D01*
D11*
X-11584000Y-8970000D02*
X-11884000Y-8670000D01*
X-11684000Y-8970000D02*
X-11884000Y-8770000D01*
D12*
X-11884000Y-8970000D02*
X-11884000Y-8370000D01*
X-11384000Y-8970000D02*
X-11884000Y-8970000D01*
D11*
X-14784000Y-10570000D02*
X-15084000Y-10270000D01*
X-14884000Y-10570000D02*
X-15084000Y-10370000D01*
D12*
X-15084000Y-10570000D02*
X-15084000Y-9970000D01*
X-14584000Y-10570000D02*
X-15084000Y-10570000D01*
D11*
X-17984000Y-11370000D02*
X-18284000Y-11070000D01*
X-18084000Y-11370000D02*
X-18284000Y-11170000D01*
D12*
X-18284000Y-11370000D02*
X-18284000Y-10770000D01*
X-17784000Y-11370000D02*
X-18284000Y-11370000D01*
D11*
X4416000Y12530000D02*
X4116000Y12830000D01*
X4316000Y12530000D02*
X4116000Y12730000D01*
D12*
X4116000Y12530000D02*
X4116000Y13130000D01*
X4616000Y12530000D02*
X4116000Y12530000D01*
D11*
X1116000Y13730000D02*
X816000Y14030000D01*
X1016000Y13730000D02*
X816000Y13930000D01*
D12*
X816000Y13730000D02*
X816000Y14330000D01*
X1316000Y13730000D02*
X816000Y13730000D01*
D10*
X816000Y-8415000D02*
X816000Y-10955000D01*
X816000Y-8415000D02*
X3356000Y-8415000D01*
X1066000Y-8665000D02*
X1066000Y-18015000D01*
X16846000Y-8665000D02*
X1066000Y-8665000D01*
X16846000Y-18015000D02*
X16846000Y-8665000D01*
X1066000Y-18015000D02*
X16846000Y-18015000D01*
X-9674000Y6126267D02*
X-9674000Y5783733D01*
X-10694000Y6126267D02*
X-10694000Y5783733D01*
X9616000Y-4830000D02*
X6166000Y-4830000D01*
X9616000Y-4830000D02*
X11566000Y-4830000D01*
X9616000Y5290000D02*
X7666000Y5290000D01*
X9616000Y5290000D02*
X11566000Y5290000D01*
X13169733Y10540000D02*
X13512267Y10540000D01*
X13169733Y9520000D02*
X13512267Y9520000D01*
X-3496267Y-7540000D02*
X-3153733Y-7540000D01*
X-3496267Y-8560000D02*
X-3153733Y-8560000D01*
X-8780267Y2640000D02*
X-8437733Y2640000D01*
X-8780267Y1620000D02*
X-8437733Y1620000D01*
X-19274000Y-5673733D02*
X-19274000Y-6016267D01*
X-20294000Y-5673733D02*
X-20294000Y-6016267D01*
X-12074000Y6126267D02*
X-12074000Y5783733D01*
X-13094000Y6126267D02*
X-13094000Y5783733D01*
X-6430267Y-9310000D02*
X-6087733Y-9310000D01*
X-6430267Y-10330000D02*
X-6087733Y-10330000D01*
X-9630267Y-10910000D02*
X-9287733Y-10910000D01*
X-9630267Y-11930000D02*
X-9287733Y-11930000D01*
X3553733Y2840000D02*
X3896267Y2840000D01*
X3553733Y3860000D02*
X3896267Y3860000D01*
X-12830267Y-12460000D02*
X-12487733Y-12460000D01*
X-12830267Y-13480000D02*
X-12487733Y-13480000D01*
X6610000Y9296267D02*
X6610000Y8953733D01*
X5590000Y9296267D02*
X5590000Y8953733D01*
X3326000Y10496267D02*
X3326000Y10153733D01*
X2306000Y10496267D02*
X2306000Y10153733D01*
X-20361000Y-15840000D02*
X-20361000Y-17170000D01*
X-19031000Y-15840000D02*
X-20361000Y-15840000D01*
X-17761000Y-15840000D02*
X-17761000Y-18500000D01*
X-17761000Y-18500000D02*
X20399000Y-18500000D01*
X-17761000Y-15840000D02*
X20399000Y-15840000D01*
X20399000Y-15840000D02*
X20399000Y-18500000D01*
X3326000Y476267D02*
X3326000Y133733D01*
X2306000Y476267D02*
X2306000Y133733D01*
X5126000Y476267D02*
X5126000Y133733D01*
X4106000Y476267D02*
X4106000Y133733D01*
D11*
X-20947620Y4938096D02*
X-21947620Y4938096D01*
X-21947620Y4700000D01*
X-21900000Y4557143D01*
X-21804762Y4461905D01*
X-21709524Y4414286D01*
X-21519048Y4366667D01*
X-21376191Y4366667D01*
X-21185715Y4414286D01*
X-21090477Y4461905D01*
X-20995239Y4557143D01*
X-20947620Y4700000D01*
X-20947620Y4938096D01*
X-21947620Y3509524D02*
X-21947620Y3700000D01*
X-21900000Y3795239D01*
X-21852381Y3842858D01*
X-21709524Y3938096D01*
X-21519048Y3985715D01*
X-21138096Y3985715D01*
X-21042858Y3938096D01*
X-20995239Y3890477D01*
X-20947620Y3795239D01*
X-20947620Y3604762D01*
X-20995239Y3509524D01*
X-21042858Y3461905D01*
X-21138096Y3414286D01*
X-21376191Y3414286D01*
X-21471429Y3461905D01*
X-21519048Y3509524D01*
X-21566667Y3604762D01*
X-21566667Y3795239D01*
X-21519048Y3890477D01*
X-21471429Y3938096D01*
X-21376191Y3985715D01*
X-20547620Y1618096D02*
X-21547620Y1618096D01*
X-21547620Y1380000D01*
X-21500000Y1237143D01*
X-21404762Y1141905D01*
X-21309524Y1094286D01*
X-21119048Y1046667D01*
X-20976191Y1046667D01*
X-20785715Y1094286D01*
X-20690477Y1141905D01*
X-20595239Y1237143D01*
X-20547620Y1380000D01*
X-20547620Y1618096D01*
X-21547620Y713334D02*
X-21547620Y46667D01*
X-20547620Y475239D01*
X-20547620Y-1461904D02*
X-21547620Y-1461904D01*
X-21547620Y-1700000D01*
X-21500000Y-1842857D01*
X-21404762Y-1938095D01*
X-21309524Y-1985714D01*
X-21119048Y-2033333D01*
X-20976191Y-2033333D01*
X-20785715Y-1985714D01*
X-20690477Y-1938095D01*
X-20595239Y-1842857D01*
X-20547620Y-1700000D01*
X-20547620Y-1461904D01*
X-21119048Y-2604761D02*
X-21166667Y-2509523D01*
X-21214286Y-2461904D01*
X-21309524Y-2414285D01*
X-21357143Y-2414285D01*
X-21452381Y-2461904D01*
X-21500000Y-2509523D01*
X-21547620Y-2604761D01*
X-21547620Y-2795238D01*
X-21500000Y-2890476D01*
X-21452381Y-2938095D01*
X-21357143Y-2985714D01*
X-21309524Y-2985714D01*
X-21214286Y-2938095D01*
X-21166667Y-2890476D01*
X-21119048Y-2795238D01*
X-21119048Y-2604761D01*
X-21071429Y-2509523D01*
X-21023810Y-2461904D01*
X-20928572Y-2414285D01*
X-20738096Y-2414285D01*
X-20642858Y-2461904D01*
X-20595239Y-2509523D01*
X-20547620Y-2604761D01*
X-20547620Y-2795238D01*
X-20595239Y-2890476D01*
X-20642858Y-2938095D01*
X-20738096Y-2985714D01*
X-20928572Y-2985714D01*
X-21023810Y-2938095D01*
X-21071429Y-2890476D01*
X-21119048Y-2795238D01*
X-7735715Y-1602380D02*
X-7735715Y-602380D01*
X-7973810Y-602380D01*
X-8116667Y-650000D01*
X-8211905Y-745238D01*
X-8259524Y-840476D01*
X-8307143Y-1030952D01*
X-8307143Y-1173809D01*
X-8259524Y-1364285D01*
X-8211905Y-1459523D01*
X-8116667Y-1554761D01*
X-7973810Y-1602380D01*
X-7735715Y-1602380D01*
X-9259524Y-1602380D02*
X-8688096Y-1602380D01*
X-8973810Y-1602380D02*
X-8973810Y-602380D01*
X-8878572Y-745238D01*
X-8783334Y-840476D01*
X-8688096Y-888095D01*
X-9878572Y-602380D02*
X-9973810Y-602380D01*
X-10069048Y-650000D01*
X-10116667Y-697619D01*
X-10164286Y-792857D01*
X-10211905Y-983333D01*
X-10211905Y-1221428D01*
X-10164286Y-1411904D01*
X-10116667Y-1507142D01*
X-10069048Y-1554761D01*
X-9973810Y-1602380D01*
X-9878572Y-1602380D01*
X-9783334Y-1554761D01*
X-9735715Y-1507142D01*
X-9688096Y-1411904D01*
X-9640477Y-1221428D01*
X-9640477Y-983333D01*
X-9688096Y-792857D01*
X-9735715Y-697619D01*
X-9783334Y-650000D01*
X-9878572Y-602380D01*
X-11261905Y2947620D02*
X-11261905Y3947620D01*
X-11500000Y3947620D01*
X-11642858Y3900000D01*
X-11738096Y3804762D01*
X-11785715Y3709524D01*
X-11833334Y3519048D01*
X-11833334Y3376191D01*
X-11785715Y3185715D01*
X-11738096Y3090477D01*
X-11642858Y2995239D01*
X-11500000Y2947620D01*
X-11261905Y2947620D01*
X-12309524Y2947620D02*
X-12500000Y2947620D01*
X-12595239Y2995239D01*
X-12642858Y3042858D01*
X-12738096Y3185715D01*
X-12785715Y3376191D01*
X-12785715Y3757143D01*
X-12738096Y3852381D01*
X-12690477Y3900000D01*
X-12595239Y3947620D01*
X-12404762Y3947620D01*
X-12309524Y3900000D01*
X-12261905Y3852381D01*
X-12214286Y3757143D01*
X-12214286Y3519048D01*
X-12261905Y3423810D01*
X-12309524Y3376191D01*
X-12404762Y3328572D01*
X-12595239Y3328572D01*
X-12690477Y3376191D01*
X-12738096Y3423810D01*
X-12785715Y3519048D01*
X-8661905Y-3252380D02*
X-8661905Y-2252380D01*
X-8900000Y-2252380D01*
X-9042858Y-2300000D01*
X-9138096Y-2395238D01*
X-9185715Y-2490476D01*
X-9233334Y-2680952D01*
X-9233334Y-2823809D01*
X-9185715Y-3014285D01*
X-9138096Y-3109523D01*
X-9042858Y-3204761D01*
X-8900000Y-3252380D01*
X-8661905Y-3252380D01*
X-10138096Y-2252380D02*
X-9661905Y-2252380D01*
X-9614286Y-2728571D01*
X-9661905Y-2680952D01*
X-9757143Y-2633333D01*
X-9995239Y-2633333D01*
X-10090477Y-2680952D01*
X-10138096Y-2728571D01*
X-10185715Y-2823809D01*
X-10185715Y-3061904D01*
X-10138096Y-3157142D01*
X-10090477Y-3204761D01*
X-9995239Y-3252380D01*
X-9757143Y-3252380D01*
X-9661905Y-3204761D01*
X-9614286Y-3157142D01*
X-12461905Y-5052380D02*
X-12461905Y-4052380D01*
X-12700000Y-4052380D01*
X-12842858Y-4100000D01*
X-12938096Y-4195238D01*
X-12985715Y-4290476D01*
X-13033334Y-4480952D01*
X-13033334Y-4623809D01*
X-12985715Y-4814285D01*
X-12938096Y-4909523D01*
X-12842858Y-5004761D01*
X-12700000Y-5052380D01*
X-12461905Y-5052380D01*
X-13890477Y-4385714D02*
X-13890477Y-5052380D01*
X-13652381Y-4004761D02*
X-13414286Y-4719047D01*
X-14033334Y-4719047D01*
X-15661905Y-5452380D02*
X-15661905Y-4452380D01*
X-15900000Y-4452380D01*
X-16042858Y-4500000D01*
X-16138096Y-4595238D01*
X-16185715Y-4690476D01*
X-16233334Y-4880952D01*
X-16233334Y-5023809D01*
X-16185715Y-5214285D01*
X-16138096Y-5309523D01*
X-16042858Y-5404761D01*
X-15900000Y-5452380D01*
X-15661905Y-5452380D01*
X-16566667Y-4452380D02*
X-17185715Y-4452380D01*
X-16852381Y-4833333D01*
X-16995239Y-4833333D01*
X-17090477Y-4880952D01*
X-17138096Y-4928571D01*
X-17185715Y-5023809D01*
X-17185715Y-5261904D01*
X-17138096Y-5357142D01*
X-17090477Y-5404761D01*
X-16995239Y-5452380D01*
X-16709524Y-5452380D01*
X-16614286Y-5404761D01*
X-16566667Y-5357142D01*
X6738095Y19147620D02*
X6738095Y20147620D01*
X6500000Y20147620D01*
X6357142Y20100000D01*
X6261904Y20004762D01*
X6214285Y19909524D01*
X6166666Y19719048D01*
X6166666Y19576191D01*
X6214285Y19385715D01*
X6261904Y19290477D01*
X6357142Y19195239D01*
X6500000Y19147620D01*
X6738095Y19147620D01*
X5785714Y20052381D02*
X5738095Y20100000D01*
X5642857Y20147620D01*
X5404761Y20147620D01*
X5309523Y20100000D01*
X5261904Y20052381D01*
X5214285Y19957143D01*
X5214285Y19861905D01*
X5261904Y19719048D01*
X5833333Y19147620D01*
X5214285Y19147620D01*
X3338095Y19947620D02*
X3338095Y20947620D01*
X3100000Y20947620D01*
X2957142Y20900000D01*
X2861904Y20804762D01*
X2814285Y20709524D01*
X2766666Y20519048D01*
X2766666Y20376191D01*
X2814285Y20185715D01*
X2861904Y20090477D01*
X2957142Y19995239D01*
X3100000Y19947620D01*
X3338095Y19947620D01*
X1814285Y19947620D02*
X2385714Y19947620D01*
X2100000Y19947620D02*
X2100000Y20947620D01*
X2195238Y20804762D01*
X2290476Y20709524D01*
X2385714Y20661905D01*
X13933333Y-6852380D02*
X13933333Y-7566666D01*
X13980952Y-7709523D01*
X14076190Y-7804761D01*
X14219047Y-7852380D01*
X14314285Y-7852380D01*
X12933333Y-7852380D02*
X13504761Y-7852380D01*
X13219047Y-7852380D02*
X13219047Y-6852380D01*
X13314285Y-6995238D01*
X13409523Y-7090476D01*
X13504761Y-7138095D01*
X8428571Y-7804761D02*
X8285714Y-7852380D01*
X8047619Y-7852380D01*
X7952380Y-7804761D01*
X7904761Y-7757142D01*
X7857142Y-7661904D01*
X7857142Y-7566666D01*
X7904761Y-7471428D01*
X7952380Y-7423809D01*
X8047619Y-7376190D01*
X8238095Y-7328571D01*
X8333333Y-7280952D01*
X8380952Y-7233333D01*
X8428571Y-7138095D01*
X8428571Y-7042857D01*
X8380952Y-6947619D01*
X8333333Y-6900000D01*
X8238095Y-6852380D01*
X8000000Y-6852380D01*
X7857142Y-6900000D01*
X7476190Y-7566666D02*
X7000000Y-7566666D01*
X7571428Y-7852380D02*
X7238095Y-6852380D01*
X6904761Y-7852380D01*
X6380952Y-6852380D02*
X6190476Y-6852380D01*
X6095238Y-6900000D01*
X6000000Y-6995238D01*
X5952380Y-7185714D01*
X5952380Y-7519047D01*
X6000000Y-7709523D01*
X6095238Y-7804761D01*
X6190476Y-7852380D01*
X6380952Y-7852380D01*
X6476190Y-7804761D01*
X6571428Y-7709523D01*
X6619047Y-7519047D01*
X6619047Y-7185714D01*
X6571428Y-6995238D01*
X6476190Y-6900000D01*
X6380952Y-6852380D01*
X5523809Y-7757142D02*
X5476190Y-7804761D01*
X5523809Y-7852380D01*
X5571428Y-7804761D01*
X5523809Y-7757142D01*
X5523809Y-7852380D01*
X4619047Y-6852380D02*
X4809523Y-6852380D01*
X4904761Y-6900000D01*
X4952380Y-6947619D01*
X5047619Y-7090476D01*
X5095238Y-7280952D01*
X5095238Y-7661904D01*
X5047619Y-7757142D01*
X5000000Y-7804761D01*
X4904761Y-7852380D01*
X4714285Y-7852380D01*
X4619047Y-7804761D01*
X4571428Y-7757142D01*
X4523809Y-7661904D01*
X4523809Y-7423809D01*
X4571428Y-7328571D01*
X4619047Y-7280952D01*
X4714285Y-7233333D01*
X4904761Y-7233333D01*
X5000000Y-7280952D01*
X5047619Y-7328571D01*
X5095238Y-7423809D01*
X4047619Y-7852380D02*
X3857142Y-7852380D01*
X3761904Y-7804761D01*
X3714285Y-7757142D01*
X3619047Y-7614285D01*
X3571428Y-7423809D01*
X3571428Y-7042857D01*
X3619047Y-6947619D01*
X3666666Y-6900000D01*
X3761904Y-6852380D01*
X3952380Y-6852380D01*
X4047619Y-6900000D01*
X4095238Y-6947619D01*
X4142857Y-7042857D01*
X4142857Y-7280952D01*
X4095238Y-7376190D01*
X4047619Y-7423809D01*
X3952380Y-7471428D01*
X3761904Y-7471428D01*
X3666666Y-7423809D01*
X3619047Y-7376190D01*
X3571428Y-7280952D01*
X-9647620Y8866667D02*
X-10123810Y9200000D01*
X-9647620Y9438096D02*
X-10647620Y9438096D01*
X-10647620Y9057143D01*
X-10600000Y8961905D01*
X-10552381Y8914286D01*
X-10457143Y8866667D01*
X-10314286Y8866667D01*
X-10219048Y8914286D01*
X-10171429Y8961905D01*
X-10123810Y9057143D01*
X-10123810Y9438096D01*
X-10219048Y8295239D02*
X-10266667Y8390477D01*
X-10314286Y8438096D01*
X-10409524Y8485715D01*
X-10457143Y8485715D01*
X-10552381Y8438096D01*
X-10600000Y8390477D01*
X-10647620Y8295239D01*
X-10647620Y8104762D01*
X-10600000Y8009524D01*
X-10552381Y7961905D01*
X-10457143Y7914286D01*
X-10409524Y7914286D01*
X-10314286Y7961905D01*
X-10266667Y8009524D01*
X-10219048Y8104762D01*
X-10219048Y8295239D01*
X-10171429Y8390477D01*
X-10123810Y8438096D01*
X-10028572Y8485715D01*
X-9838096Y8485715D01*
X-9742858Y8438096D01*
X-9695239Y8390477D01*
X-9647620Y8295239D01*
X-9647620Y8104762D01*
X-9695239Y8009524D01*
X-9742858Y7961905D01*
X-9838096Y7914286D01*
X-10028572Y7914286D01*
X-10123810Y7961905D01*
X-10171429Y8009524D01*
X-10219048Y8104762D01*
X10377904Y6947620D02*
X10377904Y6138096D01*
X10330285Y6042858D01*
X10282666Y5995239D01*
X10187428Y5947620D01*
X9996952Y5947620D01*
X9901714Y5995239D01*
X9854095Y6042858D01*
X9806476Y6138096D01*
X9806476Y6947620D01*
X8806476Y5947620D02*
X9377904Y5947620D01*
X9092190Y5947620D02*
X9092190Y6947620D01*
X9187428Y6804762D01*
X9282666Y6709524D01*
X9377904Y6661905D01*
X11333333Y20245239D02*
X11190476Y20197620D01*
X10952380Y20197620D01*
X10857142Y20245239D01*
X10809523Y20292858D01*
X10761904Y20388096D01*
X10761904Y20483334D01*
X10809523Y20578572D01*
X10857142Y20626191D01*
X10952380Y20673810D01*
X11142857Y20721429D01*
X11238095Y20769048D01*
X11285714Y20816667D01*
X11333333Y20911905D01*
X11333333Y21007143D01*
X11285714Y21102381D01*
X11238095Y21150000D01*
X11142857Y21197620D01*
X10904761Y21197620D01*
X10761904Y21150000D01*
X10428571Y21197620D02*
X10190476Y20197620D01*
X10000000Y20911905D01*
X9809523Y20197620D01*
X9571428Y21197620D01*
X8666666Y20197620D02*
X9238095Y20197620D01*
X8952380Y20197620D02*
X8952380Y21197620D01*
X9047619Y21054762D01*
X9142857Y20959524D01*
X9238095Y20911905D01*
X11309523Y18697620D02*
X11309523Y19697620D01*
X10976190Y18983334D01*
X10642857Y19697620D01*
X10642857Y18697620D01*
X9976190Y19697620D02*
X9785714Y19697620D01*
X9690476Y19650000D01*
X9595238Y19554762D01*
X9547619Y19364286D01*
X9547619Y19030953D01*
X9595238Y18840477D01*
X9690476Y18745239D01*
X9785714Y18697620D01*
X9976190Y18697620D01*
X10071428Y18745239D01*
X10166666Y18840477D01*
X10214285Y19030953D01*
X10214285Y19364286D01*
X10166666Y19554762D01*
X10071428Y19650000D01*
X9976190Y19697620D01*
X9119047Y18697620D02*
X9119047Y19697620D01*
X8880952Y19697620D01*
X8738095Y19650000D01*
X8642857Y19554762D01*
X8595238Y19459524D01*
X8547619Y19269048D01*
X8547619Y19126191D01*
X8595238Y18935715D01*
X8642857Y18840477D01*
X8738095Y18745239D01*
X8880952Y18697620D01*
X9119047Y18697620D01*
X8119047Y19221429D02*
X7785714Y19221429D01*
X7642857Y18697620D02*
X8119047Y18697620D01*
X8119047Y19697620D01*
X7642857Y19697620D01*
X13983857Y8147620D02*
X14317190Y8623810D01*
X14555285Y8147620D02*
X14555285Y9147620D01*
X14174333Y9147620D01*
X14079095Y9100000D01*
X14031476Y9052381D01*
X13983857Y8957143D01*
X13983857Y8814286D01*
X14031476Y8719048D01*
X14079095Y8671429D01*
X14174333Y8623810D01*
X14555285Y8623810D01*
X13031476Y8147620D02*
X13602904Y8147620D01*
X13317190Y8147620D02*
X13317190Y9147620D01*
X13412428Y9004762D01*
X13507666Y8909524D01*
X13602904Y8861905D01*
X12650523Y9052381D02*
X12602904Y9100000D01*
X12507666Y9147620D01*
X12269571Y9147620D01*
X12174333Y9100000D01*
X12126714Y9052381D01*
X12079095Y8957143D01*
X12079095Y8861905D01*
X12126714Y8719048D01*
X12698142Y8147620D01*
X12079095Y8147620D01*
X242857Y-8652380D02*
X576190Y-8176190D01*
X814285Y-8652380D02*
X814285Y-7652380D01*
X433333Y-7652380D01*
X338095Y-7700000D01*
X290476Y-7747619D01*
X242857Y-7842857D01*
X242857Y-7985714D01*
X290476Y-8080952D01*
X338095Y-8128571D01*
X433333Y-8176190D01*
X814285Y-8176190D01*
X-709524Y-8652380D02*
X-138096Y-8652380D01*
X-423810Y-8652380D02*
X-423810Y-7652380D01*
X-328572Y-7795238D01*
X-233334Y-7890476D01*
X-138096Y-7938095D01*
X-1661905Y-8652380D02*
X-1090477Y-8652380D01*
X-1376191Y-8652380D02*
X-1376191Y-7652380D01*
X-1280953Y-7795238D01*
X-1185715Y-7890476D01*
X-1090477Y-7938095D01*
X-8707143Y3047620D02*
X-8373810Y3523810D01*
X-8135715Y3047620D02*
X-8135715Y4047620D01*
X-8516667Y4047620D01*
X-8611905Y4000000D01*
X-8659524Y3952381D01*
X-8707143Y3857143D01*
X-8707143Y3714286D01*
X-8659524Y3619048D01*
X-8611905Y3571429D01*
X-8516667Y3523810D01*
X-8135715Y3523810D01*
X-9659524Y3047620D02*
X-9088096Y3047620D01*
X-9373810Y3047620D02*
X-9373810Y4047620D01*
X-9278572Y3904762D01*
X-9183334Y3809524D01*
X-9088096Y3761905D01*
X-10278572Y4047620D02*
X-10373810Y4047620D01*
X-10469048Y4000000D01*
X-10516667Y3952381D01*
X-10564286Y3857143D01*
X-10611905Y3666667D01*
X-10611905Y3428572D01*
X-10564286Y3238096D01*
X-10516667Y3142858D01*
X-10469048Y3095239D01*
X-10373810Y3047620D01*
X-10278572Y3047620D01*
X-10183334Y3095239D01*
X-10135715Y3142858D01*
X-10088096Y3238096D01*
X-10040477Y3428572D01*
X-10040477Y3666667D01*
X-10088096Y3857143D01*
X-10135715Y3952381D01*
X-10183334Y4000000D01*
X-10278572Y4047620D01*
X-20761620Y-5678333D02*
X-21237810Y-5345000D01*
X-20761620Y-5106904D02*
X-21761620Y-5106904D01*
X-21761620Y-5487857D01*
X-21714000Y-5583095D01*
X-21666381Y-5630714D01*
X-21571143Y-5678333D01*
X-21428286Y-5678333D01*
X-21333048Y-5630714D01*
X-21285429Y-5583095D01*
X-21237810Y-5487857D01*
X-21237810Y-5106904D01*
X-20761620Y-6154523D02*
X-20761620Y-6345000D01*
X-20809239Y-6440238D01*
X-20856858Y-6487857D01*
X-20999715Y-6583095D01*
X-21190191Y-6630714D01*
X-21571143Y-6630714D01*
X-21666381Y-6583095D01*
X-21714000Y-6535476D01*
X-21761620Y-6440238D01*
X-21761620Y-6249761D01*
X-21714000Y-6154523D01*
X-21666381Y-6106904D01*
X-21571143Y-6059285D01*
X-21333048Y-6059285D01*
X-21237810Y-6106904D01*
X-21190191Y-6154523D01*
X-21142572Y-6249761D01*
X-21142572Y-6440238D01*
X-21190191Y-6535476D01*
X-21237810Y-6583095D01*
X-21333048Y-6630714D01*
X-13747620Y7166667D02*
X-14223810Y7500000D01*
X-13747620Y7738096D02*
X-14747620Y7738096D01*
X-14747620Y7357143D01*
X-14700000Y7261905D01*
X-14652381Y7214286D01*
X-14557143Y7166667D01*
X-14414286Y7166667D01*
X-14319048Y7214286D01*
X-14271429Y7261905D01*
X-14223810Y7357143D01*
X-14223810Y7738096D01*
X-14747620Y6833334D02*
X-14747620Y6166667D01*
X-13747620Y6595239D01*
X-633334Y-10252380D02*
X-300000Y-9776190D01*
X-61905Y-10252380D02*
X-61905Y-9252380D01*
X-442858Y-9252380D01*
X-538096Y-9300000D01*
X-585715Y-9347619D01*
X-633334Y-9442857D01*
X-633334Y-9585714D01*
X-585715Y-9680952D01*
X-538096Y-9728571D01*
X-442858Y-9776190D01*
X-61905Y-9776190D01*
X-1490477Y-9252380D02*
X-1300000Y-9252380D01*
X-1204762Y-9300000D01*
X-1157143Y-9347619D01*
X-1061905Y-9490476D01*
X-1014286Y-9680952D01*
X-1014286Y-10061904D01*
X-1061905Y-10157142D01*
X-1109524Y-10204761D01*
X-1204762Y-10252380D01*
X-1395239Y-10252380D01*
X-1490477Y-10204761D01*
X-1538096Y-10157142D01*
X-1585715Y-10061904D01*
X-1585715Y-9823809D01*
X-1538096Y-9728571D01*
X-1490477Y-9680952D01*
X-1395239Y-9633333D01*
X-1204762Y-9633333D01*
X-1109524Y-9680952D01*
X-1061905Y-9728571D01*
X-1014286Y-9823809D01*
X-633334Y-11852380D02*
X-300000Y-11376190D01*
X-61905Y-11852380D02*
X-61905Y-10852380D01*
X-442858Y-10852380D01*
X-538096Y-10900000D01*
X-585715Y-10947619D01*
X-633334Y-11042857D01*
X-633334Y-11185714D01*
X-585715Y-11280952D01*
X-538096Y-11328571D01*
X-442858Y-11376190D01*
X-61905Y-11376190D01*
X-1538096Y-10852380D02*
X-1061905Y-10852380D01*
X-1014286Y-11328571D01*
X-1061905Y-11280952D01*
X-1157143Y-11233333D01*
X-1395239Y-11233333D01*
X-1490477Y-11280952D01*
X-1538096Y-11328571D01*
X-1585715Y-11423809D01*
X-1585715Y-11661904D01*
X-1538096Y-11757142D01*
X-1490477Y-11804761D01*
X-1395239Y-11852380D01*
X-1157143Y-11852380D01*
X-1061905Y-11804761D01*
X-1014286Y-11757142D01*
X3966666Y6947620D02*
X4300000Y7423810D01*
X4538095Y6947620D02*
X4538095Y7947620D01*
X4157142Y7947620D01*
X4061904Y7900000D01*
X4014285Y7852381D01*
X3966666Y7757143D01*
X3966666Y7614286D01*
X4014285Y7519048D01*
X4061904Y7471429D01*
X4157142Y7423810D01*
X4538095Y7423810D01*
X3109523Y7614286D02*
X3109523Y6947620D01*
X3347619Y7995239D02*
X3585714Y7280953D01*
X2966666Y7280953D01*
X-633334Y-13452380D02*
X-300000Y-12976190D01*
X-61905Y-13452380D02*
X-61905Y-12452380D01*
X-442858Y-12452380D01*
X-538096Y-12500000D01*
X-585715Y-12547619D01*
X-633334Y-12642857D01*
X-633334Y-12785714D01*
X-585715Y-12880952D01*
X-538096Y-12928571D01*
X-442858Y-12976190D01*
X-61905Y-12976190D01*
X-966667Y-12452380D02*
X-1585715Y-12452380D01*
X-1252381Y-12833333D01*
X-1395239Y-12833333D01*
X-1490477Y-12880952D01*
X-1538096Y-12928571D01*
X-1585715Y-13023809D01*
X-1585715Y-13261904D01*
X-1538096Y-13357142D01*
X-1490477Y-13404761D01*
X-1395239Y-13452380D01*
X-1109524Y-13452380D01*
X-1014286Y-13404761D01*
X-966667Y-13357142D01*
X5122380Y9291667D02*
X4646190Y9625000D01*
X5122380Y9863096D02*
X4122380Y9863096D01*
X4122380Y9482143D01*
X4170000Y9386905D01*
X4217619Y9339286D01*
X4312857Y9291667D01*
X4455714Y9291667D01*
X4550952Y9339286D01*
X4598571Y9386905D01*
X4646190Y9482143D01*
X4646190Y9863096D01*
X4217619Y8910715D02*
X4170000Y8863096D01*
X4122380Y8767858D01*
X4122380Y8529762D01*
X4170000Y8434524D01*
X4217619Y8386905D01*
X4312857Y8339286D01*
X4408095Y8339286D01*
X4550952Y8386905D01*
X5122380Y8958334D01*
X5122380Y8339286D01*
X1838380Y10491667D02*
X1362190Y10825000D01*
X1838380Y11063096D02*
X838380Y11063096D01*
X838380Y10682143D01*
X886000Y10586905D01*
X933619Y10539286D01*
X1028857Y10491667D01*
X1171714Y10491667D01*
X1266952Y10539286D01*
X1314571Y10586905D01*
X1362190Y10682143D01*
X1362190Y11063096D01*
X1838380Y9539286D02*
X1838380Y10110715D01*
X1838380Y9825000D02*
X838380Y9825000D01*
X981238Y9920239D01*
X1076476Y10015477D01*
X1124095Y10110715D01*
X-3666667Y-12852380D02*
X-3666667Y-13566666D01*
X-3619048Y-13709523D01*
X-3523810Y-13804761D01*
X-3380953Y-13852380D01*
X-3285715Y-13852380D01*
X-4095239Y-12947619D02*
X-4142858Y-12900000D01*
X-4238096Y-12852380D01*
X-4476191Y-12852380D01*
X-4571429Y-12900000D01*
X-4619048Y-12947619D01*
X-4666667Y-13042857D01*
X-4666667Y-13138095D01*
X-4619048Y-13280952D01*
X-4047620Y-13852380D01*
X-4666667Y-13852380D01*
X38095Y-14928571D02*
X-104762Y-14976190D01*
X-152381Y-15023809D01*
X-200000Y-15119047D01*
X-200000Y-15261904D01*
X-152381Y-15357142D01*
X-104762Y-15404761D01*
X-9524Y-15452380D01*
X371428Y-15452380D01*
X371428Y-14452380D01*
X38095Y-14452380D01*
X-57143Y-14500000D01*
X-104762Y-14547619D01*
X-152381Y-14642857D01*
X-152381Y-14738095D01*
X-104762Y-14833333D01*
X-57143Y-14880952D01*
X38095Y-14928571D01*
X371428Y-14928571D01*
X-1200000Y-15452380D02*
X-866667Y-14976190D01*
X-628572Y-15452380D02*
X-628572Y-14452380D01*
X-1009524Y-14452380D01*
X-1104762Y-14500000D01*
X-1152381Y-14547619D01*
X-1200000Y-14642857D01*
X-1200000Y-14785714D01*
X-1152381Y-14880952D01*
X-1104762Y-14928571D01*
X-1009524Y-14976190D01*
X-628572Y-14976190D01*
X-1628572Y-14928571D02*
X-1961905Y-14928571D01*
X-2104762Y-15452380D02*
X-1628572Y-15452380D01*
X-1628572Y-14452380D01*
X-2104762Y-14452380D01*
X-2485715Y-15166666D02*
X-2961905Y-15166666D01*
X-2390477Y-15452380D02*
X-2723810Y-14452380D01*
X-3057143Y-15452380D01*
X-3390477Y-15452380D02*
X-3390477Y-14452380D01*
X-3961905Y-15452380D02*
X-3533334Y-14880952D01*
X-3961905Y-14452380D02*
X-3390477Y-15023809D01*
X-4580953Y-14452380D02*
X-4771429Y-14452380D01*
X-4866667Y-14500000D01*
X-4961905Y-14595238D01*
X-5009524Y-14785714D01*
X-5009524Y-15119047D01*
X-4961905Y-15309523D01*
X-4866667Y-15404761D01*
X-4771429Y-15452380D01*
X-4580953Y-15452380D01*
X-4485715Y-15404761D01*
X-4390477Y-15309523D01*
X-4342858Y-15119047D01*
X-4342858Y-14785714D01*
X-4390477Y-14595238D01*
X-4485715Y-14500000D01*
X-4580953Y-14452380D01*
X-5438096Y-14452380D02*
X-5438096Y-15261904D01*
X-5485715Y-15357142D01*
X-5533334Y-15404761D01*
X-5628572Y-15452380D01*
X-5819048Y-15452380D01*
X-5914286Y-15404761D01*
X-5961905Y-15357142D01*
X-6009524Y-15261904D01*
X-6009524Y-14452380D01*
X-6342858Y-14452380D02*
X-6914286Y-14452380D01*
X-6628572Y-15452380D02*
X-6628572Y-14452380D01*
X3157142Y5566667D02*
X3204761Y5614286D01*
X3252380Y5757143D01*
X3252380Y5852381D01*
X3204761Y5995239D01*
X3109523Y6090477D01*
X3014285Y6138096D01*
X2823809Y6185715D01*
X2680952Y6185715D01*
X2490476Y6138096D01*
X2395238Y6090477D01*
X2300000Y5995239D01*
X2252380Y5852381D01*
X2252380Y5757143D01*
X2300000Y5614286D01*
X2347619Y5566667D01*
X2347619Y5185715D02*
X2300000Y5138096D01*
X2252380Y5042858D01*
X2252380Y4804762D01*
X2300000Y4709524D01*
X2347619Y4661905D01*
X2442857Y4614286D01*
X2538095Y4614286D01*
X2680952Y4661905D01*
X3252380Y5233334D01*
X3252380Y4614286D01*
X4957142Y5566667D02*
X5004761Y5614286D01*
X5052380Y5757143D01*
X5052380Y5852381D01*
X5004761Y5995239D01*
X4909523Y6090477D01*
X4814285Y6138096D01*
X4623809Y6185715D01*
X4480952Y6185715D01*
X4290476Y6138096D01*
X4195238Y6090477D01*
X4100000Y5995239D01*
X4052380Y5852381D01*
X4052380Y5757143D01*
X4100000Y5614286D01*
X4147619Y5566667D01*
X5052380Y4614286D02*
X5052380Y5185715D01*
X5052380Y4900000D02*
X4052380Y4900000D01*
X4195238Y4995239D01*
X4290476Y5090477D01*
X4338095Y5185715D01*
M02*
