G04 #@! TF.GenerationSoftware,KiCad,Pcbnew,(5.1.2)-1*
G04 #@! TF.CreationDate,2019-07-09T23:17:51-04:00*
G04 #@! TF.ProjectId,SPIvSPI_SAO_White,53504976-5350-4495-9f53-414f5f576869,0*
G04 #@! TF.SameCoordinates,PX90f5600PY584f6c0*
G04 #@! TF.FileFunction,Paste,Bot*
G04 #@! TF.FilePolarity,Positive*
%FSLAX46Y46*%
G04 Gerber Fmt 4.6, Leading zero omitted, Abs format (unit mm)*
G04 Created by KiCad (PCBNEW (5.1.2)-1) date 2019-07-09 23:17:51*
%MOMM*%
%LPD*%
G04 APERTURE LIST*
%ADD10R,1.200000X2.400000*%
%ADD11R,2.400000X1.200000*%
%ADD12C,0.100000*%
%ADD13C,0.950000*%
%ADD14C,0.600000*%
%ADD15R,1.600000X1.600000*%
G04 APERTURE END LIST*
D10*
X-14984000Y4230000D03*
X-20184000Y4230000D03*
X-14584000Y1030000D03*
X-19784000Y1030000D03*
X-14584000Y-2170000D03*
X-19784000Y-2170000D03*
D11*
X-6684000Y-2670000D03*
X-6684000Y-7870000D03*
X-12034000Y-3070000D03*
X-12034000Y2130000D03*
X-9884000Y-4170000D03*
X-9884000Y-9370000D03*
X-13084000Y-5770000D03*
X-13084000Y-10970000D03*
X-16284000Y-6570000D03*
X-16284000Y-11770000D03*
X6116000Y17330000D03*
X6116000Y12130000D03*
X2816000Y18530000D03*
X2816000Y13330000D03*
D12*
G36*
X-9923221Y5603856D02*
G01*
X-9900166Y5600437D01*
X-9877557Y5594773D01*
X-9855613Y5586921D01*
X-9834543Y5576956D01*
X-9814552Y5564974D01*
X-9795832Y5551090D01*
X-9778562Y5535438D01*
X-9762910Y5518168D01*
X-9749026Y5499448D01*
X-9737044Y5479457D01*
X-9727079Y5458387D01*
X-9719227Y5436443D01*
X-9713563Y5413834D01*
X-9710144Y5390779D01*
X-9709000Y5367500D01*
X-9709000Y4792500D01*
X-9710144Y4769221D01*
X-9713563Y4746166D01*
X-9719227Y4723557D01*
X-9727079Y4701613D01*
X-9737044Y4680543D01*
X-9749026Y4660552D01*
X-9762910Y4641832D01*
X-9778562Y4624562D01*
X-9795832Y4608910D01*
X-9814552Y4595026D01*
X-9834543Y4583044D01*
X-9855613Y4573079D01*
X-9877557Y4565227D01*
X-9900166Y4559563D01*
X-9923221Y4556144D01*
X-9946500Y4555000D01*
X-10421500Y4555000D01*
X-10444779Y4556144D01*
X-10467834Y4559563D01*
X-10490443Y4565227D01*
X-10512387Y4573079D01*
X-10533457Y4583044D01*
X-10553448Y4595026D01*
X-10572168Y4608910D01*
X-10589438Y4624562D01*
X-10605090Y4641832D01*
X-10618974Y4660552D01*
X-10630956Y4680543D01*
X-10640921Y4701613D01*
X-10648773Y4723557D01*
X-10654437Y4746166D01*
X-10657856Y4769221D01*
X-10659000Y4792500D01*
X-10659000Y5367500D01*
X-10657856Y5390779D01*
X-10654437Y5413834D01*
X-10648773Y5436443D01*
X-10640921Y5458387D01*
X-10630956Y5479457D01*
X-10618974Y5499448D01*
X-10605090Y5518168D01*
X-10589438Y5535438D01*
X-10572168Y5551090D01*
X-10553448Y5564974D01*
X-10533457Y5576956D01*
X-10512387Y5586921D01*
X-10490443Y5594773D01*
X-10467834Y5600437D01*
X-10444779Y5603856D01*
X-10421500Y5605000D01*
X-9946500Y5605000D01*
X-9923221Y5603856D01*
X-9923221Y5603856D01*
G37*
D13*
X-10184000Y5080000D03*
D12*
G36*
X-9923221Y7353856D02*
G01*
X-9900166Y7350437D01*
X-9877557Y7344773D01*
X-9855613Y7336921D01*
X-9834543Y7326956D01*
X-9814552Y7314974D01*
X-9795832Y7301090D01*
X-9778562Y7285438D01*
X-9762910Y7268168D01*
X-9749026Y7249448D01*
X-9737044Y7229457D01*
X-9727079Y7208387D01*
X-9719227Y7186443D01*
X-9713563Y7163834D01*
X-9710144Y7140779D01*
X-9709000Y7117500D01*
X-9709000Y6542500D01*
X-9710144Y6519221D01*
X-9713563Y6496166D01*
X-9719227Y6473557D01*
X-9727079Y6451613D01*
X-9737044Y6430543D01*
X-9749026Y6410552D01*
X-9762910Y6391832D01*
X-9778562Y6374562D01*
X-9795832Y6358910D01*
X-9814552Y6345026D01*
X-9834543Y6333044D01*
X-9855613Y6323079D01*
X-9877557Y6315227D01*
X-9900166Y6309563D01*
X-9923221Y6306144D01*
X-9946500Y6305000D01*
X-10421500Y6305000D01*
X-10444779Y6306144D01*
X-10467834Y6309563D01*
X-10490443Y6315227D01*
X-10512387Y6323079D01*
X-10533457Y6333044D01*
X-10553448Y6345026D01*
X-10572168Y6358910D01*
X-10589438Y6374562D01*
X-10605090Y6391832D01*
X-10618974Y6410552D01*
X-10630956Y6430543D01*
X-10640921Y6451613D01*
X-10648773Y6473557D01*
X-10654437Y6496166D01*
X-10657856Y6519221D01*
X-10659000Y6542500D01*
X-10659000Y7117500D01*
X-10657856Y7140779D01*
X-10654437Y7163834D01*
X-10648773Y7186443D01*
X-10640921Y7208387D01*
X-10630956Y7229457D01*
X-10618974Y7249448D01*
X-10605090Y7268168D01*
X-10589438Y7285438D01*
X-10572168Y7301090D01*
X-10553448Y7314974D01*
X-10533457Y7326956D01*
X-10512387Y7336921D01*
X-10490443Y7344773D01*
X-10467834Y7350437D01*
X-10444779Y7353856D01*
X-10421500Y7355000D01*
X-9946500Y7355000D01*
X-9923221Y7353856D01*
X-9923221Y7353856D01*
G37*
D13*
X-10184000Y6830000D03*
D12*
G36*
X12930703Y-3915722D02*
G01*
X12945264Y-3917882D01*
X12959543Y-3921459D01*
X12973403Y-3926418D01*
X12986710Y-3932712D01*
X12999336Y-3940280D01*
X13011159Y-3949048D01*
X13022066Y-3958934D01*
X13031952Y-3969841D01*
X13040720Y-3981664D01*
X13048288Y-3994290D01*
X13054582Y-4007597D01*
X13059541Y-4021457D01*
X13063118Y-4035736D01*
X13065278Y-4050297D01*
X13066000Y-4065000D01*
X13066000Y-4365000D01*
X13065278Y-4379703D01*
X13063118Y-4394264D01*
X13059541Y-4408543D01*
X13054582Y-4422403D01*
X13048288Y-4435710D01*
X13040720Y-4448336D01*
X13031952Y-4460159D01*
X13022066Y-4471066D01*
X13011159Y-4480952D01*
X12999336Y-4489720D01*
X12986710Y-4497288D01*
X12973403Y-4503582D01*
X12959543Y-4508541D01*
X12945264Y-4512118D01*
X12930703Y-4514278D01*
X12916000Y-4515000D01*
X11266000Y-4515000D01*
X11251297Y-4514278D01*
X11236736Y-4512118D01*
X11222457Y-4508541D01*
X11208597Y-4503582D01*
X11195290Y-4497288D01*
X11182664Y-4489720D01*
X11170841Y-4480952D01*
X11159934Y-4471066D01*
X11150048Y-4460159D01*
X11141280Y-4448336D01*
X11133712Y-4435710D01*
X11127418Y-4422403D01*
X11122459Y-4408543D01*
X11118882Y-4394264D01*
X11116722Y-4379703D01*
X11116000Y-4365000D01*
X11116000Y-4065000D01*
X11116722Y-4050297D01*
X11118882Y-4035736D01*
X11122459Y-4021457D01*
X11127418Y-4007597D01*
X11133712Y-3994290D01*
X11141280Y-3981664D01*
X11150048Y-3969841D01*
X11159934Y-3958934D01*
X11170841Y-3949048D01*
X11182664Y-3940280D01*
X11195290Y-3932712D01*
X11208597Y-3926418D01*
X11222457Y-3921459D01*
X11236736Y-3917882D01*
X11251297Y-3915722D01*
X11266000Y-3915000D01*
X12916000Y-3915000D01*
X12930703Y-3915722D01*
X12930703Y-3915722D01*
G37*
D14*
X12091000Y-4215000D03*
D12*
G36*
X12930703Y-2645722D02*
G01*
X12945264Y-2647882D01*
X12959543Y-2651459D01*
X12973403Y-2656418D01*
X12986710Y-2662712D01*
X12999336Y-2670280D01*
X13011159Y-2679048D01*
X13022066Y-2688934D01*
X13031952Y-2699841D01*
X13040720Y-2711664D01*
X13048288Y-2724290D01*
X13054582Y-2737597D01*
X13059541Y-2751457D01*
X13063118Y-2765736D01*
X13065278Y-2780297D01*
X13066000Y-2795000D01*
X13066000Y-3095000D01*
X13065278Y-3109703D01*
X13063118Y-3124264D01*
X13059541Y-3138543D01*
X13054582Y-3152403D01*
X13048288Y-3165710D01*
X13040720Y-3178336D01*
X13031952Y-3190159D01*
X13022066Y-3201066D01*
X13011159Y-3210952D01*
X12999336Y-3219720D01*
X12986710Y-3227288D01*
X12973403Y-3233582D01*
X12959543Y-3238541D01*
X12945264Y-3242118D01*
X12930703Y-3244278D01*
X12916000Y-3245000D01*
X11266000Y-3245000D01*
X11251297Y-3244278D01*
X11236736Y-3242118D01*
X11222457Y-3238541D01*
X11208597Y-3233582D01*
X11195290Y-3227288D01*
X11182664Y-3219720D01*
X11170841Y-3210952D01*
X11159934Y-3201066D01*
X11150048Y-3190159D01*
X11141280Y-3178336D01*
X11133712Y-3165710D01*
X11127418Y-3152403D01*
X11122459Y-3138543D01*
X11118882Y-3124264D01*
X11116722Y-3109703D01*
X11116000Y-3095000D01*
X11116000Y-2795000D01*
X11116722Y-2780297D01*
X11118882Y-2765736D01*
X11122459Y-2751457D01*
X11127418Y-2737597D01*
X11133712Y-2724290D01*
X11141280Y-2711664D01*
X11150048Y-2699841D01*
X11159934Y-2688934D01*
X11170841Y-2679048D01*
X11182664Y-2670280D01*
X11195290Y-2662712D01*
X11208597Y-2656418D01*
X11222457Y-2651459D01*
X11236736Y-2647882D01*
X11251297Y-2645722D01*
X11266000Y-2645000D01*
X12916000Y-2645000D01*
X12930703Y-2645722D01*
X12930703Y-2645722D01*
G37*
D14*
X12091000Y-2945000D03*
D12*
G36*
X12930703Y-1375722D02*
G01*
X12945264Y-1377882D01*
X12959543Y-1381459D01*
X12973403Y-1386418D01*
X12986710Y-1392712D01*
X12999336Y-1400280D01*
X13011159Y-1409048D01*
X13022066Y-1418934D01*
X13031952Y-1429841D01*
X13040720Y-1441664D01*
X13048288Y-1454290D01*
X13054582Y-1467597D01*
X13059541Y-1481457D01*
X13063118Y-1495736D01*
X13065278Y-1510297D01*
X13066000Y-1525000D01*
X13066000Y-1825000D01*
X13065278Y-1839703D01*
X13063118Y-1854264D01*
X13059541Y-1868543D01*
X13054582Y-1882403D01*
X13048288Y-1895710D01*
X13040720Y-1908336D01*
X13031952Y-1920159D01*
X13022066Y-1931066D01*
X13011159Y-1940952D01*
X12999336Y-1949720D01*
X12986710Y-1957288D01*
X12973403Y-1963582D01*
X12959543Y-1968541D01*
X12945264Y-1972118D01*
X12930703Y-1974278D01*
X12916000Y-1975000D01*
X11266000Y-1975000D01*
X11251297Y-1974278D01*
X11236736Y-1972118D01*
X11222457Y-1968541D01*
X11208597Y-1963582D01*
X11195290Y-1957288D01*
X11182664Y-1949720D01*
X11170841Y-1940952D01*
X11159934Y-1931066D01*
X11150048Y-1920159D01*
X11141280Y-1908336D01*
X11133712Y-1895710D01*
X11127418Y-1882403D01*
X11122459Y-1868543D01*
X11118882Y-1854264D01*
X11116722Y-1839703D01*
X11116000Y-1825000D01*
X11116000Y-1525000D01*
X11116722Y-1510297D01*
X11118882Y-1495736D01*
X11122459Y-1481457D01*
X11127418Y-1467597D01*
X11133712Y-1454290D01*
X11141280Y-1441664D01*
X11150048Y-1429841D01*
X11159934Y-1418934D01*
X11170841Y-1409048D01*
X11182664Y-1400280D01*
X11195290Y-1392712D01*
X11208597Y-1386418D01*
X11222457Y-1381459D01*
X11236736Y-1377882D01*
X11251297Y-1375722D01*
X11266000Y-1375000D01*
X12916000Y-1375000D01*
X12930703Y-1375722D01*
X12930703Y-1375722D01*
G37*
D14*
X12091000Y-1675000D03*
D12*
G36*
X12930703Y-105722D02*
G01*
X12945264Y-107882D01*
X12959543Y-111459D01*
X12973403Y-116418D01*
X12986710Y-122712D01*
X12999336Y-130280D01*
X13011159Y-139048D01*
X13022066Y-148934D01*
X13031952Y-159841D01*
X13040720Y-171664D01*
X13048288Y-184290D01*
X13054582Y-197597D01*
X13059541Y-211457D01*
X13063118Y-225736D01*
X13065278Y-240297D01*
X13066000Y-255000D01*
X13066000Y-555000D01*
X13065278Y-569703D01*
X13063118Y-584264D01*
X13059541Y-598543D01*
X13054582Y-612403D01*
X13048288Y-625710D01*
X13040720Y-638336D01*
X13031952Y-650159D01*
X13022066Y-661066D01*
X13011159Y-670952D01*
X12999336Y-679720D01*
X12986710Y-687288D01*
X12973403Y-693582D01*
X12959543Y-698541D01*
X12945264Y-702118D01*
X12930703Y-704278D01*
X12916000Y-705000D01*
X11266000Y-705000D01*
X11251297Y-704278D01*
X11236736Y-702118D01*
X11222457Y-698541D01*
X11208597Y-693582D01*
X11195290Y-687288D01*
X11182664Y-679720D01*
X11170841Y-670952D01*
X11159934Y-661066D01*
X11150048Y-650159D01*
X11141280Y-638336D01*
X11133712Y-625710D01*
X11127418Y-612403D01*
X11122459Y-598543D01*
X11118882Y-584264D01*
X11116722Y-569703D01*
X11116000Y-555000D01*
X11116000Y-255000D01*
X11116722Y-240297D01*
X11118882Y-225736D01*
X11122459Y-211457D01*
X11127418Y-197597D01*
X11133712Y-184290D01*
X11141280Y-171664D01*
X11150048Y-159841D01*
X11159934Y-148934D01*
X11170841Y-139048D01*
X11182664Y-130280D01*
X11195290Y-122712D01*
X11208597Y-116418D01*
X11222457Y-111459D01*
X11236736Y-107882D01*
X11251297Y-105722D01*
X11266000Y-105000D01*
X12916000Y-105000D01*
X12930703Y-105722D01*
X12930703Y-105722D01*
G37*
D14*
X12091000Y-405000D03*
D12*
G36*
X12930703Y1164278D02*
G01*
X12945264Y1162118D01*
X12959543Y1158541D01*
X12973403Y1153582D01*
X12986710Y1147288D01*
X12999336Y1139720D01*
X13011159Y1130952D01*
X13022066Y1121066D01*
X13031952Y1110159D01*
X13040720Y1098336D01*
X13048288Y1085710D01*
X13054582Y1072403D01*
X13059541Y1058543D01*
X13063118Y1044264D01*
X13065278Y1029703D01*
X13066000Y1015000D01*
X13066000Y715000D01*
X13065278Y700297D01*
X13063118Y685736D01*
X13059541Y671457D01*
X13054582Y657597D01*
X13048288Y644290D01*
X13040720Y631664D01*
X13031952Y619841D01*
X13022066Y608934D01*
X13011159Y599048D01*
X12999336Y590280D01*
X12986710Y582712D01*
X12973403Y576418D01*
X12959543Y571459D01*
X12945264Y567882D01*
X12930703Y565722D01*
X12916000Y565000D01*
X11266000Y565000D01*
X11251297Y565722D01*
X11236736Y567882D01*
X11222457Y571459D01*
X11208597Y576418D01*
X11195290Y582712D01*
X11182664Y590280D01*
X11170841Y599048D01*
X11159934Y608934D01*
X11150048Y619841D01*
X11141280Y631664D01*
X11133712Y644290D01*
X11127418Y657597D01*
X11122459Y671457D01*
X11118882Y685736D01*
X11116722Y700297D01*
X11116000Y715000D01*
X11116000Y1015000D01*
X11116722Y1029703D01*
X11118882Y1044264D01*
X11122459Y1058543D01*
X11127418Y1072403D01*
X11133712Y1085710D01*
X11141280Y1098336D01*
X11150048Y1110159D01*
X11159934Y1121066D01*
X11170841Y1130952D01*
X11182664Y1139720D01*
X11195290Y1147288D01*
X11208597Y1153582D01*
X11222457Y1158541D01*
X11236736Y1162118D01*
X11251297Y1164278D01*
X11266000Y1165000D01*
X12916000Y1165000D01*
X12930703Y1164278D01*
X12930703Y1164278D01*
G37*
D14*
X12091000Y865000D03*
D12*
G36*
X12930703Y2434278D02*
G01*
X12945264Y2432118D01*
X12959543Y2428541D01*
X12973403Y2423582D01*
X12986710Y2417288D01*
X12999336Y2409720D01*
X13011159Y2400952D01*
X13022066Y2391066D01*
X13031952Y2380159D01*
X13040720Y2368336D01*
X13048288Y2355710D01*
X13054582Y2342403D01*
X13059541Y2328543D01*
X13063118Y2314264D01*
X13065278Y2299703D01*
X13066000Y2285000D01*
X13066000Y1985000D01*
X13065278Y1970297D01*
X13063118Y1955736D01*
X13059541Y1941457D01*
X13054582Y1927597D01*
X13048288Y1914290D01*
X13040720Y1901664D01*
X13031952Y1889841D01*
X13022066Y1878934D01*
X13011159Y1869048D01*
X12999336Y1860280D01*
X12986710Y1852712D01*
X12973403Y1846418D01*
X12959543Y1841459D01*
X12945264Y1837882D01*
X12930703Y1835722D01*
X12916000Y1835000D01*
X11266000Y1835000D01*
X11251297Y1835722D01*
X11236736Y1837882D01*
X11222457Y1841459D01*
X11208597Y1846418D01*
X11195290Y1852712D01*
X11182664Y1860280D01*
X11170841Y1869048D01*
X11159934Y1878934D01*
X11150048Y1889841D01*
X11141280Y1901664D01*
X11133712Y1914290D01*
X11127418Y1927597D01*
X11122459Y1941457D01*
X11118882Y1955736D01*
X11116722Y1970297D01*
X11116000Y1985000D01*
X11116000Y2285000D01*
X11116722Y2299703D01*
X11118882Y2314264D01*
X11122459Y2328543D01*
X11127418Y2342403D01*
X11133712Y2355710D01*
X11141280Y2368336D01*
X11150048Y2380159D01*
X11159934Y2391066D01*
X11170841Y2400952D01*
X11182664Y2409720D01*
X11195290Y2417288D01*
X11208597Y2423582D01*
X11222457Y2428541D01*
X11236736Y2432118D01*
X11251297Y2434278D01*
X11266000Y2435000D01*
X12916000Y2435000D01*
X12930703Y2434278D01*
X12930703Y2434278D01*
G37*
D14*
X12091000Y2135000D03*
D12*
G36*
X12930703Y3704278D02*
G01*
X12945264Y3702118D01*
X12959543Y3698541D01*
X12973403Y3693582D01*
X12986710Y3687288D01*
X12999336Y3679720D01*
X13011159Y3670952D01*
X13022066Y3661066D01*
X13031952Y3650159D01*
X13040720Y3638336D01*
X13048288Y3625710D01*
X13054582Y3612403D01*
X13059541Y3598543D01*
X13063118Y3584264D01*
X13065278Y3569703D01*
X13066000Y3555000D01*
X13066000Y3255000D01*
X13065278Y3240297D01*
X13063118Y3225736D01*
X13059541Y3211457D01*
X13054582Y3197597D01*
X13048288Y3184290D01*
X13040720Y3171664D01*
X13031952Y3159841D01*
X13022066Y3148934D01*
X13011159Y3139048D01*
X12999336Y3130280D01*
X12986710Y3122712D01*
X12973403Y3116418D01*
X12959543Y3111459D01*
X12945264Y3107882D01*
X12930703Y3105722D01*
X12916000Y3105000D01*
X11266000Y3105000D01*
X11251297Y3105722D01*
X11236736Y3107882D01*
X11222457Y3111459D01*
X11208597Y3116418D01*
X11195290Y3122712D01*
X11182664Y3130280D01*
X11170841Y3139048D01*
X11159934Y3148934D01*
X11150048Y3159841D01*
X11141280Y3171664D01*
X11133712Y3184290D01*
X11127418Y3197597D01*
X11122459Y3211457D01*
X11118882Y3225736D01*
X11116722Y3240297D01*
X11116000Y3255000D01*
X11116000Y3555000D01*
X11116722Y3569703D01*
X11118882Y3584264D01*
X11122459Y3598543D01*
X11127418Y3612403D01*
X11133712Y3625710D01*
X11141280Y3638336D01*
X11150048Y3650159D01*
X11159934Y3661066D01*
X11170841Y3670952D01*
X11182664Y3679720D01*
X11195290Y3687288D01*
X11208597Y3693582D01*
X11222457Y3698541D01*
X11236736Y3702118D01*
X11251297Y3704278D01*
X11266000Y3705000D01*
X12916000Y3705000D01*
X12930703Y3704278D01*
X12930703Y3704278D01*
G37*
D14*
X12091000Y3405000D03*
D12*
G36*
X12930703Y4974278D02*
G01*
X12945264Y4972118D01*
X12959543Y4968541D01*
X12973403Y4963582D01*
X12986710Y4957288D01*
X12999336Y4949720D01*
X13011159Y4940952D01*
X13022066Y4931066D01*
X13031952Y4920159D01*
X13040720Y4908336D01*
X13048288Y4895710D01*
X13054582Y4882403D01*
X13059541Y4868543D01*
X13063118Y4854264D01*
X13065278Y4839703D01*
X13066000Y4825000D01*
X13066000Y4525000D01*
X13065278Y4510297D01*
X13063118Y4495736D01*
X13059541Y4481457D01*
X13054582Y4467597D01*
X13048288Y4454290D01*
X13040720Y4441664D01*
X13031952Y4429841D01*
X13022066Y4418934D01*
X13011159Y4409048D01*
X12999336Y4400280D01*
X12986710Y4392712D01*
X12973403Y4386418D01*
X12959543Y4381459D01*
X12945264Y4377882D01*
X12930703Y4375722D01*
X12916000Y4375000D01*
X11266000Y4375000D01*
X11251297Y4375722D01*
X11236736Y4377882D01*
X11222457Y4381459D01*
X11208597Y4386418D01*
X11195290Y4392712D01*
X11182664Y4400280D01*
X11170841Y4409048D01*
X11159934Y4418934D01*
X11150048Y4429841D01*
X11141280Y4441664D01*
X11133712Y4454290D01*
X11127418Y4467597D01*
X11122459Y4481457D01*
X11118882Y4495736D01*
X11116722Y4510297D01*
X11116000Y4525000D01*
X11116000Y4825000D01*
X11116722Y4839703D01*
X11118882Y4854264D01*
X11122459Y4868543D01*
X11127418Y4882403D01*
X11133712Y4895710D01*
X11141280Y4908336D01*
X11150048Y4920159D01*
X11159934Y4931066D01*
X11170841Y4940952D01*
X11182664Y4949720D01*
X11195290Y4957288D01*
X11208597Y4963582D01*
X11222457Y4968541D01*
X11236736Y4972118D01*
X11251297Y4974278D01*
X11266000Y4975000D01*
X12916000Y4975000D01*
X12930703Y4974278D01*
X12930703Y4974278D01*
G37*
D14*
X12091000Y4675000D03*
D12*
G36*
X7980703Y4974278D02*
G01*
X7995264Y4972118D01*
X8009543Y4968541D01*
X8023403Y4963582D01*
X8036710Y4957288D01*
X8049336Y4949720D01*
X8061159Y4940952D01*
X8072066Y4931066D01*
X8081952Y4920159D01*
X8090720Y4908336D01*
X8098288Y4895710D01*
X8104582Y4882403D01*
X8109541Y4868543D01*
X8113118Y4854264D01*
X8115278Y4839703D01*
X8116000Y4825000D01*
X8116000Y4525000D01*
X8115278Y4510297D01*
X8113118Y4495736D01*
X8109541Y4481457D01*
X8104582Y4467597D01*
X8098288Y4454290D01*
X8090720Y4441664D01*
X8081952Y4429841D01*
X8072066Y4418934D01*
X8061159Y4409048D01*
X8049336Y4400280D01*
X8036710Y4392712D01*
X8023403Y4386418D01*
X8009543Y4381459D01*
X7995264Y4377882D01*
X7980703Y4375722D01*
X7966000Y4375000D01*
X6316000Y4375000D01*
X6301297Y4375722D01*
X6286736Y4377882D01*
X6272457Y4381459D01*
X6258597Y4386418D01*
X6245290Y4392712D01*
X6232664Y4400280D01*
X6220841Y4409048D01*
X6209934Y4418934D01*
X6200048Y4429841D01*
X6191280Y4441664D01*
X6183712Y4454290D01*
X6177418Y4467597D01*
X6172459Y4481457D01*
X6168882Y4495736D01*
X6166722Y4510297D01*
X6166000Y4525000D01*
X6166000Y4825000D01*
X6166722Y4839703D01*
X6168882Y4854264D01*
X6172459Y4868543D01*
X6177418Y4882403D01*
X6183712Y4895710D01*
X6191280Y4908336D01*
X6200048Y4920159D01*
X6209934Y4931066D01*
X6220841Y4940952D01*
X6232664Y4949720D01*
X6245290Y4957288D01*
X6258597Y4963582D01*
X6272457Y4968541D01*
X6286736Y4972118D01*
X6301297Y4974278D01*
X6316000Y4975000D01*
X7966000Y4975000D01*
X7980703Y4974278D01*
X7980703Y4974278D01*
G37*
D14*
X7141000Y4675000D03*
D12*
G36*
X7980703Y3704278D02*
G01*
X7995264Y3702118D01*
X8009543Y3698541D01*
X8023403Y3693582D01*
X8036710Y3687288D01*
X8049336Y3679720D01*
X8061159Y3670952D01*
X8072066Y3661066D01*
X8081952Y3650159D01*
X8090720Y3638336D01*
X8098288Y3625710D01*
X8104582Y3612403D01*
X8109541Y3598543D01*
X8113118Y3584264D01*
X8115278Y3569703D01*
X8116000Y3555000D01*
X8116000Y3255000D01*
X8115278Y3240297D01*
X8113118Y3225736D01*
X8109541Y3211457D01*
X8104582Y3197597D01*
X8098288Y3184290D01*
X8090720Y3171664D01*
X8081952Y3159841D01*
X8072066Y3148934D01*
X8061159Y3139048D01*
X8049336Y3130280D01*
X8036710Y3122712D01*
X8023403Y3116418D01*
X8009543Y3111459D01*
X7995264Y3107882D01*
X7980703Y3105722D01*
X7966000Y3105000D01*
X6316000Y3105000D01*
X6301297Y3105722D01*
X6286736Y3107882D01*
X6272457Y3111459D01*
X6258597Y3116418D01*
X6245290Y3122712D01*
X6232664Y3130280D01*
X6220841Y3139048D01*
X6209934Y3148934D01*
X6200048Y3159841D01*
X6191280Y3171664D01*
X6183712Y3184290D01*
X6177418Y3197597D01*
X6172459Y3211457D01*
X6168882Y3225736D01*
X6166722Y3240297D01*
X6166000Y3255000D01*
X6166000Y3555000D01*
X6166722Y3569703D01*
X6168882Y3584264D01*
X6172459Y3598543D01*
X6177418Y3612403D01*
X6183712Y3625710D01*
X6191280Y3638336D01*
X6200048Y3650159D01*
X6209934Y3661066D01*
X6220841Y3670952D01*
X6232664Y3679720D01*
X6245290Y3687288D01*
X6258597Y3693582D01*
X6272457Y3698541D01*
X6286736Y3702118D01*
X6301297Y3704278D01*
X6316000Y3705000D01*
X7966000Y3705000D01*
X7980703Y3704278D01*
X7980703Y3704278D01*
G37*
D14*
X7141000Y3405000D03*
D12*
G36*
X7980703Y2434278D02*
G01*
X7995264Y2432118D01*
X8009543Y2428541D01*
X8023403Y2423582D01*
X8036710Y2417288D01*
X8049336Y2409720D01*
X8061159Y2400952D01*
X8072066Y2391066D01*
X8081952Y2380159D01*
X8090720Y2368336D01*
X8098288Y2355710D01*
X8104582Y2342403D01*
X8109541Y2328543D01*
X8113118Y2314264D01*
X8115278Y2299703D01*
X8116000Y2285000D01*
X8116000Y1985000D01*
X8115278Y1970297D01*
X8113118Y1955736D01*
X8109541Y1941457D01*
X8104582Y1927597D01*
X8098288Y1914290D01*
X8090720Y1901664D01*
X8081952Y1889841D01*
X8072066Y1878934D01*
X8061159Y1869048D01*
X8049336Y1860280D01*
X8036710Y1852712D01*
X8023403Y1846418D01*
X8009543Y1841459D01*
X7995264Y1837882D01*
X7980703Y1835722D01*
X7966000Y1835000D01*
X6316000Y1835000D01*
X6301297Y1835722D01*
X6286736Y1837882D01*
X6272457Y1841459D01*
X6258597Y1846418D01*
X6245290Y1852712D01*
X6232664Y1860280D01*
X6220841Y1869048D01*
X6209934Y1878934D01*
X6200048Y1889841D01*
X6191280Y1901664D01*
X6183712Y1914290D01*
X6177418Y1927597D01*
X6172459Y1941457D01*
X6168882Y1955736D01*
X6166722Y1970297D01*
X6166000Y1985000D01*
X6166000Y2285000D01*
X6166722Y2299703D01*
X6168882Y2314264D01*
X6172459Y2328543D01*
X6177418Y2342403D01*
X6183712Y2355710D01*
X6191280Y2368336D01*
X6200048Y2380159D01*
X6209934Y2391066D01*
X6220841Y2400952D01*
X6232664Y2409720D01*
X6245290Y2417288D01*
X6258597Y2423582D01*
X6272457Y2428541D01*
X6286736Y2432118D01*
X6301297Y2434278D01*
X6316000Y2435000D01*
X7966000Y2435000D01*
X7980703Y2434278D01*
X7980703Y2434278D01*
G37*
D14*
X7141000Y2135000D03*
D12*
G36*
X7980703Y1164278D02*
G01*
X7995264Y1162118D01*
X8009543Y1158541D01*
X8023403Y1153582D01*
X8036710Y1147288D01*
X8049336Y1139720D01*
X8061159Y1130952D01*
X8072066Y1121066D01*
X8081952Y1110159D01*
X8090720Y1098336D01*
X8098288Y1085710D01*
X8104582Y1072403D01*
X8109541Y1058543D01*
X8113118Y1044264D01*
X8115278Y1029703D01*
X8116000Y1015000D01*
X8116000Y715000D01*
X8115278Y700297D01*
X8113118Y685736D01*
X8109541Y671457D01*
X8104582Y657597D01*
X8098288Y644290D01*
X8090720Y631664D01*
X8081952Y619841D01*
X8072066Y608934D01*
X8061159Y599048D01*
X8049336Y590280D01*
X8036710Y582712D01*
X8023403Y576418D01*
X8009543Y571459D01*
X7995264Y567882D01*
X7980703Y565722D01*
X7966000Y565000D01*
X6316000Y565000D01*
X6301297Y565722D01*
X6286736Y567882D01*
X6272457Y571459D01*
X6258597Y576418D01*
X6245290Y582712D01*
X6232664Y590280D01*
X6220841Y599048D01*
X6209934Y608934D01*
X6200048Y619841D01*
X6191280Y631664D01*
X6183712Y644290D01*
X6177418Y657597D01*
X6172459Y671457D01*
X6168882Y685736D01*
X6166722Y700297D01*
X6166000Y715000D01*
X6166000Y1015000D01*
X6166722Y1029703D01*
X6168882Y1044264D01*
X6172459Y1058543D01*
X6177418Y1072403D01*
X6183712Y1085710D01*
X6191280Y1098336D01*
X6200048Y1110159D01*
X6209934Y1121066D01*
X6220841Y1130952D01*
X6232664Y1139720D01*
X6245290Y1147288D01*
X6258597Y1153582D01*
X6272457Y1158541D01*
X6286736Y1162118D01*
X6301297Y1164278D01*
X6316000Y1165000D01*
X7966000Y1165000D01*
X7980703Y1164278D01*
X7980703Y1164278D01*
G37*
D14*
X7141000Y865000D03*
D12*
G36*
X7980703Y-105722D02*
G01*
X7995264Y-107882D01*
X8009543Y-111459D01*
X8023403Y-116418D01*
X8036710Y-122712D01*
X8049336Y-130280D01*
X8061159Y-139048D01*
X8072066Y-148934D01*
X8081952Y-159841D01*
X8090720Y-171664D01*
X8098288Y-184290D01*
X8104582Y-197597D01*
X8109541Y-211457D01*
X8113118Y-225736D01*
X8115278Y-240297D01*
X8116000Y-255000D01*
X8116000Y-555000D01*
X8115278Y-569703D01*
X8113118Y-584264D01*
X8109541Y-598543D01*
X8104582Y-612403D01*
X8098288Y-625710D01*
X8090720Y-638336D01*
X8081952Y-650159D01*
X8072066Y-661066D01*
X8061159Y-670952D01*
X8049336Y-679720D01*
X8036710Y-687288D01*
X8023403Y-693582D01*
X8009543Y-698541D01*
X7995264Y-702118D01*
X7980703Y-704278D01*
X7966000Y-705000D01*
X6316000Y-705000D01*
X6301297Y-704278D01*
X6286736Y-702118D01*
X6272457Y-698541D01*
X6258597Y-693582D01*
X6245290Y-687288D01*
X6232664Y-679720D01*
X6220841Y-670952D01*
X6209934Y-661066D01*
X6200048Y-650159D01*
X6191280Y-638336D01*
X6183712Y-625710D01*
X6177418Y-612403D01*
X6172459Y-598543D01*
X6168882Y-584264D01*
X6166722Y-569703D01*
X6166000Y-555000D01*
X6166000Y-255000D01*
X6166722Y-240297D01*
X6168882Y-225736D01*
X6172459Y-211457D01*
X6177418Y-197597D01*
X6183712Y-184290D01*
X6191280Y-171664D01*
X6200048Y-159841D01*
X6209934Y-148934D01*
X6220841Y-139048D01*
X6232664Y-130280D01*
X6245290Y-122712D01*
X6258597Y-116418D01*
X6272457Y-111459D01*
X6286736Y-107882D01*
X6301297Y-105722D01*
X6316000Y-105000D01*
X7966000Y-105000D01*
X7980703Y-105722D01*
X7980703Y-105722D01*
G37*
D14*
X7141000Y-405000D03*
D12*
G36*
X7980703Y-1375722D02*
G01*
X7995264Y-1377882D01*
X8009543Y-1381459D01*
X8023403Y-1386418D01*
X8036710Y-1392712D01*
X8049336Y-1400280D01*
X8061159Y-1409048D01*
X8072066Y-1418934D01*
X8081952Y-1429841D01*
X8090720Y-1441664D01*
X8098288Y-1454290D01*
X8104582Y-1467597D01*
X8109541Y-1481457D01*
X8113118Y-1495736D01*
X8115278Y-1510297D01*
X8116000Y-1525000D01*
X8116000Y-1825000D01*
X8115278Y-1839703D01*
X8113118Y-1854264D01*
X8109541Y-1868543D01*
X8104582Y-1882403D01*
X8098288Y-1895710D01*
X8090720Y-1908336D01*
X8081952Y-1920159D01*
X8072066Y-1931066D01*
X8061159Y-1940952D01*
X8049336Y-1949720D01*
X8036710Y-1957288D01*
X8023403Y-1963582D01*
X8009543Y-1968541D01*
X7995264Y-1972118D01*
X7980703Y-1974278D01*
X7966000Y-1975000D01*
X6316000Y-1975000D01*
X6301297Y-1974278D01*
X6286736Y-1972118D01*
X6272457Y-1968541D01*
X6258597Y-1963582D01*
X6245290Y-1957288D01*
X6232664Y-1949720D01*
X6220841Y-1940952D01*
X6209934Y-1931066D01*
X6200048Y-1920159D01*
X6191280Y-1908336D01*
X6183712Y-1895710D01*
X6177418Y-1882403D01*
X6172459Y-1868543D01*
X6168882Y-1854264D01*
X6166722Y-1839703D01*
X6166000Y-1825000D01*
X6166000Y-1525000D01*
X6166722Y-1510297D01*
X6168882Y-1495736D01*
X6172459Y-1481457D01*
X6177418Y-1467597D01*
X6183712Y-1454290D01*
X6191280Y-1441664D01*
X6200048Y-1429841D01*
X6209934Y-1418934D01*
X6220841Y-1409048D01*
X6232664Y-1400280D01*
X6245290Y-1392712D01*
X6258597Y-1386418D01*
X6272457Y-1381459D01*
X6286736Y-1377882D01*
X6301297Y-1375722D01*
X6316000Y-1375000D01*
X7966000Y-1375000D01*
X7980703Y-1375722D01*
X7980703Y-1375722D01*
G37*
D14*
X7141000Y-1675000D03*
D12*
G36*
X7980703Y-2645722D02*
G01*
X7995264Y-2647882D01*
X8009543Y-2651459D01*
X8023403Y-2656418D01*
X8036710Y-2662712D01*
X8049336Y-2670280D01*
X8061159Y-2679048D01*
X8072066Y-2688934D01*
X8081952Y-2699841D01*
X8090720Y-2711664D01*
X8098288Y-2724290D01*
X8104582Y-2737597D01*
X8109541Y-2751457D01*
X8113118Y-2765736D01*
X8115278Y-2780297D01*
X8116000Y-2795000D01*
X8116000Y-3095000D01*
X8115278Y-3109703D01*
X8113118Y-3124264D01*
X8109541Y-3138543D01*
X8104582Y-3152403D01*
X8098288Y-3165710D01*
X8090720Y-3178336D01*
X8081952Y-3190159D01*
X8072066Y-3201066D01*
X8061159Y-3210952D01*
X8049336Y-3219720D01*
X8036710Y-3227288D01*
X8023403Y-3233582D01*
X8009543Y-3238541D01*
X7995264Y-3242118D01*
X7980703Y-3244278D01*
X7966000Y-3245000D01*
X6316000Y-3245000D01*
X6301297Y-3244278D01*
X6286736Y-3242118D01*
X6272457Y-3238541D01*
X6258597Y-3233582D01*
X6245290Y-3227288D01*
X6232664Y-3219720D01*
X6220841Y-3210952D01*
X6209934Y-3201066D01*
X6200048Y-3190159D01*
X6191280Y-3178336D01*
X6183712Y-3165710D01*
X6177418Y-3152403D01*
X6172459Y-3138543D01*
X6168882Y-3124264D01*
X6166722Y-3109703D01*
X6166000Y-3095000D01*
X6166000Y-2795000D01*
X6166722Y-2780297D01*
X6168882Y-2765736D01*
X6172459Y-2751457D01*
X6177418Y-2737597D01*
X6183712Y-2724290D01*
X6191280Y-2711664D01*
X6200048Y-2699841D01*
X6209934Y-2688934D01*
X6220841Y-2679048D01*
X6232664Y-2670280D01*
X6245290Y-2662712D01*
X6258597Y-2656418D01*
X6272457Y-2651459D01*
X6286736Y-2647882D01*
X6301297Y-2645722D01*
X6316000Y-2645000D01*
X7966000Y-2645000D01*
X7980703Y-2645722D01*
X7980703Y-2645722D01*
G37*
D14*
X7141000Y-2945000D03*
D12*
G36*
X7980703Y-3915722D02*
G01*
X7995264Y-3917882D01*
X8009543Y-3921459D01*
X8023403Y-3926418D01*
X8036710Y-3932712D01*
X8049336Y-3940280D01*
X8061159Y-3949048D01*
X8072066Y-3958934D01*
X8081952Y-3969841D01*
X8090720Y-3981664D01*
X8098288Y-3994290D01*
X8104582Y-4007597D01*
X8109541Y-4021457D01*
X8113118Y-4035736D01*
X8115278Y-4050297D01*
X8116000Y-4065000D01*
X8116000Y-4365000D01*
X8115278Y-4379703D01*
X8113118Y-4394264D01*
X8109541Y-4408543D01*
X8104582Y-4422403D01*
X8098288Y-4435710D01*
X8090720Y-4448336D01*
X8081952Y-4460159D01*
X8072066Y-4471066D01*
X8061159Y-4480952D01*
X8049336Y-4489720D01*
X8036710Y-4497288D01*
X8023403Y-4503582D01*
X8009543Y-4508541D01*
X7995264Y-4512118D01*
X7980703Y-4514278D01*
X7966000Y-4515000D01*
X6316000Y-4515000D01*
X6301297Y-4514278D01*
X6286736Y-4512118D01*
X6272457Y-4508541D01*
X6258597Y-4503582D01*
X6245290Y-4497288D01*
X6232664Y-4489720D01*
X6220841Y-4480952D01*
X6209934Y-4471066D01*
X6200048Y-4460159D01*
X6191280Y-4448336D01*
X6183712Y-4435710D01*
X6177418Y-4422403D01*
X6172459Y-4408543D01*
X6168882Y-4394264D01*
X6166722Y-4379703D01*
X6166000Y-4365000D01*
X6166000Y-4065000D01*
X6166722Y-4050297D01*
X6168882Y-4035736D01*
X6172459Y-4021457D01*
X6177418Y-4007597D01*
X6183712Y-3994290D01*
X6191280Y-3981664D01*
X6200048Y-3969841D01*
X6209934Y-3958934D01*
X6220841Y-3949048D01*
X6232664Y-3940280D01*
X6245290Y-3932712D01*
X6258597Y-3926418D01*
X6272457Y-3921459D01*
X6286736Y-3917882D01*
X6301297Y-3915722D01*
X6316000Y-3915000D01*
X7966000Y-3915000D01*
X7980703Y-3915722D01*
X7980703Y-3915722D01*
G37*
D14*
X7141000Y-4215000D03*
D15*
X14216000Y22030000D03*
X14216000Y14030000D03*
D12*
G36*
X14526779Y10503856D02*
G01*
X14549834Y10500437D01*
X14572443Y10494773D01*
X14594387Y10486921D01*
X14615457Y10476956D01*
X14635448Y10464974D01*
X14654168Y10451090D01*
X14671438Y10435438D01*
X14687090Y10418168D01*
X14700974Y10399448D01*
X14712956Y10379457D01*
X14722921Y10358387D01*
X14730773Y10336443D01*
X14736437Y10313834D01*
X14739856Y10290779D01*
X14741000Y10267500D01*
X14741000Y9792500D01*
X14739856Y9769221D01*
X14736437Y9746166D01*
X14730773Y9723557D01*
X14722921Y9701613D01*
X14712956Y9680543D01*
X14700974Y9660552D01*
X14687090Y9641832D01*
X14671438Y9624562D01*
X14654168Y9608910D01*
X14635448Y9595026D01*
X14615457Y9583044D01*
X14594387Y9573079D01*
X14572443Y9565227D01*
X14549834Y9559563D01*
X14526779Y9556144D01*
X14503500Y9555000D01*
X13928500Y9555000D01*
X13905221Y9556144D01*
X13882166Y9559563D01*
X13859557Y9565227D01*
X13837613Y9573079D01*
X13816543Y9583044D01*
X13796552Y9595026D01*
X13777832Y9608910D01*
X13760562Y9624562D01*
X13744910Y9641832D01*
X13731026Y9660552D01*
X13719044Y9680543D01*
X13709079Y9701613D01*
X13701227Y9723557D01*
X13695563Y9746166D01*
X13692144Y9769221D01*
X13691000Y9792500D01*
X13691000Y10267500D01*
X13692144Y10290779D01*
X13695563Y10313834D01*
X13701227Y10336443D01*
X13709079Y10358387D01*
X13719044Y10379457D01*
X13731026Y10399448D01*
X13744910Y10418168D01*
X13760562Y10435438D01*
X13777832Y10451090D01*
X13796552Y10464974D01*
X13816543Y10476956D01*
X13837613Y10486921D01*
X13859557Y10494773D01*
X13882166Y10500437D01*
X13905221Y10503856D01*
X13928500Y10505000D01*
X14503500Y10505000D01*
X14526779Y10503856D01*
X14526779Y10503856D01*
G37*
D13*
X14216000Y10030000D03*
D12*
G36*
X12776779Y10503856D02*
G01*
X12799834Y10500437D01*
X12822443Y10494773D01*
X12844387Y10486921D01*
X12865457Y10476956D01*
X12885448Y10464974D01*
X12904168Y10451090D01*
X12921438Y10435438D01*
X12937090Y10418168D01*
X12950974Y10399448D01*
X12962956Y10379457D01*
X12972921Y10358387D01*
X12980773Y10336443D01*
X12986437Y10313834D01*
X12989856Y10290779D01*
X12991000Y10267500D01*
X12991000Y9792500D01*
X12989856Y9769221D01*
X12986437Y9746166D01*
X12980773Y9723557D01*
X12972921Y9701613D01*
X12962956Y9680543D01*
X12950974Y9660552D01*
X12937090Y9641832D01*
X12921438Y9624562D01*
X12904168Y9608910D01*
X12885448Y9595026D01*
X12865457Y9583044D01*
X12844387Y9573079D01*
X12822443Y9565227D01*
X12799834Y9559563D01*
X12776779Y9556144D01*
X12753500Y9555000D01*
X12178500Y9555000D01*
X12155221Y9556144D01*
X12132166Y9559563D01*
X12109557Y9565227D01*
X12087613Y9573079D01*
X12066543Y9583044D01*
X12046552Y9595026D01*
X12027832Y9608910D01*
X12010562Y9624562D01*
X11994910Y9641832D01*
X11981026Y9660552D01*
X11969044Y9680543D01*
X11959079Y9701613D01*
X11951227Y9723557D01*
X11945563Y9746166D01*
X11942144Y9769221D01*
X11941000Y9792500D01*
X11941000Y10267500D01*
X11942144Y10290779D01*
X11945563Y10313834D01*
X11951227Y10336443D01*
X11959079Y10358387D01*
X11969044Y10379457D01*
X11981026Y10399448D01*
X11994910Y10418168D01*
X12010562Y10435438D01*
X12027832Y10451090D01*
X12046552Y10464974D01*
X12066543Y10476956D01*
X12087613Y10486921D01*
X12109557Y10494773D01*
X12132166Y10500437D01*
X12155221Y10503856D01*
X12178500Y10505000D01*
X12753500Y10505000D01*
X12776779Y10503856D01*
X12776779Y10503856D01*
G37*
D13*
X12466000Y10030000D03*
D12*
G36*
X-2139221Y-7576144D02*
G01*
X-2116166Y-7579563D01*
X-2093557Y-7585227D01*
X-2071613Y-7593079D01*
X-2050543Y-7603044D01*
X-2030552Y-7615026D01*
X-2011832Y-7628910D01*
X-1994562Y-7644562D01*
X-1978910Y-7661832D01*
X-1965026Y-7680552D01*
X-1953044Y-7700543D01*
X-1943079Y-7721613D01*
X-1935227Y-7743557D01*
X-1929563Y-7766166D01*
X-1926144Y-7789221D01*
X-1925000Y-7812500D01*
X-1925000Y-8287500D01*
X-1926144Y-8310779D01*
X-1929563Y-8333834D01*
X-1935227Y-8356443D01*
X-1943079Y-8378387D01*
X-1953044Y-8399457D01*
X-1965026Y-8419448D01*
X-1978910Y-8438168D01*
X-1994562Y-8455438D01*
X-2011832Y-8471090D01*
X-2030552Y-8484974D01*
X-2050543Y-8496956D01*
X-2071613Y-8506921D01*
X-2093557Y-8514773D01*
X-2116166Y-8520437D01*
X-2139221Y-8523856D01*
X-2162500Y-8525000D01*
X-2737500Y-8525000D01*
X-2760779Y-8523856D01*
X-2783834Y-8520437D01*
X-2806443Y-8514773D01*
X-2828387Y-8506921D01*
X-2849457Y-8496956D01*
X-2869448Y-8484974D01*
X-2888168Y-8471090D01*
X-2905438Y-8455438D01*
X-2921090Y-8438168D01*
X-2934974Y-8419448D01*
X-2946956Y-8399457D01*
X-2956921Y-8378387D01*
X-2964773Y-8356443D01*
X-2970437Y-8333834D01*
X-2973856Y-8310779D01*
X-2975000Y-8287500D01*
X-2975000Y-7812500D01*
X-2973856Y-7789221D01*
X-2970437Y-7766166D01*
X-2964773Y-7743557D01*
X-2956921Y-7721613D01*
X-2946956Y-7700543D01*
X-2934974Y-7680552D01*
X-2921090Y-7661832D01*
X-2905438Y-7644562D01*
X-2888168Y-7628910D01*
X-2869448Y-7615026D01*
X-2849457Y-7603044D01*
X-2828387Y-7593079D01*
X-2806443Y-7585227D01*
X-2783834Y-7579563D01*
X-2760779Y-7576144D01*
X-2737500Y-7575000D01*
X-2162500Y-7575000D01*
X-2139221Y-7576144D01*
X-2139221Y-7576144D01*
G37*
D13*
X-2450000Y-8050000D03*
D12*
G36*
X-3889221Y-7576144D02*
G01*
X-3866166Y-7579563D01*
X-3843557Y-7585227D01*
X-3821613Y-7593079D01*
X-3800543Y-7603044D01*
X-3780552Y-7615026D01*
X-3761832Y-7628910D01*
X-3744562Y-7644562D01*
X-3728910Y-7661832D01*
X-3715026Y-7680552D01*
X-3703044Y-7700543D01*
X-3693079Y-7721613D01*
X-3685227Y-7743557D01*
X-3679563Y-7766166D01*
X-3676144Y-7789221D01*
X-3675000Y-7812500D01*
X-3675000Y-8287500D01*
X-3676144Y-8310779D01*
X-3679563Y-8333834D01*
X-3685227Y-8356443D01*
X-3693079Y-8378387D01*
X-3703044Y-8399457D01*
X-3715026Y-8419448D01*
X-3728910Y-8438168D01*
X-3744562Y-8455438D01*
X-3761832Y-8471090D01*
X-3780552Y-8484974D01*
X-3800543Y-8496956D01*
X-3821613Y-8506921D01*
X-3843557Y-8514773D01*
X-3866166Y-8520437D01*
X-3889221Y-8523856D01*
X-3912500Y-8525000D01*
X-4487500Y-8525000D01*
X-4510779Y-8523856D01*
X-4533834Y-8520437D01*
X-4556443Y-8514773D01*
X-4578387Y-8506921D01*
X-4599457Y-8496956D01*
X-4619448Y-8484974D01*
X-4638168Y-8471090D01*
X-4655438Y-8455438D01*
X-4671090Y-8438168D01*
X-4684974Y-8419448D01*
X-4696956Y-8399457D01*
X-4706921Y-8378387D01*
X-4714773Y-8356443D01*
X-4720437Y-8333834D01*
X-4723856Y-8310779D01*
X-4725000Y-8287500D01*
X-4725000Y-7812500D01*
X-4723856Y-7789221D01*
X-4720437Y-7766166D01*
X-4714773Y-7743557D01*
X-4706921Y-7721613D01*
X-4696956Y-7700543D01*
X-4684974Y-7680552D01*
X-4671090Y-7661832D01*
X-4655438Y-7644562D01*
X-4638168Y-7628910D01*
X-4619448Y-7615026D01*
X-4599457Y-7603044D01*
X-4578387Y-7593079D01*
X-4556443Y-7585227D01*
X-4533834Y-7579563D01*
X-4510779Y-7576144D01*
X-4487500Y-7575000D01*
X-3912500Y-7575000D01*
X-3889221Y-7576144D01*
X-3889221Y-7576144D01*
G37*
D13*
X-4200000Y-8050000D03*
D12*
G36*
X-7423221Y2603856D02*
G01*
X-7400166Y2600437D01*
X-7377557Y2594773D01*
X-7355613Y2586921D01*
X-7334543Y2576956D01*
X-7314552Y2564974D01*
X-7295832Y2551090D01*
X-7278562Y2535438D01*
X-7262910Y2518168D01*
X-7249026Y2499448D01*
X-7237044Y2479457D01*
X-7227079Y2458387D01*
X-7219227Y2436443D01*
X-7213563Y2413834D01*
X-7210144Y2390779D01*
X-7209000Y2367500D01*
X-7209000Y1892500D01*
X-7210144Y1869221D01*
X-7213563Y1846166D01*
X-7219227Y1823557D01*
X-7227079Y1801613D01*
X-7237044Y1780543D01*
X-7249026Y1760552D01*
X-7262910Y1741832D01*
X-7278562Y1724562D01*
X-7295832Y1708910D01*
X-7314552Y1695026D01*
X-7334543Y1683044D01*
X-7355613Y1673079D01*
X-7377557Y1665227D01*
X-7400166Y1659563D01*
X-7423221Y1656144D01*
X-7446500Y1655000D01*
X-8021500Y1655000D01*
X-8044779Y1656144D01*
X-8067834Y1659563D01*
X-8090443Y1665227D01*
X-8112387Y1673079D01*
X-8133457Y1683044D01*
X-8153448Y1695026D01*
X-8172168Y1708910D01*
X-8189438Y1724562D01*
X-8205090Y1741832D01*
X-8218974Y1760552D01*
X-8230956Y1780543D01*
X-8240921Y1801613D01*
X-8248773Y1823557D01*
X-8254437Y1846166D01*
X-8257856Y1869221D01*
X-8259000Y1892500D01*
X-8259000Y2367500D01*
X-8257856Y2390779D01*
X-8254437Y2413834D01*
X-8248773Y2436443D01*
X-8240921Y2458387D01*
X-8230956Y2479457D01*
X-8218974Y2499448D01*
X-8205090Y2518168D01*
X-8189438Y2535438D01*
X-8172168Y2551090D01*
X-8153448Y2564974D01*
X-8133457Y2576956D01*
X-8112387Y2586921D01*
X-8090443Y2594773D01*
X-8067834Y2600437D01*
X-8044779Y2603856D01*
X-8021500Y2605000D01*
X-7446500Y2605000D01*
X-7423221Y2603856D01*
X-7423221Y2603856D01*
G37*
D13*
X-7734000Y2130000D03*
D12*
G36*
X-9173221Y2603856D02*
G01*
X-9150166Y2600437D01*
X-9127557Y2594773D01*
X-9105613Y2586921D01*
X-9084543Y2576956D01*
X-9064552Y2564974D01*
X-9045832Y2551090D01*
X-9028562Y2535438D01*
X-9012910Y2518168D01*
X-8999026Y2499448D01*
X-8987044Y2479457D01*
X-8977079Y2458387D01*
X-8969227Y2436443D01*
X-8963563Y2413834D01*
X-8960144Y2390779D01*
X-8959000Y2367500D01*
X-8959000Y1892500D01*
X-8960144Y1869221D01*
X-8963563Y1846166D01*
X-8969227Y1823557D01*
X-8977079Y1801613D01*
X-8987044Y1780543D01*
X-8999026Y1760552D01*
X-9012910Y1741832D01*
X-9028562Y1724562D01*
X-9045832Y1708910D01*
X-9064552Y1695026D01*
X-9084543Y1683044D01*
X-9105613Y1673079D01*
X-9127557Y1665227D01*
X-9150166Y1659563D01*
X-9173221Y1656144D01*
X-9196500Y1655000D01*
X-9771500Y1655000D01*
X-9794779Y1656144D01*
X-9817834Y1659563D01*
X-9840443Y1665227D01*
X-9862387Y1673079D01*
X-9883457Y1683044D01*
X-9903448Y1695026D01*
X-9922168Y1708910D01*
X-9939438Y1724562D01*
X-9955090Y1741832D01*
X-9968974Y1760552D01*
X-9980956Y1780543D01*
X-9990921Y1801613D01*
X-9998773Y1823557D01*
X-10004437Y1846166D01*
X-10007856Y1869221D01*
X-10009000Y1892500D01*
X-10009000Y2367500D01*
X-10007856Y2390779D01*
X-10004437Y2413834D01*
X-9998773Y2436443D01*
X-9990921Y2458387D01*
X-9980956Y2479457D01*
X-9968974Y2499448D01*
X-9955090Y2518168D01*
X-9939438Y2535438D01*
X-9922168Y2551090D01*
X-9903448Y2564974D01*
X-9883457Y2576956D01*
X-9862387Y2586921D01*
X-9840443Y2594773D01*
X-9817834Y2600437D01*
X-9794779Y2603856D01*
X-9771500Y2605000D01*
X-9196500Y2605000D01*
X-9173221Y2603856D01*
X-9173221Y2603856D01*
G37*
D13*
X-9484000Y2130000D03*
D12*
G36*
X-19523221Y-6196144D02*
G01*
X-19500166Y-6199563D01*
X-19477557Y-6205227D01*
X-19455613Y-6213079D01*
X-19434543Y-6223044D01*
X-19414552Y-6235026D01*
X-19395832Y-6248910D01*
X-19378562Y-6264562D01*
X-19362910Y-6281832D01*
X-19349026Y-6300552D01*
X-19337044Y-6320543D01*
X-19327079Y-6341613D01*
X-19319227Y-6363557D01*
X-19313563Y-6386166D01*
X-19310144Y-6409221D01*
X-19309000Y-6432500D01*
X-19309000Y-7007500D01*
X-19310144Y-7030779D01*
X-19313563Y-7053834D01*
X-19319227Y-7076443D01*
X-19327079Y-7098387D01*
X-19337044Y-7119457D01*
X-19349026Y-7139448D01*
X-19362910Y-7158168D01*
X-19378562Y-7175438D01*
X-19395832Y-7191090D01*
X-19414552Y-7204974D01*
X-19434543Y-7216956D01*
X-19455613Y-7226921D01*
X-19477557Y-7234773D01*
X-19500166Y-7240437D01*
X-19523221Y-7243856D01*
X-19546500Y-7245000D01*
X-20021500Y-7245000D01*
X-20044779Y-7243856D01*
X-20067834Y-7240437D01*
X-20090443Y-7234773D01*
X-20112387Y-7226921D01*
X-20133457Y-7216956D01*
X-20153448Y-7204974D01*
X-20172168Y-7191090D01*
X-20189438Y-7175438D01*
X-20205090Y-7158168D01*
X-20218974Y-7139448D01*
X-20230956Y-7119457D01*
X-20240921Y-7098387D01*
X-20248773Y-7076443D01*
X-20254437Y-7053834D01*
X-20257856Y-7030779D01*
X-20259000Y-7007500D01*
X-20259000Y-6432500D01*
X-20257856Y-6409221D01*
X-20254437Y-6386166D01*
X-20248773Y-6363557D01*
X-20240921Y-6341613D01*
X-20230956Y-6320543D01*
X-20218974Y-6300552D01*
X-20205090Y-6281832D01*
X-20189438Y-6264562D01*
X-20172168Y-6248910D01*
X-20153448Y-6235026D01*
X-20133457Y-6223044D01*
X-20112387Y-6213079D01*
X-20090443Y-6205227D01*
X-20067834Y-6199563D01*
X-20044779Y-6196144D01*
X-20021500Y-6195000D01*
X-19546500Y-6195000D01*
X-19523221Y-6196144D01*
X-19523221Y-6196144D01*
G37*
D13*
X-19784000Y-6720000D03*
D12*
G36*
X-19523221Y-4446144D02*
G01*
X-19500166Y-4449563D01*
X-19477557Y-4455227D01*
X-19455613Y-4463079D01*
X-19434543Y-4473044D01*
X-19414552Y-4485026D01*
X-19395832Y-4498910D01*
X-19378562Y-4514562D01*
X-19362910Y-4531832D01*
X-19349026Y-4550552D01*
X-19337044Y-4570543D01*
X-19327079Y-4591613D01*
X-19319227Y-4613557D01*
X-19313563Y-4636166D01*
X-19310144Y-4659221D01*
X-19309000Y-4682500D01*
X-19309000Y-5257500D01*
X-19310144Y-5280779D01*
X-19313563Y-5303834D01*
X-19319227Y-5326443D01*
X-19327079Y-5348387D01*
X-19337044Y-5369457D01*
X-19349026Y-5389448D01*
X-19362910Y-5408168D01*
X-19378562Y-5425438D01*
X-19395832Y-5441090D01*
X-19414552Y-5454974D01*
X-19434543Y-5466956D01*
X-19455613Y-5476921D01*
X-19477557Y-5484773D01*
X-19500166Y-5490437D01*
X-19523221Y-5493856D01*
X-19546500Y-5495000D01*
X-20021500Y-5495000D01*
X-20044779Y-5493856D01*
X-20067834Y-5490437D01*
X-20090443Y-5484773D01*
X-20112387Y-5476921D01*
X-20133457Y-5466956D01*
X-20153448Y-5454974D01*
X-20172168Y-5441090D01*
X-20189438Y-5425438D01*
X-20205090Y-5408168D01*
X-20218974Y-5389448D01*
X-20230956Y-5369457D01*
X-20240921Y-5348387D01*
X-20248773Y-5326443D01*
X-20254437Y-5303834D01*
X-20257856Y-5280779D01*
X-20259000Y-5257500D01*
X-20259000Y-4682500D01*
X-20257856Y-4659221D01*
X-20254437Y-4636166D01*
X-20248773Y-4613557D01*
X-20240921Y-4591613D01*
X-20230956Y-4570543D01*
X-20218974Y-4550552D01*
X-20205090Y-4531832D01*
X-20189438Y-4514562D01*
X-20172168Y-4498910D01*
X-20153448Y-4485026D01*
X-20133457Y-4473044D01*
X-20112387Y-4463079D01*
X-20090443Y-4455227D01*
X-20067834Y-4449563D01*
X-20044779Y-4446144D01*
X-20021500Y-4445000D01*
X-19546500Y-4445000D01*
X-19523221Y-4446144D01*
X-19523221Y-4446144D01*
G37*
D13*
X-19784000Y-4970000D03*
D12*
G36*
X-12323221Y5603856D02*
G01*
X-12300166Y5600437D01*
X-12277557Y5594773D01*
X-12255613Y5586921D01*
X-12234543Y5576956D01*
X-12214552Y5564974D01*
X-12195832Y5551090D01*
X-12178562Y5535438D01*
X-12162910Y5518168D01*
X-12149026Y5499448D01*
X-12137044Y5479457D01*
X-12127079Y5458387D01*
X-12119227Y5436443D01*
X-12113563Y5413834D01*
X-12110144Y5390779D01*
X-12109000Y5367500D01*
X-12109000Y4792500D01*
X-12110144Y4769221D01*
X-12113563Y4746166D01*
X-12119227Y4723557D01*
X-12127079Y4701613D01*
X-12137044Y4680543D01*
X-12149026Y4660552D01*
X-12162910Y4641832D01*
X-12178562Y4624562D01*
X-12195832Y4608910D01*
X-12214552Y4595026D01*
X-12234543Y4583044D01*
X-12255613Y4573079D01*
X-12277557Y4565227D01*
X-12300166Y4559563D01*
X-12323221Y4556144D01*
X-12346500Y4555000D01*
X-12821500Y4555000D01*
X-12844779Y4556144D01*
X-12867834Y4559563D01*
X-12890443Y4565227D01*
X-12912387Y4573079D01*
X-12933457Y4583044D01*
X-12953448Y4595026D01*
X-12972168Y4608910D01*
X-12989438Y4624562D01*
X-13005090Y4641832D01*
X-13018974Y4660552D01*
X-13030956Y4680543D01*
X-13040921Y4701613D01*
X-13048773Y4723557D01*
X-13054437Y4746166D01*
X-13057856Y4769221D01*
X-13059000Y4792500D01*
X-13059000Y5367500D01*
X-13057856Y5390779D01*
X-13054437Y5413834D01*
X-13048773Y5436443D01*
X-13040921Y5458387D01*
X-13030956Y5479457D01*
X-13018974Y5499448D01*
X-13005090Y5518168D01*
X-12989438Y5535438D01*
X-12972168Y5551090D01*
X-12953448Y5564974D01*
X-12933457Y5576956D01*
X-12912387Y5586921D01*
X-12890443Y5594773D01*
X-12867834Y5600437D01*
X-12844779Y5603856D01*
X-12821500Y5605000D01*
X-12346500Y5605000D01*
X-12323221Y5603856D01*
X-12323221Y5603856D01*
G37*
D13*
X-12584000Y5080000D03*
D12*
G36*
X-12323221Y7353856D02*
G01*
X-12300166Y7350437D01*
X-12277557Y7344773D01*
X-12255613Y7336921D01*
X-12234543Y7326956D01*
X-12214552Y7314974D01*
X-12195832Y7301090D01*
X-12178562Y7285438D01*
X-12162910Y7268168D01*
X-12149026Y7249448D01*
X-12137044Y7229457D01*
X-12127079Y7208387D01*
X-12119227Y7186443D01*
X-12113563Y7163834D01*
X-12110144Y7140779D01*
X-12109000Y7117500D01*
X-12109000Y6542500D01*
X-12110144Y6519221D01*
X-12113563Y6496166D01*
X-12119227Y6473557D01*
X-12127079Y6451613D01*
X-12137044Y6430543D01*
X-12149026Y6410552D01*
X-12162910Y6391832D01*
X-12178562Y6374562D01*
X-12195832Y6358910D01*
X-12214552Y6345026D01*
X-12234543Y6333044D01*
X-12255613Y6323079D01*
X-12277557Y6315227D01*
X-12300166Y6309563D01*
X-12323221Y6306144D01*
X-12346500Y6305000D01*
X-12821500Y6305000D01*
X-12844779Y6306144D01*
X-12867834Y6309563D01*
X-12890443Y6315227D01*
X-12912387Y6323079D01*
X-12933457Y6333044D01*
X-12953448Y6345026D01*
X-12972168Y6358910D01*
X-12989438Y6374562D01*
X-13005090Y6391832D01*
X-13018974Y6410552D01*
X-13030956Y6430543D01*
X-13040921Y6451613D01*
X-13048773Y6473557D01*
X-13054437Y6496166D01*
X-13057856Y6519221D01*
X-13059000Y6542500D01*
X-13059000Y7117500D01*
X-13057856Y7140779D01*
X-13054437Y7163834D01*
X-13048773Y7186443D01*
X-13040921Y7208387D01*
X-13030956Y7229457D01*
X-13018974Y7249448D01*
X-13005090Y7268168D01*
X-12989438Y7285438D01*
X-12972168Y7301090D01*
X-12953448Y7314974D01*
X-12933457Y7326956D01*
X-12912387Y7336921D01*
X-12890443Y7344773D01*
X-12867834Y7350437D01*
X-12844779Y7353856D01*
X-12821500Y7355000D01*
X-12346500Y7355000D01*
X-12323221Y7353856D01*
X-12323221Y7353856D01*
G37*
D13*
X-12584000Y6830000D03*
D12*
G36*
X-5073221Y-9346144D02*
G01*
X-5050166Y-9349563D01*
X-5027557Y-9355227D01*
X-5005613Y-9363079D01*
X-4984543Y-9373044D01*
X-4964552Y-9385026D01*
X-4945832Y-9398910D01*
X-4928562Y-9414562D01*
X-4912910Y-9431832D01*
X-4899026Y-9450552D01*
X-4887044Y-9470543D01*
X-4877079Y-9491613D01*
X-4869227Y-9513557D01*
X-4863563Y-9536166D01*
X-4860144Y-9559221D01*
X-4859000Y-9582500D01*
X-4859000Y-10057500D01*
X-4860144Y-10080779D01*
X-4863563Y-10103834D01*
X-4869227Y-10126443D01*
X-4877079Y-10148387D01*
X-4887044Y-10169457D01*
X-4899026Y-10189448D01*
X-4912910Y-10208168D01*
X-4928562Y-10225438D01*
X-4945832Y-10241090D01*
X-4964552Y-10254974D01*
X-4984543Y-10266956D01*
X-5005613Y-10276921D01*
X-5027557Y-10284773D01*
X-5050166Y-10290437D01*
X-5073221Y-10293856D01*
X-5096500Y-10295000D01*
X-5671500Y-10295000D01*
X-5694779Y-10293856D01*
X-5717834Y-10290437D01*
X-5740443Y-10284773D01*
X-5762387Y-10276921D01*
X-5783457Y-10266956D01*
X-5803448Y-10254974D01*
X-5822168Y-10241090D01*
X-5839438Y-10225438D01*
X-5855090Y-10208168D01*
X-5868974Y-10189448D01*
X-5880956Y-10169457D01*
X-5890921Y-10148387D01*
X-5898773Y-10126443D01*
X-5904437Y-10103834D01*
X-5907856Y-10080779D01*
X-5909000Y-10057500D01*
X-5909000Y-9582500D01*
X-5907856Y-9559221D01*
X-5904437Y-9536166D01*
X-5898773Y-9513557D01*
X-5890921Y-9491613D01*
X-5880956Y-9470543D01*
X-5868974Y-9450552D01*
X-5855090Y-9431832D01*
X-5839438Y-9414562D01*
X-5822168Y-9398910D01*
X-5803448Y-9385026D01*
X-5783457Y-9373044D01*
X-5762387Y-9363079D01*
X-5740443Y-9355227D01*
X-5717834Y-9349563D01*
X-5694779Y-9346144D01*
X-5671500Y-9345000D01*
X-5096500Y-9345000D01*
X-5073221Y-9346144D01*
X-5073221Y-9346144D01*
G37*
D13*
X-5384000Y-9820000D03*
D12*
G36*
X-6823221Y-9346144D02*
G01*
X-6800166Y-9349563D01*
X-6777557Y-9355227D01*
X-6755613Y-9363079D01*
X-6734543Y-9373044D01*
X-6714552Y-9385026D01*
X-6695832Y-9398910D01*
X-6678562Y-9414562D01*
X-6662910Y-9431832D01*
X-6649026Y-9450552D01*
X-6637044Y-9470543D01*
X-6627079Y-9491613D01*
X-6619227Y-9513557D01*
X-6613563Y-9536166D01*
X-6610144Y-9559221D01*
X-6609000Y-9582500D01*
X-6609000Y-10057500D01*
X-6610144Y-10080779D01*
X-6613563Y-10103834D01*
X-6619227Y-10126443D01*
X-6627079Y-10148387D01*
X-6637044Y-10169457D01*
X-6649026Y-10189448D01*
X-6662910Y-10208168D01*
X-6678562Y-10225438D01*
X-6695832Y-10241090D01*
X-6714552Y-10254974D01*
X-6734543Y-10266956D01*
X-6755613Y-10276921D01*
X-6777557Y-10284773D01*
X-6800166Y-10290437D01*
X-6823221Y-10293856D01*
X-6846500Y-10295000D01*
X-7421500Y-10295000D01*
X-7444779Y-10293856D01*
X-7467834Y-10290437D01*
X-7490443Y-10284773D01*
X-7512387Y-10276921D01*
X-7533457Y-10266956D01*
X-7553448Y-10254974D01*
X-7572168Y-10241090D01*
X-7589438Y-10225438D01*
X-7605090Y-10208168D01*
X-7618974Y-10189448D01*
X-7630956Y-10169457D01*
X-7640921Y-10148387D01*
X-7648773Y-10126443D01*
X-7654437Y-10103834D01*
X-7657856Y-10080779D01*
X-7659000Y-10057500D01*
X-7659000Y-9582500D01*
X-7657856Y-9559221D01*
X-7654437Y-9536166D01*
X-7648773Y-9513557D01*
X-7640921Y-9491613D01*
X-7630956Y-9470543D01*
X-7618974Y-9450552D01*
X-7605090Y-9431832D01*
X-7589438Y-9414562D01*
X-7572168Y-9398910D01*
X-7553448Y-9385026D01*
X-7533457Y-9373044D01*
X-7512387Y-9363079D01*
X-7490443Y-9355227D01*
X-7467834Y-9349563D01*
X-7444779Y-9346144D01*
X-7421500Y-9345000D01*
X-6846500Y-9345000D01*
X-6823221Y-9346144D01*
X-6823221Y-9346144D01*
G37*
D13*
X-7134000Y-9820000D03*
D12*
G36*
X-8273221Y-10946144D02*
G01*
X-8250166Y-10949563D01*
X-8227557Y-10955227D01*
X-8205613Y-10963079D01*
X-8184543Y-10973044D01*
X-8164552Y-10985026D01*
X-8145832Y-10998910D01*
X-8128562Y-11014562D01*
X-8112910Y-11031832D01*
X-8099026Y-11050552D01*
X-8087044Y-11070543D01*
X-8077079Y-11091613D01*
X-8069227Y-11113557D01*
X-8063563Y-11136166D01*
X-8060144Y-11159221D01*
X-8059000Y-11182500D01*
X-8059000Y-11657500D01*
X-8060144Y-11680779D01*
X-8063563Y-11703834D01*
X-8069227Y-11726443D01*
X-8077079Y-11748387D01*
X-8087044Y-11769457D01*
X-8099026Y-11789448D01*
X-8112910Y-11808168D01*
X-8128562Y-11825438D01*
X-8145832Y-11841090D01*
X-8164552Y-11854974D01*
X-8184543Y-11866956D01*
X-8205613Y-11876921D01*
X-8227557Y-11884773D01*
X-8250166Y-11890437D01*
X-8273221Y-11893856D01*
X-8296500Y-11895000D01*
X-8871500Y-11895000D01*
X-8894779Y-11893856D01*
X-8917834Y-11890437D01*
X-8940443Y-11884773D01*
X-8962387Y-11876921D01*
X-8983457Y-11866956D01*
X-9003448Y-11854974D01*
X-9022168Y-11841090D01*
X-9039438Y-11825438D01*
X-9055090Y-11808168D01*
X-9068974Y-11789448D01*
X-9080956Y-11769457D01*
X-9090921Y-11748387D01*
X-9098773Y-11726443D01*
X-9104437Y-11703834D01*
X-9107856Y-11680779D01*
X-9109000Y-11657500D01*
X-9109000Y-11182500D01*
X-9107856Y-11159221D01*
X-9104437Y-11136166D01*
X-9098773Y-11113557D01*
X-9090921Y-11091613D01*
X-9080956Y-11070543D01*
X-9068974Y-11050552D01*
X-9055090Y-11031832D01*
X-9039438Y-11014562D01*
X-9022168Y-10998910D01*
X-9003448Y-10985026D01*
X-8983457Y-10973044D01*
X-8962387Y-10963079D01*
X-8940443Y-10955227D01*
X-8917834Y-10949563D01*
X-8894779Y-10946144D01*
X-8871500Y-10945000D01*
X-8296500Y-10945000D01*
X-8273221Y-10946144D01*
X-8273221Y-10946144D01*
G37*
D13*
X-8584000Y-11420000D03*
D12*
G36*
X-10023221Y-10946144D02*
G01*
X-10000166Y-10949563D01*
X-9977557Y-10955227D01*
X-9955613Y-10963079D01*
X-9934543Y-10973044D01*
X-9914552Y-10985026D01*
X-9895832Y-10998910D01*
X-9878562Y-11014562D01*
X-9862910Y-11031832D01*
X-9849026Y-11050552D01*
X-9837044Y-11070543D01*
X-9827079Y-11091613D01*
X-9819227Y-11113557D01*
X-9813563Y-11136166D01*
X-9810144Y-11159221D01*
X-9809000Y-11182500D01*
X-9809000Y-11657500D01*
X-9810144Y-11680779D01*
X-9813563Y-11703834D01*
X-9819227Y-11726443D01*
X-9827079Y-11748387D01*
X-9837044Y-11769457D01*
X-9849026Y-11789448D01*
X-9862910Y-11808168D01*
X-9878562Y-11825438D01*
X-9895832Y-11841090D01*
X-9914552Y-11854974D01*
X-9934543Y-11866956D01*
X-9955613Y-11876921D01*
X-9977557Y-11884773D01*
X-10000166Y-11890437D01*
X-10023221Y-11893856D01*
X-10046500Y-11895000D01*
X-10621500Y-11895000D01*
X-10644779Y-11893856D01*
X-10667834Y-11890437D01*
X-10690443Y-11884773D01*
X-10712387Y-11876921D01*
X-10733457Y-11866956D01*
X-10753448Y-11854974D01*
X-10772168Y-11841090D01*
X-10789438Y-11825438D01*
X-10805090Y-11808168D01*
X-10818974Y-11789448D01*
X-10830956Y-11769457D01*
X-10840921Y-11748387D01*
X-10848773Y-11726443D01*
X-10854437Y-11703834D01*
X-10857856Y-11680779D01*
X-10859000Y-11657500D01*
X-10859000Y-11182500D01*
X-10857856Y-11159221D01*
X-10854437Y-11136166D01*
X-10848773Y-11113557D01*
X-10840921Y-11091613D01*
X-10830956Y-11070543D01*
X-10818974Y-11050552D01*
X-10805090Y-11031832D01*
X-10789438Y-11014562D01*
X-10772168Y-10998910D01*
X-10753448Y-10985026D01*
X-10733457Y-10973044D01*
X-10712387Y-10963079D01*
X-10690443Y-10955227D01*
X-10667834Y-10949563D01*
X-10644779Y-10946144D01*
X-10621500Y-10945000D01*
X-10046500Y-10945000D01*
X-10023221Y-10946144D01*
X-10023221Y-10946144D01*
G37*
D13*
X-10334000Y-11420000D03*
D12*
G36*
X3160779Y3823856D02*
G01*
X3183834Y3820437D01*
X3206443Y3814773D01*
X3228387Y3806921D01*
X3249457Y3796956D01*
X3269448Y3784974D01*
X3288168Y3771090D01*
X3305438Y3755438D01*
X3321090Y3738168D01*
X3334974Y3719448D01*
X3346956Y3699457D01*
X3356921Y3678387D01*
X3364773Y3656443D01*
X3370437Y3633834D01*
X3373856Y3610779D01*
X3375000Y3587500D01*
X3375000Y3112500D01*
X3373856Y3089221D01*
X3370437Y3066166D01*
X3364773Y3043557D01*
X3356921Y3021613D01*
X3346956Y3000543D01*
X3334974Y2980552D01*
X3321090Y2961832D01*
X3305438Y2944562D01*
X3288168Y2928910D01*
X3269448Y2915026D01*
X3249457Y2903044D01*
X3228387Y2893079D01*
X3206443Y2885227D01*
X3183834Y2879563D01*
X3160779Y2876144D01*
X3137500Y2875000D01*
X2562500Y2875000D01*
X2539221Y2876144D01*
X2516166Y2879563D01*
X2493557Y2885227D01*
X2471613Y2893079D01*
X2450543Y2903044D01*
X2430552Y2915026D01*
X2411832Y2928910D01*
X2394562Y2944562D01*
X2378910Y2961832D01*
X2365026Y2980552D01*
X2353044Y3000543D01*
X2343079Y3021613D01*
X2335227Y3043557D01*
X2329563Y3066166D01*
X2326144Y3089221D01*
X2325000Y3112500D01*
X2325000Y3587500D01*
X2326144Y3610779D01*
X2329563Y3633834D01*
X2335227Y3656443D01*
X2343079Y3678387D01*
X2353044Y3699457D01*
X2365026Y3719448D01*
X2378910Y3738168D01*
X2394562Y3755438D01*
X2411832Y3771090D01*
X2430552Y3784974D01*
X2450543Y3796956D01*
X2471613Y3806921D01*
X2493557Y3814773D01*
X2516166Y3820437D01*
X2539221Y3823856D01*
X2562500Y3825000D01*
X3137500Y3825000D01*
X3160779Y3823856D01*
X3160779Y3823856D01*
G37*
D13*
X2850000Y3350000D03*
D12*
G36*
X4910779Y3823856D02*
G01*
X4933834Y3820437D01*
X4956443Y3814773D01*
X4978387Y3806921D01*
X4999457Y3796956D01*
X5019448Y3784974D01*
X5038168Y3771090D01*
X5055438Y3755438D01*
X5071090Y3738168D01*
X5084974Y3719448D01*
X5096956Y3699457D01*
X5106921Y3678387D01*
X5114773Y3656443D01*
X5120437Y3633834D01*
X5123856Y3610779D01*
X5125000Y3587500D01*
X5125000Y3112500D01*
X5123856Y3089221D01*
X5120437Y3066166D01*
X5114773Y3043557D01*
X5106921Y3021613D01*
X5096956Y3000543D01*
X5084974Y2980552D01*
X5071090Y2961832D01*
X5055438Y2944562D01*
X5038168Y2928910D01*
X5019448Y2915026D01*
X4999457Y2903044D01*
X4978387Y2893079D01*
X4956443Y2885227D01*
X4933834Y2879563D01*
X4910779Y2876144D01*
X4887500Y2875000D01*
X4312500Y2875000D01*
X4289221Y2876144D01*
X4266166Y2879563D01*
X4243557Y2885227D01*
X4221613Y2893079D01*
X4200543Y2903044D01*
X4180552Y2915026D01*
X4161832Y2928910D01*
X4144562Y2944562D01*
X4128910Y2961832D01*
X4115026Y2980552D01*
X4103044Y3000543D01*
X4093079Y3021613D01*
X4085227Y3043557D01*
X4079563Y3066166D01*
X4076144Y3089221D01*
X4075000Y3112500D01*
X4075000Y3587500D01*
X4076144Y3610779D01*
X4079563Y3633834D01*
X4085227Y3656443D01*
X4093079Y3678387D01*
X4103044Y3699457D01*
X4115026Y3719448D01*
X4128910Y3738168D01*
X4144562Y3755438D01*
X4161832Y3771090D01*
X4180552Y3784974D01*
X4200543Y3796956D01*
X4221613Y3806921D01*
X4243557Y3814773D01*
X4266166Y3820437D01*
X4289221Y3823856D01*
X4312500Y3825000D01*
X4887500Y3825000D01*
X4910779Y3823856D01*
X4910779Y3823856D01*
G37*
D13*
X4600000Y3350000D03*
D12*
G36*
X-11473221Y-12496144D02*
G01*
X-11450166Y-12499563D01*
X-11427557Y-12505227D01*
X-11405613Y-12513079D01*
X-11384543Y-12523044D01*
X-11364552Y-12535026D01*
X-11345832Y-12548910D01*
X-11328562Y-12564562D01*
X-11312910Y-12581832D01*
X-11299026Y-12600552D01*
X-11287044Y-12620543D01*
X-11277079Y-12641613D01*
X-11269227Y-12663557D01*
X-11263563Y-12686166D01*
X-11260144Y-12709221D01*
X-11259000Y-12732500D01*
X-11259000Y-13207500D01*
X-11260144Y-13230779D01*
X-11263563Y-13253834D01*
X-11269227Y-13276443D01*
X-11277079Y-13298387D01*
X-11287044Y-13319457D01*
X-11299026Y-13339448D01*
X-11312910Y-13358168D01*
X-11328562Y-13375438D01*
X-11345832Y-13391090D01*
X-11364552Y-13404974D01*
X-11384543Y-13416956D01*
X-11405613Y-13426921D01*
X-11427557Y-13434773D01*
X-11450166Y-13440437D01*
X-11473221Y-13443856D01*
X-11496500Y-13445000D01*
X-12071500Y-13445000D01*
X-12094779Y-13443856D01*
X-12117834Y-13440437D01*
X-12140443Y-13434773D01*
X-12162387Y-13426921D01*
X-12183457Y-13416956D01*
X-12203448Y-13404974D01*
X-12222168Y-13391090D01*
X-12239438Y-13375438D01*
X-12255090Y-13358168D01*
X-12268974Y-13339448D01*
X-12280956Y-13319457D01*
X-12290921Y-13298387D01*
X-12298773Y-13276443D01*
X-12304437Y-13253834D01*
X-12307856Y-13230779D01*
X-12309000Y-13207500D01*
X-12309000Y-12732500D01*
X-12307856Y-12709221D01*
X-12304437Y-12686166D01*
X-12298773Y-12663557D01*
X-12290921Y-12641613D01*
X-12280956Y-12620543D01*
X-12268974Y-12600552D01*
X-12255090Y-12581832D01*
X-12239438Y-12564562D01*
X-12222168Y-12548910D01*
X-12203448Y-12535026D01*
X-12183457Y-12523044D01*
X-12162387Y-12513079D01*
X-12140443Y-12505227D01*
X-12117834Y-12499563D01*
X-12094779Y-12496144D01*
X-12071500Y-12495000D01*
X-11496500Y-12495000D01*
X-11473221Y-12496144D01*
X-11473221Y-12496144D01*
G37*
D13*
X-11784000Y-12970000D03*
D12*
G36*
X-13223221Y-12496144D02*
G01*
X-13200166Y-12499563D01*
X-13177557Y-12505227D01*
X-13155613Y-12513079D01*
X-13134543Y-12523044D01*
X-13114552Y-12535026D01*
X-13095832Y-12548910D01*
X-13078562Y-12564562D01*
X-13062910Y-12581832D01*
X-13049026Y-12600552D01*
X-13037044Y-12620543D01*
X-13027079Y-12641613D01*
X-13019227Y-12663557D01*
X-13013563Y-12686166D01*
X-13010144Y-12709221D01*
X-13009000Y-12732500D01*
X-13009000Y-13207500D01*
X-13010144Y-13230779D01*
X-13013563Y-13253834D01*
X-13019227Y-13276443D01*
X-13027079Y-13298387D01*
X-13037044Y-13319457D01*
X-13049026Y-13339448D01*
X-13062910Y-13358168D01*
X-13078562Y-13375438D01*
X-13095832Y-13391090D01*
X-13114552Y-13404974D01*
X-13134543Y-13416956D01*
X-13155613Y-13426921D01*
X-13177557Y-13434773D01*
X-13200166Y-13440437D01*
X-13223221Y-13443856D01*
X-13246500Y-13445000D01*
X-13821500Y-13445000D01*
X-13844779Y-13443856D01*
X-13867834Y-13440437D01*
X-13890443Y-13434773D01*
X-13912387Y-13426921D01*
X-13933457Y-13416956D01*
X-13953448Y-13404974D01*
X-13972168Y-13391090D01*
X-13989438Y-13375438D01*
X-14005090Y-13358168D01*
X-14018974Y-13339448D01*
X-14030956Y-13319457D01*
X-14040921Y-13298387D01*
X-14048773Y-13276443D01*
X-14054437Y-13253834D01*
X-14057856Y-13230779D01*
X-14059000Y-13207500D01*
X-14059000Y-12732500D01*
X-14057856Y-12709221D01*
X-14054437Y-12686166D01*
X-14048773Y-12663557D01*
X-14040921Y-12641613D01*
X-14030956Y-12620543D01*
X-14018974Y-12600552D01*
X-14005090Y-12581832D01*
X-13989438Y-12564562D01*
X-13972168Y-12548910D01*
X-13953448Y-12535026D01*
X-13933457Y-12523044D01*
X-13912387Y-12513079D01*
X-13890443Y-12505227D01*
X-13867834Y-12499563D01*
X-13844779Y-12496144D01*
X-13821500Y-12495000D01*
X-13246500Y-12495000D01*
X-13223221Y-12496144D01*
X-13223221Y-12496144D01*
G37*
D13*
X-13534000Y-12970000D03*
D12*
G36*
X6360779Y8773856D02*
G01*
X6383834Y8770437D01*
X6406443Y8764773D01*
X6428387Y8756921D01*
X6449457Y8746956D01*
X6469448Y8734974D01*
X6488168Y8721090D01*
X6505438Y8705438D01*
X6521090Y8688168D01*
X6534974Y8669448D01*
X6546956Y8649457D01*
X6556921Y8628387D01*
X6564773Y8606443D01*
X6570437Y8583834D01*
X6573856Y8560779D01*
X6575000Y8537500D01*
X6575000Y7962500D01*
X6573856Y7939221D01*
X6570437Y7916166D01*
X6564773Y7893557D01*
X6556921Y7871613D01*
X6546956Y7850543D01*
X6534974Y7830552D01*
X6521090Y7811832D01*
X6505438Y7794562D01*
X6488168Y7778910D01*
X6469448Y7765026D01*
X6449457Y7753044D01*
X6428387Y7743079D01*
X6406443Y7735227D01*
X6383834Y7729563D01*
X6360779Y7726144D01*
X6337500Y7725000D01*
X5862500Y7725000D01*
X5839221Y7726144D01*
X5816166Y7729563D01*
X5793557Y7735227D01*
X5771613Y7743079D01*
X5750543Y7753044D01*
X5730552Y7765026D01*
X5711832Y7778910D01*
X5694562Y7794562D01*
X5678910Y7811832D01*
X5665026Y7830552D01*
X5653044Y7850543D01*
X5643079Y7871613D01*
X5635227Y7893557D01*
X5629563Y7916166D01*
X5626144Y7939221D01*
X5625000Y7962500D01*
X5625000Y8537500D01*
X5626144Y8560779D01*
X5629563Y8583834D01*
X5635227Y8606443D01*
X5643079Y8628387D01*
X5653044Y8649457D01*
X5665026Y8669448D01*
X5678910Y8688168D01*
X5694562Y8705438D01*
X5711832Y8721090D01*
X5730552Y8734974D01*
X5750543Y8746956D01*
X5771613Y8756921D01*
X5793557Y8764773D01*
X5816166Y8770437D01*
X5839221Y8773856D01*
X5862500Y8775000D01*
X6337500Y8775000D01*
X6360779Y8773856D01*
X6360779Y8773856D01*
G37*
D13*
X6100000Y8250000D03*
D12*
G36*
X6360779Y10523856D02*
G01*
X6383834Y10520437D01*
X6406443Y10514773D01*
X6428387Y10506921D01*
X6449457Y10496956D01*
X6469448Y10484974D01*
X6488168Y10471090D01*
X6505438Y10455438D01*
X6521090Y10438168D01*
X6534974Y10419448D01*
X6546956Y10399457D01*
X6556921Y10378387D01*
X6564773Y10356443D01*
X6570437Y10333834D01*
X6573856Y10310779D01*
X6575000Y10287500D01*
X6575000Y9712500D01*
X6573856Y9689221D01*
X6570437Y9666166D01*
X6564773Y9643557D01*
X6556921Y9621613D01*
X6546956Y9600543D01*
X6534974Y9580552D01*
X6521090Y9561832D01*
X6505438Y9544562D01*
X6488168Y9528910D01*
X6469448Y9515026D01*
X6449457Y9503044D01*
X6428387Y9493079D01*
X6406443Y9485227D01*
X6383834Y9479563D01*
X6360779Y9476144D01*
X6337500Y9475000D01*
X5862500Y9475000D01*
X5839221Y9476144D01*
X5816166Y9479563D01*
X5793557Y9485227D01*
X5771613Y9493079D01*
X5750543Y9503044D01*
X5730552Y9515026D01*
X5711832Y9528910D01*
X5694562Y9544562D01*
X5678910Y9561832D01*
X5665026Y9580552D01*
X5653044Y9600543D01*
X5643079Y9621613D01*
X5635227Y9643557D01*
X5629563Y9666166D01*
X5626144Y9689221D01*
X5625000Y9712500D01*
X5625000Y10287500D01*
X5626144Y10310779D01*
X5629563Y10333834D01*
X5635227Y10356443D01*
X5643079Y10378387D01*
X5653044Y10399457D01*
X5665026Y10419448D01*
X5678910Y10438168D01*
X5694562Y10455438D01*
X5711832Y10471090D01*
X5730552Y10484974D01*
X5750543Y10496956D01*
X5771613Y10506921D01*
X5793557Y10514773D01*
X5816166Y10520437D01*
X5839221Y10523856D01*
X5862500Y10525000D01*
X6337500Y10525000D01*
X6360779Y10523856D01*
X6360779Y10523856D01*
G37*
D13*
X6100000Y10000000D03*
D12*
G36*
X3076779Y9973856D02*
G01*
X3099834Y9970437D01*
X3122443Y9964773D01*
X3144387Y9956921D01*
X3165457Y9946956D01*
X3185448Y9934974D01*
X3204168Y9921090D01*
X3221438Y9905438D01*
X3237090Y9888168D01*
X3250974Y9869448D01*
X3262956Y9849457D01*
X3272921Y9828387D01*
X3280773Y9806443D01*
X3286437Y9783834D01*
X3289856Y9760779D01*
X3291000Y9737500D01*
X3291000Y9162500D01*
X3289856Y9139221D01*
X3286437Y9116166D01*
X3280773Y9093557D01*
X3272921Y9071613D01*
X3262956Y9050543D01*
X3250974Y9030552D01*
X3237090Y9011832D01*
X3221438Y8994562D01*
X3204168Y8978910D01*
X3185448Y8965026D01*
X3165457Y8953044D01*
X3144387Y8943079D01*
X3122443Y8935227D01*
X3099834Y8929563D01*
X3076779Y8926144D01*
X3053500Y8925000D01*
X2578500Y8925000D01*
X2555221Y8926144D01*
X2532166Y8929563D01*
X2509557Y8935227D01*
X2487613Y8943079D01*
X2466543Y8953044D01*
X2446552Y8965026D01*
X2427832Y8978910D01*
X2410562Y8994562D01*
X2394910Y9011832D01*
X2381026Y9030552D01*
X2369044Y9050543D01*
X2359079Y9071613D01*
X2351227Y9093557D01*
X2345563Y9116166D01*
X2342144Y9139221D01*
X2341000Y9162500D01*
X2341000Y9737500D01*
X2342144Y9760779D01*
X2345563Y9783834D01*
X2351227Y9806443D01*
X2359079Y9828387D01*
X2369044Y9849457D01*
X2381026Y9869448D01*
X2394910Y9888168D01*
X2410562Y9905438D01*
X2427832Y9921090D01*
X2446552Y9934974D01*
X2466543Y9946956D01*
X2487613Y9956921D01*
X2509557Y9964773D01*
X2532166Y9970437D01*
X2555221Y9973856D01*
X2578500Y9975000D01*
X3053500Y9975000D01*
X3076779Y9973856D01*
X3076779Y9973856D01*
G37*
D13*
X2816000Y9450000D03*
D12*
G36*
X3076779Y11723856D02*
G01*
X3099834Y11720437D01*
X3122443Y11714773D01*
X3144387Y11706921D01*
X3165457Y11696956D01*
X3185448Y11684974D01*
X3204168Y11671090D01*
X3221438Y11655438D01*
X3237090Y11638168D01*
X3250974Y11619448D01*
X3262956Y11599457D01*
X3272921Y11578387D01*
X3280773Y11556443D01*
X3286437Y11533834D01*
X3289856Y11510779D01*
X3291000Y11487500D01*
X3291000Y10912500D01*
X3289856Y10889221D01*
X3286437Y10866166D01*
X3280773Y10843557D01*
X3272921Y10821613D01*
X3262956Y10800543D01*
X3250974Y10780552D01*
X3237090Y10761832D01*
X3221438Y10744562D01*
X3204168Y10728910D01*
X3185448Y10715026D01*
X3165457Y10703044D01*
X3144387Y10693079D01*
X3122443Y10685227D01*
X3099834Y10679563D01*
X3076779Y10676144D01*
X3053500Y10675000D01*
X2578500Y10675000D01*
X2555221Y10676144D01*
X2532166Y10679563D01*
X2509557Y10685227D01*
X2487613Y10693079D01*
X2466543Y10703044D01*
X2446552Y10715026D01*
X2427832Y10728910D01*
X2410562Y10744562D01*
X2394910Y10761832D01*
X2381026Y10780552D01*
X2369044Y10800543D01*
X2359079Y10821613D01*
X2351227Y10843557D01*
X2345563Y10866166D01*
X2342144Y10889221D01*
X2341000Y10912500D01*
X2341000Y11487500D01*
X2342144Y11510779D01*
X2345563Y11533834D01*
X2351227Y11556443D01*
X2359079Y11578387D01*
X2369044Y11599457D01*
X2381026Y11619448D01*
X2394910Y11638168D01*
X2410562Y11655438D01*
X2427832Y11671090D01*
X2446552Y11684974D01*
X2466543Y11696956D01*
X2487613Y11706921D01*
X2509557Y11714773D01*
X2532166Y11720437D01*
X2555221Y11723856D01*
X2578500Y11725000D01*
X3053500Y11725000D01*
X3076779Y11723856D01*
X3076779Y11723856D01*
G37*
D13*
X2816000Y11200000D03*
D12*
G36*
X3076779Y-46144D02*
G01*
X3099834Y-49563D01*
X3122443Y-55227D01*
X3144387Y-63079D01*
X3165457Y-73044D01*
X3185448Y-85026D01*
X3204168Y-98910D01*
X3221438Y-114562D01*
X3237090Y-131832D01*
X3250974Y-150552D01*
X3262956Y-170543D01*
X3272921Y-191613D01*
X3280773Y-213557D01*
X3286437Y-236166D01*
X3289856Y-259221D01*
X3291000Y-282500D01*
X3291000Y-857500D01*
X3289856Y-880779D01*
X3286437Y-903834D01*
X3280773Y-926443D01*
X3272921Y-948387D01*
X3262956Y-969457D01*
X3250974Y-989448D01*
X3237090Y-1008168D01*
X3221438Y-1025438D01*
X3204168Y-1041090D01*
X3185448Y-1054974D01*
X3165457Y-1066956D01*
X3144387Y-1076921D01*
X3122443Y-1084773D01*
X3099834Y-1090437D01*
X3076779Y-1093856D01*
X3053500Y-1095000D01*
X2578500Y-1095000D01*
X2555221Y-1093856D01*
X2532166Y-1090437D01*
X2509557Y-1084773D01*
X2487613Y-1076921D01*
X2466543Y-1066956D01*
X2446552Y-1054974D01*
X2427832Y-1041090D01*
X2410562Y-1025438D01*
X2394910Y-1008168D01*
X2381026Y-989448D01*
X2369044Y-969457D01*
X2359079Y-948387D01*
X2351227Y-926443D01*
X2345563Y-903834D01*
X2342144Y-880779D01*
X2341000Y-857500D01*
X2341000Y-282500D01*
X2342144Y-259221D01*
X2345563Y-236166D01*
X2351227Y-213557D01*
X2359079Y-191613D01*
X2369044Y-170543D01*
X2381026Y-150552D01*
X2394910Y-131832D01*
X2410562Y-114562D01*
X2427832Y-98910D01*
X2446552Y-85026D01*
X2466543Y-73044D01*
X2487613Y-63079D01*
X2509557Y-55227D01*
X2532166Y-49563D01*
X2555221Y-46144D01*
X2578500Y-45000D01*
X3053500Y-45000D01*
X3076779Y-46144D01*
X3076779Y-46144D01*
G37*
D13*
X2816000Y-570000D03*
D12*
G36*
X3076779Y1703856D02*
G01*
X3099834Y1700437D01*
X3122443Y1694773D01*
X3144387Y1686921D01*
X3165457Y1676956D01*
X3185448Y1664974D01*
X3204168Y1651090D01*
X3221438Y1635438D01*
X3237090Y1618168D01*
X3250974Y1599448D01*
X3262956Y1579457D01*
X3272921Y1558387D01*
X3280773Y1536443D01*
X3286437Y1513834D01*
X3289856Y1490779D01*
X3291000Y1467500D01*
X3291000Y892500D01*
X3289856Y869221D01*
X3286437Y846166D01*
X3280773Y823557D01*
X3272921Y801613D01*
X3262956Y780543D01*
X3250974Y760552D01*
X3237090Y741832D01*
X3221438Y724562D01*
X3204168Y708910D01*
X3185448Y695026D01*
X3165457Y683044D01*
X3144387Y673079D01*
X3122443Y665227D01*
X3099834Y659563D01*
X3076779Y656144D01*
X3053500Y655000D01*
X2578500Y655000D01*
X2555221Y656144D01*
X2532166Y659563D01*
X2509557Y665227D01*
X2487613Y673079D01*
X2466543Y683044D01*
X2446552Y695026D01*
X2427832Y708910D01*
X2410562Y724562D01*
X2394910Y741832D01*
X2381026Y760552D01*
X2369044Y780543D01*
X2359079Y801613D01*
X2351227Y823557D01*
X2345563Y846166D01*
X2342144Y869221D01*
X2341000Y892500D01*
X2341000Y1467500D01*
X2342144Y1490779D01*
X2345563Y1513834D01*
X2351227Y1536443D01*
X2359079Y1558387D01*
X2369044Y1579457D01*
X2381026Y1599448D01*
X2394910Y1618168D01*
X2410562Y1635438D01*
X2427832Y1651090D01*
X2446552Y1664974D01*
X2466543Y1676956D01*
X2487613Y1686921D01*
X2509557Y1694773D01*
X2532166Y1700437D01*
X2555221Y1703856D01*
X2578500Y1705000D01*
X3053500Y1705000D01*
X3076779Y1703856D01*
X3076779Y1703856D01*
G37*
D13*
X2816000Y1180000D03*
D12*
G36*
X4876779Y-46144D02*
G01*
X4899834Y-49563D01*
X4922443Y-55227D01*
X4944387Y-63079D01*
X4965457Y-73044D01*
X4985448Y-85026D01*
X5004168Y-98910D01*
X5021438Y-114562D01*
X5037090Y-131832D01*
X5050974Y-150552D01*
X5062956Y-170543D01*
X5072921Y-191613D01*
X5080773Y-213557D01*
X5086437Y-236166D01*
X5089856Y-259221D01*
X5091000Y-282500D01*
X5091000Y-857500D01*
X5089856Y-880779D01*
X5086437Y-903834D01*
X5080773Y-926443D01*
X5072921Y-948387D01*
X5062956Y-969457D01*
X5050974Y-989448D01*
X5037090Y-1008168D01*
X5021438Y-1025438D01*
X5004168Y-1041090D01*
X4985448Y-1054974D01*
X4965457Y-1066956D01*
X4944387Y-1076921D01*
X4922443Y-1084773D01*
X4899834Y-1090437D01*
X4876779Y-1093856D01*
X4853500Y-1095000D01*
X4378500Y-1095000D01*
X4355221Y-1093856D01*
X4332166Y-1090437D01*
X4309557Y-1084773D01*
X4287613Y-1076921D01*
X4266543Y-1066956D01*
X4246552Y-1054974D01*
X4227832Y-1041090D01*
X4210562Y-1025438D01*
X4194910Y-1008168D01*
X4181026Y-989448D01*
X4169044Y-969457D01*
X4159079Y-948387D01*
X4151227Y-926443D01*
X4145563Y-903834D01*
X4142144Y-880779D01*
X4141000Y-857500D01*
X4141000Y-282500D01*
X4142144Y-259221D01*
X4145563Y-236166D01*
X4151227Y-213557D01*
X4159079Y-191613D01*
X4169044Y-170543D01*
X4181026Y-150552D01*
X4194910Y-131832D01*
X4210562Y-114562D01*
X4227832Y-98910D01*
X4246552Y-85026D01*
X4266543Y-73044D01*
X4287613Y-63079D01*
X4309557Y-55227D01*
X4332166Y-49563D01*
X4355221Y-46144D01*
X4378500Y-45000D01*
X4853500Y-45000D01*
X4876779Y-46144D01*
X4876779Y-46144D01*
G37*
D13*
X4616000Y-570000D03*
D12*
G36*
X4876779Y1703856D02*
G01*
X4899834Y1700437D01*
X4922443Y1694773D01*
X4944387Y1686921D01*
X4965457Y1676956D01*
X4985448Y1664974D01*
X5004168Y1651090D01*
X5021438Y1635438D01*
X5037090Y1618168D01*
X5050974Y1599448D01*
X5062956Y1579457D01*
X5072921Y1558387D01*
X5080773Y1536443D01*
X5086437Y1513834D01*
X5089856Y1490779D01*
X5091000Y1467500D01*
X5091000Y892500D01*
X5089856Y869221D01*
X5086437Y846166D01*
X5080773Y823557D01*
X5072921Y801613D01*
X5062956Y780543D01*
X5050974Y760552D01*
X5037090Y741832D01*
X5021438Y724562D01*
X5004168Y708910D01*
X4985448Y695026D01*
X4965457Y683044D01*
X4944387Y673079D01*
X4922443Y665227D01*
X4899834Y659563D01*
X4876779Y656144D01*
X4853500Y655000D01*
X4378500Y655000D01*
X4355221Y656144D01*
X4332166Y659563D01*
X4309557Y665227D01*
X4287613Y673079D01*
X4266543Y683044D01*
X4246552Y695026D01*
X4227832Y708910D01*
X4210562Y724562D01*
X4194910Y741832D01*
X4181026Y760552D01*
X4169044Y780543D01*
X4159079Y801613D01*
X4151227Y823557D01*
X4145563Y846166D01*
X4142144Y869221D01*
X4141000Y892500D01*
X4141000Y1467500D01*
X4142144Y1490779D01*
X4145563Y1513834D01*
X4151227Y1536443D01*
X4159079Y1558387D01*
X4169044Y1579457D01*
X4181026Y1599448D01*
X4194910Y1618168D01*
X4210562Y1635438D01*
X4227832Y1651090D01*
X4246552Y1664974D01*
X4266543Y1676956D01*
X4287613Y1686921D01*
X4309557Y1694773D01*
X4332166Y1700437D01*
X4355221Y1703856D01*
X4378500Y1705000D01*
X4853500Y1705000D01*
X4876779Y1703856D01*
X4876779Y1703856D01*
G37*
D13*
X4616000Y1180000D03*
M02*
